<svg xmlns:xlink="http://www.w3.org/1999/xlink" xmlns="http://www.w3.org/2000/svg" width="453.6pt" height="338.54pt" viewBox="0 0 453.6 338.54" version="1.1">
 
 <defs>
  <style type="text/css">*{stroke-linejoin: round; stroke-linecap: butt}</style>
 </defs>
 <g id="figure_1">
  <g id="patch_1">
   <path d="M 0 338.54  L 453.6 338.54  L 453.6 0  L 0 0  L 0 338.54  z " style="fill: none; opacity: 0" id="mb_auto_path_0"/>
  </g>
  <g id="axes_1">
   <g id="patch_2">
    <path d="M 7.2 331.34  L 443.4 331.34  L 443.4 20.984473  L 7.2 20.984473  L 7.2 331.34  z " style="fill: none; opacity: 0" id="mb_auto_path_1"/>
   </g>
   <g id="matplotlib.axis_1">
    <g id="text_1">
     <!-- $x$ -->
     <g transform="translate(426.769782 200.917732) scale(0.3 -0.3)" id="mb_auto_g_0">
      <defs>
       <path id="CMMI12-78" d="M 3034 2606  C 2829 2567 2752 2414 2752 2293  C 2752 2139 2874 2088 2963 2088  C 3155 2088 3290 2254 3290 2427  C 3290 2695 2982 2816 2714 2816  C 2323 2816 2106 2433 2048 2312  C 1901 2816 1504 2816 1389 2816  C 736 2816 390 1980 390 1839  C 390 1814 416 1782 461 1782  C 512 1782 525 1820 538 1846  C 755 2555 1184 2689 1370 2689  C 1658 2689 1715 2420 1715 2267  C 1715 2127 1677 1980 1600 1673  L 1382 798  C 1286 415 1101 64 762 64  C 730 64 570 64 435 147  C 666 192 717 383 717 460  C 717 588 621 664 499 664  C 346 664 179 530 179 326  C 179 57 480 -64 755 -64  C 1062 -64 1280 179 1414 441  C 1517 64 1837 -64 2074 -64  C 2726 -64 3072 773 3072 913  C 3072 945 3046 971 3008 971  C 2950 971 2944 939 2925 888  C 2752 326 2381 64 2093 64  C 1869 64 1747 230 1747 492  C 1747 632 1773 734 1875 1156  L 2099 2024  C 2195 2408 2413 2689 2707 2689  C 2720 2689 2899 2689 3034 2606  z " transform="scale(0.015625)"/>
      </defs>
      <use xlink:href="#CMMI12-78" transform="scale(0.996264)" id="mb_auto_use_0"/>
     </g>
    </g>
   </g>
   <g id="matplotlib.axis_2">
    <g id="text_2">
     <!-- $y$ -->
     <g transform="translate(207.030756 15.171022) scale(0.3 -0.3)" id="mb_auto_g_1">
      <defs>
       <path id="CMMI12-79" d="M 1683 -700  C 1510 -939 1261 -1152 947 -1152  C 870 -1152 563 -1152 467 -889  C 486 -895 518 -895 531 -895  C 723 -895 851 -729 851 -582  C 851 -435 730 -384 634 -384  C 531 -384 307 -458 307 -759  C 307 -1071 582 -1286 947 -1286  C 1587 -1286 2234 -700 2413 6  L 3040 2485  C 3046 2517 3059 2556 3059 2594  C 3059 2689 2982 2753 2886 2753  C 2829 2753 2694 2727 2643 2535  L 2170 658  C 2138 543 2138 530 2086 460  C 1958 281 1747 64 1440 64  C 1082 64 1050 415 1050 588  C 1050 952 1222 1443 1395 1903  C 1466 2088 1504 2178 1504 2305  C 1504 2574 1312 2816 998 2816  C 410 2816 173 1890 173 1839  C 173 1814 198 1782 243 1782  C 301 1782 307 1807 333 1897  C 486 2433 730 2689 979 2689  C 1037 2689 1146 2689 1146 2478  C 1146 2312 1075 2127 979 1884  C 666 1047 666 837 666 683  C 666 77 1101 -64 1421 -64  C 1606 -64 1837 -6 2061 230  L 2067 224  C 1971 -147 1907 -392 1683 -700  z " transform="scale(0.015625)"/>
      </defs>
      <use xlink:href="#CMMI12-79" transform="scale(0.996264)" id="mb_auto_use_1"/>
     </g>
    </g>
   </g>
   <g id="line2d_1">
    <defs>
     <path id="mb70f3add69" d="M 3 0  L -3 -3  L -3 3  z " style="stroke: #000000; stroke-linejoin: miter"/>
    </defs>
    <g id="mb_auto_g_2">
     <use xlink:href="#mb70f3add69" x="443.4" y="176.162236" style="stroke: #000000; stroke-linejoin: miter" id="mb_auto_use_2"/>
    </g>
   </g>
   <g id="line2d_2">
    <defs>
     <path id="mee6463d097" d="M 0 -3  L -3 3  L 3 3  z " style="stroke: #000000; stroke-linejoin: miter"/>
    </defs>
    <g id="mb_auto_g_3">
     <use xlink:href="#mee6463d097" x="225.3" y="20.984473" style="stroke: #000000; stroke-linejoin: miter" id="mb_auto_use_3"/>
    </g>
   </g>
   <g id="line2d_3">
    <defs>
     <path id="mfe4f732622" d="M 0 5  C 1.326016 5 2.597899 4.473168 3.535534 3.535534  C 4.473168 2.597899 5 1.326016 5 0  C 5 -1.326016 4.473168 -2.597899 3.535534 -3.535534  C 2.597899 -4.473168 1.326016 -5 0 -5  C -1.326016 -5 -2.597899 -4.473168 -3.535534 -3.535534  C -4.473168 -2.597899 -5 -1.326016 -5 0  C -5 1.326016 -4.473168 2.597899 -3.535534 3.535534  C -2.597899 4.473168 -1.326016 5 0 5  z " style="stroke: #000000; stroke-opacity: 0.8"/>
    </defs>
    <g clip-path="url(#p44a7789a06)" id="mb_auto_g_4">
     <use xlink:href="#mfe4f732622" x="370.7" y="176.162236" style="fill-opacity: 0.8; stroke: #000000; stroke-opacity: 0.8" id="mb_auto_use_4"/>
    </g>
   </g>
   <g id="line2d_4">
    <path d="M 370.7 176.162236  L 370.576617 173.781265  L 370.206812 171.410802  L 369.591614 169.061321  L 368.732735 166.743232  L 367.632564 164.466845  L 366.29416 162.242336  L 364.721245 160.07972  L 362.918188 157.988814  L 360.889997 155.97921  L 358.642299 154.060242  L 356.181329 152.240957  L 353.513904 150.530088  L 350.647407 148.936024  L 347.589765 147.466783  L 344.349423 146.129989  L 340.93532 144.932846  L 337.356859 143.882114  L 333.623884 142.98409  L 329.746646 142.244586  L 325.735772 141.668908  L 321.602236 141.261844  L 317.357325 141.027645  L 313.012601 140.97001  L 308.579872 141.092075  L 304.071152 141.396405  L 299.498629 141.884981  L 294.874624 142.559193  L 290.211555 143.41984  L 285.521903 144.467121  L 280.81817 145.700636  L 276.112843 147.119384  L 271.418359 148.72177  L 266.747063 150.505604  L 262.111176 152.468107  L 257.522753 154.605924  L 252.993651 156.915126  L 248.535495 159.391227  L 244.159635 162.029193  L 239.877121 164.823458  L 235.698668 167.767941  L 231.634618 170.856062  L 227.694918 174.080763  L 223.889086 177.434527  L 220.226179 180.909402  L 216.714777 184.497024  L 213.362945 188.188639  L 210.178218 191.975134  L 207.167576 195.84706  L 204.337425 199.794662  L 201.693574 203.807907  L 199.241224 207.876517  L 196.984949 211.989994  L 194.928686 216.137659  L 193.075722 220.308675  L 191.428684 224.492088  L 189.989535 228.676855  L 188.759566 232.851877  L 187.739398 237.006036  L 186.928973 241.128224  L 186.327563 245.20738  L 185.93377 249.23252  L 185.745532 253.192773  L 185.760129 257.077411  L 185.974194 260.875886  L 186.383724 264.577855  L 186.984093 268.173216  L 187.770069 271.652138  L 188.735827 275.005089  L 189.874974 278.222865  L 191.180565 281.296619  L 192.645124 284.217888  L 194.260676 286.978615  L 196.018764 289.571178  L 197.91048 291.98841  L 199.926492 294.223623  L 202.057076 296.270624  L 204.292145 298.123738  L 206.62128 299.777824  L 209.033768 301.22829  L 211.518629 302.471104  L 214.064655 303.502814  L 216.660445 304.32055  L 219.294442 304.922038  L 221.954966 305.305603  L 224.630254 305.47018  L 227.308498 305.415308  L 229.977879 305.141142  L 232.626605 304.648444  L 235.242952 303.938585  L 237.815296 303.01354  L 240.332153 301.875883  L 242.782214 300.528775  L 245.154383 298.97596  L 247.437807 297.221751  L 249.621915 295.271017  L 251.696453 293.129168  L 253.651508 290.80214  L 255.47755 288.296376  L 257.165456 285.618806  L 258.70654 282.776827  L 260.092581 279.778283  L 261.315851 276.631435  L 262.369139 273.344943  L 263.24577 269.927835  L 263.939634 266.389483  L 264.4452 262.739571  L 264.757537 258.988071  L 264.872328 255.145208  L 264.785888 251.221431  L 264.495172 247.227384  L 263.997787 243.17387  L 263.292003 239.071819  L 262.376755 234.932259  L 261.251652 230.766279  L 259.916973 226.584995  L 258.373676 222.39952  L 256.623388 218.22093  L 254.668405 214.060227  L 252.511684 209.928311  L 250.15684 205.835943  L 247.608128 201.793716  L 244.870438 197.812022  L 241.949278 193.901021  L 238.850756 190.07061  L 235.581569 186.330394  L 232.148976 182.689658  L 228.560781 179.157339  L 224.825309 175.741999  L 220.951381 172.451799  L 216.948289 169.294476  L 212.825768 166.277322  L 208.593968 163.407156  L 204.263421 160.690312  L 199.845011 158.132616  L 195.349945 155.73937  L 190.789715 153.515334  L 186.176064 151.464718  L 181.520955 149.591166  L 176.836529 147.897746  L 172.135073 146.386942  L 167.428985 145.060648  L 162.730729 143.920163  L 158.052806 142.966186  L 153.407712 142.198818  L 148.807901 141.617561  L 144.265747 141.22132  L 139.79351 141.008406  L 135.403293 140.976548  L 131.107014 141.122892  L 126.916361 141.444021  L 122.842765 141.935957  L 118.897358 142.594179  L 115.090945 143.413639  L 111.433971 144.388774  L 107.936485 145.513528  L 104.608116 146.78137  L 101.458037 148.185314  L 98.494944 149.717945  L 95.727025 151.371438  L 93.161939 153.137586  L 90.806789 155.007824  L 88.668103 156.973259  L 86.751814 159.024698  L 85.063242 161.152673  L 83.607076 163.347476  L 82.387365 165.599186  L 81.407499 167.897706  L 80.670204 170.232786  L 80.177531 172.594064  L 79.930851 174.971093  L 79.930851 177.353379  L 80.177531 179.730409  L 80.670204 182.091687  L 81.407499 184.426767  L 82.387365 186.725286  L 83.607076 188.976997  L 85.063242 191.1718  L 86.751814 193.299775  L 88.668103 195.351213  L 90.806789 197.316649  L 93.161939 199.186887  L 95.727025 200.953035  L 98.494944 202.606527  L 101.458037 204.139158  L 104.608116 205.543103  L 107.936485 206.810945  L 111.433971 207.935699  L 115.090945 208.910834  L 118.897358 209.730294  L 122.842765 210.388516  L 126.916361 210.880452  L 131.107014 211.20158  L 135.403293 211.347925  L 139.79351 211.316067  L 144.265747 211.103153  L 148.807901 210.706911  L 153.407712 210.125654  L 158.052806 209.358287  L 162.730729 208.40431  L 167.428985 207.263825  L 172.135073 205.937531  L 176.836529 204.426727  L 181.520955 202.733307  L 186.176064 200.859755  L 190.789715 198.809139  L 195.349945 196.585103  L 199.845011 194.191856  L 204.263421 191.63416  L 208.593968 188.917317  L 212.825768 186.047151  L 216.948289 183.029996  L 220.951381 179.872674  L 224.825309 176.582474  L 228.560781 173.167133  L 232.148976 169.634815  L 235.581569 165.994079  L 238.850756 162.253863  L 241.949278 158.423452  L 244.870438 154.512451  L 247.608128 150.530757  L 250.15684 146.48853  L 252.511684 142.396162  L 254.668405 138.264246  L 256.623388 134.103543  L 258.373676 129.924952  L 259.916973 125.739478  L 261.251652 121.558194  L 262.376755 117.392213  L 263.292003 113.252653  L 263.997787 109.150603  L 264.495172 105.097089  L 264.785888 101.103042  L 264.872328 97.179265  L 264.757537 93.336402  L 264.4452 89.584902  L 263.939634 85.93499  L 263.24577 82.396637  L 262.369139 78.97953  L 261.315851 75.693037  L 260.092581 72.54619  L 258.70654 69.547645  L 257.165456 66.705667  L 255.47755 64.028097  L 253.651508 61.522333  L 251.696453 59.195305  L 249.621915 57.053456  L 247.437807 55.102722  L 245.154383 53.348513  L 242.782214 51.795698  L 240.332153 50.44859  L 237.815296 49.310932  L 235.242952 48.385888  L 232.626605 47.676029  L 229.977879 47.183331  L 227.308498 46.909165  L 224.630254 46.854293  L 221.954966 47.018869  L 219.294442 47.402435  L 216.660445 48.003923  L 214.064655 48.821659  L 211.518629 49.853368  L 209.033768 51.096183  L 206.62128 52.546648  L 204.292145 54.200734  L 202.057076 56.053849  L 199.926492 58.10085  L 197.91048 60.336062  L 196.018764 62.753295  L 194.260676 65.345858  L 192.645124 68.106585  L 191.180565 71.027854  L 189.874974 74.101608  L 188.735827 77.319384  L 187.770069 80.672335  L 186.984093 84.151256  L 186.383724 87.746618  L 185.974194 91.448587  L 185.760129 95.247061  L 185.745532 99.1317  L 185.93377 103.091953  L 186.327563 107.117093  L 186.928973 111.196249  L 187.739398 115.318437  L 188.759566 119.472596  L 189.989535 123.647618  L 191.428684 127.832385  L 193.075722 132.015798  L 194.928686 136.186814  L 196.984949 140.334478  L 199.241224 144.447956  L 201.693574 148.516566  L 204.337425 152.529811  L 207.167576 156.477413  L 210.178218 160.349339  L 213.362945 164.135834  L 216.714777 167.827449  L 220.226179 171.41507  L 223.889086 174.889946  L 227.694918 178.24371  L 231.634618 181.468411  L 235.698668 184.556532  L 239.877121 187.501015  L 244.159635 190.29528  L 248.535495 192.933246  L 252.993651 195.409346  L 257.522753 197.718549  L 262.111176 199.856365  L 266.747063 201.818869  L 271.418359 203.602702  L 276.112843 205.205088  L 280.81817 206.623837  L 285.521903 207.857351  L 290.211555 208.904632  L 294.874624 209.76528  L 299.498629 210.439492  L 304.071152 210.928067  L 308.579872 211.232397  L 313.012601 211.354463  L 317.357325 211.296828  L 321.602236 211.062628  L 325.735772 210.655565  L 329.746646 210.079887  L 333.623884 209.340383  L 337.356859 208.442359  L 340.93532 207.391627  L 344.349423 206.194484  L 347.589765 204.85769  L 350.647407 203.388449  L 353.513904 201.794384  L 356.181329 200.083516  L 358.642299 198.264231  L 360.889997 196.345263  L 362.918188 194.335659  L 364.721245 192.244753  L 366.29416 190.082137  L 367.632564 187.857628  L 368.732735 185.58124  L 369.591614 183.263152  L 370.206812 180.913671  L 370.576617 178.543208  L 370.7 176.162236  L 370.7 176.162236  " clip-path="url(#p44a7789a06)" style="fill: none; stroke: #0072b2; stroke-width: 2.5; stroke-linecap: square" id="mb_auto_path_2"/>
   </g>
   <g id="patch_3">
    <path d="M 225.3 331.34  L 225.3 20.984473  " style="fill: none; stroke: #000000; stroke-width: 0.8; stroke-linejoin: miter; stroke-linecap: square" id="mb_auto_path_3"/>
   </g>
   <g id="patch_4">
    <path d="M 443.4 331.34  L 443.4 20.984473  " style="fill: none" id="mb_auto_path_4"/>
   </g>
   <g id="patch_5">
    <path d="M 7.2 176.162236  L 443.4 176.162236  " style="fill: none; stroke: #000000; stroke-width: 0.8; stroke-linejoin: miter; stroke-linecap: square" id="mb_auto_path_5"/>
   </g>
   <g id="patch_6">
    <path d="M 7.2 20.984473  L 443.4 20.984473  " style="fill: none" id="mb_auto_path_6"/>
   </g>
   <g id="Quiver_1">
    <path d="M 369.3914 176.162236  L 369.3914 123.282235  L 364.157 124.590835  L 370.7 111.504835  L 377.243 124.590835  L 372.0086 123.282235  L 372.0086 176.162236  L 369.3914 176.162236  " clip-path="url(#p44a7789a06)" style="fill: #dc5e8b" id="mb_auto_path_7"/>
   </g>
  </g>
 </g>
 <defs>
  <clipPath id="p44a7789a06">
   <rect x="7.2" y="20.984473" width="436.2" height="310.355527" id="mb_auto_rect_0"/>
  </clipPath>
 </defs>
</svg>