<svg xmlns:xlink="http://www.w3.org/1999/xlink" xmlns="http://www.w3.org/2000/svg" width="453.6pt" height="336.645839pt" viewBox="0 0 453.6 336.645839" version="1.1">
 
 <defs>
  <style type="text/css">*{stroke-linejoin: round; stroke-linecap: butt}</style>
 </defs>
 <g id="figure_1">
  <g id="patch_1">
   <path d="M 0 336.645839  L 453.6 336.645839  L 453.6 0  L 0 0  L 0 336.645839  z " style="fill: none; opacity: 0" id="mb_auto_path_0"/>
  </g>
  <g id="axes_1">
   <g id="patch_2">
    <path d="M 7.2 317.403054  L 443.4 317.403054  L 443.4 20.984473  L 7.2 20.984473  L 7.2 317.403054  z " style="fill: none; opacity: 0" id="mb_auto_path_1"/>
   </g>
   <g id="matplotlib.axis_1">
    <g id="text_1">
     <!-- $x$ -->
     <g transform="translate(426.769782 323.632388) scale(0.3 -0.3)" id="mb_auto_g_0">
      <defs>
       <path id="CMMI12-78" d="M 3034 2606  C 2829 2567 2752 2414 2752 2293  C 2752 2139 2874 2088 2963 2088  C 3155 2088 3290 2254 3290 2427  C 3290 2695 2982 2816 2714 2816  C 2323 2816 2106 2433 2048 2312  C 1901 2816 1504 2816 1389 2816  C 736 2816 390 1980 390 1839  C 390 1814 416 1782 461 1782  C 512 1782 525 1820 538 1846  C 755 2555 1184 2689 1370 2689  C 1658 2689 1715 2420 1715 2267  C 1715 2127 1677 1980 1600 1673  L 1382 798  C 1286 415 1101 64 762 64  C 730 64 570 64 435 147  C 666 192 717 383 717 460  C 717 588 621 664 499 664  C 346 664 179 530 179 326  C 179 57 480 -64 755 -64  C 1062 -64 1280 179 1414 441  C 1517 64 1837 -64 2074 -64  C 2726 -64 3072 773 3072 913  C 3072 945 3046 971 3008 971  C 2950 971 2944 939 2925 888  C 2752 326 2381 64 2093 64  C 1869 64 1747 230 1747 492  C 1747 632 1773 734 1875 1156  L 2099 2024  C 2195 2408 2413 2689 2707 2689  C 2720 2689 2899 2689 3034 2606  z " transform="scale(0.015625)"/>
      </defs>
      <use xlink:href="#CMMI12-78" transform="scale(0.996264)" id="mb_auto_use_0"/>
     </g>
    </g>
   </g>
   <g id="matplotlib.axis_2">
    <g id="text_2">
     <!-- $y$ -->
     <g transform="translate(207.030756 15.171022) scale(0.3 -0.3)" id="mb_auto_g_1">
      <defs>
       <path id="CMMI12-79" d="M 1683 -700  C 1510 -939 1261 -1152 947 -1152  C 870 -1152 563 -1152 467 -889  C 486 -895 518 -895 531 -895  C 723 -895 851 -729 851 -582  C 851 -435 730 -384 634 -384  C 531 -384 307 -458 307 -759  C 307 -1071 582 -1286 947 -1286  C 1587 -1286 2234 -700 2413 6  L 3040 2485  C 3046 2517 3059 2556 3059 2594  C 3059 2689 2982 2753 2886 2753  C 2829 2753 2694 2727 2643 2535  L 2170 658  C 2138 543 2138 530 2086 460  C 1958 281 1747 64 1440 64  C 1082 64 1050 415 1050 588  C 1050 952 1222 1443 1395 1903  C 1466 2088 1504 2178 1504 2305  C 1504 2574 1312 2816 998 2816  C 410 2816 173 1890 173 1839  C 173 1814 198 1782 243 1782  C 301 1782 307 1807 333 1897  C 486 2433 730 2689 979 2689  C 1037 2689 1146 2689 1146 2478  C 1146 2312 1075 2127 979 1884  C 666 1047 666 837 666 683  C 666 77 1101 -64 1421 -64  C 1606 -64 1837 -6 2061 230  L 2067 224  C 1971 -147 1907 -392 1683 -700  z " transform="scale(0.015625)"/>
      </defs>
      <use xlink:href="#CMMI12-79" transform="scale(0.996264)" id="mb_auto_use_1"/>
     </g>
    </g>
   </g>
   <g id="line2d_1">
    <defs>
     <path id="m61f4dda218" d="M 3 0  L -3 -3  L -3 3  z " style="stroke: #000000; stroke-linejoin: miter"/>
    </defs>
    <g id="mb_auto_g_2">
     <use xlink:href="#m61f4dda218" x="443.4" y="298.876893" style="stroke: #000000; stroke-linejoin: miter" id="mb_auto_use_2"/>
    </g>
   </g>
   <g id="line2d_2">
    <defs>
     <path id="m62ed3bfb82" d="M 0 -3  L -3 3  L 3 3  z " style="stroke: #000000; stroke-linejoin: miter"/>
    </defs>
    <g id="mb_auto_g_3">
     <use xlink:href="#m62ed3bfb82" x="225.3" y="20.984473" style="stroke: #000000; stroke-linejoin: miter" id="mb_auto_use_3"/>
    </g>
   </g>
   <g id="line2d_3">
    <defs>
     <path id="m25da62ad36" d="M 0 5  C 1.326016 5 2.597899 4.473168 3.535534 3.535534  C 4.473168 2.597899 5 1.326016 5 0  C 5 -1.326016 4.473168 -2.597899 3.535534 -3.535534  C 2.597899 -4.473168 1.326016 -5 0 -5  C -1.326016 -5 -2.597899 -4.473168 -3.535534 -3.535534  C -4.473168 -2.597899 -5 -1.326016 -5 0  C -5 1.326016 -4.473168 2.597899 -3.535534 3.535534  C -2.597899 4.473168 -1.326016 5 0 5  z " style="stroke: #000000; stroke-opacity: 0.8"/>
    </defs>
    <g clip-path="url(#p4c5f4c6695)" id="mb_auto_g_4">
     <use xlink:href="#m25da62ad36" x="108.98" y="243.298409" style="fill-opacity: 0.8; stroke: #000000; stroke-opacity: 0.8" id="mb_auto_use_4"/>
    </g>
   </g>
   <g id="line2d_4">
    <g clip-path="url(#p4c5f4c6695)" id="mb_auto_g_5">
     <use xlink:href="#m25da62ad36" x="108.98" y="243.298409" style="fill-opacity: 0.8; stroke: #000000; stroke-opacity: 0.8" id="mb_auto_use_5"/>
    </g>
   </g>
   <g id="line2d_5">
    <path d="M 108.98 243.298409  L 108.98 243.298409  " clip-path="url(#p4c5f4c6695)" style="fill: none; stroke: #0072b2; stroke-width: 2.5; stroke-linecap: square" id="mb_auto_path_2"/>
   </g>
   <g id="patch_3">
    <path d="M 225.3 317.403054  L 225.3 20.984473  " style="fill: none; stroke: #000000; stroke-width: 0.8; stroke-linejoin: miter; stroke-linecap: square" id="mb_auto_path_3"/>
   </g>
   <g id="patch_4">
    <path d="M 443.4 317.403054  L 443.4 20.984473  " style="fill: none" id="mb_auto_path_4"/>
   </g>
   <g id="patch_5">
    <path d="M 7.2 298.876893  L 443.4 298.876893  " style="fill: none; stroke: #000000; stroke-width: 0.8; stroke-linejoin: miter; stroke-linecap: square" id="mb_auto_path_5"/>
   </g>
   <g id="patch_6">
    <path d="M 7.2 20.984473  L 443.4 20.984473  " style="fill: none" id="mb_auto_path_6"/>
   </g>
   <g id="text_3">
    <!-- $A$ -->
    <g transform="translate(87.041639 237.484959) scale(0.3 -0.3)" id="mb_auto_g_6">
     <defs>
      <path id="CMMI12-41" d="M 1088 691  C 864 314 646 186 339 186  C 269 180 218 180 218 58  C 218 24 250 0 294 0  C 410 0 698 0 813 0  C 998 0 1203 0 1382 0  C 1421 0 1498 0 1498 122  C 1498 180 1446 186 1408 186  C 1261 186 1139 236 1139 388  C 1139 476 1178 546 1261 685  L 1747 1479  L 3379 1479  C 3386 1423 3386 1373 3392 1316  C 3411 1152 3488 495 3488 376  C 3488 186 3162 186 3059 186  C 2989 186 2918 186 2918 70  C 2918 0 2976 0 3014 0  C 3123 0 3251 0 3360 0  L 3725 0  C 4115 0 4397 0 4403 0  C 4448 0 4518 0 4518 122  C 4518 186 4461 186 4365 186  C 4013 186 4006 244 3987 434  L 3597 4404  C 3584 4531 3558 4544 3488 4544  C 3424 4544 3386 4531 3328 4435  L 1088 691  z M 1856 1664  L 3142 3819  L 3360 1664  L 1856 1664  z " transform="scale(0.015625)"/>
     </defs>
     <use xlink:href="#CMMI12-41" transform="scale(0.996264)" id="mb_auto_use_6"/>
    </g>
   </g>
   <g id="Quiver_1">
    <path d="M 224.735834 300.057635  L 119.042507 249.556647  L 117.966583 254.843779  L 108.98 243.298409  L 123.608246 243.036364  L 120.170839 247.195164  L 225.864166 297.696152  L 224.735834 300.057635  " clip-path="url(#p4c5f4c6695)" style="fill: #dc5e8b" id="mb_auto_path_7"/>
   </g>
   <g id="Quiver_2">
    <path d="M 108.468442 242.093941  L 141.248233 228.171802  L 137.997533 223.86549  L 152.6 224.772248  L 143.113114 235.910166  L 142.271349 230.580738  L 109.491558 244.502877  L 108.468442 242.093941  " clip-path="url(#p4c5f4c6695)" style="fill: #008080" id="mb_auto_path_8"/>
   </g>
  </g>
 </g>
 <defs>
  <clipPath id="p4c5f4c6695">
   <rect x="7.2" y="20.984473" width="436.2" height="296.418582" id="mb_auto_rect_0"/>
  </clipPath>
 </defs>
</svg>