<?xml version="1.0" encoding="utf-8" standalone="no"?>
<!DOCTYPE svg PUBLIC "-//W3C//DTD SVG 1.1//EN"
  "http://www.w3.org/Graphics/SVG/1.1/DTD/svg11.dtd">
<svg xmlns:xlink="http://www.w3.org/1999/xlink" width="451.93419pt" height="338.54pt" viewBox="0 0 451.93419 338.54" xmlns="http://www.w3.org/2000/svg" version="1.1">
 <metadata>
  <rdf:RDF xmlns:dc="http://purl.org/dc/elements/1.1/" xmlns:cc="http://creativecommons.org/ns#" xmlns:rdf="http://www.w3.org/1999/02/22-rdf-syntax-ns#">
   <cc:Work>
    <dc:type rdf:resource="http://purl.org/dc/dcmitype/StillImage"/>
    <dc:date>2026-01-22T01:39:03.141344</dc:date>
    <dc:format>image/svg+xml</dc:format>
    <dc:creator>
     <cc:Agent>
      <dc:title>Matplotlib v3.9.1, https://matplotlib.org/</dc:title>
     </cc:Agent>
    </dc:creator>
   </cc:Work>
  </rdf:RDF>
 </metadata>
 <defs>
  <style type="text/css">*{stroke-linejoin: round; stroke-linecap: butt}</style>
 </defs>
 <g id="g2f0002_b88457_figure_1">
  <g id="g2f0002_b88457_patch_1">
   <path d="M 0 338.54 
L 451.93419 338.54 
L 451.93419 0 
L 0 0 
L 0 338.54 
z
" style="fill: none; opacity: 0"/>
  </g>
  <g id="g2f0002_b88457_axes_1">
   <g id="g2f0002_b88457_patch_2">
    <path d="M 9.890707 331.34 
L 441.73419 331.34 
L 441.73419 16.556315 
L 9.890707 16.556315 
L 9.890707 331.34 
z
" style="fill: none; opacity: 0"/>
   </g>
   <g id="g2f0002_b88457_matplotlib.axis_1">
    <g id="g2f0002_b88457_xtick_1">
     <g id="g2f0002_b88457_line2d_1">
      <path d="M 19.517791 331.34 
L 19.517791 16.556315 
" clip-path="url(#g2f0002_b88457_paa1c7d15e8)" style="fill: none; stroke-dasharray: 2.96,1.28; stroke-dashoffset: 0; stroke: #b0b0b0; stroke-opacity: 0.6; stroke-width: 0.8"/>
     </g>
     <g id="g2f0002_b88457_line2d_2">
      <defs>
       <path id="g2f0002_b88457_me9e5a93794" d="M 0 0 
L 0 3.5 
" style="stroke: #000000; stroke-width: 0.8"/>
      </defs>
      <g>
       <use xlink:href="#g2f0002_b88457_me9e5a93794" x="19.517791" y="173.948158" style="stroke: #000000; stroke-width: 0.8"/>
      </g>
     </g>
     <g id="g2f0002_b88457_text_1">
      <!-- $\mathdefault{−6}$ -->
      <g transform="translate(7.2 194.785154) scale(0.2 -0.2)">
       <defs>
        <path id="g2f0002_b88457_CMSY10-0" d="M 4218 1472 
C 4326 1472 4442 1472 4442 1600 
C 4442 1728 4326 1728 4218 1728 
L 755 1728 
C 646 1728 531 1728 531 1600 
C 531 1472 646 1472 755 1472 
L 4218 1472 
z
" transform="scale(0.015625)"/>
        <path id="g2f0002_b88457_CMR17-36" d="M 678 2176 
C 678 3690 1395 4032 1811 4032 
C 1946 4032 2272 4009 2400 3776 
C 2298 3776 2106 3776 2106 3553 
C 2106 3381 2246 3323 2336 3323 
C 2394 3323 2566 3348 2566 3560 
C 2566 3954 2246 4179 1805 4179 
C 1043 4179 243 3390 243 1984 
C 243 253 966 -128 1478 -128 
C 2099 -128 2688 427 2688 1283 
C 2688 2081 2170 2662 1517 2662 
C 1126 2662 838 2407 678 1960 
L 678 2176 
z
M 1478 25 
C 691 25 691 1200 691 1436 
C 691 1896 909 2560 1504 2560 
C 1613 2560 1926 2560 2138 2120 
C 2253 1870 2253 1609 2253 1289 
C 2253 944 2253 690 2118 434 
C 1978 171 1773 25 1478 25 
z
" transform="scale(0.015625)"/>
       </defs>
       <use xlink:href="#g2f0002_b88457_CMSY10-0" transform="scale(0.996264)"/>
       <use xlink:href="#g2f0002_b88457_CMR17-36" transform="translate(77.487468 0) scale(0.996264)"/>
      </g>
     </g>
    </g>
    <g id="g2f0002_b88457_xtick_2">
     <g id="g2f0002_b88457_line2d_3">
      <path d="M 53.900234 331.34 
L 53.900234 16.556315 
" clip-path="url(#g2f0002_b88457_paa1c7d15e8)" style="fill: none; stroke-dasharray: 2.96,1.28; stroke-dashoffset: 0; stroke: #b0b0b0; stroke-opacity: 0.6; stroke-width: 0.8"/>
     </g>
     <g id="g2f0002_b88457_line2d_4">
      <g>
       <use xlink:href="#g2f0002_b88457_me9e5a93794" x="53.900234" y="173.948158" style="stroke: #000000; stroke-width: 0.8"/>
      </g>
     </g>
     <g id="g2f0002_b88457_text_2">
      <!-- $\mathdefault{−5}$ -->
      <g transform="translate(41.582443 194.785154) scale(0.2 -0.2)">
       <defs>
        <path id="g2f0002_b88457_CMR17-35" d="M 730 3692 
C 794 3666 1056 3584 1325 3584 
C 1920 3584 2246 3911 2432 4100 
C 2432 4157 2432 4192 2394 4192 
C 2387 4192 2374 4192 2323 4163 
C 2099 4058 1837 3973 1517 3973 
C 1325 3973 1037 3999 723 4139 
C 653 4171 640 4171 634 4171 
C 602 4171 595 4164 595 4037 
L 595 2203 
C 595 2089 595 2057 659 2057 
C 691 2057 704 2070 736 2114 
C 941 2401 1222 2522 1542 2522 
C 1766 2522 2246 2382 2246 1289 
C 2246 1085 2246 715 2054 421 
C 1894 159 1645 25 1370 25 
C 947 25 518 320 403 814 
C 429 807 480 795 506 795 
C 589 795 749 840 749 1038 
C 749 1210 627 1280 506 1280 
C 358 1280 262 1190 262 1011 
C 262 454 704 -128 1382 -128 
C 2042 -128 2669 440 2669 1264 
C 2669 2030 2170 2624 1549 2624 
C 1222 2624 947 2503 730 2274 
L 730 3692 
z
" transform="scale(0.015625)"/>
       </defs>
       <use xlink:href="#g2f0002_b88457_CMSY10-0" transform="scale(0.996264)"/>
       <use xlink:href="#g2f0002_b88457_CMR17-35" transform="translate(77.487468 0) scale(0.996264)"/>
      </g>
     </g>
    </g>
    <g id="g2f0002_b88457_xtick_3">
     <g id="g2f0002_b88457_line2d_5">
      <path d="M 88.282677 331.34 
L 88.282677 16.556315 
" clip-path="url(#g2f0002_b88457_paa1c7d15e8)" style="fill: none; stroke-dasharray: 2.96,1.28; stroke-dashoffset: 0; stroke: #b0b0b0; stroke-opacity: 0.6; stroke-width: 0.8"/>
     </g>
     <g id="g2f0002_b88457_line2d_6">
      <g>
       <use xlink:href="#g2f0002_b88457_me9e5a93794" x="88.282677" y="173.948158" style="stroke: #000000; stroke-width: 0.8"/>
      </g>
     </g>
     <g id="g2f0002_b88457_text_3">
      <!-- $\mathdefault{−4}$ -->
      <g transform="translate(75.964886 194.785154) scale(0.2 -0.2)">
       <defs>
        <path id="g2f0002_b88457_CMR17-34" d="M 2150 4122 
C 2150 4256 2144 4256 2029 4256 
L 128 1254 
L 128 1088 
L 1779 1088 
L 1779 457 
C 1779 224 1766 160 1318 160 
L 1197 160 
L 1197 0 
C 1402 0 1747 0 1965 0 
C 2182 0 2528 0 2733 0 
L 2733 160 
L 2611 160 
C 2163 160 2150 224 2150 457 
L 2150 1088 
L 2803 1088 
L 2803 1254 
L 2150 1254 
L 2150 4122 
z
M 1798 3703 
L 1798 1254 
L 256 1254 
L 1798 3703 
z
" transform="scale(0.015625)"/>
       </defs>
       <use xlink:href="#g2f0002_b88457_CMSY10-0" transform="scale(0.996264)"/>
       <use xlink:href="#g2f0002_b88457_CMR17-34" transform="translate(77.487468 0) scale(0.996264)"/>
      </g>
     </g>
    </g>
    <g id="g2f0002_b88457_xtick_4">
     <g id="g2f0002_b88457_line2d_7">
      <path d="M 122.66512 331.34 
L 122.66512 16.556315 
" clip-path="url(#g2f0002_b88457_paa1c7d15e8)" style="fill: none; stroke-dasharray: 2.96,1.28; stroke-dashoffset: 0; stroke: #b0b0b0; stroke-opacity: 0.6; stroke-width: 0.8"/>
     </g>
     <g id="g2f0002_b88457_line2d_8">
      <g>
       <use xlink:href="#g2f0002_b88457_me9e5a93794" x="122.66512" y="173.948158" style="stroke: #000000; stroke-width: 0.8"/>
      </g>
     </g>
     <g id="g2f0002_b88457_text_4">
      <!-- $\mathdefault{−3}$ -->
      <g transform="translate(110.347329 194.785154) scale(0.2 -0.2)">
       <defs>
        <path id="g2f0002_b88457_CMR17-33" d="M 1414 2157 
C 1984 2157 2234 1662 2234 1090 
C 2234 320 1824 25 1453 25 
C 1114 25 563 194 390 693 
C 422 680 454 680 486 680 
C 640 680 755 782 755 948 
C 755 1133 614 1216 486 1216 
C 378 1216 211 1165 211 926 
C 211 335 787 -128 1466 -128 
C 2176 -128 2720 430 2720 1085 
C 2720 1707 2208 2157 1600 2227 
C 2086 2328 2554 2756 2554 3329 
C 2554 3820 2048 4179 1472 4179 
C 890 4179 378 3829 378 3329 
C 378 3110 544 3072 627 3072 
C 762 3072 877 3155 877 3321 
C 877 3486 762 3569 627 3569 
C 602 3569 570 3569 544 3557 
C 730 3959 1235 4032 1459 4032 
C 1683 4032 2106 3925 2106 3320 
C 2106 3143 2080 2828 1862 2550 
C 1670 2304 1453 2304 1242 2284 
C 1210 2284 1062 2269 1037 2269 
C 992 2263 966 2257 966 2208 
C 966 2163 973 2157 1101 2157 
L 1414 2157 
z
" transform="scale(0.015625)"/>
       </defs>
       <use xlink:href="#g2f0002_b88457_CMSY10-0" transform="scale(0.996264)"/>
       <use xlink:href="#g2f0002_b88457_CMR17-33" transform="translate(77.487468 0) scale(0.996264)"/>
      </g>
     </g>
    </g>
    <g id="g2f0002_b88457_xtick_5">
     <g id="g2f0002_b88457_line2d_9">
      <path d="M 157.047563 331.34 
L 157.047563 16.556315 
" clip-path="url(#g2f0002_b88457_paa1c7d15e8)" style="fill: none; stroke-dasharray: 2.96,1.28; stroke-dashoffset: 0; stroke: #b0b0b0; stroke-opacity: 0.6; stroke-width: 0.8"/>
     </g>
     <g id="g2f0002_b88457_line2d_10">
      <g>
       <use xlink:href="#g2f0002_b88457_me9e5a93794" x="157.047563" y="173.948158" style="stroke: #000000; stroke-width: 0.8"/>
      </g>
     </g>
     <g id="g2f0002_b88457_text_5">
      <!-- $\mathdefault{−2}$ -->
      <g transform="translate(144.729771 194.785154) scale(0.2 -0.2)">
       <defs>
        <path id="g2f0002_b88457_CMR17-32" d="M 2669 989 
L 2554 989 
C 2490 536 2438 459 2413 420 
C 2381 369 1920 369 1830 369 
L 602 369 
C 832 619 1280 1072 1824 1597 
C 2214 1967 2669 2402 2669 3035 
C 2669 3790 2067 4224 1395 4224 
C 691 4224 262 3604 262 3030 
C 262 2780 448 2748 525 2748 
C 589 2748 781 2787 781 3010 
C 781 3207 614 3264 525 3264 
C 486 3264 448 3258 422 3245 
C 544 3790 915 4058 1306 4058 
C 1862 4058 2227 3617 2227 3035 
C 2227 2479 1901 2000 1536 1584 
L 262 146 
L 262 0 
L 2515 0 
L 2669 989 
z
" transform="scale(0.015625)"/>
       </defs>
       <use xlink:href="#g2f0002_b88457_CMSY10-0" transform="scale(0.996264)"/>
       <use xlink:href="#g2f0002_b88457_CMR17-32" transform="translate(77.487468 0) scale(0.996264)"/>
      </g>
     </g>
    </g>
    <g id="g2f0002_b88457_xtick_6">
     <g id="g2f0002_b88457_line2d_11">
      <path d="M 191.430006 331.34 
L 191.430006 16.556315 
" clip-path="url(#g2f0002_b88457_paa1c7d15e8)" style="fill: none; stroke-dasharray: 2.96,1.28; stroke-dashoffset: 0; stroke: #b0b0b0; stroke-opacity: 0.6; stroke-width: 0.8"/>
     </g>
     <g id="g2f0002_b88457_line2d_12">
      <g>
       <use xlink:href="#g2f0002_b88457_me9e5a93794" x="191.430006" y="173.948158" style="stroke: #000000; stroke-width: 0.8"/>
      </g>
     </g>
     <g id="g2f0002_b88457_text_6">
      <!-- $\mathdefault{−1}$ -->
      <g transform="translate(179.112214 194.785154) scale(0.2 -0.2)">
       <defs>
        <path id="g2f0002_b88457_CMR17-31" d="M 1702 4058 
C 1702 4192 1696 4192 1606 4192 
C 1357 3916 979 3827 621 3827 
C 602 3827 570 3827 563 3808 
C 557 3795 557 3782 557 3648 
C 755 3648 1088 3686 1344 3839 
L 1344 461 
C 1344 236 1331 160 781 160 
L 589 160 
L 589 0 
C 896 0 1216 0 1523 0 
C 1830 0 2150 0 2458 0 
L 2458 160 
L 2266 160 
C 1715 160 1702 230 1702 458 
L 1702 4058 
z
" transform="scale(0.015625)"/>
       </defs>
       <use xlink:href="#g2f0002_b88457_CMSY10-0" transform="scale(0.996264)"/>
       <use xlink:href="#g2f0002_b88457_CMR17-31" transform="translate(77.487468 0) scale(0.996264)"/>
      </g>
     </g>
    </g>
    <g id="g2f0002_b88457_xtick_7">
     <g id="g2f0002_b88457_line2d_13">
      <path d="M 260.194892 331.34 
L 260.194892 16.556315 
" clip-path="url(#g2f0002_b88457_paa1c7d15e8)" style="fill: none; stroke-dasharray: 2.96,1.28; stroke-dashoffset: 0; stroke: #b0b0b0; stroke-opacity: 0.6; stroke-width: 0.8"/>
     </g>
     <g id="g2f0002_b88457_line2d_14">
      <g>
       <use xlink:href="#g2f0002_b88457_me9e5a93794" x="260.194892" y="173.948158" style="stroke: #000000; stroke-width: 0.8"/>
      </g>
     </g>
     <g id="g2f0002_b88457_text_7">
      <!-- $\mathdefault{1}$ -->
      <g transform="translate(255.625844 194.785154) scale(0.2 -0.2)">
       <use xlink:href="#g2f0002_b88457_CMR17-31" transform="scale(0.996264)"/>
      </g>
     </g>
    </g>
    <g id="g2f0002_b88457_xtick_8">
     <g id="g2f0002_b88457_line2d_15">
      <path d="M 294.577334 331.34 
L 294.577334 16.556315 
" clip-path="url(#g2f0002_b88457_paa1c7d15e8)" style="fill: none; stroke-dasharray: 2.96,1.28; stroke-dashoffset: 0; stroke: #b0b0b0; stroke-opacity: 0.6; stroke-width: 0.8"/>
     </g>
     <g id="g2f0002_b88457_line2d_16">
      <g>
       <use xlink:href="#g2f0002_b88457_me9e5a93794" x="294.577334" y="173.948158" style="stroke: #000000; stroke-width: 0.8"/>
      </g>
     </g>
     <g id="g2f0002_b88457_text_8">
      <!-- $\mathdefault{2}$ -->
      <g transform="translate(290.008287 194.785154) scale(0.2 -0.2)">
       <use xlink:href="#g2f0002_b88457_CMR17-32" transform="scale(0.996264)"/>
      </g>
     </g>
    </g>
    <g id="g2f0002_b88457_xtick_9">
     <g id="g2f0002_b88457_line2d_17">
      <path d="M 328.959777 331.34 
L 328.959777 16.556315 
" clip-path="url(#g2f0002_b88457_paa1c7d15e8)" style="fill: none; stroke-dasharray: 2.96,1.28; stroke-dashoffset: 0; stroke: #b0b0b0; stroke-opacity: 0.6; stroke-width: 0.8"/>
     </g>
     <g id="g2f0002_b88457_line2d_18">
      <g>
       <use xlink:href="#g2f0002_b88457_me9e5a93794" x="328.959777" y="173.948158" style="stroke: #000000; stroke-width: 0.8"/>
      </g>
     </g>
     <g id="g2f0002_b88457_text_9">
      <!-- $\mathdefault{3}$ -->
      <g transform="translate(324.39073 194.785154) scale(0.2 -0.2)">
       <use xlink:href="#g2f0002_b88457_CMR17-33" transform="scale(0.996264)"/>
      </g>
     </g>
    </g>
    <g id="g2f0002_b88457_xtick_10">
     <g id="g2f0002_b88457_line2d_19">
      <path d="M 363.34222 331.34 
L 363.34222 16.556315 
" clip-path="url(#g2f0002_b88457_paa1c7d15e8)" style="fill: none; stroke-dasharray: 2.96,1.28; stroke-dashoffset: 0; stroke: #b0b0b0; stroke-opacity: 0.6; stroke-width: 0.8"/>
     </g>
     <g id="g2f0002_b88457_line2d_20">
      <g>
       <use xlink:href="#g2f0002_b88457_me9e5a93794" x="363.34222" y="173.948158" style="stroke: #000000; stroke-width: 0.8"/>
      </g>
     </g>
     <g id="g2f0002_b88457_text_10">
      <!-- $\mathdefault{4}$ -->
      <g transform="translate(358.773172 194.785154) scale(0.2 -0.2)">
       <use xlink:href="#g2f0002_b88457_CMR17-34" transform="scale(0.996264)"/>
      </g>
     </g>
    </g>
    <g id="g2f0002_b88457_xtick_11">
     <g id="g2f0002_b88457_line2d_21">
      <path d="M 397.724663 331.34 
L 397.724663 16.556315 
" clip-path="url(#g2f0002_b88457_paa1c7d15e8)" style="fill: none; stroke-dasharray: 2.96,1.28; stroke-dashoffset: 0; stroke: #b0b0b0; stroke-opacity: 0.6; stroke-width: 0.8"/>
     </g>
     <g id="g2f0002_b88457_line2d_22">
      <g>
       <use xlink:href="#g2f0002_b88457_me9e5a93794" x="397.724663" y="173.948158" style="stroke: #000000; stroke-width: 0.8"/>
      </g>
     </g>
     <g id="g2f0002_b88457_text_11">
      <!-- $\mathdefault{5}$ -->
      <g transform="translate(393.155615 194.785154) scale(0.2 -0.2)">
       <use xlink:href="#g2f0002_b88457_CMR17-35" transform="scale(0.996264)"/>
      </g>
     </g>
    </g>
    <g id="g2f0002_b88457_xtick_12">
     <g id="g2f0002_b88457_line2d_23">
      <path d="M 432.107106 331.34 
L 432.107106 16.556315 
" clip-path="url(#g2f0002_b88457_paa1c7d15e8)" style="fill: none; stroke-dasharray: 2.96,1.28; stroke-dashoffset: 0; stroke: #b0b0b0; stroke-opacity: 0.6; stroke-width: 0.8"/>
     </g>
     <g id="g2f0002_b88457_line2d_24">
      <g>
       <use xlink:href="#g2f0002_b88457_me9e5a93794" x="432.107106" y="173.948158" style="stroke: #000000; stroke-width: 0.8"/>
      </g>
     </g>
     <g id="g2f0002_b88457_text_12">
      <!-- $\mathdefault{6}$ -->
      <g transform="translate(427.538058 194.785154) scale(0.2 -0.2)">
       <use xlink:href="#g2f0002_b88457_CMR17-36" transform="scale(0.996264)"/>
      </g>
     </g>
    </g>
    <g id="g2f0002_b88457_text_13">
     <!-- $x$ -->
     <g transform="translate(430.647378 216.497785) scale(0.2 -0.2)">
      <defs>
       <path id="g2f0002_b88457_CMMI12-78" d="M 3034 2606 
C 2829 2567 2752 2414 2752 2293 
C 2752 2139 2874 2088 2963 2088 
C 3155 2088 3290 2254 3290 2427 
C 3290 2695 2982 2816 2714 2816 
C 2323 2816 2106 2433 2048 2312 
C 1901 2816 1504 2816 1389 2816 
C 736 2816 390 1980 390 1839 
C 390 1814 416 1782 461 1782 
C 512 1782 525 1820 538 1846 
C 755 2555 1184 2689 1370 2689 
C 1658 2689 1715 2420 1715 2267 
C 1715 2127 1677 1980 1600 1673 
L 1382 798 
C 1286 415 1101 64 762 64 
C 730 64 570 64 435 147 
C 666 192 717 383 717 460 
C 717 588 621 664 499 664 
C 346 664 179 530 179 326 
C 179 57 480 -64 755 -64 
C 1062 -64 1280 179 1414 441 
C 1517 64 1837 -64 2074 -64 
C 2726 -64 3072 773 3072 913 
C 3072 945 3046 971 3008 971 
C 2950 971 2944 939 2925 888 
C 2752 326 2381 64 2093 64 
C 1869 64 1747 230 1747 492 
C 1747 632 1773 734 1875 1156 
L 2099 2024 
C 2195 2408 2413 2689 2707 2689 
C 2720 2689 2899 2689 3034 2606 
z
" transform="scale(0.015625)"/>
      </defs>
      <use xlink:href="#g2f0002_b88457_CMMI12-78" transform="scale(0.996264)"/>
     </g>
    </g>
   </g>
   <g id="g2f0002_b88457_matplotlib.axis_2">
    <g id="g2f0002_b88457_ytick_1">
     <g id="g2f0002_b88457_line2d_25">
      <path d="M 9.890707 252.644079 
L 441.73419 252.644079 
" clip-path="url(#g2f0002_b88457_paa1c7d15e8)" style="fill: none; stroke-dasharray: 2.96,1.28; stroke-dashoffset: 0; stroke: #b0b0b0; stroke-opacity: 0.6; stroke-width: 0.8"/>
     </g>
     <g id="g2f0002_b88457_line2d_26">
      <defs>
       <path id="g2f0002_b88457_m6a35cc9e63" d="M 0 0 
L -3.5 0 
" style="stroke: #000000; stroke-width: 0.8"/>
      </defs>
      <g>
       <use xlink:href="#g2f0002_b88457_m6a35cc9e63" x="225.812449" y="252.644079" style="stroke: #000000; stroke-width: 0.8"/>
      </g>
     </g>
     <g id="g2f0002_b88457_text_14">
      <!-- $\mathdefault{−1}$ -->
      <g transform="translate(194.176866 259.562577) scale(0.2 -0.2)">
       <use xlink:href="#g2f0002_b88457_CMSY10-0" transform="scale(0.996264)"/>
       <use xlink:href="#g2f0002_b88457_CMR17-31" transform="translate(77.487468 0) scale(0.996264)"/>
      </g>
     </g>
    </g>
    <g id="g2f0002_b88457_ytick_2">
     <g id="g2f0002_b88457_line2d_27">
      <path d="M 9.890707 95.252236 
L 441.73419 95.252236 
" clip-path="url(#g2f0002_b88457_paa1c7d15e8)" style="fill: none; stroke-dasharray: 2.96,1.28; stroke-dashoffset: 0; stroke: #b0b0b0; stroke-opacity: 0.6; stroke-width: 0.8"/>
     </g>
     <g id="g2f0002_b88457_line2d_28">
      <g>
       <use xlink:href="#g2f0002_b88457_m6a35cc9e63" x="225.812449" y="95.252236" style="stroke: #000000; stroke-width: 0.8"/>
      </g>
     </g>
     <g id="g2f0002_b88457_text_15">
      <!-- $\mathdefault{1}$ -->
      <g transform="translate(209.674353 102.170735) scale(0.2 -0.2)">
       <use xlink:href="#g2f0002_b88457_CMR17-31" transform="scale(0.996264)"/>
      </g>
     </g>
    </g>
    <g id="g2f0002_b88457_text_16">
     <!-- $y$ -->
     <g transform="translate(180.664031 12.680682) scale(0.2 -0.2)">
      <defs>
       <path id="g2f0002_b88457_CMMI12-79" d="M 1683 -700 
C 1510 -939 1261 -1152 947 -1152 
C 870 -1152 563 -1152 467 -889 
C 486 -895 518 -895 531 -895 
C 723 -895 851 -729 851 -582 
C 851 -435 730 -384 634 -384 
C 531 -384 307 -458 307 -759 
C 307 -1071 582 -1286 947 -1286 
C 1587 -1286 2234 -700 2413 6 
L 3040 2485 
C 3046 2517 3059 2556 3059 2594 
C 3059 2689 2982 2753 2886 2753 
C 2829 2753 2694 2727 2643 2535 
L 2170 658 
C 2138 543 2138 530 2086 460 
C 1958 281 1747 64 1440 64 
C 1082 64 1050 415 1050 588 
C 1050 952 1222 1443 1395 1903 
C 1466 2088 1504 2178 1504 2305 
C 1504 2574 1312 2816 998 2816 
C 410 2816 173 1890 173 1839 
C 173 1814 198 1782 243 1782 
C 301 1782 307 1807 333 1897 
C 486 2433 730 2689 979 2689 
C 1037 2689 1146 2689 1146 2478 
C 1146 2312 1075 2127 979 1884 
C 666 1047 666 837 666 683 
C 666 77 1101 -64 1421 -64 
C 1606 -64 1837 -6 2061 230 
L 2067 224 
C 1971 -147 1907 -392 1683 -700 
z
" transform="scale(0.015625)"/>
      </defs>
      <use xlink:href="#g2f0002_b88457_CMMI12-79" transform="scale(0.996264)"/>
     </g>
    </g>
   </g>
   <g id="g2f0002_b88457_line2d_29">
    <defs>
     <path id="g2f0002_b88457_m083f75e212" d="M 3 0 
L -3 -3 
L -3 3 
z
" style="stroke: #000000; stroke-linejoin: miter"/>
    </defs>
    <g>
     <use xlink:href="#g2f0002_b88457_m083f75e212" x="441.73419" y="173.948158" style="stroke: #000000; stroke-linejoin: miter"/>
    </g>
   </g>
   <g id="g2f0002_b88457_line2d_30">
    <defs>
     <path id="g2f0002_b88457_m3664cbd0f4" d="M 0 -3 
L -3 3 
L 3 3 
z
" style="stroke: #000000; stroke-linejoin: miter"/>
    </defs>
    <g>
     <use xlink:href="#g2f0002_b88457_m3664cbd0f4" x="225.812449" y="16.556315" style="stroke: #000000; stroke-linejoin: miter"/>
    </g>
   </g>
   <g id="g2f0002_b88457_line2d_31">
    <path d="M 9.890707 247.288103 
L 11.157111 244.102652 
L 12.423514 240.227884 
L 13.689917 235.70187 
L 15.378455 228.731869 
L 17.066992 220.805519 
L 19.177664 209.76491 
L 21.71047 195.256118 
L 26.353949 166.920502 
L 30.153158 144.253454 
L 32.685965 130.476096 
L 34.796637 120.275868 
L 36.485174 113.156826 
L 38.173712 107.099006 
L 39.440115 103.316434 
L 40.706518 100.227869 
L 41.972921 97.863658 
L 42.81719 96.701709 
L 43.661459 95.877246 
L 44.505728 95.393874 
L 45.349996 95.253703 
L 46.194265 95.457345 
L 47.038534 96.003912 
L 47.882803 96.891015 
L 48.727071 98.114778 
L 49.57134 99.669856 
L 50.837743 102.608434 
L 52.104147 106.247977 
L 53.37055 110.552721 
L 55.059087 117.253144 
L 56.747625 124.943279 
L 58.858297 135.741761 
L 61.391103 150.046426 
L 65.190313 173.074543 
L 69.833791 201.117907 
L 72.366597 215.137558 
L 74.477269 225.608573 
L 76.165807 232.984129 
L 77.854344 239.329106 
L 79.120748 243.344158 
L 80.387151 246.677345 
L 81.653554 249.295915 
L 82.497823 250.631617 
L 83.342092 251.632291 
L 84.18636 252.293566 
L 85.030629 252.612551 
L 85.874898 252.587855 
L 86.719167 252.219583 
L 87.563435 251.509346 
L 88.407704 250.460246 
L 89.251973 249.076867 
L 90.096242 247.365253 
L 91.362645 244.199134 
L 92.629048 240.342748 
L 93.895451 235.833988 
L 95.583989 228.884946 
L 97.272526 220.976882 
L 99.383198 209.954892 
L 101.916005 195.461573 
L 106.137349 169.727965 
L 110.358693 144.451289 
L 112.891499 130.654232 
L 115.002171 120.432212 
L 116.690708 113.292635 
L 118.379246 107.211911 
L 119.645649 103.410843 
L 120.912052 100.302855 
L 122.178456 97.918484 
L 123.022724 96.742783 
L 123.866993 95.904389 
L 124.711262 95.406967 
L 125.555531 95.252689 
L 126.399799 95.442229 
L 127.244068 95.974759 
L 128.088337 96.847953 
L 128.932606 98.057996 
L 129.776875 99.5996 
L 131.043278 102.518563 
L 132.309681 106.139373 
L 133.576084 110.426452 
L 135.264622 117.105278 
L 136.953159 124.776399 
L 139.063831 135.555243 
L 141.596638 149.843091 
L 145.395847 172.86105 
L 150.039325 200.917426 
L 152.572132 214.955478 
L 154.682804 225.447319 
L 156.371341 232.842732 
L 158.059879 239.210034 
L 159.326282 243.243216 
L 160.592685 246.595526 
L 161.859088 249.234023 
L 162.703357 250.583359 
L 163.547626 251.597878 
L 164.391895 252.273149 
L 165.236163 252.606219 
L 166.080432 252.595634 
L 166.924701 252.241441 
L 167.76897 251.545187 
L 168.613239 250.509914 
L 169.457507 249.140145 
L 170.301776 247.441863 
L 171.568179 244.295098 
L 172.834583 240.457123 
L 174.100986 235.965651 
L 175.789523 229.037618 
L 177.478061 221.1479 
L 179.588733 210.144609 
L 182.121539 195.66687 
L 186.342883 169.941182 
L 190.564227 144.649341 
L 193.097033 130.832687 
L 195.207705 120.588949 
L 196.896243 113.428891 
L 198.58478 107.325306 
L 199.851184 103.505771 
L 201.117587 100.378382 
L 202.38399 97.973869 
L 203.228259 96.784425 
L 204.072527 95.932107 
L 204.916796 95.420638 
L 205.761065 95.252254 
L 206.605334 95.427691 
L 207.449603 95.946181 
L 208.293871 96.805459 
L 209.13814 98.001772 
L 209.982409 99.529892 
L 211.248812 102.429218 
L 212.515215 106.031268 
L 213.781619 110.30065 
L 215.470156 116.957831 
L 217.158694 124.609881 
L 219.269366 135.369009 
L 221.802172 149.639934 
L 225.601381 172.647565 
L 230.24486 200.716747 
L 232.777666 214.773096 
L 234.888338 225.285686 
L 236.576876 232.700901 
L 238.265413 239.090482 
L 239.531816 243.141765 
L 240.79822 246.513172 
L 242.064623 249.171576 
L 242.908892 250.534537 
L 243.75316 251.562894 
L 244.597429 252.252155 
L 245.441698 252.599307 
L 246.285967 252.602836 
L 247.130235 252.262724 
L 247.974504 251.580458 
L 248.818773 250.559018 
L 249.663042 249.202868 
L 250.507311 247.517933 
L 251.773714 244.390544 
L 253.040117 240.571009 
L 254.30652 236.096857 
L 255.995058 229.189885 
L 257.683595 221.318569 
L 259.794267 210.33406 
L 262.327074 195.872006 
L 266.548417 170.154429 
L 270.769761 144.847609 
L 273.302568 131.011458 
L 275.41324 120.746079 
L 277.101777 113.565592 
L 278.790315 107.439192 
L 280.056718 103.601217 
L 281.323121 100.454452 
L 282.589524 98.029814 
L 283.433793 96.826635 
L 284.278062 95.960398 
L 285.122331 95.434888 
L 285.966599 95.252399 
L 286.810868 95.41373 
L 287.655137 95.918176 
L 288.499406 96.763533 
L 289.343675 97.946107 
L 290.187943 99.460731 
L 291.454347 102.340399 
L 292.72075 105.923663 
L 293.987153 110.175316 
L 295.67569 116.810804 
L 297.364228 124.443726 
L 299.4749 135.183058 
L 302.007706 149.436955 
L 305.806916 172.43409 
L 310.450394 200.515871 
L 312.9832 214.590414 
L 315.093872 225.123676 
L 316.78241 232.558638 
L 318.470948 238.97045 
L 319.737351 243.039804 
L 321.003754 246.430284 
L 322.270157 249.108575 
L 323.114426 250.485151 
L 323.958695 251.527338 
L 324.802963 252.230584 
L 325.647232 252.591817 
L 326.491501 252.609458 
L 327.33577 252.283429 
L 328.180039 251.615156 
L 329.024307 250.607559 
L 329.868576 249.265038 
L 330.712845 247.59346 
L 331.979248 244.485472 
L 333.245651 240.684405 
L 334.512054 236.227606 
L 336.200592 229.341745 
L 337.88913 221.48889 
L 339.999802 210.523243 
L 342.532608 196.076982 
L 346.753952 170.367704 
L 350.975296 145.046091 
L 353.508102 131.190546 
L 355.618774 120.903601 
L 357.307312 113.702738 
L 358.995849 107.553567 
L 360.262252 103.697182 
L 361.528656 100.531062 
L 362.795059 98.086317 
L 363.639327 96.869413 
L 364.483596 95.989264 
L 365.327865 95.449715 
L 366.172134 95.253123 
L 367.016403 95.400348 
L 367.860671 95.890746 
L 368.70494 96.722175 
L 369.549209 97.891001 
L 370.393478 99.392119 
L 371.659881 102.252107 
L 372.926284 105.816559 
L 374.192687 110.050452 
L 375.881225 116.664197 
L 377.569762 124.277936 
L 379.680434 134.997392 
L 382.213241 149.234157 
L 386.01245 172.220627 
L 391.078063 202.750903 
L 393.610869 216.616107 
L 395.721541 226.913807 
L 397.410079 234.124838 
L 399.098616 240.285377 
L 400.36502 244.150957 
L 401.631423 247.326745 
L 402.897826 249.781537 
L 403.742095 251.0053 
L 404.586363 251.892403 
L 405.430632 252.43897 
L 406.274901 252.642613 
L 407.11917 252.502441 
L 407.963439 252.019069 
L 408.807707 251.194607 
L 409.651976 250.032657 
L 410.496245 248.538296 
L 411.762648 245.688157 
L 413.029051 242.13312 
L 414.295454 237.908118 
L 415.983992 231.305264 
L 417.67253 223.701138 
L 419.783202 212.991648 
L 422.316008 198.763489 
L 426.115217 175.782416 
L 431.18083 145.244786 
L 433.713636 131.369949 
L 435.824308 121.061513 
L 437.512846 113.840327 
L 439.201384 107.668431 
L 440.467787 103.793663 
L 441.73419 100.608213 
L 441.73419 100.608213 
" clip-path="url(#g2f0002_b88457_paa1c7d15e8)" style="fill: none; stroke: #0072b2; stroke-width: 2.5; stroke-linecap: square"/>
   </g>
   <g id="g2f0002_b88457_patch_3">
    <path d="M 225.812449 331.34 
L 225.812449 16.556315 
" style="fill: none; stroke: #000000; stroke-width: 0.8; stroke-linejoin: miter; stroke-linecap: square"/>
   </g>
   <g id="g2f0002_b88457_patch_4">
    <path d="M 441.73419 331.34 
L 441.73419 16.556315 
" style="fill: none"/>
   </g>
   <g id="g2f0002_b88457_patch_5">
    <path d="M 9.890707 173.948158 
L 441.73419 173.948158 
" style="fill: none; stroke: #000000; stroke-width: 0.8; stroke-linejoin: miter; stroke-linecap: square"/>
   </g>
   <g id="g2f0002_b88457_patch_6">
    <path d="M 9.890707 16.556315 
L 441.73419 16.556315 
" style="fill: none"/>
   </g>
  </g>
 </g>
 <defs>
  <clipPath id="g2f0002_b88457_paa1c7d15e8">
   <rect x="9.890707" y="16.556315" width="431.843482" height="314.783685"/>
  </clipPath>
 </defs>
</svg>
