<?xml version="1.0" encoding="utf-8" standalone="no"?>
<!DOCTYPE svg PUBLIC "-//W3C//DTD SVG 1.1//EN"
  "http://www.w3.org/Graphics/SVG/1.1/DTD/svg11.dtd">
<svg xmlns:xlink="http://www.w3.org/1999/xlink" width="451.93419pt" height="338.54pt" viewBox="0 0 451.93419 338.54" xmlns="http://www.w3.org/2000/svg" version="1.1">
 <metadata>
  <rdf:RDF xmlns:dc="http://purl.org/dc/elements/1.1/" xmlns:cc="http://creativecommons.org/ns#" xmlns:rdf="http://www.w3.org/1999/02/22-rdf-syntax-ns#">
   <cc:Work>
    <dc:type rdf:resource="http://purl.org/dc/dcmitype/StillImage"/>
    <dc:date>2026-01-22T01:39:04.277101</dc:date>
    <dc:format>image/svg+xml</dc:format>
    <dc:creator>
     <cc:Agent>
      <dc:title>Matplotlib v3.9.1, https://matplotlib.org/</dc:title>
     </cc:Agent>
    </dc:creator>
   </cc:Work>
  </rdf:RDF>
 </metadata>
 <defs>
  <style type="text/css">*{stroke-linejoin: round; stroke-linecap: butt}</style>
 </defs>
 <g id="g2f0029_f0af4f_figure_1">
  <g id="g2f0029_f0af4f_patch_1">
   <path d="M 0 338.54 
L 451.93419 338.54 
L 451.93419 0 
L 0 0 
L 0 338.54 
z
" style="fill: none; opacity: 0"/>
  </g>
  <g id="g2f0029_f0af4f_axes_1">
   <g id="g2f0029_f0af4f_patch_2">
    <path d="M 9.890707 331.34 
L 441.73419 331.34 
L 441.73419 16.556315 
L 9.890707 16.556315 
L 9.890707 331.34 
z
" style="fill: none; opacity: 0"/>
   </g>
   <g id="g2f0029_f0af4f_matplotlib.axis_1">
    <g id="g2f0029_f0af4f_xtick_1">
     <g id="g2f0029_f0af4f_line2d_1">
      <path d="M 19.517791 331.34 
L 19.517791 16.556315 
" clip-path="url(#g2f0029_f0af4f_p2528cdecec)" style="fill: none; stroke-dasharray: 2.96,1.28; stroke-dashoffset: 0; stroke: #b0b0b0; stroke-opacity: 0.6; stroke-width: 0.8"/>
     </g>
     <g id="g2f0029_f0af4f_line2d_2">
      <defs>
       <path id="g2f0029_f0af4f_ma41eb68713" d="M 0 0 
L 0 3.5 
" style="stroke: #000000; stroke-width: 0.8"/>
      </defs>
      <g>
       <use xlink:href="#g2f0029_f0af4f_ma41eb68713" x="19.517791" y="173.948158" style="stroke: #000000; stroke-width: 0.8"/>
      </g>
     </g>
     <g id="g2f0029_f0af4f_text_1">
      <!-- $\mathdefault{−6}$ -->
      <g transform="translate(7.2 194.785154) scale(0.2 -0.2)">
       <defs>
        <path id="g2f0029_f0af4f_CMSY10-0" d="M 4218 1472 
C 4326 1472 4442 1472 4442 1600 
C 4442 1728 4326 1728 4218 1728 
L 755 1728 
C 646 1728 531 1728 531 1600 
C 531 1472 646 1472 755 1472 
L 4218 1472 
z
" transform="scale(0.015625)"/>
        <path id="g2f0029_f0af4f_CMR17-36" d="M 678 2176 
C 678 3690 1395 4032 1811 4032 
C 1946 4032 2272 4009 2400 3776 
C 2298 3776 2106 3776 2106 3553 
C 2106 3381 2246 3323 2336 3323 
C 2394 3323 2566 3348 2566 3560 
C 2566 3954 2246 4179 1805 4179 
C 1043 4179 243 3390 243 1984 
C 243 253 966 -128 1478 -128 
C 2099 -128 2688 427 2688 1283 
C 2688 2081 2170 2662 1517 2662 
C 1126 2662 838 2407 678 1960 
L 678 2176 
z
M 1478 25 
C 691 25 691 1200 691 1436 
C 691 1896 909 2560 1504 2560 
C 1613 2560 1926 2560 2138 2120 
C 2253 1870 2253 1609 2253 1289 
C 2253 944 2253 690 2118 434 
C 1978 171 1773 25 1478 25 
z
" transform="scale(0.015625)"/>
       </defs>
       <use xlink:href="#g2f0029_f0af4f_CMSY10-0" transform="scale(0.996264)"/>
       <use xlink:href="#g2f0029_f0af4f_CMR17-36" transform="translate(77.487468 0) scale(0.996264)"/>
      </g>
     </g>
    </g>
    <g id="g2f0029_f0af4f_xtick_2">
     <g id="g2f0029_f0af4f_line2d_3">
      <path d="M 53.900234 331.34 
L 53.900234 16.556315 
" clip-path="url(#g2f0029_f0af4f_p2528cdecec)" style="fill: none; stroke-dasharray: 2.96,1.28; stroke-dashoffset: 0; stroke: #b0b0b0; stroke-opacity: 0.6; stroke-width: 0.8"/>
     </g>
     <g id="g2f0029_f0af4f_line2d_4">
      <g>
       <use xlink:href="#g2f0029_f0af4f_ma41eb68713" x="53.900234" y="173.948158" style="stroke: #000000; stroke-width: 0.8"/>
      </g>
     </g>
     <g id="g2f0029_f0af4f_text_2">
      <!-- $\mathdefault{−5}$ -->
      <g transform="translate(41.582443 194.785154) scale(0.2 -0.2)">
       <defs>
        <path id="g2f0029_f0af4f_CMR17-35" d="M 730 3692 
C 794 3666 1056 3584 1325 3584 
C 1920 3584 2246 3911 2432 4100 
C 2432 4157 2432 4192 2394 4192 
C 2387 4192 2374 4192 2323 4163 
C 2099 4058 1837 3973 1517 3973 
C 1325 3973 1037 3999 723 4139 
C 653 4171 640 4171 634 4171 
C 602 4171 595 4164 595 4037 
L 595 2203 
C 595 2089 595 2057 659 2057 
C 691 2057 704 2070 736 2114 
C 941 2401 1222 2522 1542 2522 
C 1766 2522 2246 2382 2246 1289 
C 2246 1085 2246 715 2054 421 
C 1894 159 1645 25 1370 25 
C 947 25 518 320 403 814 
C 429 807 480 795 506 795 
C 589 795 749 840 749 1038 
C 749 1210 627 1280 506 1280 
C 358 1280 262 1190 262 1011 
C 262 454 704 -128 1382 -128 
C 2042 -128 2669 440 2669 1264 
C 2669 2030 2170 2624 1549 2624 
C 1222 2624 947 2503 730 2274 
L 730 3692 
z
" transform="scale(0.015625)"/>
       </defs>
       <use xlink:href="#g2f0029_f0af4f_CMSY10-0" transform="scale(0.996264)"/>
       <use xlink:href="#g2f0029_f0af4f_CMR17-35" transform="translate(77.487468 0) scale(0.996264)"/>
      </g>
     </g>
    </g>
    <g id="g2f0029_f0af4f_xtick_3">
     <g id="g2f0029_f0af4f_line2d_5">
      <path d="M 88.282677 331.34 
L 88.282677 16.556315 
" clip-path="url(#g2f0029_f0af4f_p2528cdecec)" style="fill: none; stroke-dasharray: 2.96,1.28; stroke-dashoffset: 0; stroke: #b0b0b0; stroke-opacity: 0.6; stroke-width: 0.8"/>
     </g>
     <g id="g2f0029_f0af4f_line2d_6">
      <g>
       <use xlink:href="#g2f0029_f0af4f_ma41eb68713" x="88.282677" y="173.948158" style="stroke: #000000; stroke-width: 0.8"/>
      </g>
     </g>
     <g id="g2f0029_f0af4f_text_3">
      <!-- $\mathdefault{−4}$ -->
      <g transform="translate(75.964886 194.785154) scale(0.2 -0.2)">
       <defs>
        <path id="g2f0029_f0af4f_CMR17-34" d="M 2150 4122 
C 2150 4256 2144 4256 2029 4256 
L 128 1254 
L 128 1088 
L 1779 1088 
L 1779 457 
C 1779 224 1766 160 1318 160 
L 1197 160 
L 1197 0 
C 1402 0 1747 0 1965 0 
C 2182 0 2528 0 2733 0 
L 2733 160 
L 2611 160 
C 2163 160 2150 224 2150 457 
L 2150 1088 
L 2803 1088 
L 2803 1254 
L 2150 1254 
L 2150 4122 
z
M 1798 3703 
L 1798 1254 
L 256 1254 
L 1798 3703 
z
" transform="scale(0.015625)"/>
       </defs>
       <use xlink:href="#g2f0029_f0af4f_CMSY10-0" transform="scale(0.996264)"/>
       <use xlink:href="#g2f0029_f0af4f_CMR17-34" transform="translate(77.487468 0) scale(0.996264)"/>
      </g>
     </g>
    </g>
    <g id="g2f0029_f0af4f_xtick_4">
     <g id="g2f0029_f0af4f_line2d_7">
      <path d="M 122.66512 331.34 
L 122.66512 16.556315 
" clip-path="url(#g2f0029_f0af4f_p2528cdecec)" style="fill: none; stroke-dasharray: 2.96,1.28; stroke-dashoffset: 0; stroke: #b0b0b0; stroke-opacity: 0.6; stroke-width: 0.8"/>
     </g>
     <g id="g2f0029_f0af4f_line2d_8">
      <g>
       <use xlink:href="#g2f0029_f0af4f_ma41eb68713" x="122.66512" y="173.948158" style="stroke: #000000; stroke-width: 0.8"/>
      </g>
     </g>
     <g id="g2f0029_f0af4f_text_4">
      <!-- $\mathdefault{−3}$ -->
      <g transform="translate(110.347329 194.785154) scale(0.2 -0.2)">
       <defs>
        <path id="g2f0029_f0af4f_CMR17-33" d="M 1414 2157 
C 1984 2157 2234 1662 2234 1090 
C 2234 320 1824 25 1453 25 
C 1114 25 563 194 390 693 
C 422 680 454 680 486 680 
C 640 680 755 782 755 948 
C 755 1133 614 1216 486 1216 
C 378 1216 211 1165 211 926 
C 211 335 787 -128 1466 -128 
C 2176 -128 2720 430 2720 1085 
C 2720 1707 2208 2157 1600 2227 
C 2086 2328 2554 2756 2554 3329 
C 2554 3820 2048 4179 1472 4179 
C 890 4179 378 3829 378 3329 
C 378 3110 544 3072 627 3072 
C 762 3072 877 3155 877 3321 
C 877 3486 762 3569 627 3569 
C 602 3569 570 3569 544 3557 
C 730 3959 1235 4032 1459 4032 
C 1683 4032 2106 3925 2106 3320 
C 2106 3143 2080 2828 1862 2550 
C 1670 2304 1453 2304 1242 2284 
C 1210 2284 1062 2269 1037 2269 
C 992 2263 966 2257 966 2208 
C 966 2163 973 2157 1101 2157 
L 1414 2157 
z
" transform="scale(0.015625)"/>
       </defs>
       <use xlink:href="#g2f0029_f0af4f_CMSY10-0" transform="scale(0.996264)"/>
       <use xlink:href="#g2f0029_f0af4f_CMR17-33" transform="translate(77.487468 0) scale(0.996264)"/>
      </g>
     </g>
    </g>
    <g id="g2f0029_f0af4f_xtick_5">
     <g id="g2f0029_f0af4f_line2d_9">
      <path d="M 157.047563 331.34 
L 157.047563 16.556315 
" clip-path="url(#g2f0029_f0af4f_p2528cdecec)" style="fill: none; stroke-dasharray: 2.96,1.28; stroke-dashoffset: 0; stroke: #b0b0b0; stroke-opacity: 0.6; stroke-width: 0.8"/>
     </g>
     <g id="g2f0029_f0af4f_line2d_10">
      <g>
       <use xlink:href="#g2f0029_f0af4f_ma41eb68713" x="157.047563" y="173.948158" style="stroke: #000000; stroke-width: 0.8"/>
      </g>
     </g>
     <g id="g2f0029_f0af4f_text_5">
      <!-- $\mathdefault{−2}$ -->
      <g transform="translate(144.729771 194.785154) scale(0.2 -0.2)">
       <defs>
        <path id="g2f0029_f0af4f_CMR17-32" d="M 2669 989 
L 2554 989 
C 2490 536 2438 459 2413 420 
C 2381 369 1920 369 1830 369 
L 602 369 
C 832 619 1280 1072 1824 1597 
C 2214 1967 2669 2402 2669 3035 
C 2669 3790 2067 4224 1395 4224 
C 691 4224 262 3604 262 3030 
C 262 2780 448 2748 525 2748 
C 589 2748 781 2787 781 3010 
C 781 3207 614 3264 525 3264 
C 486 3264 448 3258 422 3245 
C 544 3790 915 4058 1306 4058 
C 1862 4058 2227 3617 2227 3035 
C 2227 2479 1901 2000 1536 1584 
L 262 146 
L 262 0 
L 2515 0 
L 2669 989 
z
" transform="scale(0.015625)"/>
       </defs>
       <use xlink:href="#g2f0029_f0af4f_CMSY10-0" transform="scale(0.996264)"/>
       <use xlink:href="#g2f0029_f0af4f_CMR17-32" transform="translate(77.487468 0) scale(0.996264)"/>
      </g>
     </g>
    </g>
    <g id="g2f0029_f0af4f_xtick_6">
     <g id="g2f0029_f0af4f_line2d_11">
      <path d="M 191.430006 331.34 
L 191.430006 16.556315 
" clip-path="url(#g2f0029_f0af4f_p2528cdecec)" style="fill: none; stroke-dasharray: 2.96,1.28; stroke-dashoffset: 0; stroke: #b0b0b0; stroke-opacity: 0.6; stroke-width: 0.8"/>
     </g>
     <g id="g2f0029_f0af4f_line2d_12">
      <g>
       <use xlink:href="#g2f0029_f0af4f_ma41eb68713" x="191.430006" y="173.948158" style="stroke: #000000; stroke-width: 0.8"/>
      </g>
     </g>
     <g id="g2f0029_f0af4f_text_6">
      <!-- $\mathdefault{−1}$ -->
      <g transform="translate(179.112214 194.785154) scale(0.2 -0.2)">
       <defs>
        <path id="g2f0029_f0af4f_CMR17-31" d="M 1702 4058 
C 1702 4192 1696 4192 1606 4192 
C 1357 3916 979 3827 621 3827 
C 602 3827 570 3827 563 3808 
C 557 3795 557 3782 557 3648 
C 755 3648 1088 3686 1344 3839 
L 1344 461 
C 1344 236 1331 160 781 160 
L 589 160 
L 589 0 
C 896 0 1216 0 1523 0 
C 1830 0 2150 0 2458 0 
L 2458 160 
L 2266 160 
C 1715 160 1702 230 1702 458 
L 1702 4058 
z
" transform="scale(0.015625)"/>
       </defs>
       <use xlink:href="#g2f0029_f0af4f_CMSY10-0" transform="scale(0.996264)"/>
       <use xlink:href="#g2f0029_f0af4f_CMR17-31" transform="translate(77.487468 0) scale(0.996264)"/>
      </g>
     </g>
    </g>
    <g id="g2f0029_f0af4f_xtick_7">
     <g id="g2f0029_f0af4f_line2d_13">
      <path d="M 260.194892 331.34 
L 260.194892 16.556315 
" clip-path="url(#g2f0029_f0af4f_p2528cdecec)" style="fill: none; stroke-dasharray: 2.96,1.28; stroke-dashoffset: 0; stroke: #b0b0b0; stroke-opacity: 0.6; stroke-width: 0.8"/>
     </g>
     <g id="g2f0029_f0af4f_line2d_14">
      <g>
       <use xlink:href="#g2f0029_f0af4f_ma41eb68713" x="260.194892" y="173.948158" style="stroke: #000000; stroke-width: 0.8"/>
      </g>
     </g>
     <g id="g2f0029_f0af4f_text_7">
      <!-- $\mathdefault{1}$ -->
      <g transform="translate(255.625844 194.785154) scale(0.2 -0.2)">
       <use xlink:href="#g2f0029_f0af4f_CMR17-31" transform="scale(0.996264)"/>
      </g>
     </g>
    </g>
    <g id="g2f0029_f0af4f_xtick_8">
     <g id="g2f0029_f0af4f_line2d_15">
      <path d="M 294.577334 331.34 
L 294.577334 16.556315 
" clip-path="url(#g2f0029_f0af4f_p2528cdecec)" style="fill: none; stroke-dasharray: 2.96,1.28; stroke-dashoffset: 0; stroke: #b0b0b0; stroke-opacity: 0.6; stroke-width: 0.8"/>
     </g>
     <g id="g2f0029_f0af4f_line2d_16">
      <g>
       <use xlink:href="#g2f0029_f0af4f_ma41eb68713" x="294.577334" y="173.948158" style="stroke: #000000; stroke-width: 0.8"/>
      </g>
     </g>
     <g id="g2f0029_f0af4f_text_8">
      <!-- $\mathdefault{2}$ -->
      <g transform="translate(290.008287 194.785154) scale(0.2 -0.2)">
       <use xlink:href="#g2f0029_f0af4f_CMR17-32" transform="scale(0.996264)"/>
      </g>
     </g>
    </g>
    <g id="g2f0029_f0af4f_xtick_9">
     <g id="g2f0029_f0af4f_line2d_17">
      <path d="M 328.959777 331.34 
L 328.959777 16.556315 
" clip-path="url(#g2f0029_f0af4f_p2528cdecec)" style="fill: none; stroke-dasharray: 2.96,1.28; stroke-dashoffset: 0; stroke: #b0b0b0; stroke-opacity: 0.6; stroke-width: 0.8"/>
     </g>
     <g id="g2f0029_f0af4f_line2d_18">
      <g>
       <use xlink:href="#g2f0029_f0af4f_ma41eb68713" x="328.959777" y="173.948158" style="stroke: #000000; stroke-width: 0.8"/>
      </g>
     </g>
     <g id="g2f0029_f0af4f_text_9">
      <!-- $\mathdefault{3}$ -->
      <g transform="translate(324.39073 194.785154) scale(0.2 -0.2)">
       <use xlink:href="#g2f0029_f0af4f_CMR17-33" transform="scale(0.996264)"/>
      </g>
     </g>
    </g>
    <g id="g2f0029_f0af4f_xtick_10">
     <g id="g2f0029_f0af4f_line2d_19">
      <path d="M 363.34222 331.34 
L 363.34222 16.556315 
" clip-path="url(#g2f0029_f0af4f_p2528cdecec)" style="fill: none; stroke-dasharray: 2.96,1.28; stroke-dashoffset: 0; stroke: #b0b0b0; stroke-opacity: 0.6; stroke-width: 0.8"/>
     </g>
     <g id="g2f0029_f0af4f_line2d_20">
      <g>
       <use xlink:href="#g2f0029_f0af4f_ma41eb68713" x="363.34222" y="173.948158" style="stroke: #000000; stroke-width: 0.8"/>
      </g>
     </g>
     <g id="g2f0029_f0af4f_text_10">
      <!-- $\mathdefault{4}$ -->
      <g transform="translate(358.773172 194.785154) scale(0.2 -0.2)">
       <use xlink:href="#g2f0029_f0af4f_CMR17-34" transform="scale(0.996264)"/>
      </g>
     </g>
    </g>
    <g id="g2f0029_f0af4f_xtick_11">
     <g id="g2f0029_f0af4f_line2d_21">
      <path d="M 397.724663 331.34 
L 397.724663 16.556315 
" clip-path="url(#g2f0029_f0af4f_p2528cdecec)" style="fill: none; stroke-dasharray: 2.96,1.28; stroke-dashoffset: 0; stroke: #b0b0b0; stroke-opacity: 0.6; stroke-width: 0.8"/>
     </g>
     <g id="g2f0029_f0af4f_line2d_22">
      <g>
       <use xlink:href="#g2f0029_f0af4f_ma41eb68713" x="397.724663" y="173.948158" style="stroke: #000000; stroke-width: 0.8"/>
      </g>
     </g>
     <g id="g2f0029_f0af4f_text_11">
      <!-- $\mathdefault{5}$ -->
      <g transform="translate(393.155615 194.785154) scale(0.2 -0.2)">
       <use xlink:href="#g2f0029_f0af4f_CMR17-35" transform="scale(0.996264)"/>
      </g>
     </g>
    </g>
    <g id="g2f0029_f0af4f_xtick_12">
     <g id="g2f0029_f0af4f_line2d_23">
      <path d="M 432.107106 331.34 
L 432.107106 16.556315 
" clip-path="url(#g2f0029_f0af4f_p2528cdecec)" style="fill: none; stroke-dasharray: 2.96,1.28; stroke-dashoffset: 0; stroke: #b0b0b0; stroke-opacity: 0.6; stroke-width: 0.8"/>
     </g>
     <g id="g2f0029_f0af4f_line2d_24">
      <g>
       <use xlink:href="#g2f0029_f0af4f_ma41eb68713" x="432.107106" y="173.948158" style="stroke: #000000; stroke-width: 0.8"/>
      </g>
     </g>
     <g id="g2f0029_f0af4f_text_12">
      <!-- $\mathdefault{6}$ -->
      <g transform="translate(427.538058 194.785154) scale(0.2 -0.2)">
       <use xlink:href="#g2f0029_f0af4f_CMR17-36" transform="scale(0.996264)"/>
      </g>
     </g>
    </g>
    <g id="g2f0029_f0af4f_text_13">
     <!-- $x$ -->
     <g transform="translate(430.647378 216.497785) scale(0.2 -0.2)">
      <defs>
       <path id="g2f0029_f0af4f_CMMI12-78" d="M 3034 2606 
C 2829 2567 2752 2414 2752 2293 
C 2752 2139 2874 2088 2963 2088 
C 3155 2088 3290 2254 3290 2427 
C 3290 2695 2982 2816 2714 2816 
C 2323 2816 2106 2433 2048 2312 
C 1901 2816 1504 2816 1389 2816 
C 736 2816 390 1980 390 1839 
C 390 1814 416 1782 461 1782 
C 512 1782 525 1820 538 1846 
C 755 2555 1184 2689 1370 2689 
C 1658 2689 1715 2420 1715 2267 
C 1715 2127 1677 1980 1600 1673 
L 1382 798 
C 1286 415 1101 64 762 64 
C 730 64 570 64 435 147 
C 666 192 717 383 717 460 
C 717 588 621 664 499 664 
C 346 664 179 530 179 326 
C 179 57 480 -64 755 -64 
C 1062 -64 1280 179 1414 441 
C 1517 64 1837 -64 2074 -64 
C 2726 -64 3072 773 3072 913 
C 3072 945 3046 971 3008 971 
C 2950 971 2944 939 2925 888 
C 2752 326 2381 64 2093 64 
C 1869 64 1747 230 1747 492 
C 1747 632 1773 734 1875 1156 
L 2099 2024 
C 2195 2408 2413 2689 2707 2689 
C 2720 2689 2899 2689 3034 2606 
z
" transform="scale(0.015625)"/>
      </defs>
      <use xlink:href="#g2f0029_f0af4f_CMMI12-78" transform="scale(0.996264)"/>
     </g>
    </g>
   </g>
   <g id="g2f0029_f0af4f_matplotlib.axis_2">
    <g id="g2f0029_f0af4f_ytick_1">
     <g id="g2f0029_f0af4f_line2d_25">
      <path d="M 9.890707 252.644079 
L 441.73419 252.644079 
" clip-path="url(#g2f0029_f0af4f_p2528cdecec)" style="fill: none; stroke-dasharray: 2.96,1.28; stroke-dashoffset: 0; stroke: #b0b0b0; stroke-opacity: 0.6; stroke-width: 0.8"/>
     </g>
     <g id="g2f0029_f0af4f_line2d_26">
      <defs>
       <path id="g2f0029_f0af4f_m046d844eea" d="M 0 0 
L -3.5 0 
" style="stroke: #000000; stroke-width: 0.8"/>
      </defs>
      <g>
       <use xlink:href="#g2f0029_f0af4f_m046d844eea" x="225.812449" y="252.644079" style="stroke: #000000; stroke-width: 0.8"/>
      </g>
     </g>
     <g id="g2f0029_f0af4f_text_14">
      <!-- $\mathdefault{−1}$ -->
      <g transform="translate(194.176866 259.562577) scale(0.2 -0.2)">
       <use xlink:href="#g2f0029_f0af4f_CMSY10-0" transform="scale(0.996264)"/>
       <use xlink:href="#g2f0029_f0af4f_CMR17-31" transform="translate(77.487468 0) scale(0.996264)"/>
      </g>
     </g>
    </g>
    <g id="g2f0029_f0af4f_ytick_2">
     <g id="g2f0029_f0af4f_line2d_27">
      <path d="M 9.890707 95.252236 
L 441.73419 95.252236 
" clip-path="url(#g2f0029_f0af4f_p2528cdecec)" style="fill: none; stroke-dasharray: 2.96,1.28; stroke-dashoffset: 0; stroke: #b0b0b0; stroke-opacity: 0.6; stroke-width: 0.8"/>
     </g>
     <g id="g2f0029_f0af4f_line2d_28">
      <g>
       <use xlink:href="#g2f0029_f0af4f_m046d844eea" x="225.812449" y="95.252236" style="stroke: #000000; stroke-width: 0.8"/>
      </g>
     </g>
     <g id="g2f0029_f0af4f_text_15">
      <!-- $\mathdefault{1}$ -->
      <g transform="translate(209.674353 102.170735) scale(0.2 -0.2)">
       <use xlink:href="#g2f0029_f0af4f_CMR17-31" transform="scale(0.996264)"/>
      </g>
     </g>
    </g>
    <g id="g2f0029_f0af4f_text_16">
     <!-- $y$ -->
     <g transform="translate(180.664031 12.680682) scale(0.2 -0.2)">
      <defs>
       <path id="g2f0029_f0af4f_CMMI12-79" d="M 1683 -700 
C 1510 -939 1261 -1152 947 -1152 
C 870 -1152 563 -1152 467 -889 
C 486 -895 518 -895 531 -895 
C 723 -895 851 -729 851 -582 
C 851 -435 730 -384 634 -384 
C 531 -384 307 -458 307 -759 
C 307 -1071 582 -1286 947 -1286 
C 1587 -1286 2234 -700 2413 6 
L 3040 2485 
C 3046 2517 3059 2556 3059 2594 
C 3059 2689 2982 2753 2886 2753 
C 2829 2753 2694 2727 2643 2535 
L 2170 658 
C 2138 543 2138 530 2086 460 
C 1958 281 1747 64 1440 64 
C 1082 64 1050 415 1050 588 
C 1050 952 1222 1443 1395 1903 
C 1466 2088 1504 2178 1504 2305 
C 1504 2574 1312 2816 998 2816 
C 410 2816 173 1890 173 1839 
C 173 1814 198 1782 243 1782 
C 301 1782 307 1807 333 1897 
C 486 2433 730 2689 979 2689 
C 1037 2689 1146 2689 1146 2478 
C 1146 2312 1075 2127 979 1884 
C 666 1047 666 837 666 683 
C 666 77 1101 -64 1421 -64 
C 1606 -64 1837 -6 2061 230 
L 2067 224 
C 1971 -147 1907 -392 1683 -700 
z
" transform="scale(0.015625)"/>
      </defs>
      <use xlink:href="#g2f0029_f0af4f_CMMI12-79" transform="scale(0.996264)"/>
     </g>
    </g>
   </g>
   <g id="g2f0029_f0af4f_line2d_29">
    <defs>
     <path id="g2f0029_f0af4f_meb2a56e851" d="M 3 0 
L -3 -3 
L -3 3 
z
" style="stroke: #000000; stroke-linejoin: miter"/>
    </defs>
    <g>
     <use xlink:href="#g2f0029_f0af4f_meb2a56e851" x="441.73419" y="173.948158" style="stroke: #000000; stroke-linejoin: miter"/>
    </g>
   </g>
   <g id="g2f0029_f0af4f_line2d_30">
    <defs>
     <path id="g2f0029_f0af4f_m731156bf5b" d="M 0 -3 
L -3 3 
L 3 3 
z
" style="stroke: #000000; stroke-linejoin: miter"/>
    </defs>
    <g>
     <use xlink:href="#g2f0029_f0af4f_m731156bf5b" x="225.812449" y="16.556315" style="stroke: #000000; stroke-linejoin: miter"/>
    </g>
   </g>
   <g id="g2f0029_f0af4f_line2d_31">
    <path d="M 9.890707 193.136838 
L 14.112051 206.450492 
L 17.489126 216.369415 
L 20.444067 224.33914 
L 22.976874 230.542797 
L 25.087546 235.214684 
L 27.198217 239.393716 
L 29.308889 243.046272 
L 30.997427 245.569362 
L 32.685965 247.723624 
L 34.374502 249.497964 
L 36.06304 250.883246 
L 37.329443 251.662519 
L 38.595846 252.216634 
L 39.862249 252.543986 
L 41.128652 252.643626 
L 42.395056 252.515266 
L 43.661459 252.159277 
L 44.927862 251.57669 
L 46.194265 250.769194 
L 47.460668 249.739129 
L 49.149206 248.024738 
L 50.837743 245.928876 
L 52.526281 243.462334 
L 54.214819 240.637814 
L 56.32549 236.626088 
L 58.436162 232.110152 
L 60.968969 226.07689 
L 63.501775 219.439945 
L 66.456716 211.036741 
L 69.833791 200.725642 
L 74.055135 187.088104 
L 87.563435 142.835084 
L 90.940511 132.814041 
L 93.895451 124.733154 
L 96.428258 118.419393 
L 98.961064 112.748688 
L 101.071736 108.561945 
L 103.182408 104.901198 
L 104.870946 102.371257 
L 106.559483 100.209915 
L 108.248021 98.428304 
L 109.936558 97.035597 
L 111.202961 96.250676 
L 112.469365 95.690864 
L 113.735768 95.357784 
L 115.002171 95.252399 
L 116.268574 95.375016 
L 117.534977 95.725279 
L 118.80138 96.302173 
L 120.067784 97.104028 
L 121.334187 98.128519 
L 123.022724 99.835608 
L 124.711262 101.924355 
L 126.399799 104.384003 
L 128.088337 107.201886 
L 130.199009 111.20573 
L 132.309681 115.714304 
L 134.842487 121.739499 
L 137.375294 128.369302 
L 140.330234 136.765453 
L 143.70731 147.070313 
L 147.928653 160.702967 
L 161.436954 204.963146 
L 164.814029 214.991226 
L 167.76897 223.079813 
L 170.301776 229.401225 
L 172.834583 235.080457 
L 174.945254 239.274905 
L 177.055926 242.943835 
L 178.744464 245.480623 
L 180.433002 247.64904 
L 182.121539 249.43792 
L 183.810077 250.83805 
L 185.07648 251.628616 
L 186.342883 252.194123 
L 187.609286 252.532932 
L 188.875689 252.644061 
L 190.142093 252.527188 
L 191.408496 252.182652 
L 192.674899 251.611451 
L 193.941302 250.815239 
L 195.207705 249.796325 
L 196.896243 248.096539 
L 198.58478 246.014912 
L 200.273318 243.562162 
L 201.961856 240.750921 
L 204.072527 236.754966 
L 206.183199 232.253763 
L 208.716006 226.236647 
L 211.248812 219.613998 
L 214.203753 211.224915 
L 217.580828 200.926313 
L 221.802172 187.298568 
L 235.310472 143.031312 
L 238.687548 132.996213 
L 241.642488 124.899941 
L 244.175295 118.570889 
L 246.708101 112.883141 
L 248.818773 108.680995 
L 250.929445 105.003889 
L 252.617983 102.460259 
L 254.30652 100.284771 
L 255.995058 98.488626 
L 257.683595 97.081076 
L 258.949998 96.284865 
L 260.216402 95.713664 
L 261.482805 95.369127 
L 262.749208 95.252254 
L 264.015611 95.363383 
L 265.282014 95.702192 
L 266.548417 96.267699 
L 267.814821 97.058266 
L 269.081224 98.071602 
L 270.769761 99.76408 
L 272.458299 101.838584 
L 274.146836 104.284431 
L 275.835374 107.089026 
L 277.946046 111.077084 
L 280.056718 115.570907 
L 282.589524 121.579934 
L 285.122331 128.195417 
L 288.077271 136.577416 
L 291.454347 146.869742 
L 295.67569 160.492553 
L 309.183991 204.766803 
L 312.561066 214.808904 
L 315.516007 222.912846 
L 318.048813 229.249525 
L 320.58162 234.94578 
L 322.692291 239.155614 
L 324.802963 242.84089 
L 326.491501 245.391357 
L 328.180039 247.573914 
L 329.868576 249.377319 
L 331.557114 250.792288 
L 332.823517 251.594142 
L 334.08992 252.171036 
L 335.356323 252.521299 
L 336.622726 252.643916 
L 337.88913 252.538531 
L 339.155533 252.205451 
L 340.421936 251.645639 
L 341.688339 250.860718 
L 342.954742 249.852963 
L 344.64328 248.167795 
L 346.331817 246.100417 
L 348.020355 243.661478 
L 349.708893 240.863535 
L 351.819565 236.88338 
L 353.930236 232.396945 
L 356.463043 226.396019 
L 358.995849 219.787715 
L 361.95079 211.412814 
L 365.327865 201.126784 
L 369.549209 187.508933 
L 383.057509 143.227768 
L 386.434585 133.178686 
L 389.389525 125.067088 
L 391.922332 118.722793 
L 394.455138 113.018042 
L 396.56581 108.800526 
L 398.676482 105.107088 
L 400.36502 102.549788 
L 402.053557 100.360168 
L 403.742095 98.549504 
L 405.430632 97.127121 
L 406.697035 96.319625 
L 407.963439 95.737039 
L 409.229842 95.381049 
L 410.496245 95.252689 
L 411.762648 95.352329 
L 413.029051 95.679681 
L 414.295454 96.233796 
L 415.561858 97.013069 
L 416.828261 98.015243 
L 418.516798 99.693098 
L 420.205336 101.753344 
L 421.893873 104.185372 
L 423.582411 106.976657 
L 425.693083 110.948901 
L 427.803755 115.42794 
L 430.336561 121.420755 
L 432.869368 128.021869 
L 435.824308 136.389654 
L 439.201384 146.66937 
L 441.73419 154.759477 
L 441.73419 154.759477 
" clip-path="url(#g2f0029_f0af4f_p2528cdecec)" style="fill: none; stroke: #0072b2; stroke-width: 2.5; stroke-linecap: square"/>
   </g>
   <g id="g2f0029_f0af4f_patch_3">
    <path d="M 225.812449 331.34 
L 225.812449 16.556315 
" style="fill: none; stroke: #000000; stroke-width: 0.8; stroke-linejoin: miter; stroke-linecap: square"/>
   </g>
   <g id="g2f0029_f0af4f_patch_4">
    <path d="M 441.73419 331.34 
L 441.73419 16.556315 
" style="fill: none"/>
   </g>
   <g id="g2f0029_f0af4f_patch_5">
    <path d="M 9.890707 173.948158 
L 441.73419 173.948158 
" style="fill: none; stroke: #000000; stroke-width: 0.8; stroke-linejoin: miter; stroke-linecap: square"/>
   </g>
   <g id="g2f0029_f0af4f_patch_6">
    <path d="M 9.890707 16.556315 
L 441.73419 16.556315 
" style="fill: none"/>
   </g>
  </g>
 </g>
 <defs>
  <clipPath id="g2f0029_f0af4f_p2528cdecec">
   <rect x="9.890707" y="16.556315" width="431.843482" height="314.783685"/>
  </clipPath>
 </defs>
</svg>
