<?xml version="1.0" encoding="utf-8" standalone="no"?>
<!DOCTYPE svg PUBLIC "-//W3C//DTD SVG 1.1//EN"
  "http://www.w3.org/Graphics/SVG/1.1/DTD/svg11.dtd">
<svg xmlns:xlink="http://www.w3.org/1999/xlink" width="451.93419pt" height="338.54pt" viewBox="0 0 451.93419 338.54" xmlns="http://www.w3.org/2000/svg" version="1.1">
 <metadata>
  <rdf:RDF xmlns:dc="http://purl.org/dc/elements/1.1/" xmlns:cc="http://creativecommons.org/ns#" xmlns:rdf="http://www.w3.org/1999/02/22-rdf-syntax-ns#">
   <cc:Work>
    <dc:type rdf:resource="http://purl.org/dc/dcmitype/StillImage"/>
    <dc:date>2026-01-22T01:39:04.362167</dc:date>
    <dc:format>image/svg+xml</dc:format>
    <dc:creator>
     <cc:Agent>
      <dc:title>Matplotlib v3.9.1, https://matplotlib.org/</dc:title>
     </cc:Agent>
    </dc:creator>
   </cc:Work>
  </rdf:RDF>
 </metadata>
 <defs>
  <style type="text/css">*{stroke-linejoin: round; stroke-linecap: butt}</style>
 </defs>
 <g id="g2f0031_e090bc_figure_1">
  <g id="g2f0031_e090bc_patch_1">
   <path d="M 0 338.54 
L 451.93419 338.54 
L 451.93419 0 
L 0 0 
L 0 338.54 
z
" style="fill: none; opacity: 0"/>
  </g>
  <g id="g2f0031_e090bc_axes_1">
   <g id="g2f0031_e090bc_patch_2">
    <path d="M 9.890707 331.34 
L 441.73419 331.34 
L 441.73419 16.556315 
L 9.890707 16.556315 
L 9.890707 331.34 
z
" style="fill: none; opacity: 0"/>
   </g>
   <g id="g2f0031_e090bc_matplotlib.axis_1">
    <g id="g2f0031_e090bc_xtick_1">
     <g id="g2f0031_e090bc_line2d_1">
      <path d="M 19.517791 331.34 
L 19.517791 16.556315 
" clip-path="url(#g2f0031_e090bc_p4844e86bfc)" style="fill: none; stroke-dasharray: 2.96,1.28; stroke-dashoffset: 0; stroke: #b0b0b0; stroke-opacity: 0.6; stroke-width: 0.8"/>
     </g>
     <g id="g2f0031_e090bc_line2d_2">
      <defs>
       <path id="g2f0031_e090bc_mdae5657cf9" d="M 0 0 
L 0 3.5 
" style="stroke: #000000; stroke-width: 0.8"/>
      </defs>
      <g>
       <use xlink:href="#g2f0031_e090bc_mdae5657cf9" x="19.517791" y="173.948158" style="stroke: #000000; stroke-width: 0.8"/>
      </g>
     </g>
     <g id="g2f0031_e090bc_text_1">
      <!-- $\mathdefault{−6}$ -->
      <g transform="translate(7.2 194.785154) scale(0.2 -0.2)">
       <defs>
        <path id="g2f0031_e090bc_CMSY10-0" d="M 4218 1472 
C 4326 1472 4442 1472 4442 1600 
C 4442 1728 4326 1728 4218 1728 
L 755 1728 
C 646 1728 531 1728 531 1600 
C 531 1472 646 1472 755 1472 
L 4218 1472 
z
" transform="scale(0.015625)"/>
        <path id="g2f0031_e090bc_CMR17-36" d="M 678 2176 
C 678 3690 1395 4032 1811 4032 
C 1946 4032 2272 4009 2400 3776 
C 2298 3776 2106 3776 2106 3553 
C 2106 3381 2246 3323 2336 3323 
C 2394 3323 2566 3348 2566 3560 
C 2566 3954 2246 4179 1805 4179 
C 1043 4179 243 3390 243 1984 
C 243 253 966 -128 1478 -128 
C 2099 -128 2688 427 2688 1283 
C 2688 2081 2170 2662 1517 2662 
C 1126 2662 838 2407 678 1960 
L 678 2176 
z
M 1478 25 
C 691 25 691 1200 691 1436 
C 691 1896 909 2560 1504 2560 
C 1613 2560 1926 2560 2138 2120 
C 2253 1870 2253 1609 2253 1289 
C 2253 944 2253 690 2118 434 
C 1978 171 1773 25 1478 25 
z
" transform="scale(0.015625)"/>
       </defs>
       <use xlink:href="#g2f0031_e090bc_CMSY10-0" transform="scale(0.996264)"/>
       <use xlink:href="#g2f0031_e090bc_CMR17-36" transform="translate(77.487468 0) scale(0.996264)"/>
      </g>
     </g>
    </g>
    <g id="g2f0031_e090bc_xtick_2">
     <g id="g2f0031_e090bc_line2d_3">
      <path d="M 53.900234 331.34 
L 53.900234 16.556315 
" clip-path="url(#g2f0031_e090bc_p4844e86bfc)" style="fill: none; stroke-dasharray: 2.96,1.28; stroke-dashoffset: 0; stroke: #b0b0b0; stroke-opacity: 0.6; stroke-width: 0.8"/>
     </g>
     <g id="g2f0031_e090bc_line2d_4">
      <g>
       <use xlink:href="#g2f0031_e090bc_mdae5657cf9" x="53.900234" y="173.948158" style="stroke: #000000; stroke-width: 0.8"/>
      </g>
     </g>
     <g id="g2f0031_e090bc_text_2">
      <!-- $\mathdefault{−5}$ -->
      <g transform="translate(41.582443 194.785154) scale(0.2 -0.2)">
       <defs>
        <path id="g2f0031_e090bc_CMR17-35" d="M 730 3692 
C 794 3666 1056 3584 1325 3584 
C 1920 3584 2246 3911 2432 4100 
C 2432 4157 2432 4192 2394 4192 
C 2387 4192 2374 4192 2323 4163 
C 2099 4058 1837 3973 1517 3973 
C 1325 3973 1037 3999 723 4139 
C 653 4171 640 4171 634 4171 
C 602 4171 595 4164 595 4037 
L 595 2203 
C 595 2089 595 2057 659 2057 
C 691 2057 704 2070 736 2114 
C 941 2401 1222 2522 1542 2522 
C 1766 2522 2246 2382 2246 1289 
C 2246 1085 2246 715 2054 421 
C 1894 159 1645 25 1370 25 
C 947 25 518 320 403 814 
C 429 807 480 795 506 795 
C 589 795 749 840 749 1038 
C 749 1210 627 1280 506 1280 
C 358 1280 262 1190 262 1011 
C 262 454 704 -128 1382 -128 
C 2042 -128 2669 440 2669 1264 
C 2669 2030 2170 2624 1549 2624 
C 1222 2624 947 2503 730 2274 
L 730 3692 
z
" transform="scale(0.015625)"/>
       </defs>
       <use xlink:href="#g2f0031_e090bc_CMSY10-0" transform="scale(0.996264)"/>
       <use xlink:href="#g2f0031_e090bc_CMR17-35" transform="translate(77.487468 0) scale(0.996264)"/>
      </g>
     </g>
    </g>
    <g id="g2f0031_e090bc_xtick_3">
     <g id="g2f0031_e090bc_line2d_5">
      <path d="M 88.282677 331.34 
L 88.282677 16.556315 
" clip-path="url(#g2f0031_e090bc_p4844e86bfc)" style="fill: none; stroke-dasharray: 2.96,1.28; stroke-dashoffset: 0; stroke: #b0b0b0; stroke-opacity: 0.6; stroke-width: 0.8"/>
     </g>
     <g id="g2f0031_e090bc_line2d_6">
      <g>
       <use xlink:href="#g2f0031_e090bc_mdae5657cf9" x="88.282677" y="173.948158" style="stroke: #000000; stroke-width: 0.8"/>
      </g>
     </g>
     <g id="g2f0031_e090bc_text_3">
      <!-- $\mathdefault{−4}$ -->
      <g transform="translate(75.964886 194.785154) scale(0.2 -0.2)">
       <defs>
        <path id="g2f0031_e090bc_CMR17-34" d="M 2150 4122 
C 2150 4256 2144 4256 2029 4256 
L 128 1254 
L 128 1088 
L 1779 1088 
L 1779 457 
C 1779 224 1766 160 1318 160 
L 1197 160 
L 1197 0 
C 1402 0 1747 0 1965 0 
C 2182 0 2528 0 2733 0 
L 2733 160 
L 2611 160 
C 2163 160 2150 224 2150 457 
L 2150 1088 
L 2803 1088 
L 2803 1254 
L 2150 1254 
L 2150 4122 
z
M 1798 3703 
L 1798 1254 
L 256 1254 
L 1798 3703 
z
" transform="scale(0.015625)"/>
       </defs>
       <use xlink:href="#g2f0031_e090bc_CMSY10-0" transform="scale(0.996264)"/>
       <use xlink:href="#g2f0031_e090bc_CMR17-34" transform="translate(77.487468 0) scale(0.996264)"/>
      </g>
     </g>
    </g>
    <g id="g2f0031_e090bc_xtick_4">
     <g id="g2f0031_e090bc_line2d_7">
      <path d="M 122.66512 331.34 
L 122.66512 16.556315 
" clip-path="url(#g2f0031_e090bc_p4844e86bfc)" style="fill: none; stroke-dasharray: 2.96,1.28; stroke-dashoffset: 0; stroke: #b0b0b0; stroke-opacity: 0.6; stroke-width: 0.8"/>
     </g>
     <g id="g2f0031_e090bc_line2d_8">
      <g>
       <use xlink:href="#g2f0031_e090bc_mdae5657cf9" x="122.66512" y="173.948158" style="stroke: #000000; stroke-width: 0.8"/>
      </g>
     </g>
     <g id="g2f0031_e090bc_text_4">
      <!-- $\mathdefault{−3}$ -->
      <g transform="translate(110.347329 194.785154) scale(0.2 -0.2)">
       <defs>
        <path id="g2f0031_e090bc_CMR17-33" d="M 1414 2157 
C 1984 2157 2234 1662 2234 1090 
C 2234 320 1824 25 1453 25 
C 1114 25 563 194 390 693 
C 422 680 454 680 486 680 
C 640 680 755 782 755 948 
C 755 1133 614 1216 486 1216 
C 378 1216 211 1165 211 926 
C 211 335 787 -128 1466 -128 
C 2176 -128 2720 430 2720 1085 
C 2720 1707 2208 2157 1600 2227 
C 2086 2328 2554 2756 2554 3329 
C 2554 3820 2048 4179 1472 4179 
C 890 4179 378 3829 378 3329 
C 378 3110 544 3072 627 3072 
C 762 3072 877 3155 877 3321 
C 877 3486 762 3569 627 3569 
C 602 3569 570 3569 544 3557 
C 730 3959 1235 4032 1459 4032 
C 1683 4032 2106 3925 2106 3320 
C 2106 3143 2080 2828 1862 2550 
C 1670 2304 1453 2304 1242 2284 
C 1210 2284 1062 2269 1037 2269 
C 992 2263 966 2257 966 2208 
C 966 2163 973 2157 1101 2157 
L 1414 2157 
z
" transform="scale(0.015625)"/>
       </defs>
       <use xlink:href="#g2f0031_e090bc_CMSY10-0" transform="scale(0.996264)"/>
       <use xlink:href="#g2f0031_e090bc_CMR17-33" transform="translate(77.487468 0) scale(0.996264)"/>
      </g>
     </g>
    </g>
    <g id="g2f0031_e090bc_xtick_5">
     <g id="g2f0031_e090bc_line2d_9">
      <path d="M 157.047563 331.34 
L 157.047563 16.556315 
" clip-path="url(#g2f0031_e090bc_p4844e86bfc)" style="fill: none; stroke-dasharray: 2.96,1.28; stroke-dashoffset: 0; stroke: #b0b0b0; stroke-opacity: 0.6; stroke-width: 0.8"/>
     </g>
     <g id="g2f0031_e090bc_line2d_10">
      <g>
       <use xlink:href="#g2f0031_e090bc_mdae5657cf9" x="157.047563" y="173.948158" style="stroke: #000000; stroke-width: 0.8"/>
      </g>
     </g>
     <g id="g2f0031_e090bc_text_5">
      <!-- $\mathdefault{−2}$ -->
      <g transform="translate(144.729771 194.785154) scale(0.2 -0.2)">
       <defs>
        <path id="g2f0031_e090bc_CMR17-32" d="M 2669 989 
L 2554 989 
C 2490 536 2438 459 2413 420 
C 2381 369 1920 369 1830 369 
L 602 369 
C 832 619 1280 1072 1824 1597 
C 2214 1967 2669 2402 2669 3035 
C 2669 3790 2067 4224 1395 4224 
C 691 4224 262 3604 262 3030 
C 262 2780 448 2748 525 2748 
C 589 2748 781 2787 781 3010 
C 781 3207 614 3264 525 3264 
C 486 3264 448 3258 422 3245 
C 544 3790 915 4058 1306 4058 
C 1862 4058 2227 3617 2227 3035 
C 2227 2479 1901 2000 1536 1584 
L 262 146 
L 262 0 
L 2515 0 
L 2669 989 
z
" transform="scale(0.015625)"/>
       </defs>
       <use xlink:href="#g2f0031_e090bc_CMSY10-0" transform="scale(0.996264)"/>
       <use xlink:href="#g2f0031_e090bc_CMR17-32" transform="translate(77.487468 0) scale(0.996264)"/>
      </g>
     </g>
    </g>
    <g id="g2f0031_e090bc_xtick_6">
     <g id="g2f0031_e090bc_line2d_11">
      <path d="M 191.430006 331.34 
L 191.430006 16.556315 
" clip-path="url(#g2f0031_e090bc_p4844e86bfc)" style="fill: none; stroke-dasharray: 2.96,1.28; stroke-dashoffset: 0; stroke: #b0b0b0; stroke-opacity: 0.6; stroke-width: 0.8"/>
     </g>
     <g id="g2f0031_e090bc_line2d_12">
      <g>
       <use xlink:href="#g2f0031_e090bc_mdae5657cf9" x="191.430006" y="173.948158" style="stroke: #000000; stroke-width: 0.8"/>
      </g>
     </g>
     <g id="g2f0031_e090bc_text_6">
      <!-- $\mathdefault{−1}$ -->
      <g transform="translate(179.112214 194.785154) scale(0.2 -0.2)">
       <defs>
        <path id="g2f0031_e090bc_CMR17-31" d="M 1702 4058 
C 1702 4192 1696 4192 1606 4192 
C 1357 3916 979 3827 621 3827 
C 602 3827 570 3827 563 3808 
C 557 3795 557 3782 557 3648 
C 755 3648 1088 3686 1344 3839 
L 1344 461 
C 1344 236 1331 160 781 160 
L 589 160 
L 589 0 
C 896 0 1216 0 1523 0 
C 1830 0 2150 0 2458 0 
L 2458 160 
L 2266 160 
C 1715 160 1702 230 1702 458 
L 1702 4058 
z
" transform="scale(0.015625)"/>
       </defs>
       <use xlink:href="#g2f0031_e090bc_CMSY10-0" transform="scale(0.996264)"/>
       <use xlink:href="#g2f0031_e090bc_CMR17-31" transform="translate(77.487468 0) scale(0.996264)"/>
      </g>
     </g>
    </g>
    <g id="g2f0031_e090bc_xtick_7">
     <g id="g2f0031_e090bc_line2d_13">
      <path d="M 260.194892 331.34 
L 260.194892 16.556315 
" clip-path="url(#g2f0031_e090bc_p4844e86bfc)" style="fill: none; stroke-dasharray: 2.96,1.28; stroke-dashoffset: 0; stroke: #b0b0b0; stroke-opacity: 0.6; stroke-width: 0.8"/>
     </g>
     <g id="g2f0031_e090bc_line2d_14">
      <g>
       <use xlink:href="#g2f0031_e090bc_mdae5657cf9" x="260.194892" y="173.948158" style="stroke: #000000; stroke-width: 0.8"/>
      </g>
     </g>
     <g id="g2f0031_e090bc_text_7">
      <!-- $\mathdefault{1}$ -->
      <g transform="translate(255.625844 194.785154) scale(0.2 -0.2)">
       <use xlink:href="#g2f0031_e090bc_CMR17-31" transform="scale(0.996264)"/>
      </g>
     </g>
    </g>
    <g id="g2f0031_e090bc_xtick_8">
     <g id="g2f0031_e090bc_line2d_15">
      <path d="M 294.577334 331.34 
L 294.577334 16.556315 
" clip-path="url(#g2f0031_e090bc_p4844e86bfc)" style="fill: none; stroke-dasharray: 2.96,1.28; stroke-dashoffset: 0; stroke: #b0b0b0; stroke-opacity: 0.6; stroke-width: 0.8"/>
     </g>
     <g id="g2f0031_e090bc_line2d_16">
      <g>
       <use xlink:href="#g2f0031_e090bc_mdae5657cf9" x="294.577334" y="173.948158" style="stroke: #000000; stroke-width: 0.8"/>
      </g>
     </g>
     <g id="g2f0031_e090bc_text_8">
      <!-- $\mathdefault{2}$ -->
      <g transform="translate(290.008287 194.785154) scale(0.2 -0.2)">
       <use xlink:href="#g2f0031_e090bc_CMR17-32" transform="scale(0.996264)"/>
      </g>
     </g>
    </g>
    <g id="g2f0031_e090bc_xtick_9">
     <g id="g2f0031_e090bc_line2d_17">
      <path d="M 328.959777 331.34 
L 328.959777 16.556315 
" clip-path="url(#g2f0031_e090bc_p4844e86bfc)" style="fill: none; stroke-dasharray: 2.96,1.28; stroke-dashoffset: 0; stroke: #b0b0b0; stroke-opacity: 0.6; stroke-width: 0.8"/>
     </g>
     <g id="g2f0031_e090bc_line2d_18">
      <g>
       <use xlink:href="#g2f0031_e090bc_mdae5657cf9" x="328.959777" y="173.948158" style="stroke: #000000; stroke-width: 0.8"/>
      </g>
     </g>
     <g id="g2f0031_e090bc_text_9">
      <!-- $\mathdefault{3}$ -->
      <g transform="translate(324.39073 194.785154) scale(0.2 -0.2)">
       <use xlink:href="#g2f0031_e090bc_CMR17-33" transform="scale(0.996264)"/>
      </g>
     </g>
    </g>
    <g id="g2f0031_e090bc_xtick_10">
     <g id="g2f0031_e090bc_line2d_19">
      <path d="M 363.34222 331.34 
L 363.34222 16.556315 
" clip-path="url(#g2f0031_e090bc_p4844e86bfc)" style="fill: none; stroke-dasharray: 2.96,1.28; stroke-dashoffset: 0; stroke: #b0b0b0; stroke-opacity: 0.6; stroke-width: 0.8"/>
     </g>
     <g id="g2f0031_e090bc_line2d_20">
      <g>
       <use xlink:href="#g2f0031_e090bc_mdae5657cf9" x="363.34222" y="173.948158" style="stroke: #000000; stroke-width: 0.8"/>
      </g>
     </g>
     <g id="g2f0031_e090bc_text_10">
      <!-- $\mathdefault{4}$ -->
      <g transform="translate(358.773172 194.785154) scale(0.2 -0.2)">
       <use xlink:href="#g2f0031_e090bc_CMR17-34" transform="scale(0.996264)"/>
      </g>
     </g>
    </g>
    <g id="g2f0031_e090bc_xtick_11">
     <g id="g2f0031_e090bc_line2d_21">
      <path d="M 397.724663 331.34 
L 397.724663 16.556315 
" clip-path="url(#g2f0031_e090bc_p4844e86bfc)" style="fill: none; stroke-dasharray: 2.96,1.28; stroke-dashoffset: 0; stroke: #b0b0b0; stroke-opacity: 0.6; stroke-width: 0.8"/>
     </g>
     <g id="g2f0031_e090bc_line2d_22">
      <g>
       <use xlink:href="#g2f0031_e090bc_mdae5657cf9" x="397.724663" y="173.948158" style="stroke: #000000; stroke-width: 0.8"/>
      </g>
     </g>
     <g id="g2f0031_e090bc_text_11">
      <!-- $\mathdefault{5}$ -->
      <g transform="translate(393.155615 194.785154) scale(0.2 -0.2)">
       <use xlink:href="#g2f0031_e090bc_CMR17-35" transform="scale(0.996264)"/>
      </g>
     </g>
    </g>
    <g id="g2f0031_e090bc_xtick_12">
     <g id="g2f0031_e090bc_line2d_23">
      <path d="M 432.107106 331.34 
L 432.107106 16.556315 
" clip-path="url(#g2f0031_e090bc_p4844e86bfc)" style="fill: none; stroke-dasharray: 2.96,1.28; stroke-dashoffset: 0; stroke: #b0b0b0; stroke-opacity: 0.6; stroke-width: 0.8"/>
     </g>
     <g id="g2f0031_e090bc_line2d_24">
      <g>
       <use xlink:href="#g2f0031_e090bc_mdae5657cf9" x="432.107106" y="173.948158" style="stroke: #000000; stroke-width: 0.8"/>
      </g>
     </g>
     <g id="g2f0031_e090bc_text_12">
      <!-- $\mathdefault{6}$ -->
      <g transform="translate(427.538058 194.785154) scale(0.2 -0.2)">
       <use xlink:href="#g2f0031_e090bc_CMR17-36" transform="scale(0.996264)"/>
      </g>
     </g>
    </g>
    <g id="g2f0031_e090bc_text_13">
     <!-- $x$ -->
     <g transform="translate(430.647378 216.497785) scale(0.2 -0.2)">
      <defs>
       <path id="g2f0031_e090bc_CMMI12-78" d="M 3034 2606 
C 2829 2567 2752 2414 2752 2293 
C 2752 2139 2874 2088 2963 2088 
C 3155 2088 3290 2254 3290 2427 
C 3290 2695 2982 2816 2714 2816 
C 2323 2816 2106 2433 2048 2312 
C 1901 2816 1504 2816 1389 2816 
C 736 2816 390 1980 390 1839 
C 390 1814 416 1782 461 1782 
C 512 1782 525 1820 538 1846 
C 755 2555 1184 2689 1370 2689 
C 1658 2689 1715 2420 1715 2267 
C 1715 2127 1677 1980 1600 1673 
L 1382 798 
C 1286 415 1101 64 762 64 
C 730 64 570 64 435 147 
C 666 192 717 383 717 460 
C 717 588 621 664 499 664 
C 346 664 179 530 179 326 
C 179 57 480 -64 755 -64 
C 1062 -64 1280 179 1414 441 
C 1517 64 1837 -64 2074 -64 
C 2726 -64 3072 773 3072 913 
C 3072 945 3046 971 3008 971 
C 2950 971 2944 939 2925 888 
C 2752 326 2381 64 2093 64 
C 1869 64 1747 230 1747 492 
C 1747 632 1773 734 1875 1156 
L 2099 2024 
C 2195 2408 2413 2689 2707 2689 
C 2720 2689 2899 2689 3034 2606 
z
" transform="scale(0.015625)"/>
      </defs>
      <use xlink:href="#g2f0031_e090bc_CMMI12-78" transform="scale(0.996264)"/>
     </g>
    </g>
   </g>
   <g id="g2f0031_e090bc_matplotlib.axis_2">
    <g id="g2f0031_e090bc_ytick_1">
     <g id="g2f0031_e090bc_line2d_25">
      <path d="M 9.890707 252.644079 
L 441.73419 252.644079 
" clip-path="url(#g2f0031_e090bc_p4844e86bfc)" style="fill: none; stroke-dasharray: 2.96,1.28; stroke-dashoffset: 0; stroke: #b0b0b0; stroke-opacity: 0.6; stroke-width: 0.8"/>
     </g>
     <g id="g2f0031_e090bc_line2d_26">
      <defs>
       <path id="g2f0031_e090bc_ma762db758a" d="M 0 0 
L -3.5 0 
" style="stroke: #000000; stroke-width: 0.8"/>
      </defs>
      <g>
       <use xlink:href="#g2f0031_e090bc_ma762db758a" x="225.812449" y="252.644079" style="stroke: #000000; stroke-width: 0.8"/>
      </g>
     </g>
     <g id="g2f0031_e090bc_text_14">
      <!-- $\mathdefault{−1}$ -->
      <g transform="translate(194.176866 259.562577) scale(0.2 -0.2)">
       <use xlink:href="#g2f0031_e090bc_CMSY10-0" transform="scale(0.996264)"/>
       <use xlink:href="#g2f0031_e090bc_CMR17-31" transform="translate(77.487468 0) scale(0.996264)"/>
      </g>
     </g>
    </g>
    <g id="g2f0031_e090bc_ytick_2">
     <g id="g2f0031_e090bc_line2d_27">
      <path d="M 9.890707 95.252236 
L 441.73419 95.252236 
" clip-path="url(#g2f0031_e090bc_p4844e86bfc)" style="fill: none; stroke-dasharray: 2.96,1.28; stroke-dashoffset: 0; stroke: #b0b0b0; stroke-opacity: 0.6; stroke-width: 0.8"/>
     </g>
     <g id="g2f0031_e090bc_line2d_28">
      <g>
       <use xlink:href="#g2f0031_e090bc_ma762db758a" x="225.812449" y="95.252236" style="stroke: #000000; stroke-width: 0.8"/>
      </g>
     </g>
     <g id="g2f0031_e090bc_text_15">
      <!-- $\mathdefault{1}$ -->
      <g transform="translate(209.674353 102.170735) scale(0.2 -0.2)">
       <use xlink:href="#g2f0031_e090bc_CMR17-31" transform="scale(0.996264)"/>
      </g>
     </g>
    </g>
    <g id="g2f0031_e090bc_text_16">
     <!-- $y$ -->
     <g transform="translate(180.664031 12.680682) scale(0.2 -0.2)">
      <defs>
       <path id="g2f0031_e090bc_CMMI12-79" d="M 1683 -700 
C 1510 -939 1261 -1152 947 -1152 
C 870 -1152 563 -1152 467 -889 
C 486 -895 518 -895 531 -895 
C 723 -895 851 -729 851 -582 
C 851 -435 730 -384 634 -384 
C 531 -384 307 -458 307 -759 
C 307 -1071 582 -1286 947 -1286 
C 1587 -1286 2234 -700 2413 6 
L 3040 2485 
C 3046 2517 3059 2556 3059 2594 
C 3059 2689 2982 2753 2886 2753 
C 2829 2753 2694 2727 2643 2535 
L 2170 658 
C 2138 543 2138 530 2086 460 
C 1958 281 1747 64 1440 64 
C 1082 64 1050 415 1050 588 
C 1050 952 1222 1443 1395 1903 
C 1466 2088 1504 2178 1504 2305 
C 1504 2574 1312 2816 998 2816 
C 410 2816 173 1890 173 1839 
C 173 1814 198 1782 243 1782 
C 301 1782 307 1807 333 1897 
C 486 2433 730 2689 979 2689 
C 1037 2689 1146 2689 1146 2478 
C 1146 2312 1075 2127 979 1884 
C 666 1047 666 837 666 683 
C 666 77 1101 -64 1421 -64 
C 1606 -64 1837 -6 2061 230 
L 2067 224 
C 1971 -147 1907 -392 1683 -700 
z
" transform="scale(0.015625)"/>
      </defs>
      <use xlink:href="#g2f0031_e090bc_CMMI12-79" transform="scale(0.996264)"/>
     </g>
    </g>
   </g>
   <g id="g2f0031_e090bc_line2d_29">
    <defs>
     <path id="g2f0031_e090bc_m5cada8438e" d="M 3 0 
L -3 -3 
L -3 3 
z
" style="stroke: #000000; stroke-linejoin: miter"/>
    </defs>
    <g>
     <use xlink:href="#g2f0031_e090bc_m5cada8438e" x="441.73419" y="173.948158" style="stroke: #000000; stroke-linejoin: miter"/>
    </g>
   </g>
   <g id="g2f0031_e090bc_line2d_30">
    <defs>
     <path id="g2f0031_e090bc_mfe576aaa59" d="M 0 -3 
L -3 3 
L 3 3 
z
" style="stroke: #000000; stroke-linejoin: miter"/>
    </defs>
    <g>
     <use xlink:href="#g2f0031_e090bc_mfe576aaa59" x="225.812449" y="16.556315" style="stroke: #000000; stroke-linejoin: miter"/>
    </g>
   </g>
   <g id="g2f0031_e090bc_line2d_31">
    <path d="M 9.890707 95.773802 
L 11.157111 95.3507 
L 12.423514 95.261252 
L 13.689917 95.505835 
L 14.95632 96.083412 
L 16.222723 96.991531 
L 17.489126 98.226337 
L 18.75553 99.782588 
L 20.021933 101.653678 
L 21.71047 104.624297 
L 23.399008 108.117946 
L 25.087546 112.108266 
L 27.198217 117.748406 
L 29.308889 124.050831 
L 31.841696 132.382884 
L 34.796637 142.984097 
L 38.173712 155.959623 
L 44.505728 181.429271 
L 49.57134 201.366326 
L 52.948415 213.70753 
L 55.481222 222.19656 
L 58.014028 229.867187 
L 60.1247 235.539868 
L 61.813238 239.558345 
L 63.501775 243.081811 
L 65.190313 246.083683 
L 66.87885 248.541311 
L 68.145253 250.01606 
L 69.411657 251.167895 
L 70.67806 251.991926 
L 71.944463 252.484655 
L 73.210866 252.64399 
L 74.055135 252.564602 
L 75.321538 252.167479 
L 76.587941 251.438308 
L 77.854344 250.380185 
L 79.120748 248.997603 
L 80.387151 247.296429 
L 81.653554 245.283887 
L 83.342092 242.131097 
L 85.030629 238.463885 
L 86.719167 234.309919 
L 88.829839 228.481041 
L 90.940511 222.009521 
L 93.473317 213.503271 
L 96.428258 202.7421 
L 100.227467 187.966597 
L 112.04723 141.204793 
L 115.002171 130.74342 
L 117.534977 122.561485 
L 119.645649 116.403579 
L 121.756321 110.923805 
L 123.444859 107.071925 
L 125.133396 103.724608 
L 126.821934 100.907109 
L 128.088337 99.15462 
L 129.35474 97.719636 
L 130.621143 96.608247 
L 131.887547 95.825173 
L 133.15395 95.373737 
L 134.420353 95.255855 
L 135.686756 95.472029 
L 136.953159 96.02134 
L 138.219562 96.901456 
L 139.485966 98.108642 
L 140.752369 99.637773 
L 142.018772 101.482357 
L 143.70731 104.418785 
L 145.395847 107.879793 
L 147.084385 111.83927 
L 149.195057 117.443735 
L 151.305729 123.714076 
L 153.838535 132.012897 
L 156.793476 142.583303 
L 160.170551 155.53498 
L 166.080432 179.290567 
L 171.146045 199.344932 
L 174.52312 211.841093 
L 177.055926 220.483556 
L 179.588733 228.336671 
L 181.699405 234.181403 
L 183.810077 239.316318 
L 185.498614 242.872218 
L 187.187152 245.908104 
L 188.875689 248.401072 
L 190.142093 249.903035 
L 191.408496 251.082563 
L 192.674899 251.93465 
L 193.941302 252.455678 
L 195.207705 252.643435 
L 196.051974 252.583005 
L 197.318377 252.21424 
L 198.58478 251.51323 
L 199.851184 250.482949 
L 201.117587 249.127773 
L 202.38399 247.453453 
L 203.650393 245.467097 
L 205.338931 242.347995 
L 207.027468 238.712834 
L 208.716006 234.589041 
L 210.826678 228.794892 
L 212.93735 222.354403 
L 215.470156 213.879996 
L 218.425097 203.147867 
L 222.224306 188.395876 
L 234.044069 141.602198 
L 236.99901 131.108898 
L 239.531816 122.892853 
L 241.642488 116.702199 
L 243.75316 111.18616 
L 245.441698 107.303019 
L 247.130235 103.922697 
L 248.818773 101.070699 
L 250.085176 99.291512 
L 251.351579 97.829248 
L 252.617983 96.690114 
L 253.884386 95.878947 
L 255.150789 95.39919 
L 256.417192 95.25288 
L 257.261461 95.340953 
L 258.527864 95.751067 
L 259.794267 96.493133 
L 261.06067 97.564002 
L 262.327074 98.959129 
L 263.593477 100.672589 
L 264.85988 102.69711 
L 266.548417 105.865304 
L 268.236955 109.547164 
L 269.925493 113.714912 
L 272.036165 119.559644 
L 274.146836 126.045315 
L 276.679643 134.566069 
L 279.634584 145.340437 
L 283.433793 160.126562 
L 294.831422 205.313012 
L 297.786362 215.883418 
L 300.319169 224.182239 
L 302.429841 230.45258 
L 304.540513 236.057046 
L 306.22905 240.016522 
L 307.917588 243.47753 
L 309.606125 246.413958 
L 310.872529 248.258542 
L 312.138932 249.787673 
L 313.405335 250.994859 
L 314.671738 251.874975 
L 315.938141 252.424286 
L 317.204544 252.64046 
L 318.048813 252.598988 
L 319.315216 252.258593 
L 320.58162 251.585765 
L 321.848023 250.583359 
L 323.114426 249.25563 
L 324.380829 247.608216 
L 325.647232 245.648108 
L 327.33577 242.562789 
L 329.024307 238.959791 
L 330.712845 234.866297 
L 332.823517 229.107056 
L 334.934189 222.697796 
L 337.466995 214.255493 
L 340.421936 203.552736 
L 344.221145 188.824711 
L 356.463043 140.446028 
L 359.417984 130.046736 
L 361.95079 121.930876 
L 364.061462 115.836255 
L 366.172134 110.426452 
L 367.860671 106.63481 
L 369.549209 103.35103 
L 371.237747 100.599886 
L 372.50415 98.898712 
L 373.770553 97.51613 
L 375.036956 96.458007 
L 376.303359 95.728836 
L 377.569762 95.331713 
L 378.836166 95.268322 
L 380.102569 95.538934 
L 381.368972 96.142399 
L 382.635375 97.076155 
L 383.901778 98.33624 
L 385.168181 99.917303 
L 386.434585 101.812632 
L 388.123122 104.814504 
L 389.81166 108.33797 
L 391.500197 112.356448 
L 393.610869 118.029128 
L 395.721541 124.360785 
L 398.254348 132.723068 
L 401.209288 143.352225 
L 405.008498 158.019413 
L 417.67253 208.025104 
L 420.62747 218.376369 
L 423.160277 226.44134 
L 425.270949 232.487345 
L 427.381621 237.843497 
L 429.070158 241.589015 
L 430.758696 244.824202 
L 432.447233 247.524647 
L 433.713636 249.186645 
L 434.98004 250.52925 
L 436.246443 251.546762 
L 437.512846 252.234862 
L 438.779249 252.590628 
L 440.045652 252.612551 
L 441.312055 252.300538 
L 441.73419 252.122513 
L 441.73419 252.122513 
" clip-path="url(#g2f0031_e090bc_p4844e86bfc)" style="fill: none; stroke: #0072b2; stroke-width: 2.5; stroke-linecap: square"/>
   </g>
   <g id="g2f0031_e090bc_patch_3">
    <path d="M 225.812449 331.34 
L 225.812449 16.556315 
" style="fill: none; stroke: #000000; stroke-width: 0.8; stroke-linejoin: miter; stroke-linecap: square"/>
   </g>
   <g id="g2f0031_e090bc_patch_4">
    <path d="M 441.73419 331.34 
L 441.73419 16.556315 
" style="fill: none"/>
   </g>
   <g id="g2f0031_e090bc_patch_5">
    <path d="M 9.890707 173.948158 
L 441.73419 173.948158 
" style="fill: none; stroke: #000000; stroke-width: 0.8; stroke-linejoin: miter; stroke-linecap: square"/>
   </g>
   <g id="g2f0031_e090bc_patch_6">
    <path d="M 9.890707 16.556315 
L 441.73419 16.556315 
" style="fill: none"/>
   </g>
  </g>
 </g>
 <defs>
  <clipPath id="g2f0031_e090bc_p4844e86bfc">
   <rect x="9.890707" y="16.556315" width="431.843482" height="314.783685"/>
  </clipPath>
 </defs>
</svg>
