<?xml version="1.0" encoding="utf-8" standalone="no"?>
<!DOCTYPE svg PUBLIC "-//W3C//DTD SVG 1.1//EN"
  "http://www.w3.org/Graphics/SVG/1.1/DTD/svg11.dtd">
<svg xmlns:xlink="http://www.w3.org/1999/xlink" width="451.93419pt" height="338.54pt" viewBox="0 0 451.93419 338.54" xmlns="http://www.w3.org/2000/svg" version="1.1">
 <metadata>
  <rdf:RDF xmlns:dc="http://purl.org/dc/elements/1.1/" xmlns:cc="http://creativecommons.org/ns#" xmlns:rdf="http://www.w3.org/1999/02/22-rdf-syntax-ns#">
   <cc:Work>
    <dc:type rdf:resource="http://purl.org/dc/dcmitype/StillImage"/>
    <dc:date>2026-01-22T01:39:04.234001</dc:date>
    <dc:format>image/svg+xml</dc:format>
    <dc:creator>
     <cc:Agent>
      <dc:title>Matplotlib v3.9.1, https://matplotlib.org/</dc:title>
     </cc:Agent>
    </dc:creator>
   </cc:Work>
  </rdf:RDF>
 </metadata>
 <defs>
  <style type="text/css">*{stroke-linejoin: round; stroke-linecap: butt}</style>
 </defs>
 <g id="g2f0028_fd75dd_figure_1">
  <g id="g2f0028_fd75dd_patch_1">
   <path d="M 0 338.54 
L 451.93419 338.54 
L 451.93419 0 
L 0 0 
L 0 338.54 
z
" style="fill: none; opacity: 0"/>
  </g>
  <g id="g2f0028_fd75dd_axes_1">
   <g id="g2f0028_fd75dd_patch_2">
    <path d="M 9.890707 331.34 
L 441.73419 331.34 
L 441.73419 16.556315 
L 9.890707 16.556315 
L 9.890707 331.34 
z
" style="fill: none; opacity: 0"/>
   </g>
   <g id="g2f0028_fd75dd_matplotlib.axis_1">
    <g id="g2f0028_fd75dd_xtick_1">
     <g id="g2f0028_fd75dd_line2d_1">
      <path d="M 19.517791 331.34 
L 19.517791 16.556315 
" clip-path="url(#g2f0028_fd75dd_p8c7bda45b6)" style="fill: none; stroke-dasharray: 2.96,1.28; stroke-dashoffset: 0; stroke: #b0b0b0; stroke-opacity: 0.6; stroke-width: 0.8"/>
     </g>
     <g id="g2f0028_fd75dd_line2d_2">
      <defs>
       <path id="g2f0028_fd75dd_m4acaf2a855" d="M 0 0 
L 0 3.5 
" style="stroke: #000000; stroke-width: 0.8"/>
      </defs>
      <g>
       <use xlink:href="#g2f0028_fd75dd_m4acaf2a855" x="19.517791" y="173.948158" style="stroke: #000000; stroke-width: 0.8"/>
      </g>
     </g>
     <g id="g2f0028_fd75dd_text_1">
      <!-- $\mathdefault{−6}$ -->
      <g transform="translate(7.2 194.785154) scale(0.2 -0.2)">
       <defs>
        <path id="g2f0028_fd75dd_CMSY10-0" d="M 4218 1472 
C 4326 1472 4442 1472 4442 1600 
C 4442 1728 4326 1728 4218 1728 
L 755 1728 
C 646 1728 531 1728 531 1600 
C 531 1472 646 1472 755 1472 
L 4218 1472 
z
" transform="scale(0.015625)"/>
        <path id="g2f0028_fd75dd_CMR17-36" d="M 678 2176 
C 678 3690 1395 4032 1811 4032 
C 1946 4032 2272 4009 2400 3776 
C 2298 3776 2106 3776 2106 3553 
C 2106 3381 2246 3323 2336 3323 
C 2394 3323 2566 3348 2566 3560 
C 2566 3954 2246 4179 1805 4179 
C 1043 4179 243 3390 243 1984 
C 243 253 966 -128 1478 -128 
C 2099 -128 2688 427 2688 1283 
C 2688 2081 2170 2662 1517 2662 
C 1126 2662 838 2407 678 1960 
L 678 2176 
z
M 1478 25 
C 691 25 691 1200 691 1436 
C 691 1896 909 2560 1504 2560 
C 1613 2560 1926 2560 2138 2120 
C 2253 1870 2253 1609 2253 1289 
C 2253 944 2253 690 2118 434 
C 1978 171 1773 25 1478 25 
z
" transform="scale(0.015625)"/>
       </defs>
       <use xlink:href="#g2f0028_fd75dd_CMSY10-0" transform="scale(0.996264)"/>
       <use xlink:href="#g2f0028_fd75dd_CMR17-36" transform="translate(77.487468 0) scale(0.996264)"/>
      </g>
     </g>
    </g>
    <g id="g2f0028_fd75dd_xtick_2">
     <g id="g2f0028_fd75dd_line2d_3">
      <path d="M 53.900234 331.34 
L 53.900234 16.556315 
" clip-path="url(#g2f0028_fd75dd_p8c7bda45b6)" style="fill: none; stroke-dasharray: 2.96,1.28; stroke-dashoffset: 0; stroke: #b0b0b0; stroke-opacity: 0.6; stroke-width: 0.8"/>
     </g>
     <g id="g2f0028_fd75dd_line2d_4">
      <g>
       <use xlink:href="#g2f0028_fd75dd_m4acaf2a855" x="53.900234" y="173.948158" style="stroke: #000000; stroke-width: 0.8"/>
      </g>
     </g>
     <g id="g2f0028_fd75dd_text_2">
      <!-- $\mathdefault{−5}$ -->
      <g transform="translate(41.582443 194.785154) scale(0.2 -0.2)">
       <defs>
        <path id="g2f0028_fd75dd_CMR17-35" d="M 730 3692 
C 794 3666 1056 3584 1325 3584 
C 1920 3584 2246 3911 2432 4100 
C 2432 4157 2432 4192 2394 4192 
C 2387 4192 2374 4192 2323 4163 
C 2099 4058 1837 3973 1517 3973 
C 1325 3973 1037 3999 723 4139 
C 653 4171 640 4171 634 4171 
C 602 4171 595 4164 595 4037 
L 595 2203 
C 595 2089 595 2057 659 2057 
C 691 2057 704 2070 736 2114 
C 941 2401 1222 2522 1542 2522 
C 1766 2522 2246 2382 2246 1289 
C 2246 1085 2246 715 2054 421 
C 1894 159 1645 25 1370 25 
C 947 25 518 320 403 814 
C 429 807 480 795 506 795 
C 589 795 749 840 749 1038 
C 749 1210 627 1280 506 1280 
C 358 1280 262 1190 262 1011 
C 262 454 704 -128 1382 -128 
C 2042 -128 2669 440 2669 1264 
C 2669 2030 2170 2624 1549 2624 
C 1222 2624 947 2503 730 2274 
L 730 3692 
z
" transform="scale(0.015625)"/>
       </defs>
       <use xlink:href="#g2f0028_fd75dd_CMSY10-0" transform="scale(0.996264)"/>
       <use xlink:href="#g2f0028_fd75dd_CMR17-35" transform="translate(77.487468 0) scale(0.996264)"/>
      </g>
     </g>
    </g>
    <g id="g2f0028_fd75dd_xtick_3">
     <g id="g2f0028_fd75dd_line2d_5">
      <path d="M 88.282677 331.34 
L 88.282677 16.556315 
" clip-path="url(#g2f0028_fd75dd_p8c7bda45b6)" style="fill: none; stroke-dasharray: 2.96,1.28; stroke-dashoffset: 0; stroke: #b0b0b0; stroke-opacity: 0.6; stroke-width: 0.8"/>
     </g>
     <g id="g2f0028_fd75dd_line2d_6">
      <g>
       <use xlink:href="#g2f0028_fd75dd_m4acaf2a855" x="88.282677" y="173.948158" style="stroke: #000000; stroke-width: 0.8"/>
      </g>
     </g>
     <g id="g2f0028_fd75dd_text_3">
      <!-- $\mathdefault{−4}$ -->
      <g transform="translate(75.964886 194.785154) scale(0.2 -0.2)">
       <defs>
        <path id="g2f0028_fd75dd_CMR17-34" d="M 2150 4122 
C 2150 4256 2144 4256 2029 4256 
L 128 1254 
L 128 1088 
L 1779 1088 
L 1779 457 
C 1779 224 1766 160 1318 160 
L 1197 160 
L 1197 0 
C 1402 0 1747 0 1965 0 
C 2182 0 2528 0 2733 0 
L 2733 160 
L 2611 160 
C 2163 160 2150 224 2150 457 
L 2150 1088 
L 2803 1088 
L 2803 1254 
L 2150 1254 
L 2150 4122 
z
M 1798 3703 
L 1798 1254 
L 256 1254 
L 1798 3703 
z
" transform="scale(0.015625)"/>
       </defs>
       <use xlink:href="#g2f0028_fd75dd_CMSY10-0" transform="scale(0.996264)"/>
       <use xlink:href="#g2f0028_fd75dd_CMR17-34" transform="translate(77.487468 0) scale(0.996264)"/>
      </g>
     </g>
    </g>
    <g id="g2f0028_fd75dd_xtick_4">
     <g id="g2f0028_fd75dd_line2d_7">
      <path d="M 122.66512 331.34 
L 122.66512 16.556315 
" clip-path="url(#g2f0028_fd75dd_p8c7bda45b6)" style="fill: none; stroke-dasharray: 2.96,1.28; stroke-dashoffset: 0; stroke: #b0b0b0; stroke-opacity: 0.6; stroke-width: 0.8"/>
     </g>
     <g id="g2f0028_fd75dd_line2d_8">
      <g>
       <use xlink:href="#g2f0028_fd75dd_m4acaf2a855" x="122.66512" y="173.948158" style="stroke: #000000; stroke-width: 0.8"/>
      </g>
     </g>
     <g id="g2f0028_fd75dd_text_4">
      <!-- $\mathdefault{−3}$ -->
      <g transform="translate(110.347329 194.785154) scale(0.2 -0.2)">
       <defs>
        <path id="g2f0028_fd75dd_CMR17-33" d="M 1414 2157 
C 1984 2157 2234 1662 2234 1090 
C 2234 320 1824 25 1453 25 
C 1114 25 563 194 390 693 
C 422 680 454 680 486 680 
C 640 680 755 782 755 948 
C 755 1133 614 1216 486 1216 
C 378 1216 211 1165 211 926 
C 211 335 787 -128 1466 -128 
C 2176 -128 2720 430 2720 1085 
C 2720 1707 2208 2157 1600 2227 
C 2086 2328 2554 2756 2554 3329 
C 2554 3820 2048 4179 1472 4179 
C 890 4179 378 3829 378 3329 
C 378 3110 544 3072 627 3072 
C 762 3072 877 3155 877 3321 
C 877 3486 762 3569 627 3569 
C 602 3569 570 3569 544 3557 
C 730 3959 1235 4032 1459 4032 
C 1683 4032 2106 3925 2106 3320 
C 2106 3143 2080 2828 1862 2550 
C 1670 2304 1453 2304 1242 2284 
C 1210 2284 1062 2269 1037 2269 
C 992 2263 966 2257 966 2208 
C 966 2163 973 2157 1101 2157 
L 1414 2157 
z
" transform="scale(0.015625)"/>
       </defs>
       <use xlink:href="#g2f0028_fd75dd_CMSY10-0" transform="scale(0.996264)"/>
       <use xlink:href="#g2f0028_fd75dd_CMR17-33" transform="translate(77.487468 0) scale(0.996264)"/>
      </g>
     </g>
    </g>
    <g id="g2f0028_fd75dd_xtick_5">
     <g id="g2f0028_fd75dd_line2d_9">
      <path d="M 157.047563 331.34 
L 157.047563 16.556315 
" clip-path="url(#g2f0028_fd75dd_p8c7bda45b6)" style="fill: none; stroke-dasharray: 2.96,1.28; stroke-dashoffset: 0; stroke: #b0b0b0; stroke-opacity: 0.6; stroke-width: 0.8"/>
     </g>
     <g id="g2f0028_fd75dd_line2d_10">
      <g>
       <use xlink:href="#g2f0028_fd75dd_m4acaf2a855" x="157.047563" y="173.948158" style="stroke: #000000; stroke-width: 0.8"/>
      </g>
     </g>
     <g id="g2f0028_fd75dd_text_5">
      <!-- $\mathdefault{−2}$ -->
      <g transform="translate(144.729771 194.785154) scale(0.2 -0.2)">
       <defs>
        <path id="g2f0028_fd75dd_CMR17-32" d="M 2669 989 
L 2554 989 
C 2490 536 2438 459 2413 420 
C 2381 369 1920 369 1830 369 
L 602 369 
C 832 619 1280 1072 1824 1597 
C 2214 1967 2669 2402 2669 3035 
C 2669 3790 2067 4224 1395 4224 
C 691 4224 262 3604 262 3030 
C 262 2780 448 2748 525 2748 
C 589 2748 781 2787 781 3010 
C 781 3207 614 3264 525 3264 
C 486 3264 448 3258 422 3245 
C 544 3790 915 4058 1306 4058 
C 1862 4058 2227 3617 2227 3035 
C 2227 2479 1901 2000 1536 1584 
L 262 146 
L 262 0 
L 2515 0 
L 2669 989 
z
" transform="scale(0.015625)"/>
       </defs>
       <use xlink:href="#g2f0028_fd75dd_CMSY10-0" transform="scale(0.996264)"/>
       <use xlink:href="#g2f0028_fd75dd_CMR17-32" transform="translate(77.487468 0) scale(0.996264)"/>
      </g>
     </g>
    </g>
    <g id="g2f0028_fd75dd_xtick_6">
     <g id="g2f0028_fd75dd_line2d_11">
      <path d="M 191.430006 331.34 
L 191.430006 16.556315 
" clip-path="url(#g2f0028_fd75dd_p8c7bda45b6)" style="fill: none; stroke-dasharray: 2.96,1.28; stroke-dashoffset: 0; stroke: #b0b0b0; stroke-opacity: 0.6; stroke-width: 0.8"/>
     </g>
     <g id="g2f0028_fd75dd_line2d_12">
      <g>
       <use xlink:href="#g2f0028_fd75dd_m4acaf2a855" x="191.430006" y="173.948158" style="stroke: #000000; stroke-width: 0.8"/>
      </g>
     </g>
     <g id="g2f0028_fd75dd_text_6">
      <!-- $\mathdefault{−1}$ -->
      <g transform="translate(179.112214 194.785154) scale(0.2 -0.2)">
       <defs>
        <path id="g2f0028_fd75dd_CMR17-31" d="M 1702 4058 
C 1702 4192 1696 4192 1606 4192 
C 1357 3916 979 3827 621 3827 
C 602 3827 570 3827 563 3808 
C 557 3795 557 3782 557 3648 
C 755 3648 1088 3686 1344 3839 
L 1344 461 
C 1344 236 1331 160 781 160 
L 589 160 
L 589 0 
C 896 0 1216 0 1523 0 
C 1830 0 2150 0 2458 0 
L 2458 160 
L 2266 160 
C 1715 160 1702 230 1702 458 
L 1702 4058 
z
" transform="scale(0.015625)"/>
       </defs>
       <use xlink:href="#g2f0028_fd75dd_CMSY10-0" transform="scale(0.996264)"/>
       <use xlink:href="#g2f0028_fd75dd_CMR17-31" transform="translate(77.487468 0) scale(0.996264)"/>
      </g>
     </g>
    </g>
    <g id="g2f0028_fd75dd_xtick_7">
     <g id="g2f0028_fd75dd_line2d_13">
      <path d="M 260.194892 331.34 
L 260.194892 16.556315 
" clip-path="url(#g2f0028_fd75dd_p8c7bda45b6)" style="fill: none; stroke-dasharray: 2.96,1.28; stroke-dashoffset: 0; stroke: #b0b0b0; stroke-opacity: 0.6; stroke-width: 0.8"/>
     </g>
     <g id="g2f0028_fd75dd_line2d_14">
      <g>
       <use xlink:href="#g2f0028_fd75dd_m4acaf2a855" x="260.194892" y="173.948158" style="stroke: #000000; stroke-width: 0.8"/>
      </g>
     </g>
     <g id="g2f0028_fd75dd_text_7">
      <!-- $\mathdefault{1}$ -->
      <g transform="translate(255.625844 194.785154) scale(0.2 -0.2)">
       <use xlink:href="#g2f0028_fd75dd_CMR17-31" transform="scale(0.996264)"/>
      </g>
     </g>
    </g>
    <g id="g2f0028_fd75dd_xtick_8">
     <g id="g2f0028_fd75dd_line2d_15">
      <path d="M 294.577334 331.34 
L 294.577334 16.556315 
" clip-path="url(#g2f0028_fd75dd_p8c7bda45b6)" style="fill: none; stroke-dasharray: 2.96,1.28; stroke-dashoffset: 0; stroke: #b0b0b0; stroke-opacity: 0.6; stroke-width: 0.8"/>
     </g>
     <g id="g2f0028_fd75dd_line2d_16">
      <g>
       <use xlink:href="#g2f0028_fd75dd_m4acaf2a855" x="294.577334" y="173.948158" style="stroke: #000000; stroke-width: 0.8"/>
      </g>
     </g>
     <g id="g2f0028_fd75dd_text_8">
      <!-- $\mathdefault{2}$ -->
      <g transform="translate(290.008287 194.785154) scale(0.2 -0.2)">
       <use xlink:href="#g2f0028_fd75dd_CMR17-32" transform="scale(0.996264)"/>
      </g>
     </g>
    </g>
    <g id="g2f0028_fd75dd_xtick_9">
     <g id="g2f0028_fd75dd_line2d_17">
      <path d="M 328.959777 331.34 
L 328.959777 16.556315 
" clip-path="url(#g2f0028_fd75dd_p8c7bda45b6)" style="fill: none; stroke-dasharray: 2.96,1.28; stroke-dashoffset: 0; stroke: #b0b0b0; stroke-opacity: 0.6; stroke-width: 0.8"/>
     </g>
     <g id="g2f0028_fd75dd_line2d_18">
      <g>
       <use xlink:href="#g2f0028_fd75dd_m4acaf2a855" x="328.959777" y="173.948158" style="stroke: #000000; stroke-width: 0.8"/>
      </g>
     </g>
     <g id="g2f0028_fd75dd_text_9">
      <!-- $\mathdefault{3}$ -->
      <g transform="translate(324.39073 194.785154) scale(0.2 -0.2)">
       <use xlink:href="#g2f0028_fd75dd_CMR17-33" transform="scale(0.996264)"/>
      </g>
     </g>
    </g>
    <g id="g2f0028_fd75dd_xtick_10">
     <g id="g2f0028_fd75dd_line2d_19">
      <path d="M 363.34222 331.34 
L 363.34222 16.556315 
" clip-path="url(#g2f0028_fd75dd_p8c7bda45b6)" style="fill: none; stroke-dasharray: 2.96,1.28; stroke-dashoffset: 0; stroke: #b0b0b0; stroke-opacity: 0.6; stroke-width: 0.8"/>
     </g>
     <g id="g2f0028_fd75dd_line2d_20">
      <g>
       <use xlink:href="#g2f0028_fd75dd_m4acaf2a855" x="363.34222" y="173.948158" style="stroke: #000000; stroke-width: 0.8"/>
      </g>
     </g>
     <g id="g2f0028_fd75dd_text_10">
      <!-- $\mathdefault{4}$ -->
      <g transform="translate(358.773172 194.785154) scale(0.2 -0.2)">
       <use xlink:href="#g2f0028_fd75dd_CMR17-34" transform="scale(0.996264)"/>
      </g>
     </g>
    </g>
    <g id="g2f0028_fd75dd_xtick_11">
     <g id="g2f0028_fd75dd_line2d_21">
      <path d="M 397.724663 331.34 
L 397.724663 16.556315 
" clip-path="url(#g2f0028_fd75dd_p8c7bda45b6)" style="fill: none; stroke-dasharray: 2.96,1.28; stroke-dashoffset: 0; stroke: #b0b0b0; stroke-opacity: 0.6; stroke-width: 0.8"/>
     </g>
     <g id="g2f0028_fd75dd_line2d_22">
      <g>
       <use xlink:href="#g2f0028_fd75dd_m4acaf2a855" x="397.724663" y="173.948158" style="stroke: #000000; stroke-width: 0.8"/>
      </g>
     </g>
     <g id="g2f0028_fd75dd_text_11">
      <!-- $\mathdefault{5}$ -->
      <g transform="translate(393.155615 194.785154) scale(0.2 -0.2)">
       <use xlink:href="#g2f0028_fd75dd_CMR17-35" transform="scale(0.996264)"/>
      </g>
     </g>
    </g>
    <g id="g2f0028_fd75dd_xtick_12">
     <g id="g2f0028_fd75dd_line2d_23">
      <path d="M 432.107106 331.34 
L 432.107106 16.556315 
" clip-path="url(#g2f0028_fd75dd_p8c7bda45b6)" style="fill: none; stroke-dasharray: 2.96,1.28; stroke-dashoffset: 0; stroke: #b0b0b0; stroke-opacity: 0.6; stroke-width: 0.8"/>
     </g>
     <g id="g2f0028_fd75dd_line2d_24">
      <g>
       <use xlink:href="#g2f0028_fd75dd_m4acaf2a855" x="432.107106" y="173.948158" style="stroke: #000000; stroke-width: 0.8"/>
      </g>
     </g>
     <g id="g2f0028_fd75dd_text_12">
      <!-- $\mathdefault{6}$ -->
      <g transform="translate(427.538058 194.785154) scale(0.2 -0.2)">
       <use xlink:href="#g2f0028_fd75dd_CMR17-36" transform="scale(0.996264)"/>
      </g>
     </g>
    </g>
    <g id="g2f0028_fd75dd_text_13">
     <!-- $x$ -->
     <g transform="translate(430.647378 216.497785) scale(0.2 -0.2)">
      <defs>
       <path id="g2f0028_fd75dd_CMMI12-78" d="M 3034 2606 
C 2829 2567 2752 2414 2752 2293 
C 2752 2139 2874 2088 2963 2088 
C 3155 2088 3290 2254 3290 2427 
C 3290 2695 2982 2816 2714 2816 
C 2323 2816 2106 2433 2048 2312 
C 1901 2816 1504 2816 1389 2816 
C 736 2816 390 1980 390 1839 
C 390 1814 416 1782 461 1782 
C 512 1782 525 1820 538 1846 
C 755 2555 1184 2689 1370 2689 
C 1658 2689 1715 2420 1715 2267 
C 1715 2127 1677 1980 1600 1673 
L 1382 798 
C 1286 415 1101 64 762 64 
C 730 64 570 64 435 147 
C 666 192 717 383 717 460 
C 717 588 621 664 499 664 
C 346 664 179 530 179 326 
C 179 57 480 -64 755 -64 
C 1062 -64 1280 179 1414 441 
C 1517 64 1837 -64 2074 -64 
C 2726 -64 3072 773 3072 913 
C 3072 945 3046 971 3008 971 
C 2950 971 2944 939 2925 888 
C 2752 326 2381 64 2093 64 
C 1869 64 1747 230 1747 492 
C 1747 632 1773 734 1875 1156 
L 2099 2024 
C 2195 2408 2413 2689 2707 2689 
C 2720 2689 2899 2689 3034 2606 
z
" transform="scale(0.015625)"/>
      </defs>
      <use xlink:href="#g2f0028_fd75dd_CMMI12-78" transform="scale(0.996264)"/>
     </g>
    </g>
   </g>
   <g id="g2f0028_fd75dd_matplotlib.axis_2">
    <g id="g2f0028_fd75dd_ytick_1">
     <g id="g2f0028_fd75dd_line2d_25">
      <path d="M 9.890707 252.644079 
L 441.73419 252.644079 
" clip-path="url(#g2f0028_fd75dd_p8c7bda45b6)" style="fill: none; stroke-dasharray: 2.96,1.28; stroke-dashoffset: 0; stroke: #b0b0b0; stroke-opacity: 0.6; stroke-width: 0.8"/>
     </g>
     <g id="g2f0028_fd75dd_line2d_26">
      <defs>
       <path id="g2f0028_fd75dd_mbee6010056" d="M 0 0 
L -3.5 0 
" style="stroke: #000000; stroke-width: 0.8"/>
      </defs>
      <g>
       <use xlink:href="#g2f0028_fd75dd_mbee6010056" x="225.812449" y="252.644079" style="stroke: #000000; stroke-width: 0.8"/>
      </g>
     </g>
     <g id="g2f0028_fd75dd_text_14">
      <!-- $\mathdefault{−1}$ -->
      <g transform="translate(194.176866 259.562577) scale(0.2 -0.2)">
       <use xlink:href="#g2f0028_fd75dd_CMSY10-0" transform="scale(0.996264)"/>
       <use xlink:href="#g2f0028_fd75dd_CMR17-31" transform="translate(77.487468 0) scale(0.996264)"/>
      </g>
     </g>
    </g>
    <g id="g2f0028_fd75dd_ytick_2">
     <g id="g2f0028_fd75dd_line2d_27">
      <path d="M 9.890707 95.252236 
L 441.73419 95.252236 
" clip-path="url(#g2f0028_fd75dd_p8c7bda45b6)" style="fill: none; stroke-dasharray: 2.96,1.28; stroke-dashoffset: 0; stroke: #b0b0b0; stroke-opacity: 0.6; stroke-width: 0.8"/>
     </g>
     <g id="g2f0028_fd75dd_line2d_28">
      <g>
       <use xlink:href="#g2f0028_fd75dd_mbee6010056" x="225.812449" y="95.252236" style="stroke: #000000; stroke-width: 0.8"/>
      </g>
     </g>
     <g id="g2f0028_fd75dd_text_15">
      <!-- $\mathdefault{1}$ -->
      <g transform="translate(209.674353 102.170735) scale(0.2 -0.2)">
       <use xlink:href="#g2f0028_fd75dd_CMR17-31" transform="scale(0.996264)"/>
      </g>
     </g>
    </g>
    <g id="g2f0028_fd75dd_text_16">
     <!-- $y$ -->
     <g transform="translate(180.664031 12.680682) scale(0.2 -0.2)">
      <defs>
       <path id="g2f0028_fd75dd_CMMI12-79" d="M 1683 -700 
C 1510 -939 1261 -1152 947 -1152 
C 870 -1152 563 -1152 467 -889 
C 486 -895 518 -895 531 -895 
C 723 -895 851 -729 851 -582 
C 851 -435 730 -384 634 -384 
C 531 -384 307 -458 307 -759 
C 307 -1071 582 -1286 947 -1286 
C 1587 -1286 2234 -700 2413 6 
L 3040 2485 
C 3046 2517 3059 2556 3059 2594 
C 3059 2689 2982 2753 2886 2753 
C 2829 2753 2694 2727 2643 2535 
L 2170 658 
C 2138 543 2138 530 2086 460 
C 1958 281 1747 64 1440 64 
C 1082 64 1050 415 1050 588 
C 1050 952 1222 1443 1395 1903 
C 1466 2088 1504 2178 1504 2305 
C 1504 2574 1312 2816 998 2816 
C 410 2816 173 1890 173 1839 
C 173 1814 198 1782 243 1782 
C 301 1782 307 1807 333 1897 
C 486 2433 730 2689 979 2689 
C 1037 2689 1146 2689 1146 2478 
C 1146 2312 1075 2127 979 1884 
C 666 1047 666 837 666 683 
C 666 77 1101 -64 1421 -64 
C 1606 -64 1837 -6 2061 230 
L 2067 224 
C 1971 -147 1907 -392 1683 -700 
z
" transform="scale(0.015625)"/>
      </defs>
      <use xlink:href="#g2f0028_fd75dd_CMMI12-79" transform="scale(0.996264)"/>
     </g>
    </g>
   </g>
   <g id="g2f0028_fd75dd_line2d_29">
    <defs>
     <path id="g2f0028_fd75dd_mbe1e33c76f" d="M 3 0 
L -3 -3 
L -3 3 
z
" style="stroke: #000000; stroke-linejoin: miter"/>
    </defs>
    <g>
     <use xlink:href="#g2f0028_fd75dd_mbe1e33c76f" x="441.73419" y="173.948158" style="stroke: #000000; stroke-linejoin: miter"/>
    </g>
   </g>
   <g id="g2f0028_fd75dd_line2d_30">
    <defs>
     <path id="g2f0028_fd75dd_m1fe80e2c17" d="M 0 -3 
L -3 3 
L 3 3 
z
" style="stroke: #000000; stroke-linejoin: miter"/>
    </defs>
    <g>
     <use xlink:href="#g2f0028_fd75dd_m1fe80e2c17" x="225.812449" y="16.556315" style="stroke: #000000; stroke-linejoin: miter"/>
    </g>
   </g>
   <g id="g2f0028_fd75dd_line2d_31">
    <path d="M 9.890707 247.645723 
L 11.579245 249.265038 
L 13.267783 250.573824 
L 14.95632 251.566685 
L 16.644858 252.239528 
L 17.911261 252.532429 
L 19.177664 252.643052 
L 20.444067 252.571141 
L 21.71047 252.316863 
L 22.976874 251.880807 
L 24.665411 251.018442 
L 26.353949 249.838319 
L 28.042486 248.345304 
L 29.731024 246.545552 
L 31.419561 244.446483 
L 33.530233 241.415031 
L 35.640905 237.949033 
L 37.751577 234.070813 
L 40.284384 228.908162 
L 42.81719 223.235885 
L 45.772131 216.044526 
L 49.149206 207.181042 
L 52.948415 196.562821 
L 58.014028 181.711716 
L 68.989522 149.295747 
L 72.788732 138.791157 
L 76.165807 130.062439 
L 79.120748 123.013272 
L 81.653554 117.479489 
L 84.18636 112.469323 
L 86.297032 108.727843 
L 88.407704 105.406439 
L 90.518376 102.526506 
L 92.206914 100.552981 
L 93.895451 98.882061 
L 95.583989 97.520637 
L 97.272526 96.474321 
L 98.961064 95.747427 
L 100.227467 95.41373 
L 101.49387 95.262195 
L 102.760274 95.293174 
L 104.026677 95.506594 
L 105.29308 95.901961 
L 106.559483 96.478357 
L 108.248021 97.526116 
L 109.936558 98.888961 
L 111.625096 100.561272 
L 113.313633 102.536155 
L 115.002171 104.805467 
L 117.112843 108.041782 
L 119.223515 111.702593 
L 121.756321 116.622518 
L 124.289128 122.074006 
L 127.244068 129.03822 
L 130.199009 136.569091 
L 133.998219 146.930654 
L 138.641697 160.336803 
L 153.838535 204.894824 
L 157.637744 214.991226 
L 160.592685 222.262722 
L 163.547626 228.924602 
L 166.080432 234.085633 
L 168.613239 238.689027 
L 170.723911 242.068257 
L 172.834583 245.008732 
L 174.52312 247.032384 
L 176.211658 248.754712 
L 177.900195 250.168616 
L 179.588733 251.268265 
L 181.27727 252.049125 
L 182.543674 252.423579 
L 183.810077 252.616008 
L 185.07648 252.625966 
L 186.342883 252.453429 
L 187.609286 252.098797 
L 188.875689 251.562894 
L 190.564227 250.568587 
L 192.252765 249.258376 
L 193.941302 247.637663 
L 195.62984 245.713132 
L 197.318377 243.492715 
L 199.429049 240.315167 
L 201.539721 236.710156 
L 203.650393 232.700901 
L 206.183199 227.392728 
L 208.716006 221.588979 
L 211.670947 214.263617 
L 215.048022 205.274587 
L 219.269366 193.330736 
L 225.179247 175.843209 
L 233.621935 150.915777 
L 237.843279 139.182196 
L 241.220354 130.425419 
L 244.175295 123.346776 
L 246.708101 117.784364 
L 249.240907 112.742742 
L 251.351579 108.973097 
L 253.462251 105.621951 
L 255.572923 102.710886 
L 257.261461 100.71159 
L 258.949998 99.014247 
L 260.638536 97.625854 
L 262.327074 96.552136 
L 264.015611 95.797518 
L 265.282014 95.442887 
L 266.548417 95.27035 
L 267.814821 95.280307 
L 269.081224 95.472736 
L 270.347627 95.84719 
L 271.61403 96.402801 
L 273.302568 97.423127 
L 274.991105 98.758962 
L 276.679643 100.404801 
L 278.36818 102.353856 
L 280.056718 104.598092 
L 282.16739 107.804277 
L 284.278062 111.436487 
L 286.388734 115.471328 
L 288.92154 120.807845 
L 291.454347 126.637117 
L 294.409287 133.988376 
L 297.786362 143.001491 
L 302.007706 154.966613 
L 308.339722 173.729919 
L 315.938141 196.166446 
L 320.159485 207.949564 
L 323.53656 216.760208 
L 326.491501 223.895625 
L 329.024307 229.513298 
L 331.557114 234.615732 
L 333.667786 238.439887 
L 335.778458 241.848659 
L 337.88913 244.82009 
L 339.577667 246.869392 
L 341.266205 248.618041 
L 342.954742 250.05883 
L 344.64328 251.185816 
L 346.331817 251.994354 
L 347.598221 252.389721 
L 348.864624 252.603141 
L 350.131027 252.63412 
L 351.39743 252.482585 
L 352.663833 252.148888 
L 353.930236 251.633803 
L 355.618774 250.666989 
L 357.307312 249.383866 
L 358.995849 247.789724 
L 360.684387 245.891136 
L 362.372924 243.69593 
L 364.483596 240.548703 
L 366.594268 236.97251 
L 368.70494 232.990384 
L 371.237747 227.712288 
L 373.770553 221.935654 
L 376.725494 214.637847 
L 380.102569 205.674509 
L 384.323913 193.753468 
L 390.233794 176.279529 
L 398.676482 151.333494 
L 402.897826 139.574304 
L 406.274901 130.789738 
L 409.229842 123.681837 
L 411.762648 118.090966 
L 414.295454 113.018042 
L 416.406126 109.220351 
L 418.516798 105.839564 
L 420.62747 102.897457 
L 422.316008 100.872453 
L 424.004545 99.148738 
L 425.693083 97.733419 
L 427.381621 96.632331 
L 429.070158 95.850013 
L 430.336561 95.474458 
L 431.602964 95.280924 
L 432.869368 95.26986 
L 434.135771 95.441292 
L 435.402174 95.794822 
L 436.668577 96.32963 
L 438.357115 97.322491 
L 440.045652 98.631277 
L 441.73419 100.250592 
L 441.73419 100.250592 
" clip-path="url(#g2f0028_fd75dd_p8c7bda45b6)" style="fill: none; stroke: #0072b2; stroke-width: 2.5; stroke-linecap: square"/>
   </g>
   <g id="g2f0028_fd75dd_patch_3">
    <path d="M 225.812449 331.34 
L 225.812449 16.556315 
" style="fill: none; stroke: #000000; stroke-width: 0.8; stroke-linejoin: miter; stroke-linecap: square"/>
   </g>
   <g id="g2f0028_fd75dd_patch_4">
    <path d="M 441.73419 331.34 
L 441.73419 16.556315 
" style="fill: none"/>
   </g>
   <g id="g2f0028_fd75dd_patch_5">
    <path d="M 9.890707 173.948158 
L 441.73419 173.948158 
" style="fill: none; stroke: #000000; stroke-width: 0.8; stroke-linejoin: miter; stroke-linecap: square"/>
   </g>
   <g id="g2f0028_fd75dd_patch_6">
    <path d="M 9.890707 16.556315 
L 441.73419 16.556315 
" style="fill: none"/>
   </g>
  </g>
 </g>
 <defs>
  <clipPath id="g2f0028_fd75dd_p8c7bda45b6">
   <rect x="9.890707" y="16.556315" width="431.843482" height="314.783685"/>
  </clipPath>
 </defs>
</svg>
