<?xml version="1.0" encoding="utf-8" standalone="no"?>
<!DOCTYPE svg PUBLIC "-//W3C//DTD SVG 1.1//EN"
  "http://www.w3.org/Graphics/SVG/1.1/DTD/svg11.dtd">
<svg xmlns:xlink="http://www.w3.org/1999/xlink" width="451.93419pt" height="338.54pt" viewBox="0 0 451.93419 338.54" xmlns="http://www.w3.org/2000/svg" version="1.1">
 <metadata>
  <rdf:RDF xmlns:dc="http://purl.org/dc/elements/1.1/" xmlns:cc="http://creativecommons.org/ns#" xmlns:rdf="http://www.w3.org/1999/02/22-rdf-syntax-ns#">
   <cc:Work>
    <dc:type rdf:resource="http://purl.org/dc/dcmitype/StillImage"/>
    <dc:date>2026-01-22T01:39:03.352739</dc:date>
    <dc:format>image/svg+xml</dc:format>
    <dc:creator>
     <cc:Agent>
      <dc:title>Matplotlib v3.9.1, https://matplotlib.org/</dc:title>
     </cc:Agent>
    </dc:creator>
   </cc:Work>
  </rdf:RDF>
 </metadata>
 <defs>
  <style type="text/css">*{stroke-linejoin: round; stroke-linecap: butt}</style>
 </defs>
 <g id="g2f0007_f05198_figure_1">
  <g id="g2f0007_f05198_patch_1">
   <path d="M 0 338.54 
L 451.93419 338.54 
L 451.93419 0 
L 0 0 
L 0 338.54 
z
" style="fill: none; opacity: 0"/>
  </g>
  <g id="g2f0007_f05198_axes_1">
   <g id="g2f0007_f05198_patch_2">
    <path d="M 9.890707 331.34 
L 441.73419 331.34 
L 441.73419 16.556315 
L 9.890707 16.556315 
L 9.890707 331.34 
z
" style="fill: none; opacity: 0"/>
   </g>
   <g id="g2f0007_f05198_matplotlib.axis_1">
    <g id="g2f0007_f05198_xtick_1">
     <g id="g2f0007_f05198_line2d_1">
      <path d="M 19.517791 331.34 
L 19.517791 16.556315 
" clip-path="url(#g2f0007_f05198_pc2928b1fb4)" style="fill: none; stroke-dasharray: 2.96,1.28; stroke-dashoffset: 0; stroke: #b0b0b0; stroke-opacity: 0.6; stroke-width: 0.8"/>
     </g>
     <g id="g2f0007_f05198_line2d_2">
      <defs>
       <path id="g2f0007_f05198_md9c91e0636" d="M 0 0 
L 0 3.5 
" style="stroke: #000000; stroke-width: 0.8"/>
      </defs>
      <g>
       <use xlink:href="#g2f0007_f05198_md9c91e0636" x="19.517791" y="173.948158" style="stroke: #000000; stroke-width: 0.8"/>
      </g>
     </g>
     <g id="g2f0007_f05198_text_1">
      <!-- $\mathdefault{−6}$ -->
      <g transform="translate(7.2 194.785154) scale(0.2 -0.2)">
       <defs>
        <path id="g2f0007_f05198_CMSY10-0" d="M 4218 1472 
C 4326 1472 4442 1472 4442 1600 
C 4442 1728 4326 1728 4218 1728 
L 755 1728 
C 646 1728 531 1728 531 1600 
C 531 1472 646 1472 755 1472 
L 4218 1472 
z
" transform="scale(0.015625)"/>
        <path id="g2f0007_f05198_CMR17-36" d="M 678 2176 
C 678 3690 1395 4032 1811 4032 
C 1946 4032 2272 4009 2400 3776 
C 2298 3776 2106 3776 2106 3553 
C 2106 3381 2246 3323 2336 3323 
C 2394 3323 2566 3348 2566 3560 
C 2566 3954 2246 4179 1805 4179 
C 1043 4179 243 3390 243 1984 
C 243 253 966 -128 1478 -128 
C 2099 -128 2688 427 2688 1283 
C 2688 2081 2170 2662 1517 2662 
C 1126 2662 838 2407 678 1960 
L 678 2176 
z
M 1478 25 
C 691 25 691 1200 691 1436 
C 691 1896 909 2560 1504 2560 
C 1613 2560 1926 2560 2138 2120 
C 2253 1870 2253 1609 2253 1289 
C 2253 944 2253 690 2118 434 
C 1978 171 1773 25 1478 25 
z
" transform="scale(0.015625)"/>
       </defs>
       <use xlink:href="#g2f0007_f05198_CMSY10-0" transform="scale(0.996264)"/>
       <use xlink:href="#g2f0007_f05198_CMR17-36" transform="translate(77.487468 0) scale(0.996264)"/>
      </g>
     </g>
    </g>
    <g id="g2f0007_f05198_xtick_2">
     <g id="g2f0007_f05198_line2d_3">
      <path d="M 53.900234 331.34 
L 53.900234 16.556315 
" clip-path="url(#g2f0007_f05198_pc2928b1fb4)" style="fill: none; stroke-dasharray: 2.96,1.28; stroke-dashoffset: 0; stroke: #b0b0b0; stroke-opacity: 0.6; stroke-width: 0.8"/>
     </g>
     <g id="g2f0007_f05198_line2d_4">
      <g>
       <use xlink:href="#g2f0007_f05198_md9c91e0636" x="53.900234" y="173.948158" style="stroke: #000000; stroke-width: 0.8"/>
      </g>
     </g>
     <g id="g2f0007_f05198_text_2">
      <!-- $\mathdefault{−5}$ -->
      <g transform="translate(41.582443 194.785154) scale(0.2 -0.2)">
       <defs>
        <path id="g2f0007_f05198_CMR17-35" d="M 730 3692 
C 794 3666 1056 3584 1325 3584 
C 1920 3584 2246 3911 2432 4100 
C 2432 4157 2432 4192 2394 4192 
C 2387 4192 2374 4192 2323 4163 
C 2099 4058 1837 3973 1517 3973 
C 1325 3973 1037 3999 723 4139 
C 653 4171 640 4171 634 4171 
C 602 4171 595 4164 595 4037 
L 595 2203 
C 595 2089 595 2057 659 2057 
C 691 2057 704 2070 736 2114 
C 941 2401 1222 2522 1542 2522 
C 1766 2522 2246 2382 2246 1289 
C 2246 1085 2246 715 2054 421 
C 1894 159 1645 25 1370 25 
C 947 25 518 320 403 814 
C 429 807 480 795 506 795 
C 589 795 749 840 749 1038 
C 749 1210 627 1280 506 1280 
C 358 1280 262 1190 262 1011 
C 262 454 704 -128 1382 -128 
C 2042 -128 2669 440 2669 1264 
C 2669 2030 2170 2624 1549 2624 
C 1222 2624 947 2503 730 2274 
L 730 3692 
z
" transform="scale(0.015625)"/>
       </defs>
       <use xlink:href="#g2f0007_f05198_CMSY10-0" transform="scale(0.996264)"/>
       <use xlink:href="#g2f0007_f05198_CMR17-35" transform="translate(77.487468 0) scale(0.996264)"/>
      </g>
     </g>
    </g>
    <g id="g2f0007_f05198_xtick_3">
     <g id="g2f0007_f05198_line2d_5">
      <path d="M 88.282677 331.34 
L 88.282677 16.556315 
" clip-path="url(#g2f0007_f05198_pc2928b1fb4)" style="fill: none; stroke-dasharray: 2.96,1.28; stroke-dashoffset: 0; stroke: #b0b0b0; stroke-opacity: 0.6; stroke-width: 0.8"/>
     </g>
     <g id="g2f0007_f05198_line2d_6">
      <g>
       <use xlink:href="#g2f0007_f05198_md9c91e0636" x="88.282677" y="173.948158" style="stroke: #000000; stroke-width: 0.8"/>
      </g>
     </g>
     <g id="g2f0007_f05198_text_3">
      <!-- $\mathdefault{−4}$ -->
      <g transform="translate(75.964886 194.785154) scale(0.2 -0.2)">
       <defs>
        <path id="g2f0007_f05198_CMR17-34" d="M 2150 4122 
C 2150 4256 2144 4256 2029 4256 
L 128 1254 
L 128 1088 
L 1779 1088 
L 1779 457 
C 1779 224 1766 160 1318 160 
L 1197 160 
L 1197 0 
C 1402 0 1747 0 1965 0 
C 2182 0 2528 0 2733 0 
L 2733 160 
L 2611 160 
C 2163 160 2150 224 2150 457 
L 2150 1088 
L 2803 1088 
L 2803 1254 
L 2150 1254 
L 2150 4122 
z
M 1798 3703 
L 1798 1254 
L 256 1254 
L 1798 3703 
z
" transform="scale(0.015625)"/>
       </defs>
       <use xlink:href="#g2f0007_f05198_CMSY10-0" transform="scale(0.996264)"/>
       <use xlink:href="#g2f0007_f05198_CMR17-34" transform="translate(77.487468 0) scale(0.996264)"/>
      </g>
     </g>
    </g>
    <g id="g2f0007_f05198_xtick_4">
     <g id="g2f0007_f05198_line2d_7">
      <path d="M 122.66512 331.34 
L 122.66512 16.556315 
" clip-path="url(#g2f0007_f05198_pc2928b1fb4)" style="fill: none; stroke-dasharray: 2.96,1.28; stroke-dashoffset: 0; stroke: #b0b0b0; stroke-opacity: 0.6; stroke-width: 0.8"/>
     </g>
     <g id="g2f0007_f05198_line2d_8">
      <g>
       <use xlink:href="#g2f0007_f05198_md9c91e0636" x="122.66512" y="173.948158" style="stroke: #000000; stroke-width: 0.8"/>
      </g>
     </g>
     <g id="g2f0007_f05198_text_4">
      <!-- $\mathdefault{−3}$ -->
      <g transform="translate(110.347329 194.785154) scale(0.2 -0.2)">
       <defs>
        <path id="g2f0007_f05198_CMR17-33" d="M 1414 2157 
C 1984 2157 2234 1662 2234 1090 
C 2234 320 1824 25 1453 25 
C 1114 25 563 194 390 693 
C 422 680 454 680 486 680 
C 640 680 755 782 755 948 
C 755 1133 614 1216 486 1216 
C 378 1216 211 1165 211 926 
C 211 335 787 -128 1466 -128 
C 2176 -128 2720 430 2720 1085 
C 2720 1707 2208 2157 1600 2227 
C 2086 2328 2554 2756 2554 3329 
C 2554 3820 2048 4179 1472 4179 
C 890 4179 378 3829 378 3329 
C 378 3110 544 3072 627 3072 
C 762 3072 877 3155 877 3321 
C 877 3486 762 3569 627 3569 
C 602 3569 570 3569 544 3557 
C 730 3959 1235 4032 1459 4032 
C 1683 4032 2106 3925 2106 3320 
C 2106 3143 2080 2828 1862 2550 
C 1670 2304 1453 2304 1242 2284 
C 1210 2284 1062 2269 1037 2269 
C 992 2263 966 2257 966 2208 
C 966 2163 973 2157 1101 2157 
L 1414 2157 
z
" transform="scale(0.015625)"/>
       </defs>
       <use xlink:href="#g2f0007_f05198_CMSY10-0" transform="scale(0.996264)"/>
       <use xlink:href="#g2f0007_f05198_CMR17-33" transform="translate(77.487468 0) scale(0.996264)"/>
      </g>
     </g>
    </g>
    <g id="g2f0007_f05198_xtick_5">
     <g id="g2f0007_f05198_line2d_9">
      <path d="M 157.047563 331.34 
L 157.047563 16.556315 
" clip-path="url(#g2f0007_f05198_pc2928b1fb4)" style="fill: none; stroke-dasharray: 2.96,1.28; stroke-dashoffset: 0; stroke: #b0b0b0; stroke-opacity: 0.6; stroke-width: 0.8"/>
     </g>
     <g id="g2f0007_f05198_line2d_10">
      <g>
       <use xlink:href="#g2f0007_f05198_md9c91e0636" x="157.047563" y="173.948158" style="stroke: #000000; stroke-width: 0.8"/>
      </g>
     </g>
     <g id="g2f0007_f05198_text_5">
      <!-- $\mathdefault{−2}$ -->
      <g transform="translate(144.729771 194.785154) scale(0.2 -0.2)">
       <defs>
        <path id="g2f0007_f05198_CMR17-32" d="M 2669 989 
L 2554 989 
C 2490 536 2438 459 2413 420 
C 2381 369 1920 369 1830 369 
L 602 369 
C 832 619 1280 1072 1824 1597 
C 2214 1967 2669 2402 2669 3035 
C 2669 3790 2067 4224 1395 4224 
C 691 4224 262 3604 262 3030 
C 262 2780 448 2748 525 2748 
C 589 2748 781 2787 781 3010 
C 781 3207 614 3264 525 3264 
C 486 3264 448 3258 422 3245 
C 544 3790 915 4058 1306 4058 
C 1862 4058 2227 3617 2227 3035 
C 2227 2479 1901 2000 1536 1584 
L 262 146 
L 262 0 
L 2515 0 
L 2669 989 
z
" transform="scale(0.015625)"/>
       </defs>
       <use xlink:href="#g2f0007_f05198_CMSY10-0" transform="scale(0.996264)"/>
       <use xlink:href="#g2f0007_f05198_CMR17-32" transform="translate(77.487468 0) scale(0.996264)"/>
      </g>
     </g>
    </g>
    <g id="g2f0007_f05198_xtick_6">
     <g id="g2f0007_f05198_line2d_11">
      <path d="M 191.430006 331.34 
L 191.430006 16.556315 
" clip-path="url(#g2f0007_f05198_pc2928b1fb4)" style="fill: none; stroke-dasharray: 2.96,1.28; stroke-dashoffset: 0; stroke: #b0b0b0; stroke-opacity: 0.6; stroke-width: 0.8"/>
     </g>
     <g id="g2f0007_f05198_line2d_12">
      <g>
       <use xlink:href="#g2f0007_f05198_md9c91e0636" x="191.430006" y="173.948158" style="stroke: #000000; stroke-width: 0.8"/>
      </g>
     </g>
     <g id="g2f0007_f05198_text_6">
      <!-- $\mathdefault{−1}$ -->
      <g transform="translate(179.112214 194.785154) scale(0.2 -0.2)">
       <defs>
        <path id="g2f0007_f05198_CMR17-31" d="M 1702 4058 
C 1702 4192 1696 4192 1606 4192 
C 1357 3916 979 3827 621 3827 
C 602 3827 570 3827 563 3808 
C 557 3795 557 3782 557 3648 
C 755 3648 1088 3686 1344 3839 
L 1344 461 
C 1344 236 1331 160 781 160 
L 589 160 
L 589 0 
C 896 0 1216 0 1523 0 
C 1830 0 2150 0 2458 0 
L 2458 160 
L 2266 160 
C 1715 160 1702 230 1702 458 
L 1702 4058 
z
" transform="scale(0.015625)"/>
       </defs>
       <use xlink:href="#g2f0007_f05198_CMSY10-0" transform="scale(0.996264)"/>
       <use xlink:href="#g2f0007_f05198_CMR17-31" transform="translate(77.487468 0) scale(0.996264)"/>
      </g>
     </g>
    </g>
    <g id="g2f0007_f05198_xtick_7">
     <g id="g2f0007_f05198_line2d_13">
      <path d="M 260.194892 331.34 
L 260.194892 16.556315 
" clip-path="url(#g2f0007_f05198_pc2928b1fb4)" style="fill: none; stroke-dasharray: 2.96,1.28; stroke-dashoffset: 0; stroke: #b0b0b0; stroke-opacity: 0.6; stroke-width: 0.8"/>
     </g>
     <g id="g2f0007_f05198_line2d_14">
      <g>
       <use xlink:href="#g2f0007_f05198_md9c91e0636" x="260.194892" y="173.948158" style="stroke: #000000; stroke-width: 0.8"/>
      </g>
     </g>
     <g id="g2f0007_f05198_text_7">
      <!-- $\mathdefault{1}$ -->
      <g transform="translate(255.625844 194.785154) scale(0.2 -0.2)">
       <use xlink:href="#g2f0007_f05198_CMR17-31" transform="scale(0.996264)"/>
      </g>
     </g>
    </g>
    <g id="g2f0007_f05198_xtick_8">
     <g id="g2f0007_f05198_line2d_15">
      <path d="M 294.577334 331.34 
L 294.577334 16.556315 
" clip-path="url(#g2f0007_f05198_pc2928b1fb4)" style="fill: none; stroke-dasharray: 2.96,1.28; stroke-dashoffset: 0; stroke: #b0b0b0; stroke-opacity: 0.6; stroke-width: 0.8"/>
     </g>
     <g id="g2f0007_f05198_line2d_16">
      <g>
       <use xlink:href="#g2f0007_f05198_md9c91e0636" x="294.577334" y="173.948158" style="stroke: #000000; stroke-width: 0.8"/>
      </g>
     </g>
     <g id="g2f0007_f05198_text_8">
      <!-- $\mathdefault{2}$ -->
      <g transform="translate(290.008287 194.785154) scale(0.2 -0.2)">
       <use xlink:href="#g2f0007_f05198_CMR17-32" transform="scale(0.996264)"/>
      </g>
     </g>
    </g>
    <g id="g2f0007_f05198_xtick_9">
     <g id="g2f0007_f05198_line2d_17">
      <path d="M 328.959777 331.34 
L 328.959777 16.556315 
" clip-path="url(#g2f0007_f05198_pc2928b1fb4)" style="fill: none; stroke-dasharray: 2.96,1.28; stroke-dashoffset: 0; stroke: #b0b0b0; stroke-opacity: 0.6; stroke-width: 0.8"/>
     </g>
     <g id="g2f0007_f05198_line2d_18">
      <g>
       <use xlink:href="#g2f0007_f05198_md9c91e0636" x="328.959777" y="173.948158" style="stroke: #000000; stroke-width: 0.8"/>
      </g>
     </g>
     <g id="g2f0007_f05198_text_9">
      <!-- $\mathdefault{3}$ -->
      <g transform="translate(324.39073 194.785154) scale(0.2 -0.2)">
       <use xlink:href="#g2f0007_f05198_CMR17-33" transform="scale(0.996264)"/>
      </g>
     </g>
    </g>
    <g id="g2f0007_f05198_xtick_10">
     <g id="g2f0007_f05198_line2d_19">
      <path d="M 363.34222 331.34 
L 363.34222 16.556315 
" clip-path="url(#g2f0007_f05198_pc2928b1fb4)" style="fill: none; stroke-dasharray: 2.96,1.28; stroke-dashoffset: 0; stroke: #b0b0b0; stroke-opacity: 0.6; stroke-width: 0.8"/>
     </g>
     <g id="g2f0007_f05198_line2d_20">
      <g>
       <use xlink:href="#g2f0007_f05198_md9c91e0636" x="363.34222" y="173.948158" style="stroke: #000000; stroke-width: 0.8"/>
      </g>
     </g>
     <g id="g2f0007_f05198_text_10">
      <!-- $\mathdefault{4}$ -->
      <g transform="translate(358.773172 194.785154) scale(0.2 -0.2)">
       <use xlink:href="#g2f0007_f05198_CMR17-34" transform="scale(0.996264)"/>
      </g>
     </g>
    </g>
    <g id="g2f0007_f05198_xtick_11">
     <g id="g2f0007_f05198_line2d_21">
      <path d="M 397.724663 331.34 
L 397.724663 16.556315 
" clip-path="url(#g2f0007_f05198_pc2928b1fb4)" style="fill: none; stroke-dasharray: 2.96,1.28; stroke-dashoffset: 0; stroke: #b0b0b0; stroke-opacity: 0.6; stroke-width: 0.8"/>
     </g>
     <g id="g2f0007_f05198_line2d_22">
      <g>
       <use xlink:href="#g2f0007_f05198_md9c91e0636" x="397.724663" y="173.948158" style="stroke: #000000; stroke-width: 0.8"/>
      </g>
     </g>
     <g id="g2f0007_f05198_text_11">
      <!-- $\mathdefault{5}$ -->
      <g transform="translate(393.155615 194.785154) scale(0.2 -0.2)">
       <use xlink:href="#g2f0007_f05198_CMR17-35" transform="scale(0.996264)"/>
      </g>
     </g>
    </g>
    <g id="g2f0007_f05198_xtick_12">
     <g id="g2f0007_f05198_line2d_23">
      <path d="M 432.107106 331.34 
L 432.107106 16.556315 
" clip-path="url(#g2f0007_f05198_pc2928b1fb4)" style="fill: none; stroke-dasharray: 2.96,1.28; stroke-dashoffset: 0; stroke: #b0b0b0; stroke-opacity: 0.6; stroke-width: 0.8"/>
     </g>
     <g id="g2f0007_f05198_line2d_24">
      <g>
       <use xlink:href="#g2f0007_f05198_md9c91e0636" x="432.107106" y="173.948158" style="stroke: #000000; stroke-width: 0.8"/>
      </g>
     </g>
     <g id="g2f0007_f05198_text_12">
      <!-- $\mathdefault{6}$ -->
      <g transform="translate(427.538058 194.785154) scale(0.2 -0.2)">
       <use xlink:href="#g2f0007_f05198_CMR17-36" transform="scale(0.996264)"/>
      </g>
     </g>
    </g>
    <g id="g2f0007_f05198_text_13">
     <!-- $x$ -->
     <g transform="translate(430.647378 216.497785) scale(0.2 -0.2)">
      <defs>
       <path id="g2f0007_f05198_CMMI12-78" d="M 3034 2606 
C 2829 2567 2752 2414 2752 2293 
C 2752 2139 2874 2088 2963 2088 
C 3155 2088 3290 2254 3290 2427 
C 3290 2695 2982 2816 2714 2816 
C 2323 2816 2106 2433 2048 2312 
C 1901 2816 1504 2816 1389 2816 
C 736 2816 390 1980 390 1839 
C 390 1814 416 1782 461 1782 
C 512 1782 525 1820 538 1846 
C 755 2555 1184 2689 1370 2689 
C 1658 2689 1715 2420 1715 2267 
C 1715 2127 1677 1980 1600 1673 
L 1382 798 
C 1286 415 1101 64 762 64 
C 730 64 570 64 435 147 
C 666 192 717 383 717 460 
C 717 588 621 664 499 664 
C 346 664 179 530 179 326 
C 179 57 480 -64 755 -64 
C 1062 -64 1280 179 1414 441 
C 1517 64 1837 -64 2074 -64 
C 2726 -64 3072 773 3072 913 
C 3072 945 3046 971 3008 971 
C 2950 971 2944 939 2925 888 
C 2752 326 2381 64 2093 64 
C 1869 64 1747 230 1747 492 
C 1747 632 1773 734 1875 1156 
L 2099 2024 
C 2195 2408 2413 2689 2707 2689 
C 2720 2689 2899 2689 3034 2606 
z
" transform="scale(0.015625)"/>
      </defs>
      <use xlink:href="#g2f0007_f05198_CMMI12-78" transform="scale(0.996264)"/>
     </g>
    </g>
   </g>
   <g id="g2f0007_f05198_matplotlib.axis_2">
    <g id="g2f0007_f05198_ytick_1">
     <g id="g2f0007_f05198_line2d_25">
      <path d="M 9.890707 252.644079 
L 441.73419 252.644079 
" clip-path="url(#g2f0007_f05198_pc2928b1fb4)" style="fill: none; stroke-dasharray: 2.96,1.28; stroke-dashoffset: 0; stroke: #b0b0b0; stroke-opacity: 0.6; stroke-width: 0.8"/>
     </g>
     <g id="g2f0007_f05198_line2d_26">
      <defs>
       <path id="g2f0007_f05198_m6007080bd8" d="M 0 0 
L -3.5 0 
" style="stroke: #000000; stroke-width: 0.8"/>
      </defs>
      <g>
       <use xlink:href="#g2f0007_f05198_m6007080bd8" x="225.812449" y="252.644079" style="stroke: #000000; stroke-width: 0.8"/>
      </g>
     </g>
     <g id="g2f0007_f05198_text_14">
      <!-- $\mathdefault{−1}$ -->
      <g transform="translate(194.176866 259.562577) scale(0.2 -0.2)">
       <use xlink:href="#g2f0007_f05198_CMSY10-0" transform="scale(0.996264)"/>
       <use xlink:href="#g2f0007_f05198_CMR17-31" transform="translate(77.487468 0) scale(0.996264)"/>
      </g>
     </g>
    </g>
    <g id="g2f0007_f05198_ytick_2">
     <g id="g2f0007_f05198_line2d_27">
      <path d="M 9.890707 95.252236 
L 441.73419 95.252236 
" clip-path="url(#g2f0007_f05198_pc2928b1fb4)" style="fill: none; stroke-dasharray: 2.96,1.28; stroke-dashoffset: 0; stroke: #b0b0b0; stroke-opacity: 0.6; stroke-width: 0.8"/>
     </g>
     <g id="g2f0007_f05198_line2d_28">
      <g>
       <use xlink:href="#g2f0007_f05198_m6007080bd8" x="225.812449" y="95.252236" style="stroke: #000000; stroke-width: 0.8"/>
      </g>
     </g>
     <g id="g2f0007_f05198_text_15">
      <!-- $\mathdefault{1}$ -->
      <g transform="translate(209.674353 102.170735) scale(0.2 -0.2)">
       <use xlink:href="#g2f0007_f05198_CMR17-31" transform="scale(0.996264)"/>
      </g>
     </g>
    </g>
    <g id="g2f0007_f05198_text_16">
     <!-- $y$ -->
     <g transform="translate(180.664031 12.680682) scale(0.2 -0.2)">
      <defs>
       <path id="g2f0007_f05198_CMMI12-79" d="M 1683 -700 
C 1510 -939 1261 -1152 947 -1152 
C 870 -1152 563 -1152 467 -889 
C 486 -895 518 -895 531 -895 
C 723 -895 851 -729 851 -582 
C 851 -435 730 -384 634 -384 
C 531 -384 307 -458 307 -759 
C 307 -1071 582 -1286 947 -1286 
C 1587 -1286 2234 -700 2413 6 
L 3040 2485 
C 3046 2517 3059 2556 3059 2594 
C 3059 2689 2982 2753 2886 2753 
C 2829 2753 2694 2727 2643 2535 
L 2170 658 
C 2138 543 2138 530 2086 460 
C 1958 281 1747 64 1440 64 
C 1082 64 1050 415 1050 588 
C 1050 952 1222 1443 1395 1903 
C 1466 2088 1504 2178 1504 2305 
C 1504 2574 1312 2816 998 2816 
C 410 2816 173 1890 173 1839 
C 173 1814 198 1782 243 1782 
C 301 1782 307 1807 333 1897 
C 486 2433 730 2689 979 2689 
C 1037 2689 1146 2689 1146 2478 
C 1146 2312 1075 2127 979 1884 
C 666 1047 666 837 666 683 
C 666 77 1101 -64 1421 -64 
C 1606 -64 1837 -6 2061 230 
L 2067 224 
C 1971 -147 1907 -392 1683 -700 
z
" transform="scale(0.015625)"/>
      </defs>
      <use xlink:href="#g2f0007_f05198_CMMI12-79" transform="scale(0.996264)"/>
     </g>
    </g>
   </g>
   <g id="g2f0007_f05198_line2d_29">
    <defs>
     <path id="g2f0007_f05198_mdb641303a0" d="M 3 0 
L -3 -3 
L -3 3 
z
" style="stroke: #000000; stroke-linejoin: miter"/>
    </defs>
    <g>
     <use xlink:href="#g2f0007_f05198_mdb641303a0" x="441.73419" y="173.948158" style="stroke: #000000; stroke-linejoin: miter"/>
    </g>
   </g>
   <g id="g2f0007_f05198_line2d_30">
    <defs>
     <path id="g2f0007_f05198_m33444b72df" d="M 0 -3 
L -3 3 
L 3 3 
z
" style="stroke: #000000; stroke-linejoin: miter"/>
    </defs>
    <g>
     <use xlink:href="#g2f0007_f05198_m33444b72df" x="225.812449" y="16.556315" style="stroke: #000000; stroke-linejoin: miter"/>
    </g>
   </g>
   <g id="g2f0007_f05198_line2d_31">
    <path d="M 9.890707 210.946129 
L 12.423514 220.382149 
L 14.534186 227.542325 
L 16.644858 233.956439 
L 18.333395 238.490183 
L 20.021933 242.448671 
L 21.71047 245.796622 
L 22.976874 247.888757 
L 24.243277 249.610071 
L 25.50968 250.951929 
L 26.776083 251.907604 
L 27.620352 252.327727 
L 28.464621 252.573105 
L 29.308889 252.643192 
L 30.153158 252.537831 
L 30.997427 252.257256 
L 31.841696 251.802095 
L 33.108099 250.794327 
L 34.374502 249.401166 
L 35.640905 247.629598 
L 36.907308 245.488507 
L 38.595846 242.077728 
L 40.284384 238.059717 
L 41.972921 233.470287 
L 44.083593 226.992714 
L 46.194265 219.77673 
L 48.727071 210.284925 
L 51.682012 198.305216 
L 55.903356 180.124792 
L 63.501775 147.227863 
L 66.456716 135.413774 
L 68.989522 126.111815 
L 71.100194 119.084952 
L 73.210866 112.821815 
L 74.899404 108.420168 
L 76.587941 104.602564 
L 78.276479 101.40303 
L 79.542882 99.426357 
L 80.809285 97.82342 
L 82.075688 96.602259 
L 83.342092 95.768998 
L 84.18636 95.431135 
L 85.030629 95.268322 
L 85.874898 95.280924 
L 86.719167 95.468911 
L 87.563435 95.831865 
L 88.407704 96.368977 
L 89.674107 97.498465 
L 90.940511 99.011358 
L 92.206914 100.900069 
L 93.473317 103.155126 
L 95.161855 106.711934 
L 96.850392 110.868011 
L 98.53893 115.586315 
L 100.649602 122.210312 
L 102.760274 129.554529 
L 105.29308 139.17371 
L 108.248021 151.262316 
L 112.891499 171.375015 
L 119.223515 198.812215 
L 122.60059 212.389425 
L 125.133396 221.699689 
L 127.244068 228.734778 
L 129.35474 235.007207 
L 131.043278 239.41697 
L 132.731815 243.243216 
L 134.420353 246.451844 
L 135.686756 248.435584 
L 136.953159 250.045759 
L 138.219562 251.274296 
L 139.485966 252.115031 
L 140.330234 252.457914 
L 141.174503 252.625762 
L 142.018772 252.618201 
L 142.863041 252.435248 
L 143.70731 252.077311 
L 144.551578 251.545187 
L 145.817981 250.423104 
L 147.084385 248.917488 
L 148.350788 247.035892 
L 149.617191 244.787751 
L 151.305729 241.239794 
L 152.994266 237.092075 
L 154.682804 232.38156 
L 156.793476 225.766396 
L 158.904148 218.429892 
L 161.436954 208.81834 
L 164.391895 196.736201 
L 169.035373 176.627995 
L 175.367389 149.185409 
L 178.744464 135.600077 
L 181.27727 126.281526 
L 183.387942 119.238223 
L 185.498614 112.956513 
L 187.187152 108.538643 
L 188.875689 104.703761 
L 190.564227 101.486046 
L 191.83063 99.495243 
L 193.097033 97.877831 
L 194.363436 96.641922 
L 195.62984 95.793713 
L 196.474108 95.445812 
L 197.318377 95.272929 
L 198.162646 95.275449 
L 199.006915 95.453367 
L 199.851184 95.806287 
L 200.695452 96.333421 
L 201.961856 97.448099 
L 203.228259 98.946434 
L 204.494662 100.820912 
L 205.761065 103.062133 
L 207.449603 106.601232 
L 209.13814 110.740586 
L 210.826678 115.443302 
L 212.93735 122.049622 
L 215.048022 129.378399 
L 217.580828 138.982305 
L 220.535769 151.057955 
L 225.179247 171.16163 
L 231.511263 198.609551 
L 234.888338 212.202981 
L 237.421144 221.529802 
L 239.531816 228.581306 
L 241.642488 234.872285 
L 243.331026 239.298254 
L 245.019563 243.141765 
L 246.708101 246.368561 
L 247.974504 248.366423 
L 249.240907 249.991068 
L 250.507311 251.234348 
L 251.773714 252.090028 
L 252.617983 252.442948 
L 253.462251 252.620866 
L 254.30652 252.623387 
L 255.150789 252.450503 
L 255.995058 252.102602 
L 256.839326 251.580458 
L 258.10573 250.473189 
L 259.372133 248.982137 
L 260.638536 247.11478 
L 261.904939 244.880482 
L 263.593477 241.350249 
L 265.282014 237.219268 
L 266.970552 232.524358 
L 269.081224 225.926895 
L 271.191896 218.605858 
L 273.724702 209.009617 
L 276.679643 196.940478 
L 280.900987 178.697209 
L 288.077271 147.629904 
L 291.032212 135.786662 
L 293.565018 126.451588 
L 295.67569 119.391896 
L 297.786362 113.091659 
L 299.4749 108.657599 
L 301.163438 104.805467 
L 302.851975 101.569596 
L 304.118378 99.564678 
L 305.384781 97.932802 
L 306.651185 96.682154 
L 307.917588 95.819004 
L 308.761857 95.461067 
L 309.606125 95.278114 
L 310.450394 95.270553 
L 311.294663 95.438401 
L 312.138932 95.781284 
L 312.9832 96.298437 
L 314.249604 97.398295 
L 315.516007 98.882061 
L 316.78241 100.742294 
L 318.048813 102.969663 
L 319.737351 106.491025 
L 321.425888 110.613626 
L 323.114426 115.300719 
L 325.225098 121.889314 
L 327.33577 129.202597 
L 329.868576 138.791157 
L 332.823517 150.853761 
L 337.044861 169.092551 
L 344.221145 200.165779 
L 347.176086 212.016255 
L 349.708893 221.359565 
L 351.819565 228.427431 
L 353.930236 234.736915 
L 355.618774 239.179058 
L 357.307312 243.039804 
L 358.995849 246.284745 
L 360.262252 248.296715 
L 361.528656 249.935818 
L 362.795059 251.193832 
L 364.061462 252.06445 
L 364.905731 252.427404 
L 365.749999 252.615391 
L 366.594268 252.627993 
L 367.438537 252.465181 
L 368.282806 252.127317 
L 369.127075 251.615156 
L 370.393478 250.52271 
L 371.659881 249.046233 
L 372.926284 247.193129 
L 374.192687 244.972691 
L 375.881225 241.460207 
L 377.569762 237.345995 
L 379.2583 232.666725 
L 381.368972 226.087012 
L 383.479644 218.781496 
L 386.01245 209.200635 
L 388.967391 197.144587 
L 393.188735 178.910311 
L 400.36502 147.831216 
L 403.31996 135.973528 
L 405.852767 126.622 
L 407.963439 119.545972 
L 410.074111 113.227253 
L 411.762648 108.777036 
L 413.451186 104.907682 
L 415.139723 101.653678 
L 416.406126 99.63466 
L 417.67253 97.988333 
L 418.938933 96.722954 
L 420.205336 95.84487 
L 421.049605 95.4769 
L 421.893873 95.283879 
L 422.738142 95.266236 
L 423.582411 95.424013 
L 424.42668 95.756856 
L 425.270949 96.264024 
L 426.537352 97.349055 
L 427.803755 98.818242 
L 429.070158 100.664214 
L 430.336561 102.877715 
L 432.025099 106.381315 
L 433.713636 110.487131 
L 435.402174 115.158568 
L 437.512846 121.729389 
L 439.623518 129.027125 
L 441.73419 136.950186 
L 441.73419 136.950186 
" clip-path="url(#g2f0007_f05198_pc2928b1fb4)" style="fill: none; stroke: #0072b2; stroke-width: 2.5; stroke-linecap: square"/>
   </g>
   <g id="g2f0007_f05198_patch_3">
    <path d="M 225.812449 331.34 
L 225.812449 16.556315 
" style="fill: none; stroke: #000000; stroke-width: 0.8; stroke-linejoin: miter; stroke-linecap: square"/>
   </g>
   <g id="g2f0007_f05198_patch_4">
    <path d="M 441.73419 331.34 
L 441.73419 16.556315 
" style="fill: none"/>
   </g>
   <g id="g2f0007_f05198_patch_5">
    <path d="M 9.890707 173.948158 
L 441.73419 173.948158 
" style="fill: none; stroke: #000000; stroke-width: 0.8; stroke-linejoin: miter; stroke-linecap: square"/>
   </g>
   <g id="g2f0007_f05198_patch_6">
    <path d="M 9.890707 16.556315 
L 441.73419 16.556315 
" style="fill: none"/>
   </g>
  </g>
 </g>
 <defs>
  <clipPath id="g2f0007_f05198_pc2928b1fb4">
   <rect x="9.890707" y="16.556315" width="431.843482" height="314.783685"/>
  </clipPath>
 </defs>
</svg>
