<svg xmlns:xlink="http://www.w3.org/1999/xlink" xmlns="http://www.w3.org/2000/svg" width="453.6pt" height="338.54pt" viewBox="0 0 453.6 338.54" version="1.1">
 
 <defs>
  <style type="text/css">*{stroke-linejoin: round; stroke-linecap: butt}</style>
 </defs>
 <g id="figure_1">
  <g id="patch_1">
   <path d="M 0 338.54  L 453.6 338.54  L 453.6 0  L 0 0  L 0 338.54  z " style="fill: none; opacity: 0" id="mb_auto_path_0"/>
  </g>
  <g id="axes_1">
   <g id="patch_2">
    <path d="M 7.2 331.34  L 443.4 331.34  L 443.4 20.984473  L 7.2 20.984473  L 7.2 331.34  z " style="fill: none; opacity: 0" id="mb_auto_path_1"/>
   </g>
   <g id="matplotlib.axis_1">
    <g id="text_1">
     <!-- $x$ -->
     <g transform="translate(426.769782 200.917732) scale(0.3 -0.3)" id="mb_auto_g_0">
      <defs>
       <path id="CMMI12-78" d="M 3034 2606  C 2829 2567 2752 2414 2752 2293  C 2752 2139 2874 2088 2963 2088  C 3155 2088 3290 2254 3290 2427  C 3290 2695 2982 2816 2714 2816  C 2323 2816 2106 2433 2048 2312  C 1901 2816 1504 2816 1389 2816  C 736 2816 390 1980 390 1839  C 390 1814 416 1782 461 1782  C 512 1782 525 1820 538 1846  C 755 2555 1184 2689 1370 2689  C 1658 2689 1715 2420 1715 2267  C 1715 2127 1677 1980 1600 1673  L 1382 798  C 1286 415 1101 64 762 64  C 730 64 570 64 435 147  C 666 192 717 383 717 460  C 717 588 621 664 499 664  C 346 664 179 530 179 326  C 179 57 480 -64 755 -64  C 1062 -64 1280 179 1414 441  C 1517 64 1837 -64 2074 -64  C 2726 -64 3072 773 3072 913  C 3072 945 3046 971 3008 971  C 2950 971 2944 939 2925 888  C 2752 326 2381 64 2093 64  C 1869 64 1747 230 1747 492  C 1747 632 1773 734 1875 1156  L 2099 2024  C 2195 2408 2413 2689 2707 2689  C 2720 2689 2899 2689 3034 2606  z " transform="scale(0.015625)"/>
      </defs>
      <use xlink:href="#CMMI12-78" transform="scale(0.996264)" id="mb_auto_use_0"/>
     </g>
    </g>
   </g>
   <g id="matplotlib.axis_2">
    <g id="text_2">
     <!-- $y$ -->
     <g transform="translate(207.030756 15.171022) scale(0.3 -0.3)" id="mb_auto_g_1">
      <defs>
       <path id="CMMI12-79" d="M 1683 -700  C 1510 -939 1261 -1152 947 -1152  C 870 -1152 563 -1152 467 -889  C 486 -895 518 -895 531 -895  C 723 -895 851 -729 851 -582  C 851 -435 730 -384 634 -384  C 531 -384 307 -458 307 -759  C 307 -1071 582 -1286 947 -1286  C 1587 -1286 2234 -700 2413 6  L 3040 2485  C 3046 2517 3059 2556 3059 2594  C 3059 2689 2982 2753 2886 2753  C 2829 2753 2694 2727 2643 2535  L 2170 658  C 2138 543 2138 530 2086 460  C 1958 281 1747 64 1440 64  C 1082 64 1050 415 1050 588  C 1050 952 1222 1443 1395 1903  C 1466 2088 1504 2178 1504 2305  C 1504 2574 1312 2816 998 2816  C 410 2816 173 1890 173 1839  C 173 1814 198 1782 243 1782  C 301 1782 307 1807 333 1897  C 486 2433 730 2689 979 2689  C 1037 2689 1146 2689 1146 2478  C 1146 2312 1075 2127 979 1884  C 666 1047 666 837 666 683  C 666 77 1101 -64 1421 -64  C 1606 -64 1837 -6 2061 230  L 2067 224  C 1971 -147 1907 -392 1683 -700  z " transform="scale(0.015625)"/>
      </defs>
      <use xlink:href="#CMMI12-79" transform="scale(0.996264)" id="mb_auto_use_1"/>
     </g>
    </g>
   </g>
   <g id="line2d_1">
    <defs>
     <path id="m7aaa78d40a" d="M 3 0  L -3 -3  L -3 3  z " style="stroke: #000000; stroke-linejoin: miter"/>
    </defs>
    <g id="mb_auto_g_2">
     <use xlink:href="#m7aaa78d40a" x="443.4" y="176.162236" style="stroke: #000000; stroke-linejoin: miter" id="mb_auto_use_2"/>
    </g>
   </g>
   <g id="line2d_2">
    <defs>
     <path id="m6f3b6b5f04" d="M 0 -3  L -3 3  L 3 3  z " style="stroke: #000000; stroke-linejoin: miter"/>
    </defs>
    <g id="mb_auto_g_3">
     <use xlink:href="#m6f3b6b5f04" x="225.3" y="20.984473" style="stroke: #000000; stroke-linejoin: miter" id="mb_auto_use_3"/>
    </g>
   </g>
   <g id="line2d_3">
    <defs>
     <path id="m169a927009" d="M 0 5  C 1.326016 5 2.597899 4.473168 3.535534 3.535534  C 4.473168 2.597899 5 1.326016 5 0  C 5 -1.326016 4.473168 -2.597899 3.535534 -3.535534  C 2.597899 -4.473168 1.326016 -5 0 -5  C -1.326016 -5 -2.597899 -4.473168 -3.535534 -3.535534  C -4.473168 -2.597899 -5 -1.326016 -5 0  C -5 1.326016 -4.473168 2.597899 -3.535534 3.535534  C -2.597899 4.473168 -1.326016 5 0 5  z " style="stroke: #000000; stroke-opacity: 0.8"/>
    </defs>
    <g clip-path="url(#p93f97f8ff9)" id="mb_auto_g_4">
     <use xlink:href="#m169a927009" x="346.466667" y="176.162236" style="fill-opacity: 0.8; stroke: #000000; stroke-opacity: 0.8" id="mb_auto_use_4"/>
    </g>
   </g>
   <g id="line2d_4">
    <path d="M 346.466667 176.162236  L 346.363848 174.376508  L 346.055677 172.59866  L 345.543012 170.83655  L 344.827279 169.097983  L 343.91047 167.390693  L 342.795133 165.722311  L 341.484371 164.100349  L 339.981823 162.532169  L 338.291664 161.024966  L 336.418583 159.58574  L 333.645644 157.784209  L 330.570455 156.130982  L 327.208138 154.640646  L 323.5752 153.32687  L 319.689452 152.202328  L 315.569904 151.278627  L 311.236668 150.566241  L 306.71085 150.074452  L 302.014437 149.811293  L 297.170178 149.783504  L 292.201461 149.996491  L 287.132191 150.454295  L 281.986661 151.159563  L 276.789419 152.113536  L 271.565141 153.316036  L 266.338499 154.765463  L 261.134023 156.458803  L 255.97598 158.39164  L 250.888235 160.558178  L 245.894131 162.951271  L 241.016362 165.562454  L 236.276852 168.381991  L 231.696639 171.398925  L 227.295765 174.601131  L 223.093169 177.975384  L 219.106585 181.507426  L 215.352454 185.182038  L 211.845833 188.983129  L 208.600319 192.893809  L 205.627978 196.896489  L 202.939282 200.97297  L 200.543056 205.104538  L 198.446435 209.272065  L 196.654826 213.456114  L 195.171884 217.637038  L 193.999498 221.795086  L 193.137779 225.91051  L 192.585067 229.963671  L 192.337944 233.935139  L 192.391255 237.805803  L 192.624334 240.631386  L 193.019074 243.382043  L 193.571448 246.050263  L 194.27693 248.628744  L 195.130508 251.110418  L 196.126696 253.488468  L 197.25956 255.756353  L 198.522727 257.907824  L 199.909416 259.936947  L 201.412451 261.838117  L 203.024288 263.606076  L 204.737039 265.235929  L 206.542498 266.723162  L 208.432162 268.063649  L 211.067514 269.616324  L 213.815524 270.893887  L 216.654131 271.890028  L 219.560764 272.599823  L 222.512471 273.019762  L 225.486048 273.147767  L 228.458166 272.983206  L 231.405504 272.526892  L 234.304883 271.781083  L 237.13339 270.749466  L 239.868512 269.43714  L 241.845319 268.272529  L 243.748172 266.956872  L 245.568263 265.493822  L 247.297044 263.887435  L 248.926257 262.142164  L 250.447958 260.262841  L 251.854547 258.254663  L 253.138783 256.12318  L 254.293817 253.874271  L 255.313209 251.514136  L 256.190949 249.049267  L 256.921475 246.486436  L 257.499695 243.832671  L 257.921 241.095237  L 258.181281 238.281612  L 258.27694 235.399465  L 258.204907 232.456633  L 257.962643 229.461097  L 257.548156 226.420961  L 256.72519 222.312249  L 255.591667 218.158451  L 254.147478 213.979305  L 252.394289 209.794569  L 250.335534 205.623908  L 247.976404 201.486792  L 245.323818 197.402393  L 242.386393 193.38948  L 239.174398 189.466325  L 235.699703 185.650597  L 231.975716 181.959277  L 228.017317 178.408564  L 223.840778 175.013787  L 219.463677 171.789329  L 214.904807 168.74855  L 210.184078 165.903715  L 205.322409 163.265929  L 200.341621 160.845086  L 195.264317 158.64981  L 190.113765 156.687415  L 184.913774 154.963868  L 179.688564 153.483759  L 174.462644 152.250277  L 169.260672 151.265199  L 164.107331 150.528881  L 159.027194 150.04026  L 154.044591 149.796864  L 149.183484 149.794824  L 144.467332 150.028903  L 139.918971 150.492527  L 135.560489 151.17782  L 131.413108 152.075656  L 127.497071 153.175705  L 123.831533 154.466499  L 120.434458 155.935493  L 117.322521 157.569138  L 114.511024 159.352958  L 112.013807 161.271633  L 110.354604 162.78949  L 108.883746 164.367138  L 107.605315 165.997352  L 106.522866 167.672744  L 105.639408 169.38578  L 104.957397 171.12881  L 104.47873 172.894087  L 104.20474 174.673795  L 104.13619 176.460071  L 104.27327 178.245033  L 104.615598 180.020802  L 105.162222 181.779529  L 105.911621 183.513417  L 106.86171 185.21475  L 108.009847 186.875913  L 109.352842 188.489419  L 110.886962 190.04793  L 112.607947 191.544284  L 114.511024 192.971515  L 117.322521 194.755335  L 120.434458 196.38898  L 123.831533 197.857974  L 127.497071 199.148768  L 131.413108 200.248817  L 135.560489 201.146653  L 139.918971 201.831946  L 144.467332 202.29557  L 149.183484 202.529649  L 154.044591 202.527609  L 159.027194 202.284212  L 164.107331 201.795592  L 169.260672 201.059274  L 174.462644 200.074196  L 179.688564 198.840714  L 184.913774 197.360604  L 190.113765 195.637057  L 195.264317 193.674663  L 200.341621 191.479386  L 205.322409 189.058543  L 210.184078 186.420758  L 214.904807 183.575922  L 219.463677 180.535143  L 223.840778 177.310686  L 228.017317 173.915909  L 231.975716 170.365195  L 235.699703 166.673876  L 239.174398 162.858148  L 242.386393 158.934992  L 245.323818 154.92208  L 247.976404 150.837681  L 250.335534 146.700565  L 252.394289 142.529903  L 254.147478 138.345167  L 255.591667 134.166022  L 256.72519 130.012223  L 257.548156 125.903511  L 258.062447 121.859506  L 258.271698 117.899601  L 258.231621 114.996347  L 258.02584 112.15902  L 257.657778 109.395348  L 257.131375 106.712876  L 256.451076 104.118941  L 255.621812 101.620652  L 254.648992 99.22487  L 253.538477 96.938182  L 252.296567 94.766887  L 250.929977 92.716974  L 249.445819 90.794104  L 247.851577 89.003594  L 246.155083 87.350399  L 244.364493 85.839099  L 242.488261 84.473885  L 239.868512 82.887333  L 237.13339 81.575007  L 234.304883 80.54339  L 231.405504 79.797581  L 228.458166 79.341267  L 225.486048 79.176706  L 222.512471 79.304711  L 219.560764 79.72465  L 216.654131 80.434444  L 213.815524 81.430585  L 211.067514 82.708149  L 209.079255 83.84726  L 207.163457 85.137985  L 205.328972 86.576741  L 203.584391 88.159537  L 201.938023 89.881986  L 200.397865 91.739318  L 198.971579 93.726396  L 197.666464 95.837729  L 196.489437 98.067488  L 195.447009 100.409529  L 194.545262 102.857406  L 193.789834 105.404391  L 193.185897 108.043498  L 192.73814 110.767501  L 192.450758 113.568955  L 192.327434 116.440222  L 192.371328 119.373491  L 192.585067 122.360802  L 192.970735 125.394072  L 193.754978 129.495765  L 194.849639 133.645006  L 196.255049 137.822064  L 197.969765 142.007179  L 199.990572 146.18067  L 202.312498 150.323034  L 204.928839 154.415059  L 207.831187 158.437918  L 211.009478 162.373272  L 214.452038 166.203372  L 218.145647 169.911146  L 222.075606 173.480292  L 226.225814 176.895368  L 230.578848 180.141867  L 235.116064 183.2063  L 239.817685 186.07626  L 244.662912 188.740493  L 249.630032 191.188952  L 254.696531 193.412852  L 259.839219 195.404711  L 265.034348 197.158393  L 270.257741 198.669136  L 275.484919 199.933573  L 280.691235 200.94975  L 285.852002 201.717134  L 290.942627 202.23661  L 295.938741 202.510476  L 300.816329 202.542427  L 305.551864 202.33753  L 310.122423 201.902195  L 314.505819 201.244137  L 318.680716 200.372328  L 322.626742 199.296951  L 326.3246 198.029336  L 329.756172 196.581896  L 332.904617 194.968059  L 335.754457 193.202189  L 338.291664 191.299506  L 339.981823 189.792303  L 341.484371 188.224124  L 342.795133 186.602162  L 343.91047 184.93378  L 344.827279 183.226489  L 345.543012 181.487923  L 346.055677 179.725813  L 346.363848 177.947965  L 346.466667 176.162236  L 346.466667 176.162236  " clip-path="url(#p93f97f8ff9)" style="fill: none; stroke: #0072b2; stroke-width: 2.5; stroke-linecap: square" id="mb_auto_path_2"/>
   </g>
   <g id="patch_3">
    <path d="M 225.3 331.34  L 225.3 20.984473  " style="fill: none; stroke: #000000; stroke-width: 0.8; stroke-linejoin: miter; stroke-linecap: square" id="mb_auto_path_3"/>
   </g>
   <g id="patch_4">
    <path d="M 443.4 331.34  L 443.4 20.984473  " style="fill: none" id="mb_auto_path_4"/>
   </g>
   <g id="patch_5">
    <path d="M 7.2 176.162236  L 443.4 176.162236  " style="fill: none; stroke: #000000; stroke-width: 0.8; stroke-linejoin: miter; stroke-linecap: square" id="mb_auto_path_5"/>
   </g>
   <g id="patch_6">
    <path d="M 7.2 20.984473  L 443.4 20.984473  " style="fill: none" id="mb_auto_path_6"/>
   </g>
   <g id="Quiver_1">
    <path d="M 345.158067 176.162236  L 345.158067 139.446585  L 339.923667 140.755185  L 346.466667 127.669185  L 353.009667 140.755185  L 347.775267 139.446585  L 347.775267 176.162236  L 345.158067 176.162236  " clip-path="url(#p93f97f8ff9)" style="fill: #dc5e8b" id="mb_auto_path_7"/>
   </g>
  </g>
 </g>
 <defs>
  <clipPath id="p93f97f8ff9">
   <rect x="7.2" y="20.984473" width="436.2" height="310.355527" id="mb_auto_rect_0"/>
  </clipPath>
 </defs>
</svg>