<?xml version="1.0" encoding="utf-8" standalone="no"?>
<!DOCTYPE svg PUBLIC "-//W3C//DTD SVG 1.1//EN"
  "http://www.w3.org/Graphics/SVG/1.1/DTD/svg11.dtd">
<svg xmlns:xlink="http://www.w3.org/1999/xlink" width="453.6pt" height="338.54pt" viewBox="0 0 453.6 338.54" xmlns="http://www.w3.org/2000/svg" version="1.1">
 <metadata>
  <rdf:RDF xmlns:dc="http://purl.org/dc/elements/1.1/" xmlns:cc="http://creativecommons.org/ns#" xmlns:rdf="http://www.w3.org/1999/02/22-rdf-syntax-ns#">
   <cc:Work>
    <dc:type rdf:resource="http://purl.org/dc/dcmitype/StillImage"/>
    <dc:date>2026-01-22T12:19:57.889258</dc:date>
    <dc:format>image/svg+xml</dc:format>
    <dc:creator>
     <cc:Agent>
      <dc:title>Matplotlib v3.9.1, https://matplotlib.org/</dc:title>
     </cc:Agent>
    </dc:creator>
   </cc:Work>
  </rdf:RDF>
 </metadata>
 <defs>
  <style type="text/css">*{stroke-linejoin: round; stroke-linecap: butt}</style>
 </defs>
 <g id="frame0013_732f9c_figure_1">
  <g id="frame0013_732f9c_patch_1">
   <path d="M 0 338.54 
L 453.6 338.54 
L 453.6 0 
L 0 0 
L 0 338.54 
z
" style="fill: none; opacity: 0"/>
  </g>
  <g id="frame0013_732f9c_axes_1">
   <g id="frame0013_732f9c_patch_2">
    <path d="M 7.2 331.34 
L 443.4 331.34 
L 443.4 16.556315 
L 7.2 16.556315 
L 7.2 331.34 
z
" style="fill: none; opacity: 0"/>
   </g>
   <g id="frame0013_732f9c_matplotlib.axis_1">
    <g id="frame0013_732f9c_xtick_1">
     <g id="frame0013_732f9c_line2d_1">
      <path d="M 43.55 331.34 
L 43.55 16.556315 
" clip-path="url(#frame0013_732f9c_pcca60ee229)" style="fill: none; stroke-dasharray: 2.96,1.28; stroke-dashoffset: 0; stroke: #b0b0b0; stroke-opacity: 0.6; stroke-width: 0.8"/>
     </g>
     <g id="frame0013_732f9c_line2d_2">
      <defs>
       <path id="frame0013_732f9c_m9bc7b95161" d="M 0 0 
L 0 3.5 
" style="stroke: #000000; stroke-width: 0.8"/>
      </defs>
      <g>
       <use xlink:href="#frame0013_732f9c_m9bc7b95161" x="43.55" y="173.948158" style="stroke: #000000; stroke-width: 0.8"/>
      </g>
     </g>
     <g id="frame0013_732f9c_text_1">
      <!-- $\mathdefault{−5}$ -->
      <g transform="translate(31.232209 194.785154) scale(0.2 -0.2)">
       <defs>
        <path id="frame0013_732f9c_CMSY10-0" d="M 4218 1472 
C 4326 1472 4442 1472 4442 1600 
C 4442 1728 4326 1728 4218 1728 
L 755 1728 
C 646 1728 531 1728 531 1600 
C 531 1472 646 1472 755 1472 
L 4218 1472 
z
" transform="scale(0.015625)"/>
        <path id="frame0013_732f9c_CMR17-35" d="M 730 3692 
C 794 3666 1056 3584 1325 3584 
C 1920 3584 2246 3911 2432 4100 
C 2432 4157 2432 4192 2394 4192 
C 2387 4192 2374 4192 2323 4163 
C 2099 4058 1837 3973 1517 3973 
C 1325 3973 1037 3999 723 4139 
C 653 4171 640 4171 634 4171 
C 602 4171 595 4164 595 4037 
L 595 2203 
C 595 2089 595 2057 659 2057 
C 691 2057 704 2070 736 2114 
C 941 2401 1222 2522 1542 2522 
C 1766 2522 2246 2382 2246 1289 
C 2246 1085 2246 715 2054 421 
C 1894 159 1645 25 1370 25 
C 947 25 518 320 403 814 
C 429 807 480 795 506 795 
C 589 795 749 840 749 1038 
C 749 1210 627 1280 506 1280 
C 358 1280 262 1190 262 1011 
C 262 454 704 -128 1382 -128 
C 2042 -128 2669 440 2669 1264 
C 2669 2030 2170 2624 1549 2624 
C 1222 2624 947 2503 730 2274 
L 730 3692 
z
" transform="scale(0.015625)"/>
       </defs>
       <use xlink:href="#frame0013_732f9c_CMSY10-0" transform="scale(0.996264)"/>
       <use xlink:href="#frame0013_732f9c_CMR17-35" transform="translate(77.487468 0) scale(0.996264)"/>
      </g>
     </g>
    </g>
    <g id="frame0013_732f9c_xtick_2">
     <g id="frame0013_732f9c_line2d_3">
      <path d="M 79.9 331.34 
L 79.9 16.556315 
" clip-path="url(#frame0013_732f9c_pcca60ee229)" style="fill: none; stroke-dasharray: 2.96,1.28; stroke-dashoffset: 0; stroke: #b0b0b0; stroke-opacity: 0.6; stroke-width: 0.8"/>
     </g>
     <g id="frame0013_732f9c_line2d_4">
      <g>
       <use xlink:href="#frame0013_732f9c_m9bc7b95161" x="79.9" y="173.948158" style="stroke: #000000; stroke-width: 0.8"/>
      </g>
     </g>
     <g id="frame0013_732f9c_text_2">
      <!-- $\mathdefault{−4}$ -->
      <g transform="translate(67.582209 194.785154) scale(0.2 -0.2)">
       <defs>
        <path id="frame0013_732f9c_CMR17-34" d="M 2150 4122 
C 2150 4256 2144 4256 2029 4256 
L 128 1254 
L 128 1088 
L 1779 1088 
L 1779 457 
C 1779 224 1766 160 1318 160 
L 1197 160 
L 1197 0 
C 1402 0 1747 0 1965 0 
C 2182 0 2528 0 2733 0 
L 2733 160 
L 2611 160 
C 2163 160 2150 224 2150 457 
L 2150 1088 
L 2803 1088 
L 2803 1254 
L 2150 1254 
L 2150 4122 
z
M 1798 3703 
L 1798 1254 
L 256 1254 
L 1798 3703 
z
" transform="scale(0.015625)"/>
       </defs>
       <use xlink:href="#frame0013_732f9c_CMSY10-0" transform="scale(0.996264)"/>
       <use xlink:href="#frame0013_732f9c_CMR17-34" transform="translate(77.487468 0) scale(0.996264)"/>
      </g>
     </g>
    </g>
    <g id="frame0013_732f9c_xtick_3">
     <g id="frame0013_732f9c_line2d_5">
      <path d="M 116.25 331.34 
L 116.25 16.556315 
" clip-path="url(#frame0013_732f9c_pcca60ee229)" style="fill: none; stroke-dasharray: 2.96,1.28; stroke-dashoffset: 0; stroke: #b0b0b0; stroke-opacity: 0.6; stroke-width: 0.8"/>
     </g>
     <g id="frame0013_732f9c_line2d_6">
      <g>
       <use xlink:href="#frame0013_732f9c_m9bc7b95161" x="116.25" y="173.948158" style="stroke: #000000; stroke-width: 0.8"/>
      </g>
     </g>
     <g id="frame0013_732f9c_text_3">
      <!-- $\mathdefault{−3}$ -->
      <g transform="translate(103.932209 194.785154) scale(0.2 -0.2)">
       <defs>
        <path id="frame0013_732f9c_CMR17-33" d="M 1414 2157 
C 1984 2157 2234 1662 2234 1090 
C 2234 320 1824 25 1453 25 
C 1114 25 563 194 390 693 
C 422 680 454 680 486 680 
C 640 680 755 782 755 948 
C 755 1133 614 1216 486 1216 
C 378 1216 211 1165 211 926 
C 211 335 787 -128 1466 -128 
C 2176 -128 2720 430 2720 1085 
C 2720 1707 2208 2157 1600 2227 
C 2086 2328 2554 2756 2554 3329 
C 2554 3820 2048 4179 1472 4179 
C 890 4179 378 3829 378 3329 
C 378 3110 544 3072 627 3072 
C 762 3072 877 3155 877 3321 
C 877 3486 762 3569 627 3569 
C 602 3569 570 3569 544 3557 
C 730 3959 1235 4032 1459 4032 
C 1683 4032 2106 3925 2106 3320 
C 2106 3143 2080 2828 1862 2550 
C 1670 2304 1453 2304 1242 2284 
C 1210 2284 1062 2269 1037 2269 
C 992 2263 966 2257 966 2208 
C 966 2163 973 2157 1101 2157 
L 1414 2157 
z
" transform="scale(0.015625)"/>
       </defs>
       <use xlink:href="#frame0013_732f9c_CMSY10-0" transform="scale(0.996264)"/>
       <use xlink:href="#frame0013_732f9c_CMR17-33" transform="translate(77.487468 0) scale(0.996264)"/>
      </g>
     </g>
    </g>
    <g id="frame0013_732f9c_xtick_4">
     <g id="frame0013_732f9c_line2d_7">
      <path d="M 152.6 331.34 
L 152.6 16.556315 
" clip-path="url(#frame0013_732f9c_pcca60ee229)" style="fill: none; stroke-dasharray: 2.96,1.28; stroke-dashoffset: 0; stroke: #b0b0b0; stroke-opacity: 0.6; stroke-width: 0.8"/>
     </g>
     <g id="frame0013_732f9c_line2d_8">
      <g>
       <use xlink:href="#frame0013_732f9c_m9bc7b95161" x="152.6" y="173.948158" style="stroke: #000000; stroke-width: 0.8"/>
      </g>
     </g>
     <g id="frame0013_732f9c_text_4">
      <!-- $\mathdefault{−2}$ -->
      <g transform="translate(140.282209 194.785154) scale(0.2 -0.2)">
       <defs>
        <path id="frame0013_732f9c_CMR17-32" d="M 2669 989 
L 2554 989 
C 2490 536 2438 459 2413 420 
C 2381 369 1920 369 1830 369 
L 602 369 
C 832 619 1280 1072 1824 1597 
C 2214 1967 2669 2402 2669 3035 
C 2669 3790 2067 4224 1395 4224 
C 691 4224 262 3604 262 3030 
C 262 2780 448 2748 525 2748 
C 589 2748 781 2787 781 3010 
C 781 3207 614 3264 525 3264 
C 486 3264 448 3258 422 3245 
C 544 3790 915 4058 1306 4058 
C 1862 4058 2227 3617 2227 3035 
C 2227 2479 1901 2000 1536 1584 
L 262 146 
L 262 0 
L 2515 0 
L 2669 989 
z
" transform="scale(0.015625)"/>
       </defs>
       <use xlink:href="#frame0013_732f9c_CMSY10-0" transform="scale(0.996264)"/>
       <use xlink:href="#frame0013_732f9c_CMR17-32" transform="translate(77.487468 0) scale(0.996264)"/>
      </g>
     </g>
    </g>
    <g id="frame0013_732f9c_xtick_5">
     <g id="frame0013_732f9c_line2d_9">
      <path d="M 188.95 331.34 
L 188.95 16.556315 
" clip-path="url(#frame0013_732f9c_pcca60ee229)" style="fill: none; stroke-dasharray: 2.96,1.28; stroke-dashoffset: 0; stroke: #b0b0b0; stroke-opacity: 0.6; stroke-width: 0.8"/>
     </g>
     <g id="frame0013_732f9c_line2d_10">
      <g>
       <use xlink:href="#frame0013_732f9c_m9bc7b95161" x="188.95" y="173.948158" style="stroke: #000000; stroke-width: 0.8"/>
      </g>
     </g>
     <g id="frame0013_732f9c_text_5">
      <!-- $\mathdefault{−1}$ -->
      <g transform="translate(176.632209 194.785154) scale(0.2 -0.2)">
       <defs>
        <path id="frame0013_732f9c_CMR17-31" d="M 1702 4058 
C 1702 4192 1696 4192 1606 4192 
C 1357 3916 979 3827 621 3827 
C 602 3827 570 3827 563 3808 
C 557 3795 557 3782 557 3648 
C 755 3648 1088 3686 1344 3839 
L 1344 461 
C 1344 236 1331 160 781 160 
L 589 160 
L 589 0 
C 896 0 1216 0 1523 0 
C 1830 0 2150 0 2458 0 
L 2458 160 
L 2266 160 
C 1715 160 1702 230 1702 458 
L 1702 4058 
z
" transform="scale(0.015625)"/>
       </defs>
       <use xlink:href="#frame0013_732f9c_CMSY10-0" transform="scale(0.996264)"/>
       <use xlink:href="#frame0013_732f9c_CMR17-31" transform="translate(77.487468 0) scale(0.996264)"/>
      </g>
     </g>
    </g>
    <g id="frame0013_732f9c_xtick_6">
     <g id="frame0013_732f9c_line2d_11">
      <path d="M 261.65 331.34 
L 261.65 16.556315 
" clip-path="url(#frame0013_732f9c_pcca60ee229)" style="fill: none; stroke-dasharray: 2.96,1.28; stroke-dashoffset: 0; stroke: #b0b0b0; stroke-opacity: 0.6; stroke-width: 0.8"/>
     </g>
     <g id="frame0013_732f9c_line2d_12">
      <g>
       <use xlink:href="#frame0013_732f9c_m9bc7b95161" x="261.65" y="173.948158" style="stroke: #000000; stroke-width: 0.8"/>
      </g>
     </g>
     <g id="frame0013_732f9c_text_6">
      <!-- $\mathdefault{1}$ -->
      <g transform="translate(257.080952 194.785154) scale(0.2 -0.2)">
       <use xlink:href="#frame0013_732f9c_CMR17-31" transform="scale(0.996264)"/>
      </g>
     </g>
    </g>
    <g id="frame0013_732f9c_xtick_7">
     <g id="frame0013_732f9c_line2d_13">
      <path d="M 298 331.34 
L 298 16.556315 
" clip-path="url(#frame0013_732f9c_pcca60ee229)" style="fill: none; stroke-dasharray: 2.96,1.28; stroke-dashoffset: 0; stroke: #b0b0b0; stroke-opacity: 0.6; stroke-width: 0.8"/>
     </g>
     <g id="frame0013_732f9c_line2d_14">
      <g>
       <use xlink:href="#frame0013_732f9c_m9bc7b95161" x="298" y="173.948158" style="stroke: #000000; stroke-width: 0.8"/>
      </g>
     </g>
     <g id="frame0013_732f9c_text_7">
      <!-- $\mathdefault{2}$ -->
      <g transform="translate(293.430952 194.785154) scale(0.2 -0.2)">
       <use xlink:href="#frame0013_732f9c_CMR17-32" transform="scale(0.996264)"/>
      </g>
     </g>
    </g>
    <g id="frame0013_732f9c_xtick_8">
     <g id="frame0013_732f9c_line2d_15">
      <path d="M 334.35 331.34 
L 334.35 16.556315 
" clip-path="url(#frame0013_732f9c_pcca60ee229)" style="fill: none; stroke-dasharray: 2.96,1.28; stroke-dashoffset: 0; stroke: #b0b0b0; stroke-opacity: 0.6; stroke-width: 0.8"/>
     </g>
     <g id="frame0013_732f9c_line2d_16">
      <g>
       <use xlink:href="#frame0013_732f9c_m9bc7b95161" x="334.35" y="173.948158" style="stroke: #000000; stroke-width: 0.8"/>
      </g>
     </g>
     <g id="frame0013_732f9c_text_8">
      <!-- $\mathdefault{3}$ -->
      <g transform="translate(329.780952 194.785154) scale(0.2 -0.2)">
       <use xlink:href="#frame0013_732f9c_CMR17-33" transform="scale(0.996264)"/>
      </g>
     </g>
    </g>
    <g id="frame0013_732f9c_xtick_9">
     <g id="frame0013_732f9c_line2d_17">
      <path d="M 370.7 331.34 
L 370.7 16.556315 
" clip-path="url(#frame0013_732f9c_pcca60ee229)" style="fill: none; stroke-dasharray: 2.96,1.28; stroke-dashoffset: 0; stroke: #b0b0b0; stroke-opacity: 0.6; stroke-width: 0.8"/>
     </g>
     <g id="frame0013_732f9c_line2d_18">
      <g>
       <use xlink:href="#frame0013_732f9c_m9bc7b95161" x="370.7" y="173.948158" style="stroke: #000000; stroke-width: 0.8"/>
      </g>
     </g>
     <g id="frame0013_732f9c_text_9">
      <!-- $\mathdefault{4}$ -->
      <g transform="translate(366.130952 194.785154) scale(0.2 -0.2)">
       <use xlink:href="#frame0013_732f9c_CMR17-34" transform="scale(0.996264)"/>
      </g>
     </g>
    </g>
    <g id="frame0013_732f9c_xtick_10">
     <g id="frame0013_732f9c_line2d_19">
      <path d="M 407.05 331.34 
L 407.05 16.556315 
" clip-path="url(#frame0013_732f9c_pcca60ee229)" style="fill: none; stroke-dasharray: 2.96,1.28; stroke-dashoffset: 0; stroke: #b0b0b0; stroke-opacity: 0.6; stroke-width: 0.8"/>
     </g>
     <g id="frame0013_732f9c_line2d_20">
      <g>
       <use xlink:href="#frame0013_732f9c_m9bc7b95161" x="407.05" y="173.948158" style="stroke: #000000; stroke-width: 0.8"/>
      </g>
     </g>
     <g id="frame0013_732f9c_text_10">
      <!-- $\mathdefault{5}$ -->
      <g transform="translate(402.480952 194.785154) scale(0.2 -0.2)">
       <use xlink:href="#frame0013_732f9c_CMR17-35" transform="scale(0.996264)"/>
      </g>
     </g>
    </g>
    <g id="frame0013_732f9c_text_11">
     <!-- $x$ -->
     <g transform="translate(432.313188 216.497785) scale(0.2 -0.2)">
      <defs>
       <path id="frame0013_732f9c_CMMI12-78" d="M 3034 2606 
C 2829 2567 2752 2414 2752 2293 
C 2752 2139 2874 2088 2963 2088 
C 3155 2088 3290 2254 3290 2427 
C 3290 2695 2982 2816 2714 2816 
C 2323 2816 2106 2433 2048 2312 
C 1901 2816 1504 2816 1389 2816 
C 736 2816 390 1980 390 1839 
C 390 1814 416 1782 461 1782 
C 512 1782 525 1820 538 1846 
C 755 2555 1184 2689 1370 2689 
C 1658 2689 1715 2420 1715 2267 
C 1715 2127 1677 1980 1600 1673 
L 1382 798 
C 1286 415 1101 64 762 64 
C 730 64 570 64 435 147 
C 666 192 717 383 717 460 
C 717 588 621 664 499 664 
C 346 664 179 530 179 326 
C 179 57 480 -64 755 -64 
C 1062 -64 1280 179 1414 441 
C 1517 64 1837 -64 2074 -64 
C 2726 -64 3072 773 3072 913 
C 3072 945 3046 971 3008 971 
C 2950 971 2944 939 2925 888 
C 2752 326 2381 64 2093 64 
C 1869 64 1747 230 1747 492 
C 1747 632 1773 734 1875 1156 
L 2099 2024 
C 2195 2408 2413 2689 2707 2689 
C 2720 2689 2899 2689 3034 2606 
z
" transform="scale(0.015625)"/>
      </defs>
      <use xlink:href="#frame0013_732f9c_CMMI12-78" transform="scale(0.996264)"/>
     </g>
    </g>
   </g>
   <g id="frame0013_732f9c_matplotlib.axis_2">
    <g id="frame0013_732f9c_ytick_1">
     <g id="frame0013_732f9c_line2d_21">
      <path d="M 7.2 278.876053 
L 443.4 278.876053 
" clip-path="url(#frame0013_732f9c_pcca60ee229)" style="fill: none; stroke-dasharray: 2.96,1.28; stroke-dashoffset: 0; stroke: #b0b0b0; stroke-opacity: 0.6; stroke-width: 0.8"/>
     </g>
     <g id="frame0013_732f9c_line2d_22">
      <defs>
       <path id="frame0013_732f9c_m6b81946216" d="M 0 0 
L -3.5 0 
" style="stroke: #000000; stroke-width: 0.8"/>
      </defs>
      <g>
       <use xlink:href="#frame0013_732f9c_m6b81946216" x="225.3" y="278.876053" style="stroke: #000000; stroke-width: 0.8"/>
      </g>
     </g>
     <g id="frame0013_732f9c_text_12">
      <!-- $\mathdefault{−2}$ -->
      <g transform="translate(193.664417 285.794551) scale(0.2 -0.2)">
       <use xlink:href="#frame0013_732f9c_CMSY10-0" transform="scale(0.996264)"/>
       <use xlink:href="#frame0013_732f9c_CMR17-32" transform="translate(77.487468 0) scale(0.996264)"/>
      </g>
     </g>
    </g>
    <g id="frame0013_732f9c_ytick_2">
     <g id="frame0013_732f9c_line2d_23">
      <path d="M 7.2 226.412105 
L 443.4 226.412105 
" clip-path="url(#frame0013_732f9c_pcca60ee229)" style="fill: none; stroke-dasharray: 2.96,1.28; stroke-dashoffset: 0; stroke: #b0b0b0; stroke-opacity: 0.6; stroke-width: 0.8"/>
     </g>
     <g id="frame0013_732f9c_line2d_24">
      <g>
       <use xlink:href="#frame0013_732f9c_m6b81946216" x="225.3" y="226.412105" style="stroke: #000000; stroke-width: 0.8"/>
      </g>
     </g>
     <g id="frame0013_732f9c_text_13">
      <!-- $\mathdefault{−1}$ -->
      <g transform="translate(193.664417 233.330603) scale(0.2 -0.2)">
       <use xlink:href="#frame0013_732f9c_CMSY10-0" transform="scale(0.996264)"/>
       <use xlink:href="#frame0013_732f9c_CMR17-31" transform="translate(77.487468 0) scale(0.996264)"/>
      </g>
     </g>
    </g>
    <g id="frame0013_732f9c_ytick_3">
     <g id="frame0013_732f9c_line2d_25">
      <path d="M 7.2 121.48421 
L 443.4 121.48421 
" clip-path="url(#frame0013_732f9c_pcca60ee229)" style="fill: none; stroke-dasharray: 2.96,1.28; stroke-dashoffset: 0; stroke: #b0b0b0; stroke-opacity: 0.6; stroke-width: 0.8"/>
     </g>
     <g id="frame0013_732f9c_line2d_26">
      <g>
       <use xlink:href="#frame0013_732f9c_m6b81946216" x="225.3" y="121.48421" style="stroke: #000000; stroke-width: 0.8"/>
      </g>
     </g>
     <g id="frame0013_732f9c_text_14">
      <!-- $\mathdefault{1}$ -->
      <g transform="translate(209.161905 128.402709) scale(0.2 -0.2)">
       <use xlink:href="#frame0013_732f9c_CMR17-31" transform="scale(0.996264)"/>
      </g>
     </g>
    </g>
    <g id="frame0013_732f9c_ytick_4">
     <g id="frame0013_732f9c_line2d_27">
      <path d="M 7.2 69.020263 
L 443.4 69.020263 
" clip-path="url(#frame0013_732f9c_pcca60ee229)" style="fill: none; stroke-dasharray: 2.96,1.28; stroke-dashoffset: 0; stroke: #b0b0b0; stroke-opacity: 0.6; stroke-width: 0.8"/>
     </g>
     <g id="frame0013_732f9c_line2d_28">
      <g>
       <use xlink:href="#frame0013_732f9c_m6b81946216" x="225.3" y="69.020263" style="stroke: #000000; stroke-width: 0.8"/>
      </g>
     </g>
     <g id="frame0013_732f9c_text_15">
      <!-- $\mathdefault{2}$ -->
      <g transform="translate(209.161905 75.938761) scale(0.2 -0.2)">
       <use xlink:href="#frame0013_732f9c_CMR17-32" transform="scale(0.996264)"/>
      </g>
     </g>
    </g>
    <g id="frame0013_732f9c_text_16">
     <!-- $y$ -->
     <g transform="translate(180.151583 12.680682) scale(0.2 -0.2)">
      <defs>
       <path id="frame0013_732f9c_CMMI12-79" d="M 1683 -700 
C 1510 -939 1261 -1152 947 -1152 
C 870 -1152 563 -1152 467 -889 
C 486 -895 518 -895 531 -895 
C 723 -895 851 -729 851 -582 
C 851 -435 730 -384 634 -384 
C 531 -384 307 -458 307 -759 
C 307 -1071 582 -1286 947 -1286 
C 1587 -1286 2234 -700 2413 6 
L 3040 2485 
C 3046 2517 3059 2556 3059 2594 
C 3059 2689 2982 2753 2886 2753 
C 2829 2753 2694 2727 2643 2535 
L 2170 658 
C 2138 543 2138 530 2086 460 
C 1958 281 1747 64 1440 64 
C 1082 64 1050 415 1050 588 
C 1050 952 1222 1443 1395 1903 
C 1466 2088 1504 2178 1504 2305 
C 1504 2574 1312 2816 998 2816 
C 410 2816 173 1890 173 1839 
C 173 1814 198 1782 243 1782 
C 301 1782 307 1807 333 1897 
C 486 2433 730 2689 979 2689 
C 1037 2689 1146 2689 1146 2478 
C 1146 2312 1075 2127 979 1884 
C 666 1047 666 837 666 683 
C 666 77 1101 -64 1421 -64 
C 1606 -64 1837 -6 2061 230 
L 2067 224 
C 1971 -147 1907 -392 1683 -700 
z
" transform="scale(0.015625)"/>
      </defs>
      <use xlink:href="#frame0013_732f9c_CMMI12-79" transform="scale(0.996264)"/>
     </g>
    </g>
   </g>
   <g id="frame0013_732f9c_line2d_29">
    <defs>
     <path id="frame0013_732f9c_m7aa276d3f3" d="M 3 0 
L -3 -3 
L -3 3 
z
" style="stroke: #000000; stroke-linejoin: miter"/>
    </defs>
    <g>
     <use xlink:href="#frame0013_732f9c_m7aa276d3f3" x="443.4" y="173.948158" style="stroke: #000000; stroke-linejoin: miter"/>
    </g>
   </g>
   <g id="frame0013_732f9c_line2d_30">
    <defs>
     <path id="frame0013_732f9c_mb20c9e3236" d="M 0 -3 
L -3 3 
L 3 3 
z
" style="stroke: #000000; stroke-linejoin: miter"/>
    </defs>
    <g>
     <use xlink:href="#frame0013_732f9c_mb20c9e3236" x="225.3" y="16.556315" style="stroke: #000000; stroke-linejoin: miter"/>
    </g>
   </g>
   <g id="frame0013_732f9c_line2d_31">
    <defs>
     <path id="frame0013_732f9c_m15c1885b1e" d="M 0 5 
C 1.326016 5 2.597899 4.473168 3.535534 3.535534 
C 4.473168 2.597899 5 1.326016 5 0 
C 5 -1.326016 4.473168 -2.597899 3.535534 -3.535534 
C 2.597899 -4.473168 1.326016 -5 0 -5 
C -1.326016 -5 -2.597899 -4.473168 -3.535534 -3.535534 
C -4.473168 -2.597899 -5 -1.326016 -5 0 
C -5 1.326016 -4.473168 2.597899 -3.535534 3.535534 
C -2.597899 4.473168 -1.326016 5 0 5 
z
" style="stroke: #000000; stroke-opacity: 0.8"/>
    </defs>
    <g clip-path="url(#frame0013_732f9c_pcca60ee229)">
     <use xlink:href="#frame0013_732f9c_m15c1885b1e" x="285.89427" y="39.974531" style="fill-opacity: 0.8; stroke: #000000; stroke-opacity: 0.8"/>
    </g>
   </g>
   <g id="frame0013_732f9c_line2d_32">
    <g clip-path="url(#frame0013_732f9c_pcca60ee229)">
     <use xlink:href="#frame0013_732f9c_m15c1885b1e" x="285.89427" y="30.068352" style="fill-opacity: 0.8; stroke: #000000; stroke-opacity: 0.8"/>
    </g>
   </g>
   <g id="frame0013_732f9c_line2d_33">
    <path d="M 164.70573 307.921784 
L 167.750668 296.325591 
L 170.795607 285.588617 
L 173.840545 275.635475 
L 176.885483 266.396286 
L 179.930421 257.806179 
L 182.975359 249.804844 
L 186.020298 242.336103 
L 189.674223 234.003044 
L 193.328149 226.277316 
L 196.982075 219.080787 
L 200.636001 212.340681 
L 204.898914 204.96338 
L 209.161828 198.013128 
L 214.033729 190.470356 
L 220.732593 180.557656 
L 237.175259 156.50209 
L 242.04716 148.912758 
L 246.310073 141.90748 
L 250.572987 134.461034 
L 254.226913 127.649707 
L 257.880839 120.370168 
L 261.534764 112.548799 
L 265.18869 104.106504 
L 268.233628 96.535553 
L 271.278566 88.421084 
L 274.323505 79.706125 
L 277.368443 70.329489 
L 280.413381 60.22534 
L 283.458319 49.322738 
L 285.89427 39.974531 
L 285.89427 39.974531 
" clip-path="url(#frame0013_732f9c_pcca60ee229)" style="fill: none; stroke: #800080; stroke-width: 2.5; stroke-linecap: square"/>
   </g>
   <g id="frame0013_732f9c_line2d_34">
    <path d="M 164.70573 30.068352 
L 167.750668 40.798985 
L 170.795607 50.594771 
L 173.840545 59.524487 
L 176.885483 67.650828 
L 179.930421 75.030851 
L 182.975359 81.71637 
L 186.020298 87.754325 
L 188.456248 92.147076 
L 190.892199 96.172333 
L 193.328149 99.848181 
L 195.7641 103.191132 
L 198.20005 106.216206 
L 200.636001 108.936992 
L 203.071951 111.365714 
L 205.507902 113.513282 
L 207.943852 115.389345 
L 210.379803 117.002331 
L 212.815753 118.359487 
L 215.251704 119.466909 
L 217.687655 120.329572 
L 220.123605 120.951353 
L 222.559556 121.335044 
L 224.995506 121.482369 
L 227.431457 121.393991 
L 229.867407 121.069511 
L 232.303358 120.507473 
L 234.739308 119.705351 
L 237.175259 118.659542 
L 239.611209 117.365347 
L 242.04716 115.816952 
L 244.483111 114.007402 
L 246.919061 111.928566 
L 249.355012 109.571105 
L 251.790962 106.924429 
L 254.226913 103.976647 
L 256.662863 100.714516 
L 259.098814 97.123381 
L 261.534764 93.187109 
L 263.970715 88.888015 
L 266.406665 84.206787 
L 268.842616 79.122393 
L 271.278566 73.611992 
L 273.714517 67.650828 
L 276.150468 61.212121 
L 279.195406 52.447909 
L 282.240344 42.830638 
L 285.285282 32.292785 
L 285.89427 30.068352 
L 285.89427 30.068352 
" clip-path="url(#frame0013_732f9c_pcca60ee229)" style="fill: none; stroke-dasharray: 9.25,4; stroke-dashoffset: 0; stroke: #bbe3ce; stroke-width: 2.5"/>
   </g>
   <g id="frame0013_732f9c_patch_3">
    <path d="M 225.3 331.34 
L 225.3 16.556315 
" style="fill: none; stroke: #000000; stroke-width: 0.8; stroke-linejoin: miter; stroke-linecap: square"/>
   </g>
   <g id="frame0013_732f9c_patch_4">
    <path d="M 443.4 331.34 
L 443.4 16.556315 
" style="fill: none"/>
   </g>
   <g id="frame0013_732f9c_patch_5">
    <path d="M 7.2 173.948158 
L 443.4 173.948158 
" style="fill: none; stroke: #000000; stroke-width: 0.8; stroke-linejoin: miter; stroke-linecap: square"/>
   </g>
   <g id="frame0013_732f9c_patch_6">
    <path d="M 7.2 16.556315 
L 443.4 16.556315 
" style="fill: none"/>
   </g>
   <g id="frame0013_732f9c_text_17">
    <!-- a = 1.67 -->
    <g transform="translate(208.794703 74.000944) scale(0.2 -0.2)">
     <defs>
      <path id="frame0013_732f9c_CMSS17-61" d="M 2406 1791 
C 2406 2392 1978 2808 1402 2808 
C 1120 2808 813 2757 461 2553 
L 499 2135 
C 659 2248 934 2432 1395 2432 
C 1722 2432 1920 2180 1920 1782 
L 1920 1536 
C 896 1536 256 1238 256 726 
C 256 461 416 -64 947 -64 
C 1043 -64 1562 -64 1933 217 
L 1933 -19 
L 2406 -19 
L 2406 1791 
z
M 1920 816 
C 1920 701 1920 548 1728 434 
C 1562 325 1350 325 1261 325 
C 941 325 723 511 723 744 
C 723 1211 1722 1211 1920 1211 
L 1920 816 
z
" transform="scale(0.015625)"/>
      <path id="frame0013_732f9c_CMSS17-3d" d="M 4147 2017 
C 4243 2017 4339 2017 4339 2125 
C 4339 2240 4230 2240 4122 2240 
L 550 2240 
C 442 2240 333 2240 333 2125 
C 333 2017 429 2017 525 2017 
L 4147 2017 
z
M 4122 896 
C 4230 896 4339 896 4339 1011 
C 4339 1119 4243 1119 4147 1119 
L 525 1119 
C 429 1119 333 1119 333 1011 
C 333 896 442 896 550 896 
L 4122 896 
z
" transform="scale(0.015625)"/>
      <path id="frame0013_732f9c_CMSS17-31" d="M 1818 4288 
L 1696 4288 
C 1350 3940 947 3890 538 3890 
L 538 3520 
C 723 3520 1024 3520 1325 3667 
L 1325 369 
L 570 369 
L 570 0 
L 2573 0 
L 2573 369 
L 1818 369 
L 1818 4288 
z
" transform="scale(0.015625)"/>
      <path id="frame0013_732f9c_CMSS17-2e" d="M 1088 510 
L 576 510 
L 576 0 
L 1088 0 
L 1088 510 
z
" transform="scale(0.015625)"/>
      <path id="frame0013_732f9c_CMSS17-36" d="M 2496 4101 
C 2227 4210 2035 4229 1856 4229 
C 1024 4229 250 3368 250 2006 
C 250 265 986 -128 1510 -128 
C 1798 -128 2086 -39 2362 280 
C 2643 617 2752 898 2752 1389 
C 2752 2179 2362 2880 1779 2880 
C 1357 2880 992 2657 768 2376 
C 832 3258 1254 3840 1862 3840 
C 2029 3840 2246 3816 2496 3710 
L 2496 4101 
z
M 774 1369 
C 774 1420 774 1452 781 1548 
C 781 2045 1069 2491 1536 2491 
C 1837 2491 1990 2332 2106 2135 
C 2240 1886 2246 1650 2246 1388 
C 2246 1140 2246 891 2099 637 
C 1978 439 1818 267 1510 267 
C 902 267 800 1114 774 1369 
z
" transform="scale(0.015625)"/>
      <path id="frame0013_732f9c_CMSS17-37" d="M 1389 3776 
C 1466 3776 1542 3776 1619 3776 
L 2355 3776 
C 1440 2711 915 1365 915 -32 
L 1427 -32 
C 1427 1323 1875 2696 2752 3795 
L 2752 4209 
L 250 4209 
L 250 3776 
L 1389 3776 
z
" transform="scale(0.015625)"/>
     </defs>
     <use xlink:href="#frame0013_732f9c_CMSS17-61" transform="scale(0.996264)"/>
     <use xlink:href="#frame0013_732f9c_CMSS17-3d" transform="translate(76.151033 0) scale(0.996264)"/>
     <use xlink:href="#frame0013_732f9c_CMSS17-31" transform="translate(180.248081 0) scale(0.996264)"/>
     <use xlink:href="#frame0013_732f9c_CMSS17-2e" transform="translate(227.091704 0) scale(0.996264)"/>
     <use xlink:href="#frame0013_732f9c_CMSS17-36" transform="translate(253.115909 0) scale(0.996264)"/>
     <use xlink:href="#frame0013_732f9c_CMSS17-37" transform="translate(299.959533 0) scale(0.996264)"/>
    </g>
   </g>
  </g>
 </g>
 <defs>
  <clipPath id="frame0013_732f9c_pcca60ee229">
   <rect x="7.2" y="16.556315" width="436.2" height="314.783685"/>
  </clipPath>
 </defs>
</svg>
