<?xml version="1.0" encoding="utf-8" standalone="no"?>
<!DOCTYPE svg PUBLIC "-//W3C//DTD SVG 1.1//EN"
  "http://www.w3.org/Graphics/SVG/1.1/DTD/svg11.dtd">
<svg xmlns:xlink="http://www.w3.org/1999/xlink" width="453.6pt" height="336.061868pt" viewBox="0 0 453.6 336.061868" xmlns="http://www.w3.org/2000/svg" version="1.1">
 <metadata>
  <rdf:RDF xmlns:dc="http://purl.org/dc/elements/1.1/" xmlns:cc="http://creativecommons.org/ns#" xmlns:rdf="http://www.w3.org/1999/02/22-rdf-syntax-ns#">
   <cc:Work>
    <dc:type rdf:resource="http://purl.org/dc/dcmitype/StillImage"/>
    <dc:date>2026-01-22T01:55:47.229655</dc:date>
    <dc:format>image/svg+xml</dc:format>
    <dc:creator>
     <cc:Agent>
      <dc:title>Matplotlib v3.9.1, https://matplotlib.org/</dc:title>
     </cc:Agent>
    </dc:creator>
   </cc:Work>
  </rdf:RDF>
 </metadata>
 <defs>
  <style type="text/css">*{stroke-linejoin: round; stroke-linecap: butt}</style>
 </defs>
 <g id="frame0030_2bf988_figure_1">
  <g id="frame0030_2bf988_patch_1">
   <path d="M 0 336.061868 
L 453.6 336.061868 
L 453.6 0 
L 0 0 
L 0 336.061868 
z
" style="fill: none; opacity: 0"/>
  </g>
  <g id="frame0030_2bf988_axes_1">
   <g id="frame0030_2bf988_patch_2">
    <path d="M 7.2 328.861868 
L 443.4 328.861868 
L 443.4 16.556315 
L 7.2 16.556315 
L 7.2 328.861868 
z
" style="fill: none; opacity: 0"/>
   </g>
   <g id="frame0030_2bf988_matplotlib.axis_1">
    <g id="frame0030_2bf988_xtick_1">
     <g id="frame0030_2bf988_line2d_1">
      <defs>
       <path id="frame0030_2bf988_mdae1e44209" d="M 0 0 
L 0 3.5 
" style="stroke: #000000; stroke-width: 0.8"/>
      </defs>
      <g>
       <use xlink:href="#frame0030_2bf988_mdae1e44209" x="43.55" y="172.709092" style="stroke: #000000; stroke-width: 0.8"/>
      </g>
     </g>
     <g id="frame0030_2bf988_text_1">
      <!-- $\mathdefault{−5}$ -->
      <g transform="translate(31.232209 193.546088) scale(0.2 -0.2)">
       <defs>
        <path id="frame0030_2bf988_CMSY10-0" d="M 4218 1472 
C 4326 1472 4442 1472 4442 1600 
C 4442 1728 4326 1728 4218 1728 
L 755 1728 
C 646 1728 531 1728 531 1600 
C 531 1472 646 1472 755 1472 
L 4218 1472 
z
" transform="scale(0.015625)"/>
        <path id="frame0030_2bf988_CMR17-35" d="M 730 3692 
C 794 3666 1056 3584 1325 3584 
C 1920 3584 2246 3911 2432 4100 
C 2432 4157 2432 4192 2394 4192 
C 2387 4192 2374 4192 2323 4163 
C 2099 4058 1837 3973 1517 3973 
C 1325 3973 1037 3999 723 4139 
C 653 4171 640 4171 634 4171 
C 602 4171 595 4164 595 4037 
L 595 2203 
C 595 2089 595 2057 659 2057 
C 691 2057 704 2070 736 2114 
C 941 2401 1222 2522 1542 2522 
C 1766 2522 2246 2382 2246 1289 
C 2246 1085 2246 715 2054 421 
C 1894 159 1645 25 1370 25 
C 947 25 518 320 403 814 
C 429 807 480 795 506 795 
C 589 795 749 840 749 1038 
C 749 1210 627 1280 506 1280 
C 358 1280 262 1190 262 1011 
C 262 454 704 -128 1382 -128 
C 2042 -128 2669 440 2669 1264 
C 2669 2030 2170 2624 1549 2624 
C 1222 2624 947 2503 730 2274 
L 730 3692 
z
" transform="scale(0.015625)"/>
       </defs>
       <use xlink:href="#frame0030_2bf988_CMSY10-0" transform="scale(0.996264)"/>
       <use xlink:href="#frame0030_2bf988_CMR17-35" transform="translate(77.487468 0) scale(0.996264)"/>
      </g>
     </g>
    </g>
    <g id="frame0030_2bf988_xtick_2">
     <g id="frame0030_2bf988_line2d_2">
      <g>
       <use xlink:href="#frame0030_2bf988_mdae1e44209" x="79.9" y="172.709092" style="stroke: #000000; stroke-width: 0.8"/>
      </g>
     </g>
     <g id="frame0030_2bf988_text_2">
      <!-- $\mathdefault{−4}$ -->
      <g transform="translate(67.582209 193.546088) scale(0.2 -0.2)">
       <defs>
        <path id="frame0030_2bf988_CMR17-34" d="M 2150 4122 
C 2150 4256 2144 4256 2029 4256 
L 128 1254 
L 128 1088 
L 1779 1088 
L 1779 457 
C 1779 224 1766 160 1318 160 
L 1197 160 
L 1197 0 
C 1402 0 1747 0 1965 0 
C 2182 0 2528 0 2733 0 
L 2733 160 
L 2611 160 
C 2163 160 2150 224 2150 457 
L 2150 1088 
L 2803 1088 
L 2803 1254 
L 2150 1254 
L 2150 4122 
z
M 1798 3703 
L 1798 1254 
L 256 1254 
L 1798 3703 
z
" transform="scale(0.015625)"/>
       </defs>
       <use xlink:href="#frame0030_2bf988_CMSY10-0" transform="scale(0.996264)"/>
       <use xlink:href="#frame0030_2bf988_CMR17-34" transform="translate(77.487468 0) scale(0.996264)"/>
      </g>
     </g>
    </g>
    <g id="frame0030_2bf988_xtick_3">
     <g id="frame0030_2bf988_line2d_3">
      <g>
       <use xlink:href="#frame0030_2bf988_mdae1e44209" x="116.25" y="172.709092" style="stroke: #000000; stroke-width: 0.8"/>
      </g>
     </g>
     <g id="frame0030_2bf988_text_3">
      <!-- $\mathdefault{−3}$ -->
      <g transform="translate(103.932209 193.546088) scale(0.2 -0.2)">
       <defs>
        <path id="frame0030_2bf988_CMR17-33" d="M 1414 2157 
C 1984 2157 2234 1662 2234 1090 
C 2234 320 1824 25 1453 25 
C 1114 25 563 194 390 693 
C 422 680 454 680 486 680 
C 640 680 755 782 755 948 
C 755 1133 614 1216 486 1216 
C 378 1216 211 1165 211 926 
C 211 335 787 -128 1466 -128 
C 2176 -128 2720 430 2720 1085 
C 2720 1707 2208 2157 1600 2227 
C 2086 2328 2554 2756 2554 3329 
C 2554 3820 2048 4179 1472 4179 
C 890 4179 378 3829 378 3329 
C 378 3110 544 3072 627 3072 
C 762 3072 877 3155 877 3321 
C 877 3486 762 3569 627 3569 
C 602 3569 570 3569 544 3557 
C 730 3959 1235 4032 1459 4032 
C 1683 4032 2106 3925 2106 3320 
C 2106 3143 2080 2828 1862 2550 
C 1670 2304 1453 2304 1242 2284 
C 1210 2284 1062 2269 1037 2269 
C 992 2263 966 2257 966 2208 
C 966 2163 973 2157 1101 2157 
L 1414 2157 
z
" transform="scale(0.015625)"/>
       </defs>
       <use xlink:href="#frame0030_2bf988_CMSY10-0" transform="scale(0.996264)"/>
       <use xlink:href="#frame0030_2bf988_CMR17-33" transform="translate(77.487468 0) scale(0.996264)"/>
      </g>
     </g>
    </g>
    <g id="frame0030_2bf988_xtick_4">
     <g id="frame0030_2bf988_line2d_4">
      <g>
       <use xlink:href="#frame0030_2bf988_mdae1e44209" x="152.6" y="172.709092" style="stroke: #000000; stroke-width: 0.8"/>
      </g>
     </g>
     <g id="frame0030_2bf988_text_4">
      <!-- $\mathdefault{−2}$ -->
      <g transform="translate(140.282209 193.546088) scale(0.2 -0.2)">
       <defs>
        <path id="frame0030_2bf988_CMR17-32" d="M 2669 989 
L 2554 989 
C 2490 536 2438 459 2413 420 
C 2381 369 1920 369 1830 369 
L 602 369 
C 832 619 1280 1072 1824 1597 
C 2214 1967 2669 2402 2669 3035 
C 2669 3790 2067 4224 1395 4224 
C 691 4224 262 3604 262 3030 
C 262 2780 448 2748 525 2748 
C 589 2748 781 2787 781 3010 
C 781 3207 614 3264 525 3264 
C 486 3264 448 3258 422 3245 
C 544 3790 915 4058 1306 4058 
C 1862 4058 2227 3617 2227 3035 
C 2227 2479 1901 2000 1536 1584 
L 262 146 
L 262 0 
L 2515 0 
L 2669 989 
z
" transform="scale(0.015625)"/>
       </defs>
       <use xlink:href="#frame0030_2bf988_CMSY10-0" transform="scale(0.996264)"/>
       <use xlink:href="#frame0030_2bf988_CMR17-32" transform="translate(77.487468 0) scale(0.996264)"/>
      </g>
     </g>
    </g>
    <g id="frame0030_2bf988_xtick_5">
     <g id="frame0030_2bf988_line2d_5">
      <g>
       <use xlink:href="#frame0030_2bf988_mdae1e44209" x="188.95" y="172.709092" style="stroke: #000000; stroke-width: 0.8"/>
      </g>
     </g>
     <g id="frame0030_2bf988_text_5">
      <!-- $\mathdefault{−1}$ -->
      <g transform="translate(176.632209 193.546088) scale(0.2 -0.2)">
       <defs>
        <path id="frame0030_2bf988_CMR17-31" d="M 1702 4058 
C 1702 4192 1696 4192 1606 4192 
C 1357 3916 979 3827 621 3827 
C 602 3827 570 3827 563 3808 
C 557 3795 557 3782 557 3648 
C 755 3648 1088 3686 1344 3839 
L 1344 461 
C 1344 236 1331 160 781 160 
L 589 160 
L 589 0 
C 896 0 1216 0 1523 0 
C 1830 0 2150 0 2458 0 
L 2458 160 
L 2266 160 
C 1715 160 1702 230 1702 458 
L 1702 4058 
z
" transform="scale(0.015625)"/>
       </defs>
       <use xlink:href="#frame0030_2bf988_CMSY10-0" transform="scale(0.996264)"/>
       <use xlink:href="#frame0030_2bf988_CMR17-31" transform="translate(77.487468 0) scale(0.996264)"/>
      </g>
     </g>
    </g>
    <g id="frame0030_2bf988_xtick_6">
     <g id="frame0030_2bf988_line2d_6">
      <g>
       <use xlink:href="#frame0030_2bf988_mdae1e44209" x="261.65" y="172.709092" style="stroke: #000000; stroke-width: 0.8"/>
      </g>
     </g>
     <g id="frame0030_2bf988_text_6">
      <!-- $\mathdefault{1}$ -->
      <g transform="translate(257.080952 193.546088) scale(0.2 -0.2)">
       <use xlink:href="#frame0030_2bf988_CMR17-31" transform="scale(0.996264)"/>
      </g>
     </g>
    </g>
    <g id="frame0030_2bf988_xtick_7">
     <g id="frame0030_2bf988_line2d_7">
      <g>
       <use xlink:href="#frame0030_2bf988_mdae1e44209" x="298" y="172.709092" style="stroke: #000000; stroke-width: 0.8"/>
      </g>
     </g>
     <g id="frame0030_2bf988_text_7">
      <!-- $\mathdefault{2}$ -->
      <g transform="translate(293.430952 193.546088) scale(0.2 -0.2)">
       <use xlink:href="#frame0030_2bf988_CMR17-32" transform="scale(0.996264)"/>
      </g>
     </g>
    </g>
    <g id="frame0030_2bf988_xtick_8">
     <g id="frame0030_2bf988_line2d_8">
      <g>
       <use xlink:href="#frame0030_2bf988_mdae1e44209" x="334.35" y="172.709092" style="stroke: #000000; stroke-width: 0.8"/>
      </g>
     </g>
     <g id="frame0030_2bf988_text_8">
      <!-- $\mathdefault{3}$ -->
      <g transform="translate(329.780952 193.546088) scale(0.2 -0.2)">
       <use xlink:href="#frame0030_2bf988_CMR17-33" transform="scale(0.996264)"/>
      </g>
     </g>
    </g>
    <g id="frame0030_2bf988_xtick_9">
     <g id="frame0030_2bf988_line2d_9">
      <g>
       <use xlink:href="#frame0030_2bf988_mdae1e44209" x="370.7" y="172.709092" style="stroke: #000000; stroke-width: 0.8"/>
      </g>
     </g>
     <g id="frame0030_2bf988_text_9">
      <!-- $\mathdefault{4}$ -->
      <g transform="translate(366.130952 193.546088) scale(0.2 -0.2)">
       <use xlink:href="#frame0030_2bf988_CMR17-34" transform="scale(0.996264)"/>
      </g>
     </g>
    </g>
    <g id="frame0030_2bf988_xtick_10">
     <g id="frame0030_2bf988_line2d_10">
      <g>
       <use xlink:href="#frame0030_2bf988_mdae1e44209" x="407.05" y="172.709092" style="stroke: #000000; stroke-width: 0.8"/>
      </g>
     </g>
     <g id="frame0030_2bf988_text_10">
      <!-- $\mathdefault{5}$ -->
      <g transform="translate(402.480952 193.546088) scale(0.2 -0.2)">
       <use xlink:href="#frame0030_2bf988_CMR17-35" transform="scale(0.996264)"/>
      </g>
     </g>
    </g>
    <g id="frame0030_2bf988_text_11">
     <!-- $x$ -->
     <g transform="translate(432.313188 215.258719) scale(0.2 -0.2)">
      <defs>
       <path id="frame0030_2bf988_CMMI12-78" d="M 3034 2606 
C 2829 2567 2752 2414 2752 2293 
C 2752 2139 2874 2088 2963 2088 
C 3155 2088 3290 2254 3290 2427 
C 3290 2695 2982 2816 2714 2816 
C 2323 2816 2106 2433 2048 2312 
C 1901 2816 1504 2816 1389 2816 
C 736 2816 390 1980 390 1839 
C 390 1814 416 1782 461 1782 
C 512 1782 525 1820 538 1846 
C 755 2555 1184 2689 1370 2689 
C 1658 2689 1715 2420 1715 2267 
C 1715 2127 1677 1980 1600 1673 
L 1382 798 
C 1286 415 1101 64 762 64 
C 730 64 570 64 435 147 
C 666 192 717 383 717 460 
C 717 588 621 664 499 664 
C 346 664 179 530 179 326 
C 179 57 480 -64 755 -64 
C 1062 -64 1280 179 1414 441 
C 1517 64 1837 -64 2074 -64 
C 2726 -64 3072 773 3072 913 
C 3072 945 3046 971 3008 971 
C 2950 971 2944 939 2925 888 
C 2752 326 2381 64 2093 64 
C 1869 64 1747 230 1747 492 
C 1747 632 1773 734 1875 1156 
L 2099 2024 
C 2195 2408 2413 2689 2707 2689 
C 2720 2689 2899 2689 3034 2606 
z
" transform="scale(0.015625)"/>
      </defs>
      <use xlink:href="#frame0030_2bf988_CMMI12-78" transform="scale(0.996264)"/>
     </g>
    </g>
   </g>
   <g id="frame0030_2bf988_matplotlib.axis_2">
    <g id="frame0030_2bf988_text_12">
     <!-- $y$ -->
     <g transform="translate(211.787165 12.680682) scale(0.2 -0.2)">
      <defs>
       <path id="frame0030_2bf988_CMMI12-79" d="M 1683 -700 
C 1510 -939 1261 -1152 947 -1152 
C 870 -1152 563 -1152 467 -889 
C 486 -895 518 -895 531 -895 
C 723 -895 851 -729 851 -582 
C 851 -435 730 -384 634 -384 
C 531 -384 307 -458 307 -759 
C 307 -1071 582 -1286 947 -1286 
C 1587 -1286 2234 -700 2413 6 
L 3040 2485 
C 3046 2517 3059 2556 3059 2594 
C 3059 2689 2982 2753 2886 2753 
C 2829 2753 2694 2727 2643 2535 
L 2170 658 
C 2138 543 2138 530 2086 460 
C 1958 281 1747 64 1440 64 
C 1082 64 1050 415 1050 588 
C 1050 952 1222 1443 1395 1903 
C 1466 2088 1504 2178 1504 2305 
C 1504 2574 1312 2816 998 2816 
C 410 2816 173 1890 173 1839 
C 173 1814 198 1782 243 1782 
C 301 1782 307 1807 333 1897 
C 486 2433 730 2689 979 2689 
C 1037 2689 1146 2689 1146 2478 
C 1146 2312 1075 2127 979 1884 
C 666 1047 666 837 666 683 
C 666 77 1101 -64 1421 -64 
C 1606 -64 1837 -6 2061 230 
L 2067 224 
C 1971 -147 1907 -392 1683 -700 
z
" transform="scale(0.015625)"/>
      </defs>
      <use xlink:href="#frame0030_2bf988_CMMI12-79" transform="scale(0.996264)"/>
     </g>
    </g>
   </g>
   <g id="frame0030_2bf988_line2d_11">
    <defs>
     <path id="frame0030_2bf988_m116d64eba1" d="M 3 0 
L -3 -3 
L -3 3 
z
" style="stroke: #000000; stroke-linejoin: miter"/>
    </defs>
    <g>
     <use xlink:href="#frame0030_2bf988_m116d64eba1" x="443.4" y="172.709092" style="stroke: #000000; stroke-linejoin: miter"/>
    </g>
   </g>
   <g id="frame0030_2bf988_line2d_12">
    <defs>
     <path id="frame0030_2bf988_m7471dd1105" d="M 0 -3 
L -3 3 
L 3 3 
z
" style="stroke: #000000; stroke-linejoin: miter"/>
    </defs>
    <g>
     <use xlink:href="#frame0030_2bf988_m7471dd1105" x="225.3" y="16.556315" style="stroke: #000000; stroke-linejoin: miter"/>
    </g>
   </g>
   <g id="frame0030_2bf988_line2d_13">
    <path d="M 33.266166 337.061868 
L 39.301299 323.605418 
L 45.385859 310.583501 
L 51.260606 298.529555 
L 57.135354 286.985443 
L 62.800289 276.336468 
L 68.465224 266.161561 
L 73.920346 256.811559 
L 76.438095 252.644441 
L 76.438095 252.644441 
" clip-path="url(#frame0030_2bf988_pc62f63d256)" style="fill: none; stroke: #0072b2; stroke-width: 2.5; stroke-linecap: square"/>
   </g>
   <g id="frame0030_2bf988_line2d_14">
    <path d="M 76.438095 252.644441 
L 80.444835 254.779843 
L 84.451576 256.678089 
L 88.458316 258.339179 
L 92.465056 259.763113 
L 96.471796 260.949893 
L 100.478537 261.899516 
L 104.485277 262.611984 
L 108.492017 263.087297 
L 112.498757 263.325454 
L 116.505497 263.326455 
L 120.512238 263.090301 
L 124.518978 262.616992 
L 128.525718 261.906527 
L 132.532458 260.958906 
L 136.539198 259.77413 
L 140.545939 258.352198 
L 144.552679 256.693111 
L 148.559419 254.796868 
L 152.566159 252.66347 
L 156.5729 250.292916 
L 160.57964 247.685207 
L 165.087222 244.468059 
L 169.594805 240.950761 
L 174.102388 237.133313 
L 178.609971 233.015715 
L 183.117553 228.597967 
L 187.625136 223.880069 
L 192.132719 218.862021 
L 197.141144 212.934385 
L 202.149569 206.636193 
L 207.157995 199.967445 
L 212.16642 192.928142 
L 217.174845 185.518284 
L 222.18327 177.73787 
L 227.692538 168.751423 
L 233.201806 159.316603 
L 238.711074 149.433412 
L 244.220342 139.101848 
L 249.729609 128.321912 
L 255.73972 116.050616 
L 261.74983 103.245719 
L 267.75994 89.907223 
L 273.770051 76.035126 
L 279.780161 61.62943 
L 286.291114 45.421106 
L 292.802067 28.586543 
L 299.31302 11.125742 
L 303.70267 -1 
L 303.70267 -1 
" clip-path="url(#frame0030_2bf988_pc62f63d256)" style="fill: none; stroke: #dc5e8b; stroke-width: 2.5; stroke-linecap: square"/>
   </g>
   <g id="frame0030_2bf988_patch_3">
    <path d="M 225.3 328.861868 
L 225.3 16.556315 
" style="fill: none; stroke: #000000; stroke-width: 0.8; stroke-linejoin: miter; stroke-linecap: square"/>
   </g>
   <g id="frame0030_2bf988_patch_4">
    <path d="M 443.4 328.861868 
L 443.4 16.556315 
" style="fill: none"/>
   </g>
   <g id="frame0030_2bf988_patch_5">
    <path d="M 7.2 172.709092 
L 443.4 172.709092 
" style="fill: none; stroke: #000000; stroke-width: 0.8; stroke-linejoin: miter; stroke-linecap: square"/>
   </g>
   <g id="frame0030_2bf988_patch_6">
    <path d="M 7.2 16.556315 
L 443.4 16.556315 
" style="fill: none"/>
   </g>
   <g id="frame0030_2bf988_line2d_15">
    <path clip-path="url(#frame0030_2bf988_pc62f63d256)" style="fill: none; stroke: #0072b2; stroke-width: 2"/>
   </g>
   <g id="frame0030_2bf988_line2d_16">
    <path clip-path="url(#frame0030_2bf988_pc62f63d256)" style="fill: none; stroke: #0072b2; stroke-width: 2"/>
   </g>
   <g id="frame0030_2bf988_line2d_17">
    <path d="M 76.438095 252.644441 
L 65.755109 252.871189 
" clip-path="url(#frame0030_2bf988_pc62f63d256)" style="fill: none; stroke: #0072b2; stroke-width: 2"/>
   </g>
   <g id="frame0030_2bf988_line2d_18">
    <path d="M 76.438095 252.644441 
L 81.118481 262.250252 
" clip-path="url(#frame0030_2bf988_pc62f63d256)" style="fill: none; stroke: #0072b2; stroke-width: 2"/>
   </g>
   <g id="frame0030_2bf988_line2d_19">
    <path d="M 72.047559 260.500852 
L 80.828631 244.78803 
" clip-path="url(#frame0030_2bf988_pc62f63d256)" style="fill: none; stroke: #dc5e8b; stroke-width: 2"/>
   </g>
   <g id="frame0030_2bf988_line2d_20">
    <path d="M 80.828631 244.78803 
L 85.856734 247.597973 
" clip-path="url(#frame0030_2bf988_pc62f63d256)" style="fill: none; stroke: #dc5e8b; stroke-width: 2"/>
   </g>
   <g id="frame0030_2bf988_line2d_21">
    <path d="M 72.047559 260.500852 
L 77.075662 263.310795 
" clip-path="url(#frame0030_2bf988_pc62f63d256)" style="fill: none; stroke: #dc5e8b; stroke-width: 2"/>
   </g>
   <g id="frame0030_2bf988_line2d_22">
    <path clip-path="url(#frame0030_2bf988_pc62f63d256)" style="fill: none; stroke: #dc5e8b; stroke-width: 2"/>
   </g>
   <g id="frame0030_2bf988_line2d_23">
    <path clip-path="url(#frame0030_2bf988_pc62f63d256)" style="fill: none; stroke: #dc5e8b; stroke-width: 2"/>
   </g>
  </g>
 </g>
 <defs>
  <clipPath id="frame0030_2bf988_pc62f63d256">
   <rect x="7.2" y="16.556315" width="436.2" height="312.305553"/>
  </clipPath>
 </defs>
</svg>
