<?xml version="1.0" encoding="utf-8" standalone="no"?>
<!DOCTYPE svg PUBLIC "-//W3C//DTD SVG 1.1//EN"
  "http://www.w3.org/Graphics/SVG/1.1/DTD/svg11.dtd">
<svg xmlns:xlink="http://www.w3.org/1999/xlink" width="453.6pt" height="336.061868pt" viewBox="0 0 453.6 336.061868" xmlns="http://www.w3.org/2000/svg" version="1.1">
 <metadata>
  <rdf:RDF xmlns:dc="http://purl.org/dc/elements/1.1/" xmlns:cc="http://creativecommons.org/ns#" xmlns:rdf="http://www.w3.org/1999/02/22-rdf-syntax-ns#">
   <cc:Work>
    <dc:type rdf:resource="http://purl.org/dc/dcmitype/StillImage"/>
    <dc:date>2026-01-22T01:55:45.894523</dc:date>
    <dc:format>image/svg+xml</dc:format>
    <dc:creator>
     <cc:Agent>
      <dc:title>Matplotlib v3.9.1, https://matplotlib.org/</dc:title>
     </cc:Agent>
    </dc:creator>
   </cc:Work>
  </rdf:RDF>
 </metadata>
 <defs>
  <style type="text/css">*{stroke-linejoin: round; stroke-linecap: butt}</style>
 </defs>
 <g id="frame0008_1a80a9_figure_1">
  <g id="frame0008_1a80a9_patch_1">
   <path d="M 0 336.061868 
L 453.6 336.061868 
L 453.6 0 
L 0 0 
L 0 336.061868 
z
" style="fill: none; opacity: 0"/>
  </g>
  <g id="frame0008_1a80a9_axes_1">
   <g id="frame0008_1a80a9_patch_2">
    <path d="M 7.2 328.861868 
L 443.4 328.861868 
L 443.4 16.556315 
L 7.2 16.556315 
L 7.2 328.861868 
z
" style="fill: none; opacity: 0"/>
   </g>
   <g id="frame0008_1a80a9_matplotlib.axis_1">
    <g id="frame0008_1a80a9_xtick_1">
     <g id="frame0008_1a80a9_line2d_1">
      <defs>
       <path id="frame0008_1a80a9_mb5dd80f3aa" d="M 0 0 
L 0 3.5 
" style="stroke: #000000; stroke-width: 0.8"/>
      </defs>
      <g>
       <use xlink:href="#frame0008_1a80a9_mb5dd80f3aa" x="43.55" y="172.709092" style="stroke: #000000; stroke-width: 0.8"/>
      </g>
     </g>
     <g id="frame0008_1a80a9_text_1">
      <!-- $\mathdefault{−5}$ -->
      <g transform="translate(31.232209 193.546088) scale(0.2 -0.2)">
       <defs>
        <path id="frame0008_1a80a9_CMSY10-0" d="M 4218 1472 
C 4326 1472 4442 1472 4442 1600 
C 4442 1728 4326 1728 4218 1728 
L 755 1728 
C 646 1728 531 1728 531 1600 
C 531 1472 646 1472 755 1472 
L 4218 1472 
z
" transform="scale(0.015625)"/>
        <path id="frame0008_1a80a9_CMR17-35" d="M 730 3692 
C 794 3666 1056 3584 1325 3584 
C 1920 3584 2246 3911 2432 4100 
C 2432 4157 2432 4192 2394 4192 
C 2387 4192 2374 4192 2323 4163 
C 2099 4058 1837 3973 1517 3973 
C 1325 3973 1037 3999 723 4139 
C 653 4171 640 4171 634 4171 
C 602 4171 595 4164 595 4037 
L 595 2203 
C 595 2089 595 2057 659 2057 
C 691 2057 704 2070 736 2114 
C 941 2401 1222 2522 1542 2522 
C 1766 2522 2246 2382 2246 1289 
C 2246 1085 2246 715 2054 421 
C 1894 159 1645 25 1370 25 
C 947 25 518 320 403 814 
C 429 807 480 795 506 795 
C 589 795 749 840 749 1038 
C 749 1210 627 1280 506 1280 
C 358 1280 262 1190 262 1011 
C 262 454 704 -128 1382 -128 
C 2042 -128 2669 440 2669 1264 
C 2669 2030 2170 2624 1549 2624 
C 1222 2624 947 2503 730 2274 
L 730 3692 
z
" transform="scale(0.015625)"/>
       </defs>
       <use xlink:href="#frame0008_1a80a9_CMSY10-0" transform="scale(0.996264)"/>
       <use xlink:href="#frame0008_1a80a9_CMR17-35" transform="translate(77.487468 0) scale(0.996264)"/>
      </g>
     </g>
    </g>
    <g id="frame0008_1a80a9_xtick_2">
     <g id="frame0008_1a80a9_line2d_2">
      <g>
       <use xlink:href="#frame0008_1a80a9_mb5dd80f3aa" x="79.9" y="172.709092" style="stroke: #000000; stroke-width: 0.8"/>
      </g>
     </g>
     <g id="frame0008_1a80a9_text_2">
      <!-- $\mathdefault{−4}$ -->
      <g transform="translate(67.582209 193.546088) scale(0.2 -0.2)">
       <defs>
        <path id="frame0008_1a80a9_CMR17-34" d="M 2150 4122 
C 2150 4256 2144 4256 2029 4256 
L 128 1254 
L 128 1088 
L 1779 1088 
L 1779 457 
C 1779 224 1766 160 1318 160 
L 1197 160 
L 1197 0 
C 1402 0 1747 0 1965 0 
C 2182 0 2528 0 2733 0 
L 2733 160 
L 2611 160 
C 2163 160 2150 224 2150 457 
L 2150 1088 
L 2803 1088 
L 2803 1254 
L 2150 1254 
L 2150 4122 
z
M 1798 3703 
L 1798 1254 
L 256 1254 
L 1798 3703 
z
" transform="scale(0.015625)"/>
       </defs>
       <use xlink:href="#frame0008_1a80a9_CMSY10-0" transform="scale(0.996264)"/>
       <use xlink:href="#frame0008_1a80a9_CMR17-34" transform="translate(77.487468 0) scale(0.996264)"/>
      </g>
     </g>
    </g>
    <g id="frame0008_1a80a9_xtick_3">
     <g id="frame0008_1a80a9_line2d_3">
      <g>
       <use xlink:href="#frame0008_1a80a9_mb5dd80f3aa" x="116.25" y="172.709092" style="stroke: #000000; stroke-width: 0.8"/>
      </g>
     </g>
     <g id="frame0008_1a80a9_text_3">
      <!-- $\mathdefault{−3}$ -->
      <g transform="translate(103.932209 193.546088) scale(0.2 -0.2)">
       <defs>
        <path id="frame0008_1a80a9_CMR17-33" d="M 1414 2157 
C 1984 2157 2234 1662 2234 1090 
C 2234 320 1824 25 1453 25 
C 1114 25 563 194 390 693 
C 422 680 454 680 486 680 
C 640 680 755 782 755 948 
C 755 1133 614 1216 486 1216 
C 378 1216 211 1165 211 926 
C 211 335 787 -128 1466 -128 
C 2176 -128 2720 430 2720 1085 
C 2720 1707 2208 2157 1600 2227 
C 2086 2328 2554 2756 2554 3329 
C 2554 3820 2048 4179 1472 4179 
C 890 4179 378 3829 378 3329 
C 378 3110 544 3072 627 3072 
C 762 3072 877 3155 877 3321 
C 877 3486 762 3569 627 3569 
C 602 3569 570 3569 544 3557 
C 730 3959 1235 4032 1459 4032 
C 1683 4032 2106 3925 2106 3320 
C 2106 3143 2080 2828 1862 2550 
C 1670 2304 1453 2304 1242 2284 
C 1210 2284 1062 2269 1037 2269 
C 992 2263 966 2257 966 2208 
C 966 2163 973 2157 1101 2157 
L 1414 2157 
z
" transform="scale(0.015625)"/>
       </defs>
       <use xlink:href="#frame0008_1a80a9_CMSY10-0" transform="scale(0.996264)"/>
       <use xlink:href="#frame0008_1a80a9_CMR17-33" transform="translate(77.487468 0) scale(0.996264)"/>
      </g>
     </g>
    </g>
    <g id="frame0008_1a80a9_xtick_4">
     <g id="frame0008_1a80a9_line2d_4">
      <g>
       <use xlink:href="#frame0008_1a80a9_mb5dd80f3aa" x="152.6" y="172.709092" style="stroke: #000000; stroke-width: 0.8"/>
      </g>
     </g>
     <g id="frame0008_1a80a9_text_4">
      <!-- $\mathdefault{−2}$ -->
      <g transform="translate(140.282209 193.546088) scale(0.2 -0.2)">
       <defs>
        <path id="frame0008_1a80a9_CMR17-32" d="M 2669 989 
L 2554 989 
C 2490 536 2438 459 2413 420 
C 2381 369 1920 369 1830 369 
L 602 369 
C 832 619 1280 1072 1824 1597 
C 2214 1967 2669 2402 2669 3035 
C 2669 3790 2067 4224 1395 4224 
C 691 4224 262 3604 262 3030 
C 262 2780 448 2748 525 2748 
C 589 2748 781 2787 781 3010 
C 781 3207 614 3264 525 3264 
C 486 3264 448 3258 422 3245 
C 544 3790 915 4058 1306 4058 
C 1862 4058 2227 3617 2227 3035 
C 2227 2479 1901 2000 1536 1584 
L 262 146 
L 262 0 
L 2515 0 
L 2669 989 
z
" transform="scale(0.015625)"/>
       </defs>
       <use xlink:href="#frame0008_1a80a9_CMSY10-0" transform="scale(0.996264)"/>
       <use xlink:href="#frame0008_1a80a9_CMR17-32" transform="translate(77.487468 0) scale(0.996264)"/>
      </g>
     </g>
    </g>
    <g id="frame0008_1a80a9_xtick_5">
     <g id="frame0008_1a80a9_line2d_5">
      <g>
       <use xlink:href="#frame0008_1a80a9_mb5dd80f3aa" x="188.95" y="172.709092" style="stroke: #000000; stroke-width: 0.8"/>
      </g>
     </g>
     <g id="frame0008_1a80a9_text_5">
      <!-- $\mathdefault{−1}$ -->
      <g transform="translate(176.632209 193.546088) scale(0.2 -0.2)">
       <defs>
        <path id="frame0008_1a80a9_CMR17-31" d="M 1702 4058 
C 1702 4192 1696 4192 1606 4192 
C 1357 3916 979 3827 621 3827 
C 602 3827 570 3827 563 3808 
C 557 3795 557 3782 557 3648 
C 755 3648 1088 3686 1344 3839 
L 1344 461 
C 1344 236 1331 160 781 160 
L 589 160 
L 589 0 
C 896 0 1216 0 1523 0 
C 1830 0 2150 0 2458 0 
L 2458 160 
L 2266 160 
C 1715 160 1702 230 1702 458 
L 1702 4058 
z
" transform="scale(0.015625)"/>
       </defs>
       <use xlink:href="#frame0008_1a80a9_CMSY10-0" transform="scale(0.996264)"/>
       <use xlink:href="#frame0008_1a80a9_CMR17-31" transform="translate(77.487468 0) scale(0.996264)"/>
      </g>
     </g>
    </g>
    <g id="frame0008_1a80a9_xtick_6">
     <g id="frame0008_1a80a9_line2d_6">
      <g>
       <use xlink:href="#frame0008_1a80a9_mb5dd80f3aa" x="261.65" y="172.709092" style="stroke: #000000; stroke-width: 0.8"/>
      </g>
     </g>
     <g id="frame0008_1a80a9_text_6">
      <!-- $\mathdefault{1}$ -->
      <g transform="translate(257.080952 193.546088) scale(0.2 -0.2)">
       <use xlink:href="#frame0008_1a80a9_CMR17-31" transform="scale(0.996264)"/>
      </g>
     </g>
    </g>
    <g id="frame0008_1a80a9_xtick_7">
     <g id="frame0008_1a80a9_line2d_7">
      <g>
       <use xlink:href="#frame0008_1a80a9_mb5dd80f3aa" x="298" y="172.709092" style="stroke: #000000; stroke-width: 0.8"/>
      </g>
     </g>
     <g id="frame0008_1a80a9_text_7">
      <!-- $\mathdefault{2}$ -->
      <g transform="translate(293.430952 193.546088) scale(0.2 -0.2)">
       <use xlink:href="#frame0008_1a80a9_CMR17-32" transform="scale(0.996264)"/>
      </g>
     </g>
    </g>
    <g id="frame0008_1a80a9_xtick_8">
     <g id="frame0008_1a80a9_line2d_8">
      <g>
       <use xlink:href="#frame0008_1a80a9_mb5dd80f3aa" x="334.35" y="172.709092" style="stroke: #000000; stroke-width: 0.8"/>
      </g>
     </g>
     <g id="frame0008_1a80a9_text_8">
      <!-- $\mathdefault{3}$ -->
      <g transform="translate(329.780952 193.546088) scale(0.2 -0.2)">
       <use xlink:href="#frame0008_1a80a9_CMR17-33" transform="scale(0.996264)"/>
      </g>
     </g>
    </g>
    <g id="frame0008_1a80a9_xtick_9">
     <g id="frame0008_1a80a9_line2d_9">
      <g>
       <use xlink:href="#frame0008_1a80a9_mb5dd80f3aa" x="370.7" y="172.709092" style="stroke: #000000; stroke-width: 0.8"/>
      </g>
     </g>
     <g id="frame0008_1a80a9_text_9">
      <!-- $\mathdefault{4}$ -->
      <g transform="translate(366.130952 193.546088) scale(0.2 -0.2)">
       <use xlink:href="#frame0008_1a80a9_CMR17-34" transform="scale(0.996264)"/>
      </g>
     </g>
    </g>
    <g id="frame0008_1a80a9_xtick_10">
     <g id="frame0008_1a80a9_line2d_10">
      <g>
       <use xlink:href="#frame0008_1a80a9_mb5dd80f3aa" x="407.05" y="172.709092" style="stroke: #000000; stroke-width: 0.8"/>
      </g>
     </g>
     <g id="frame0008_1a80a9_text_10">
      <!-- $\mathdefault{5}$ -->
      <g transform="translate(402.480952 193.546088) scale(0.2 -0.2)">
       <use xlink:href="#frame0008_1a80a9_CMR17-35" transform="scale(0.996264)"/>
      </g>
     </g>
    </g>
    <g id="frame0008_1a80a9_text_11">
     <!-- $x$ -->
     <g transform="translate(432.313188 215.258719) scale(0.2 -0.2)">
      <defs>
       <path id="frame0008_1a80a9_CMMI12-78" d="M 3034 2606 
C 2829 2567 2752 2414 2752 2293 
C 2752 2139 2874 2088 2963 2088 
C 3155 2088 3290 2254 3290 2427 
C 3290 2695 2982 2816 2714 2816 
C 2323 2816 2106 2433 2048 2312 
C 1901 2816 1504 2816 1389 2816 
C 736 2816 390 1980 390 1839 
C 390 1814 416 1782 461 1782 
C 512 1782 525 1820 538 1846 
C 755 2555 1184 2689 1370 2689 
C 1658 2689 1715 2420 1715 2267 
C 1715 2127 1677 1980 1600 1673 
L 1382 798 
C 1286 415 1101 64 762 64 
C 730 64 570 64 435 147 
C 666 192 717 383 717 460 
C 717 588 621 664 499 664 
C 346 664 179 530 179 326 
C 179 57 480 -64 755 -64 
C 1062 -64 1280 179 1414 441 
C 1517 64 1837 -64 2074 -64 
C 2726 -64 3072 773 3072 913 
C 3072 945 3046 971 3008 971 
C 2950 971 2944 939 2925 888 
C 2752 326 2381 64 2093 64 
C 1869 64 1747 230 1747 492 
C 1747 632 1773 734 1875 1156 
L 2099 2024 
C 2195 2408 2413 2689 2707 2689 
C 2720 2689 2899 2689 3034 2606 
z
" transform="scale(0.015625)"/>
      </defs>
      <use xlink:href="#frame0008_1a80a9_CMMI12-78" transform="scale(0.996264)"/>
     </g>
    </g>
   </g>
   <g id="frame0008_1a80a9_matplotlib.axis_2">
    <g id="frame0008_1a80a9_text_12">
     <!-- $y$ -->
     <g transform="translate(211.787165 12.680682) scale(0.2 -0.2)">
      <defs>
       <path id="frame0008_1a80a9_CMMI12-79" d="M 1683 -700 
C 1510 -939 1261 -1152 947 -1152 
C 870 -1152 563 -1152 467 -889 
C 486 -895 518 -895 531 -895 
C 723 -895 851 -729 851 -582 
C 851 -435 730 -384 634 -384 
C 531 -384 307 -458 307 -759 
C 307 -1071 582 -1286 947 -1286 
C 1587 -1286 2234 -700 2413 6 
L 3040 2485 
C 3046 2517 3059 2556 3059 2594 
C 3059 2689 2982 2753 2886 2753 
C 2829 2753 2694 2727 2643 2535 
L 2170 658 
C 2138 543 2138 530 2086 460 
C 1958 281 1747 64 1440 64 
C 1082 64 1050 415 1050 588 
C 1050 952 1222 1443 1395 1903 
C 1466 2088 1504 2178 1504 2305 
C 1504 2574 1312 2816 998 2816 
C 410 2816 173 1890 173 1839 
C 173 1814 198 1782 243 1782 
C 301 1782 307 1807 333 1897 
C 486 2433 730 2689 979 2689 
C 1037 2689 1146 2689 1146 2478 
C 1146 2312 1075 2127 979 1884 
C 666 1047 666 837 666 683 
C 666 77 1101 -64 1421 -64 
C 1606 -64 1837 -6 2061 230 
L 2067 224 
C 1971 -147 1907 -392 1683 -700 
z
" transform="scale(0.015625)"/>
      </defs>
      <use xlink:href="#frame0008_1a80a9_CMMI12-79" transform="scale(0.996264)"/>
     </g>
    </g>
   </g>
   <g id="frame0008_1a80a9_line2d_11">
    <defs>
     <path id="frame0008_1a80a9_mc96bd23793" d="M 3 0 
L -3 -3 
L -3 3 
z
" style="stroke: #000000; stroke-linejoin: miter"/>
    </defs>
    <g>
     <use xlink:href="#frame0008_1a80a9_mc96bd23793" x="443.4" y="172.709092" style="stroke: #000000; stroke-linejoin: miter"/>
    </g>
   </g>
   <g id="frame0008_1a80a9_line2d_12">
    <defs>
     <path id="frame0008_1a80a9_me4c8312552" d="M 0 -3 
L -3 3 
L 3 3 
z
" style="stroke: #000000; stroke-linejoin: miter"/>
    </defs>
    <g>
     <use xlink:href="#frame0008_1a80a9_me4c8312552" x="225.3" y="16.556315" style="stroke: #000000; stroke-linejoin: miter"/>
    </g>
   </g>
   <g id="frame0008_1a80a9_line2d_13">
    <path d="M 7.082686 319.835141 
L 7.242865 319.469158 
L 7.403044 319.103554 
L 7.563224 318.738329 
L 7.723403 318.373484 
L 7.883582 318.009017 
L 8.043762 317.644929 
L 8.203941 317.281221 
L 8.36412 316.917891 
L 8.5243 316.55494 
L 8.684479 316.192369 
L 8.844659 315.830176 
L 9.004838 315.468363 
L 9.165017 315.106928 
L 9.325197 314.745873 
L 9.485376 314.385196 
L 9.645555 314.024899 
L 9.805735 313.66498 
L 9.965914 313.305441 
L 10.126093 312.946281 
L 10.286273 312.587499 
L 10.446452 312.229097 
L 10.606632 311.871073 
L 10.766811 311.513429 
L 10.92699 311.156164 
L 11.08717 310.799278 
L 11.247349 310.44277 
L 11.407528 310.086642 
L 11.567708 309.730893 
L 11.727887 309.375523 
L 11.888067 309.020532 
L 12.048246 308.665919 
L 12.208425 308.311686 
L 12.368605 307.957832 
L 12.528784 307.604357 
L 12.688963 307.251261 
L 12.849143 306.898544 
L 13.009322 306.546206 
L 13.169501 306.194247 
L 13.329681 305.842667 
L 13.48986 305.491466 
L 13.65004 305.140644 
L 13.810219 304.790201 
L 13.970398 304.440137 
L 14.130578 304.090453 
L 14.290757 303.741147 
L 14.450936 303.39222 
L 14.611116 303.043672 
L 14.771295 302.695503 
L 14.931474 302.347714 
L 15.091654 302.000303 
L 15.251833 301.653271 
L 15.412013 301.306619 
L 15.572192 300.960345 
L 15.732371 300.61445 
L 15.892551 300.268935 
L 16.05273 299.923798 
L 16.212909 299.57904 
L 16.373089 299.234662 
L 16.533268 298.890662 
L 16.693448 298.547042 
L 16.853627 298.2038 
L 17.013806 297.860938 
L 17.173986 297.518454 
L 17.334165 297.17635 
L 17.494344 296.834625 
L 17.654524 296.493278 
L 17.814703 296.152311 
L 17.974882 295.811723 
L 18.135062 295.471513 
L 18.295241 295.131683 
L 18.455421 294.792232 
L 18.6156 294.453159 
L 18.775779 294.114466 
L 18.935959 293.776152 
L 19.096138 293.438217 
L 19.256317 293.100661 
L 19.416497 292.763484 
L 19.576676 292.426685 
L 19.736855 292.090266 
L 19.897035 291.754226 
L 20.057214 291.418565 
L 20.217394 291.083283 
L 20.377573 290.74838 
L 20.537752 290.413856 
L 20.697932 290.079711 
L 20.858111 289.745945 
L 21.01829 289.412558 
L 21.17847 289.07955 
L 21.338649 288.746922 
L 21.498829 288.414672 
L 21.659008 288.082801 
L 21.819187 287.751309 
L 21.979367 287.420196 
L 22.139546 287.089462 
L 22.299725 286.759108 
L 22.459905 286.429132 
L 22.620084 286.099535 
L 22.780263 285.770318 
L 22.940443 285.441479 
L 23.100622 285.113019 
L 23.260802 284.784939 
L 23.420981 284.457237 
L 23.58116 284.129914 
L 23.74134 283.802971 
L 23.901519 283.476406 
L 24.061698 283.150221 
L 24.221878 282.824414 
L 24.382057 282.498987 
L 24.542236 282.173938 
L 24.702416 281.849269 
L 24.862595 281.524979 
L 25.022775 281.201067 
L 25.182954 280.877535 
L 25.343133 280.554382 
L 25.503313 280.231607 
L 25.663492 279.909212 
" clip-path="url(#frame0008_1a80a9_p1101adfce6)" style="fill: none; stroke: #0072b2; stroke-width: 2.5; stroke-linecap: square"/>
   </g>
   <g id="frame0008_1a80a9_line2d_14">
    <path d="M 25.663492 279.909212 
L 30.067297 283.894878 
L 34.471101 287.594056 
L 38.874906 291.006746 
L 43.27871 294.132948 
L 47.682515 296.972661 
L 52.086319 299.525885 
L 56.490124 301.792622 
L 60.343453 303.541006 
L 64.196782 305.070048 
L 68.050111 306.379747 
L 71.90344 307.470103 
L 75.756769 308.341117 
L 79.610098 308.992788 
L 83.463427 309.425116 
L 87.316756 309.638102 
L 91.170085 309.631745 
L 95.023414 309.406046 
L 98.876743 308.961004 
L 102.730072 308.296619 
L 106.583401 307.412892 
L 110.43673 306.309822 
L 114.290059 304.987409 
L 118.143388 303.445654 
L 121.996717 301.684556 
L 125.850046 299.704115 
L 130.25385 297.172171 
L 134.657655 294.35374 
L 139.061459 291.248819 
L 143.465264 287.857411 
L 147.869069 284.179514 
L 152.272873 280.215128 
L 156.676678 275.964255 
L 161.080482 271.426893 
L 166.034762 265.979918 
L 170.989042 260.170355 
L 175.943323 253.998206 
L 180.897603 247.463471 
L 185.851883 240.566148 
L 190.806163 233.306239 
L 195.760443 225.683742 
L 201.265199 216.789046 
L 206.769955 207.446711 
L 212.27471 197.656739 
L 217.779466 187.419128 
L 223.284222 176.73388 
L 229.339453 164.463084 
L 235.394684 151.650647 
L 241.449915 138.296567 
L 247.505147 124.400846 
L 253.560378 109.963482 
L 259.615609 94.984477 
L 266.221316 78.026003 
L 272.827023 60.42293 
L 279.43273 42.175259 
L 286.038437 23.282988 
L 292.644143 3.746119 
L 294.216667 -1 
L 294.216667 -1 
" clip-path="url(#frame0008_1a80a9_p1101adfce6)" style="fill: none; stroke: #dc5e8b; stroke-width: 2.5; stroke-linecap: square"/>
   </g>
   <g id="frame0008_1a80a9_patch_3">
    <path d="M 225.3 328.861868 
L 225.3 16.556315 
" style="fill: none; stroke: #000000; stroke-width: 0.8; stroke-linejoin: miter; stroke-linecap: square"/>
   </g>
   <g id="frame0008_1a80a9_patch_4">
    <path d="M 443.4 328.861868 
L 443.4 16.556315 
" style="fill: none"/>
   </g>
   <g id="frame0008_1a80a9_patch_5">
    <path d="M 7.2 172.709092 
L 443.4 172.709092 
" style="fill: none; stroke: #000000; stroke-width: 0.8; stroke-linejoin: miter; stroke-linecap: square"/>
   </g>
   <g id="frame0008_1a80a9_patch_6">
    <path d="M 7.2 16.556315 
L 443.4 16.556315 
" style="fill: none"/>
   </g>
   <g id="frame0008_1a80a9_line2d_15">
    <path clip-path="url(#frame0008_1a80a9_p1101adfce6)" style="fill: none; stroke: #0072b2; stroke-width: 2"/>
   </g>
   <g id="frame0008_1a80a9_line2d_16">
    <path clip-path="url(#frame0008_1a80a9_p1101adfce6)" style="fill: none; stroke: #0072b2; stroke-width: 2"/>
   </g>
   <g id="frame0008_1a80a9_line2d_17">
    <path d="M 25.663492 279.909212 
L 15.040582 281.06307 
" clip-path="url(#frame0008_1a80a9_p1101adfce6)" style="fill: none; stroke: #0072b2; stroke-width: 2"/>
   </g>
   <g id="frame0008_1a80a9_line2d_18">
    <path d="M 25.663492 279.909212 
L 31.160586 289.072157 
" clip-path="url(#frame0008_1a80a9_p1101adfce6)" style="fill: none; stroke: #0072b2; stroke-width: 2"/>
   </g>
   <g id="frame0008_1a80a9_line2d_19">
    <path d="M 19.521999 286.488122 
L 31.804985 273.330301 
" clip-path="url(#frame0008_1a80a9_p1101adfce6)" style="fill: none; stroke: #dc5e8b; stroke-width: 2"/>
   </g>
   <g id="frame0008_1a80a9_line2d_20">
    <path d="M 31.804985 273.330301 
L 36.015488 277.260857 
" clip-path="url(#frame0008_1a80a9_p1101adfce6)" style="fill: none; stroke: #dc5e8b; stroke-width: 2"/>
   </g>
   <g id="frame0008_1a80a9_line2d_21">
    <path d="M 19.521999 286.488122 
L 23.732502 290.418678 
" clip-path="url(#frame0008_1a80a9_p1101adfce6)" style="fill: none; stroke: #dc5e8b; stroke-width: 2"/>
   </g>
   <g id="frame0008_1a80a9_line2d_22">
    <path clip-path="url(#frame0008_1a80a9_p1101adfce6)" style="fill: none; stroke: #dc5e8b; stroke-width: 2"/>
   </g>
   <g id="frame0008_1a80a9_line2d_23">
    <path clip-path="url(#frame0008_1a80a9_p1101adfce6)" style="fill: none; stroke: #dc5e8b; stroke-width: 2"/>
   </g>
  </g>
 </g>
 <defs>
  <clipPath id="frame0008_1a80a9_p1101adfce6">
   <rect x="7.2" y="16.556315" width="436.2" height="312.305553"/>
  </clipPath>
 </defs>
</svg>
