<?xml version="1.0" encoding="utf-8" standalone="no"?>
<!DOCTYPE svg PUBLIC "-//W3C//DTD SVG 1.1//EN"
  "http://www.w3.org/Graphics/SVG/1.1/DTD/svg11.dtd">
<svg xmlns:xlink="http://www.w3.org/1999/xlink" width="460.8pt" height="345.6pt" viewBox="0 0 460.8 345.6" xmlns="http://www.w3.org/2000/svg" version="1.1">
 <metadata>
  <rdf:RDF xmlns:dc="http://purl.org/dc/elements/1.1/" xmlns:cc="http://creativecommons.org/ns#" xmlns:rdf="http://www.w3.org/1999/02/22-rdf-syntax-ns#">
   <cc:Work>
    <dc:type rdf:resource="http://purl.org/dc/dcmitype/StillImage"/>
    <dc:date>2025-11-30T20:49:55.021385</dc:date>
    <dc:format>image/svg+xml</dc:format>
    <dc:creator>
     <cc:Agent>
      <dc:title>Matplotlib v3.9.1, https://matplotlib.org/</dc:title>
     </cc:Agent>
    </dc:creator>
   </cc:Work>
  </rdf:RDF>
 </metadata>
 <defs>
  <style type="text/css">*{stroke-linejoin: round; stroke-linecap: butt}</style>
 </defs>
 <g id="figure_1">
  <g id="patch_1">
   <path d="M 0 345.6 
L 460.8 345.6 
L 460.8 0 
L 0 0 
L 0 345.6 
z
" style="fill: none"/>
  </g>
  <g id="axes_1">
   <g id="patch_2">
    <path d="M 10.8 334.8 
L 447 334.8 
L 447 20.016315 
L 10.8 20.016315 
L 10.8 334.8 
z
" style="fill: none"/>
   </g>
   <g id="matplotlib.axis_1">
    <g id="text_1">
     <!-- $x$ -->
     <g transform="translate(435.913188 234.593115) scale(0.2 -0.2)">
      <defs>
       <path id="CMMI12-78" d="M 3034 2606 
C 2829 2567 2752 2414 2752 2293 
C 2752 2139 2874 2088 2963 2088 
C 3155 2088 3290 2254 3290 2427 
C 3290 2695 2982 2816 2714 2816 
C 2323 2816 2106 2433 2048 2312 
C 1901 2816 1504 2816 1389 2816 
C 736 2816 390 1980 390 1839 
C 390 1814 416 1782 461 1782 
C 512 1782 525 1820 538 1846 
C 755 2555 1184 2689 1370 2689 
C 1658 2689 1715 2420 1715 2267 
C 1715 2127 1677 1980 1600 1673 
L 1382 798 
C 1286 415 1101 64 762 64 
C 730 64 570 64 435 147 
C 666 192 717 383 717 460 
C 717 588 621 664 499 664 
C 346 664 179 530 179 326 
C 179 57 480 -64 755 -64 
C 1062 -64 1280 179 1414 441 
C 1517 64 1837 -64 2074 -64 
C 2726 -64 3072 773 3072 913 
C 3072 945 3046 971 3008 971 
C 2950 971 2944 939 2925 888 
C 2752 326 2381 64 2093 64 
C 1869 64 1747 230 1747 492 
C 1747 632 1773 734 1875 1156 
L 2099 2024 
C 2195 2408 2413 2689 2707 2689 
C 2720 2689 2899 2689 3034 2606 
z
" transform="scale(0.015625)"/>
      </defs>
      <use xlink:href="#CMMI12-78" transform="scale(0.996264)"/>
     </g>
    </g>
   </g>
   <g id="matplotlib.axis_2">
    <g id="text_2">
     <!-- $y$ -->
     <g transform="translate(215.387165 16.140682) scale(0.2 -0.2)">
      <defs>
       <path id="CMMI12-79" d="M 1683 -700 
C 1510 -939 1261 -1152 947 -1152 
C 870 -1152 563 -1152 467 -889 
C 486 -895 518 -895 531 -895 
C 723 -895 851 -729 851 -582 
C 851 -435 730 -384 634 -384 
C 531 -384 307 -458 307 -759 
C 307 -1071 582 -1286 947 -1286 
C 1587 -1286 2234 -700 2413 6 
L 3040 2485 
C 3046 2517 3059 2556 3059 2594 
C 3059 2689 2982 2753 2886 2753 
C 2829 2753 2694 2727 2643 2535 
L 2170 658 
C 2138 543 2138 530 2086 460 
C 1958 281 1747 64 1440 64 
C 1082 64 1050 415 1050 588 
C 1050 952 1222 1443 1395 1903 
C 1466 2088 1504 2178 1504 2305 
C 1504 2574 1312 2816 998 2816 
C 410 2816 173 1890 173 1839 
C 173 1814 198 1782 243 1782 
C 301 1782 307 1807 333 1897 
C 486 2433 730 2689 979 2689 
C 1037 2689 1146 2689 1146 2478 
C 1146 2312 1075 2127 979 1884 
C 666 1047 666 837 666 683 
C 666 77 1101 -64 1421 -64 
C 1606 -64 1837 -6 2061 230 
L 2067 224 
C 1971 -147 1907 -392 1683 -700 
z
" transform="scale(0.015625)"/>
      </defs>
      <use xlink:href="#CMMI12-79" transform="scale(0.996264)"/>
     </g>
    </g>
   </g>
   <g id="line2d_1">
    <defs>
     <path id="m233d3731b1" d="M 3 0 
L -3 -3 
L -3 3 
z
" style="stroke: #000000; stroke-linejoin: miter"/>
    </defs>
    <g>
     <use xlink:href="#m233d3731b1" x="447" y="216.756118" style="stroke: #000000; stroke-linejoin: miter"/>
    </g>
   </g>
   <g id="line2d_2">
    <defs>
     <path id="me4e8f1c182" d="M 0 -3 
L -3 3 
L 3 3 
z
" style="stroke: #000000; stroke-linejoin: miter"/>
    </defs>
    <g>
     <use xlink:href="#me4e8f1c182" x="228.9" y="20.016315" style="stroke: #000000; stroke-linejoin: miter"/>
    </g>
   </g>
   <g id="line2d_3">
    <path d="M 10.8 310.883818 
L 39.56044 294.506708 
L 62.03619 281.462627 
L 80.038095 270.766008 
L 94.631355 261.842985 
L 106.561612 254.296063 
L 116.574505 247.704663 
L 124.989597 241.903577 
L 132.126447 236.718902 
L 138.198095 232.042031 
L 143.524103 227.66327 
L 148.104469 223.617899 
L 152.152234 219.754292 
L 155.773919 215.992219 
L 158.969524 212.356712 
L 161.845568 208.752132 
L 164.402051 205.203007 
L 166.745495 201.578908 
L 168.875897 197.885637 
L 170.89978 193.9203 
L 172.710623 189.882146 
L 174.414945 185.52981 
L 176.012747 180.813759 
L 177.504029 175.680565 
L 178.888791 170.074816 
L 180.167033 163.942691 
L 181.338755 157.238085 
L 182.403956 149.932327 
L 183.469158 141.054559 
L 184.427839 131.209568 
L 185.38652 118.8758 
L 186.238681 104.906522 
L 186.984322 89.296878 
L 187.729963 68.989979 
L 188.369084 45.940591 
L 189.008205 14.705273 
L 189.26079 -1 
M 197.8427 346.6 
L 198.595018 329.338114 
L 199.447179 314.219147 
L 200.405861 300.999496 
L 201.471062 289.498958 
L 202.536264 280.31553 
L 203.707985 272.097308 
L 204.986227 264.745498 
L 206.370989 258.152817 
L 207.755751 252.605899 
L 209.247033 247.502083 
L 210.844835 242.788336 
L 212.655678 238.157709 
L 214.57304 233.876833 
L 216.703443 229.685162 
L 219.046886 225.590475 
L 221.60337 221.584198 
L 224.479414 217.501747 
L 227.781538 213.215463 
L 231.616264 208.610344 
L 236.51619 203.088874 
L 253.559414 184.1937 
L 257.181099 179.664993 
L 260.270183 175.445197 
L 262.933187 171.435913 
L 265.38315 167.336191 
L 267.513553 163.349307 
L 269.537436 159.089382 
L 271.348278 154.777839 
L 273.052601 150.170321 
L 274.650403 145.238105 
L 276.248205 139.553146 
L 277.739487 133.382596 
L 279.124249 126.699086 
L 280.509011 118.840301 
L 281.787253 110.248169 
L 282.958974 100.923245 
L 284.130696 89.815773 
L 285.302418 76.394191 
L 286.367619 61.563238 
L 287.432821 43.419933 
L 288.391502 23.342186 
L 289.333175 -1 
M 314.441425 -1 
L 315.447619 20.492372 
L 316.512821 38.540753 
L 317.578022 52.981041 
L 318.643223 64.686582 
L 319.814945 75.143798 
L 320.986667 83.643158 
L 322.158388 90.618206 
L 323.43663 96.862525 
L 324.714872 101.980634 
L 325.993114 106.202473 
L 327.271355 109.702192 
L 328.656117 112.833154 
L 330.040879 115.404622 
L 331.425641 117.518212 
L 332.810403 119.253507 
L 334.301685 120.771238 
L 335.792967 121.985718 
L 337.390769 123.006764 
L 339.095092 123.829841 
L 340.905934 124.454678 
L 342.823297 124.884247 
L 344.9537 125.131153 
L 347.297143 125.173908 
L 349.853626 124.999259 
L 352.72967 124.581693 
L 356.031795 123.874179 
L 359.86652 122.815311 
L 364.233846 121.373416 
L 369.453333 119.405781 
L 375.631502 116.828576 
L 383.087912 113.468341 
L 392.355165 109.037163 
L 404.178901 103.123397 
L 419.730842 95.082438 
L 441.460952 83.58036 
L 447 80.619201 
L 447 80.619201 
" clip-path="url(#p0e80a391b1)" style="fill: none; stroke: #0072b2; stroke-width: 2.5; stroke-linecap: square"/>
   </g>
   <g id="line2d_4">
    <path d="M 10.8 315.12602 
L 447 79.038256 
" clip-path="url(#p0e80a391b1)" style="fill: none; stroke-dasharray: 9.25,4; stroke-dashoffset: 0; stroke: #dc5e8b; stroke-width: 2.5"/>
   </g>
   <g id="LineCollection_1">
    <path d="M 192.55 334.8 
L 192.55 20.016315 
" clip-path="url(#p0e80a391b1)" style="fill: none; stroke-dasharray: 9.25,4; stroke-dashoffset: 0; stroke: #dc5e8b; stroke-width: 2.5"/>
   </g>
   <g id="LineCollection_2">
    <path d="M 301.6 334.8 
L 301.6 20.016315 
" clip-path="url(#p0e80a391b1)" style="fill: none; stroke-dasharray: 9.25,4; stroke-dashoffset: 0; stroke: #dc5e8b; stroke-width: 2.5"/>
   </g>
   <g id="patch_3">
    <path d="M 228.9 334.8 
L 228.9 20.016315 
" style="fill: none; stroke: #000000; stroke-width: 0.8; stroke-linejoin: miter; stroke-linecap: square"/>
   </g>
   <g id="patch_4">
    <path d="M 447 334.8 
L 447 20.016315 
" style="fill: none"/>
   </g>
   <g id="patch_5">
    <path d="M 10.8 216.756118 
L 447 216.756118 
" style="fill: none; stroke: #000000; stroke-width: 0.8; stroke-linejoin: miter; stroke-linecap: square"/>
   </g>
   <g id="patch_6">
    <path d="M 10.8 20.016315 
L 447 20.016315 
" style="fill: none"/>
   </g>
  </g>
 </g>
 <defs>
  <clipPath id="p0e80a391b1">
   <rect x="10.8" y="20.016315" width="436.2" height="314.783685"/>
  </clipPath>
 </defs>
</svg>
