<svg xmlns:xlink="http://www.w3.org/1999/xlink" xmlns="http://www.w3.org/2000/svg" width="453.6pt" height="338.54pt" viewBox="0 0 453.6 338.54" version="1.1">
 
 <defs>
  <style type="text/css">*{stroke-linejoin: round; stroke-linecap: butt}</style>
 </defs>
 <g id="figure_1">
  <g id="patch_1">
   <path d="M 0 338.54  L 453.6 338.54  L 453.6 0  L 0 0  L 0 338.54  z " style="fill: none; opacity: 0" id="mb_auto_path_0"/>
  </g>
  <g id="axes_1">
   <g id="patch_2">
    <path d="M 7.2 331.34  L 443.4 331.34  L 443.4 16.556315  L 7.2 16.556315  L 7.2 331.34  z " style="fill: none; opacity: 0" id="mb_auto_path_1"/>
   </g>
   <g id="matplotlib.axis_1">
    <g id="xtick_1">
     <g id="line2d_1">
      <path d="M 43.55 331.34  L 43.55 16.556315  " clip-path="url(#pd1e33dcd04)" style="fill: none; stroke-dasharray: 2.96,1.28; stroke-dashoffset: 0; stroke: #b0b0b0; stroke-opacity: 0.6; stroke-width: 0.8" id="mb_auto_path_2"/>
     </g>
     <g id="line2d_2">
      <defs>
       <path id="m51c7a41cec" d="M 0 0  L 0 3.5  " style="stroke: #000000; stroke-width: 0.8"/>
      </defs>
      <g id="mb_auto_g_0">
       <use xlink:href="#m51c7a41cec" x="43.55" y="173.948158" style="stroke: #000000; stroke-width: 0.8" id="mb_auto_use_0"/>
      </g>
     </g>
     <g id="text_1">
      <!-- $\mathdefault{−5}$ -->
      <g transform="translate(31.232209 194.785154) scale(0.2 -0.2)" id="mb_auto_g_1">
       <defs>
        <path id="CMSY10-0" d="M 4218 1472  C 4326 1472 4442 1472 4442 1600  C 4442 1728 4326 1728 4218 1728  L 755 1728  C 646 1728 531 1728 531 1600  C 531 1472 646 1472 755 1472  L 4218 1472  z " transform="scale(0.015625)"/>
        <path id="CMR17-35" d="M 730 3692  C 794 3666 1056 3584 1325 3584  C 1920 3584 2246 3911 2432 4100  C 2432 4157 2432 4192 2394 4192  C 2387 4192 2374 4192 2323 4163  C 2099 4058 1837 3973 1517 3973  C 1325 3973 1037 3999 723 4139  C 653 4171 640 4171 634 4171  C 602 4171 595 4164 595 4037  L 595 2203  C 595 2089 595 2057 659 2057  C 691 2057 704 2070 736 2114  C 941 2401 1222 2522 1542 2522  C 1766 2522 2246 2382 2246 1289  C 2246 1085 2246 715 2054 421  C 1894 159 1645 25 1370 25  C 947 25 518 320 403 814  C 429 807 480 795 506 795  C 589 795 749 840 749 1038  C 749 1210 627 1280 506 1280  C 358 1280 262 1190 262 1011  C 262 454 704 -128 1382 -128  C 2042 -128 2669 440 2669 1264  C 2669 2030 2170 2624 1549 2624  C 1222 2624 947 2503 730 2274  L 730 3692  z " transform="scale(0.015625)"/>
       </defs>
       <use xlink:href="#CMSY10-0" transform="scale(0.996264)" id="mb_auto_use_1"/>
       <use xlink:href="#CMR17-35" transform="translate(77.487468 0) scale(0.996264)" id="mb_auto_use_2"/>
      </g>
     </g>
    </g>
    <g id="xtick_2">
     <g id="line2d_3">
      <path d="M 79.9 331.34  L 79.9 16.556315  " clip-path="url(#pd1e33dcd04)" style="fill: none; stroke-dasharray: 2.96,1.28; stroke-dashoffset: 0; stroke: #b0b0b0; stroke-opacity: 0.6; stroke-width: 0.8" id="mb_auto_path_3"/>
     </g>
     <g id="line2d_4">
      <g id="mb_auto_g_2">
       <use xlink:href="#m51c7a41cec" x="79.9" y="173.948158" style="stroke: #000000; stroke-width: 0.8" id="mb_auto_use_3"/>
      </g>
     </g>
     <g id="text_2">
      <!-- $\mathdefault{−4}$ -->
      <g transform="translate(67.582209 194.785154) scale(0.2 -0.2)" id="mb_auto_g_3">
       <defs>
        <path id="CMR17-34" d="M 2150 4122  C 2150 4256 2144 4256 2029 4256  L 128 1254  L 128 1088  L 1779 1088  L 1779 457  C 1779 224 1766 160 1318 160  L 1197 160  L 1197 0  C 1402 0 1747 0 1965 0  C 2182 0 2528 0 2733 0  L 2733 160  L 2611 160  C 2163 160 2150 224 2150 457  L 2150 1088  L 2803 1088  L 2803 1254  L 2150 1254  L 2150 4122  z M 1798 3703  L 1798 1254  L 256 1254  L 1798 3703  z " transform="scale(0.015625)"/>
       </defs>
       <use xlink:href="#CMSY10-0" transform="scale(0.996264)" id="mb_auto_use_4"/>
       <use xlink:href="#CMR17-34" transform="translate(77.487468 0) scale(0.996264)" id="mb_auto_use_5"/>
      </g>
     </g>
    </g>
    <g id="xtick_3">
     <g id="line2d_5">
      <path d="M 116.25 331.34  L 116.25 16.556315  " clip-path="url(#pd1e33dcd04)" style="fill: none; stroke-dasharray: 2.96,1.28; stroke-dashoffset: 0; stroke: #b0b0b0; stroke-opacity: 0.6; stroke-width: 0.8" id="mb_auto_path_4"/>
     </g>
     <g id="line2d_6">
      <g id="mb_auto_g_4">
       <use xlink:href="#m51c7a41cec" x="116.25" y="173.948158" style="stroke: #000000; stroke-width: 0.8" id="mb_auto_use_6"/>
      </g>
     </g>
     <g id="text_3">
      <!-- $\mathdefault{−3}$ -->
      <g transform="translate(103.932209 194.785154) scale(0.2 -0.2)" id="mb_auto_g_5">
       <defs>
        <path id="CMR17-33" d="M 1414 2157  C 1984 2157 2234 1662 2234 1090  C 2234 320 1824 25 1453 25  C 1114 25 563 194 390 693  C 422 680 454 680 486 680  C 640 680 755 782 755 948  C 755 1133 614 1216 486 1216  C 378 1216 211 1165 211 926  C 211 335 787 -128 1466 -128  C 2176 -128 2720 430 2720 1085  C 2720 1707 2208 2157 1600 2227  C 2086 2328 2554 2756 2554 3329  C 2554 3820 2048 4179 1472 4179  C 890 4179 378 3829 378 3329  C 378 3110 544 3072 627 3072  C 762 3072 877 3155 877 3321  C 877 3486 762 3569 627 3569  C 602 3569 570 3569 544 3557  C 730 3959 1235 4032 1459 4032  C 1683 4032 2106 3925 2106 3320  C 2106 3143 2080 2828 1862 2550  C 1670 2304 1453 2304 1242 2284  C 1210 2284 1062 2269 1037 2269  C 992 2263 966 2257 966 2208  C 966 2163 973 2157 1101 2157  L 1414 2157  z " transform="scale(0.015625)"/>
       </defs>
       <use xlink:href="#CMSY10-0" transform="scale(0.996264)" id="mb_auto_use_7"/>
       <use xlink:href="#CMR17-33" transform="translate(77.487468 0) scale(0.996264)" id="mb_auto_use_8"/>
      </g>
     </g>
    </g>
    <g id="xtick_4">
     <g id="line2d_7">
      <path d="M 152.6 331.34  L 152.6 16.556315  " clip-path="url(#pd1e33dcd04)" style="fill: none; stroke-dasharray: 2.96,1.28; stroke-dashoffset: 0; stroke: #b0b0b0; stroke-opacity: 0.6; stroke-width: 0.8" id="mb_auto_path_5"/>
     </g>
     <g id="line2d_8">
      <g id="mb_auto_g_6">
       <use xlink:href="#m51c7a41cec" x="152.6" y="173.948158" style="stroke: #000000; stroke-width: 0.8" id="mb_auto_use_9"/>
      </g>
     </g>
     <g id="text_4">
      <!-- $\mathdefault{−2}$ -->
      <g transform="translate(140.282209 194.785154) scale(0.2 -0.2)" id="mb_auto_g_7">
       <defs>
        <path id="CMR17-32" d="M 2669 989  L 2554 989  C 2490 536 2438 459 2413 420  C 2381 369 1920 369 1830 369  L 602 369  C 832 619 1280 1072 1824 1597  C 2214 1967 2669 2402 2669 3035  C 2669 3790 2067 4224 1395 4224  C 691 4224 262 3604 262 3030  C 262 2780 448 2748 525 2748  C 589 2748 781 2787 781 3010  C 781 3207 614 3264 525 3264  C 486 3264 448 3258 422 3245  C 544 3790 915 4058 1306 4058  C 1862 4058 2227 3617 2227 3035  C 2227 2479 1901 2000 1536 1584  L 262 146  L 262 0  L 2515 0  L 2669 989  z " transform="scale(0.015625)"/>
       </defs>
       <use xlink:href="#CMSY10-0" transform="scale(0.996264)" id="mb_auto_use_10"/>
       <use xlink:href="#CMR17-32" transform="translate(77.487468 0) scale(0.996264)" id="mb_auto_use_11"/>
      </g>
     </g>
    </g>
    <g id="xtick_5">
     <g id="line2d_9">
      <path d="M 188.95 331.34  L 188.95 16.556315  " clip-path="url(#pd1e33dcd04)" style="fill: none; stroke-dasharray: 2.96,1.28; stroke-dashoffset: 0; stroke: #b0b0b0; stroke-opacity: 0.6; stroke-width: 0.8" id="mb_auto_path_6"/>
     </g>
     <g id="line2d_10">
      <g id="mb_auto_g_8">
       <use xlink:href="#m51c7a41cec" x="188.95" y="173.948158" style="stroke: #000000; stroke-width: 0.8" id="mb_auto_use_12"/>
      </g>
     </g>
     <g id="text_5">
      <!-- $\mathdefault{−1}$ -->
      <g transform="translate(176.632209 194.785154) scale(0.2 -0.2)" id="mb_auto_g_9">
       <defs>
        <path id="CMR17-31" d="M 1702 4058  C 1702 4192 1696 4192 1606 4192  C 1357 3916 979 3827 621 3827  C 602 3827 570 3827 563 3808  C 557 3795 557 3782 557 3648  C 755 3648 1088 3686 1344 3839  L 1344 461  C 1344 236 1331 160 781 160  L 589 160  L 589 0  C 896 0 1216 0 1523 0  C 1830 0 2150 0 2458 0  L 2458 160  L 2266 160  C 1715 160 1702 230 1702 458  L 1702 4058  z " transform="scale(0.015625)"/>
       </defs>
       <use xlink:href="#CMSY10-0" transform="scale(0.996264)" id="mb_auto_use_13"/>
       <use xlink:href="#CMR17-31" transform="translate(77.487468 0) scale(0.996264)" id="mb_auto_use_14"/>
      </g>
     </g>
    </g>
    <g id="xtick_6">
     <g id="line2d_11">
      <path d="M 261.65 331.34  L 261.65 16.556315  " clip-path="url(#pd1e33dcd04)" style="fill: none; stroke-dasharray: 2.96,1.28; stroke-dashoffset: 0; stroke: #b0b0b0; stroke-opacity: 0.6; stroke-width: 0.8" id="mb_auto_path_7"/>
     </g>
     <g id="line2d_12">
      <g id="mb_auto_g_10">
       <use xlink:href="#m51c7a41cec" x="261.65" y="173.948158" style="stroke: #000000; stroke-width: 0.8" id="mb_auto_use_15"/>
      </g>
     </g>
     <g id="text_6">
      <!-- $\mathdefault{1}$ -->
      <g transform="translate(257.080952 194.785154) scale(0.2 -0.2)" id="mb_auto_g_11">
       <use xlink:href="#CMR17-31" transform="scale(0.996264)" id="mb_auto_use_16"/>
      </g>
     </g>
    </g>
    <g id="xtick_7">
     <g id="line2d_13">
      <path d="M 298 331.34  L 298 16.556315  " clip-path="url(#pd1e33dcd04)" style="fill: none; stroke-dasharray: 2.96,1.28; stroke-dashoffset: 0; stroke: #b0b0b0; stroke-opacity: 0.6; stroke-width: 0.8" id="mb_auto_path_8"/>
     </g>
     <g id="line2d_14">
      <g id="mb_auto_g_12">
       <use xlink:href="#m51c7a41cec" x="298" y="173.948158" style="stroke: #000000; stroke-width: 0.8" id="mb_auto_use_17"/>
      </g>
     </g>
     <g id="text_7">
      <!-- $\mathdefault{2}$ -->
      <g transform="translate(293.430952 194.785154) scale(0.2 -0.2)" id="mb_auto_g_13">
       <use xlink:href="#CMR17-32" transform="scale(0.996264)" id="mb_auto_use_18"/>
      </g>
     </g>
    </g>
    <g id="xtick_8">
     <g id="line2d_15">
      <path d="M 334.35 331.34  L 334.35 16.556315  " clip-path="url(#pd1e33dcd04)" style="fill: none; stroke-dasharray: 2.96,1.28; stroke-dashoffset: 0; stroke: #b0b0b0; stroke-opacity: 0.6; stroke-width: 0.8" id="mb_auto_path_9"/>
     </g>
     <g id="line2d_16">
      <g id="mb_auto_g_14">
       <use xlink:href="#m51c7a41cec" x="334.35" y="173.948158" style="stroke: #000000; stroke-width: 0.8" id="mb_auto_use_19"/>
      </g>
     </g>
     <g id="text_8">
      <!-- $\mathdefault{3}$ -->
      <g transform="translate(329.780952 194.785154) scale(0.2 -0.2)" id="mb_auto_g_15">
       <use xlink:href="#CMR17-33" transform="scale(0.996264)" id="mb_auto_use_20"/>
      </g>
     </g>
    </g>
    <g id="xtick_9">
     <g id="line2d_17">
      <path d="M 370.7 331.34  L 370.7 16.556315  " clip-path="url(#pd1e33dcd04)" style="fill: none; stroke-dasharray: 2.96,1.28; stroke-dashoffset: 0; stroke: #b0b0b0; stroke-opacity: 0.6; stroke-width: 0.8" id="mb_auto_path_10"/>
     </g>
     <g id="line2d_18">
      <g id="mb_auto_g_16">
       <use xlink:href="#m51c7a41cec" x="370.7" y="173.948158" style="stroke: #000000; stroke-width: 0.8" id="mb_auto_use_21"/>
      </g>
     </g>
     <g id="text_9">
      <!-- $\mathdefault{4}$ -->
      <g transform="translate(366.130952 194.785154) scale(0.2 -0.2)" id="mb_auto_g_17">
       <use xlink:href="#CMR17-34" transform="scale(0.996264)" id="mb_auto_use_22"/>
      </g>
     </g>
    </g>
    <g id="xtick_10">
     <g id="line2d_19">
      <path d="M 407.05 331.34  L 407.05 16.556315  " clip-path="url(#pd1e33dcd04)" style="fill: none; stroke-dasharray: 2.96,1.28; stroke-dashoffset: 0; stroke: #b0b0b0; stroke-opacity: 0.6; stroke-width: 0.8" id="mb_auto_path_11"/>
     </g>
     <g id="line2d_20">
      <g id="mb_auto_g_18">
       <use xlink:href="#m51c7a41cec" x="407.05" y="173.948158" style="stroke: #000000; stroke-width: 0.8" id="mb_auto_use_23"/>
      </g>
     </g>
     <g id="text_10">
      <!-- $\mathdefault{5}$ -->
      <g transform="translate(402.480952 194.785154) scale(0.2 -0.2)" id="mb_auto_g_19">
       <use xlink:href="#CMR17-35" transform="scale(0.996264)" id="mb_auto_use_24"/>
      </g>
     </g>
    </g>
    <g id="text_11">
     <!-- $x$ -->
     <g transform="translate(432.313188 216.497785) scale(0.2 -0.2)" id="mb_auto_g_20">
      <defs>
       <path id="CMMI12-78" d="M 3034 2606  C 2829 2567 2752 2414 2752 2293  C 2752 2139 2874 2088 2963 2088  C 3155 2088 3290 2254 3290 2427  C 3290 2695 2982 2816 2714 2816  C 2323 2816 2106 2433 2048 2312  C 1901 2816 1504 2816 1389 2816  C 736 2816 390 1980 390 1839  C 390 1814 416 1782 461 1782  C 512 1782 525 1820 538 1846  C 755 2555 1184 2689 1370 2689  C 1658 2689 1715 2420 1715 2267  C 1715 2127 1677 1980 1600 1673  L 1382 798  C 1286 415 1101 64 762 64  C 730 64 570 64 435 147  C 666 192 717 383 717 460  C 717 588 621 664 499 664  C 346 664 179 530 179 326  C 179 57 480 -64 755 -64  C 1062 -64 1280 179 1414 441  C 1517 64 1837 -64 2074 -64  C 2726 -64 3072 773 3072 913  C 3072 945 3046 971 3008 971  C 2950 971 2944 939 2925 888  C 2752 326 2381 64 2093 64  C 1869 64 1747 230 1747 492  C 1747 632 1773 734 1875 1156  L 2099 2024  C 2195 2408 2413 2689 2707 2689  C 2720 2689 2899 2689 3034 2606  z " transform="scale(0.015625)"/>
      </defs>
      <use xlink:href="#CMMI12-78" transform="scale(0.996264)" id="mb_auto_use_25"/>
     </g>
    </g>
   </g>
   <g id="matplotlib.axis_2">
    <g id="ytick_1">
     <g id="line2d_21">
      <path d="M 7.2 305.108026  L 443.4 305.108026  " clip-path="url(#pd1e33dcd04)" style="fill: none; stroke-dasharray: 2.96,1.28; stroke-dashoffset: 0; stroke: #b0b0b0; stroke-opacity: 0.6; stroke-width: 0.8" id="mb_auto_path_12"/>
     </g>
     <g id="line2d_22">
      <defs>
       <path id="m8e38aa6811" d="M 0 0  L -3.5 0  " style="stroke: #000000; stroke-width: 0.8"/>
      </defs>
      <g id="mb_auto_g_21">
       <use xlink:href="#m8e38aa6811" x="225.3" y="305.108026" style="stroke: #000000; stroke-width: 0.8" id="mb_auto_use_26"/>
      </g>
     </g>
     <g id="text_12">
      <!-- $\mathdefault{−5}$ -->
      <g transform="translate(193.664417 312.026525) scale(0.2 -0.2)" id="mb_auto_g_22">
       <use xlink:href="#CMSY10-0" transform="scale(0.996264)" id="mb_auto_use_27"/>
       <use xlink:href="#CMR17-35" transform="translate(77.487468 0) scale(0.996264)" id="mb_auto_use_28"/>
      </g>
     </g>
    </g>
    <g id="ytick_2">
     <g id="line2d_23">
      <path d="M 7.2 278.876053  L 443.4 278.876053  " clip-path="url(#pd1e33dcd04)" style="fill: none; stroke-dasharray: 2.96,1.28; stroke-dashoffset: 0; stroke: #b0b0b0; stroke-opacity: 0.6; stroke-width: 0.8" id="mb_auto_path_13"/>
     </g>
     <g id="line2d_24">
      <g id="mb_auto_g_23">
       <use xlink:href="#m8e38aa6811" x="225.3" y="278.876053" style="stroke: #000000; stroke-width: 0.8" id="mb_auto_use_29"/>
      </g>
     </g>
     <g id="text_13">
      <!-- $\mathdefault{−4}$ -->
      <g transform="translate(193.664417 285.794551) scale(0.2 -0.2)" id="mb_auto_g_24">
       <use xlink:href="#CMSY10-0" transform="scale(0.996264)" id="mb_auto_use_30"/>
       <use xlink:href="#CMR17-34" transform="translate(77.487468 0) scale(0.996264)" id="mb_auto_use_31"/>
      </g>
     </g>
    </g>
    <g id="ytick_3">
     <g id="line2d_25">
      <path d="M 7.2 252.644079  L 443.4 252.644079  " clip-path="url(#pd1e33dcd04)" style="fill: none; stroke-dasharray: 2.96,1.28; stroke-dashoffset: 0; stroke: #b0b0b0; stroke-opacity: 0.6; stroke-width: 0.8" id="mb_auto_path_14"/>
     </g>
     <g id="line2d_26">
      <g id="mb_auto_g_25">
       <use xlink:href="#m8e38aa6811" x="225.3" y="252.644079" style="stroke: #000000; stroke-width: 0.8" id="mb_auto_use_32"/>
      </g>
     </g>
     <g id="text_14">
      <!-- $\mathdefault{−3}$ -->
      <g transform="translate(193.664417 259.562577) scale(0.2 -0.2)" id="mb_auto_g_26">
       <use xlink:href="#CMSY10-0" transform="scale(0.996264)" id="mb_auto_use_33"/>
       <use xlink:href="#CMR17-33" transform="translate(77.487468 0) scale(0.996264)" id="mb_auto_use_34"/>
      </g>
     </g>
    </g>
    <g id="ytick_4">
     <g id="line2d_27">
      <path d="M 7.2 226.412105  L 443.4 226.412105  " clip-path="url(#pd1e33dcd04)" style="fill: none; stroke-dasharray: 2.96,1.28; stroke-dashoffset: 0; stroke: #b0b0b0; stroke-opacity: 0.6; stroke-width: 0.8" id="mb_auto_path_15"/>
     </g>
     <g id="line2d_28">
      <g id="mb_auto_g_27">
       <use xlink:href="#m8e38aa6811" x="225.3" y="226.412105" style="stroke: #000000; stroke-width: 0.8" id="mb_auto_use_35"/>
      </g>
     </g>
     <g id="text_15">
      <!-- $\mathdefault{−2}$ -->
      <g transform="translate(193.664417 233.330603) scale(0.2 -0.2)" id="mb_auto_g_28">
       <use xlink:href="#CMSY10-0" transform="scale(0.996264)" id="mb_auto_use_36"/>
       <use xlink:href="#CMR17-32" transform="translate(77.487468 0) scale(0.996264)" id="mb_auto_use_37"/>
      </g>
     </g>
    </g>
    <g id="ytick_5">
     <g id="line2d_29">
      <path d="M 7.2 200.180131  L 443.4 200.180131  " clip-path="url(#pd1e33dcd04)" style="fill: none; stroke-dasharray: 2.96,1.28; stroke-dashoffset: 0; stroke: #b0b0b0; stroke-opacity: 0.6; stroke-width: 0.8" id="mb_auto_path_16"/>
     </g>
     <g id="line2d_30">
      <g id="mb_auto_g_29">
       <use xlink:href="#m8e38aa6811" x="225.3" y="200.180131" style="stroke: #000000; stroke-width: 0.8" id="mb_auto_use_38"/>
      </g>
     </g>
     <g id="text_16">
      <!-- $\mathdefault{−1}$ -->
      <g transform="translate(193.664417 207.09863) scale(0.2 -0.2)" id="mb_auto_g_30">
       <use xlink:href="#CMSY10-0" transform="scale(0.996264)" id="mb_auto_use_39"/>
       <use xlink:href="#CMR17-31" transform="translate(77.487468 0) scale(0.996264)" id="mb_auto_use_40"/>
      </g>
     </g>
    </g>
    <g id="ytick_6">
     <g id="line2d_31">
      <path d="M 7.2 147.716184  L 443.4 147.716184  " clip-path="url(#pd1e33dcd04)" style="fill: none; stroke-dasharray: 2.96,1.28; stroke-dashoffset: 0; stroke: #b0b0b0; stroke-opacity: 0.6; stroke-width: 0.8" id="mb_auto_path_17"/>
     </g>
     <g id="line2d_32">
      <g id="mb_auto_g_31">
       <use xlink:href="#m8e38aa6811" x="225.3" y="147.716184" style="stroke: #000000; stroke-width: 0.8" id="mb_auto_use_41"/>
      </g>
     </g>
     <g id="text_17">
      <!-- $\mathdefault{1}$ -->
      <g transform="translate(209.161905 154.634682) scale(0.2 -0.2)" id="mb_auto_g_32">
       <use xlink:href="#CMR17-31" transform="scale(0.996264)" id="mb_auto_use_42"/>
      </g>
     </g>
    </g>
    <g id="ytick_7">
     <g id="line2d_33">
      <path d="M 7.2 121.48421  L 443.4 121.48421  " clip-path="url(#pd1e33dcd04)" style="fill: none; stroke-dasharray: 2.96,1.28; stroke-dashoffset: 0; stroke: #b0b0b0; stroke-opacity: 0.6; stroke-width: 0.8" id="mb_auto_path_18"/>
     </g>
     <g id="line2d_34">
      <g id="mb_auto_g_33">
       <use xlink:href="#m8e38aa6811" x="225.3" y="121.48421" style="stroke: #000000; stroke-width: 0.8" id="mb_auto_use_43"/>
      </g>
     </g>
     <g id="text_18">
      <!-- $\mathdefault{2}$ -->
      <g transform="translate(209.161905 128.402709) scale(0.2 -0.2)" id="mb_auto_g_34">
       <use xlink:href="#CMR17-32" transform="scale(0.996264)" id="mb_auto_use_44"/>
      </g>
     </g>
    </g>
    <g id="ytick_8">
     <g id="line2d_35">
      <path d="M 7.2 95.252236  L 443.4 95.252236  " clip-path="url(#pd1e33dcd04)" style="fill: none; stroke-dasharray: 2.96,1.28; stroke-dashoffset: 0; stroke: #b0b0b0; stroke-opacity: 0.6; stroke-width: 0.8" id="mb_auto_path_19"/>
     </g>
     <g id="line2d_36">
      <g id="mb_auto_g_35">
       <use xlink:href="#m8e38aa6811" x="225.3" y="95.252236" style="stroke: #000000; stroke-width: 0.8" id="mb_auto_use_45"/>
      </g>
     </g>
     <g id="text_19">
      <!-- $\mathdefault{3}$ -->
      <g transform="translate(209.161905 102.170735) scale(0.2 -0.2)" id="mb_auto_g_36">
       <use xlink:href="#CMR17-33" transform="scale(0.996264)" id="mb_auto_use_46"/>
      </g>
     </g>
    </g>
    <g id="ytick_9">
     <g id="line2d_37">
      <path d="M 7.2 69.020263  L 443.4 69.020263  " clip-path="url(#pd1e33dcd04)" style="fill: none; stroke-dasharray: 2.96,1.28; stroke-dashoffset: 0; stroke: #b0b0b0; stroke-opacity: 0.6; stroke-width: 0.8" id="mb_auto_path_20"/>
     </g>
     <g id="line2d_38">
      <g id="mb_auto_g_37">
       <use xlink:href="#m8e38aa6811" x="225.3" y="69.020263" style="stroke: #000000; stroke-width: 0.8" id="mb_auto_use_47"/>
      </g>
     </g>
     <g id="text_20">
      <!-- $\mathdefault{4}$ -->
      <g transform="translate(209.161905 75.938761) scale(0.2 -0.2)" id="mb_auto_g_38">
       <use xlink:href="#CMR17-34" transform="scale(0.996264)" id="mb_auto_use_48"/>
      </g>
     </g>
    </g>
    <g id="ytick_10">
     <g id="line2d_39">
      <path d="M 7.2 42.788289  L 443.4 42.788289  " clip-path="url(#pd1e33dcd04)" style="fill: none; stroke-dasharray: 2.96,1.28; stroke-dashoffset: 0; stroke: #b0b0b0; stroke-opacity: 0.6; stroke-width: 0.8" id="mb_auto_path_21"/>
     </g>
     <g id="line2d_40">
      <g id="mb_auto_g_39">
       <use xlink:href="#m8e38aa6811" x="225.3" y="42.788289" style="stroke: #000000; stroke-width: 0.8" id="mb_auto_use_49"/>
      </g>
     </g>
     <g id="text_21">
      <!-- $\mathdefault{5}$ -->
      <g transform="translate(209.161905 49.706787) scale(0.2 -0.2)" id="mb_auto_g_40">
       <use xlink:href="#CMR17-35" transform="scale(0.996264)" id="mb_auto_use_50"/>
      </g>
     </g>
    </g>
    <g id="text_22">
     <!-- $y$ -->
     <g transform="translate(180.151583 12.680682) scale(0.2 -0.2)" id="mb_auto_g_41">
      <defs>
       <path id="CMMI12-79" d="M 1683 -700  C 1510 -939 1261 -1152 947 -1152  C 870 -1152 563 -1152 467 -889  C 486 -895 518 -895 531 -895  C 723 -895 851 -729 851 -582  C 851 -435 730 -384 634 -384  C 531 -384 307 -458 307 -759  C 307 -1071 582 -1286 947 -1286  C 1587 -1286 2234 -700 2413 6  L 3040 2485  C 3046 2517 3059 2556 3059 2594  C 3059 2689 2982 2753 2886 2753  C 2829 2753 2694 2727 2643 2535  L 2170 658  C 2138 543 2138 530 2086 460  C 1958 281 1747 64 1440 64  C 1082 64 1050 415 1050 588  C 1050 952 1222 1443 1395 1903  C 1466 2088 1504 2178 1504 2305  C 1504 2574 1312 2816 998 2816  C 410 2816 173 1890 173 1839  C 173 1814 198 1782 243 1782  C 301 1782 307 1807 333 1897  C 486 2433 730 2689 979 2689  C 1037 2689 1146 2689 1146 2478  C 1146 2312 1075 2127 979 1884  C 666 1047 666 837 666 683  C 666 77 1101 -64 1421 -64  C 1606 -64 1837 -6 2061 230  L 2067 224  C 1971 -147 1907 -392 1683 -700  z " transform="scale(0.015625)"/>
      </defs>
      <use xlink:href="#CMMI12-79" transform="scale(0.996264)" id="mb_auto_use_51"/>
     </g>
    </g>
   </g>
   <g id="line2d_41">
    <defs>
     <path id="mca44671a55" d="M 3 0  L -3 -3  L -3 3  z " style="stroke: #000000; stroke-linejoin: miter"/>
    </defs>
    <g id="mb_auto_g_42">
     <use xlink:href="#mca44671a55" x="443.4" y="173.948158" style="stroke: #000000; stroke-linejoin: miter" id="mb_auto_use_52"/>
    </g>
   </g>
   <g id="line2d_42">
    <defs>
     <path id="m12f292f78a" d="M 0 -3  L -3 3  L 3 3  z " style="stroke: #000000; stroke-linejoin: miter"/>
    </defs>
    <g id="mb_auto_g_43">
     <use xlink:href="#m12f292f78a" x="225.3" y="16.556315" style="stroke: #000000; stroke-linejoin: miter" id="mb_auto_use_53"/>
    </g>
   </g>
   <g id="line2d_43">
    <defs>
     <path id="m1be9d8ff98" d="M 0 5  C 1.326016 5 2.597899 4.473168 3.535534 3.535534  C 4.473168 2.597899 5 1.326016 5 0  C 5 -1.326016 4.473168 -2.597899 3.535534 -3.535534  C 2.597899 -4.473168 1.326016 -5 0 -5  C -1.326016 -5 -2.597899 -4.473168 -3.535534 -3.535534  C -4.473168 -2.597899 -5 -1.326016 -5 0  C -5 1.326016 -4.473168 2.597899 -3.535534 3.535534  C -2.597899 4.473168 -1.326016 5 0 5  z " style="stroke: #000000; stroke-opacity: 0.8"/>
    </defs>
    <g clip-path="url(#pd1e33dcd04)" id="mb_auto_g_44"/>
   </g>
   <g id="line2d_44">
    <path d="M 188.95 173.948158  L 189.075042 175.481397  L 189.450168 176.982882  L 190.075377 178.420858  L 190.787422 179.547747  L 191.673135 180.590103  L 192.732518 181.529551  L 193.965571 182.347713  L 195.372292 183.026213  L 196.952683 183.546674  L 198.706743 183.89072  L 200.634473 184.039973  L 202.735872 183.976058  L 205.01094 183.680598  L 207.459678 183.135216  L 210.082085 182.321535  L 212.878162 181.221179  L 215.847907 179.815772  L 218.991322 178.086936  L 222.308407 176.016296  L 225.79916 173.585474  L 229.463583 170.776094  L 233.301676 167.569779  L 237.313438 163.948152  L 241.498869 159.892838  L 245.857969 155.38546  L 250.390739 150.40764  L 255.097178 144.941002  L 259.977286 138.96717  L 265.031064 132.467767  L 270.258511 125.424417  L 275.659628 117.818742  L 281.234414 109.632367  L 286.982869 100.846914  L 292.904993 91.444007  L 299.000787 81.40527  L 305.27025 70.712325  L 311.713383 59.346797  L 318.330184 47.290308  L 325.120656 34.524482  L 332.084796 21.030942  L 339.222606 6.791313  L 343.043713 -1  L 343.043713 -1  " clip-path="url(#pd1e33dcd04)" style="fill: none; stroke: #0072b2; stroke-width: 2.5; stroke-linecap: square" id="mb_auto_path_22"/>
   </g>
   <g id="patch_3">
    <path d="M 225.3 331.34  L 225.3 16.556315  " style="fill: none; stroke: #000000; stroke-width: 0.8; stroke-linejoin: miter; stroke-linecap: square" id="mb_auto_path_23"/>
   </g>
   <g id="patch_4">
    <path d="M 443.4 331.34  L 443.4 16.556315  " style="fill: none" id="mb_auto_path_24"/>
   </g>
   <g id="patch_5">
    <path d="M 7.2 173.948158  L 443.4 173.948158  " style="fill: none; stroke: #000000; stroke-width: 0.8; stroke-linejoin: miter; stroke-linecap: square" id="mb_auto_path_25"/>
   </g>
   <g id="patch_6">
    <path d="M 7.2 16.556315  L 443.4 16.556315  " style="fill: none" id="mb_auto_path_26"/>
   </g>
  </g>
 </g>
 <defs>
  <clipPath id="pd1e33dcd04">
   <rect x="7.2" y="16.556315" width="436.2" height="314.783685" id="mb_auto_rect_0"/>
  </clipPath>
 </defs>
</svg>