<?xml version="1.0" encoding="utf-8" standalone="no"?>
<!DOCTYPE svg PUBLIC "-//W3C//DTD SVG 1.1//EN"
  "http://www.w3.org/Graphics/SVG/1.1/DTD/svg11.dtd">
<svg xmlns:xlink="http://www.w3.org/1999/xlink" width="460.8pt" height="345.6pt" viewBox="0 0 460.8 345.6" xmlns="http://www.w3.org/2000/svg" version="1.1">
 <metadata>
  <rdf:RDF xmlns:dc="http://purl.org/dc/elements/1.1/" xmlns:cc="http://creativecommons.org/ns#" xmlns:rdf="http://www.w3.org/1999/02/22-rdf-syntax-ns#">
   <cc:Work>
    <dc:type rdf:resource="http://purl.org/dc/dcmitype/StillImage"/>
    <dc:date>2026-03-24T23:58:44.759345</dc:date>
    <dc:format>image/svg+xml</dc:format>
    <dc:creator>
     <cc:Agent>
      <dc:title>Matplotlib v3.10.8, https://matplotlib.org/</dc:title>
     </cc:Agent>
    </dc:creator>
   </cc:Work>
  </rdf:RDF>
 </metadata>
 <defs>
  <style type="text/css">*{stroke-linejoin: round; stroke-linecap: butt}</style>
 </defs>
 <g id="figure_1">
  <g id="patch_1">
   <path d="M 0 345.6 
L 460.8 345.6 
L 460.8 0 
L 0 0 
L 0 345.6 
z
" style="fill: none"/>
  </g>
  <g id="axes_1">
   <g id="patch_2">
    <path d="M 24.896308 334.8 
L 447 334.8 
L 447 24.444473 
L 24.896308 24.444473 
L 24.896308 334.8 
z
" style="fill: none"/>
   </g>
   <g id="matplotlib.axis_1">
    <g id="text_1">
     <!-- $x$ -->
     <g transform="translate(430.369782 307.829574) scale(0.3 -0.3)">
      <defs>
       <path id="CMMI12-78" d="M 3034 2606 
C 2829 2567 2752 2414 2752 2293 
C 2752 2139 2874 2088 2963 2088 
C 3155 2088 3290 2254 3290 2427 
C 3290 2695 2982 2816 2714 2816 
C 2323 2816 2106 2433 2048 2312 
C 1901 2816 1504 2816 1389 2816 
C 736 2816 390 1980 390 1839 
C 390 1814 416 1782 461 1782 
C 512 1782 525 1820 538 1846 
C 755 2555 1184 2689 1370 2689 
C 1658 2689 1715 2420 1715 2267 
C 1715 2127 1677 1980 1600 1673 
L 1382 798 
C 1286 415 1101 64 762 64 
C 730 64 570 64 435 147 
C 666 192 717 383 717 460 
C 717 588 621 664 499 664 
C 346 664 179 530 179 326 
C 179 57 480 -64 755 -64 
C 1062 -64 1280 179 1414 441 
C 1517 64 1837 -64 2074 -64 
C 2726 -64 3072 773 3072 913 
C 3072 945 3046 971 3008 971 
C 2950 971 2944 939 2925 888 
C 2752 326 2381 64 2093 64 
C 1869 64 1747 230 1747 492 
C 1747 632 1773 734 1875 1156 
L 2099 2024 
C 2195 2408 2413 2689 2707 2689 
C 2720 2689 2899 2689 3034 2606 
z
" transform="scale(0.015625)"/>
      </defs>
      <use xlink:href="#CMMI12-78" transform="scale(0.996264)"/>
     </g>
    </g>
   </g>
   <g id="matplotlib.axis_2">
    <g id="text_2">
     <!-- $y$ -->
     <g transform="translate(10.806308 18.631022) scale(0.3 -0.3)">
      <defs>
       <path id="CMMI12-79" d="M 1683 -700 
C 1510 -939 1261 -1152 947 -1152 
C 870 -1152 563 -1152 467 -889 
C 486 -895 518 -895 531 -895 
C 723 -895 851 -729 851 -582 
C 851 -435 730 -384 634 -384 
C 531 -384 307 -458 307 -759 
C 307 -1071 582 -1286 947 -1286 
C 1587 -1286 2234 -700 2413 6 
L 3040 2485 
C 3046 2517 3059 2556 3059 2594 
C 3059 2689 2982 2753 2886 2753 
C 2829 2753 2694 2727 2643 2535 
L 2170 658 
C 2138 543 2138 530 2086 460 
C 1958 281 1747 64 1440 64 
C 1082 64 1050 415 1050 588 
C 1050 952 1222 1443 1395 1903 
C 1466 2088 1504 2178 1504 2305 
C 1504 2574 1312 2816 998 2816 
C 410 2816 173 1890 173 1839 
C 173 1814 198 1782 243 1782 
C 301 1782 307 1807 333 1897 
C 486 2433 730 2689 979 2689 
C 1037 2689 1146 2689 1146 2478 
C 1146 2312 1075 2127 979 1884 
C 666 1047 666 837 666 683 
C 666 77 1101 -64 1421 -64 
C 1606 -64 1837 -6 2061 230 
L 2067 224 
C 1971 -147 1907 -392 1683 -700 
z
" transform="scale(0.015625)"/>
      </defs>
      <use xlink:href="#CMMI12-79" transform="scale(0.996264)"/>
     </g>
    </g>
   </g>
   <g id="line2d_1">
    <defs>
     <path id="m4fa3f466bd" d="M 3 0 
L -3 -3 
L -3 3 
z
" style="stroke: #000000; stroke-linejoin: miter"/>
    </defs>
    <g>
     <use xlink:href="#m4fa3f466bd" x="447" y="283.074079" style="stroke: #000000; stroke-linejoin: miter"/>
    </g>
   </g>
   <g id="line2d_2">
    <defs>
     <path id="m58a8b83a10" d="M 0 -3 
L -3 3 
L 3 3 
z
" style="stroke: #000000; stroke-linejoin: miter"/>
    </defs>
    <g>
     <use xlink:href="#m58a8b83a10" x="29.075552" y="24.444473" style="stroke: #000000; stroke-linejoin: miter"/>
    </g>
   </g>
   <g id="line2d_3">
    <path d="M 29.075552 283.074079 
L 29.194852 273.340108 
L 29.618339 257.196393 
L 30.335218 239.222883 
L 31.206375 222.764382 
L 32.375014 205.2129 
L 33.458151 191.770022 
L 34.722372 178.430563 
L 36.16698 165.496082 
L 37.787366 153.254875 
L 39.575108 141.975946 
L 40.854103 135.113018 
L 42.197775 128.852105 
L 43.601086 123.251947 
L 45.05842 118.364328 
L 46.563641 114.233645 
L 48.11015 110.896554 
L 49.690951 108.381693 
L 50.491932 107.439304 
L 51.298716 106.709482 
L 52.110347 106.193476 
L 52.925857 105.892011 
L 53.744268 105.805293 
L 54.564598 105.933003 
L 55.385857 106.274308 
L 56.207053 106.827859 
L 57.027197 107.591804 
L 57.8453 108.563786 
L 58.660378 109.740961 
L 60.277566 112.697101 
L 61.871083 116.427994 
L 63.433477 120.89425 
L 64.957599 126.049765 
L 66.436667 131.842231 
L 67.864336 138.2137 
L 69.234755 145.101197 
L 71.171616 156.251651 
L 72.952601 168.168719 
L 74.565805 180.59724 
L 76.002963 193.274651 
L 77.638197 210.108883 
L 78.953295 226.304062 
L 79.960874 241.283908 
L 80.826215 257.516142 
L 81.383958 272.255692 
L 81.593487 283.072654 
L 81.652896 278.570203 
L 81.959437 268.379761 
L 82.53919 256.258948 
L 83.28047 244.790026 
L 84.306672 232.279086 
L 85.641535 219.251305 
L 86.852837 209.46303 
L 88.245135 199.907107 
L 89.814956 190.797402 
L 91.554973 182.334942 
L 92.804244 177.144577 
L 94.120204 172.373649 
L 95.498081 168.067171 
L 96.932506 164.265234 
L 98.417562 161.002659 
L 99.946847 158.308722 
L 101.513529 156.206925 
L 102.308659 155.383799 
L 103.110417 154.714821 
L 103.91786 154.201236 
L 104.730028 153.84391 
L 105.545955 153.643326 
L 106.36466 153.599584 
L 107.18516 153.712406 
L 108.006465 153.981136 
L 108.827584 154.404742 
L 109.647527 154.981824 
L 110.465305 155.710618 
L 112.090446 157.614496 
L 113.695251 160.095216 
L 115.27216 163.126258 
L 116.813884 166.676049 
L 118.313471 170.708319 
L 119.764377 175.182489 
L 121.160529 180.054114 
L 123.140117 188.001287 
L 124.967952 196.561135 
L 126.631112 205.549654 
L 128.120248 214.776207 
L 129.429785 224.047741 
L 130.894121 236.149936 
L 132.043509 247.557446 
L 133.06739 260.234339 
L 133.775558 272.25987 
L 134.093759 281.560154 
L 134.111425 283.069917 
L 134.173999 279.670276 
L 134.487778 272.146563 
L 135.076296 263.241648 
L 135.826009 254.835305 
L 136.861556 245.679604 
L 138.20632 236.158575 
L 139.425181 229.013054 
L 140.824973 222.043898 
L 142.402058 215.406988 
L 144.148953 209.248695 
L 145.402519 205.475758 
L 146.722495 202.011334 
L 148.10407 198.888085 
L 149.541837 196.135057 
L 151.029851 193.777439 
L 152.561677 191.836353 
L 154.130461 190.328697 
L 155.728991 189.267018 
L 157.349769 188.659437 
L 158.166096 188.527252 
L 158.98508 188.509614 
L 159.805734 188.606286 
L 161.448097 189.14023 
L 163.085262 190.121721 
L 164.709357 191.539145 
L 166.312637 193.376799 
L 167.887558 195.615074 
L 169.426847 198.230687 
L 170.923579 201.196939 
L 172.371236 204.484008 
L 173.763776 208.059263 
L 175.737343 213.885136 
L 177.55855 220.153046 
L 179.21462 226.728331 
L 180.696357 233.471615 
L 181.998347 240.241886 
L 183.452673 249.070215 
L 184.592464 257.38156 
L 185.605488 266.602918 
L 186.30315 275.326873 
L 186.61305 282.025811 
L 186.629366 283.067242 
L 186.671963 281.143052 
L 186.936799 276.065204 
L 187.46514 269.832039 
L 188.156551 263.847811 
L 189.127175 257.256597 
L 190.402894 250.336409 
L 191.568863 245.101896 
L 192.916085 239.962023 
L 194.442064 235.03223 
L 196.140424 230.421689 
L 198.001054 226.231043 
L 199.325027 223.715521 
L 200.710278 221.450599 
L 202.151366 219.457321 
L 203.64231 217.753905 
L 205.176651 216.355588 
L 206.747509 215.274516 
L 208.347652 214.519652 
L 209.969566 214.096726 
L 211.605525 214.008205 
L 213.247671 214.253308 
L 214.888083 214.82804 
L 216.518858 215.725266 
L 218.132187 216.934806 
L 219.720428 218.443568 
L 221.27618 220.235697 
L 222.792358 222.292759 
L 224.262259 224.593943 
L 225.679623 227.116283 
L 227.694737 231.259579 
L 229.561856 235.753458 
L 231.267204 240.500987 
L 232.800519 245.40114 
L 234.155267 250.351035 
L 235.679794 256.851468 
L 236.887146 263.023675 
L 237.976966 269.947895 
L 238.65612 275.652369 
L 239.078046 281.060585 
L 239.147313 283.065205 
L 239.192445 281.608724 
L 239.464026 277.855725 
L 240.000793 273.274109 
L 240.700428 268.886396 
L 241.680254 264.061525 
L 242.965797 259.002842 
L 244.139317 255.180693 
L 245.494065 251.431252 
L 247.02738 247.83868 
L 248.732729 244.482488 
L 250.599847 241.435894 
L 251.927799 239.609502 
L 253.316705 237.967168 
L 254.761089 236.524138 
L 256.25494 235.293582 
L 257.791769 234.286494 
L 259.364672 233.5116 
L 260.966398 232.975301 
L 262.589418 232.681632 
L 264.225995 232.632247 
L 265.868265 232.826428 
L 267.508306 233.261113 
L 269.138218 233.930946 
L 270.7502 234.828359 
L 272.336624 235.943657 
L 273.890107 237.265141 
L 275.403585 238.779231 
L 276.87038 240.470625 
L 278.969557 243.302878 
L 280.930998 246.433217 
L 282.738884 249.793527 
L 284.380727 253.311695 
L 285.847639 256.91323 
L 287.523166 261.715035 
L 288.877841 266.356313 
L 289.922757 270.671423 
L 290.829445 275.380002 
L 291.42577 279.708864 
L 291.665218 283.070425 
L 291.713026 281.962927 
L 291.991434 279.189633 
L 292.536686 275.822253 
L 293.24458 272.605307 
L 294.233632 269.07359 
L 295.529014 265.375825 
L 296.710087 262.585071 
L 298.072355 259.850035 
L 299.612995 257.232073 
L 301.325315 254.789092 
L 303.198898 252.574354 
L 305.219831 250.63539 
L 306.640653 249.516434 
L 308.113634 248.548653 
L 309.632486 247.740781 
L 311.19048 247.099922 
L 312.780508 246.631499 
L 314.395154 246.339218 
L 316.026761 246.225049 
L 317.667514 246.289223 
L 319.309505 246.530248 
L 320.944816 246.94494 
L 322.565593 247.528471 
L 324.164123 248.27443 
L 326.503878 249.680214 
L 328.752747 251.400744 
L 330.888677 253.397111 
L 332.892065 255.624997 
L 334.746182 258.035717 
L 336.437537 260.577333 
L 337.956168 263.195819 
L 339.702144 266.711818 
L 341.126483 270.138119 
L 342.237596 273.351826 
L 343.218289 276.900038 
L 343.884832 280.229214 
L 344.177496 282.872622 
L 344.18316 283.072893 
L 344.233708 282.232118 
L 344.519026 280.183155 
L 345.072818 277.708414 
L 345.789007 275.349976 
L 346.78731 272.764942 
L 348.092544 270.062083 
L 349.281172 268.024486 
L 350.650956 266.029491 
L 352.198909 264.121826 
L 353.918181 262.343662 
L 355.798205 260.733742 
L 357.824927 259.326595 
L 359.981114 258.151848 
L 362.246721 257.233666 
L 364.599334 256.590306 
L 367.014648 256.233807 
L 369.467 256.169827 
L 371.929924 256.397612 
L 374.376725 256.910103 
L 376.781055 257.694188 
L 379.117491 258.731064 
L 381.362079 259.996736 
L 383.492859 261.462604 
L 385.49034 263.096152 
L 387.337921 264.861703 
L 389.022252 266.721241 
L 390.997668 269.278441 
L 392.65305 271.837496 
L 393.987913 274.305205 
L 395.224968 277.128185 
L 396.029642 279.519417 
L 396.531676 281.648306 
L 396.701097 283.073862 
L 396.754492 282.436536 
L 397.046803 280.922991 
L 397.609193 279.104415 
L 398.333711 277.375471 
L 399.341289 275.483446 
L 400.656387 273.507888 
L 402.291622 271.52995 
L 403.728779 270.092978 
L 405.341983 268.731596 
L 407.122968 267.47574 
L 409.059829 266.352617 
L 411.13728 265.386157 
L 413.336986 264.59655 
L 415.637959 263.999859 
L 418.017018 263.607736 
L 420.449284 263.427238 
L 422.908728 263.460736 
L 425.368728 263.705939 
L 427.802652 264.156006 
L 430.184434 264.799765 
L 432.489138 265.622014 
L 434.693499 266.603911 
L 436.776429 267.723433 
L 439.333313 269.387235 
L 441.606667 271.18758 
L 443.572212 273.056458 
L 445.21752 274.924531 
L 446.542495 276.723806 
L 447.088209 277.577402 
L 447.088209 277.577402 
" clip-path="url(#p7d406c77cb)" style="fill: none; stroke: #0072b2; stroke-width: 2.5; stroke-linecap: square"/>
   </g>
   <g id="patch_3">
    <path d="M 29.075552 334.8 
L 29.075552 24.444473 
" style="fill: none; stroke: #000000; stroke-width: 0.8; stroke-linejoin: miter; stroke-linecap: square"/>
   </g>
   <g id="patch_4">
    <path d="M 447 334.8 
L 447 24.444473 
" style="fill: none"/>
   </g>
   <g id="patch_5">
    <path d="M 24.896308 283.074079 
L 447 283.074079 
" style="fill: none; stroke: #000000; stroke-width: 0.8; stroke-linejoin: miter; stroke-linecap: square"/>
   </g>
   <g id="patch_6">
    <path d="M 24.896308 24.444473 
L 447 24.444473 
" style="fill: none"/>
   </g>
  </g>
 </g>
 <defs>
  <clipPath id="p7d406c77cb">
   <rect x="24.896308" y="24.444473" width="422.103692" height="310.355527"/>
  </clipPath>
 </defs>
</svg>
