<?xml version="1.0" encoding="utf-8" standalone="no"?>
<!DOCTYPE svg PUBLIC "-//W3C//DTD SVG 1.1//EN"
  "http://www.w3.org/Graphics/SVG/1.1/DTD/svg11.dtd">
<svg xmlns:xlink="http://www.w3.org/1999/xlink" width="460.8pt" height="345.6pt" viewBox="0 0 460.8 345.6" xmlns="http://www.w3.org/2000/svg" version="1.1">
 <metadata>
  <rdf:RDF xmlns:dc="http://purl.org/dc/elements/1.1/" xmlns:cc="http://creativecommons.org/ns#" xmlns:rdf="http://www.w3.org/1999/02/22-rdf-syntax-ns#">
   <cc:Work>
    <dc:type rdf:resource="http://purl.org/dc/dcmitype/StillImage"/>
    <dc:date>2026-03-24T23:12:32.045565</dc:date>
    <dc:format>image/svg+xml</dc:format>
    <dc:creator>
     <cc:Agent>
      <dc:title>Matplotlib v3.10.8, https://matplotlib.org/</dc:title>
     </cc:Agent>
    </dc:creator>
   </cc:Work>
  </rdf:RDF>
 </metadata>
 <defs>
  <style type="text/css">*{stroke-linejoin: round; stroke-linecap: butt}</style>
 </defs>
 <g id="figure_1">
  <g id="patch_1">
   <path d="M 0 345.6 
L 460.8 345.6 
L 460.8 0 
L 0 0 
L 0 345.6 
z
" style="fill: none"/>
  </g>
  <g id="axes_1">
   <g id="patch_2">
    <path d="M 10.8 334.8 
L 447 334.8 
L 447 20.016315 
L 10.8 20.016315 
L 10.8 334.8 
z
" style="fill: none"/>
   </g>
   <g id="matplotlib.axis_1">
    <g id="text_1">
     <!-- $x$ -->
     <g transform="translate(435.913188 195.245154) scale(0.2 -0.2)">
      <defs>
       <path id="CMMI12-78" d="M 3034 2606 
C 2829 2567 2752 2414 2752 2293 
C 2752 2139 2874 2088 2963 2088 
C 3155 2088 3290 2254 3290 2427 
C 3290 2695 2982 2816 2714 2816 
C 2323 2816 2106 2433 2048 2312 
C 1901 2816 1504 2816 1389 2816 
C 736 2816 390 1980 390 1839 
C 390 1814 416 1782 461 1782 
C 512 1782 525 1820 538 1846 
C 755 2555 1184 2689 1370 2689 
C 1658 2689 1715 2420 1715 2267 
C 1715 2127 1677 1980 1600 1673 
L 1382 798 
C 1286 415 1101 64 762 64 
C 730 64 570 64 435 147 
C 666 192 717 383 717 460 
C 717 588 621 664 499 664 
C 346 664 179 530 179 326 
C 179 57 480 -64 755 -64 
C 1062 -64 1280 179 1414 441 
C 1517 64 1837 -64 2074 -64 
C 2726 -64 3072 773 3072 913 
C 3072 945 3046 971 3008 971 
C 2950 971 2944 939 2925 888 
C 2752 326 2381 64 2093 64 
C 1869 64 1747 230 1747 492 
C 1747 632 1773 734 1875 1156 
L 2099 2024 
C 2195 2408 2413 2689 2707 2689 
C 2720 2689 2899 2689 3034 2606 
z
" transform="scale(0.015625)"/>
      </defs>
      <use xlink:href="#CMMI12-78" transform="scale(0.996264)"/>
     </g>
    </g>
   </g>
   <g id="matplotlib.axis_2">
    <g id="text_2">
     <!-- $y$ -->
     <g transform="translate(215.387165 16.140682) scale(0.2 -0.2)">
      <defs>
       <path id="CMMI12-79" d="M 1683 -700 
C 1510 -939 1261 -1152 947 -1152 
C 870 -1152 563 -1152 467 -889 
C 486 -895 518 -895 531 -895 
C 723 -895 851 -729 851 -582 
C 851 -435 730 -384 634 -384 
C 531 -384 307 -458 307 -759 
C 307 -1071 582 -1286 947 -1286 
C 1587 -1286 2234 -700 2413 6 
L 3040 2485 
C 3046 2517 3059 2556 3059 2594 
C 3059 2689 2982 2753 2886 2753 
C 2829 2753 2694 2727 2643 2535 
L 2170 658 
C 2138 543 2138 530 2086 460 
C 1958 281 1747 64 1440 64 
C 1082 64 1050 415 1050 588 
C 1050 952 1222 1443 1395 1903 
C 1466 2088 1504 2178 1504 2305 
C 1504 2574 1312 2816 998 2816 
C 410 2816 173 1890 173 1839 
C 173 1814 198 1782 243 1782 
C 301 1782 307 1807 333 1897 
C 486 2433 730 2689 979 2689 
C 1037 2689 1146 2689 1146 2478 
C 1146 2312 1075 2127 979 1884 
C 666 1047 666 837 666 683 
C 666 77 1101 -64 1421 -64 
C 1606 -64 1837 -6 2061 230 
L 2067 224 
C 1971 -147 1907 -392 1683 -700 
z
" transform="scale(0.015625)"/>
      </defs>
      <use xlink:href="#CMMI12-79" transform="scale(0.996264)"/>
     </g>
    </g>
   </g>
   <g id="line2d_1">
    <defs>
     <path id="m7b83033a1d" d="M 3 0 
L -3 -3 
L -3 3 
z
" style="stroke: #000000; stroke-linejoin: miter"/>
    </defs>
    <g>
     <use xlink:href="#m7b83033a1d" x="447" y="177.408158" style="stroke: #000000; stroke-linejoin: miter"/>
    </g>
   </g>
   <g id="line2d_2">
    <defs>
     <path id="m95d2102e3d" d="M 0 -3 
L -3 3 
L 3 3 
z
" style="stroke: #000000; stroke-linejoin: miter"/>
    </defs>
    <g>
     <use xlink:href="#m95d2102e3d" x="228.9" y="20.016315" style="stroke: #000000; stroke-linejoin: miter"/>
    </g>
   </g>
   <g id="line2d_3">
    <path d="M 228.9 177.408158 
L 230.445083 177.172338 
L 231.265754 176.749005 
L 231.813181 176.221019 
L 232.119693 175.631017 
L 232.189211 175.013692 
L 232.022248 174.400412 
L 231.622605 173.8203 
L 230.999815 173.300294 
L 230.170042 172.864835 
L 229.156236 172.535415 
L 227.987829 172.330094 
L 226.700096 172.263054 
L 225.333267 172.34422 
L 223.931437 172.578967 
L 222.541317 172.967948 
L 221.210876 173.50703 
L 219.987909 174.187362 
L 218.918591 174.995571 
L 218.046034 175.914076 
L 217.408918 176.921526 
L 217.040217 177.993344 
L 216.966067 179.102362 
L 217.20481 180.219539 
L 217.766238 181.314739 
L 218.651072 182.357545 
L 219.850685 183.3181 
L 221.347088 184.167934 
L 223.113172 184.880778 
L 225.113223 185.433322 
L 227.30368 185.805907 
L 229.634133 185.983135 
L 232.048532 185.954368 
L 234.486577 185.714109 
L 236.885261 185.262261 
L 239.180511 184.604239 
L 241.30891 183.750938 
L 243.209422 182.718563 
L 244.825108 181.528314 
L 246.104755 180.205932 
L 247.004396 178.781128 
L 247.48867 177.286886 
L 247.531974 175.758687 
L 247.119393 174.233641 
L 246.247356 172.749572 
L 244.924018 171.344066 
L 243.169329 170.053513 
L 241.014806 168.912159 
L 238.502996 167.951206 
L 235.686635 167.197966 
L 232.627531 166.675109 
L 229.395187 166.40001 
L 226.065193 166.384226 
L 222.717437 166.633107 
L 219.434163 167.145558 
L 216.297934 167.913966 
L 213.389543 168.924276 
L 210.785932 170.156246 
L 208.55817 171.583844 
L 206.769538 173.175808 
L 205.473779 174.896338 
L 204.713556 176.705909 
L 204.519161 178.562195 
L 204.907515 180.421066 
L 205.881485 182.23765 
L 207.42954 183.967427 
L 209.525769 185.567323 
L 212.130255 186.99679 
L 215.189809 188.218836 
L 218.639044 189.200974 
L 222.401776 189.916082 
L 226.392719 190.343136 
L 230.519432 190.467804 
L 234.684474 190.282884 
L 238.787723 189.78857 
L 242.728798 188.99254 
L 246.409523 187.909871 
L 249.73638 186.562754 
L 252.622881 184.980054 
L 254.991803 183.19668 
L 256.777234 181.25282 
L 257.926367 179.193023 
L 258.400995 177.065175 
L 258.178677 174.919376 
L 257.253528 172.806753 
L 255.636612 170.778237 
L 253.355931 168.883328 
L 250.455992 167.168884 
L 246.99697 165.677957 
L 243.053466 164.448717 
L 238.712904 163.513474 
L 234.073588 162.897839 
L 229.242466 162.62003 
L 224.332653 162.690365 
L 219.460772 163.11092 
L 214.744171 163.875402 
L 210.298087 164.969212 
L 206.232829 166.369711 
L 202.651033 168.046686 
L 199.645079 169.962998 
L 197.294721 172.075412 
L 195.664995 174.335567 
L 194.804451 176.691096 
L 194.743778 179.086841 
L 195.494828 181.466148 
L 197.050102 183.772215 
L 199.382683 185.949454 
L 202.446654 187.944829 
L 206.177967 189.709156 
L 210.495771 191.198313 
L 215.30416 192.374343 
L 220.4943 193.206419 
L 225.946902 193.671644 
L 231.534971 193.755669 
L 237.126769 193.45311 
L 242.588935 192.767753 
L 247.789668 191.712545 
L 252.60192 190.309361 
L 256.906495 188.588553 
L 260.595008 186.588299 
L 263.572604 184.353756 
L 265.760381 181.936036 
L 267.097464 179.391035 
L 267.542654 176.778138 
L 267.075633 174.158827 
L 265.697666 171.595232 
L 263.431804 169.148654 
L 260.322556 166.878095 
L 256.435044 164.838832 
L 251.853659 163.08107 
L 246.68023 161.648707 
L 241.031767 160.578241 
L 235.037809 159.897838 
L 228.837449 159.626606 
L 222.576099 159.774066 
L 216.402074 160.339858 
L 210.463069 161.313676 
L 204.902622 162.67544 
L 199.856641 164.395706 
L 195.450081 166.436297 
L 191.793851 168.751151 
L 188.982034 171.287365 
L 187.089476 173.986397 
L 186.169823 176.785432 
L 186.254042 179.618837 
L 187.34947 182.419707 
L 189.439427 185.12145 
L 192.483395 187.65937 
L 196.41777 189.972219 
L 201.157174 192.003679 
L 206.596301 193.703731 
L 212.612251 195.029886 
L 219.067307 195.94825 
L 225.812095 196.434377 
L 232.689043 196.473919 
L 239.536069 196.063029 
L 246.190404 195.208519 
L 252.492474 193.927768 
L 258.289723 192.248374 
L 263.440312 190.207567 
L 267.816587 187.851377 
L 271.308242 185.233605 
L 273.825084 182.414587 
L 275.299352 179.459801 
L 275.68751 176.43835 
L 274.971482 173.421335 
L 273.159286 170.480187 
L 270.285052 167.684966 
L 266.40842 165.102697 
L 261.613316 162.795756 
L 256.006153 160.820365 
L 249.713466 159.22522 
L 242.879064 158.050294 
L 235.660738 157.325836 
L 228.226614 157.071597 
L 220.751235 157.296305 
L 213.411455 157.997392 
L 206.382252 159.160989 
L 199.832553 160.762197 
L 193.921167 162.765611 
L 188.792941 165.126103 
L 184.575206 167.789838 
L 181.374628 170.695502 
L 179.274514 173.775714 
L 178.332669 176.958593 
L 178.579832 180.169435 
L 180.018754 183.332469 
L 182.623934 186.372648 
L 186.342018 189.217432 
L 191.092876 191.798518 
L 196.771312 194.053484 
L 203.249391 195.927297 
L 210.379317 197.373657 
L 217.996806 198.356138 
L 225.924874 198.849104 
L 233.977955 198.83837 
L 241.966243 198.321598 
L 249.700177 197.308411 
L 256.994939 195.820228 
L 263.674872 193.889815 
L 269.577718 191.560566 
L 274.55855 188.885527 
L 278.493335 185.926191 
L 281.282008 182.751081 
L 282.851011 179.434162 
L 283.155206 176.053117 
L 282.179134 172.687525 
L 279.937576 169.416988 
L 276.475389 166.319245 
L 271.866644 163.468322 
L 266.213048 160.932764 
L 259.641711 158.773983 
L 252.30229 157.044775 
L 244.363579 155.788024 
L 236.009631 155.035648 
L 227.435482 154.807785 
L 218.842598 155.112265 
L 210.434135 155.944368 
L 202.410133 157.286878 
L 194.962755 159.110432 
L 188.271683 161.374158 
L 182.499778 164.026595 
L 177.789125 167.006856 
L 174.257535 170.246031 
L 171.995607 173.66878 
L 171.064421 177.195086 
L 171.493916 180.742128 
L 173.281993 184.226226 
L 176.394378 187.56482 
L 180.765248 190.678425 
L 186.298603 193.492527 
L 192.870372 195.939363 
L 200.331183 197.959559 
L 208.509762 199.503564 
L 217.216864 200.532869 
L 226.249655 201.020962 
L 235.396436 200.954009 
L 244.441613 200.33123 
L 253.170779 199.164978 
L 261.375801 197.480499 
L 268.859783 195.31539 
L 275.441794 192.71876 
L 280.961239 189.750119 
L 285.281777 186.478012 
L 288.294683 182.978438 
L 289.921572 179.333081 
L 290.11642 175.627403 
L 288.866834 171.94864 
L 286.19452 168.383746 
L 282.15496 165.017338 
L 276.836275 161.929682 
L 270.357312 159.194784 
L 262.864998 156.878613 
L 254.531007 155.037507 
L 245.54783 153.716809 
L 236.124322 152.949747 
L 226.48085 152.756605 
L 216.844135 153.144191 
L 207.441914 154.105621 
L 198.497565 155.620435 
L 190.224787 157.655023 
L 182.8225 160.163369 
L 176.470058 163.088093 
L 171.322908 166.361762 
L 167.508786 169.908445 
L 165.124558 173.645477 
L 164.233769 177.485383 
L 164.864976 181.33793 
L 167.010893 185.112249 
L 170.628387 188.718977 
L 175.639322 192.072374 
L 181.932232 195.092365 
L 189.364794 197.70645 
L 197.767045 199.851448 
L 206.945267 201.475018 
L 216.686453 202.53694 
L 226.763254 203.010109 
L 236.939285 202.881221 
L 246.974674 202.151137 
L 256.631721 200.834915 
L 265.680527 198.961506 
L 273.904472 196.573117 
L 281.105399 193.724264 
L 287.10839 190.480527 
L 291.766011 186.917039 
L 294.961931 183.11675 
L 296.613813 179.168487 
L 296.675426 175.164884 
L 295.137903 171.200205 
L 292.030125 167.368123 
L 287.418213 163.759507 
L 281.404135 160.460262 
L 274.123458 157.549292 
L 265.742301 155.096603 
L 256.453542 153.161626 
L 246.472383 151.791775 
L 236.03136 151.021285 
L 225.374924 150.870365 
L 214.753719 151.344664 
L 204.418678 152.4351 
L 194.615099 154.118013 
L 185.576815 156.355687 
L 177.52062 159.097184 
L 170.641066 162.279507 
L 165.105768 165.829049 
L 161.051321 169.663292 
L 158.579938 173.692732 
L 157.756883 177.822959 
L 158.608768 181.956883 
L 161.122755 185.997006 
L 165.246689 189.847729 
L 170.890163 193.417613 
L 177.92649 196.621551 
L 186.195538 199.382797 
L 195.507377 201.634806 
L 205.646637 203.322837 
L 216.377493 204.405282 
L 227.449147 204.854688 
L 238.601695 204.658455 
L 249.57223 203.819175 
L 260.10104 202.354621 
L 269.937761 200.297377 
L 278.84733 197.694108 
L 286.615604 194.604512 
L 293.054505 191.099944 
L 298.006572 187.26177 
L 301.348808 183.179479 
L 302.995726 178.948594 
L 302.901524 174.668437 
L 301.061326 170.439796 
L 297.511467 166.36255 
L 292.328798 162.533311 
L 285.629036 159.043131 
L 277.564187 155.975341 
L 268.319098 153.403555 
L 258.107226 151.38991 
L 247.165705 149.98356 
L 235.749841 149.21948 
L 224.127153 149.1176 
L 212.571103 149.682284 
L 201.354655 150.902189 
L 190.743831 152.75048 
L 180.991399 155.185421 
L 172.330847 158.151316 
L 164.970798 161.579781 
L 159.08998 165.391321 
L 154.832895 169.497175 
L 152.306271 173.801382 
L 151.576394 178.203026 
L 152.667389 182.598601 
L 155.560489 186.884448 
L 160.194314 190.959196 
L 166.466159 194.726169 
L 174.23426 198.095669 
L 183.320999 200.987123 
L 193.516957 203.331002 
L 204.585746 205.070498 
L 216.269485 206.162894 
L 228.294812 206.580618 
L 240.379282 206.311934 
L 252.238001 205.361258 
L 263.590347 203.749107 
L 274.166608 201.511653 
L 283.714395 198.699916 
L 292.004664 195.378601 
L 298.83721 191.62461 
L 304.0455 187.525258 
L 307.500727 183.176247 
L 309.114992 178.679424 
L 308.843523 174.140405 
L 306.685892 169.666082 
L 302.686187 165.362115 
L 296.932124 161.330431 
L 289.553141 157.66681 
L 280.717488 154.45861 
L 270.628391 151.782685 
L 259.519385 149.703541 
L 247.6489 148.271782 
L 235.294258 147.522883 
L 222.745183 147.476308 
L 210.297012 148.135013 
L 198.243738 149.485329 
L 186.87107 151.497245 
L 176.449654 154.125067 
L 167.228633 157.308461 
L 159.429695 160.973834 
L 153.241736 165.036036 
L 148.816298 169.40034 
L 146.263852 173.964648 
L 145.651058 178.621886 
L 146.999035 183.262508 
L 150.282708 187.777082 
L 155.431244 192.058867 
L 162.329565 196.006336 
L 170.820915 199.525586 
L 180.710419 202.532575 
L 191.769554 204.955121 
L 203.741427 206.734644 
L 216.346746 207.827573 
L 229.290335 208.206418 
L 242.268047 207.860456 
L 254.973913 206.796026 
L 267.10736 205.036422 
L 278.380317 202.621386 
L 288.524061 199.606212 
L 297.295621 196.060482 
L 304.483597 192.066457 
L 309.913252 187.71717 
L 313.450759 183.114262 
L 315.006491 178.365598 
L 314.537281 173.58275 
L 312.047596 168.878362 
L 307.589578 164.363509 
L 301.261977 160.145064 
L 293.207966 156.323172 
L 283.61191 152.988874 
L 272.695142 150.221933 
L 260.710865 148.08893 
L 247.938275 146.641662 
L 234.676059 145.915882 
L 221.235405 145.930422 
L 207.932703 146.686705 
L 195.082091 148.168673 
L 182.98804 150.343121 
L 171.938136 153.16044 
L 162.196241 156.555752 
L 153.996195 160.450398 
L 147.536199 164.753763 
L 142.974032 169.365386 
L 140.423201 174.177302 
L 139.950119 179.076574 
L 141.572402 183.947941 
L 145.258292 188.676534 
L 150.927259 193.15058 
L 158.451751 197.26405 
L 167.660053 200.919168 
L 178.340211 204.028739 
L 190.244902 206.518226 
L 203.097166 208.327538 
L 216.596845 209.412479 
L 230.427601 209.745828 
L 244.264323 209.318018 
L 257.780775 208.137401 
L 270.657288 206.230093 
L 282.588322 203.639399 
L 293.289714 200.424829 
L 302.505453 196.660734 
L 310.013795 192.434582 
L 315.632604 187.84493 
L 319.223765 182.999125 
L 320.696569 178.010789 
L 320.010003 172.997156 
L 317.173854 168.07632 
L 312.248637 163.364447 
L 305.344312 158.973036 
L 296.617838 155.006277 
L 286.269608 151.558583 
L 274.538848 148.712338 
L 261.698089 146.535933 
L 248.046834 145.08212 
L 233.904572 144.386733 
L 219.603301 144.467812 
L 205.479729 145.325134 
L 191.86735 146.940179 
L 179.088566 149.27653 
L 167.447047 152.280689 
L 157.22052 155.883306 
L 148.654139 160.000775 
L 141.954611 164.537176 
L 137.285211 169.386512 
L 134.761805 174.435182 
L 134.449984 179.564647 
L 136.363373 184.654208 
L 140.463164 189.583854 
L 146.658882 194.237087 
L 154.810372 198.503677 
L 164.730969 202.282274 
L 176.191766 205.482815 
L 188.926896 208.028671 
L 202.639701 209.858482 
L 217.00964 210.927636 
L 231.699786 211.209352 
L 246.364723 210.695351 
L 260.658675 209.396093 
L 274.243653 207.340561 
L 286.797454 204.575623 
L 298.021301 201.164964 
L 307.646953 197.187615 
L 315.443119 192.736126 
L 321.221007 187.914409 
L 324.838903 182.835317 
L 326.205631 177.617997 
L 325.282848 172.385096 
L 322.086089 167.259881 
L 316.684547 162.363329 
L 309.199586 157.811274 
L 299.802022 153.711668 
L 288.708224 150.162018 
L 276.175138 147.247067 
L 262.494332 145.036773 
L 247.985218 143.584626 
L 232.987589 142.926361 
L 217.853663 143.079075 
L 202.939809 144.040787 
L 188.598155 145.79045 
L 175.168272 148.288407 
L 162.969131 151.477287 
L 152.291533 155.283325 
L 143.39117 159.618069 
L 136.482508 164.380432 
L 131.733618 169.45905 
L 129.262094 174.734891 
L 129.132146 180.084039 
L 131.352946 185.38061 
L 135.878272 190.499714 
L 142.607449 195.320396 
L 151.387585 199.7285 
L 162.01704 203.61937 
L 174.250055 206.900336 
L 187.80243 209.492917 
L 202.358134 211.334705 
L 217.576667 212.380861 
L 233.10103 212.605208 
L 248.5661 212.000884 
L 263.607221 210.580539 
L 277.868798 208.376076 
L 291.01271 205.437935 
L 302.726324 201.83394 
L 312.729934 197.647732 
L 320.783434 192.976831 
L 326.692088 187.930363 
L 330.311226 182.626507 
L 331.54979 177.189733 
L 330.372611 171.747875 
L 326.801377 166.429127 
L 320.914269 161.359025 
L 312.844255 156.65748 
L 302.776092 152.435942 
L 290.942101 148.794762 
L 277.616803 145.820801 
L 263.110556 143.58536 
L 247.762324 142.142475 
L 231.931756 141.527603 
L 215.990758 141.756761 
L 200.314754 142.826107 
L 185.273844 144.711996 
L 171.224065 147.371501 
L 158.498962 150.743387 
L 147.40167 154.749525 
L 138.197691 159.296696 
L 131.108548 164.278766 
L 126.306448 169.57916 
L 123.910109 175.073591 
L 123.981828 180.632973 
L 126.525876 186.12646 
L 131.488259 191.424517 
L 138.75785 196.401983 
L 148.16887 200.941023 
L 159.504669 204.93392 
L 172.502706 208.285633 
L 186.860635 210.916054 
L 202.243333 212.761928 
L 218.290725 213.77837 
L 234.626211 213.939959 
L 250.865508 213.241365 
L 266.625689 211.69752 
L 281.534216 209.343292 
L 295.237743 206.232706 
L 307.410494 202.437702 
L 317.762007 198.046472 
L 326.044065 193.161408 
L 332.056644 187.896721 
L 335.652745 182.375761 
L 336.741981 176.728136 
L 335.292839 171.086663 
L 331.333562 165.584247 
L 324.95162 160.350746 
L 316.291788 155.509912 
L 305.552863 151.176457 
L 292.983106 147.453342 
L 278.874501 144.429325 
L 263.555972 142.176847 
L 247.385719 140.750298 
L 230.742838 140.184703 
L 214.018431 140.494865 
L 197.60642 141.674978 
L 181.89426 143.698735 
L 167.253798 146.519905 
L 154.032468 150.073394 
L 142.545048 154.276743 
L 133.066163 159.032046 
L 125.823725 164.228224 
L 120.993451 169.743626 
L 118.694604 175.448873 
L 118.987056 181.209895 
L 121.869744 186.891083 
L 127.280555 192.35848 
L 135.097653 197.48294 
L 145.142223 202.143179 
L 157.18255 206.228646 
L 170.939371 209.642147 
L 186.092346 212.302155 
L 202.287518 214.144756 
L 219.145585 215.125188 
L 236.270782 215.218926 
L 253.260171 214.422291 
L 269.713126 212.752573 
L 285.240779 210.247661 
L 299.475213 206.965179 
L 312.078179 202.981163 
L 322.749136 198.388304 
L 331.232412 193.293785 
L 337.323335 187.816784 
L 340.873164 182.085682 
L 341.792719 176.235059 
L 340.054609 170.402528 
L 335.69402 164.725501 
L 328.80801 159.33795 
L 319.553366 154.367244 
L 308.143031 149.931142 
L 294.841208 146.134997 
L 279.957247 143.069258 
L 263.838444 140.807314 
L 246.861944 139.403738 
L 229.425911 138.892968 
L 211.940192 139.28847 
L 194.81668 140.582378 
L 178.459613 142.745655 
L 163.256028 145.728734 
L 149.566603 149.46266 
L 137.717101 153.860679 
L 127.990618 158.820259 
L 120.62082 164.225472 
L 115.786331 169.949713 
L 113.606411 175.858659 
L 114.138012 181.813425 
L 117.374312 187.673827 
L 123.24474 193.301683 
L 131.616503 198.564073 
L 142.297586 203.336474 
L 155.041158 207.505714 
L 169.551268 210.972647 
L 185.489722 213.65452 
L 202.483965 215.486942 
L 220.135787 216.425428 
L 238.030658 216.446486 
L 255.747463 215.548195 
L 272.868409 213.750287 
L 288.988884 211.093716 
L 303.727014 207.639725 
L 316.732717 203.468437 
L 327.696008 198.676991 
L 336.354397 193.377287 
L 342.499166 187.693367 
L 345.980401 181.758515 
L 346.710644 175.712128 
L 344.66708 169.696445 
L 339.89221 163.853198 
L 332.492979 158.320275 
L 322.638387 153.228463 
L 310.555636 148.698357 
L 296.524885 144.837505 
L 280.872766 141.737853 
L 263.964771 139.473558 
L 246.196722 138.099212 
L 227.985502 137.648524 
L 209.759274 138.133501 
L 191.947414 139.544128 
L 174.970394 141.84857 
L 159.229856 144.993893 
L 145.099111 148.907275 
L 132.91428 153.497697 
L 122.966306 158.658054 
L 115.494002 164.267659 
L 110.678325 170.195061 
L 108.637991 176.301132 
L 109.426562 182.442325 
L 113.031048 188.474057 
L 119.372083 194.254106 
L 128.305669 199.645969 
L 139.626437 204.522086 
L 153.072368 208.766857 
L 168.330858 212.27938 
L 185.04598 214.975855 
L 202.826792 216.791579 
L 221.25648 217.682499 
L 239.902126 217.626281 
L 258.324882 216.622866 
L 276.090299 214.694507 
L 292.77857 211.885271 
L 307.994456 208.260041 
L 321.376641 203.903012 
L 332.606318 198.915738 
L 341.414778 193.414764 
L 347.589842 187.528902 
L 350.980969 181.396218 
L 351.50292 175.160788 
L 349.137894 168.969316 
L 343.936076 162.967682 
L 336.014583 157.297504 
L 325.554837 152.092795 
L 312.798406 147.476798 
L 298.041433 143.559066 
L 281.627757 140.432861 
L 263.940904 138.172935 
L 245.395125 136.833745 
L 226.425692 136.448136 
L 207.478683 137.026544 
L 189.000489 138.55671 
L 171.4273 141.003945 
L 155.174804 144.31191 
L 140.628356 148.403912 
L 128.133839 153.184688 
L 117.989442 158.542613 
L 110.438544 164.352318 
L 105.663874 170.477612 
L 103.783097 176.774685 
L 104.845916 183.095475 
L 108.832776 189.291159 
L 115.655195 195.215651 
L 125.157723 200.729048 
L 137.121475 205.700937 
L 151.269179 210.013474 
L 167.271595 213.564184 
L 184.755177 216.268392 
L 203.310796 218.061241 
L 222.503311 218.899252 
L 241.881777 218.761371 
L 260.990038 217.649503 
L 279.377469 215.588491 
L 296.609598 212.62557 
L 312.278379 208.82928 
L 326.011851 204.287882 
L 337.482968 199.107307 
L 346.417388 193.408685 
L 352.600031 187.325511 
L 355.880256 181.000521 
L 356.175527 174.582337 
L 353.47348 168.221982 
L 347.832342 162.069318 
L 339.379688 156.269523 
L 328.30956 150.959656 
L 314.878011 146.265427 
L 299.39719 142.298214 
L 282.228084 139.152423 
L 263.772103 136.903242 
L 244.461692 135.604844 
L 224.7502 135.289082 
L 205.101237 135.964708 
L 185.977765 137.617139 
L 167.831195 140.208766 
L 151.090726 143.679813 
L 136.153195 147.949709 
L 123.373671 152.918966 
L 113.057012 158.471489 
L 105.450598 164.477294 
L 100.738397 170.795551 
L 99.036519 177.277881 
L 100.390363 183.771848 
L 104.773421 190.124539 
L 112.087778 196.186166 
L 122.166287 201.813599 
L 134.776396 206.873745 
L 149.625501 211.246698 
L 166.367744 214.828575 
L 184.612062 217.533991 
L 203.931325 219.298087 
L 223.872335 220.078092 
L 243.966457 219.854351 
L 263.740634 218.630826 
L 282.728525 216.435027 
L 300.481504 213.3174 
L 316.579256 209.350163 
L 330.639736 204.625638 
L 342.328227 199.254103 
L 351.365315 193.361214 
L 357.533563 187.085067 
L 360.682742 180.572963 
L 360.733485 173.977952 
L 357.67928 167.455229 
L 351.586746 161.15849 
L 342.594192 155.236304 
L 330.908476 149.828611 
L 316.800256 145.063413 
L 300.597715 141.053746 
L 282.678933 137.894996 
L 263.463063 135.662633 
L 243.400522 134.410405 
L 222.96244 134.169047 
L 202.62959 134.945527 
L 182.881081 136.722852 
L 164.183067 139.460438 
L 146.977742 143.095032 
L 131.672883 147.542182 
L 118.632188 152.698189 
L 108.166628 158.442533 
L 100.527038 164.640685 
L 95.898102 171.147259 
L 94.393894 177.809426 
L 96.055074 184.470498 
L 100.847803 190.973618 
L 108.664418 197.165452 
L 119.325847 202.899804 
L 132.585706 208.04107 
L 148.135991 212.467445 
L 165.614234 216.073805 
L 184.611952 218.774208 
L 204.68419 220.503939 
L 225.359946 221.221063 
L 246.153223 220.907438 
L 266.574454 219.569174 
L 286.142028 217.236518 
L 304.393649 213.96317 
L 320.89726 209.825053 
L 335.261269 204.918544 
L 347.143842 199.358237 
L 356.261035 193.27426 
L 362.393581 186.809235 
L 365.39216 180.114933 
L 365.18103 173.348707 
L 361.75993 166.669799 
L 355.204213 160.235589 
L 345.663192 154.197885 
L 333.356742 148.699343 
L 318.570234 143.870097 
L 301.647922 139.824677 
L 282.984927 136.659293 
L 263.01801 134.44955 
L 242.215352 133.248638 
L 221.065574 133.086055 
L 200.066263 133.966884 
L 179.712261 135.871641 
L 160.484005 138.756709 
L 142.836186 142.555331 
L 127.186998 147.179157 
L 113.908225 152.5203 
L 103.316414 158.453849 
L 95.665323 164.840796 
L 91.139849 171.531287 
L 89.851559 178.368142 
L 91.835948 185.190547 
L 97.051479 191.837837 
L 105.380441 198.153278 
L 116.6316 203.987764 
L 130.544588 209.20334 
L 146.795927 213.676459 
L 165.006549 217.300913 
L 184.750636 219.990353 
L 205.56558 221.680344 
L 226.96282 222.329914 
L 248.439313 221.922538 
L 269.489357 220.466567 
L 289.616501 217.995048 
L 308.345254 214.564987 
L 325.232319 210.256024 
L 339.877087 205.168594 
L 351.931136 199.421576 
L 361.106524 193.149524 
L 367.182666 186.499512 
L 370.011631 179.627684 
L 369.521745 172.695593 
L 365.719393 165.866395 
L 358.688993 159.301017 
L 348.591128 153.154356 
L 335.658878 147.571634 
L 320.192446 142.684957 
L 302.552188 138.610195 
L 283.150218 135.444236 
L 262.440779 133.262674 
L 240.909611 132.118015 
L 219.062552 132.038405 
L 197.413659 133.026944 
L 176.47311 135.061583 
L 156.735178 138.095615 
L 138.666569 142.058745 
L 122.695382 146.858719 
L 109.200967 152.383473 
L 98.504917 158.503746 
L 90.863402 165.076108 
L 86.461039 171.946319 
L 85.406429 178.95295 
L 87.729489 185.931175 
L 93.380625 192.71665 
L 102.231781 199.149385 
L 114.079337 205.077512 
L 128.648788 210.360874 
L 145.601107 214.87434 
L 164.540631 218.510763 
L 185.024297 221.18353 
L 206.572006 222.828622 
L 228.677876 223.406146 
L 250.822118 222.901302 
L 272.483264 221.324762 
L 293.15044 218.712444 
L 312.33542 215.124697 
L 329.58416 210.644905 
L 344.487542 205.377554 
L 356.691077 199.445787 
L 365.90334 192.988533 
L 371.902924 186.157249 
L 374.54376 179.112366 
L 373.758672 172.019527 
L 369.561074 165.045684 
L 362.044774 158.355177 
L 351.381882 152.105851 
L 337.818874 146.445343 
L 321.670894 141.507584 
L 303.314437 137.409637 
L 283.178562 134.248919 
L 261.734874 132.100883 
L 239.48647 131.017223 
L 216.95614 131.024624 
L 194.674079 132.124112 
L 173.165413 134.290997 
L 152.93782 137.475428 
L 134.469546 141.603541 
L 118.1981 146.579167 
L 104.509889 152.286081 
L 93.73104 158.590706 
L 86.119633 165.345248 
L 81.859524 172.391159 
L 81.055903 179.562854 
L 83.732706 186.691609 
L 89.831931 193.609528 
L 99.214889 200.153495 
L 111.665349 206.169025 
L 126.894524 211.513907 
L 144.547764 216.061568 
L 164.212818 219.704072 
L 185.429458 222.354677 
L 207.700254 223.949905 
L 230.502233 224.451059 
L 253.299159 223.845165 
L 275.554152 222.145298 
L 296.742322 219.390309 
L 316.363157 215.643934 
L 333.952344 210.993321 
L 349.092754 205.547003 
L 361.424339 199.432366 
L 370.65269 192.792666 
L 376.556066 185.783677 
L 378.99072 178.570033 
L 377.894395 171.321365 
L 373.287906 164.208305 
L 365.274766 157.398476 
L 354.03887 151.052537 
L 339.84027 145.320396 
L 323.009163 140.337667 
L 303.938211 136.222459 
L 283.073381 133.072582 
L 260.903515 130.963219 
L 237.948879 129.94513 
L 214.748949 130.043435 
L 191.849739 131.256993 
L 169.790943 133.558403 
L 149.093217 136.894619 
L 130.245891 141.188175 
L 113.695401 146.338982 
L 99.83471 152.226661 
L 88.993982 158.713358 
L 81.432717 165.646968 
L 77.333539 172.864707 
L 76.797793 180.196931 
L 79.843039 187.471123 
L 86.402527 194.515952 
L 96.32665 201.165312 
L 109.386353 207.262235 
L 125.278417 212.662597 
L 143.632503 217.238528 
L 164.019775 220.881435 
L 185.962923 223.504585 
L 208.94734 225.045162 
L 232.433186 225.46578 
L 255.86807 224.755381 
L 278.700046 222.929527 
L 300.390608 220.030062 
L 320.427394 216.124151 
L 338.33629 211.302723 
L 353.692644 205.67836 
L 366.131343 199.382663 
L 375.355485 192.563175 
L 381.14347 185.379923 
L 383.354321 178.001661 
L 381.93111 170.601909 
L 376.902419 163.354868 
L 368.381779 156.431322 
L 356.56511 149.994609 
L 341.726224 144.196773 
L 324.210476 139.174969 
L 304.426729 135.048219 
L 282.837811 131.914589 
L 259.949687 129.848863 
L 236.299599 128.900757 
L 212.44346 129.093721 
L 188.942779 130.424361 
L 166.35145 132.862494 
L 145.202696 136.35183 
L 125.996481 140.811272 
L 109.18769 146.136799 
L 95.175358 152.203894 
L 84.293195 158.870456 
L 76.801644 165.980124 
L 72.881641 173.365951 
L 72.630257 180.85432 
L 76.058292 188.269024 
L 83.089913 195.435419 
L 93.564321 202.184528 
L 107.239423 208.357037 
L 123.797433 213.807044 
L 142.852247 218.405518 
L 163.958454 222.043346 
L 186.621743 224.633927 
L 210.310479 226.115233 
L 234.46818 226.451288 
L 258.526583 225.633051 
L 281.919017 223.678645 
L 304.093748 220.632966 
L 324.526995 216.566645 
L 342.7353 211.574416 
L 358.286968 205.772904 
L 370.8123 199.297906 
L 380.012385 192.301207 
L 385.666228 184.947026 
L 387.636058 177.408158 
L 387.636058 177.408158 
" clip-path="url(#pffa64504d3)" style="fill: none; stroke: #0072b2; stroke-width: 2.5; stroke-linecap: square"/>
   </g>
   <g id="line2d_4">
    <defs>
     <path id="m79cf987b1d" d="M 0 5 
C 1.326016 5 2.597899 4.473168 3.535534 3.535534 
C 4.473168 2.597899 5 1.326016 5 0 
C 5 -1.326016 4.473168 -2.597899 3.535534 -3.535534 
C 2.597899 -4.473168 1.326016 -5 0 -5 
C -1.326016 -5 -2.597899 -4.473168 -3.535534 -3.535534 
C -4.473168 -2.597899 -5 -1.326016 -5 0 
C -5 1.326016 -4.473168 2.597899 -3.535534 3.535534 
C -2.597899 4.473168 -1.326016 5 0 5 
z
" style="stroke: #000000; stroke-opacity: 0.8"/>
    </defs>
    <g clip-path="url(#pffa64504d3)">
     <use xlink:href="#m79cf987b1d" x="387.636058" y="177.408158" style="fill-opacity: 0.8; stroke: #000000; stroke-opacity: 0.8"/>
    </g>
   </g>
   <g id="patch_3">
    <path d="M 228.9 334.8 
L 228.9 20.016315 
" style="fill: none; stroke: #000000; stroke-width: 0.8; stroke-linejoin: miter; stroke-linecap: square"/>
   </g>
   <g id="patch_4">
    <path d="M 447 334.8 
L 447 20.016315 
" style="fill: none"/>
   </g>
   <g id="patch_5">
    <path d="M 10.8 177.408158 
L 447 177.408158 
" style="fill: none; stroke: #000000; stroke-width: 0.8; stroke-linejoin: miter; stroke-linecap: square"/>
   </g>
   <g id="patch_6">
    <path d="M 10.8 20.016315 
L 447 20.016315 
" style="fill: none"/>
   </g>
  </g>
 </g>
 <defs>
  <clipPath id="pffa64504d3">
   <rect x="10.8" y="20.016315" width="436.2" height="314.783685"/>
  </clipPath>
 </defs>
</svg>
