<?xml version="1.0" encoding="utf-8" standalone="no"?>
<!DOCTYPE svg PUBLIC "-//W3C//DTD SVG 1.1//EN"
  "http://www.w3.org/Graphics/SVG/1.1/DTD/svg11.dtd">
<svg xmlns:xlink="http://www.w3.org/1999/xlink" width="460.8pt" height="345.6pt" viewBox="0 0 460.8 345.6" xmlns="http://www.w3.org/2000/svg" version="1.1">
 <metadata>
  <rdf:RDF xmlns:dc="http://purl.org/dc/elements/1.1/" xmlns:cc="http://creativecommons.org/ns#" xmlns:rdf="http://www.w3.org/1999/02/22-rdf-syntax-ns#">
   <cc:Work>
    <dc:type rdf:resource="http://purl.org/dc/dcmitype/StillImage"/>
    <dc:date>2026-03-24T23:07:21.299613</dc:date>
    <dc:format>image/svg+xml</dc:format>
    <dc:creator>
     <cc:Agent>
      <dc:title>Matplotlib v3.10.8, https://matplotlib.org/</dc:title>
     </cc:Agent>
    </dc:creator>
   </cc:Work>
  </rdf:RDF>
 </metadata>
 <defs>
  <style type="text/css">*{stroke-linejoin: round; stroke-linecap: butt}</style>
 </defs>
 <g id="figure_1">
  <g id="patch_1">
   <path d="M 0 345.6 
L 460.8 345.6 
L 460.8 0 
L 0 0 
L 0 345.6 
z
" style="fill: none"/>
  </g>
  <g id="axes_1">
   <g id="patch_2">
    <path d="M 10.8 334.8 
L 447 334.8 
L 447 20.016315 
L 10.8 20.016315 
L 10.8 334.8 
z
" style="fill: none"/>
   </g>
   <g id="matplotlib.axis_1">
    <g id="text_1">
     <!-- $x$ -->
     <g transform="translate(435.913188 195.245154) scale(0.2 -0.2)">
      <defs>
       <path id="CMMI12-78" d="M 3034 2606 
C 2829 2567 2752 2414 2752 2293 
C 2752 2139 2874 2088 2963 2088 
C 3155 2088 3290 2254 3290 2427 
C 3290 2695 2982 2816 2714 2816 
C 2323 2816 2106 2433 2048 2312 
C 1901 2816 1504 2816 1389 2816 
C 736 2816 390 1980 390 1839 
C 390 1814 416 1782 461 1782 
C 512 1782 525 1820 538 1846 
C 755 2555 1184 2689 1370 2689 
C 1658 2689 1715 2420 1715 2267 
C 1715 2127 1677 1980 1600 1673 
L 1382 798 
C 1286 415 1101 64 762 64 
C 730 64 570 64 435 147 
C 666 192 717 383 717 460 
C 717 588 621 664 499 664 
C 346 664 179 530 179 326 
C 179 57 480 -64 755 -64 
C 1062 -64 1280 179 1414 441 
C 1517 64 1837 -64 2074 -64 
C 2726 -64 3072 773 3072 913 
C 3072 945 3046 971 3008 971 
C 2950 971 2944 939 2925 888 
C 2752 326 2381 64 2093 64 
C 1869 64 1747 230 1747 492 
C 1747 632 1773 734 1875 1156 
L 2099 2024 
C 2195 2408 2413 2689 2707 2689 
C 2720 2689 2899 2689 3034 2606 
z
" transform="scale(0.015625)"/>
      </defs>
      <use xlink:href="#CMMI12-78" transform="scale(0.996264)"/>
     </g>
    </g>
   </g>
   <g id="matplotlib.axis_2">
    <g id="text_2">
     <!-- $y$ -->
     <g transform="translate(215.387165 16.140682) scale(0.2 -0.2)">
      <defs>
       <path id="CMMI12-79" d="M 1683 -700 
C 1510 -939 1261 -1152 947 -1152 
C 870 -1152 563 -1152 467 -889 
C 486 -895 518 -895 531 -895 
C 723 -895 851 -729 851 -582 
C 851 -435 730 -384 634 -384 
C 531 -384 307 -458 307 -759 
C 307 -1071 582 -1286 947 -1286 
C 1587 -1286 2234 -700 2413 6 
L 3040 2485 
C 3046 2517 3059 2556 3059 2594 
C 3059 2689 2982 2753 2886 2753 
C 2829 2753 2694 2727 2643 2535 
L 2170 658 
C 2138 543 2138 530 2086 460 
C 1958 281 1747 64 1440 64 
C 1082 64 1050 415 1050 588 
C 1050 952 1222 1443 1395 1903 
C 1466 2088 1504 2178 1504 2305 
C 1504 2574 1312 2816 998 2816 
C 410 2816 173 1890 173 1839 
C 173 1814 198 1782 243 1782 
C 301 1782 307 1807 333 1897 
C 486 2433 730 2689 979 2689 
C 1037 2689 1146 2689 1146 2478 
C 1146 2312 1075 2127 979 1884 
C 666 1047 666 837 666 683 
C 666 77 1101 -64 1421 -64 
C 1606 -64 1837 -6 2061 230 
L 2067 224 
C 1971 -147 1907 -392 1683 -700 
z
" transform="scale(0.015625)"/>
      </defs>
      <use xlink:href="#CMMI12-79" transform="scale(0.996264)"/>
     </g>
    </g>
   </g>
   <g id="line2d_1">
    <defs>
     <path id="mc664617b25" d="M 3 0 
L -3 -3 
L -3 3 
z
" style="stroke: #000000; stroke-linejoin: miter"/>
    </defs>
    <g>
     <use xlink:href="#mc664617b25" x="447" y="177.408158" style="stroke: #000000; stroke-linejoin: miter"/>
    </g>
   </g>
   <g id="line2d_2">
    <defs>
     <path id="m73c7ff2073" d="M 0 -3 
L -3 3 
L 3 3 
z
" style="stroke: #000000; stroke-linejoin: miter"/>
    </defs>
    <g>
     <use xlink:href="#m73c7ff2073" x="228.9" y="20.016315" style="stroke: #000000; stroke-linejoin: miter"/>
    </g>
   </g>
   <g id="line2d_3">
    <path d="M 228.9 177.408158 
L 234.660416 176.089853 
L 235.884367 173.853876 
L 235.230404 171.392667 
L 232.958092 169.19243 
L 229.377122 167.662673 
L 224.92629 167.117951 
L 220.152874 167.749777 
L 215.661275 169.605902 
L 212.04861 172.582984 
L 209.837557 176.434895 
L 209.414909 180.796566 
L 210.983107 185.221321 
L 214.530464 189.228042 
L 219.823812 192.353398 
L 226.424922 194.203657 
L 233.72954 194.500578 
L 241.025469 193.116365 
L 247.564047 190.093718 
L 252.637833 185.64847 
L 255.656543 180.154097 
L 256.213243 174.109216 
L 254.133673 168.090986 
L 249.503129 162.698868 
L 242.667523 158.494254 
L 234.207813 155.942061 
L 224.889681 155.360295 
L 215.592923 156.882959 
L 207.227158 160.440395 
L 200.642007 165.75953 
L 196.54066 172.384518 
L 195.405565 179.716233 
L 197.444017 187.067143 
L 202.559555 193.726488 
L 210.352674 199.029514 
L 220.151486 202.424005 
L 231.070018 203.527451 
L 242.089053 202.168982 
L 252.152055 198.411583 
L 260.267094 192.55195 
L 265.604894 185.097483 
L 267.583311 176.722193 
L 265.92967 168.205348 
L 260.7144 160.358498 
L 252.35208 153.947756 
L 241.569119 149.618791 
L 229.34053 147.831903 
L 216.801326 148.813683 
L 205.140625 152.530266 
L 195.488408 158.685213 
L 188.805736 166.742666 
L 185.789115 175.974035 
L 186.798512 185.524138 
L 191.816403 194.490751 
L 200.44234 202.010155 
L 211.924214 207.340528 
L 225.223814 209.935131 
L 239.110989 209.498062 
L 252.277817 206.016933 
L 263.462174 199.768948 
L 271.568974 191.299355 
L 275.777435 181.373913 
L 275.623846 170.909496 
L 271.051542 160.889151 
L 262.422783 152.269506 
L 250.490835 145.889257 
L 236.334304 142.387518 
L 221.259469 142.139974 
L 206.679452 145.219194 
L 193.981443 151.383254 
L 184.394485 160.094145 
L 178.870422 170.564637 
L 177.989572 181.829515 
L 181.900432 192.834742 
L 190.299626 202.536281 
L 202.45455 209.999304 
L 217.267104 214.488342 
L 233.372998 215.539681 
L 249.267623 213.008881 
L 263.446862 207.088591 
L 274.549642 198.294597 
L 281.48869 187.421016 
L 283.556932 175.468542 
L 280.499125 163.552216 
L 272.541517 152.797237 
L 260.376204 144.232573 
L 245.101155 138.692431 
L 228.121076 136.735037 
L 211.018067 138.586626 
L 195.404008 144.116236 
L 182.768452 152.844049 
L 174.336413 163.982846 
L 170.949612 176.509028 
L 172.982717 189.25678 
L 180.302864 201.026706 
L 192.276767 210.69881 
L 207.825235 217.339156 
L 225.520434 220.290051 
L 243.717127 219.235038 
L 260.705814 214.232298 
L 274.873497 205.712974 
L 284.856951 194.444225 
L 289.67391 181.460166 
L 288.819555 167.966892 
L 282.318835 155.230333 
L 270.729255 144.457371 
L 255.093387 136.681392 
L 236.845125 132.663139 
L 217.678106 132.816372 
L 199.388384 137.165599 
L 183.705976 145.340159 
L 172.131105 156.605554 
L 165.790644 169.929403 
L 165.328499 184.076098 
L 170.84059 197.721482 
L 181.860956 209.576896 
L 197.40075 218.51096 
L 216.036888 223.65758 
L 236.042426 224.49986 
L 255.546705 220.921798 
L 272.710399 213.222622 
L 285.899086 202.09208 
L 293.838944 188.548719 
L 295.739732 173.846648 
L 291.373202 159.359335 
L 281.099166 146.451207 
L 265.836362 136.349068 
L 246.980397 130.02546 
L 226.276112 128.105053 
L 205.65603 130.803085 
L 187.059862 137.901888 
L 172.251931 148.768028 
L 162.653716 162.408733 
L 159.207417 177.562608 
L 162.283618 192.816341 
L 171.642109 206.73659 
L 186.449923 218.004743 
L 205.355344 225.541878 
L 226.611291 228.612061 
L 248.236846 226.894116 
L 268.201962 220.514854 
L 284.618129 210.04037 
L 295.917075 196.425921 
L 301.000601 180.928816 
L 299.347207 164.992253 
L 291.065202 150.110856 
L 276.886887 137.690426 
L 258.103989 128.915095 
L 236.44999 124.634413 
L 213.940094 125.281171 
L 192.683597 130.827869 
L 174.686141 140.786209 
L 161.660402 154.24994 
L 154.863088 169.977306 
L 154.973753 186.505609 
L 162.027123 202.2873 
L 175.405631 215.834944 
L 193.893269 225.861455 
L 215.786074 231.402406 
L 239.049213 231.908752 
L 261.506188 227.301085 
L 281.042549 217.980059 
L 295.805057 204.79173 
L 304.377516 188.9508 
L 305.916594 171.928717 
L 300.234617 155.316942 
L 287.821213 140.678105 
L 269.801405 129.398953 
L 247.833715 122.558962 
L 223.957493 120.827042 
L 200.403533 124.39622 
L 179.385573 132.962685 
L 162.892163 145.751404 
L 152.498485 161.586192 
L 149.215929 178.997895 
L 153.393798 196.360738 
L 164.682672 212.04418 
L 182.063236 224.566089 
L 203.938238 232.732838 
L 228.279275 235.753079 
L 252.814935 233.314358 
L 275.242822 225.615148 
L 293.44568 213.349045 
L 305.691311 197.642359 
L 310.797415 179.950691 
L 308.245659 161.924006 
L 298.233985 145.252704 
L 281.661894 131.509063 
L 260.049741 121.998924 
L 235.399263 117.637607 
L 210.008139 118.861868 
L 186.255759 125.586332 
L 166.380189 137.208764 
L 152.267245 152.663914 
L 145.271547 170.521139 
L 146.086551 189.116859 
L 154.67601 206.709576 
L 170.273628 221.643015 
L 191.451284 232.502085 
L 216.24977 238.246988 
L 242.360068 238.312755 
L 267.3384 232.664686 
L 288.835014 221.804267 
L 304.815275 206.724756 
L 313.752264 188.820366 
L 314.772647 169.757342 
L 307.741879 151.31886 
L 293.28045 135.238187 
L 272.709302 123.035708 
L 247.929214 115.875166 
L 221.245146 114.452686 
L 195.151799 118.929189 
L 172.100326 128.912723 
L 154.26803 143.492638 
L 143.352677 161.322614 
L 140.410872 180.74499 
L 145.755877 199.94491 
L 158.924737 217.119942 
L 178.718136 230.64932 
L 203.309564 239.246918 
L 230.413876 242.083499 
L 257.499674 238.866645 
L 282.025776 229.870641 
L 301.679679 215.91331 
L 314.595629 198.281703 
L 319.531741 178.61342 
L 315.989335 158.744483 
L 304.263054 140.537914 
L 285.416731 125.709008 
L 261.186942 115.663709 
L 233.823001 111.365309 
L 205.878115 113.24211 
L 179.971113 121.144901 
L 158.540975 134.358455 
L 143.617184 151.666195 
L 136.627523 171.462207 
L 138.261519 191.900259 
L 148.40259 211.066017 
L 166.135567 227.156391 
L 189.829181 238.649184 
L 217.286118 244.447114 
L 245.946812 243.982545 
L 273.128095 237.272964 
L 296.274437 224.921771 
L 313.198244 208.064094 
L 322.286627 188.262477 
L 322.655091 167.362035 
L 314.233495 147.3185 
L 297.775954 130.015179 
L 274.793432 117.085977 
L 247.415044 109.761095 
L 218.190802 108.749992 
L 189.854068 114.172743 
L 165.065862 125.546416 
L 146.164931 141.827981 
L 134.947078 161.509943 
L 132.494549 182.75992 
L 139.071702 203.59127 
L 154.097014 222.048843 
L 176.194323 236.392514 
L 203.318843 245.261252 
L 232.94638 247.802258 
L 262.308264 243.75292 
L 288.650124 233.467712 
L 309.490297 217.887306 
L 322.853658 198.452568 
L 327.458802 176.971308 
L 322.840863 155.450096 
L 309.398194 135.906802 
L 288.358243 120.181366 
L 261.665524 109.762563 
L 231.801908 105.647049 
L 201.555831 108.244057 
L 173.761897 117.334844 
L 151.035188 132.090892 
L 135.525189 151.149375 
L 128.712488 172.739024 
L 131.267474 194.844762 
L 142.984523 215.395808 
L 162.798115 232.459683 
L 188.879661 244.42395 
L 218.806256 250.148583 
L 249.785779 249.074573 
L 278.917431 241.278426 
L 303.463384 227.467247 
L 321.106121 208.914659 
L 330.167247 187.343364 
L 329.767139 164.765169 
L 319.910235 143.293335 
L 301.487699 124.944757 
L 276.196945 111.450492 
L 246.385249 104.092438 
L 214.831887 103.581572 
L 184.488997 109.989313 
L 158.205344 122.73863 
L 138.458832 140.655935 
L 127.122883 162.079095 
L 125.288716 185.011632 
L 133.160373 207.308802 
L 150.032592 226.8782 
L 174.353883 241.876137 
L 203.86917 250.881354 
L 235.828885 253.029694 
L 267.245144 248.096989 
L 295.171106 236.522199 
L 316.977422 219.368451 
L 330.599811 198.22541 
L 334.734475 175.06196 
L 328.962827 152.042844 
L 313.793637 131.326331 
L 290.618341 114.861836 
L 261.583442 104.20647 
L 229.391704 100.377779 
L 197.050537 103.756599 
L 167.591005 114.04931 
L 143.783728 130.313201 
L 127.878285 151.042787 
L 121.390649 174.30916 
L 124.958732 197.939496 
L 138.2798 219.719988 
L 160.135896 237.603269 
L 188.505149 249.900883 
L 220.748806 255.442699 
L 253.856698 253.688232 
L 284.728281 244.779274 
L 310.463035 229.528716 
L 328.632999 209.346417 
L 337.511847 186.108872 
L 336.238881 161.984732 
L 324.902371 139.232393 
L 304.534185 119.988556 
L 277.01592 106.067549 
L 244.905101 98.790266 
L 211.19747 98.858845 
L 179.047479 106.288982 
L 151.473057 120.406393 
L 131.072296 139.907951 
L 119.778645 162.981965 
L 118.677684 187.476493 
L 127.902838 211.100054 
L 146.620053 231.636015 
L 173.103111 247.150602 
L 204.892824 256.175 
L 239.025393 257.844405 
L 272.30875 251.980856 
L 301.621107 239.111925 
L 324.203786 220.423319 
L 337.920858 197.649647 
L 341.461161 172.913418 
L 334.46358 148.527206 
L 317.553633 126.777433 
L 292.287673 109.709975 
L 261.009668 98.937713 
L 226.633744 95.488115 
L 192.372666 99.705263 
L 161.437542 111.215662 
L 136.736844 128.961217 
L 120.602943 151.296478 
L 114.571869 176.141212 
L 119.237111 201.174161 
L 134.191349 224.049939 
L 158.061841 242.61879 
L 188.636396 255.128626 
L 223.068391 260.390346 
L 258.141813 257.890848 
L 290.571671 247.842983 
L 317.311686 231.167607 
L 335.840467 209.409213 
L 344.399255 184.592884 
L 342.158852 159.035806 
L 329.299861 135.130888 
L 306.998501 115.122697 
L 277.31907 100.896689 
L 243.02287 93.801531 
L 207.311287 94.521258 
L 173.526943 103.009375 
L 144.840797 118.491261 
L 123.954502 139.534819 
L 112.845962 164.182944 
L 112.582038 190.135539 
L 123.216146 214.964174 
L 143.780576 236.339333 
L 172.374489 252.248993 
L 206.339608 261.188017 
L 242.50735 262.300545 
L 277.494447 255.461897 
L 308.01945 241.292168 
L 331.210515 221.100049 
L 344.875601 196.761976 
L 347.709661 170.547746 
L 339.419227 144.908822 
L 320.752523 122.249064 
L 293.43202 104.699335 
L 259.995515 93.917109 
L 223.560389 90.929937 
L 187.532953 96.037547 
L 155.289968 108.781907 
L 129.862129 127.988221 
L 113.649185 151.873212 
L 108.193459 178.210695 
L 114.033164 204.539079 
L 130.649445 228.39145 
L 156.512349 247.526733 
L 189.221676 260.140258 
L 225.729722 265.033968 
L 262.625269 261.73019 
L 296.452335 250.518183 
L 324.033921 232.428931 
L 342.770399 209.140362 
L 350.884536 182.821708 
L 347.590055 155.931441 
L 333.167736 130.987612 
L 308.941715 110.332036 
L 277.157949 95.910429 
L 240.776001 89.089118 
L 203.193446 90.52561 
L 167.92857 100.105261 
L 138.290983 116.950157 
L 117.070996 139.499541 
L 106.276917 165.654416 
L 106.944992 192.972937 
L 119.03998 218.898398 
L 141.455908 240.998522 
L 172.117143 257.193669 
L 208.170587 265.952531 
L 246.25117 266.436919 
L 282.795945 258.581939 
L 314.37747 243.103891 
L 338.025278 221.434994 
L 351.505274 195.590866 
L 353.530794 167.983028 
L 343.885376 141.193876 
L 323.445529 117.73511 
L 294.101155 99.812233 
L 258.580815 89.117191 
L 220.198011 86.668652 
L 182.542077 92.715009 
L 149.142502 106.709333 
L 123.1381 127.358788 
L 106.982013 152.744059 
L 102.210306 180.497742 
L 109.295942 208.025143 
L 127.602057 232.746866 
L 155.439102 252.340521 
L 190.220765 264.958903 
L 228.704257 269.404135 
L 267.292663 265.241366 
L 302.371148 252.841235 
L 330.645603 233.34695 
L 349.451991 208.568909 
L 357.007361 180.816575 
L 352.578857 152.683211 
L 336.554718 126.803545 
L 310.410395 105.607011 
L 276.572725 91.08968 
L 238.194661 84.626288 
L 198.861474 86.840067 
L 162.255803 97.542699 
L 131.812843 115.750177 
L 110.397963 139.773254 
L 100.037006 167.37416 
L 101.724657 195.975061 
L 115.32901 222.898832 
L 139.601477 245.619656 
L 172.291342 261.999986 
L 210.354461 270.491652 
L 250.236745 270.282172 
L 288.206029 261.37246 
L 320.701348 244.578484 
L 344.666915 221.456574 
L 357.839488 194.159196 
L 358.962092 165.234572 
L 347.903931 137.388794 
L 325.675031 113.232635 
L 294.334036 95.036761 
L 256.79757 84.51828 
L 216.568806 82.678712 
L 177.41051 89.708649 
L 142.99308 104.968193 
L 116.550495 127.045165 
L 100.576431 153.885778 
L 96.589099 182.985705 
L 104.986979 211.623747 
L 125.009158 237.116312 
L 154.804203 257.068898 
L 191.601348 269.601012 
L 231.96816 273.523402 
L 272.130727 268.450897 
L 308.326499 254.840143 
L 337.156787 233.948562 
L 355.905906 207.718192 
L 362.796976 178.595165 
L 357.160301 149.301579 
L 339.498362 122.58106 
L 311.441135 100.941781 
L 275.595684 86.42102 
L 235.303915 80.393357 
L 194.330998 83.440564 
L 156.513508 95.295503 
L 125.40016 114.86544 
L 103.918802 140.332753 
L 94.100885 169.323745 
L 96.889376 199.129891 
L 112.048238 226.960899 
L 138.182197 250.205931 
L 172.865133 266.678534 
L 212.865304 274.822307 
L 254.446487 273.857944 
L 293.716972 263.857775 
L 326.993813 245.740674 
L 351.148245 221.187654 
L 363.899859 192.485894 
L 364.031888 162.315676 
L 351.507271 133.500086 
L 327.474432 108.74084 
L 294.162018 90.364961 
L 254.672234 80.106074 
L 212.691951 78.940851 
L 172.148475 86.996057 
L 136.842127 103.535027 
L 110.090014 127.025002 
L 94.414368 155.279173 
L 91.304754 185.660265 
L 101.076552 215.326709 
L 122.839164 241.49843 
L 154.577123 261.717378 
L 193.336744 274.078394 
L 235.501004 277.408725 
L 277.127095 271.379269 
L 314.315128 256.537011 
L 343.573527 234.255443 
L 362.146853 206.607474 
L 368.275308 176.172584 
L 361.361443 145.796156 
L 342.028318 118.323447 
L 312.063431 96.333079 
L 274.253463 81.894994 
L 232.125129 76.375615 
L 189.616208 80.308538 
L 150.707468 93.342998 
L 119.049868 114.27508 
L 97.621968 141.158898 
L 88.449681 171.487494 
L 92.414748 202.426616 
L 109.170035 231.079594 
L 137.169776 254.758552 
L 173.812162 271.236554 
L 215.681099 278.957048 
L 258.864694 277.180889 
L 299.32076 266.057074 
L 333.255199 246.610403 
L 357.477835 220.647092 
L 369.702323 190.58701 
L 368.761949 159.238139 
L 354.720939 129.534263 
L 328.870675 104.260399 
L 293.610954 85.79167 
L 252.22721 75.870099 
L 208.58438 75.440299 
L 166.765934 84.559565 
L 130.69179 102.390913 
L 103.750865 127.279876 
L 88.482702 156.908001 
L 86.338092 188.50883 
L 97.541245 219.126209 
L 121.066608 245.890843 
L 154.732702 266.289193 
L 195.404402 278.399541 
L 239.284893 281.073024 
L 282.270121 274.042608 
L 320.332654 257.949656 
L 349.899034 234.285453 
L 368.185275 205.253022 
L 373.459002 173.562029 
L 365.203549 142.175882 
L 344.168479 114.034613 
L 312.301585 91.779466 
L 272.568544 77.504998 
L 228.676915 72.561944 
L 184.730175 77.429421 
L 144.844068 91.668535 
L 112.76114 113.961909 
L 91.499564 142.235545 
L 83.06921 173.851779 
L 88.281667 205.855351 
L 106.672164 235.249649 
L 136.540918 259.277308 
L 175.110219 275.678866 
L 218.782748 282.905239 
L 263.477103 280.264021 
L 305.009234 267.985791 
L 339.484145 247.204086 
L 363.661187 219.850769 
L 375.258679 188.476445 
L 373.169235 156.012623 
L 357.565455 125.497793 
L 329.885926 99.793033 
L 292.702611 81.313743 
L 249.481873 71.802676 
L 204.261317 72.165586 
L 161.272601 82.384997 
L 124.545427 101.520294 
L 97.529797 127.794283 
L 82.771929 158.758237 
L 81.67428 191.520126 
L 94.362299 223.014735 
L 119.670561 250.290457 
L 155.249778 270.785917 
L 197.784871 282.570509 
L 243.303853 284.526245 
L 287.548749 276.453805 
L 326.373909 259.092711 
L 356.134458 234.053609 
L 374.028478 203.668851 
L 378.360803 170.775239 
L 368.703588 138.449165 
L 345.938447 109.718886 
L 312.176015 87.280828 
L 270.560276 73.246521 
L 224.975793 68.943889 
L 179.685096 74.791616 
L 138.930096 90.258466 
L 106.534773 113.911497 
L 85.546373 143.548812 
L 77.948771 176.404534 
L 84.474966 209.406937 
L 104.536422 239.465632 
L 136.276074 263.760963 
L 176.740215 280.008509 
L 222.153371 286.673884 
L 268.270574 283.117633 
L 310.774169 269.65654 
L 345.678058 247.535484 
L 369.701535 218.812323 
L 380.577647 186.166461 
L 377.267108 152.648898 
L 360.057565 121.397081 
L 330.538753 95.341219 
L 291.455662 76.929531 
L 246.453283 67.898212 
L 199.736661 69.107716 
L 155.67796 80.460804 
L 118.40727 100.910149 
L 91.425442 128.554936 
L 77.275244 160.817547 
L 77.301742 194.683897 
L 91.524465 226.985035 
L 118.633526 254.693669 
L 156.110227 275.207897 
L 200.461067 286.595537 
L 247.543404 287.776104 
L 292.952409 278.623317 
L 332.433177 259.978394 
L 362.279424 233.572757 
L 379.681427 201.867256 
L 382.990522 167.82283 
L 371.875282 134.62398 
L 347.354569 105.380888 
L 311.704174 82.838034 
L 268.245613 69.116625 
L 221.03666 65.514998 
L 174.49246 72.385778 
L 132.972603 89.101426 
L 100.372765 114.111519 
L 79.759189 145.086549 
L 73.080282 179.134899 
L 80.982465 213.072795 
L 102.747677 243.722012 
L 136.358567 268.207522 
L 178.685469 284.227186 
L 225.777813 290.268202 
L 273.232859 285.749956 
L 316.60733 271.07979 
L 351.833444 247.616328 
L 375.600415 217.543662 
L 385.665621 183.668049 
L 381.066204 149.156035 
L 362.211139 117.238459 
L 330.844965 90.907984 
L 289.886392 72.638501 
L 243.156709 64.152685 
L 195.023263 66.259572 
L 149.991283 78.777447 
L 112.282185 100.549404 
L 85.437838 129.550256 
L 71.987888 163.074909 
L 73.211385 197.990691 
L 89.015179 231.030082 
L 117.940643 259.096506 
L 157.298272 279.554563 
L 203.417751 290.477487 
L 251.990237 290.82861 
L 298.470935 280.559732 
L 338.504346 260.617066 
L 368.332414 232.854069 
L 385.147307 199.85919 
L 387.355728 164.714533 
L 374.729864 130.707948 
L 348.430685 101.025443 
L 310.901225 78.452683 
L 265.639638 65.113559 
L 216.873139 62.27035 
L 169.163186 70.204286 
L 126.978816 88.187812 
L 94.27801 114.551281 
L 74.136333 146.837959 
L 68.457671 182.032968 
L 77.794281 216.844811 
L 101.293163 248.013205 
L 136.773941 272.61443 
L 180.93117 288.335586 
L 229.642269 293.692043 
L 278.352424 288.167634 
L 322.500498 272.264351 
L 357.946137 247.456773 
L 381.358075 216.055345 
L 390.527212 180.991199 
L 384.575049 145.542545 
L 364.037816 113.02818 
L 330.81823 86.496766 
L 288.009231 68.440972 
L 239.606007 60.563285 
L 190.133142 63.615488 
L 144.221656 77.32694 
L 106.175504 100.428501 
L 79.568096 130.769996 
L 66.906668 165.520338 
L 69.396032 201.431695 
L 86.82396 235.143041 
L 117.579107 263.494731 
L 158.79997 283.824647 
L 206.64113 294.218164 
L 256.631979 293.688459 
L 304.0945 282.270188 
L 344.581028 261.017642 
L 374.291046 231.907409 
L 390.427943 197.654552 
L 391.46226 161.459371 
L 377.27663 126.708394 
L 349.178682 96.657514 
L 309.780536 74.126932 
L 262.755968 61.236487 
L 212.497839 59.206211 
L 163.707723 68.240863 
L 120.956074 87.509393 
L 88.254078 115.221364 
L 68.677296 148.79331 
L 64.076416 185.089588 
L 74.902317 220.715252 
L 100.161967 252.333602 
L 137.509484 276.978706 
L 183.463983 292.333618 
L 233.734014 296.948203 
L 283.618317 290.376075 
L 328.445493 273.217736 
L 364.011469 247.065735 
L 386.973771 214.356866 
L 395.165651 178.145109 
L 387.800535 141.816482 
L 365.547497 108.772422 
L 330.470533 82.111303 
L 285.837133 64.337914 
L 235.813912 57.128136 
L 185.077639 61.170927 
L 138.37799 76.102514 
L 100.0929 100.539072 
L 73.818143 132.204967 
L 62.029606 168.144669 
L 65.849998 204.998614 
L 84.941954 239.317246 
L 117.537723 267.88391 
L 160.60283 288.016349 
L 210.118567 297.818553 
L 261.457008 296.359319 
L 309.813566 283.76069 
L 350.656636 261.187899 
L 380.152276 230.741602 
L 395.524099 195.2624 
L 395.314608 158.065803 
L 379.523363 122.6324 
L 349.608906 92.282158 
L 308.354056 69.863358 
L 259.607044 57.485282 
L 207.922551 56.319767 
L 158.136127 66.490282 
L 114.911783 87.05902 
L 82.305052 116.113363 
L 63.382475 150.943717 
L 59.933209 188.296216 
L 72.299875 224.676702 
L 99.344636 256.677589 
L 138.553863 281.297049 
L 186.271753 296.220591 
L 238.041187 300.03865 
L 289.020063 292.379719 
L 334.434188 273.946434 
L 370.024396 246.451151 
L 392.445995 212.456872 
L 399.583094 175.138336 
L 390.748267 137.985527 
L 366.748706 104.477286 
L 329.812521 77.755562 
L 283.381886 60.3308 
L 231.792257 53.846091 
L 179.867543 58.922239 
L 132.469041 75.09836 
L 94.040299 100.873693 
L 68.190538 133.846818 
L 57.355671 170.9394 
L 62.56877 208.683575 
L 83.361595 243.546176 
L 117.80658 272.259471 
L 162.695514 292.127459 
L 213.83835 301.279004 
L 266.45432 298.844056 
L 315.618843 285.036347 
L 356.724445 261.134709 
L 385.912557 229.364647 
L 400.435721 192.691118 
L 398.916199 154.541823 
L 381.476651 118.486835 
L 349.730482 87.904494 
L 306.632599 65.664861 
L 256.204371 53.860363 
L 203.158403 53.608933 
L 152.458129 64.948148 
L 108.853382 86.830404 
L 76.435401 117.219679 
L 58.252969 153.280977 
L 56.025688 191.644803 
L 69.981362 228.722004 
L 98.832871 261.039563 
L 139.896851 285.565919 
L 189.343265 299.995344 
L 242.552628 302.964708 
L 294.547585 294.182239 
L 340.458512 274.456127 
L 375.979593 245.620176 
L 397.77265 210.363328 
L 403.780853 171.978921 
L 393.422834 134.057053 
L 367.64888 100.148799 
L 328.853783 73.433673 
L 280.654335 56.42149 
L 227.552142 50.716573 
L 174.513189 56.866471 
L 126.503426 74.309433 
L 88.023808 101.425692 
L 62.688324 135.687875 
L 52.884572 173.896561 
L 59.548759 212.479052 
L 82.076336 247.823441 
L 118.376787 276.616746 
L 165.067614 296.155454 
L 217.789518 304.599365 
L 271.613411 301.1449 
L 321.501256 286.101555 
L 362.777639 260.864226 
L 391.567955 227.783879 
L 405.162111 189.948544 
L 402.269629 150.895048 
L 383.14213 114.278393 
L 349.551562 83.529676 
L 304.626072 61.534585 
L 252.55869 50.362581 
L 198.215982 51.07219 
L 146.683181 63.610727 
L 102.788319 86.817938 
L 70.649891 118.53336 
L 53.290428 155.797437 
L 52.352241 195.127701 
L 67.942065 232.844226 
L 98.619297 265.413941 
L 141.529101 289.781595 
L 192.668072 303.656359 
L 247.257753 305.727191 
L 300.191139 295.786704 
L 346.510459 274.751847 
L 381.871528 244.579338 
L 402.95118 208.083652 
L 407.759577 168.67448 
L 395.828024 130.038175 
L 368.254583 95.79292 
L 327.603049 69.14989 
L 277.664567 52.612143 
L 223.104076 47.739456 
L 169.024531 55.001228 
L 120.489628 73.731291 
L 82.049663 102.189003 
L 57.31492 137.721007 
L 48.616598 177.00862 
L 56.787106 216.377807 
L 81.080444 252.142765 
L 119.240272 280.950998 
L 167.70947 300.097573 
L 221.961719 307.779099 
L 276.924197 303.26358 
L 327.451916 286.960146 
L 368.809347 260.382026 
L 397.114243 226.0061 
L 409.702071 187.042073 
L 405.376834 147.132781 
L 384.524682 110.013612 
L 349.079518 79.162874 
L 302.343649 57.475859 
L 248.680126 46.993119 
L 193.105423 48.708473 
L 140.820494 62.474803 
L 96.724034 87.016567 
L 64.953504 120.047976 
L 48.496923 158.48589 
L 48.911844 198.737598 
L 66.177964 237.036621 
L 98.69728 269.795166 
L 143.441978 293.940221 
L 196.236342 307.201834 
L 252.146447 308.326514 
L 305.941263 297.195701 
L 352.582092 274.838108 
L 387.694516 243.334659 
L 407.978678 205.624811 
L 411.519398 165.232284 
L 397.966987 125.935791 
L 368.57169 91.415536 
L 326.068366 64.908551 
L 274.422053 48.905148 
L 218.458074 44.914962 
L 163.411206 53.324548 
L 114.436015 73.359978 
L 76.124187 103.158043 
L 52.074025 139.939524 
L 44.55249 180.268401 
L 54.281532 220.372843 
L 80.368834 256.497975 
L 120.38962 285.257448 
L 170.612029 303.95087 
L 226.345102 310.817363 
L 282.37694 305.201429 
L 333.462102 287.615503 
L 374.812666 259.693222 
L 402.546974 224.037677 
L 414.054015 183.978736 
L 408.239228 143.262066 
L 385.628591 105.698895 
L 348.321096 74.809261 
L 299.793912 53.492148 
L 244.578299 43.753418 
L 187.836493 46.517068 
L 134.879079 61.537581 
L 90.667947 87.42167 
L 59.351387 121.757518 
L 43.874852 161.339497 
L 45.703934 202.467454 
L 64.68559 241.292606 
L 99.060772 274.177718 
L 145.627424 298.03785 
L 200.038753 310.629754 
L 257.208986 310.762778 
L 311.788734 298.411437 
L 358.665542 274.719015 
L 393.442771 241.891756 
L 412.851967 202.993414 
L 415.060039 161.659318 
L 399.84237 121.756616 
L 368.605518 87.022473 
L 324.257228 60.714049 
L 270.935764 45.303067 
L 213.623753 42.243586 
L 157.682581 51.83482 
L 108.35084 73.191925 
L 70.253759 104.32762 
L 46.969553 142.337096 
L 40.69334 183.669023 
L 52.030209 224.457365 
L 79.936934 260.882995 
L 121.817943 289.531298 
L 173.766727 307.712266 
L 230.930224 313.713079 
L 287.962195 306.95947 
L 339.52324 288.070649 
L 380.780686 258.802555 
L 407.861538 221.884628 
L 418.216059 180.765268 
L 410.857824 139.289729 
L 386.457661 101.340528 
L 347.282542 70.473999 
L 296.984964 49.587016 
L 240.262414 40.645116 
L 182.418647 44.49754 
L 128.867761 60.796591 
L 84.627439 88.028981 
L 53.848795 123.656317 
L 39.426865 164.351714 
L 42.728307 206.31046 
L 63.461913 245.605736 
L 99.704199 278.556114 
L 148.07784 302.070465 
L 204.066391 313.937942 
L 262.43597 313.035845 
L 317.724536 299.435818 
L 364.753012 274.398341 
L 399.110433 240.255916 
L 417.567669 200.195771 
L 418.380913 157.962328 
L 401.456424 117.507207 
L 368.360945 82.619488 
L 322.176683 56.570815 
L 267.214263 41.808591 
L 208.610395 39.726034 
L 151.847797 50.530699 
L 102.242252 73.223869 
L 64.444785 105.692855 
L 42.005576 144.907682 
L 37.04051 187.203846 
L 50.031668 228.624751 
L 79.780583 265.291832 
L 123.518778 293.767741 
L 177.165403 311.378584 
L 235.707983 316.464994 
L 293.670764 308.538484 
L 345.62689 288.328324 
L 386.706505 257.71447 
L 413.053213 219.552686 
L 422.186092 177.408158 
L 422.186092 177.408158 
" clip-path="url(#p445a566a39)" style="fill: none; stroke: #0072b2; stroke-width: 2.5; stroke-linecap: square"/>
   </g>
   <g id="line2d_4">
    <defs>
     <path id="ma97b1d98cb" d="M 0 5 
C 1.326016 5 2.597899 4.473168 3.535534 3.535534 
C 4.473168 2.597899 5 1.326016 5 0 
C 5 -1.326016 4.473168 -2.597899 3.535534 -3.535534 
C 2.597899 -4.473168 1.326016 -5 0 -5 
C -1.326016 -5 -2.597899 -4.473168 -3.535534 -3.535534 
C -4.473168 -2.597899 -5 -1.326016 -5 0 
C -5 1.326016 -4.473168 2.597899 -3.535534 3.535534 
C -2.597899 4.473168 -1.326016 5 0 5 
z
" style="stroke: #000000; stroke-opacity: 0.8"/>
    </defs>
    <g clip-path="url(#p445a566a39)">
     <use xlink:href="#ma97b1d98cb" x="422.186092" y="177.408158" style="fill-opacity: 0.8; stroke: #000000; stroke-opacity: 0.8"/>
    </g>
   </g>
   <g id="patch_3">
    <path d="M 228.9 334.8 
L 228.9 20.016315 
" style="fill: none; stroke: #000000; stroke-width: 0.8; stroke-linejoin: miter; stroke-linecap: square"/>
   </g>
   <g id="patch_4">
    <path d="M 447 334.8 
L 447 20.016315 
" style="fill: none"/>
   </g>
   <g id="patch_5">
    <path d="M 10.8 177.408158 
L 447 177.408158 
" style="fill: none; stroke: #000000; stroke-width: 0.8; stroke-linejoin: miter; stroke-linecap: square"/>
   </g>
   <g id="patch_6">
    <path d="M 10.8 20.016315 
L 447 20.016315 
" style="fill: none"/>
   </g>
  </g>
 </g>
 <defs>
  <clipPath id="p445a566a39">
   <rect x="10.8" y="20.016315" width="436.2" height="314.783685"/>
  </clipPath>
 </defs>
</svg>
