<?xml version="1.0" encoding="utf-8" standalone="no"?>
<!DOCTYPE svg PUBLIC "-//W3C//DTD SVG 1.1//EN"
  "http://www.w3.org/Graphics/SVG/1.1/DTD/svg11.dtd">
<svg xmlns:xlink="http://www.w3.org/1999/xlink" width="460.8pt" height="345.6pt" viewBox="0 0 460.8 345.6" xmlns="http://www.w3.org/2000/svg" version="1.1">
 <metadata>
  <rdf:RDF xmlns:dc="http://purl.org/dc/elements/1.1/" xmlns:cc="http://creativecommons.org/ns#" xmlns:rdf="http://www.w3.org/1999/02/22-rdf-syntax-ns#">
   <cc:Work>
    <dc:type rdf:resource="http://purl.org/dc/dcmitype/StillImage"/>
    <dc:date>2026-03-24T23:11:13.344194</dc:date>
    <dc:format>image/svg+xml</dc:format>
    <dc:creator>
     <cc:Agent>
      <dc:title>Matplotlib v3.10.8, https://matplotlib.org/</dc:title>
     </cc:Agent>
    </dc:creator>
   </cc:Work>
  </rdf:RDF>
 </metadata>
 <defs>
  <style type="text/css">*{stroke-linejoin: round; stroke-linecap: butt}</style>
 </defs>
 <g id="figure_1">
  <g id="patch_1">
   <path d="M 0 345.6 
L 460.8 345.6 
L 460.8 0 
L 0 0 
L 0 345.6 
z
" style="fill: none"/>
  </g>
  <g id="axes_1">
   <g id="patch_2">
    <path d="M 10.8 334.8 
L 447 334.8 
L 447 20.016315 
L 10.8 20.016315 
L 10.8 334.8 
z
" style="fill: none"/>
   </g>
   <g id="matplotlib.axis_1">
    <g id="text_1">
     <!-- $x$ -->
     <g transform="translate(435.913188 195.245154) scale(0.2 -0.2)">
      <defs>
       <path id="CMMI12-78" d="M 3034 2606 
C 2829 2567 2752 2414 2752 2293 
C 2752 2139 2874 2088 2963 2088 
C 3155 2088 3290 2254 3290 2427 
C 3290 2695 2982 2816 2714 2816 
C 2323 2816 2106 2433 2048 2312 
C 1901 2816 1504 2816 1389 2816 
C 736 2816 390 1980 390 1839 
C 390 1814 416 1782 461 1782 
C 512 1782 525 1820 538 1846 
C 755 2555 1184 2689 1370 2689 
C 1658 2689 1715 2420 1715 2267 
C 1715 2127 1677 1980 1600 1673 
L 1382 798 
C 1286 415 1101 64 762 64 
C 730 64 570 64 435 147 
C 666 192 717 383 717 460 
C 717 588 621 664 499 664 
C 346 664 179 530 179 326 
C 179 57 480 -64 755 -64 
C 1062 -64 1280 179 1414 441 
C 1517 64 1837 -64 2074 -64 
C 2726 -64 3072 773 3072 913 
C 3072 945 3046 971 3008 971 
C 2950 971 2944 939 2925 888 
C 2752 326 2381 64 2093 64 
C 1869 64 1747 230 1747 492 
C 1747 632 1773 734 1875 1156 
L 2099 2024 
C 2195 2408 2413 2689 2707 2689 
C 2720 2689 2899 2689 3034 2606 
z
" transform="scale(0.015625)"/>
      </defs>
      <use xlink:href="#CMMI12-78" transform="scale(0.996264)"/>
     </g>
    </g>
   </g>
   <g id="matplotlib.axis_2">
    <g id="text_2">
     <!-- $y$ -->
     <g transform="translate(215.387165 16.140682) scale(0.2 -0.2)">
      <defs>
       <path id="CMMI12-79" d="M 1683 -700 
C 1510 -939 1261 -1152 947 -1152 
C 870 -1152 563 -1152 467 -889 
C 486 -895 518 -895 531 -895 
C 723 -895 851 -729 851 -582 
C 851 -435 730 -384 634 -384 
C 531 -384 307 -458 307 -759 
C 307 -1071 582 -1286 947 -1286 
C 1587 -1286 2234 -700 2413 6 
L 3040 2485 
C 3046 2517 3059 2556 3059 2594 
C 3059 2689 2982 2753 2886 2753 
C 2829 2753 2694 2727 2643 2535 
L 2170 658 
C 2138 543 2138 530 2086 460 
C 1958 281 1747 64 1440 64 
C 1082 64 1050 415 1050 588 
C 1050 952 1222 1443 1395 1903 
C 1466 2088 1504 2178 1504 2305 
C 1504 2574 1312 2816 998 2816 
C 410 2816 173 1890 173 1839 
C 173 1814 198 1782 243 1782 
C 301 1782 307 1807 333 1897 
C 486 2433 730 2689 979 2689 
C 1037 2689 1146 2689 1146 2478 
C 1146 2312 1075 2127 979 1884 
C 666 1047 666 837 666 683 
C 666 77 1101 -64 1421 -64 
C 1606 -64 1837 -6 2061 230 
L 2067 224 
C 1971 -147 1907 -392 1683 -700 
z
" transform="scale(0.015625)"/>
      </defs>
      <use xlink:href="#CMMI12-79" transform="scale(0.996264)"/>
     </g>
    </g>
   </g>
   <g id="line2d_1">
    <defs>
     <path id="m1b81d0a883" d="M 3 0 
L -3 -3 
L -3 3 
z
" style="stroke: #000000; stroke-linejoin: miter"/>
    </defs>
    <g>
     <use xlink:href="#m1b81d0a883" x="447" y="177.408158" style="stroke: #000000; stroke-linejoin: miter"/>
    </g>
   </g>
   <g id="line2d_2">
    <defs>
     <path id="mbdeb2c1e46" d="M 0 -3 
L -3 3 
L 3 3 
z
" style="stroke: #000000; stroke-linejoin: miter"/>
    </defs>
    <g>
     <use xlink:href="#mbdeb2c1e46" x="228.9" y="20.016315" style="stroke: #000000; stroke-linejoin: miter"/>
    </g>
   </g>
   <g id="line2d_3">
    <path d="M 228.9 177.408158 
L 231.990167 176.936518 
L 233.631508 176.089853 
L 234.726361 175.033881 
L 235.339385 173.853876 
L 235.478423 172.619227 
L 235.144496 171.392667 
L 234.34521 170.232442 
L 233.099629 169.19243 
L 231.440083 168.321513 
L 229.412472 167.662673 
L 227.075658 167.25203 
L 224.500191 167.117951 
L 221.766534 167.280282 
L 218.962874 167.749777 
L 216.182635 168.527739 
L 213.521751 169.605902 
L 211.075818 170.966566 
L 208.937181 172.582984 
L 207.192067 174.419994 
L 205.917835 176.434895 
L 205.180433 178.57853 
L 205.032134 180.796566 
L 205.50962 183.030921 
L 206.632475 185.221321 
L 208.402143 187.306933 
L 210.801371 189.228042 
L 213.794176 190.92771 
L 217.326345 192.353398 
L 221.326447 193.458486 
L 225.707361 194.203657 
L 230.368266 194.558113 
L 235.197064 194.500578 
L 240.073155 194.02006 
L 244.870521 193.116365 
L 249.461022 191.80032 
L 253.717819 190.093718 
L 257.518844 188.028968 
L 260.750216 185.64847 
L 263.30951 183.003707 
L 265.108792 180.154097 
L 266.077339 177.165614 
L 266.163947 174.109216 
L 265.338785 171.059124 
L 263.594713 168.090986 
L 260.948036 165.279975 
L 257.438657 162.698868 
L 253.129612 160.416161 
L 248.105992 158.494254 
L 242.47327 156.987775 
L 236.355063 155.942061 
L 229.890374 155.391863 
L 223.230385 155.360295 
L 216.534874 155.858056 
L 209.968327 156.882959 
L 203.695869 158.419774 
L 197.879086 160.440395 
L 192.671865 162.904334 
L 188.21634 165.75953 
L 184.639076 168.943459 
L 182.047558 172.384518 
L 180.527112 176.003661 
L 180.138322 179.716233 
L 180.915031 183.433974 
L 182.86297 187.067143 
L 185.959079 190.526696 
L 190.151537 193.726488 
L 195.360511 196.585423 
L 201.479618 199.029514 
L 208.378087 200.99379 
L 215.903551 202.424005 
L 223.885439 203.278114 
L 232.138864 203.527451 
L 240.468947 203.157611 
L 248.675446 202.168982 
L 256.557595 200.576923 
L 263.919046 198.411583 
L 270.572761 195.717351 
L 276.345761 192.55195 
L 281.083605 188.985203 
L 284.654468 185.097483 
L 286.952733 180.977889 
L 287.90199 176.722193 
L 287.457355 172.430594 
L 285.607056 168.205348 
L 282.373224 164.148316 
L 277.811861 160.358498 
L 272.011984 156.92961 
L 265.093939 153.947756 
L 257.206931 151.489277 
L 248.525808 149.618791 
L 239.247176 148.387519 
L 229.584932 147.831903 
L 219.765306 147.972572 
L 210.021544 148.813683 
L 200.588341 150.342647 
L 191.696175 152.530266 
L 183.565658 155.331264 
L 176.402065 158.685213 
L 170.390158 162.517839 
L 165.689443 166.742666 
L 162.42999 171.262976 
L 160.708903 175.974035 
L 160.587555 180.765524 
L 162.089656 185.524138 
L 165.200203 190.136273 
L 169.865367 194.490751 
L 175.993308 198.481501 
L 183.455934 202.010155 
L 192.091543 204.988468 
L 201.708319 207.340528 
L 212.088599 209.00468 
L 222.993805 209.935131 
L 234.169942 210.103181 
L 245.353539 209.498062 
L 256.27787 208.127348 
L 266.679337 206.016933 
L 276.303839 203.210564 
L 284.91299 199.768948 
L 292.290017 195.76844 
L 298.245207 191.299355 
L 302.620762 186.463915 
L 305.294927 181.373913 
L 306.185309 176.148118 
L 305.251266 170.909496 
L 302.495332 165.782306 
L 297.963608 160.889151 
L 291.745111 156.348033 
L 283.970088 152.269506 
L 274.807317 148.753982 
L 264.460459 145.889257 
L 253.163533 143.748324 
L 241.175617 142.387518 
L 228.774897 141.845054 
L 216.252198 142.139974 
L 203.904148 143.271559 
L 192.026138 145.219194 
L 180.905244 147.942723 
L 170.813282 151.383254 
L 162.000161 155.464436 
L 154.687702 160.094145 
L 149.064067 165.166572 
L 145.278952 170.564637 
L 143.439647 176.162706 
L 143.608084 181.829515 
L 145.79894 187.431256 
L 149.978853 192.834742 
L 156.066789 197.910582 
L 163.935539 202.536281 
L 173.414348 206.599201 
L 184.292603 209.999304 
L 196.324502 212.651615 
L 209.234614 214.488342 
L 222.72419 215.460597 
L 236.478086 215.539681 
L 250.172137 214.717901 
L 263.480809 213.008881 
L 276.084949 210.447378 
L 287.679446 207.088591 
L 297.980624 203.006976 
L 306.733175 198.294597 
L 313.716484 193.059053 
L 318.750169 187.421016 
L 321.698705 181.511445 
L 322.475021 175.468542 
L 321.042964 169.434513 
L 317.418571 163.552216 
L 311.670104 157.961775 
L 303.916839 152.797237 
L 294.326632 148.183355 
L 283.112306 144.232573 
L 270.526932 141.042283 
L 256.858128 138.692431 
L 242.421475 137.243514 
L 227.553227 136.735037 
L 212.602469 137.184453 
L 197.92291 138.586626 
L 183.864504 140.91382 
L 170.765105 144.116236 
L 158.942334 148.123065 
L 148.685881 152.844049 
L 140.250413 158.171519 
L 133.849256 163.982846 
L 129.649029 170.14327 
L 127.765338 176.509028 
L 128.259664 182.930712 
L 131.137509 189.25678 
L 136.347868 195.337138 
L 143.784036 201.026706 
L 153.285752 206.188878 
L 164.642624 210.69881 
L 177.598783 214.446436 
L 191.858634 217.339156 
L 207.093612 219.304118 
L 222.949749 220.290051 
L 239.055909 220.268583 
L 255.032486 219.235038 
L 270.500354 217.208664 
L 285.089877 214.232298 
L 298.449745 210.371472 
L 310.255436 205.712974 
L 320.217101 200.362897 
L 328.08667 194.444225 
L 333.664016 188.094005 
L 336.802021 181.460166 
L 337.410411 174.698076 
L 335.458269 167.966892 
L 330.975151 161.425819 
L 324.050778 155.230333 
L 314.833288 149.528487 
L 303.526096 144.457371 
L 290.383422 140.139809 
L 275.704579 136.681392 
L 259.827158 134.167891 
L 243.119262 132.663139 
L 225.970964 132.207412 
L 208.785196 132.816372 
L 191.968269 134.480579 
L 175.920266 137.165599 
L 161.025511 140.812706 
L 147.643365 145.340159 
L 136.099556 150.645032 
L 126.67825 156.605554 
L 119.615069 163.083905 
L 115.091213 169.929403 
L 113.228843 176.982015 
L 114.087833 184.076098 
L 117.663986 191.044294 
L 123.888756 197.721482 
L 132.630495 203.948693 
L 143.697206 209.576896 
L 156.840744 214.470569 
L 171.762365 218.51096 
L 188.119524 221.59897 
L 205.533729 223.65758 
L 223.599309 224.633767 
L 241.892871 224.49986 
L 259.983226 223.254302 
L 277.441558 220.921798 
L 293.851602 217.552841 
L 308.819567 213.222622 
L 321.983588 208.029362 
L 333.022478 202.09208 
L 341.663555 195.547867 
L 347.689367 188.548719 
L 350.943144 181.258004 
L 351.332841 173.846648 
L 348.833668 166.489122 
L 343.489041 159.359335 
L 335.409921 152.626518 
L 324.77255 146.451207 
L 311.814624 140.981411 
L 296.829996 136.349068 
L 280.162015 132.666856 
L 262.19566 130.02546 
L 243.348644 128.491336 
L 224.061701 128.105053 
L 204.788269 128.880223 
L 185.983829 130.803085 
L 168.09513 133.832713 
L 151.549574 137.901888 
L 136.745 142.91858 
L 124.040117 148.768028 
L 113.745817 155.315366 
L 106.117573 162.408733 
L 101.349116 169.882796 
L 99.567539 177.562608 
L 100.829952 185.267703 
L 105.121786 192.816341 
L 112.356774 200.029796 
L 122.378645 206.73659 
L 134.964464 212.776572 
L 149.829588 218.004743 
L 166.63409 222.294738 
L 184.990534 225.541878 
L 204.472907 227.665723 
L 224.626509 228.612061 
L 244.97857 228.354284 
L 265.049349 226.894116 
L 284.363443 224.261672 
L 302.461055 220.514854 
L 318.908944 215.738076 
L 333.310798 210.04037 
L 345.316779 203.552895 
L 354.632022 196.425921 
L 361.023861 188.825342 
L 364.327625 180.928816 
L 364.450851 172.92161 
L 361.375806 164.992253 
L 355.160251 157.328089 
L 345.936427 150.110856 
L 333.908269 143.512367 
L 319.346915 137.690426 
L 302.584601 132.785049 
L 284.007084 128.915095 
L 264.044766 126.175392 
L 243.162719 124.634413 
L 221.849848 124.332572 
L 200.607437 125.281171 
L 179.937356 127.462042 
L 160.330198 130.827869 
L 142.25363 135.303217 
L 126.14124 140.786209 
L 112.382132 147.150856 
L 101.311535 154.24994 
L 93.202641 161.918427 
L 88.259875 169.977306 
L 86.613766 178.237761 
L 88.317536 186.505609 
L 93.34551 194.585855 
L 101.593378 202.2873 
L 112.880327 209.427068 
L 126.952979 215.834944 
L 143.491075 221.357436 
L 162.114753 225.861455 
L 182.393275 229.237517 
L 203.854986 231.402406 
L 225.998294 232.301218 
L 248.30339 231.908752 
L 270.244459 230.230192 
L 291.302079 227.301085 
L 310.975522 223.186596 
L 328.79466 217.980059 
L 344.331208 211.800867 
L 357.20901 204.79173 
L 367.113144 197.115382 
L 373.797615 188.9508 
L 377.091452 180.48903 
L 376.903047 171.928717 
L 373.222652 163.471434 
L 366.122933 155.316942 
L 355.757596 147.658464 
L 342.358072 140.678105 
L 326.228374 134.542524 
L 307.738196 129.398953 
L 287.314452 125.371662 
L 265.431409 122.558962 
L 242.599682 121.030803 
L 219.354306 120.827042 
L 196.242205 121.95641 
L 173.809309 124.39622 
L 152.587663 128.092802 
L 133.082798 132.962685 
L 115.761695 138.894475 
L 101.041595 145.751404 
L 89.27996 153.374484 
L 80.765791 161.586192 
L 75.712542 170.194607 
L 74.252788 178.997895 
L 76.434777 187.789045 
L 82.220978 196.360738 
L 91.488628 204.510235 
L 104.032318 212.04418 
L 119.568521 218.783181 
L 137.741998 224.566089 
L 158.133915 229.253847 
L 180.271492 232.732838 
L 203.638969 234.91763 
L 227.689623 235.753079 
L 251.858564 235.21571 
L 275.576003 233.314358 
L 298.280694 230.090056 
L 319.433215 225.615148 
L 338.528789 219.991674 
L 355.109328 213.349045 
L 368.77442 205.841062 
L 379.190999 197.642359 
L 386.101454 188.944336 
L 389.329983 179.950691 
L 388.787045 170.872651 
L 384.471785 161.924006 
L 376.472374 153.316072 
L 364.964248 145.252704 
L 350.206283 137.925462 
L 332.534976 131.509063 
L 312.356783 126.157213 
L 290.138769 121.998924 
L 266.397801 119.135406 
L 241.688516 117.637607 
L 216.590366 117.544458 
L 191.694023 118.861868 
L 167.587477 121.562501 
L 144.84214 125.586332 
L 123.999307 130.841976 
L 105.557266 137.208764 
L 89.959389 144.53951 
L 77.583473 152.663914 
L 68.732596 161.392522 
L 63.627705 170.521139 
L 62.402116 179.835614 
L 65.09807 189.116859 
L 71.665416 198.146007 
L 81.962488 206.709576 
L 95.759129 214.604514 
L 112.741829 221.643015 
L 132.520838 227.656992 
L 154.639107 232.502085 
L 178.582854 236.06113 
L 203.793493 238.246988 
L 229.68067 239.004679 
L 255.636094 238.312755 
L 281.047827 236.183895 
L 305.31472 232.664686 
L 327.860634 227.834614 
L 348.148122 221.804267 
L 365.691242 214.712807 
L 380.067194 206.724756 
L 390.926504 198.026183 
L 398.001517 188.820366 
L 401.112981 179.323039 
L 400.174563 169.757342 
L 395.195191 160.348567 
L 386.279156 151.31886 
L 373.623954 142.88197 
L 357.515933 135.238187 
L 338.323819 128.569591 
L 316.490284 123.035708 
L 292.52173 118.769703 
L 266.976551 115.875166 
L 240.452118 114.423606 
L 213.570811 114.452686 
L 186.965406 115.965253 
L 161.264182 118.929189 
L 137.07608 123.278084 
L 114.976272 128.912723 
L 95.492482 135.703347 
L 79.092389 143.492638 
L 66.172398 152.099369 
L 57.048065 161.322614 
L 51.946401 170.946446 
L 51.000239 180.74499 
L 54.244804 190.487725 
L 61.616584 199.94491 
L 72.954519 208.893002 
L 88.003501 217.119942 
L 106.420107 224.430178 
L 127.780422 230.64932 
L 151.589804 235.628294 
L 177.294331 239.246918 
L 204.29369 241.416801 
L 231.955202 242.083499 
L 259.628646 241.227879 
L 286.66155 238.866645 
L 312.414576 235.052029 
L 336.276643 229.870641 
L 357.679429 223.441501 
L 376.110905 215.91331 
L 391.12759 207.461006 
L 402.365208 198.281703 
L 409.547529 188.590092 
L 412.493139 178.61342 
L 411.120006 168.586155 
L 405.447708 158.744483 
L 395.597274 149.320737 
L 381.788624 140.537914 
L 364.335677 132.604396 
L 343.639216 125.709008 
L 320.177696 120.016519 
L 294.496178 115.663709 
L 267.193667 112.756082 
L 238.909144 111.365309 
L 210.306601 111.527467 
L 182.059458 113.24211 
L 154.834701 116.4722 
L 129.277132 121.144901 
L 105.994094 127.153221 
L 85.54104 134.358455 
L 68.408278 142.593392 
L 55.009223 151.666195 
L 45.670422 161.364867 
L 40.62361 171.462207 
L 39.999968 181.721136 
L 43.826746 191.900259 
L 52.026328 201.759551 
L 64.417764 211.066017 
L 80.720744 219.599197 
L 100.561938 227.156391 
L 123.483532 233.557472 
L 148.953792 238.649184 
L 176.379402 242.308807 
L 205.11928 244.447114 
L 234.499571 245.010545 
L 263.829447 243.982545 
L 292.41735 241.384028 
L 319.587307 237.272964 
L 344.694909 231.743089 
L 367.142602 224.921771 
L 386.393907 216.967073 
L 401.986237 208.064094 
L 413.542015 198.420661 
L 420.777806 188.262477 
L 423.511262 177.827836 
L 421.665696 167.362035 
L 415.272178 157.111604 
L 404.469093 147.3185 
L 389.499172 138.214391 
L 370.704044 130.015179 
L 348.516448 122.915879 
L 323.450275 117.085977 
L 296.088664 112.665388 
L 267.070436 109.761095 
L 237.075178 108.444565 
L 206.807327 108.749992 
L 176.979619 110.673417 
L 148.296311 114.172743 
L 121.436543 119.168656 
L 97.038262 125.546416 
L 75.683066 133.158493 
L 57.882341 141.827981 
L 44.065016 151.352706 
L 34.567237 161.509943 
L 29.624189 172.061624 
L 29.364292 182.75992 
L 33.805893 193.353063 
L 42.856544 203.59127 
L 56.314899 213.232634 
L 73.875171 222.048843 
L 95.134081 229.830583 
L 119.600109 236.392514 
L 146.704861 241.577676 
L 175.816269 245.261252 
L 206.253334 247.353564 
L 237.30206 247.802258 
L 268.232201 246.59361 
L 298.314442 243.75292 
L 326.837596 239.343994 
L 353.12542 233.467712 
L 376.552648 226.259721 
L 396.559867 217.887306 
L 412.666869 208.545505 
L 424.484175 198.452568 
L 431.722452 187.844857 
L 434.199581 176.971308 
L 431.845221 166.087591 
L 424.702754 155.450096 
L 412.928538 145.309892 
L 396.78851 135.906802 
L 376.652185 127.463727 
L 352.984201 120.181366 
L 326.333605 114.233444 
L 297.321111 109.762563 
L 266.624648 106.876792 
L 234.963512 105.647049 
L 203.081517 106.105365 
L 171.729509 108.244057 
L 141.647689 112.015835 
L 113.548131 117.334844 
L 88.097924 124.078617 
L 65.903339 132.090892 
L 47.495383 141.185234 
L 33.317096 151.149375 
L 23.712897 161.750162 
L 18.920219 172.739024 
L 19.063656 183.857789 
L 24.151751 194.844762 
L 34.076517 205.440876 
L 48.615699 215.395808 
L 67.43774 224.473888 
L 90.109338 232.459683 
L 116.105413 239.163108 
L 144.821271 244.42395 
L 175.586667 248.115698 
L 207.681449 250.148583 
L 240.352421 250.47176 
L 272.831015 249.074573 
L 304.351379 245.986882 
L 334.168433 241.278426 
L 361.575487 235.057255 
L 385.920989 227.467247 
L 406.624015 218.684786 
L 423.18813 208.914659 
L 435.213288 198.385283 
L 442.40549 187.343364 
L 444.583962 176.048115 
L 441.685678 164.765169 
L 433.767123 153.760336 
L 421.00324 143.293335 
L 403.683576 133.611666 
L 382.205727 124.944757 
L 357.066213 117.498527 
L 328.849001 111.450492 
L 298.211944 106.945536 
L 265.871439 104.092438 
L 232.585676 102.961248 
L 199.136863 103.581572 
L 166.312839 105.941799 
L 134.88852 109.989313 
L 105.607596 115.631652 
L 79.164936 122.73863 
L 56.190096 131.145329 
L 37.232326 140.655935 
L 22.74745 151.048291 
L 13.086901 162.079095 
L 8.489207 173.489588 
L 9.074113 185.011632 
L 14.839489 196.374009 
L 25.661109 207.308802 
L 41.295306 217.557722 
L 61.384445 226.8782 
L 85.4651 235.049135 
L 112.978742 241.876137 
L 143.284691 247.196152 
L 175.675036 250.881354 
L 209.391171 252.842219 
L 243.641564 253.029694 
L 277.620342 251.436424 
L 310.526251 248.096989 
L 341.581557 243.087164 
L 370.050425 236.522199 
L 395.256359 228.554169 
L 416.598272 219.368451 
L 433.564824 209.179413 
L 445.74667 198.22541 
L 452.846328 186.763207 
L 454.685437 175.06196 
L 451.209219 163.396899 
L 442.488039 152.042844 
L 428.71602 141.267742 
L 410.206732 131.326331 
L 387.386061 122.454126 
L 360.782417 114.861836 
L 331.014494 108.730358 
L 298.776888 104.20647 
L 264.823888 101.399317 
L 229.951822 100.377779 
L 194.980384 101.168782 
L 160.733361 103.756599 
L 128.019227 108.083152 
L 97.612056 114.04931 
L 70.233206 121.517162 
L 46.534202 130.313201 
L 27.081235 140.23236 
L 12.341639 151.042787 
L 2.672663 162.491268 
L -1 172.446478 
M -1 182.006636 
L -0.623976 186.218692 
L 5.848625 197.939496 
L 17.58948 209.195209 
L 34.333005 219.719988 
L 55.695173 229.264791 
L 81.182316 237.603269 
L 110.202536 244.537137 
L 142.079445 249.900883 
L 176.06793 253.565726 
L 211.371574 255.442699 
L 247.161317 255.484815 
L 282.594926 253.688232 
L 316.836818 250.092416 
L 349.077767 244.779274 
L 378.554029 237.871293 
L 404.565433 229.528716 
L 426.492016 219.945825 
L 443.808794 209.346417 
L 456.098332 197.978577 
L 461.8 188.258304 
M 461.8 166.005384 
L 460.43416 161.984732 
L 450.88442 150.298239 
L 436.085958 139.232393 
L 416.376775 129.048768 
L 392.211271 119.988556 
L 364.149771 112.266852 
L 332.845533 106.067549 
L 299.029543 101.538959 
L 263.493444 98.790266 
L 227.071003 97.888891 
L 190.618547 98.858845 
L 154.994827 101.680098 
L 121.040788 106.288982 
L 89.559713 112.579628 
L 61.298222 120.406393 
L 36.92856 129.587236 
L 17.032612 139.907951 
L 2.088004 151.12716 
L -1 154.928046 
M -1 201.215263 
L 9.844166 211.100054 
L 27.711338 221.883781 
L 50.352874 231.636015 
L 77.244737 240.125555 
L 107.761715 247.150602 
L 141.191959 252.543552 
L 176.753585 256.175 
L 213.61296 257.956841 
L 250.904252 257.844405 
L 287.749765 255.837575 
L 323.280598 251.980856 
L 356.657141 246.362384 
L 387.088911 239.111925 
L 413.853282 230.397867 
L 436.312635 220.423319 
L 453.929556 209.42137 
L 461.8 201.91953 
M 461.8 151.789857 
L 458.972151 148.527206 
L 443.129166 137.18685 
L 422.209673 126.777433 
L 396.696812 117.545439 
L 367.182866 109.709975 
L 334.355514 103.457564 
L 298.981808 98.937713 
L 261.89025 96.259332 
L 223.951384 95.488115 
L 186.057366 96.64493 
L 149.100979 99.705263 
L 113.954601 104.599733 
L 81.449609 111.215662 
L 52.356712 119.399667 
L 27.367678 128.961217 
L 7.078884 139.677069 
L -1 145.893009 
M -1 210.06161 
L 2.410391 213.023145 
L 21.415445 224.049939 
L 45.34295 233.993716 
L 73.638359 242.61879 
L 105.64319 249.720211 
L 140.610354 255.128626 
L 177.721591 258.714325 
L 216.106622 260.390346 
L 254.863554 260.114585 
L 293.080077 257.890848 
L 329.854937 253.768825 
L 364.319196 247.842983 
L 395.656758 240.250403 
L 423.123702 231.167607 
L 446.065936 220.806457 
L 461.8 210.770832 
M 461.8 143.323957 
L 449.859377 135.130888 
L 427.71912 124.511155 
L 400.856022 115.122697 
L 369.89438 107.18827 
L 335.556168 100.896689 
L 298.644205 96.398327 
L 260.023383 93.801531 
L 220.6004 93.170006 
L 181.302473 94.521258 
L 143.05553 97.82612 
L 106.762391 103.009375 
L 73.281453 109.951468 
L 43.406391 118.491261 
L 17.847342 128.429773 
L -1 138.573591 
M -1 217.043754 
L 15.432574 226.21904 
L 40.652791 236.339333 
L 70.351002 245.085238 
L 103.835488 252.248993 
L 140.324124 257.659824 
L 178.962651 261.188017 
L 218.84467 262.748026 
L 259.032913 262.300545 
L 298.581267 259.853495 
L 336.55705 255.461897 
L 372.063007 249.226642 
L 404.258512 241.292168 
L 432.379471 231.843119 
L 455.756453 221.100049 
L 461.8 217.159183 
M 461.8 136.69421 
L 456.288383 133.06445 
L 432.916952 122.249064 
L 404.700511 112.718669 
L 372.29543 104.699335 
L 336.457867 98.381835 
L 298.026125 93.917109 
L 257.901044 91.412652 
L 217.02488 90.929937 
L 176.35918 92.482897 
L 136.862163 96.037547 
L 99.466134 101.512718 
L 65.055484 108.781907 
L 34.445767 117.676206 
L 8.364376 127.988221 
L -1 133.128147 
M -1 222.608548 
L 9.751695 228.39145 
L 36.271412 238.673983 
L 67.371982 247.526733 
L 102.328469 254.739452 
L 140.323904 260.140258 
L 180.46838 263.599721 
L 221.819891 265.033968 
L 263.406446 264.406719 
L 304.248908 261.73019 
L 343.384056 257.064878 
L 379.887298 250.518183 
L 412.89452 242.241949 
L 441.622538 232.428931 
L 461.8 222.987129 
M 461.8 130.707742 
L 437.813483 119.990528 
L 408.240467 110.332036 
L 374.395844 102.241196 
L 337.069854 95.910429 
L 297.13602 91.490943 
L 255.530703 89.089118 
L 213.231148 88.763953 
L 171.232527 90.52561 
L 130.524522 94.335125 
L 92.06801 100.105261 
L 56.772372 107.702504 
L 25.473995 116.950157 
L -1 127.598836 
M -1 227.786189 
L 4.3632 230.567371 
L 32.189177 240.998522 
L 64.691855 249.94476 
L 101.113097 257.193669 
L 140.601271 262.572548 
L 182.231159 265.952531 
L 225.025641 267.251669 
L 267.978627 266.436919 
L 310.078714 263.524976 
L 350.333001 258.581939 
L 387.790507 251.721816 
L 421.564638 243.103891 
L 450.854174 232.929029 
L 461.8 227.71038 
M 461.8 126.10223 
L 442.417755 117.73511 
L 411.484891 107.961756 
L 376.204375 99.812233 
L 337.400435 93.480314 
L 295.981559 89.117191 
L 252.919221 86.827872 
L 209.225103 86.668652 
L 165.927318 88.64573 
L 124.046219 92.715009 
L 84.570356 98.783073 
L 48.433138 106.709333 
L 16.490764 116.309281 
L -1 123.470182 
M -1 232.617434 
L -0.741326 232.746866 
L 28.397576 243.313591 
L 62.302214 252.340521 
L 100.181263 259.613368 
L 141.148595 264.958903 
L 184.244013 268.249087 
L 228.455752 269.404135 
L 272.744237 268.394447 
L 316.066528 265.241366 
L 357.40088 260.01673 
L 395.77084 252.841235 
L 430.268321 243.881653 
L 460.075084 233.34695 
L 461.8 232.508521 
M 461.8 121.768745 
L 446.737747 115.482528 
L 414.441789 105.607011 
L 377.728873 97.411117 
L 337.457124 91.08968 
L 294.569747 86.793608 
L 250.072939 84.626288 
L 205.012279 84.641091 
L 160.448158 86.840067 
L 117.430827 91.173836 
L 76.97564 97.542699 
L 40.039092 105.798923 
L 7.4962 115.750177 
L -1 119.292428 
M -1 236.533549 
L 24.889048 245.619656 
L 60.195528 254.714979 
L 99.525635 261.999986 
L 141.958916 267.301196 
L 186.500509 270.491652 
L 232.104465 271.493961 
L 277.698319 270.282172 
L 322.208304 266.882438 
L 364.584644 261.37246 
L 403.826315 253.87971 
L 439.004687 244.578484 
L 461.8 236.37854 
M 461.8 117.68132 
L 450.78054 113.232635 
L 417.118326 103.267176 
L 378.976423 95.036761 
L 337.246762 88.737007 
L 292.907031 84.51828 
L 246.997757 82.482102 
L 200.597899 82.678712 
L 154.799478 85.105829 
L 110.681885 89.708649 
L 69.286433 96.381081 
L 31.591783 104.968193 
L -1 115.111336 
M -1 240.217904 
L 21.656835 247.917037 
L 58.365006 257.068898 
L 99.13955 264.354713 
L 143.025847 269.601012 
L 188.99468 272.682167 
L 235.966371 273.523402 
L 282.836141 272.102604 
L 328.500093 268.450897 
L 371.881217 262.651967 
L 411.954789 254.840143 
L 447.772579 245.197288 
L 461.8 240.059656 
M 461.8 113.817146 
L 454.552449 110.985389 
L 419.520952 100.941781 
L 379.953458 92.688279 
L 336.775622 86.42102 
L 290.999374 82.289569 
L 243.699199 80.393357 
L 195.986919 80.779284 
L 148.985557 83.440564 
L 103.8029 88.31683 
L 61.505393 95.295503 
L 23.092962 104.214386 
L -1 111.847756 
M -1 243.723439 
L 18.694865 250.205931 
L 56.804494 259.402878 
L 99.016909 266.678534 
L 144.343486 271.859697 
L 191.720959 274.822307 
L 240.03636 275.494419 
L 288.153166 273.857944 
L 334.938034 269.949133 
L 379.287496 263.857775 
L 420.153991 255.725133 
L 456.5706 245.740674 
L 461.8 243.789859 
L 461.8 243.789859 
" clip-path="url(#pa3931bf3f6)" style="fill: none; stroke: #0072b2; stroke-width: 2.5; stroke-linecap: square"/>
   </g>
   <g id="line2d_4">
    <defs>
     <path id="m2683945904" d="M 0 5 
C 1.326016 5 2.597899 4.473168 3.535534 3.535534 
C 4.473168 2.597899 5 1.326016 5 0 
C 5 -1.326016 4.473168 -2.597899 3.535534 -3.535534 
C 2.597899 -4.473168 1.326016 -5 0 -5 
C -1.326016 -5 -2.597899 -4.473168 -3.535534 -3.535534 
C -4.473168 -2.597899 -5 -1.326016 -5 0 
C -5 1.326016 -4.473168 2.597899 -3.535534 3.535534 
C -2.597899 4.473168 -1.326016 5 0 5 
z
" style="stroke: #000000; stroke-opacity: 0.8"/>
    </defs>
    <g clip-path="url(#pa3931bf3f6)">
     <use xlink:href="#m2683945904" x="546.372117" y="177.408158" style="fill-opacity: 0.8; stroke: #000000; stroke-opacity: 0.8"/>
    </g>
   </g>
   <g id="patch_3">
    <path d="M 228.9 334.8 
L 228.9 20.016315 
" style="fill: none; stroke: #000000; stroke-width: 0.8; stroke-linejoin: miter; stroke-linecap: square"/>
   </g>
   <g id="patch_4">
    <path d="M 447 334.8 
L 447 20.016315 
" style="fill: none"/>
   </g>
   <g id="patch_5">
    <path d="M 10.8 177.408158 
L 447 177.408158 
" style="fill: none; stroke: #000000; stroke-width: 0.8; stroke-linejoin: miter; stroke-linecap: square"/>
   </g>
   <g id="patch_6">
    <path d="M 10.8 20.016315 
L 447 20.016315 
" style="fill: none"/>
   </g>
  </g>
 </g>
 <defs>
  <clipPath id="pa3931bf3f6">
   <rect x="10.8" y="20.016315" width="436.2" height="314.783685"/>
  </clipPath>
 </defs>
</svg>
