<?xml version="1.0" encoding="utf-8" standalone="no"?>
<!DOCTYPE svg PUBLIC "-//W3C//DTD SVG 1.1//EN"
  "http://www.w3.org/Graphics/SVG/1.1/DTD/svg11.dtd">
<svg xmlns:xlink="http://www.w3.org/1999/xlink" width="460.8pt" height="345.6pt" viewBox="0 0 460.8 345.6" xmlns="http://www.w3.org/2000/svg" version="1.1">
 <metadata>
  <rdf:RDF xmlns:dc="http://purl.org/dc/elements/1.1/" xmlns:cc="http://creativecommons.org/ns#" xmlns:rdf="http://www.w3.org/1999/02/22-rdf-syntax-ns#">
   <cc:Work>
    <dc:type rdf:resource="http://purl.org/dc/dcmitype/StillImage"/>
    <dc:date>2026-03-24T23:50:23.001079</dc:date>
    <dc:format>image/svg+xml</dc:format>
    <dc:creator>
     <cc:Agent>
      <dc:title>Matplotlib v3.10.8, https://matplotlib.org/</dc:title>
     </cc:Agent>
    </dc:creator>
   </cc:Work>
  </rdf:RDF>
 </metadata>
 <defs>
  <style type="text/css">*{stroke-linejoin: round; stroke-linecap: butt}</style>
 </defs>
 <g id="figure_1">
  <g id="patch_1">
   <path d="M 0 345.6 
L 460.8 345.6 
L 460.8 0 
L 0 0 
L 0 345.6 
z
" style="fill: none"/>
  </g>
  <g id="axes_1">
   <g id="patch_2">
    <path d="M 10.8 334.8 
L 447 334.8 
L 447 20.016315 
L 10.8 20.016315 
L 10.8 334.8 
z
" style="fill: none"/>
   </g>
   <g id="matplotlib.axis_1">
    <g id="text_1">
     <!-- $x$ -->
     <g transform="translate(435.913188 195.245154) scale(0.2 -0.2)">
      <defs>
       <path id="CMMI12-78" d="M 3034 2606 
C 2829 2567 2752 2414 2752 2293 
C 2752 2139 2874 2088 2963 2088 
C 3155 2088 3290 2254 3290 2427 
C 3290 2695 2982 2816 2714 2816 
C 2323 2816 2106 2433 2048 2312 
C 1901 2816 1504 2816 1389 2816 
C 736 2816 390 1980 390 1839 
C 390 1814 416 1782 461 1782 
C 512 1782 525 1820 538 1846 
C 755 2555 1184 2689 1370 2689 
C 1658 2689 1715 2420 1715 2267 
C 1715 2127 1677 1980 1600 1673 
L 1382 798 
C 1286 415 1101 64 762 64 
C 730 64 570 64 435 147 
C 666 192 717 383 717 460 
C 717 588 621 664 499 664 
C 346 664 179 530 179 326 
C 179 57 480 -64 755 -64 
C 1062 -64 1280 179 1414 441 
C 1517 64 1837 -64 2074 -64 
C 2726 -64 3072 773 3072 913 
C 3072 945 3046 971 3008 971 
C 2950 971 2944 939 2925 888 
C 2752 326 2381 64 2093 64 
C 1869 64 1747 230 1747 492 
C 1747 632 1773 734 1875 1156 
L 2099 2024 
C 2195 2408 2413 2689 2707 2689 
C 2720 2689 2899 2689 3034 2606 
z
" transform="scale(0.015625)"/>
      </defs>
      <use xlink:href="#CMMI12-78" transform="scale(0.996264)"/>
     </g>
    </g>
   </g>
   <g id="matplotlib.axis_2">
    <g id="text_2">
     <!-- $y$ -->
     <g transform="translate(215.387165 16.140682) scale(0.2 -0.2)">
      <defs>
       <path id="CMMI12-79" d="M 1683 -700 
C 1510 -939 1261 -1152 947 -1152 
C 870 -1152 563 -1152 467 -889 
C 486 -895 518 -895 531 -895 
C 723 -895 851 -729 851 -582 
C 851 -435 730 -384 634 -384 
C 531 -384 307 -458 307 -759 
C 307 -1071 582 -1286 947 -1286 
C 1587 -1286 2234 -700 2413 6 
L 3040 2485 
C 3046 2517 3059 2556 3059 2594 
C 3059 2689 2982 2753 2886 2753 
C 2829 2753 2694 2727 2643 2535 
L 2170 658 
C 2138 543 2138 530 2086 460 
C 1958 281 1747 64 1440 64 
C 1082 64 1050 415 1050 588 
C 1050 952 1222 1443 1395 1903 
C 1466 2088 1504 2178 1504 2305 
C 1504 2574 1312 2816 998 2816 
C 410 2816 173 1890 173 1839 
C 173 1814 198 1782 243 1782 
C 301 1782 307 1807 333 1897 
C 486 2433 730 2689 979 2689 
C 1037 2689 1146 2689 1146 2478 
C 1146 2312 1075 2127 979 1884 
C 666 1047 666 837 666 683 
C 666 77 1101 -64 1421 -64 
C 1606 -64 1837 -6 2061 230 
L 2067 224 
C 1971 -147 1907 -392 1683 -700 
z
" transform="scale(0.015625)"/>
      </defs>
      <use xlink:href="#CMMI12-79" transform="scale(0.996264)"/>
     </g>
    </g>
   </g>
   <g id="line2d_1">
    <defs>
     <path id="mc0c3c4929f" d="M 3 0 
L -3 -3 
L -3 3 
z
" style="stroke: #000000; stroke-linejoin: miter"/>
    </defs>
    <g>
     <use xlink:href="#mc0c3c4929f" x="447" y="177.408158" style="stroke: #000000; stroke-linejoin: miter"/>
    </g>
   </g>
   <g id="line2d_2">
    <defs>
     <path id="m1a9cc0a7a5" d="M 0 -3 
L -3 3 
L 3 3 
z
" style="stroke: #000000; stroke-linejoin: miter"/>
    </defs>
    <g>
     <use xlink:href="#m1a9cc0a7a5" x="228.9" y="20.016315" style="stroke: #000000; stroke-linejoin: miter"/>
    </g>
   </g>
   <g id="line2d_3">
    <path d="M 228.9 158.566208 
L 230.625186 157.163439 
L 236.836774 146.676154 
L 242.411634 138.52089 
L 250.025208 129.336157 
L 259.653579 119.935751 
L 270.998894 111.153199 
L 283.505985 103.768978 
L 296.405935 98.443134 
L 308.782732 95.659386 
L 319.656894 95.685696 
L 328.078266 98.554775 
L 333.219218 104.066093 
L 334.459336 111.809009 
L 331.453391 121.204636 
L 324.175871 131.562367 
L 312.937469 142.145624 
L 298.371478 152.240584 
L 281.390849 161.221392 
L 263.119379 168.605757 
L 244.802897 174.09575 
L 227.708257 177.60009 
L 213.019059 179.235949 
L 201.737445 179.310285 
L 194.600749 178.282666 
L 192.020533 176.713288 
L 194.049471 175.201343 
L 200.379088 174.319754 
L 210.368523 174.552708 
L 223.101699 176.242084 
L 237.467716 179.548077 
L 252.257181 184.427953 
L 266.265779 190.635127 
L 278.395783 197.738838 
L 287.746414 205.162707 
L 293.68508 212.238641 
L 295.893284 218.271074 
L 294.383406 222.605484 
L 289.485239 224.694701 
L 281.803983 224.156635 
L 272.154015 220.817846 
L 261.474958 214.738623 
L 250.738183 206.216964 
L 240.852666 195.770767 
L 232.579115 184.099592 
L 226.460432 172.029225 
L 222.774944 160.44394 
L 221.516622 150.212449 
L 222.403928 142.114227 
L 224.916155 136.772823 
L 228.353506 134.602228 
L 231.914888 135.77113 
L 234.785704 140.188332 
L 236.226985 147.510642 
L 235.65705 157.17252 
L 232.717621 168.434801 
L 227.317791 180.448044 
L 219.65136 192.324805 
L 210.185601 203.214279 
L 199.622248 212.372603 
L 188.834209 219.222564 
L 178.783804 223.39741 
L 170.43019 224.765023 
L 164.634714 223.430499 
L 162.073208 219.717206 
L 163.163673 214.128378 
L 168.016443 207.293098 
L 176.411855 199.901915 
L 187.80794 192.638309 
L 201.377881 186.112492 
L 216.074194 180.803822 
L 230.714129 177.017192 
L 244.078748 174.857428 
L 255.016864 174.223959 
L 262.544498 174.826116 
L 265.930895 176.217409 
L 264.763317 177.845333 
L 258.98472 179.11179 
L 248.900916 179.438183 
L 235.156522 178.328794 
L 218.681882 175.426257 
L 200.615723 170.553632 
L 182.210532 163.738919 
L 164.729122 155.219481 
L 149.341679 145.425787 
L 137.032398 134.945846 
L 128.523967 124.473565 
L 124.226369 114.745811 
L 124.214285 106.474064 
L 128.234642 100.277093 
L 135.743101 96.621043 
L 145.965626 95.772674 
L 157.978968 97.770281 
L 170.802229 102.415204 
L 183.490729 109.284955 
L 195.223265 117.766948 
L 205.374587 127.109914 
L 213.566414 136.488443 
L 219.692391 145.07482 
L 223.914964 152.11166 
L 226.634826 156.978732 
L 228.436264 159.247864 
L 230.014008 158.720928 
L 232.08901 155.447416 
L 235.321585 149.720007 
L 240.230645 142.048528 
L 247.127147 133.114695 
L 256.068521 123.711764 
L 266.83883 114.674621 
L 278.956954 106.80666 
L 291.712362 100.810118 
L 304.225385 97.226146 
L 315.526512 96.390008 
L 324.647325 98.405348 
L 330.714525 103.139711 
L 333.038081 110.241495 
L 331.185005 119.17656 
L 325.031505 129.280879 
L 314.788221 139.82415 
L 300.995695 150.078317 
L 284.489987 159.384513 
L 266.341102 167.212137 
L 247.76943 173.20456 
L 230.047494 177.207265 
L 214.395669 179.275884 
L 201.881182 179.663561 
L 193.329447 178.789012 
L 189.255691 177.188508 
L 189.823051 175.456535 
L 194.830895 174.180955 
L 203.734422 173.879033 
L 215.693738 174.940593 
L 229.647959 177.583904 
L 244.407607 181.82868 
L 258.756979 187.48894 
L 271.557233 194.186601 
L 281.841003 201.384655 
L 288.890096 208.436945 
L 292.289522 214.649893 
L 291.953237 219.350413 
L 288.119699 221.953559 
L 281.318077 222.02346 
L 272.308679 219.321655 
L 262.003537 213.838071 
L 251.374848 205.801494 
L 241.36007 195.668239 
L 232.772654 184.089776 
L 226.226845 171.862008 
L 222.083513 159.860617 
L 220.421985 148.968229 
L 221.040288 139.999901 
L 223.48352 133.633665 
L 227.09734 130.352384 
L 231.101194 130.402223 
L 234.673989 133.77147 
L 237.043757 140.191663 
L 237.572454 149.160896 
L 235.827514 159.987199 
L 231.633045 171.848047 
L 225.095482 183.860606 
L 216.600965 195.15636 
L 206.78443 204.953404 
L 196.473086 212.619927 
L 186.609481 217.723256 
L 178.16129 220.060208 
L 172.026353 219.666221 
L 168.941962 216.802737 
L 169.407132 211.924299 
L 173.625388 205.628716 
L 181.47382 198.595165 
L 192.501676 191.516213 
L 205.959101 185.030239 
L 220.853793 179.660641 
L 236.030761 175.767541 
L 250.268204 173.51645 
L 262.380977 172.866733 
L 271.322385 173.580806 
L 276.27514 175.252998 
L 276.723249 177.355166 
L 272.498325 179.294518 
L 263.796118 180.477975 
L 251.161748 180.376735 
L 235.444958 178.584749 
L 217.729428 174.865324 
L 199.242508 169.181261 
L 181.253498 161.705469 
L 164.969572 152.810861 
L 151.438637 143.04034 
L 141.467694 133.059545 
L 135.563805 123.596743 
L 133.902627 115.375453 
L 136.326929 109.046141 
L 142.374695 105.12346 
L 151.333725 103.935017 
L 162.317211 105.586614 
L 174.352872 109.947406 
L 186.477075 116.656566 
L 197.824989 125.151079 
L 207.708269 134.712273 
L 215.673099 144.52701 
L 221.533293 153.758006 
L 225.375641 161.616949 
L 227.537345 167.433753 
L 228.558088 170.715642 
L 229.111709 171.190669 
L 231.687896 163.85857 
L 234.975571 156.718537 
L 240.171214 148.046274 
L 247.416345 138.607619 
L 256.58231 129.231883 
L 267.26996 120.739002 
L 278.837323 113.868158 
L 290.452983 109.214313 
L 301.170339 107.17839 
L 310.015882 107.935508 
L 316.08321 111.424013 
L 318.623836 117.356108 
L 317.126085 125.24886 
L 311.374362 134.472512 
L 301.482852 144.311403 
L 287.900033 154.031691 
L 271.383061 162.949434 
L 252.943894 170.492649 
L 233.771617 176.251529 
L 215.137713 180.012185 
L 198.292601 181.770857 
L 184.362654 181.72741 
L 174.25691 180.258905 
L 168.591846 177.875959 
L 167.641006 175.166205 
L 171.314 172.730432 
L 179.166766 171.11766 
L 190.442145 170.765504 
L 204.137076 171.951701 
L 219.090316 174.761575 
L 234.08275 179.074748 
L 247.941251 184.572508 
L 259.636766 190.765333 
L 268.367891 197.038075 
L 273.622595 202.708649 
L 275.212788 207.094722 
L 273.278975 209.582108 
L 268.265026 209.688352 
L 260.865825 207.11538 
L 251.953086 201.78608 
L 242.486561 193.861123 
L 233.419211 183.734174 
L 225.605342 172.005612 
L 219.720397 159.436904 
L 216.199878 146.889563 
L 215.203033 135.254093 
L 216.604506 125.375259 
L 220.014498 117.980408 
L 224.825216 113.617317 
L 230.278902 112.607194 
L 235.550656 115.017101 
L 239.837866 120.654299 
L 242.447415 129.083032 
L 242.872067 139.662218 
L 240.848444 151.600635 
L 236.390786 164.024575 
L 229.796972 176.051869 
L 221.625971 186.865588 
L 212.648597 195.780816 
L 203.776058 202.298557 
L 195.972912 206.142054 
L 190.162619 207.272451 
L 187.134641 205.882651 
L 187.461977 202.370248 
L 191.437128 197.292333 
L 199.032827 191.306653 
L 209.891603 185.104808 
L 223.345604 179.343886 
L 238.465286 174.583018 
L 254.1329 171.230824 
L 269.134384 169.508632 
L 282.261518 169.432848 
L 292.415211 170.817972 
L 298.700633 173.299819 
L 300.505595 176.37654 
L 297.555094 179.463368 
L 289.937056 181.955683 
L 278.096939 183.294224 
L 262.801666 183.026052 
L 245.076137 180.855287 
L 226.118032 176.678612 
L 207.198581 170.601972 
L 189.558194 162.936724 
L 174.306263 154.175408 
L 162.334029 144.949304 
L 154.2481 135.971651 
L 150.330321 127.971826 
L 150.527168 121.62665 
L 154.469158 117.495312 
L 161.517939 115.964113 
L 170.836245 117.206338 
L 181.473791 121.161186 
L 192.460804 127.533944 
L 202.900254 135.8176 
L 212.050076 145.334117 
L 219.38772 155.291746 
L 224.651112 164.853242 
L 227.852434 173.208839 
L 229.263747 179.647342 
L 229.376217 183.618873 
L 228.837228 184.783538 
L 228.371794 183.041567 
L 228.696187 178.542169 
L 230.432438 171.670289 
L 234.032296 163.012487 
L 239.71831 153.305048 
L 247.448067 143.369078 
L 256.905397 134.038502 
L 267.519745 126.087519 
L 278.512227 120.164097 
L 288.964246 116.735504 
L 297.902378 116.050726 
L 304.391576 118.123065 
L 307.627882 122.734295 
L 307.021766 129.459775 
L 302.263999 137.711972 
L 293.367524 146.798139 
L 280.680956 155.98663 
L 264.871946 164.575535 
L 246.881439 171.957173 
L 227.852542 177.672379 
L 209.04011 181.449574 
L 191.708981 183.225025 
L 177.029893 183.142538 
L 165.98237 181.532793 
L 159.273313 178.874459 
L 157.278607 175.740974 
L 160.013015 172.738227 
L 167.131065 170.439266 
L 177.958827 169.322419 
L 191.553699 169.718895 
L 206.786761 171.775046 
L 222.440264 175.433057 
L 237.311436 180.432083 
L 250.313299 186.329896 
L 260.563482 192.543143 
L 267.453197 198.402509 
L 270.690392 203.217651 
L 270.313552 206.345773 
L 266.675284 207.257338 
L 260.397696 205.5926 
L 252.304105 201.203483 
L 243.333803 194.17663 
L 234.448122 184.835189 
L 226.536767 173.718863 
L 220.333272 161.543773 
L 216.347521 149.145552 
L 214.821567 137.410679 
L 215.712725 127.202178 
L 218.705305 119.28634 
L 223.24957 114.267098 
L 228.623929 112.53399 
L 234.014136 114.228429 
L 238.601652 119.231349 
L 241.652449 127.173353 
L 242.597493 137.466432 
L 241.096947 149.354393 
L 237.08166 161.977392 
L 230.767719 174.444768 
L 222.642375 185.909566 
L 213.422435 195.638076 
L 203.988845 203.068184 
L 195.303496 207.851393 
L 188.316057 209.874907 
L 183.869628 209.262046 
L 182.61422 206.351267 
L 184.936411 201.656013 
L 190.912073 195.809433 
L 200.28698 189.499322 
L 212.487535 183.399544 
L 226.661078 178.104457 
L 241.742471 174.07252 
L 256.541227 171.58436 
L 269.841476 170.719137 
L 280.505863 171.351332 
L 287.574042 173.168063 
L 290.346876 175.705121 
L 288.448725 178.398103 
L 281.86217 180.643598 
L 270.932005 181.864415 
L 256.338127 181.572463 
L 239.039746 179.423127 
L 220.195946 175.255763 
L 201.069748 169.116301 
L 182.924283 161.259605 
L 166.920354 152.131198 
L 154.024495 142.329927 
L 144.935582 132.55496 
L 140.036328 123.542034 
L 139.373636 115.994918 
L 142.669112 110.518553 
L 149.358252 107.560213 
L 158.654172 107.364331 
L 169.629551 109.945368 
L 181.3088 115.081479 
L 192.761626 122.329762 
L 203.189143 131.061914 
L 211.994442 140.517186 
L 218.831137 149.867911 
L 223.625544 158.291719 
L 226.570707 165.043864 
L 228.79645 171.325125 
L 229.385829 170.278547 
L 230.584034 166.460374 
L 233.044299 160.189307 
L 237.270712 151.997631 
L 243.553473 142.584213 
L 251.925709 132.75292 
L 262.146373 123.342061 
L 273.711238 115.151304 
L 285.891303 108.872684 
L 297.795245 105.031954 
L 308.450238 103.945511 
L 316.893594 105.696711 
L 322.266612 110.13353 
L 323.901658 116.887583 
L 321.394087 125.412509 
L 314.651916 135.037939 
L 303.918173 145.033879 
L 289.763359 154.67934 
L 273.04819 163.328759 
L 254.859566 170.46995 
L 236.425212 175.768208 
L 219.014421 179.092503 
L 203.833708 180.521436 
L 191.92667 180.328562 
L 184.087027 178.948667 
L 180.792687 176.928367 
L 182.166755 174.865936 
L 187.969007 173.346265 
L 197.61859 172.877313 
L 210.245866 173.834303 
L 224.768703 176.41714 
L 239.986292 180.625305 
L 254.682025 186.252782 
L 267.726183 192.903693 
L 278.169221 200.027305 
L 285.317412 206.969235 
L 288.784225 213.034079 
L 288.51312 217.553597 
L 284.7701 219.95399 
L 278.107165 219.815825 
L 269.300469 216.920842 
L 259.269343 211.281005 
L 248.98401 203.146826 
L 239.370856 192.993879 
L 231.224233 181.488453 
L 225.133078 169.435221 
L 221.42918 157.711518 
L 220.161795 147.194044 
L 221.100771 138.684574 
L 223.767611 132.841381 
L 227.491225 130.122556 
L 231.482754 130.746384 
L 234.922041 134.672366 
L 237.047202 141.604612 
L 237.238461 151.017305 
L 235.087964 162.199912 
L 230.448602 174.318049 
L 223.456913 186.484473 
L 214.527579 197.833803 
L 204.319779 207.59422 
L 193.678345 215.149761 
L 183.555128 220.087673 
L 174.917912 222.226736 
L 168.65544 221.624224 
L 165.487613 218.561171 
L 165.889469 213.507611 
L 170.036366 207.071296 
L 177.775857 199.934928 
L 188.629297 192.787923 
L 201.8235 186.259245 
L 216.349936 180.857622 
L 231.046424 176.924777 
L 244.694144 174.605981 
L 256.121339 173.840576 
L 264.304404 174.373225 
L 268.457251 175.784605 
L 268.100884 177.538472 
L 263.106848 179.040398 
L 253.710633 179.702441 
L 240.493773 179.007376 
L 224.336265 176.566216 
L 206.343581 172.163345 
L 187.754842 165.784805 
L 169.840428 157.626843 
L 153.798159 148.083743 
L 140.657327 137.715913 
L 131.199003 127.201123 
L 125.899565 117.273377 
L 124.902159 108.655139 
L 128.018215 101.98928 
L 134.758382 97.777195 
L 144.389499 96.328998 
L 156.011874 97.730608 
L 168.64932 101.831004 
L 181.343273 108.251032 
L 193.242061 116.413188 
L 203.676933 125.589812 
L 212.217797 134.965434 
L 218.703645 143.707652 
L 223.245071 151.040142 
L 226.199022 156.311149 
L 228.11858 159.051221 
L 229.682966 159.014902 
L 231.614877 156.20258 
L 234.593458 150.860488 
L 239.171632 143.45885 
L 245.706112 134.650184 
L 254.307183 125.211563 
L 264.813448 115.976124 
L 276.794354 107.760054 
L 289.580614 101.291705 
L 302.319948 97.149247 
L 314.053118 95.712473 
L 323.803188 97.133011 
L 330.66966 101.325508 
L 333.918498 107.980382 
L 333.05942 116.596726 
L 327.902868 126.532112 
L 318.590946 137.064469 
L 305.598943 147.460135 
L 289.706796 157.041631 
L 271.94262 165.248779 
L 253.503027 171.687468 
L 235.657154 176.161562 
L 219.642856 178.685067 
L 206.564318 179.473577 
L 197.300237 178.915996 
L 192.430839 177.529391 
L 192.190303 175.901478 
L 196.448871 174.626385 
L 204.726253 174.239988 
L 216.235087 175.161165 
L 229.950521 177.644738 
L 244.699582 181.750772 
L 259.262277 187.333338 
L 272.475299 194.04998 
L 283.329048 201.391164 
L 291.049332 208.727058 
L 295.156572 215.367305 
L 295.497464 220.628204 
L 292.246594 223.900939 
L 285.878326 224.714359 
L 277.111983 222.786256 
L 266.83584 218.058133 
L 256.017325 210.709944 
L 245.608055 201.153134 
L 236.452753 190.002328 
L 229.21062 178.027974 
L 224.296497 166.094064 
L 221.847222 155.086435 
L 221.716131 145.838058 
L 223.49596 139.05805 
L 226.567676 135.270822 
L 230.170288 134.77087 
L 233.484686 137.597322 
L 235.723211 143.530554 
L 236.216124 152.111175 
L 234.486432 162.679662 
L 230.305634 174.433042 
L 223.724781 186.493486 
L 215.077601 197.982604 
L 204.955104 208.094746 
L 194.153844 216.162741 
L 183.602532 221.71023 
L 174.273833 224.486023 
L 167.08962 224.477592 
L 162.828691 221.902755 
L 162.04577 217.180627 
L 165.00966 210.884831 
L 171.666683 203.683565 
L 181.633214 196.272339 
L 194.21847 189.305792 
L 208.475868 183.335067 
L 223.278653 178.756609 
L 237.413175 175.77716 
L 249.681551 174.398128 
L 259.004531 174.420657 
L 264.5153 175.470736 
L 265.63575 177.041779 
L 262.128307 178.550428 
L 254.118613 179.400095 
L 242.086982 179.046004 
L 226.829399 177.05536 
L 209.391558 173.156735 
L 190.981895 167.273794 
L 172.871429 159.53996 
L 156.289398 150.292449 
L 142.323996 140.046068 
L 131.836991 129.449102 
L 125.399686 119.225346 
L 123.255649 110.107682 
L 125.313165 102.769423 
L 131.167573 97.759931 
L 140.150933 95.450624 
L 151.403939 95.996578 
L 163.962997 99.317502 
L 176.854068 105.100046 
L 189.184305 112.821485 
L 200.222875 121.792767 
L 209.46341 131.217149 
L 216.662415 140.259171 
L 221.850267 148.117726 
L 225.314118 154.096597 
L 227.554724 157.666025 
L 229.221704 158.509694 
L 231.033847 156.552836 
L 233.692474 151.968871 
L 237.796551 145.164001 
L 243.768083 136.741135 
L 251.795307 127.446473 
L 261.799548 118.10362 
L 273.429261 109.541234 
L 286.082234 102.52081 
L 298.954158 97.671139 
L 311.109221 95.435341 
L 321.566242 96.03521 
L 329.392264 99.455953 
L 333.794752 105.452521 
L 334.203557 113.576737 
L 330.334681 123.222469 
L 322.229491 133.684467 
L 310.265257 144.225227 
L 295.13554 154.143527 
L 277.801709 162.838187 
L 259.419588 169.861077 
L 241.247539 174.954456 
L 224.54405 178.069263 
L 210.463938 179.362759 
L 199.962438 179.175943 
L 193.715785 177.993064 
L 192.065454 176.387266 
L 194.991067 174.95772 
L 202.114408 174.264413 
L 212.734166 174.766983 
L 225.888241 176.773603 
L 240.437961 180.404968 
L 255.166585 185.576996 
L 268.883219 192.004071 
L 280.522786 199.222689 
L 289.233167 206.633423 
L 294.441786 213.557339 
L 295.895925 219.301593 
L 293.673447 223.228036 
L 288.163406 224.818291 
L 280.018768 223.72907 
L 270.086057 219.832338 
L 259.318827 213.236321 
L 248.683306 204.285119 
L 239.065207 193.536637 
L 231.186528 181.720592 
L 225.540105 169.680182 
L 222.347988 158.302571 
L 221.547347 148.444378 
L 222.804986 140.858874 
L 225.558823 136.131453 
L 229.082045 134.629231 
L 232.563574 136.469333 
L 235.196832 141.508767 
L 236.268071 149.356782 
L 235.235535 159.408609 
L 231.791622 170.897509 
L 225.9018 182.960405 
L 217.816306 194.711156 
L 208.053197 205.314871 
L 197.354137 214.056569 
L 186.616874 220.398084 
L 176.810659 224.018201 
L 168.882547 224.8326 
L 163.663414 222.992059 
L 161.782693 218.8594 
L 163.600049 212.967599 
L 169.160713 205.963237 
L 178.179046 198.540777 
L 190.052298 191.37397 
L 203.903734 185.050908 
L 218.651583 180.018833 
L 233.09782 176.543865 
L 246.028963 174.689329 
L 256.319852 174.314597 
L 263.03112 175.094368 
L 265.49153 176.55639 
L 263.357742 178.13382 
L 256.64608 179.227083 
L 245.73341 179.269136 
L 231.327021 177.787756 
L 214.406236 174.458728 
L 196.14099 169.144706 
L 177.794728 161.915846 
L 160.62032 153.050083 
L 145.758302 143.012844 
L 134.146473 132.417951 
L 126.448776 121.9733 
L 123.009568 112.416348 
L 123.837003 104.445444 
L 128.616552 98.653496 
L 136.752896 95.470262 
L 147.435823 95.118807 
L 159.723594 97.590367 
L 172.635684 102.640171 
L 185.246017 109.804825 
L 196.767883 118.439876 
L 206.622591 127.774265 
L 214.485555 136.976816 
L 220.305711 145.228773 
L 226.901407 156.092803 
L 228.732569 157.73597 
L 230.497283 156.576726 
L 232.911295 152.715055 
L 236.612718 146.490628 
L 242.083484 138.452663 
L 249.586499 129.311263 
L 259.124907 119.874671 
L 270.42775 110.97819 
L 282.963793 103.411213 
L 295.982516 97.849019 
L 308.578702 94.79547 
L 319.774695 94.541759 
L 328.612661 97.1448 
L 334.248157 102.427085 
L 336.036049 109.997761 
L 333.600499 119.292785 
L 326.882083 129.630201 
L 316.157216 140.275234 
L 302.027582 150.509012 
L 285.380007 159.694412 
L 267.320011 167.332861 
L 249.084675 173.10681 
L 231.942464 176.903987 
L 217.088864 178.821277 
L 205.54716 179.148045 
L 198.083242 178.330666 
L 195.142121 176.92181 
L 196.811859 175.519508 
L 202.818172 174.70197 
L 212.550166 174.964543 
L 225.114875 176.664995 
L 239.415629 179.982517 
L 254.247175 184.894531 
L 268.39895 191.173693 
L 280.757218 198.405555 
L 290.396941 206.02536 
L 296.655249 213.370623 
L 299.180106 219.744598 
L 297.950107 224.484656 
L 293.264015 227.029112 
L 285.701466 226.976082 
L 276.058904 224.128692 
L 265.267091 218.522156 
L 254.298166 210.429939 
L 244.071174 200.348098 
L 235.364989 188.958976 
L 228.746821 177.077306 
L 224.522952 165.583437 
L 222.716139 155.349644 
L 223.071612 147.166105 
L 225.09079 141.673246 
L 228.089235 139.306558 
L 231.272992 140.258905 
L 233.825776 144.463732 
L 234.998356 151.600723 
L 234.191358 161.123366 
L 231.023252 172.305948 
L 225.376779 184.3057 
L 217.419075 196.234459 
L 207.5933 207.233394 
L 196.58229 216.544048 
L 185.247461 223.569363 
L 174.548566 227.919294 
L 165.45182 229.437072 
L 158.835038 228.203981 
L 155.398831 224.522513 
L 155.592394 218.879777 
L 159.56115 211.894822 
L 167.121493 204.25504 
L 177.765435 196.647751 
L 190.69516 189.69349 
L 204.884737 183.887302 
L 219.163687 179.553533 
L 232.315065 176.818289 
L 243.179308 175.602042 
L 250.754549 175.632907 
L 254.28433 176.479143 
L 253.324802 177.597617 
L 247.785298 178.39341 
L 237.938599 178.284725 
L 224.399941 176.766731 
L 208.076643 173.468072 
L 190.092899 168.1945 
L 171.696491 160.955276 
L 154.15582 151.969656 
L 138.656458 141.652667 
L 126.206431 130.581342 
L 117.558564 119.44449 
L 113.156612 108.980619 
L 113.109674 99.909839 
L 117.196715 92.866126 
L 124.900292 88.336386 
L 135.465841 86.612135 
L 147.980593 87.758473 
L 161.464409 91.603449 
L 174.963814 97.749016 
L 187.640302 105.602786 
L 198.844615 114.427848 
L 208.17015 123.406216 
L 215.480658 131.710212 
L 224.833953 143.367768 
L 227.81831 145.641042 
L 230.546725 145.175543 
L 233.737511 141.998387 
L 238.056608 136.381152 
L 244.03584 128.815906 
L 252.00462 119.971696 
L 262.042046 110.635464 
L 273.954364 101.642797 
L 287.280332 93.80482 
L 301.324362 87.837872 
L 315.214569 84.302332 
L 327.980495 83.556091 
L 338.643281 85.726772 
L 346.309805 90.70507 
L 350.261853 98.159608 
L 350.031704 107.57171 
L 345.456756 118.286642 
L 336.707651 129.576393 
L 324.286806 140.707988 
L 308.996967 151.010883 
L 291.882195 159.937091 
L 274.146235 167.108447 
L 257.055393 172.346646 
L 241.834472 175.683361 
L 229.565063 177.349652 
L 221.095289 177.745843 
L 216.969121 177.394937 
L 217.381644 176.884172 
L 222.164292 176.800461 
L 230.80138 177.666065 
L 242.476422 179.880778 
L 256.144014 183.676349 
L 270.620791 189.087624 
L 284.687215 195.943381 
L 297.191039 203.877887 
L 307.143178 212.362244 
L 313.797457 220.752716 
L 316.707256 228.351536 
L 315.754237 234.474504 
L 311.146925 238.518987 
L 303.389742 240.025837 
L 293.225784 238.729239 
L 281.559066 234.589636 
L 269.363793 227.806367 
L 257.58937 218.808539 
L 247.070176 208.224707 
L 238.448594 196.833829 
L 232.118472 185.501807 
L 228.194176 175.1092 
L 226.507946 166.47661 
L 226.635521 160.294448 
L 227.947297 157.063426 
L 229.679855 157.051194 
L 231.020727 160.269029 
L 231.198025 166.470722 
L 229.566083 175.17375 
L 225.678647 185.700818 
L 219.342338 197.23799 
L 210.64498 208.904151 
L 199.955814 219.825511 
L 187.897295 229.208444 
L 175.290892 236.404125 
L 163.081849 240.959249 
L 152.249894 242.648394 
L 143.714296 241.485339 
L 138.24228 237.712584 
L 136.369579 231.770351 
L 138.340836 224.24824 
L 144.075786 215.824271 
L 153.164782 207.197221 
L 164.894524 199.018693 
L 178.302051 191.831361 
L 192.252437 186.019176 
L 205.533368 181.774169 
L 216.958228 179.082826 
L 225.468443 177.733213 
L 230.686888 177.398257 
L 226.651468 177.320869 
L 218.282766 176.521881 
L 206.095445 174.471609 
L 190.91377 170.757894 
L 173.803236 165.134093 
L 155.98191 157.550986 
L 138.719435 148.169395 
L 123.232764 137.352108 
L 110.587918 125.635723 
L 101.616441 113.684913 
L 96.853846 102.233321 
L 96.505249 92.016594 
L 100.440865 83.703842 
L 108.221263 77.834 
L 119.149549 74.763155 
L 132.345167 74.627923 
L 146.832085 77.328472 
L 161.632843 82.532989 
L 175.859531 89.703392 
L 188.793112 98.140123 
L 199.943737 107.042062 
L 209.086554 115.576184 
L 221.795638 128.484806 
L 226.173357 131.669342 
L 230.054123 132.211734 
L 234.149626 130.062186 
L 239.145385 125.418092 
L 245.616565 118.70645 
L 253.954873 110.545896 
L 264.313935 101.691794 
L 276.57879 92.96943 
L 290.362793 85.201387 
L 305.032618 79.135715 
L 319.759303 75.381414 
L 333.590761 74.357029 
L 345.539073 76.256935 
L 354.674383 81.038241 
L 360.216492 88.42929 
L 361.61537 97.958764 
L 358.612741 109.002475 
L 351.278602 120.843294 
L 340.01879 132.738509 
L 325.552393 143.98819 
L 308.860577 153.998163 
L 291.111071 162.331676 
L 273.564823 168.744993 
L 257.473042 173.203683 
L 243.973775 175.87822 
L 233.997282 177.11951 
L 228.188688 177.416829 
L 226.854901 177.342396 
L 229.940555 177.488015 
L 237.035155 178.400005 
L 247.410751 180.518817 
L 260.086705 184.129245 
L 273.915692 189.326174 
L 287.68314 195.999317 
L 300.211139 203.838555 
L 310.457501 212.359568 
L 317.601128 220.947464 
L 321.106166 228.914393 
L 320.759433 235.565747 
L 316.678076 240.268729 
L 309.287209 242.516736 
L 299.270038 241.983399 
L 287.495516 238.560993 
L 274.930594 232.379393 
L 262.54554 223.803495 
L 251.221325 213.409057 
L 241.667826 201.938878 
L 234.360494 190.243105 
L 229.501308 179.20892 
L 227.007505 169.685897 
L 226.528877 162.413729 
L 227.4917 157.958866 
L 229.164813 156.665787 
L 230.741251 158.627342 
L 231.427334 163.676853 
L 230.530431 171.402679 
L 227.536724 181.183947 
L 222.171258 192.244168 
L 214.434254 203.717908 
L 204.609926 214.724447 
L 193.246688 224.441803 
L 181.110352 232.174454 
L 169.114578 237.408751 
L 158.234983 239.85113 
L 149.414987 239.445902 
L 143.472296 236.371246 
L 141.014969 231.014108 
L 142.375179 223.926606 
L 147.567199 215.768273 
L 156.273946 207.239732 
L 167.86375 199.014146 
L 181.436278 191.672962 
L 195.893768 185.651974 
L 210.031405 181.202747 
L 222.638836 178.372918 
L 232.603754 177.007094 
L 239.008243 176.768081 
L 241.209187 177.176233 
L 238.895455 177.663006 
L 232.116692 177.633415 
L 221.281065 176.531269 
L 207.122187 173.900799 
L 190.63816 169.438617 
L 173.008265 163.030883 
L 155.494773 154.771961 
L 139.338699 144.962602 
L 125.65882 134.087653 
L 115.362892 122.775243 
L 109.078865 111.741194 
L 107.111967 101.723793 
L 109.431135 93.415071 
L 115.685526 87.395047 
L 125.249076 84.075208 
L 137.288505 83.656642 
L 150.848029 86.106916 
L 164.942588 91.158063 
L 178.650666 98.326092 
L 191.197945 106.950414 
L 202.023984 116.249759 
L 210.8258 125.389559 
L 217.57452 133.554738 
L 222.503848 140.021301 
L 226.071834 144.220188 
L 228.9 145.787582 
L 228.9 145.787582 
" clip-path="url(#p0f27167db4)" style="fill: none; stroke: #dc5e8b; stroke-width: 2.5; stroke-linecap: square"/>
   </g>
   <g id="line2d_4">
    <defs>
     <path id="mb4f960ff4c" d="M 0 5 
C 1.326016 5 2.597899 4.473168 3.535534 3.535534 
C 4.473168 2.597899 5 1.326016 5 0 
C 5 -1.326016 4.473168 -2.597899 3.535534 -3.535534 
C 2.597899 -4.473168 1.326016 -5 0 -5 
C -1.326016 -5 -2.597899 -4.473168 -3.535534 -3.535534 
C -4.473168 -2.597899 -5 -1.326016 -5 0 
C -5 1.326016 -4.473168 2.597899 -3.535534 3.535534 
C -2.597899 4.473168 -1.326016 5 0 5 
z
" style="stroke: #000000; stroke-opacity: 0.8"/>
    </defs>
    <g clip-path="url(#p0f27167db4)">
     <use xlink:href="#mb4f960ff4c" x="228.9" y="145.787582" style="fill-opacity: 0.8; stroke: #000000; stroke-opacity: 0.8"/>
    </g>
   </g>
   <g id="patch_3">
    <path d="M 228.9 334.8 
L 228.9 20.016315 
" style="fill: none; stroke: #000000; stroke-width: 0.8; stroke-linejoin: miter; stroke-linecap: square"/>
   </g>
   <g id="patch_4">
    <path d="M 447 334.8 
L 447 20.016315 
" style="fill: none"/>
   </g>
   <g id="patch_5">
    <path d="M 10.8 177.408158 
L 447 177.408158 
" style="fill: none; stroke: #000000; stroke-width: 0.8; stroke-linejoin: miter; stroke-linecap: square"/>
   </g>
   <g id="patch_6">
    <path d="M 10.8 20.016315 
L 447 20.016315 
" style="fill: none"/>
   </g>
  </g>
 </g>
 <defs>
  <clipPath id="p0f27167db4">
   <rect x="10.8" y="20.016315" width="436.2" height="314.783685"/>
  </clipPath>
 </defs>
</svg>
