<?xml version="1.0" encoding="utf-8" standalone="no"?>
<!DOCTYPE svg PUBLIC "-//W3C//DTD SVG 1.1//EN"
  "http://www.w3.org/Graphics/SVG/1.1/DTD/svg11.dtd">
<svg xmlns:xlink="http://www.w3.org/1999/xlink" width="460.8pt" height="345.6pt" viewBox="0 0 460.8 345.6" xmlns="http://www.w3.org/2000/svg" version="1.1">
 <metadata>
  <rdf:RDF xmlns:dc="http://purl.org/dc/elements/1.1/" xmlns:cc="http://creativecommons.org/ns#" xmlns:rdf="http://www.w3.org/1999/02/22-rdf-syntax-ns#">
   <cc:Work>
    <dc:type rdf:resource="http://purl.org/dc/dcmitype/StillImage"/>
    <dc:date>2026-03-24T23:35:05.708190</dc:date>
    <dc:format>image/svg+xml</dc:format>
    <dc:creator>
     <cc:Agent>
      <dc:title>Matplotlib v3.10.8, https://matplotlib.org/</dc:title>
     </cc:Agent>
    </dc:creator>
   </cc:Work>
  </rdf:RDF>
 </metadata>
 <defs>
  <style type="text/css">*{stroke-linejoin: round; stroke-linecap: butt}</style>
 </defs>
 <g id="figure_1">
  <g id="patch_1">
   <path d="M 0 345.6 
L 460.8 345.6 
L 460.8 0 
L 0 0 
L 0 345.6 
z
" style="fill: none"/>
  </g>
  <g id="axes_1">
   <g id="patch_2">
    <path d="M 15.88755 334.8 
L 447 334.8 
L 447 20.016315 
L 15.88755 20.016315 
L 15.88755 334.8 
z
" style="fill: none"/>
   </g>
   <g id="matplotlib.axis_1">
    <g id="text_1">
     <!-- $x$ -->
     <g transform="translate(435.913188 313.289036) scale(0.2 -0.2)">
      <defs>
       <path id="CMMI12-78" d="M 3034 2606 
C 2829 2567 2752 2414 2752 2293 
C 2752 2139 2874 2088 2963 2088 
C 3155 2088 3290 2254 3290 2427 
C 3290 2695 2982 2816 2714 2816 
C 2323 2816 2106 2433 2048 2312 
C 1901 2816 1504 2816 1389 2816 
C 736 2816 390 1980 390 1839 
C 390 1814 416 1782 461 1782 
C 512 1782 525 1820 538 1846 
C 755 2555 1184 2689 1370 2689 
C 1658 2689 1715 2420 1715 2267 
C 1715 2127 1677 1980 1600 1673 
L 1382 798 
C 1286 415 1101 64 762 64 
C 730 64 570 64 435 147 
C 666 192 717 383 717 460 
C 717 588 621 664 499 664 
C 346 664 179 530 179 326 
C 179 57 480 -64 755 -64 
C 1062 -64 1280 179 1414 441 
C 1517 64 1837 -64 2074 -64 
C 2726 -64 3072 773 3072 913 
C 3072 945 3046 971 3008 971 
C 2950 971 2944 939 2925 888 
C 2752 326 2381 64 2093 64 
C 1869 64 1747 230 1747 492 
C 1747 632 1773 734 1875 1156 
L 2099 2024 
C 2195 2408 2413 2689 2707 2689 
C 2720 2689 2899 2689 3034 2606 
z
" transform="scale(0.015625)"/>
      </defs>
      <use xlink:href="#CMMI12-78" transform="scale(0.996264)"/>
     </g>
    </g>
   </g>
   <g id="matplotlib.axis_2">
    <g id="text_2">
     <!-- $y$ -->
     <g transform="translate(10.827901 16.140682) scale(0.2 -0.2)">
      <defs>
       <path id="CMMI12-79" d="M 1683 -700 
C 1510 -939 1261 -1152 947 -1152 
C 870 -1152 563 -1152 467 -889 
C 486 -895 518 -895 531 -895 
C 723 -895 851 -729 851 -582 
C 851 -435 730 -384 634 -384 
C 531 -384 307 -458 307 -759 
C 307 -1071 582 -1286 947 -1286 
C 1587 -1286 2234 -700 2413 6 
L 3040 2485 
C 3046 2517 3059 2556 3059 2594 
C 3059 2689 2982 2753 2886 2753 
C 2829 2753 2694 2727 2643 2535 
L 2170 658 
C 2138 543 2138 530 2086 460 
C 1958 281 1747 64 1440 64 
C 1082 64 1050 415 1050 588 
C 1050 952 1222 1443 1395 1903 
C 1466 2088 1504 2178 1504 2305 
C 1504 2574 1312 2816 998 2816 
C 410 2816 173 1890 173 1839 
C 173 1814 198 1782 243 1782 
C 301 1782 307 1807 333 1897 
C 486 2433 730 2689 979 2689 
C 1037 2689 1146 2689 1146 2478 
C 1146 2312 1075 2127 979 1884 
C 666 1047 666 837 666 683 
C 666 77 1101 -64 1421 -64 
C 1606 -64 1837 -6 2061 230 
L 2067 224 
C 1971 -147 1907 -392 1683 -700 
z
" transform="scale(0.015625)"/>
      </defs>
      <use xlink:href="#CMMI12-79" transform="scale(0.996264)"/>
     </g>
    </g>
   </g>
   <g id="line2d_1">
    <defs>
     <path id="mb8de8363ce" d="M 3 0 
L -3 -3 
L -3 3 
z
" style="stroke: #000000; stroke-linejoin: miter"/>
    </defs>
    <g>
     <use xlink:href="#mb8de8363ce" x="447" y="295.452039" style="stroke: #000000; stroke-linejoin: miter"/>
    </g>
   </g>
   <g id="line2d_2">
    <defs>
     <path id="mc327cd3e1c" d="M 0 -3 
L -3 3 
L 3 3 
z
" style="stroke: #000000; stroke-linejoin: miter"/>
    </defs>
    <g>
     <use xlink:href="#mc327cd3e1c" x="24.340735" y="20.016315" style="stroke: #000000; stroke-linejoin: miter"/>
    </g>
   </g>
   <g id="line2d_3">
    <path d="M 24.340735 98.712236 
L 24.440721 92.152551 
L 24.828171 80.042929 
L 25.536021 65.19942 
L 26.474795 50.067866 
L 27.790715 32.81206 
L 29.147595 17.756333 
L 30.797378 1.839402 
L 31.117275 -1 
M 152.058971 -1 
L 153.391065 11.274987 
L 155.130529 29.818015 
L 156.593696 48.814341 
L 157.773055 68.197158 
L 158.662538 87.901557 
L 159.257562 107.865028 
L 159.55506 128.027918 
L 159.553495 148.333837 
L 159.252875 168.730005 
L 158.654753 189.167538 
L 157.762212 209.601683 
L 156.579851 229.991982 
L 155.113753 250.302381 
L 153.371445 270.501271 
L 151.36185 290.561473 
L 149.095232 310.460168 
L 146.583128 330.178761 
L 144.287957 346.6 
M 17.564417 -1 
L 19.174265 14.095158 
L 20.59807 29.374089 
L 21.99029 46.983119 
L 22.995725 62.54236 
L 23.768922 77.982791 
L 24.242615 92.233957 
L 24.340735 98.711976 
L 24.393217 94.435831 
L 24.680666 83.981407 
L 25.261942 70.411146 
L 26.069218 56.203953 
L 27.232855 39.724362 
L 28.455047 25.170286 
L 29.960643 9.640481 
L 31.117436 -1 
M 152.057979 -1 
L 153.430219 11.657731 
L 155.16399 30.210934 
L 156.621293 49.216022 
L 157.794646 68.606223 
L 158.678012 88.316671 
L 159.266839 108.284913 
L 159.558092 128.45136 
L 159.550266 148.759695 
L 159.243403 169.157213 
L 158.639086 189.595119 
L 157.740431 210.028746 
L 156.552068 230.417728 
L 155.080111 250.726103 
L 153.332115 270.922355 
L 151.317035 290.979398 
L 149.04516 310.874502 
L 146.528053 330.589158 
L 144.287976 346.6 
L 144.287976 346.6 
" clip-path="url(#pfb56bbc324)" style="fill: none; stroke: #dc5e8b; stroke-width: 2.5; stroke-linecap: square"/>
   </g>
   <g id="line2d_4">
    <defs>
     <path id="m09f3fac62a" d="M 0 5 
C 1.326016 5 2.597899 4.473168 3.535534 3.535534 
C 4.473168 2.597899 5 1.326016 5 0 
C 5 -1.326016 4.473168 -2.597899 3.535534 -3.535534 
C 2.597899 -4.473168 1.326016 -5 0 -5 
C -1.326016 -5 -2.597899 -4.473168 -3.535534 -3.535534 
C -4.473168 -2.597899 -5 -1.326016 -5 0 
C -5 1.326016 -4.473168 2.597899 -3.535534 3.535534 
C -2.597899 4.473168 -1.326016 5 0 5 
z
" style="stroke: #000000; stroke-opacity: 0.8"/>
    </defs>
    <g clip-path="url(#pfb56bbc324)">
     <use xlink:href="#m09f3fac62a" x="24.90958" y="948.545125" style="fill-opacity: 0.8; stroke: #000000; stroke-opacity: 0.8"/>
    </g>
   </g>
   <g id="patch_3">
    <path d="M 24.340735 334.8 
L 24.340735 20.016315 
" style="fill: none; stroke: #000000; stroke-width: 0.8; stroke-linejoin: miter; stroke-linecap: square"/>
   </g>
   <g id="patch_4">
    <path d="M 447 334.8 
L 447 20.016315 
" style="fill: none"/>
   </g>
   <g id="patch_5">
    <path d="M 15.88755 295.452039 
L 447 295.452039 
" style="fill: none; stroke: #000000; stroke-width: 0.8; stroke-linejoin: miter; stroke-linecap: square"/>
   </g>
   <g id="patch_6">
    <path d="M 15.88755 20.016315 
L 447 20.016315 
" style="fill: none"/>
   </g>
  </g>
 </g>
 <defs>
  <clipPath id="pfb56bbc324">
   <rect x="15.88755" y="20.016315" width="431.11245" height="314.783685"/>
  </clipPath>
 </defs>
</svg>
