<?xml version="1.0" encoding="utf-8" standalone="no"?>
<!DOCTYPE svg PUBLIC "-//W3C//DTD SVG 1.1//EN"
  "http://www.w3.org/Graphics/SVG/1.1/DTD/svg11.dtd">
<svg xmlns:xlink="http://www.w3.org/1999/xlink" width="460.8pt" height="345.6pt" viewBox="0 0 460.8 345.6" xmlns="http://www.w3.org/2000/svg" version="1.1">
 <metadata>
  <rdf:RDF xmlns:dc="http://purl.org/dc/elements/1.1/" xmlns:cc="http://creativecommons.org/ns#" xmlns:rdf="http://www.w3.org/1999/02/22-rdf-syntax-ns#">
   <cc:Work>
    <dc:type rdf:resource="http://purl.org/dc/dcmitype/StillImage"/>
    <dc:date>2026-03-24T23:19:12.821265</dc:date>
    <dc:format>image/svg+xml</dc:format>
    <dc:creator>
     <cc:Agent>
      <dc:title>Matplotlib v3.10.8, https://matplotlib.org/</dc:title>
     </cc:Agent>
    </dc:creator>
   </cc:Work>
  </rdf:RDF>
 </metadata>
 <defs>
  <style type="text/css">*{stroke-linejoin: round; stroke-linecap: butt}</style>
 </defs>
 <g id="figure_1">
  <g id="patch_1">
   <path d="M 0 345.6 
L 460.8 345.6 
L 460.8 0 
L 0 0 
L 0 345.6 
z
" style="fill: none"/>
  </g>
  <g id="axes_1">
   <g id="patch_2">
    <path d="M 10.8 334.8 
L 447 334.8 
L 447 20.016315 
L 10.8 20.016315 
L 10.8 334.8 
z
" style="fill: none"/>
   </g>
   <g id="matplotlib.axis_1">
    <g id="text_1">
     <!-- $x$ -->
     <g transform="translate(435.913188 195.245154) scale(0.2 -0.2)">
      <defs>
       <path id="CMMI12-78" d="M 3034 2606 
C 2829 2567 2752 2414 2752 2293 
C 2752 2139 2874 2088 2963 2088 
C 3155 2088 3290 2254 3290 2427 
C 3290 2695 2982 2816 2714 2816 
C 2323 2816 2106 2433 2048 2312 
C 1901 2816 1504 2816 1389 2816 
C 736 2816 390 1980 390 1839 
C 390 1814 416 1782 461 1782 
C 512 1782 525 1820 538 1846 
C 755 2555 1184 2689 1370 2689 
C 1658 2689 1715 2420 1715 2267 
C 1715 2127 1677 1980 1600 1673 
L 1382 798 
C 1286 415 1101 64 762 64 
C 730 64 570 64 435 147 
C 666 192 717 383 717 460 
C 717 588 621 664 499 664 
C 346 664 179 530 179 326 
C 179 57 480 -64 755 -64 
C 1062 -64 1280 179 1414 441 
C 1517 64 1837 -64 2074 -64 
C 2726 -64 3072 773 3072 913 
C 3072 945 3046 971 3008 971 
C 2950 971 2944 939 2925 888 
C 2752 326 2381 64 2093 64 
C 1869 64 1747 230 1747 492 
C 1747 632 1773 734 1875 1156 
L 2099 2024 
C 2195 2408 2413 2689 2707 2689 
C 2720 2689 2899 2689 3034 2606 
z
" transform="scale(0.015625)"/>
      </defs>
      <use xlink:href="#CMMI12-78" transform="scale(0.996264)"/>
     </g>
    </g>
   </g>
   <g id="matplotlib.axis_2">
    <g id="text_2">
     <!-- $y$ -->
     <g transform="translate(215.387165 16.140682) scale(0.2 -0.2)">
      <defs>
       <path id="CMMI12-79" d="M 1683 -700 
C 1510 -939 1261 -1152 947 -1152 
C 870 -1152 563 -1152 467 -889 
C 486 -895 518 -895 531 -895 
C 723 -895 851 -729 851 -582 
C 851 -435 730 -384 634 -384 
C 531 -384 307 -458 307 -759 
C 307 -1071 582 -1286 947 -1286 
C 1587 -1286 2234 -700 2413 6 
L 3040 2485 
C 3046 2517 3059 2556 3059 2594 
C 3059 2689 2982 2753 2886 2753 
C 2829 2753 2694 2727 2643 2535 
L 2170 658 
C 2138 543 2138 530 2086 460 
C 1958 281 1747 64 1440 64 
C 1082 64 1050 415 1050 588 
C 1050 952 1222 1443 1395 1903 
C 1466 2088 1504 2178 1504 2305 
C 1504 2574 1312 2816 998 2816 
C 410 2816 173 1890 173 1839 
C 173 1814 198 1782 243 1782 
C 301 1782 307 1807 333 1897 
C 486 2433 730 2689 979 2689 
C 1037 2689 1146 2689 1146 2478 
C 1146 2312 1075 2127 979 1884 
C 666 1047 666 837 666 683 
C 666 77 1101 -64 1421 -64 
C 1606 -64 1837 -6 2061 230 
L 2067 224 
C 1971 -147 1907 -392 1683 -700 
z
" transform="scale(0.015625)"/>
      </defs>
      <use xlink:href="#CMMI12-79" transform="scale(0.996264)"/>
     </g>
    </g>
   </g>
   <g id="line2d_1">
    <defs>
     <path id="mb9ede5989a" d="M 3 0 
L -3 -3 
L -3 3 
z
" style="stroke: #000000; stroke-linejoin: miter"/>
    </defs>
    <g>
     <use xlink:href="#mb9ede5989a" x="447" y="177.408158" style="stroke: #000000; stroke-linejoin: miter"/>
    </g>
   </g>
   <g id="line2d_2">
    <defs>
     <path id="mea6434be6c" d="M 0 -3 
L -3 3 
L 3 3 
z
" style="stroke: #000000; stroke-linejoin: miter"/>
    </defs>
    <g>
     <use xlink:href="#mea6434be6c" x="228.9" y="20.016315" style="stroke: #000000; stroke-linejoin: miter"/>
    </g>
   </g>
   <g id="line2d_3">
    <path d="M 228.9 164.292171 
L 229.006991 163.492733 
L 229.418192 162.046182 
L 230.160176 160.326793 
L 231.13003 158.638048 
L 232.466886 156.795976 
L 233.821106 155.266632 
L 235.437711 153.734766 
L 237.318299 152.243944 
L 239.457759 150.836686 
L 241.844301 149.553353 
L 244.459627 148.431116 
L 247.279246 147.503053 
L 250.27293 146.797384 
L 253.405292 146.336875 
L 256.636483 146.138427 
L 259.922991 146.21285 
L 263.218516 146.564829 
L 266.474919 147.193079 
L 269.643206 148.090669 
L 272.674539 149.245512 
L 275.52125 150.640984 
L 277.507638 151.833335 
L 279.346417 153.13985 
L 281.020689 154.550024 
L 282.514951 156.052818 
L 283.815278 157.636867 
L 284.909489 159.290683 
L 285.787287 161.002856 
L 286.440384 162.762234 
L 286.862597 164.558096 
L 287.049922 166.380304 
L 287.00058 168.219432 
L 286.715041 170.066874 
L 286.196013 171.914926 
L 285.448416 173.756851 
L 284.479321 175.586902 
L 283.297866 177.400338 
L 281.915149 179.1934 
L 279.781039 181.547722 
L 277.347501 183.856655 
L 274.654288 186.118353 
L 270.989114 188.879403 
L 266.273466 192.100528 
L 259.716828 196.254152 
L 246.377888 204.60409 
L 241.688218 207.833059 
L 238.223002 210.467063 
L 235.328923 212.940659 
L 233.027446 215.210675 
L 231.306268 217.229127 
L 230.120586 218.946777 
L 229.313362 220.508667 
L 228.93304 221.723939 
L 228.899998 222.002129 
L 228.859082 221.68131 
L 228.524329 220.600395 
L 227.900289 219.323614 
L 226.837926 217.688635 
L 225.25604 215.740803 
L 223.502098 213.913921 
L 220.854276 211.519552 
L 217.622255 208.947578 
L 213.847128 206.236962 
L 208.856068 202.938799 
L 200.959263 198.025323 
L 191.930426 192.364676 
L 187.192518 189.151573 
L 183.498491 186.397732 
L 180.775809 184.141965 
L 178.307553 181.838881 
L 176.133989 179.490052 
L 174.290925 177.099424 
L 173.144144 175.282932 
L 172.211385 173.450545 
L 171.50145 171.607173 
L 171.021054 169.758728 
L 170.774753 167.912112 
L 170.764884 166.075183 
L 170.991541 164.25669 
L 171.452572 162.466187 
L 172.143607 160.713919 
L 173.058105 159.010689 
L 174.187436 157.367704 
L 175.520981 155.796401 
L 177.046256 154.30826 
L 178.749062 152.914607 
L 180.613651 151.626408 
L 182.622911 150.454057 
L 184.758568 149.407172 
L 187.769395 148.221256 
L 190.923219 147.290748 
L 194.171293 146.628341 
L 197.464588 146.241638 
L 200.754802 146.132652 
L 203.995354 146.297456 
L 207.142331 146.726009 
L 210.155384 147.402161 
L 212.998526 148.303861 
L 215.640851 149.403542 
L 218.057122 150.668696 
L 220.228247 152.062614 
L 222.141611 153.545282 
L 223.791265 155.074389 
L 225.484279 156.984794 
L 226.782853 158.815121 
L 227.718199 160.484276 
L 228.425598 162.171037 
L 228.834156 163.712182 
L 228.900013 164.290142 
L 228.945286 163.839545 
L 229.223471 162.638808 
L 229.799683 161.089921 
L 230.601655 159.506463 
L 231.750376 157.731194 
L 233.282823 155.842779 
L 234.800489 154.306735 
L 236.582321 152.795458 
L 238.625729 151.351994 
L 240.921415 150.017641 
L 243.453493 148.830878 
L 246.199748 147.826417 
L 249.132042 147.034378 
L 252.216846 146.479632 
L 255.415896 146.181314 
L 258.686957 146.152534 
L 261.984664 146.400265 
L 265.261455 146.925431 
L 268.468539 147.72317 
L 271.556901 148.783263 
L 274.478316 150.090706 
L 276.53179 151.222259 
L 278.446565 152.472963 
L 280.20512 153.832659 
L 281.79123 155.290549 
L 283.19016 156.835403 
L 284.388837 158.455772 
L 285.376006 160.14018 
L 286.14236 161.877326 
L 286.680653 163.656253 
L 286.985784 165.466514 
L 287.054858 167.298312 
L 286.887218 169.142617 
L 286.484457 170.991268 
L 285.850393 172.837037 
L 284.991032 174.67368 
L 283.91449 176.495955 
L 282.630898 178.299613 
L 280.618417 180.669998 
L 278.292734 182.99629 
L 275.691985 185.27578 
L 272.118813 188.058657 
L 268.271068 190.770112 
L 262.602116 194.455594 
L 243.288702 206.696964 
L 239.599837 209.386819 
L 236.463233 211.932112 
L 233.914406 214.292583 
L 231.955065 216.421852 
L 230.553688 218.27074 
L 229.647747 219.79107 
L 229.052032 221.233402 
L 228.900002 222.002129 
L 228.850047 221.635686 
L 228.559696 220.689365 
L 227.967727 219.444277 
L 226.945357 217.837493 
L 225.409192 215.913886 
L 223.695906 214.10404 
L 221.097566 211.726459 
L 217.913121 209.167688 
L 214.180878 206.467345 
L 209.23046 203.17855 
L 201.367554 198.27617 
L 191.526534 192.100528 
L 186.810885 188.879403 
L 183.145712 186.118353 
L 180.452499 183.856655 
L 178.018961 181.547722 
L 175.884851 179.1934 
L 174.085366 176.797957 
L 172.973559 174.978518 
L 172.077381 173.143932 
L 171.405293 171.299277 
L 170.963657 169.450631 
L 170.756659 167.605059 
L 170.786265 165.770572 
L 171.052194 163.956061 
L 171.551922 162.171202 
L 172.280713 160.426343 
L 173.231671 158.732367 
L 174.395827 157.100531 
L 175.762242 155.542293 
L 177.318135 154.069121 
L 179.049038 152.692295 
L 180.938961 151.422701 
L 182.970585 150.270617 
L 185.125461 149.245512 
L 188.156794 148.090669 
L 191.325081 147.193079 
L 194.581484 146.564829 
L 197.877009 146.21285 
L 201.163517 146.138427 
L 204.394708 146.336875 
L 207.52707 146.797384 
L 210.520754 147.503053 
L 213.340373 148.431116 
L 215.955699 149.553353 
L 218.342241 150.836686 
L 220.481701 152.243944 
L 222.362289 153.734766 
L 223.978894 155.266632 
L 225.631487 157.172808 
L 226.892092 158.990577 
L 227.793382 160.639399 
L 228.4669 162.29278 
L 228.845071 163.777777 
L 228.9 164.292171 
L 228.9 164.292171 
" clip-path="url(#pebfbe4cc4e)" style="fill: none; stroke: #0072b2; stroke-width: 2.5; stroke-linecap: square"/>
   </g>
   <g id="line2d_4">
    <defs>
     <path id="maf7491e301" d="M 0 5 
C 1.326016 5 2.597899 4.473168 3.535534 3.535534 
C 4.473168 2.597899 5 1.326016 5 0 
C 5 -1.326016 4.473168 -2.597899 3.535534 -3.535534 
C 2.597899 -4.473168 1.326016 -5 0 -5 
C -1.326016 -5 -2.597899 -4.473168 -3.535534 -3.535534 
C -4.473168 -2.597899 -5 -1.326016 -5 0 
C -5 1.326016 -4.473168 2.597899 -3.535534 3.535534 
C -2.597899 4.473168 -1.326016 5 0 5 
z
" style="stroke: #000000; stroke-opacity: 0.8"/>
    </defs>
    <g clip-path="url(#pebfbe4cc4e)">
     <use xlink:href="#maf7491e301" x="274.578757" y="177.408158" style="fill-opacity: 0.8; stroke: #000000; stroke-opacity: 0.8"/>
    </g>
   </g>
   <g id="patch_3">
    <path d="M 228.9 334.8 
L 228.9 20.016315 
" style="fill: none; stroke: #000000; stroke-width: 0.8; stroke-linejoin: miter; stroke-linecap: square"/>
   </g>
   <g id="patch_4">
    <path d="M 447 334.8 
L 447 20.016315 
" style="fill: none"/>
   </g>
   <g id="patch_5">
    <path d="M 10.8 177.408158 
L 447 177.408158 
" style="fill: none; stroke: #000000; stroke-width: 0.8; stroke-linejoin: miter; stroke-linecap: square"/>
   </g>
   <g id="patch_6">
    <path d="M 10.8 20.016315 
L 447 20.016315 
" style="fill: none"/>
   </g>
  </g>
 </g>
 <defs>
  <clipPath id="pebfbe4cc4e">
   <rect x="10.8" y="20.016315" width="436.2" height="314.783685"/>
  </clipPath>
 </defs>
</svg>
