<?xml version="1.0" encoding="utf-8" standalone="no"?>
<!DOCTYPE svg PUBLIC "-//W3C//DTD SVG 1.1//EN"
  "http://www.w3.org/Graphics/SVG/1.1/DTD/svg11.dtd">
<svg xmlns:xlink="http://www.w3.org/1999/xlink" width="460.8pt" height="345.6pt" viewBox="0 0 460.8 345.6" xmlns="http://www.w3.org/2000/svg" version="1.1">
 <metadata>
  <rdf:RDF xmlns:dc="http://purl.org/dc/elements/1.1/" xmlns:cc="http://creativecommons.org/ns#" xmlns:rdf="http://www.w3.org/1999/02/22-rdf-syntax-ns#">
   <cc:Work>
    <dc:type rdf:resource="http://purl.org/dc/dcmitype/StillImage"/>
    <dc:date>2026-03-24T23:06:16.841237</dc:date>
    <dc:format>image/svg+xml</dc:format>
    <dc:creator>
     <cc:Agent>
      <dc:title>Matplotlib v3.10.8, https://matplotlib.org/</dc:title>
     </cc:Agent>
    </dc:creator>
   </cc:Work>
  </rdf:RDF>
 </metadata>
 <defs>
  <style type="text/css">*{stroke-linejoin: round; stroke-linecap: butt}</style>
 </defs>
 <g id="figure_1">
  <g id="patch_1">
   <path d="M 0 345.6 
L 460.8 345.6 
L 460.8 0 
L 0 0 
L 0 345.6 
z
" style="fill: none"/>
  </g>
  <g id="axes_1">
   <g id="patch_2">
    <path d="M 10.8 334.8 
L 447 334.8 
L 447 102.493714 
L 10.8 102.493714 
L 10.8 334.8 
z
" style="fill: none"/>
   </g>
   <g id="matplotlib.axis_1">
    <g id="text_1">
     <!-- $x$ -->
     <g transform="translate(435.913188 20.770874) scale(0.2 -0.2)">
      <defs>
       <path id="CMMI12-78" d="M 3034 2606 
C 2829 2567 2752 2414 2752 2293 
C 2752 2139 2874 2088 2963 2088 
C 3155 2088 3290 2254 3290 2427 
C 3290 2695 2982 2816 2714 2816 
C 2323 2816 2106 2433 2048 2312 
C 1901 2816 1504 2816 1389 2816 
C 736 2816 390 1980 390 1839 
C 390 1814 416 1782 461 1782 
C 512 1782 525 1820 538 1846 
C 755 2555 1184 2689 1370 2689 
C 1658 2689 1715 2420 1715 2267 
C 1715 2127 1677 1980 1600 1673 
L 1382 798 
C 1286 415 1101 64 762 64 
C 730 64 570 64 435 147 
C 666 192 717 383 717 460 
C 717 588 621 664 499 664 
C 346 664 179 530 179 326 
C 179 57 480 -64 755 -64 
C 1062 -64 1280 179 1414 441 
C 1517 64 1837 -64 2074 -64 
C 2726 -64 3072 773 3072 913 
C 3072 945 3046 971 3008 971 
C 2950 971 2944 939 2925 888 
C 2752 326 2381 64 2093 64 
C 1869 64 1747 230 1747 492 
C 1747 632 1773 734 1875 1156 
L 2099 2024 
C 2195 2408 2413 2689 2707 2689 
C 2720 2689 2899 2689 3034 2606 
z
" transform="scale(0.015625)"/>
      </defs>
      <use xlink:href="#CMMI12-78" transform="scale(0.996264)"/>
     </g>
    </g>
   </g>
   <g id="matplotlib.axis_2">
    <g id="text_2">
     <!-- $y$ -->
     <g transform="translate(215.387165 98.618081) scale(0.2 -0.2)">
      <defs>
       <path id="CMMI12-79" d="M 1683 -700 
C 1510 -939 1261 -1152 947 -1152 
C 870 -1152 563 -1152 467 -889 
C 486 -895 518 -895 531 -895 
C 723 -895 851 -729 851 -582 
C 851 -435 730 -384 634 -384 
C 531 -384 307 -458 307 -759 
C 307 -1071 582 -1286 947 -1286 
C 1587 -1286 2234 -700 2413 6 
L 3040 2485 
C 3046 2517 3059 2556 3059 2594 
C 3059 2689 2982 2753 2886 2753 
C 2829 2753 2694 2727 2643 2535 
L 2170 658 
C 2138 543 2138 530 2086 460 
C 1958 281 1747 64 1440 64 
C 1082 64 1050 415 1050 588 
C 1050 952 1222 1443 1395 1903 
C 1466 2088 1504 2178 1504 2305 
C 1504 2574 1312 2816 998 2816 
C 410 2816 173 1890 173 1839 
C 173 1814 198 1782 243 1782 
C 301 1782 307 1807 333 1897 
C 486 2433 730 2689 979 2689 
C 1037 2689 1146 2689 1146 2478 
C 1146 2312 1075 2127 979 1884 
C 666 1047 666 837 666 683 
C 666 77 1101 -64 1421 -64 
C 1606 -64 1837 -6 2061 230 
L 2067 224 
C 1971 -147 1907 -392 1683 -700 
z
" transform="scale(0.015625)"/>
      </defs>
      <use xlink:href="#CMMI12-79" transform="scale(0.996264)"/>
     </g>
    </g>
   </g>
   <g id="line2d_1">
    <defs>
     <path id="m78ee9bd9dd" d="M 3 0 
L -3 -3 
L -3 3 
z
" style="stroke: #000000; stroke-linejoin: miter"/>
    </defs>
    <g>
     <use xlink:href="#m78ee9bd9dd" x="447" y="2.933878" style="stroke: #000000; stroke-linejoin: miter"/>
    </g>
   </g>
   <g id="line2d_2">
    <defs>
     <path id="m989c5792f6" d="M 0 -3 
L -3 3 
L 3 3 
z
" style="stroke: #000000; stroke-linejoin: miter"/>
    </defs>
    <g>
     <use xlink:href="#m989c5792f6" x="228.9" y="102.493714" style="stroke: #000000; stroke-linejoin: miter"/>
    </g>
   </g>
   <g id="line2d_3">
    <path d="M 228.9 2.933878 
L 230.810108 3.023162 
L 232.195928 3.39723 
L 233.122872 3.928347 
L 233.839682 4.575001 
L 234.660416 5.713568 
L 235.248411 7.009191 
L 235.639709 8.421778 
L 235.851707 9.916943 
L 235.894385 11.463337 
L 235.699729 13.554173 
L 235.230404 15.617747 
L 234.50111 17.59163 
L 233.528984 19.417133 
L 232.652663 20.65591 
L 231.661049 21.759178 
L 230.565167 22.707327 
L 229.377122 23.482568 
L 228.110026 24.069095 
L 226.7779 24.453222 
L 225.395565 24.62352 
L 223.97851 24.570929 
L 222.542749 24.288852 
L 221.104676 23.773232 
L 219.6809 23.0226 
L 218.288085 22.038105 
L 216.942785 20.823517 
L 215.661275 19.385202 
L 214.459382 17.732082 
L 213.352324 15.875554 
L 212.354549 13.829402 
L 211.479582 11.60967 
L 210.739875 9.234524 
L 210.146676 6.724084 
L 209.709898 4.100238 
L 209.438005 1.386442 
L 209.343775 -1 
M 255.899579 -1 
L 256.190038 2.168658 
L 256.319992 6.014564 
L 256.213243 9.88981 
L 255.867435 13.760327 
L 255.282346 17.591654 
L 254.459913 21.34925 
L 253.404242 24.998807 
L 252.12159 28.506569 
L 250.620336 31.839643 
L 248.910924 34.966308 
L 247.005792 37.85632 
L 244.919281 40.481195 
L 242.667523 42.814494 
L 241.083273 44.196016 
L 239.439114 45.430635 
L 237.740982 46.512348 
L 235.995072 47.435716 
L 234.207813 48.195883 
L 232.385846 48.788604 
L 230.535998 49.210264 
L 228.665257 49.457897 
L 226.780742 49.529202 
L 224.889681 49.422556 
L 222.999376 49.137028 
L 221.117182 48.672382 
L 219.250472 48.029089 
L 217.40661 47.208323 
L 215.592923 46.211966 
L 213.816669 45.042603 
L 212.08501 43.703515 
L 210.404981 42.198674 
L 208.783464 40.532729 
L 207.227158 38.71099 
L 205.74255 36.739417 
L 203.663674 33.51569 
L 201.780078 29.994545 
L 200.110195 26.203601 
L 198.670757 22.173125 
L 197.476629 17.935788 
L 196.54066 13.526394 
L 195.873556 8.981594 
L 195.483758 4.339576 
L 195.377354 -0.36026 
L 195.388831 -1 
M 267.366814 -1 
L 267.583311 4.380258 
L 267.472159 9.814326 
L 267.030321 15.229168 
L 266.552631 18.805303 
L 265.92967 22.33832 
L 265.163128 25.814519 
L 264.255256 29.220356 
L 263.208856 32.542493 
L 262.027277 35.767853 
L 260.7144 38.883671 
L 259.274631 41.877545 
L 257.712879 44.737482 
L 256.034546 47.451952 
L 254.245505 50.00993 
L 252.35208 52.400942 
L 250.361023 54.615108 
L 248.27949 56.643184 
L 246.115017 58.476596 
L 243.875491 60.10748 
L 241.569119 61.528714 
L 239.204403 62.73395 
L 236.790103 63.717638 
L 234.335209 64.475055 
L 231.848904 65.002322 
L 229.34053 65.296429 
L 226.819556 65.355242 
L 224.295536 65.177524 
L 221.778079 64.762934 
L 219.276808 64.112039 
L 216.801326 63.226313 
L 214.361173 62.108136 
L 211.9658 60.760786 
L 209.62452 59.188432 
L 207.346481 57.396123 
L 205.140625 55.389768 
L 203.015655 53.176122 
L 200.98 50.762759 
L 199.041781 48.158047 
L 197.20878 45.371121 
L 195.488408 42.41185 
L 193.887675 39.290802 
L 192.41316 36.019203 
L 191.070988 32.608903 
L 189.866801 29.072328 
L 188.805736 25.422435 
L 187.892403 21.672665 
L 187.130866 17.836896 
L 186.524625 13.929386 
L 186.076599 9.964725 
L 185.789115 5.957775 
L 185.663894 1.92362 
L 185.680112 -1 
M 276.105322 -1 
L 276.25205 3.376421 
L 276.221796 7.806097 
L 276.012323 12.231737 
L 275.623846 16.63653 
L 275.057263 21.003689 
L 274.314152 25.31652 
L 273.396768 29.55848 
L 272.308036 33.713246 
L 271.051542 37.764772 
L 269.631522 41.697356 
L 268.052849 45.4957 
L 266.321012 49.144968 
L 264.4421 52.630844 
L 262.422783 55.939591 
L 260.270284 59.058101 
L 257.992354 61.973951 
L 255.597247 64.675449 
L 253.093686 67.151684 
L 250.490835 69.392566 
L 247.798262 71.388871 
L 245.025906 73.132277 
L 242.18404 74.615398 
L 239.283231 75.831814 
L 236.334304 76.776102 
L 233.348297 77.443856 
L 230.336425 77.831708 
L 227.310033 77.937345 
L 224.280554 77.759519 
L 221.259469 77.298057 
L 218.25826 76.553862 
L 215.288367 75.528915 
L 212.361146 74.226271 
L 209.487823 72.650048 
L 206.679452 70.805416 
L 203.946873 68.698581 
L 201.300669 66.336762 
L 198.751127 63.728171 
L 196.308194 60.881978 
L 193.981443 57.808283 
L 191.780032 54.518082 
L 189.712668 51.023222 
L 187.787576 47.336363 
L 186.012462 43.470932 
L 184.394485 39.441069 
L 182.940227 35.261582 
L 181.655667 30.947888 
L 180.546157 26.515957 
L 179.616398 21.982254 
L 178.870422 17.363676 
L 178.311573 12.677491 
L 177.942495 7.94127 
L 177.765119 3.172824 
L 177.772511 -1 
M 283.453667 -1 
L 283.552077 1.912303 
L 283.556932 7.023624 
L 283.355184 12.131967 
L 282.947096 17.217985 
L 282.33371 22.262365 
L 281.516853 27.245912 
L 280.499125 32.149609 
L 279.283896 36.9547 
L 277.87529 41.642757 
L 276.278177 46.195751 
L 274.498152 50.596124 
L 272.541517 54.826852 
L 270.415258 58.871516 
L 268.127021 62.714363 
L 265.685085 66.340368 
L 263.098329 69.735293 
L 260.376204 72.885741 
L 257.528695 75.779212 
L 254.566286 78.404149 
L 251.499921 80.749989 
L 248.340964 82.8072 
L 245.101155 84.567322 
L 241.79257 86.023002 
L 238.427571 87.168024 
L 235.018764 87.997335 
L 231.57895 88.507067 
L 228.121076 88.694554 
L 224.658187 88.558346 
L 221.203378 88.098216 
L 217.769743 87.315163 
L 214.370325 86.211414 
L 211.018067 84.790415 
L 207.725762 83.056823 
L 204.506007 81.01649 
L 201.371149 78.676442 
L 198.333244 76.044858 
L 195.404008 73.131041 
L 192.594767 69.945382 
L 189.916424 66.499326 
L 187.379405 62.805333 
L 184.993626 58.876825 
L 182.768452 54.728147 
L 180.712661 50.374507 
L 178.834406 45.831924 
L 177.141189 41.11717 
L 175.639823 36.247704 
L 174.336413 31.241609 
L 173.236326 26.117528 
L 172.344169 20.89459 
L 171.663775 15.592339 
L 171.198179 10.230664 
L 170.949612 4.829722 
L 170.929626 -1 
M 289.919698 -1 
L 290.022429 2.933878 
L 290.022429 2.933878 
" clip-path="url(#p0208d822c0)" style="fill: none; stroke: #0072b2; stroke-width: 2.5; stroke-linecap: square"/>
   </g>
   <g id="line2d_4">
    <defs>
     <path id="mefdb407fca" d="M 0 5 
C 1.326016 5 2.597899 4.473168 3.535534 3.535534 
C 4.473168 2.597899 5 1.326016 5 0 
C 5 -1.326016 4.473168 -2.597899 3.535534 -3.535534 
C 2.597899 -4.473168 1.326016 -5 0 -5 
C -1.326016 -5 -2.597899 -4.473168 -3.535534 -3.535534 
C -4.473168 -2.597899 -5 -1.326016 -5 0 
C -5 1.326016 -4.473168 2.597899 -3.535534 3.535534 
C -2.597899 4.473168 -1.326016 5 0 5 
z
" style="stroke: #000000; stroke-opacity: 0.8"/>
    </defs>
    <g clip-path="url(#p0208d822c0)">
     <use xlink:href="#mefdb407fca" x="290.022429" y="2.933878" style="fill-opacity: 0.8; stroke: #000000; stroke-opacity: 0.8"/>
    </g>
   </g>
   <g id="patch_3">
    <path d="M 228.9 334.8 
L 228.9 102.493714 
" style="fill: none; stroke: #000000; stroke-width: 0.8; stroke-linejoin: miter; stroke-linecap: square"/>
   </g>
   <g id="patch_4">
    <path d="M 447 334.8 
L 447 102.493714 
" style="fill: none"/>
   </g>
   <g id="patch_5">
    <path d="M 10.8 2.933878 
L 447 2.933878 
" style="fill: none; stroke: #000000; stroke-width: 0.8; stroke-linejoin: miter; stroke-linecap: square"/>
   </g>
   <g id="patch_6">
    <path d="M 10.8 102.493714 
L 447 102.493714 
" style="fill: none"/>
   </g>
  </g>
 </g>
 <defs>
  <clipPath id="p0208d822c0">
   <rect x="10.8" y="102.493714" width="436.2" height="232.306286"/>
  </clipPath>
 </defs>
</svg>
