<?xml version="1.0" encoding="utf-8" standalone="no"?>
<!DOCTYPE svg PUBLIC "-//W3C//DTD SVG 1.1//EN"
  "http://www.w3.org/Graphics/SVG/1.1/DTD/svg11.dtd">
<svg xmlns:xlink="http://www.w3.org/1999/xlink" width="460.8pt" height="345.6pt" viewBox="0 0 460.8 345.6" xmlns="http://www.w3.org/2000/svg" version="1.1">
 <metadata>
  <rdf:RDF xmlns:dc="http://purl.org/dc/elements/1.1/" xmlns:cc="http://creativecommons.org/ns#" xmlns:rdf="http://www.w3.org/1999/02/22-rdf-syntax-ns#">
   <cc:Work>
    <dc:type rdf:resource="http://purl.org/dc/dcmitype/StillImage"/>
    <dc:date>2026-03-24T23:34:04.162745</dc:date>
    <dc:format>image/svg+xml</dc:format>
    <dc:creator>
     <cc:Agent>
      <dc:title>Matplotlib v3.10.8, https://matplotlib.org/</dc:title>
     </cc:Agent>
    </dc:creator>
   </cc:Work>
  </rdf:RDF>
 </metadata>
 <defs>
  <style type="text/css">*{stroke-linejoin: round; stroke-linecap: butt}</style>
 </defs>
 <g id="figure_1">
  <g id="patch_1">
   <path d="M 0 345.6 
L 460.8 345.6 
L 460.8 0 
L 0 0 
L 0 345.6 
z
" style="fill: none"/>
  </g>
  <g id="axes_1">
   <g id="patch_2">
    <path d="M 10.8 334.8 
L 447 334.8 
L 447 20.016315 
L 10.8 20.016315 
L 10.8 334.8 
z
" style="fill: none"/>
   </g>
   <g id="matplotlib.axis_1">
    <g id="text_1">
     <!-- $x$ -->
     <g transform="translate(435.913188 195.245154) scale(0.2 -0.2)">
      <defs>
       <path id="CMMI12-78" d="M 3034 2606 
C 2829 2567 2752 2414 2752 2293 
C 2752 2139 2874 2088 2963 2088 
C 3155 2088 3290 2254 3290 2427 
C 3290 2695 2982 2816 2714 2816 
C 2323 2816 2106 2433 2048 2312 
C 1901 2816 1504 2816 1389 2816 
C 736 2816 390 1980 390 1839 
C 390 1814 416 1782 461 1782 
C 512 1782 525 1820 538 1846 
C 755 2555 1184 2689 1370 2689 
C 1658 2689 1715 2420 1715 2267 
C 1715 2127 1677 1980 1600 1673 
L 1382 798 
C 1286 415 1101 64 762 64 
C 730 64 570 64 435 147 
C 666 192 717 383 717 460 
C 717 588 621 664 499 664 
C 346 664 179 530 179 326 
C 179 57 480 -64 755 -64 
C 1062 -64 1280 179 1414 441 
C 1517 64 1837 -64 2074 -64 
C 2726 -64 3072 773 3072 913 
C 3072 945 3046 971 3008 971 
C 2950 971 2944 939 2925 888 
C 2752 326 2381 64 2093 64 
C 1869 64 1747 230 1747 492 
C 1747 632 1773 734 1875 1156 
L 2099 2024 
C 2195 2408 2413 2689 2707 2689 
C 2720 2689 2899 2689 3034 2606 
z
" transform="scale(0.015625)"/>
      </defs>
      <use xlink:href="#CMMI12-78" transform="scale(0.996264)"/>
     </g>
    </g>
   </g>
   <g id="matplotlib.axis_2">
    <g id="text_2">
     <!-- $y$ -->
     <g transform="translate(215.387165 16.140682) scale(0.2 -0.2)">
      <defs>
       <path id="CMMI12-79" d="M 1683 -700 
C 1510 -939 1261 -1152 947 -1152 
C 870 -1152 563 -1152 467 -889 
C 486 -895 518 -895 531 -895 
C 723 -895 851 -729 851 -582 
C 851 -435 730 -384 634 -384 
C 531 -384 307 -458 307 -759 
C 307 -1071 582 -1286 947 -1286 
C 1587 -1286 2234 -700 2413 6 
L 3040 2485 
C 3046 2517 3059 2556 3059 2594 
C 3059 2689 2982 2753 2886 2753 
C 2829 2753 2694 2727 2643 2535 
L 2170 658 
C 2138 543 2138 530 2086 460 
C 1958 281 1747 64 1440 64 
C 1082 64 1050 415 1050 588 
C 1050 952 1222 1443 1395 1903 
C 1466 2088 1504 2178 1504 2305 
C 1504 2574 1312 2816 998 2816 
C 410 2816 173 1890 173 1839 
C 173 1814 198 1782 243 1782 
C 301 1782 307 1807 333 1897 
C 486 2433 730 2689 979 2689 
C 1037 2689 1146 2689 1146 2478 
C 1146 2312 1075 2127 979 1884 
C 666 1047 666 837 666 683 
C 666 77 1101 -64 1421 -64 
C 1606 -64 1837 -6 2061 230 
L 2067 224 
C 1971 -147 1907 -392 1683 -700 
z
" transform="scale(0.015625)"/>
      </defs>
      <use xlink:href="#CMMI12-79" transform="scale(0.996264)"/>
     </g>
    </g>
   </g>
   <g id="line2d_1">
    <defs>
     <path id="mc30fa91134" d="M 3 0 
L -3 -3 
L -3 3 
z
" style="stroke: #000000; stroke-linejoin: miter"/>
    </defs>
    <g>
     <use xlink:href="#mc30fa91134" x="447" y="177.408158" style="stroke: #000000; stroke-linejoin: miter"/>
    </g>
   </g>
   <g id="line2d_2">
    <defs>
     <path id="m81d878d094" d="M 0 -3 
L -3 3 
L 3 3 
z
" style="stroke: #000000; stroke-linejoin: miter"/>
    </defs>
    <g>
     <use xlink:href="#m81d878d094" x="228.9" y="20.016315" style="stroke: #000000; stroke-linejoin: miter"/>
    </g>
   </g>
   <g id="line2d_3">
    <path d="M 228.9 171.755573 
L 229.029854 171.687817 
L 229.326769 171.151561 
L 231.602327 165.741977 
L 232.787318 163.550855 
L 234.234689 161.28612 
L 235.922269 159.076589 
L 237.805852 157.048082 
L 239.821197 155.316404 
L 241.887401 153.980961 
L 243.911423 153.119368 
L 244.876546 152.883526 
L 245.79352 152.783367 
L 246.649813 152.820897 
L 247.433243 152.996281 
L 248.132162 153.307849 
L 248.735653 153.752143 
L 249.233702 154.323978 
L 249.617367 155.016537 
L 249.878936 155.821482 
L 250.012058 156.72909 
L 250.011867 157.728413 
L 249.875078 158.807445 
L 249.600063 159.953314 
L 249.186903 161.152478 
L 248.63742 162.390931 
L 247.14545 164.928657 
L 245.172985 167.453319 
L 242.794296 169.857885 
L 240.105714 172.047698 
L 237.220946 173.945851 
L 234.265318 175.497391 
L 231.369299 176.672109 
L 228.661651 177.465737 
L 226.262604 177.899512 
L 224.277446 178.018128 
L 222.790907 177.886228 
L 221.862645 177.583642 
L 221.524107 177.199697 
L 221.577672 177.006184 
L 221.77694 176.826931 
L 222.593055 176.554638 
L 223.916318 176.462618 
L 225.665795 176.615551 
L 227.74034 177.058335 
L 230.024269 177.812693 
L 232.393797 178.875257 
L 234.723846 180.217273 
L 236.894849 181.785949 
L 238.799157 183.507362 
L 240.346663 185.29078 
L 241.469361 187.034125 
L 242.124546 188.630254 
L 242.296517 189.973686 
L 242.203833 190.5198 
L 241.996681 190.967356 
L 241.68048 191.306581 
L 241.262076 191.528988 
L 240.749619 191.627523 
L 240.152422 191.596699 
L 239.480797 191.432701 
L 237.959494 190.698779 
L 236.2815 189.431303 
L 234.546779 187.665306 
L 232.853201 185.464194 
L 231.290533 182.916941 
L 229.935044 180.133756 
L 228.845044 177.240453 
L 228.057637 174.371839 
L 227.58686 171.664508 
L 227.423324 169.249445 
L 227.535358 167.244877 
L 227.871578 165.749771 
L 228.364718 164.838376 
L 228.645942 164.616971 
L 228.936461 164.556113 
L 229.225667 164.65656 
L 229.502978 164.917049 
L 229.980808 165.903125 
L 230.292726 167.465152 
L 230.373203 169.525542 
L 230.173135 171.982604 
L 229.663524 174.716151 
L 228.837876 177.594102 
L 227.713163 180.479692 
L 226.32927 183.238858 
L 224.746959 185.747401 
L 223.04445 187.897491 
L 221.312832 189.60315 
L 219.650576 190.804409 
L 218.157464 191.469904 
L 217.504335 191.600018 
L 216.928326 191.597779 
L 216.439517 191.467429 
L 216.046943 191.21486 
L 215.758439 190.847499 
L 215.580507 190.374171 
L 215.518191 189.804944 
L 215.57498 189.150955 
L 216.051631 187.637454 
L 217.004993 185.936788 
L 218.402371 184.156285 
L 220.18494 182.400704 
L 222.27041 180.765737 
L 224.557093 179.332196 
L 226.929167 178.161231 
L 229.262826 177.290868 
L 231.432983 176.73406 
L 233.320121 176.478366 
L 234.816916 176.48727 
L 235.834238 176.703037 
L 236.306179 177.050933 
L 236.324345 177.247714 
L 236.193832 177.444527 
L 235.48758 177.791754 
L 234.207774 178.001336 
L 232.40376 177.989183 
L 230.151304 177.684349 
L 227.548569 177.034179 
L 224.710874 176.008322 
L 221.764543 174.601345 
L 218.840187 172.833783 
L 216.065824 170.751555 
L 213.560211 168.423751 
L 211.42678 165.938943 
L 209.748516 163.400207 
L 208.584064 160.919174 
L 208.205553 159.735909 
L 207.965274 158.609454 
L 207.862874 157.553202 
L 207.8963 156.579825 
L 208.061862 155.70108 
L 208.354307 154.927622 
L 208.766928 154.268838 
L 209.29169 153.732696 
L 209.919362 153.325613 
L 210.639687 153.052347 
L 211.441542 152.91591 
L 212.313125 152.917513 
L 213.242145 153.056528 
L 214.21601 153.330485 
L 216.247615 154.264276 
L 218.308684 155.663706 
L 220.307388 157.448149 
L 222.164653 159.515795 
L 223.818563 161.749179 
L 225.227563 164.021674 
L 226.372285 166.204551 
L 227.6067 169.043613 
L 228.807253 171.96007 
L 228.930695 171.998345 
L 229.193337 171.669706 
L 230.030986 169.497753 
L 231.166129 166.800269 
L 232.236441 164.675341 
L 233.570849 162.428473 
L 235.155687 160.187671 
L 236.954876 158.080655 
L 238.911391 156.227708 
L 240.950136 154.735012 
L 242.982065 153.688839 
L 243.965077 153.353554 
L 244.909307 153.150953 
L 245.8021 153.08441 
L 246.631001 153.155463 
L 247.383947 153.363807 
L 248.049465 153.707315 
L 248.616853 154.18208 
L 249.076357 154.782494 
L 249.419338 155.501339 
L 249.638418 156.329911 
L 249.727616 157.258159 
L 249.682462 158.274845 
L 249.500087 159.367723 
L 249.179295 160.523728 
L 248.720611 161.729176 
L 247.40037 164.231833 
L 245.578168 166.761889 
L 243.319139 169.209205 
L 240.711914 171.473763 
L 237.864401 173.471407 
L 234.898392 175.138518 
L 231.94332 176.435362 
L 229.129499 177.34789 
L 226.581245 177.887923 
L 224.410269 178.091696 
L 222.709714 178.016874 
L 221.5492 177.73823 
L 220.971138 177.342263 
L 220.905771 177.129026 
L 220.98855 176.921092 
L 221.216417 176.729795 
L 222.086179 176.439997 
L 223.455732 176.337883 
L 225.241455 176.485951 
L 227.340169 176.926425 
L 229.634929 177.678037 
L 232.001521 178.734314 
L 234.3153 180.063484 
L 236.457956 181.610021 
L 238.323845 183.297751 
L 239.825498 185.034322 
L 240.898019 186.716794 
L 241.502106 188.237994 
L 241.625556 189.493269 
L 241.510647 189.990834 
L 241.283168 190.387219 
L 240.948912 190.672977 
L 240.515073 190.839988 
L 239.990113 190.881597 
L 239.383615 190.792748 
L 237.968974 190.212012 
L 236.36382 189.092509 
L 234.667321 187.458437 
L 232.978887 185.362991 
L 231.392014 182.886182 
L 229.988617 180.131052 
L 228.834189 177.218495 
L 227.974067 174.280972 
L 227.431035 171.45548 
L 227.204397 168.876179 
L 227.27056 166.667094 
L 227.585085 164.935329 
L 228.086069 163.765173 
L 228.383449 163.409626 
L 228.698634 163.213449 
L 229.021107 163.17894 
L 229.340239 163.306377 
L 229.645465 163.594018 
L 230.173407 164.633016 
L 230.528751 166.243209 
L 230.647641 168.343923 
L 230.483152 170.831009 
L 230.008828 173.582594 
L 229.220907 176.465779 
L 228.139096 179.343892 
L 226.805829 182.083874 
L 225.284047 184.563374 
L 223.653629 186.677146 
L 222.006669 188.342384 
L 220.441896 189.502687 
L 219.058567 190.130458 
L 218.464559 190.244097 
L 217.950194 190.22758 
L 217.525271 190.085577 
L 217.198505 189.824382 
L 216.977376 189.45179 
L 216.867997 188.976955 
L 216.874996 188.410232 
L 217.248696 187.047469 
L 218.102892 185.463301 
L 219.414764 183.76426 
L 221.134763 182.056818 
L 223.188699 180.44074 
L 225.481303 179.002966 
L 227.901077 177.812411 
L 230.326152 176.915973 
L 232.630827 176.336001 
L 234.69241 176.06936 
L 236.397978 176.088135 
L 237.650651 176.341931 
L 238.375028 176.76161 
L 238.522496 177.008118 
L 238.521463 177.26422 
L 238.370217 177.518346 
L 238.068932 177.75882 
L 237.026334 178.15281 
L 235.432127 178.358391 
L 233.35235 178.298731 
L 230.877116 177.913461 
L 228.115801 177.163147 
L 225.191191 176.03245 
L 222.23294 174.531786 
L 219.3707 172.697351 
L 216.727328 170.589512 
L 214.41256 168.289656 
L 212.517494 165.895661 
L 211.110212 163.516276 
L 210.232761 161.264733 
L 209.998345 160.221851 
L 209.899668 159.251985 
L 209.934264 158.367543 
L 210.098043 157.579966 
L 210.385386 156.899552 
L 210.789246 156.335293 
L 211.301281 155.894724 
L 211.912 155.583799 
L 212.61092 155.406793 
L 213.386745 155.366215 
L 214.227545 155.462765 
L 215.120951 155.695297 
L 217.01506 156.554557 
L 218.968697 157.898716 
L 220.886753 159.655835 
L 222.684998 161.731034 
L 224.294858 164.011586 
L 225.667097 166.373087 
L 226.774174 168.686353 
L 227.932884 171.791001 
L 228.68253 174.677216 
L 228.92071 175.583248 
L 229.104888 174.835215 
L 229.809614 172.124981 
L 230.482219 170.203569 
L 231.411284 168.043843 
L 232.603269 165.767996 
L 234.042171 163.504285 
L 235.689691 161.379802 
L 237.486874 159.513369 
L 239.35715 158.008954 
L 241.210597 156.950004 
L 242.949166 156.39501 
L 243.743952 156.317191 
L 244.472578 156.374559 
L 245.123176 156.566363 
L 245.684515 156.890042 
L 246.146178 157.341276 
L 246.49874 157.914065 
L 246.733928 158.600831 
L 246.844767 159.392543 
L 246.825708 160.278865 
L 246.672734 161.24832 
L 246.383454 162.28847 
L 245.394872 164.527464 
L 243.875101 166.884688 
L 241.866814 169.24675 
L 239.438729 171.504782 
L 236.682589 173.560837 
L 233.708779 175.333505 
L 230.640811 176.762439 
L 227.608989 177.811514 
L 224.743618 178.47043 
L 222.168128 178.754688 
L 219.992531 178.703933 
L 218.307566 178.37879 
L 217.179882 177.856389 
L 216.838369 177.548498 
L 216.648535 177.224875 
L 216.610625 176.897247 
L 216.722997 176.577235 
L 216.982155 176.27616 
L 217.917906 175.773403 
L 219.355419 175.466189 
L 221.208429 175.415362 
L 223.371755 175.661018 
L 225.727193 176.219471 
L 228.150083 177.081728 
L 230.516151 178.213603 
L 232.70825 179.557463 
L 234.622604 181.035507 
L 236.174192 182.554399 
L 237.300985 184.010964 
L 237.966791 185.298616 
L 238.162558 186.314127 
L 238.088727 186.690145 
L 237.906074 186.964324 
L 237.620712 187.127608 
L 237.240119 187.172303 
L 236.773005 187.092216 
L 235.619301 186.541128 
L 234.247851 185.458805 
L 232.755678 183.85888 
L 231.242369 181.784337 
L 229.803842 179.305963 
L 228.526456 176.519141 
L 227.481822 173.539164 
L 226.722626 170.495325 
L 226.279715 167.524117 
L 226.160607 164.761938 
L 226.34951 162.337716 
L 226.80884 160.365879 
L 227.482122 158.940081 
L 227.877173 158.454239 
L 228.298101 158.128054 
L 228.734519 157.96533 
L 229.17578 157.967869 
L 229.61117 158.135452 
L 230.030086 158.46584 
L 230.422229 158.954805 
L 231.087573 160.382 
L 231.537455 162.346364 
L 231.717446 164.751863 
L 231.592406 167.482412 
L 231.149226 170.40826 
L 230.398157 173.393083 
L 229.372647 176.301369 
L 228.127661 179.005677 
L 226.736605 181.393337 
L 225.287003 183.372225 
L 223.875212 184.875277 
L 222.600461 185.86349 
L 221.558607 186.327256 
L 221.152524 186.367446 
L 220.835965 186.28597 
L 220.61729 186.089442 
L 220.503591 185.785943 
L 220.500563 185.384872 
L 220.841682 184.333211 
L 221.654669 183.029431 
L 222.926565 181.577706 
L 224.61734 180.084679 
L 226.661392 178.652717 
L 228.970579 177.37355 
L 231.438613 176.322691 
L 233.94658 175.554957 
L 236.36926 175.101379 
L 238.581908 174.967647 
L 240.467087 175.134214 
L 241.921168 175.558008 
L 242.860127 176.175656 
L 243.116729 176.53291 
L 243.224279 176.908003 
L 243.179681 177.289483 
L 242.981707 177.665642 
L 242.631019 178.024721 
L 242.130159 178.355108 
L 240.697312 178.885334 
L 238.739388 179.173977 
L 236.338204 179.153218 
L 233.596817 178.774646 
L 230.634029 178.012951 
L 227.578051 176.868165 
L 224.559716 175.366302 
L 221.705611 173.558371 
L 219.131522 171.517779 
L 216.936579 169.336297 
L 215.198417 167.118816 
L 213.96962 164.977206 
L 213.275647 163.023643 
L 213.129603 162.150844 
L 213.114334 161.363821 
L 213.225434 160.673705 
L 213.456986 160.090441 
L 213.801685 159.62263 
L 214.250961 159.277387 
L 214.795137 159.060222 
L 215.423588 158.974944 
L 216.124919 159.023587 
L 216.887151 159.206361 
L 218.544639 159.965963 
L 220.295895 161.218951 
L 222.043789 162.902918 
L 223.700051 164.93099 
L 225.190387 167.196434 
L 226.458605 169.578461 
L 227.469485 171.9489 
L 228.210239 174.179343 
L 228.690487 176.148362 
L 228.994244 178.381658 
L 228.959805 179.515528 
L 228.912554 179.620772 
L 228.862931 179.58565 
L 228.794359 179.09818 
L 228.902629 177.388143 
L 229.206488 175.686797 
L 229.749778 173.641683 
L 230.558022 171.364463 
L 231.635323 168.978974 
L 232.963228 166.614245 
L 234.501079 164.397261 
L 236.187839 162.445894 
L 237.94529 160.862414 
L 239.682431 159.727959 
L 241.300812 159.098266 
L 242.03412 158.982469 
L 242.700476 159.000928 
L 243.288169 159.152516 
L 243.786168 159.434304 
L 244.1843 159.841623 
L 244.473421 160.368146 
L 244.645576 161.005999 
L 244.694139 161.745889 
L 244.613936 162.577258 
L 244.401349 163.48845 
L 243.5728 165.499302 
L 242.213194 167.670501 
L 240.354882 169.889309 
L 238.056963 172.044988 
L 235.402834 174.035383 
L 232.496288 175.772862 
L 229.456394 177.189294 
L 226.411431 178.239736 
L 223.492227 178.904639 
L 220.825266 179.190433 
L 218.525979 179.128472 
L 216.692589 178.772415 
L 215.400871 178.194215 
L 214.974663 177.848048 
L 214.700131 177.478964 
L 214.578881 177.098672 
L 214.610628 176.718934 
L 214.793206 176.351353 
L 215.122603 176.007178 
L 216.196958 175.431102 
L 217.767547 175.066398 
L 219.744953 174.971743 
L 222.021519 175.184572 
L 224.477352 175.718224 
L 226.986943 176.560616 
L 229.426024 177.674564 
L 231.678269 178.999729 
L 233.641449 180.456075 
L 235.232696 181.948653 
L 236.392574 183.37341 
L 237.087741 184.62368 
L 237.312055 185.596969 
L 237.253072 185.950506 
L 237.086083 186.201615 
L 236.817497 186.341538 
L 236.455057 186.362912 
L 235.485418 186.028326 
L 234.260174 185.171478 
L 232.873364 183.794617 
L 231.423964 181.929458 
L 230.009624 179.636267 
L 228.720606 177.001271 
L 227.63429 174.1325 
L 226.810595 171.154301 
L 226.28856 168.200834 
L 226.084313 165.408914 
L 226.190517 162.91062 
L 226.577334 160.826086 
L 227.194831 159.256904 
L 227.569869 158.690841 
L 227.97666 158.280513 
L 228.405123 158.031122 
L 228.844786 157.945907 
L 229.284965 158.0261 
L 229.714957 158.270905 
L 230.124221 158.677517 
L 230.502567 159.241152 
L 231.128544 160.810897 
L 231.524886 162.90552 
L 231.639499 165.42564 
L 231.440024 168.252579 
L 230.916415 171.254863 
L 230.082077 174.295374 
L 228.973516 177.238747 
L 227.648475 179.95858 
L 226.182688 182.344047 
L 224.665422 184.305529 
L 223.194086 185.77895 
L 221.868216 186.728587 
L 220.783211 187.148182 
L 220.358198 187.165203 
L 220.024205 187.060343 
L 219.789345 186.840561 
L 219.660429 186.514251 
L 219.642844 186.09109 
L 219.955481 184.998305 
L 220.73845 183.6585 
L 221.975879 182.17638 
L 223.624931 180.658305 
L 225.617507 179.205574 
L 227.86345 177.908135 
L 230.255096 176.839132 
L 232.672906 176.050588 
L 234.991867 175.57049 
L 237.088295 175.401451 
L 238.846647 175.521008 
L 240.165951 175.883535 
L 240.965482 176.42364 
L 241.151799 176.735572 
L 241.189352 177.060831 
L 241.075567 177.38792 
L 240.809745 177.705141 
L 240.393073 178.000794 
L 239.121284 178.481815 
L 237.306401 178.745035 
L 235.02148 178.716968 
L 232.362575 178.341861 
L 229.443635 177.585867 
L 226.390443 176.439841 
L 223.33395 174.920601 
L 220.403388 173.070541 
L 217.719555 170.955626 
L 215.388652 168.661874 
L 213.497029 166.290525 
L 212.107116 163.952198 
L 211.254783 161.760368 
L 211.033851 160.753958 
L 210.948237 159.82457 
L 210.994727 158.984186 
L 211.168527 158.243733 
L 211.463358 157.612914 
L 211.87158 157.100051 
L 212.384325 156.711947 
L 212.99165 156.453774 
L 213.682711 156.328981 
L 214.445932 156.339227 
L 215.269203 156.484345 
L 216.140065 156.762322 
L 217.974175 157.699715 
L 219.849088 159.099677 
L 221.672325 160.884639 
L 223.363538 162.955275 
L 224.859031 165.19589 
L 226.115131 167.480806 
L 227.110186 169.681377 
L 228.12127 172.554922 
L 228.9 175.58916 
L 228.9 175.58916 
" clip-path="url(#p462d48935f)" style="fill: none; stroke: #0072b2; stroke-width: 2.5; stroke-linecap: square"/>
   </g>
   <g id="line2d_4">
    <defs>
     <path id="m28cc12f7c5" d="M 0 5 
C 1.326016 5 2.597899 4.473168 3.535534 3.535534 
C 4.473168 2.597899 5 1.326016 5 0 
C 5 -1.326016 4.473168 -2.597899 3.535534 -3.535534 
C 2.597899 -4.473168 1.326016 -5 0 -5 
C -1.326016 -5 -2.597899 -4.473168 -3.535534 -3.535534 
C -4.473168 -2.597899 -5 -1.326016 -5 0 
C -5 1.326016 -4.473168 2.597899 -3.535534 3.535534 
C -2.597899 4.473168 -1.326016 5 0 5 
z
" style="stroke: #000000; stroke-opacity: 0.8"/>
    </defs>
    <g clip-path="url(#p462d48935f)">
     <use xlink:href="#m28cc12f7c5" x="228.9" y="175.58916" style="fill-opacity: 0.8; stroke: #000000; stroke-opacity: 0.8"/>
    </g>
   </g>
   <g id="patch_3">
    <path d="M 228.9 334.8 
L 228.9 20.016315 
" style="fill: none; stroke: #000000; stroke-width: 0.8; stroke-linejoin: miter; stroke-linecap: square"/>
   </g>
   <g id="patch_4">
    <path d="M 447 334.8 
L 447 20.016315 
" style="fill: none"/>
   </g>
   <g id="patch_5">
    <path d="M 10.8 177.408158 
L 447 177.408158 
" style="fill: none; stroke: #000000; stroke-width: 0.8; stroke-linejoin: miter; stroke-linecap: square"/>
   </g>
   <g id="patch_6">
    <path d="M 10.8 20.016315 
L 447 20.016315 
" style="fill: none"/>
   </g>
  </g>
 </g>
 <defs>
  <clipPath id="p462d48935f">
   <rect x="10.8" y="20.016315" width="436.2" height="314.783685"/>
  </clipPath>
 </defs>
</svg>
