<?xml version="1.0" encoding="utf-8" standalone="no"?>
<!DOCTYPE svg PUBLIC "-//W3C//DTD SVG 1.1//EN"
  "http://www.w3.org/Graphics/SVG/1.1/DTD/svg11.dtd">
<svg xmlns:xlink="http://www.w3.org/1999/xlink" width="460.8pt" height="345.6pt" viewBox="0 0 460.8 345.6" xmlns="http://www.w3.org/2000/svg" version="1.1">
 <metadata>
  <rdf:RDF xmlns:dc="http://purl.org/dc/elements/1.1/" xmlns:cc="http://creativecommons.org/ns#" xmlns:rdf="http://www.w3.org/1999/02/22-rdf-syntax-ns#">
   <cc:Work>
    <dc:type rdf:resource="http://purl.org/dc/dcmitype/StillImage"/>
    <dc:date>2026-03-24T23:06:43.540094</dc:date>
    <dc:format>image/svg+xml</dc:format>
    <dc:creator>
     <cc:Agent>
      <dc:title>Matplotlib v3.10.8, https://matplotlib.org/</dc:title>
     </cc:Agent>
    </dc:creator>
   </cc:Work>
  </rdf:RDF>
 </metadata>
 <defs>
  <style type="text/css">*{stroke-linejoin: round; stroke-linecap: butt}</style>
 </defs>
 <g id="figure_1">
  <g id="patch_1">
   <path d="M 0 345.6 
L 460.8 345.6 
L 460.8 0 
L 0 0 
L 0 345.6 
z
" style="fill: none"/>
  </g>
  <g id="axes_1">
   <g id="patch_2">
    <path d="M 10.8 334.8 
L 447 334.8 
L 447 20.016315 
L 10.8 20.016315 
L 10.8 334.8 
z
" style="fill: none"/>
   </g>
   <g id="matplotlib.axis_1">
    <g id="text_1">
     <!-- $x$ -->
     <g transform="translate(435.913188 195.245154) scale(0.2 -0.2)">
      <defs>
       <path id="CMMI12-78" d="M 3034 2606 
C 2829 2567 2752 2414 2752 2293 
C 2752 2139 2874 2088 2963 2088 
C 3155 2088 3290 2254 3290 2427 
C 3290 2695 2982 2816 2714 2816 
C 2323 2816 2106 2433 2048 2312 
C 1901 2816 1504 2816 1389 2816 
C 736 2816 390 1980 390 1839 
C 390 1814 416 1782 461 1782 
C 512 1782 525 1820 538 1846 
C 755 2555 1184 2689 1370 2689 
C 1658 2689 1715 2420 1715 2267 
C 1715 2127 1677 1980 1600 1673 
L 1382 798 
C 1286 415 1101 64 762 64 
C 730 64 570 64 435 147 
C 666 192 717 383 717 460 
C 717 588 621 664 499 664 
C 346 664 179 530 179 326 
C 179 57 480 -64 755 -64 
C 1062 -64 1280 179 1414 441 
C 1517 64 1837 -64 2074 -64 
C 2726 -64 3072 773 3072 913 
C 3072 945 3046 971 3008 971 
C 2950 971 2944 939 2925 888 
C 2752 326 2381 64 2093 64 
C 1869 64 1747 230 1747 492 
C 1747 632 1773 734 1875 1156 
L 2099 2024 
C 2195 2408 2413 2689 2707 2689 
C 2720 2689 2899 2689 3034 2606 
z
" transform="scale(0.015625)"/>
      </defs>
      <use xlink:href="#CMMI12-78" transform="scale(0.996264)"/>
     </g>
    </g>
   </g>
   <g id="matplotlib.axis_2">
    <g id="text_2">
     <!-- $y$ -->
     <g transform="translate(215.387165 16.140682) scale(0.2 -0.2)">
      <defs>
       <path id="CMMI12-79" d="M 1683 -700 
C 1510 -939 1261 -1152 947 -1152 
C 870 -1152 563 -1152 467 -889 
C 486 -895 518 -895 531 -895 
C 723 -895 851 -729 851 -582 
C 851 -435 730 -384 634 -384 
C 531 -384 307 -458 307 -759 
C 307 -1071 582 -1286 947 -1286 
C 1587 -1286 2234 -700 2413 6 
L 3040 2485 
C 3046 2517 3059 2556 3059 2594 
C 3059 2689 2982 2753 2886 2753 
C 2829 2753 2694 2727 2643 2535 
L 2170 658 
C 2138 543 2138 530 2086 460 
C 1958 281 1747 64 1440 64 
C 1082 64 1050 415 1050 588 
C 1050 952 1222 1443 1395 1903 
C 1466 2088 1504 2178 1504 2305 
C 1504 2574 1312 2816 998 2816 
C 410 2816 173 1890 173 1839 
C 173 1814 198 1782 243 1782 
C 301 1782 307 1807 333 1897 
C 486 2433 730 2689 979 2689 
C 1037 2689 1146 2689 1146 2478 
C 1146 2312 1075 2127 979 1884 
C 666 1047 666 837 666 683 
C 666 77 1101 -64 1421 -64 
C 1606 -64 1837 -6 2061 230 
L 2067 224 
C 1971 -147 1907 -392 1683 -700 
z
" transform="scale(0.015625)"/>
      </defs>
      <use xlink:href="#CMMI12-79" transform="scale(0.996264)"/>
     </g>
    </g>
   </g>
   <g id="line2d_1">
    <defs>
     <path id="m5f415d0f27" d="M 3 0 
L -3 -3 
L -3 3 
z
" style="stroke: #000000; stroke-linejoin: miter"/>
    </defs>
    <g>
     <use xlink:href="#m5f415d0f27" x="447" y="177.408158" style="stroke: #000000; stroke-linejoin: miter"/>
    </g>
   </g>
   <g id="line2d_2">
    <defs>
     <path id="m4f651a6edb" d="M 0 -3 
L -3 3 
L 3 3 
z
" style="stroke: #000000; stroke-linejoin: miter"/>
    </defs>
    <g>
     <use xlink:href="#m4f651a6edb" x="228.9" y="20.016315" style="stroke: #000000; stroke-linejoin: miter"/>
    </g>
   </g>
   <g id="line2d_3">
    <path d="M 228.9 177.408158 
L 231.597479 177.288446 
L 233.122872 176.936518 
L 234.14285 176.459475 
L 234.879898 175.89229 
L 235.399611 175.257393 
L 235.729709 174.572677 
L 235.884367 173.853876 
L 235.832254 172.867448 
L 235.498524 171.878499 
L 234.897253 170.917497 
L 234.044208 170.013181 
L 232.958092 169.19243 
L 231.661049 168.480013 
L 230.178765 167.898283 
L 228.540327 167.466861 
L 226.7779 167.202328 
L 224.92629 167.117951 
L 223.022409 167.223452 
L 221.104676 167.524822 
L 219.212366 168.024194 
L 217.384927 168.719787 
L 215.661275 169.605902 
L 214.079094 170.672991 
L 212.674143 171.907797 
L 211.479582 173.29355 
L 210.525345 174.81023 
L 209.837557 176.434895 
L 209.509855 177.709005 
L 209.351829 179.018 
L 209.369312 180.349753 
L 209.566456 181.691694 
L 209.945663 183.030921 
L 210.507548 184.354335 
L 211.250908 185.648764 
L 212.172713 186.90109 
L 213.268112 188.098386 
L 214.986947 189.587445 
L 216.981825 190.92771 
L 219.226934 192.092513 
L 221.691562 193.057617 
L 224.340557 193.801671 
L 227.134849 194.306629 
L 230.032063 194.558113 
L 232.987181 194.545725 
L 235.953271 194.263283 
L 238.882246 193.709005 
L 241.725662 192.885603 
L 244.435527 191.80032 
L 246.352101 190.821383 
L 248.148238 189.708202 
L 249.805791 188.468672 
L 251.307634 187.111968 
L 252.637833 185.64847 
L 253.781809 184.089684 
L 254.726488 182.448147 
L 255.460442 180.737323 
L 255.974013 178.971489 
L 256.259424 177.165614 
L 256.310869 175.335227 
L 256.124591 173.496281 
L 255.698941 171.665012 
L 255.034415 169.857793 
L 254.133673 168.090986 
L 253.001541 166.38079 
L 251.644988 164.743096 
L 250.073087 163.193333 
L 248.296957 161.746327 
L 246.329681 160.416161 
L 244.18621 159.216032 
L 241.883247 158.158131 
L 239.439114 157.253516 
L 236.873602 156.512002 
L 234.207813 155.942061 
L 231.463974 155.55073 
L 228.665257 155.343534 
L 225.835575 155.324421 
L 222.999376 155.49571 
L 220.181431 155.858056 
L 217.40661 156.410424 
L 214.699667 157.150085 
L 212.08501 158.072624 
L 209.586485 159.171963 
L 207.227158 160.440395 
L 205.029096 161.868644 
L 203.013167 163.445931 
L 201.198842 165.160051 
L 199.604004 166.997476 
L 198.24478 168.943459 
L 197.135381 170.982152 
L 196.287954 173.096741 
L 195.712462 175.269584 
L 195.416571 177.482362 
L 195.405565 179.716233 
L 195.682279 181.951993 
L 196.247047 184.170247 
L 197.097685 186.351577 
L 198.229485 188.476711 
L 199.635232 190.526696 
L 201.305253 192.48307 
L 203.227477 194.328026 
L 205.387524 196.044574 
L 207.768809 197.616701 
L 210.352674 199.029514 
L 213.118533 200.269388 
L 216.044037 201.324087 
L 219.105258 202.182891 
L 222.276885 202.836698 
L 225.532436 203.278114 
L 228.84448 203.501538 
L 232.184872 203.50322 
L 235.524992 203.28131 
L 238.835993 202.835889 
L 242.089053 202.168982 
L 245.255626 201.284555 
L 248.307693 200.188498 
L 251.218013 198.888582 
L 253.960367 197.394412 
L 256.509791 195.717351 
L 258.842807 193.870436 
L 260.937637 191.868277 
L 262.774409 189.72694 
L 264.335336 187.463816 
L 265.604894 185.097483 
L 266.569969 182.647546 
L 267.219991 180.134481 
L 267.547041 177.579456 
L 267.545941 175.004155 
L 267.214314 172.430594 
L 266.552631 169.880927 
L 265.564219 167.377259 
L 264.255256 164.941452 
L 262.634733 162.594931 
L 260.7144 160.358498 
L 258.508676 158.252146 
L 256.034546 156.29488 
L 253.311428 154.504543 
L 250.361023 152.897659 
L 247.207136 151.489277 
L 243.875491 150.29283 
L 240.393512 149.320013 
L 236.790103 148.580665 
L 233.095402 148.082676 
L 229.34053 147.831903 
L 225.557327 147.83211 
L 221.778079 148.08492 
L 218.035245 148.589788 
L 214.361173 149.343993 
L 210.787822 150.342647 
L 207.346481 151.578727 
L 204.067495 153.043118 
L 200.98 154.724686 
L 198.111656 156.610355 
L 195.488408 158.685213 
L 193.134247 160.93263 
L 191.070988 163.334389 
L 189.318078 165.870836 
L 188.330336 167.62634 
L 187.492428 169.425945 
L 186.808137 171.262976 
L 186.280676 173.13059 
L 185.912667 175.021799 
L 185.706138 176.929498 
L 185.662504 178.846492 
L 185.782565 180.765524 
L 186.066499 182.679299 
L 186.513859 184.580515 
L 187.12357 186.461893 
L 187.893936 188.316198 
L 188.822638 190.136273 
L 189.906747 191.915066 
L 191.142728 193.645654 
L 192.526452 195.321274 
L 194.868608 197.717302 
L 197.514221 199.953607 
L 200.44234 202.010155 
L 203.629472 203.868342 
L 207.04977 205.511169 
L 210.675245 206.923394 
L 214.475994 208.091672 
L 218.420449 209.00468 
L 222.475637 209.653226 
L 226.607462 210.030339 
L 230.780988 210.131342 
L 234.960736 209.953902 
L 239.110989 209.498062 
L 243.196096 208.766255 
L 247.180781 207.763294 
L 251.030445 206.496344 
L 254.71147 204.974868 
L 258.191515 203.210564 
L 261.439794 201.217269 
L 264.427355 199.010856 
L 266.260859 197.430221 
L 267.959109 195.76844 
L 269.515201 194.031554 
L 270.92275 192.225905 
L 272.175917 190.35812 
L 273.269431 188.435084 
L 274.19861 186.463915 
L 274.959386 184.451938 
L 275.548314 182.406656 
L 275.962596 180.335725 
L 276.200088 178.246922 
L 276.259312 176.148118 
L 276.139465 174.047247 
L 275.84042 171.952277 
L 275.362735 169.871177 
L 274.707649 167.811892 
L 273.877077 165.782306 
L 272.873611 163.790218 
L 271.700509 161.843306 
L 270.361683 159.949102 
L 268.861689 158.114961 
L 267.205709 156.348033 
L 265.399537 154.655233 
L 263.449554 153.043217 
L 261.362709 151.518355 
L 259.146493 150.086702 
L 255.597247 148.126411 
L 251.804083 146.406405 
L 247.798262 144.942483 
L 243.613007 143.748324 
L 239.283231 142.835359 
L 234.845238 142.212668 
L 230.336425 141.886883 
L 225.794962 141.86213 
L 221.259469 142.139974 
L 216.768687 142.719401 
L 212.361146 143.596809 
L 208.074835 144.766034 
L 203.946873 146.218388 
L 200.013185 147.942723 
L 197.515727 149.236796 
L 195.129714 150.641214 
L 192.864515 152.150971 
L 190.729068 153.76065 
L 188.731844 155.464436 
L 186.880811 157.25614 
L 185.183406 159.129222 
L 183.646503 161.076814 
L 182.276386 163.091746 
L 181.078722 165.166572 
L 180.058541 167.293596 
L 179.220212 169.464903 
L 178.567424 171.672389 
L 178.103175 173.907788 
L 177.829752 176.162706 
L 177.748724 178.428651 
L 177.860937 180.697066 
L 178.166501 182.95936 
L 178.664796 185.206943 
L 179.354465 187.431256 
L 180.233422 189.623806 
L 181.298858 191.776196 
L 182.547247 193.88016 
L 183.974358 195.927593 
L 185.57527 197.910582 
L 187.344392 199.821438 
L 189.275475 201.652724 
L 191.36164 203.397286 
L 193.595402 205.048281 
L 195.968695 206.599201 
L 198.472901 208.0439 
L 201.098882 209.376622 
L 203.837016 210.592018 
L 206.677226 211.685171 
L 209.609024 212.651615 
L 212.621545 213.487353 
L 217.267104 214.488342 
L 222.030035 215.177732 
L 226.870193 215.548419 
L 231.746618 215.595994 
L 236.61788 215.318788 
L 241.442433 214.717901 
L 246.17897 213.797201 
L 249.267623 213.008881 
L 252.287197 212.083934 
L 255.22608 211.025514 
L 258.072935 209.837289 
L 260.816747 208.523429 
L 263.446862 207.088591 
L 265.953032 205.537903 
L 268.325453 203.876944 
L 270.554804 202.111727 
L 272.632283 200.248674 
L 274.549642 198.294597 
L 276.29922 196.256666 
L 277.873974 194.142389 
L 279.267505 191.959584 
L 280.474088 189.716344 
L 281.48869 187.421016 
L 282.306996 185.08216 
L 282.925425 182.708526 
L 283.341142 180.309017 
L 283.552077 177.892653 
L 283.556932 175.468542 
L 283.355184 173.045843 
L 282.947096 170.633733 
L 282.33371 168.24137 
L 281.516853 165.877858 
L 280.499125 163.552216 
L 279.283896 161.273338 
L 277.87529 159.049966 
L 276.278177 156.890649 
L 274.498152 154.803715 
L 272.541517 152.797237 
L 270.415258 150.879002 
L 268.127021 149.056482 
L 265.685085 147.336801 
L 263.098329 145.726714 
L 260.376204 144.232573 
L 257.528695 142.860307 
L 254.566286 141.615396 
L 251.499921 140.50285 
L 248.340964 139.527191 
L 245.101155 138.692431 
L 241.79257 138.002055 
L 238.427571 137.459014 
L 235.018764 137.065702 
L 231.57895 136.823955 
L 228.121076 136.735037 
L 224.658187 136.799635 
L 221.203378 137.017858 
L 217.769743 137.389231 
L 214.370325 137.912698 
L 211.018067 138.586626 
L 207.725762 139.408804 
L 204.506007 140.376459 
L 201.371149 141.486258 
L 198.333244 142.73432 
L 195.404008 144.116236 
L 192.594767 145.627077 
L 189.916424 147.261413 
L 187.379405 149.013338 
L 184.993626 150.876484 
L 182.768452 152.844049 
L 180.712661 154.90882 
L 178.834406 157.063199 
L 177.141189 159.299232 
L 175.639823 161.60864 
L 174.336413 163.982846 
L 173.236326 166.413008 
L 172.344169 168.890055 
L 171.663775 171.404717 
L 171.198179 173.947561 
L 170.949612 176.509028 
L 170.919485 179.079468 
L 171.108387 181.649173 
L 171.516077 184.208421 
L 172.141486 186.747507 
L 172.982717 189.25678 
L 174.037051 191.726683 
L 175.300957 194.147788 
L 176.770102 196.51083 
L 178.439367 198.806745 
L 180.302864 201.026706 
L 182.353957 203.16215 
L 184.585284 205.204822 
L 186.988786 207.146796 
L 189.555736 208.980514 
L 192.276767 210.69881 
L 195.141911 212.29494 
L 198.140633 213.762611 
L 201.261868 215.096001 
L 204.494067 216.289785 
L 207.825235 217.339156 
L 211.242977 218.239843 
L 214.734545 218.988131 
L 218.286886 219.580872 
L 221.886688 220.015502 
L 225.520434 220.290051 
L 229.174448 220.403149 
L 232.834951 220.354037 
L 236.488112 220.142568 
L 240.120098 219.769208 
L 243.717127 219.235038 
L 247.265524 218.54175 
L 250.751769 217.691643 
L 254.16255 216.687612 
L 257.484813 215.533143 
L 260.705814 214.232298 
L 263.813166 212.7897 
L 266.794887 211.21052 
L 269.639449 209.500455 
L 272.335817 207.66571 
L 274.873497 205.712974 
L 277.242573 203.649395 
L 279.43375 201.482557 
L 281.438387 199.220448 
L 283.248531 196.871434 
L 284.856951 194.444225 
L 286.257164 191.947847 
L 287.443463 189.391602 
L 288.410941 186.78504 
L 289.155508 184.137918 
L 289.67391 181.460166 
L 289.963742 178.761852 
L 290.022429 177.408158 
L 290.022429 177.408158 
" clip-path="url(#pb65ac2779a)" style="fill: none; stroke: #0072b2; stroke-width: 2.5; stroke-linecap: square"/>
   </g>
   <g id="line2d_4">
    <defs>
     <path id="mac18001990" d="M 0 5 
C 1.326016 5 2.597899 4.473168 3.535534 3.535534 
C 4.473168 2.597899 5 1.326016 5 0 
C 5 -1.326016 4.473168 -2.597899 3.535534 -3.535534 
C 2.597899 -4.473168 1.326016 -5 0 -5 
C -1.326016 -5 -2.597899 -4.473168 -3.535534 -3.535534 
C -4.473168 -2.597899 -5 -1.326016 -5 0 
C -5 1.326016 -4.473168 2.597899 -3.535534 3.535534 
C -2.597899 4.473168 -1.326016 5 0 5 
z
" style="stroke: #000000; stroke-opacity: 0.8"/>
    </defs>
    <g clip-path="url(#pb65ac2779a)">
     <use xlink:href="#mac18001990" x="290.022429" y="177.408158" style="fill-opacity: 0.8; stroke: #000000; stroke-opacity: 0.8"/>
    </g>
   </g>
   <g id="patch_3">
    <path d="M 228.9 334.8 
L 228.9 20.016315 
" style="fill: none; stroke: #000000; stroke-width: 0.8; stroke-linejoin: miter; stroke-linecap: square"/>
   </g>
   <g id="patch_4">
    <path d="M 447 334.8 
L 447 20.016315 
" style="fill: none"/>
   </g>
   <g id="patch_5">
    <path d="M 10.8 177.408158 
L 447 177.408158 
" style="fill: none; stroke: #000000; stroke-width: 0.8; stroke-linejoin: miter; stroke-linecap: square"/>
   </g>
   <g id="patch_6">
    <path d="M 10.8 20.016315 
L 447 20.016315 
" style="fill: none"/>
   </g>
  </g>
 </g>
 <defs>
  <clipPath id="pb65ac2779a">
   <rect x="10.8" y="20.016315" width="436.2" height="314.783685"/>
  </clipPath>
 </defs>
</svg>
