<?xml version="1.0" encoding="utf-8" standalone="no"?>
<!DOCTYPE svg PUBLIC "-//W3C//DTD SVG 1.1//EN"
  "http://www.w3.org/Graphics/SVG/1.1/DTD/svg11.dtd">
<svg xmlns:xlink="http://www.w3.org/1999/xlink" width="460.8pt" height="345.6pt" viewBox="0 0 460.8 345.6" xmlns="http://www.w3.org/2000/svg" version="1.1">
 <metadata>
  <rdf:RDF xmlns:dc="http://purl.org/dc/elements/1.1/" xmlns:cc="http://creativecommons.org/ns#" xmlns:rdf="http://www.w3.org/1999/02/22-rdf-syntax-ns#">
   <cc:Work>
    <dc:type rdf:resource="http://purl.org/dc/dcmitype/StillImage"/>
    <dc:date>2026-03-24T23:18:42.434820</dc:date>
    <dc:format>image/svg+xml</dc:format>
    <dc:creator>
     <cc:Agent>
      <dc:title>Matplotlib v3.10.8, https://matplotlib.org/</dc:title>
     </cc:Agent>
    </dc:creator>
   </cc:Work>
  </rdf:RDF>
 </metadata>
 <defs>
  <style type="text/css">*{stroke-linejoin: round; stroke-linecap: butt}</style>
 </defs>
 <g id="figure_1">
  <g id="patch_1">
   <path d="M 0 345.6 
L 460.8 345.6 
L 460.8 0 
L 0 0 
L 0 345.6 
z
" style="fill: none"/>
  </g>
  <g id="axes_1">
   <g id="patch_2">
    <path d="M 10.8 334.8 
L 447 334.8 
L 447 20.016315 
L 10.8 20.016315 
L 10.8 334.8 
z
" style="fill: none"/>
   </g>
   <g id="matplotlib.axis_1">
    <g id="text_1">
     <!-- $x$ -->
     <g transform="translate(435.913188 195.245154) scale(0.2 -0.2)">
      <defs>
       <path id="CMMI12-78" d="M 3034 2606 
C 2829 2567 2752 2414 2752 2293 
C 2752 2139 2874 2088 2963 2088 
C 3155 2088 3290 2254 3290 2427 
C 3290 2695 2982 2816 2714 2816 
C 2323 2816 2106 2433 2048 2312 
C 1901 2816 1504 2816 1389 2816 
C 736 2816 390 1980 390 1839 
C 390 1814 416 1782 461 1782 
C 512 1782 525 1820 538 1846 
C 755 2555 1184 2689 1370 2689 
C 1658 2689 1715 2420 1715 2267 
C 1715 2127 1677 1980 1600 1673 
L 1382 798 
C 1286 415 1101 64 762 64 
C 730 64 570 64 435 147 
C 666 192 717 383 717 460 
C 717 588 621 664 499 664 
C 346 664 179 530 179 326 
C 179 57 480 -64 755 -64 
C 1062 -64 1280 179 1414 441 
C 1517 64 1837 -64 2074 -64 
C 2726 -64 3072 773 3072 913 
C 3072 945 3046 971 3008 971 
C 2950 971 2944 939 2925 888 
C 2752 326 2381 64 2093 64 
C 1869 64 1747 230 1747 492 
C 1747 632 1773 734 1875 1156 
L 2099 2024 
C 2195 2408 2413 2689 2707 2689 
C 2720 2689 2899 2689 3034 2606 
z
" transform="scale(0.015625)"/>
      </defs>
      <use xlink:href="#CMMI12-78" transform="scale(0.996264)"/>
     </g>
    </g>
   </g>
   <g id="matplotlib.axis_2">
    <g id="text_2">
     <!-- $y$ -->
     <g transform="translate(215.387165 16.140682) scale(0.2 -0.2)">
      <defs>
       <path id="CMMI12-79" d="M 1683 -700 
C 1510 -939 1261 -1152 947 -1152 
C 870 -1152 563 -1152 467 -889 
C 486 -895 518 -895 531 -895 
C 723 -895 851 -729 851 -582 
C 851 -435 730 -384 634 -384 
C 531 -384 307 -458 307 -759 
C 307 -1071 582 -1286 947 -1286 
C 1587 -1286 2234 -700 2413 6 
L 3040 2485 
C 3046 2517 3059 2556 3059 2594 
C 3059 2689 2982 2753 2886 2753 
C 2829 2753 2694 2727 2643 2535 
L 2170 658 
C 2138 543 2138 530 2086 460 
C 1958 281 1747 64 1440 64 
C 1082 64 1050 415 1050 588 
C 1050 952 1222 1443 1395 1903 
C 1466 2088 1504 2178 1504 2305 
C 1504 2574 1312 2816 998 2816 
C 410 2816 173 1890 173 1839 
C 173 1814 198 1782 243 1782 
C 301 1782 307 1807 333 1897 
C 486 2433 730 2689 979 2689 
C 1037 2689 1146 2689 1146 2478 
C 1146 2312 1075 2127 979 1884 
C 666 1047 666 837 666 683 
C 666 77 1101 -64 1421 -64 
C 1606 -64 1837 -6 2061 230 
L 2067 224 
C 1971 -147 1907 -392 1683 -700 
z
" transform="scale(0.015625)"/>
      </defs>
      <use xlink:href="#CMMI12-79" transform="scale(0.996264)"/>
     </g>
    </g>
   </g>
   <g id="line2d_1">
    <defs>
     <path id="m0a8654b85a" d="M 3 0 
L -3 -3 
L -3 3 
z
" style="stroke: #000000; stroke-linejoin: miter"/>
    </defs>
    <g>
     <use xlink:href="#m0a8654b85a" x="447" y="177.408158" style="stroke: #000000; stroke-linejoin: miter"/>
    </g>
   </g>
   <g id="line2d_2">
    <defs>
     <path id="m6b901fe5fa" d="M 0 -3 
L -3 3 
L 3 3 
z
" style="stroke: #000000; stroke-linejoin: miter"/>
    </defs>
    <g>
     <use xlink:href="#m6b901fe5fa" x="228.9" y="20.016315" style="stroke: #000000; stroke-linejoin: miter"/>
    </g>
   </g>
   <g id="line2d_3">
    <path d="M 228.9 177.408158 
L 229.684165 177.280954 
L 230.352833 176.91173 
L 230.714103 176.496964 
L 230.911909 175.989324 
L 230.915422 175.417898 
L 230.702958 174.816343 
L 230.263167 174.221467 
L 229.595818 173.671663 
L 228.712139 173.205249 
L 227.634706 172.858783 
L 226.396869 172.6654 
L 225.041733 172.653262 
L 223.620722 172.844157 
L 222.191782 173.252308 
L 220.817266 173.883455 
L 219.561592 174.734227 
L 218.488741 175.791857 
L 217.659691 177.034239 
L 217.270115 177.950156 
L 217.028253 178.923316 
L 216.946787 179.94099 
L 217.036251 180.989139 
L 217.304787 182.052601 
L 217.757933 183.115307 
L 218.398449 184.160513 
L 219.226177 185.171052 
L 220.237957 186.129598 
L 221.427574 187.018935 
L 222.785761 187.822238 
L 224.300253 188.523352 
L 225.955873 189.107062 
L 227.73469 189.559365 
L 229.616198 189.867721 
L 231.577561 190.021295 
L 233.593884 190.011175 
L 235.638531 189.830563 
L 237.683476 189.474948 
L 239.699679 188.94224 
L 241.657494 188.232875 
L 243.52709 187.349883 
L 245.278889 186.29892 
L 246.884008 185.088261 
L 248.314706 183.728757 
L 249.544817 182.233748 
L 250.550182 180.618941 
L 251.309052 178.902247 
L 251.802468 177.10359 
L 252.014614 175.24467 
L 251.933128 173.348705 
L 251.549371 171.440139 
L 250.858655 169.544332 
L 249.860409 167.687218 
L 248.558296 165.894962 
L 246.96028 164.193593 
L 245.078615 162.608635 
L 242.929791 161.164743 
L 240.534412 159.885332 
L 237.917009 158.79222 
L 235.105801 157.905291 
L 232.132394 157.242168 
L 229.031433 156.817916 
L 225.840192 156.644773 
L 222.598133 156.731915 
L 219.346414 157.085259 
L 216.127368 157.707301 
L 212.983955 158.597006 
L 209.959192 159.749741 
L 207.095572 161.157253 
L 204.434475 162.8077 
L 202.015588 164.685732 
L 199.876329 166.772617 
L 198.051298 169.046417 
L 196.571745 171.48222 
L 195.465084 174.0524 
L 194.754445 176.726936 
L 194.458267 179.473759 
L 194.589963 182.259132 
L 195.157629 185.048075 
L 196.163832 187.804794 
L 197.605458 190.493142 
L 199.473641 193.077094 
L 201.753766 195.521223 
L 204.425544 197.791179 
L 207.463167 199.854168 
L 210.835546 201.679409 
L 214.50661 203.23858 
L 218.435688 204.50624 
L 222.577954 205.460215 
L 226.884937 206.08195 
L 231.305085 206.356823 
L 235.784384 206.274406 
L 240.267015 205.828682 
L 244.696055 205.018202 
L 249.014191 203.846186 
L 253.164466 202.320567 
L 257.091022 200.453972 
L 260.739847 198.263641 
L 264.059511 195.771283 
L 265.580715 194.419801 
L 267.001871 193.002873 
L 268.317586 191.524369 
L 269.522759 189.988391 
L 270.612592 188.399258 
L 271.582618 186.761499 
L 272.428707 185.079836 
L 273.147093 183.359172 
L 273.73438 181.604578 
L 274.187563 179.821275 
L 274.504037 178.014621 
L 274.681608 176.190095 
L 274.718508 174.353278 
L 274.613399 172.509838 
L 274.365383 170.665513 
L 273.97401 168.826091 
L 273.439281 166.997392 
L 272.761652 165.185254 
L 271.942036 163.395507 
L 270.981805 161.633961 
L 269.882788 159.906383 
L 268.64727 158.218481 
L 267.277985 156.575882 
L 265.778117 154.984116 
L 264.151288 153.448599 
L 262.40155 151.97461 
L 260.533378 150.567276 
L 258.551661 149.231555 
L 256.461681 147.972218 
L 254.26911 146.793831 
L 251.979985 145.700741 
L 249.6007 144.69706 
L 247.137982 143.786648 
L 244.598875 142.973104 
L 241.990721 142.259744 
L 239.321135 141.649596 
L 236.597988 141.145386 
L 233.829378 140.749526 
L 231.023611 140.464103 
L 228.189173 140.290872 
L 225.334706 140.231249 
L 222.46898 140.2863 
L 219.600868 140.456739 
L 216.739318 140.742919 
L 213.893324 141.144835 
L 211.071898 141.662112 
L 208.284042 142.294013 
L 205.53872 143.039431 
L 202.844829 143.896895 
L 200.211168 144.86457 
L 197.646412 145.940259 
L 195.159084 147.12141 
L 192.757524 148.405121 
L 190.449862 149.788143 
L 188.243995 151.266896 
L 186.147553 152.837467 
L 184.16788 154.495631 
L 182.312003 156.236854 
L 180.586613 158.056309 
L 178.998035 159.94889 
L 177.552212 161.909222 
L 176.254678 163.931683 
L 175.110543 166.010412 
L 174.124468 168.139333 
L 173.300654 170.312167 
L 172.642817 172.522456 
L 172.154183 174.763578 
L 171.837464 177.028768 
L 171.694856 179.311139 
L 171.72802 181.603702 
L 171.93808 183.899389 
L 172.32561 186.191073 
L 172.890633 188.471591 
L 173.632615 190.733766 
L 174.550464 192.970432 
L 175.642529 195.174451 
L 176.906601 197.338741 
L 178.339918 199.456298 
L 179.939168 201.520215 
L 181.7005 203.523709 
L 183.619526 205.460141 
L 185.691338 207.323037 
L 187.910514 209.10611 
L 190.271137 210.803285 
L 192.766809 212.408712 
L 195.390665 213.916791 
L 198.135396 215.322192 
L 200.993266 216.619869 
L 203.956136 217.805083 
L 207.015485 218.873413 
L 210.162436 219.820778 
L 213.387779 220.643448 
L 216.682004 221.338059 
L 220.035321 221.901626 
L 223.437694 222.331555 
L 226.878871 222.625652 
L 230.348414 222.782135 
L 233.835728 222.79964 
L 237.3301 222.677231 
L 240.820725 222.414399 
L 244.296742 222.011074 
L 247.747269 221.467622 
L 251.161437 220.784852 
L 254.528421 219.96401 
L 257.837478 219.006782 
L 261.07798 217.91529 
L 264.239446 216.692088 
L 267.311581 215.340157 
L 270.284301 213.862898 
L 273.147777 212.264123 
L 275.892455 210.548046 
L 278.509099 208.719275 
L 280.988813 206.782793 
L 283.323078 204.743953 
L 285.503775 202.608457 
L 287.523216 200.382342 
L 289.374171 198.071965 
L 291.049891 195.683984 
L 292.544133 193.225335 
L 293.851185 190.703219 
L 294.965883 188.125074 
L 295.883632 185.498559 
L 296.600424 182.831526 
L 297.112855 180.132001 
L 297.418136 177.408158 
L 297.514107 174.668291 
L 297.399249 171.920797 
L 297.072691 169.17414 
L 296.534213 166.436834 
L 295.784256 163.71741 
L 294.823923 161.024395 
L 293.654976 158.366279 
L 292.279837 155.751494 
L 290.701584 153.188385 
L 288.923943 150.685182 
L 286.951284 148.249976 
L 284.788605 145.890692 
L 282.441527 143.615062 
L 279.916274 141.430603 
L 277.219658 139.344588 
L 274.359063 137.364027 
L 271.342426 135.495639 
L 268.178208 133.745832 
L 264.875381 132.12068 
L 261.443394 130.625904 
L 257.892151 129.266849 
L 254.23198 128.04847 
L 250.473604 126.975311 
L 246.62811 126.051488 
L 242.706916 125.280676 
L 238.721736 124.666095 
L 234.684548 124.210496 
L 230.607555 123.916153 
L 226.503148 123.784847 
L 222.383873 123.817867 
L 218.262385 124.015995 
L 214.151416 124.379506 
L 210.063732 124.908162 
L 206.012096 125.60121 
L 202.009223 126.457386 
L 198.067748 127.474909 
L 194.200179 128.65149 
L 190.418861 129.984332 
L 186.735936 131.470142 
L 183.163303 133.105131 
L 179.712581 134.885029 
L 176.395073 136.805094 
L 173.221724 138.860126 
L 170.20309 141.044476 
L 167.349301 143.352067 
L 164.670028 145.776408 
L 162.174449 148.310612 
L 159.871221 150.947417 
L 157.768446 153.679204 
L 155.873648 156.498023 
L 154.193742 159.39561 
L 152.735013 162.36342 
L 151.503091 165.392642 
L 150.502932 168.474233 
L 149.738797 171.598943 
L 149.214238 174.757338 
L 148.93208 177.939837 
L 148.894413 181.136734 
L 149.102578 184.33823 
L 149.557161 187.534464 
L 150.257987 190.715542 
L 151.204117 193.871568 
L 152.393849 196.992675 
L 153.824714 200.069056 
L 155.493486 203.090994 
L 157.396187 206.048893 
L 159.528093 208.933311 
L 161.883747 211.734983 
L 164.456973 214.44486 
L 167.240892 217.05413 
L 170.227938 219.554253 
L 173.409878 221.936984 
L 176.777839 224.194402 
L 180.322326 226.318937 
L 184.033255 228.303393 
L 187.899976 230.140974 
L 191.911307 231.825307 
L 196.055565 233.350464 
L 200.320599 234.710978 
L 204.693829 235.90187 
L 209.162278 236.91866 
L 213.712615 237.757386 
L 218.331192 238.414621 
L 223.004085 238.887481 
L 227.717139 239.173641 
L 232.456007 239.27134 
L 237.206196 239.179395 
L 241.95311 238.897205 
L 246.682096 238.424751 
L 251.378489 237.762606 
L 256.027656 236.911931 
L 260.615044 235.874477 
L 265.126225 234.652579 
L 269.546937 233.249155 
L 273.863138 231.667696 
L 278.06104 229.912263 
L 282.127162 227.987469 
L 286.048367 225.898474 
L 289.811908 223.650971 
L 293.405468 221.251167 
L 296.8172 218.705767 
L 300.035764 216.021958 
L 303.050369 213.207387 
L 305.850805 210.270139 
L 308.42748 207.218715 
L 310.771448 204.062007 
L 312.874445 200.809272 
L 314.728916 197.470104 
L 316.328037 194.054408 
L 317.665748 190.572369 
L 318.736766 187.03442 
L 319.536612 183.451217 
L 320.061624 179.833599 
L 320.308973 176.192559 
L 320.276677 172.539214 
L 319.963608 168.884762 
L 319.369502 165.240459 
L 318.494962 161.617574 
L 317.34146 158.027361 
L 315.911335 154.481021 
L 314.207793 150.989668 
L 312.234897 147.564294 
L 309.99756 144.215735 
L 307.501532 140.954635 
L 304.753389 137.791415 
L 301.760511 134.736235 
L 298.531068 131.798969 
L 295.073994 128.989165 
L 291.398963 126.316021 
L 287.516365 123.788349 
L 283.437275 121.414552 
L 279.173419 119.20259 
L 274.737146 117.159959 
L 270.141388 115.293663 
L 265.399622 113.610191 
L 260.525834 112.115494 
L 255.534477 110.814967 
L 250.440425 109.713425 
L 245.258931 108.815092 
L 240.005583 108.123579 
L 234.696255 107.641875 
L 229.347056 107.372335 
L 223.97429 107.316666 
L 218.594396 107.475924 
L 213.223906 107.850506 
L 207.879388 108.440145 
L 202.5774 109.243909 
L 197.334434 110.260202 
L 192.166869 111.486767 
L 187.090917 112.920686 
L 182.122572 114.558391 
L 177.277564 116.395671 
L 172.571302 118.427683 
L 168.018831 120.64896 
L 163.634783 123.053433 
L 159.433327 125.634441 
L 155.428128 128.384753 
L 151.632297 131.296587 
L 148.058355 134.36163 
L 144.718185 137.571064 
L 141.622998 140.915591 
L 138.783295 144.385459 
L 136.208827 147.970492 
L 133.908569 151.660116 
L 131.890684 155.443394 
L 130.162497 159.309058 
L 128.730467 163.245541 
L 127.600166 167.241012 
L 126.776257 171.283411 
L 126.262477 175.360487 
L 126.061621 179.459835 
L 126.175529 183.568932 
L 126.605079 187.675177 
L 127.350178 191.765928 
L 128.40976 195.828543 
L 129.781786 199.850416 
L 131.463245 203.81902 
L 133.450161 207.721944 
L 135.737601 211.546931 
L 138.319685 215.281917 
L 141.189606 218.91507 
L 144.339639 222.434826 
L 147.76117 225.829927 
L 151.444713 229.089457 
L 155.37994 232.202876 
L 159.555707 235.160053 
L 163.960086 237.951302 
L 168.580402 240.567411 
L 173.403263 242.999674 
L 178.414605 245.239918 
L 183.599731 247.28053 
L 188.943349 249.114487 
L 194.429628 250.735373 
L 200.042232 252.137406 
L 205.764378 253.315457 
L 211.578884 254.265069 
L 217.468217 254.98247 
L 223.41455 255.464592 
L 229.399815 255.709078 
L 235.405755 255.714296 
L 241.413984 255.479346 
L 247.406041 255.004063 
L 253.363447 254.289022 
L 259.267761 253.33554 
L 265.10064 252.145671 
L 270.843893 250.722208 
L 276.479538 249.068669 
L 281.989859 247.189299 
L 287.357464 245.08905 
L 292.565336 242.773575 
L 297.596887 240.249207 
L 302.436014 237.522948 
L 307.067148 234.602447 
L 311.475305 231.495978 
L 315.646133 228.212416 
L 319.565961 224.761217 
L 323.221839 221.152384 
L 326.601586 217.396442 
L 329.693828 213.504407 
L 332.488035 209.487752 
L 334.974556 205.358376 
L 337.144656 201.128568 
L 338.990542 196.810966 
L 340.50539 192.418528 
L 341.683374 187.964485 
L 342.519683 183.462305 
L 343.010542 178.925652 
L 343.153224 174.368343 
L 342.946068 169.804308 
L 342.388481 165.247547 
L 341.480949 160.712085 
L 340.225034 156.211932 
L 338.62338 151.761036 
L 336.679701 147.373245 
L 334.398778 143.062257 
L 331.786448 138.841584 
L 328.849585 134.724506 
L 325.596089 130.724028 
L 322.03486 126.852844 
L 318.175776 123.123291 
L 314.029666 119.547316 
L 309.608278 116.136429 
L 304.924251 112.901677 
L 299.991072 109.853598 
L 294.823042 107.002195 
L 289.435233 104.356898 
L 283.843446 101.926534 
L 278.064162 99.7193 
L 272.114495 97.742734 
L 266.012141 96.00369 
L 259.775326 94.508312 
L 253.422751 93.262019 
L 246.973537 92.269477 
L 240.447165 91.534591 
L 233.86342 91.060484 
L 227.242329 90.849488 
L 220.604101 90.903133 
L 213.969065 91.222139 
L 207.35761 91.806415 
L 200.790117 92.655049 
L 194.286901 93.766318 
L 187.868146 95.13768 
L 181.553845 96.765788 
L 175.363734 98.646493 
L 169.317232 100.774856 
L 163.43338 103.145159 
L 157.730782 105.75092 
L 152.227546 108.584914 
L 146.941224 111.639189 
L 141.888762 114.905089 
L 137.086438 118.373279 
L 132.549816 122.033771 
L 128.293693 125.875955 
L 124.332051 129.888626 
L 120.678013 134.060017 
L 117.343795 138.377838 
L 114.340674 142.829306 
L 111.678941 147.401187 
L 109.367873 152.079834 
L 107.415696 156.851228 
L 105.829561 161.701019 
L 104.615515 166.61457 
L 103.77848 171.577 
L 103.322236 176.573233 
L 103.249402 181.588039 
L 103.561429 186.606081 
L 104.258586 191.611966 
L 105.33996 196.590288 
L 106.803456 201.525676 
L 108.645794 206.402845 
L 110.86252 211.206637 
L 113.448016 215.922074 
L 116.395511 220.534403 
L 119.697101 225.02914 
L 123.343766 229.392118 
L 127.325401 233.60953 
L 131.630834 237.667973 
L 136.247868 241.554492 
L 141.163307 245.256619 
L 146.362996 248.762413 
L 151.831864 252.060502 
L 157.553965 255.140116 
L 163.512524 257.991122 
L 169.689989 260.604059 
L 176.068078 262.97017 
L 182.627839 265.081427 
L 189.349701 266.930562 
L 196.213535 268.511092 
L 203.198714 269.817336 
L 210.284173 270.844442 
L 217.448477 271.588398 
L 224.669881 272.046054 
L 231.926398 272.215126 
L 239.195867 272.094212 
L 246.456019 271.682798 
L 253.684545 270.98126 
L 260.859168 269.990867 
L 267.957706 268.713778 
L 274.958145 267.153043 
L 281.838707 265.312591 
L 288.577915 263.197222 
L 295.154661 260.812595 
L 301.548274 258.165216 
L 307.738584 255.262416 
L 313.705984 252.112333 
L 319.431494 248.72389 
L 324.896819 245.106768 
L 330.084412 241.271381 
L 334.977523 237.228844 
L 339.560259 232.990941 
L 343.817634 228.570094 
L 347.735616 223.97932 
L 351.301175 219.232201 
L 354.502324 214.342836 
L 357.328162 209.325805 
L 359.768906 204.196123 
L 361.815931 198.969194 
L 363.461793 193.660768 
L 364.700261 188.286891 
L 365.526336 182.863856 
L 365.936272 177.408158 
L 365.927588 171.936436 
L 365.499086 166.465432 
L 364.650852 161.011931 
L 363.384261 155.592714 
L 361.701977 150.224506 
L 359.607952 144.923924 
L 357.10741 139.707426 
L 354.206841 134.591258 
L 350.913984 129.591406 
L 347.237802 124.723545 
L 343.188464 120.002987 
L 338.777315 115.444641 
L 334.01684 111.062956 
L 328.920638 106.871881 
L 323.503375 102.884821 
L 317.780746 99.114592 
L 311.769429 95.57338 
L 305.487036 92.272704 
L 298.952062 89.223375 
L 292.183831 86.435464 
L 285.202437 83.918269 
L 278.028688 81.68028 
L 270.68404 79.729155 
L 263.190536 78.071695 
L 255.570736 76.713814 
L 247.847654 75.660527 
L 240.044686 74.915924 
L 232.185539 74.483162 
L 224.294158 74.364445 
L 216.394656 74.561023 
L 208.511237 75.07318 
L 200.668125 75.900229 
L 192.889488 77.040518 
L 185.199361 78.491426 
L 177.621578 80.249372 
L 170.179691 82.309822 
L 162.896902 84.6673 
L 155.79599 87.315403 
L 148.899236 90.246817 
L 142.228358 93.45334 
L 135.80444 96.925901 
L 129.647866 100.654586 
L 123.778254 104.62867 
L 118.214398 108.836643 
L 112.974201 113.266246 
L 108.074626 117.904504 
L 103.531632 122.737769 
L 99.360132 127.751755 
L 95.573934 132.931581 
L 92.185704 138.261818 
L 89.206921 143.726532 
L 86.647836 149.309334 
L 84.517442 154.993427 
L 82.823438 160.761656 
L 81.572206 166.596563 
L 80.768784 172.480438 
L 80.416852 178.395372 
L 80.518711 184.323312 
L 81.075275 190.246117 
L 82.086068 196.145612 
L 83.549215 202.003646 
L 85.461448 207.802145 
L 87.818112 213.523171 
L 90.613176 219.148972 
L 93.839247 224.662046 
L 97.487587 230.045185 
L 101.548141 235.281539 
L 106.00956 240.354659 
L 110.859237 245.248556 
L 116.083336 249.947747 
L 121.666838 254.437308 
L 127.593579 258.702916 
L 133.8463 262.730898 
L 140.406696 266.508275 
L 147.255467 270.022804 
L 154.372379 273.263013 
L 161.736321 276.218246 
L 169.325368 278.878689 
L 177.116848 281.235411 
L 185.087406 283.280387 
L 193.213076 285.00653 
L 201.469357 286.40771 
L 209.831277 287.478782 
L 218.27348 288.215598 
L 226.770295 288.615025 
L 235.295816 288.674958 
L 243.823983 288.39433 
L 252.328659 287.773114 
L 260.783712 286.812328 
L 269.163094 285.514037 
L 277.440922 283.881345 
L 285.591558 281.918391 
L 293.589687 279.630339 
L 301.410399 277.023362 
L 309.029261 274.104629 
L 316.4224 270.882285 
L 323.566573 267.365425 
L 330.43924 263.564074 
L 337.018637 259.489152 
L 343.283846 255.15245 
L 349.214858 250.566592 
L 354.792638 245.744996 
L 359.999188 240.701839 
L 364.817602 235.452017 
L 369.232122 230.011092 
L 373.22819 224.395257 
L 376.792494 218.621281 
L 379.913014 212.70646 
L 382.579061 206.668567 
L 384.781313 200.525797 
L 386.511849 194.296712 
L 387.764172 188.000187 
L 388.53324 181.655351 
L 388.815478 175.281529 
L 388.608796 168.898183 
L 387.912602 162.524855 
L 386.7278 156.181102 
L 385.056797 149.886443 
L 382.903499 143.660292 
L 380.273299 137.521903 
L 377.17307 131.490307 
L 373.611139 125.584257 
L 369.597276 119.822166 
L 365.142656 114.222052 
L 360.259839 108.80148 
L 354.962726 103.577508 
L 349.266526 98.566633 
L 343.187708 93.784738 
L 336.743955 89.247046 
L 329.954116 84.968064 
L 322.838145 80.961544 
L 315.417047 77.240436 
L 307.712815 73.816845 
L 299.748363 70.701994 
L 291.54746 67.906185 
L 283.134659 65.438769 
L 274.535223 63.308109 
L 265.775049 61.52156 
L 256.880589 60.085435 
L 247.878772 59.00499 
L 238.796924 58.284401 
L 229.66268 57.926754 
L 220.503903 57.934024 
L 211.348601 58.307076 
L 202.224836 59.045652 
L 193.160644 60.148374 
L 184.183944 61.612743 
L 175.322455 63.435145 
L 166.603609 65.61086 
L 158.054466 68.134071 
L 149.701631 70.997882 
L 141.571173 74.194337 
L 133.688536 77.71444 
L 126.07847 81.548179 
L 118.764946 85.68456 
L 111.771083 90.11163 
L 105.119075 94.816519 
L 98.83012 99.785474 
L 92.924353 105.003898 
L 87.420782 110.456395 
L 82.337226 116.126816 
L 77.69026 121.998302 
L 73.495157 128.053341 
L 69.765841 134.273814 
L 66.514841 140.641054 
L 63.753249 147.135897 
L 61.490682 153.738746 
L 59.735248 160.429623 
L 58.493519 167.188237 
L 57.77051 173.994038 
L 57.569654 180.826285 
L 57.892792 187.664106 
L 58.740161 194.486566 
L 60.110393 201.272724 
L 62.000513 208.001704 
L 64.405943 214.652756 
L 67.320517 221.205322 
L 70.736491 227.639095 
L 74.644566 233.934088 
L 79.033913 240.070692 
L 83.892202 246.029738 
L 89.205637 251.792558 
L 94.958992 257.34104 
L 101.13566 262.657692 
L 107.717696 267.725687 
L 114.68587 272.528926 
L 122.019726 277.052082 
L 129.697636 281.280654 
L 137.696872 285.201008 
L 145.993665 288.800427 
L 154.56328 292.067145 
L 163.380089 294.990394 
L 172.417648 297.56043 
L 181.648775 299.768572 
L 191.045634 301.607228 
L 200.579814 303.069923 
L 210.222421 304.151319 
L 219.944164 304.847233 
L 229.715438 305.154659 
L 239.506424 305.07177 
L 249.287173 304.597935 
L 259.027698 303.73372 
L 268.698071 302.480888 
L 278.268508 300.842398 
L 287.709465 298.822397 
L 296.991731 296.426213 
L 306.086513 293.660338 
L 314.965528 290.532413 
L 323.601092 287.051204 
L 331.966206 283.226582 
L 340.034637 279.069492 
L 347.781006 274.591924 
L 355.180862 269.806874 
L 362.210763 264.728314 
L 368.848348 259.371143 
L 375.072411 253.751152 
L 380.862963 247.884967 
L 386.201302 241.790011 
L 391.07007 235.484444 
L 395.453311 228.987113 
L 399.33652 222.317495 
L 402.706695 215.495636 
L 405.552377 208.542097 
L 407.863688 201.477885 
L 409.632368 194.324393 
L 410.851803 187.103335 
L 411.517047 179.836682 
L 411.62484 172.54659 
L 411.173628 165.255338 
L 410.163564 157.985255 
L 408.596514 150.758657 
L 406.476058 143.597773 
L 403.807478 136.524681 
L 400.59775 129.561236 
L 396.855521 122.729007 
L 392.59109 116.049207 
L 387.816382 109.542628 
L 382.544909 103.229575 
L 376.791735 97.129806 
L 370.573434 91.262466 
L 363.908044 85.646032 
L 356.815007 80.298249 
L 349.315124 75.236078 
L 341.430483 70.475642 
L 333.184403 66.032173 
L 324.601357 61.919965 
L 315.706908 58.152327 
L 306.527624 54.74154 
L 297.091008 51.69882 
L 287.425406 49.034276 
L 277.559931 46.756881 
L 267.524367 44.874441 
L 257.349086 43.393568 
L 247.064952 42.319656 
L 236.703229 41.656865 
L 226.295485 41.408104 
L 215.873496 41.575016 
L 205.469151 42.157979 
L 195.114351 43.156091 
L 184.840915 44.567179 
L 174.680477 46.3878 
L 164.664395 48.613247 
L 154.823649 51.237563 
L 145.188748 54.253555 
L 135.789634 57.652817 
L 126.655591 61.425747 
L 117.815151 65.561581 
L 109.296007 70.048418 
L 101.124925 74.873257 
L 93.327662 80.022034 
L 85.928882 85.479661 
L 78.95208 91.230075 
L 72.419507 97.256279 
L 66.352099 103.540397 
L 60.769412 110.063725 
L 55.689556 116.806786 
L 51.129137 123.749389 
L 47.103205 130.870691 
L 43.625203 138.149257 
L 40.706924 145.563124 
L 38.358468 153.089871 
L 36.588212 160.706683 
L 35.402778 168.390422 
L 34.807008 176.117699 
L 34.803949 183.864939 
L 35.394837 191.608461 
L 36.579092 199.324544 
L 38.354311 206.989503 
L 40.716279 214.579762 
L 43.658973 222.071923 
L 47.174576 229.442841 
L 51.253504 236.669698 
L 55.884422 243.730065 
L 61.054284 250.601983 
L 66.748364 257.264022 
L 72.950301 263.695351 
L 79.642142 269.875806 
L 86.804399 275.785947 
L 94.4161 281.407127 
L 102.454855 286.721541 
L 110.89692 291.712293 
L 119.717265 296.363441 
L 128.889653 300.660052 
L 138.386712 304.588249 
L 148.180021 308.135256 
L 158.240194 311.28944 
L 168.536967 314.040346 
L 179.039291 316.378735 
L 189.715423 318.296613 
L 200.533026 319.787257 
L 211.45926 320.845242 
L 222.46089 321.466456 
L 233.504382 321.648117 
L 244.556005 321.388784 
L 255.581937 320.688366 
L 266.548365 319.548122 
L 277.421594 317.970659 
L 288.168143 315.959934 
L 298.754854 313.521234 
L 309.148993 310.661171 
L 319.318351 307.387661 
L 329.231341 303.7099 
L 338.857101 299.638344 
L 348.165587 295.184675 
L 357.127666 290.361768 
L 365.715211 285.183657 
L 373.901184 279.66549 
L 381.659725 273.823487 
L 388.966232 267.674894 
L 395.79744 261.23793 
L 402.131493 254.531731 
L 407.948016 247.576299 
L 413.228179 240.392437 
L 417.954758 233.001689 
L 422.11219 225.426276 
L 425.686627 217.689027 
L 428.665979 209.813314 
L 431.039955 201.822977 
L 432.800098 193.742255 
L 433.939817 185.595711 
L 434.454407 177.408158 
L 434.454407 177.408158 
" clip-path="url(#pcf367b5b8f)" style="fill: none; stroke: #0072b2; stroke-width: 2.5; stroke-linecap: square"/>
   </g>
   <g id="line2d_4">
    <defs>
     <path id="ma04e58cdef" d="M 0 5 
C 1.326016 5 2.597899 4.473168 3.535534 3.535534 
C 4.473168 2.597899 5 1.326016 5 0 
C 5 -1.326016 4.473168 -2.597899 3.535534 -3.535534 
C 2.597899 -4.473168 1.326016 -5 0 -5 
C -1.326016 -5 -2.597899 -4.473168 -3.535534 -3.535534 
C -4.473168 -2.597899 -5 -1.326016 -5 0 
C -5 1.326016 -4.473168 2.597899 -3.535534 3.535534 
C -2.597899 4.473168 -1.326016 5 0 5 
z
" style="stroke: #000000; stroke-opacity: 0.8"/>
    </defs>
    <g clip-path="url(#pcf367b5b8f)">
     <use xlink:href="#ma04e58cdef" x="434.454407" y="177.408158" style="fill-opacity: 0.8; stroke: #000000; stroke-opacity: 0.8"/>
    </g>
   </g>
   <g id="patch_3">
    <path d="M 228.9 334.8 
L 228.9 20.016315 
" style="fill: none; stroke: #000000; stroke-width: 0.8; stroke-linejoin: miter; stroke-linecap: square"/>
   </g>
   <g id="patch_4">
    <path d="M 447 334.8 
L 447 20.016315 
" style="fill: none"/>
   </g>
   <g id="patch_5">
    <path d="M 10.8 177.408158 
L 447 177.408158 
" style="fill: none; stroke: #000000; stroke-width: 0.8; stroke-linejoin: miter; stroke-linecap: square"/>
   </g>
   <g id="patch_6">
    <path d="M 10.8 20.016315 
L 447 20.016315 
" style="fill: none"/>
   </g>
  </g>
 </g>
 <defs>
  <clipPath id="pcf367b5b8f">
   <rect x="10.8" y="20.016315" width="436.2" height="314.783685"/>
  </clipPath>
 </defs>
</svg>
