<?xml version="1.0" encoding="utf-8" standalone="no"?>
<!DOCTYPE svg PUBLIC "-//W3C//DTD SVG 1.1//EN"
  "http://www.w3.org/Graphics/SVG/1.1/DTD/svg11.dtd">
<svg xmlns:xlink="http://www.w3.org/1999/xlink" width="460.8pt" height="345.6pt" viewBox="0 0 460.8 345.6" xmlns="http://www.w3.org/2000/svg" version="1.1">
 <metadata>
  <rdf:RDF xmlns:dc="http://purl.org/dc/elements/1.1/" xmlns:cc="http://creativecommons.org/ns#" xmlns:rdf="http://www.w3.org/1999/02/22-rdf-syntax-ns#">
   <cc:Work>
    <dc:type rdf:resource="http://purl.org/dc/dcmitype/StillImage"/>
    <dc:date>2026-03-24T23:01:56.262858</dc:date>
    <dc:format>image/svg+xml</dc:format>
    <dc:creator>
     <cc:Agent>
      <dc:title>Matplotlib v3.10.8, https://matplotlib.org/</dc:title>
     </cc:Agent>
    </dc:creator>
   </cc:Work>
  </rdf:RDF>
 </metadata>
 <defs>
  <style type="text/css">*{stroke-linejoin: round; stroke-linecap: butt}</style>
 </defs>
 <g id="figure_1">
  <g id="patch_1">
   <path d="M 0 345.6 
L 460.8 345.6 
L 460.8 0 
L 0 0 
L 0 345.6 
z
" style="fill: none"/>
  </g>
  <g id="axes_1">
   <g id="patch_2">
    <path d="M 19.44 326.16 
L 438.36 326.16 
L 438.36 28.656315 
L 19.44 28.656315 
L 19.44 326.16 
z
" style="fill: none"/>
   </g>
   <g id="matplotlib.axis_1">
    <g id="xtick_1">
     <g id="line2d_1">
      <path d="M 54.35 326.16 
L 54.35 28.656315 
" clip-path="url(#p8ec77021b7)" style="fill: none; stroke-dasharray: 2.96,1.28; stroke-dashoffset: 0; stroke: #b0b0b0; stroke-opacity: 0.6; stroke-width: 0.8"/>
     </g>
     <g id="line2d_2">
      <defs>
       <path id="m5e49040d89" d="M 0 0 
L 0 3.5 
" style="stroke: #000000; stroke-width: 0.8"/>
      </defs>
      <g>
       <use xlink:href="#m5e49040d89" x="54.35" y="177.408158" style="stroke: #000000; stroke-width: 0.8"/>
      </g>
     </g>
     <g id="text_1">
      <!-- $\mathdefault{−5}$ -->
      <g transform="translate(42.032209 198.245154) scale(0.2 -0.2)">
       <defs>
        <path id="CMSY10-0" d="M 4218 1472 
C 4326 1472 4442 1472 4442 1600 
C 4442 1728 4326 1728 4218 1728 
L 755 1728 
C 646 1728 531 1728 531 1600 
C 531 1472 646 1472 755 1472 
L 4218 1472 
z
" transform="scale(0.015625)"/>
        <path id="CMR17-35" d="M 730 3692 
C 794 3666 1056 3584 1325 3584 
C 1920 3584 2246 3911 2432 4100 
C 2432 4157 2432 4192 2394 4192 
C 2387 4192 2374 4192 2323 4163 
C 2099 4058 1837 3973 1517 3973 
C 1325 3973 1037 3999 723 4139 
C 653 4171 640 4171 634 4171 
C 602 4171 595 4164 595 4037 
L 595 2203 
C 595 2089 595 2057 659 2057 
C 691 2057 704 2070 736 2114 
C 941 2401 1222 2522 1542 2522 
C 1766 2522 2246 2382 2246 1289 
C 2246 1085 2246 715 2054 421 
C 1894 159 1645 25 1370 25 
C 947 25 518 320 403 814 
C 429 807 480 795 506 795 
C 589 795 749 840 749 1038 
C 749 1210 627 1280 506 1280 
C 358 1280 262 1190 262 1011 
C 262 454 704 -128 1382 -128 
C 2042 -128 2669 440 2669 1264 
C 2669 2030 2170 2624 1549 2624 
C 1222 2624 947 2503 730 2274 
L 730 3692 
z
" transform="scale(0.015625)"/>
       </defs>
       <use xlink:href="#CMSY10-0" transform="scale(0.996264)"/>
       <use xlink:href="#CMR17-35" transform="translate(77.487468 0) scale(0.996264)"/>
      </g>
     </g>
    </g>
    <g id="xtick_2">
     <g id="line2d_3">
      <path d="M 89.26 326.16 
L 89.26 28.656315 
" clip-path="url(#p8ec77021b7)" style="fill: none; stroke-dasharray: 2.96,1.28; stroke-dashoffset: 0; stroke: #b0b0b0; stroke-opacity: 0.6; stroke-width: 0.8"/>
     </g>
     <g id="line2d_4">
      <g>
       <use xlink:href="#m5e49040d89" x="89.26" y="177.408158" style="stroke: #000000; stroke-width: 0.8"/>
      </g>
     </g>
     <g id="text_2">
      <!-- $\mathdefault{−4}$ -->
      <g transform="translate(76.942209 198.245154) scale(0.2 -0.2)">
       <defs>
        <path id="CMR17-34" d="M 2150 4122 
C 2150 4256 2144 4256 2029 4256 
L 128 1254 
L 128 1088 
L 1779 1088 
L 1779 457 
C 1779 224 1766 160 1318 160 
L 1197 160 
L 1197 0 
C 1402 0 1747 0 1965 0 
C 2182 0 2528 0 2733 0 
L 2733 160 
L 2611 160 
C 2163 160 2150 224 2150 457 
L 2150 1088 
L 2803 1088 
L 2803 1254 
L 2150 1254 
L 2150 4122 
z
M 1798 3703 
L 1798 1254 
L 256 1254 
L 1798 3703 
z
" transform="scale(0.015625)"/>
       </defs>
       <use xlink:href="#CMSY10-0" transform="scale(0.996264)"/>
       <use xlink:href="#CMR17-34" transform="translate(77.487468 0) scale(0.996264)"/>
      </g>
     </g>
    </g>
    <g id="xtick_3">
     <g id="line2d_5">
      <path d="M 124.17 326.16 
L 124.17 28.656315 
" clip-path="url(#p8ec77021b7)" style="fill: none; stroke-dasharray: 2.96,1.28; stroke-dashoffset: 0; stroke: #b0b0b0; stroke-opacity: 0.6; stroke-width: 0.8"/>
     </g>
     <g id="line2d_6">
      <g>
       <use xlink:href="#m5e49040d89" x="124.17" y="177.408158" style="stroke: #000000; stroke-width: 0.8"/>
      </g>
     </g>
     <g id="text_3">
      <!-- $\mathdefault{−3}$ -->
      <g transform="translate(111.852209 198.245154) scale(0.2 -0.2)">
       <defs>
        <path id="CMR17-33" d="M 1414 2157 
C 1984 2157 2234 1662 2234 1090 
C 2234 320 1824 25 1453 25 
C 1114 25 563 194 390 693 
C 422 680 454 680 486 680 
C 640 680 755 782 755 948 
C 755 1133 614 1216 486 1216 
C 378 1216 211 1165 211 926 
C 211 335 787 -128 1466 -128 
C 2176 -128 2720 430 2720 1085 
C 2720 1707 2208 2157 1600 2227 
C 2086 2328 2554 2756 2554 3329 
C 2554 3820 2048 4179 1472 4179 
C 890 4179 378 3829 378 3329 
C 378 3110 544 3072 627 3072 
C 762 3072 877 3155 877 3321 
C 877 3486 762 3569 627 3569 
C 602 3569 570 3569 544 3557 
C 730 3959 1235 4032 1459 4032 
C 1683 4032 2106 3925 2106 3320 
C 2106 3143 2080 2828 1862 2550 
C 1670 2304 1453 2304 1242 2284 
C 1210 2284 1062 2269 1037 2269 
C 992 2263 966 2257 966 2208 
C 966 2163 973 2157 1101 2157 
L 1414 2157 
z
" transform="scale(0.015625)"/>
       </defs>
       <use xlink:href="#CMSY10-0" transform="scale(0.996264)"/>
       <use xlink:href="#CMR17-33" transform="translate(77.487468 0) scale(0.996264)"/>
      </g>
     </g>
    </g>
    <g id="xtick_4">
     <g id="line2d_7">
      <path d="M 159.08 326.16 
L 159.08 28.656315 
" clip-path="url(#p8ec77021b7)" style="fill: none; stroke-dasharray: 2.96,1.28; stroke-dashoffset: 0; stroke: #b0b0b0; stroke-opacity: 0.6; stroke-width: 0.8"/>
     </g>
     <g id="line2d_8">
      <g>
       <use xlink:href="#m5e49040d89" x="159.08" y="177.408158" style="stroke: #000000; stroke-width: 0.8"/>
      </g>
     </g>
     <g id="text_4">
      <!-- $\mathdefault{−2}$ -->
      <g transform="translate(146.762209 198.245154) scale(0.2 -0.2)">
       <defs>
        <path id="CMR17-32" d="M 2669 989 
L 2554 989 
C 2490 536 2438 459 2413 420 
C 2381 369 1920 369 1830 369 
L 602 369 
C 832 619 1280 1072 1824 1597 
C 2214 1967 2669 2402 2669 3035 
C 2669 3790 2067 4224 1395 4224 
C 691 4224 262 3604 262 3030 
C 262 2780 448 2748 525 2748 
C 589 2748 781 2787 781 3010 
C 781 3207 614 3264 525 3264 
C 486 3264 448 3258 422 3245 
C 544 3790 915 4058 1306 4058 
C 1862 4058 2227 3617 2227 3035 
C 2227 2479 1901 2000 1536 1584 
L 262 146 
L 262 0 
L 2515 0 
L 2669 989 
z
" transform="scale(0.015625)"/>
       </defs>
       <use xlink:href="#CMSY10-0" transform="scale(0.996264)"/>
       <use xlink:href="#CMR17-32" transform="translate(77.487468 0) scale(0.996264)"/>
      </g>
     </g>
    </g>
    <g id="xtick_5">
     <g id="line2d_9">
      <path d="M 193.99 326.16 
L 193.99 28.656315 
" clip-path="url(#p8ec77021b7)" style="fill: none; stroke-dasharray: 2.96,1.28; stroke-dashoffset: 0; stroke: #b0b0b0; stroke-opacity: 0.6; stroke-width: 0.8"/>
     </g>
     <g id="line2d_10">
      <g>
       <use xlink:href="#m5e49040d89" x="193.99" y="177.408158" style="stroke: #000000; stroke-width: 0.8"/>
      </g>
     </g>
     <g id="text_5">
      <!-- $\mathdefault{−1}$ -->
      <g transform="translate(181.672209 198.245154) scale(0.2 -0.2)">
       <defs>
        <path id="CMR17-31" d="M 1702 4058 
C 1702 4192 1696 4192 1606 4192 
C 1357 3916 979 3827 621 3827 
C 602 3827 570 3827 563 3808 
C 557 3795 557 3782 557 3648 
C 755 3648 1088 3686 1344 3839 
L 1344 461 
C 1344 236 1331 160 781 160 
L 589 160 
L 589 0 
C 896 0 1216 0 1523 0 
C 1830 0 2150 0 2458 0 
L 2458 160 
L 2266 160 
C 1715 160 1702 230 1702 458 
L 1702 4058 
z
" transform="scale(0.015625)"/>
       </defs>
       <use xlink:href="#CMSY10-0" transform="scale(0.996264)"/>
       <use xlink:href="#CMR17-31" transform="translate(77.487468 0) scale(0.996264)"/>
      </g>
     </g>
    </g>
    <g id="xtick_6">
     <g id="line2d_11">
      <path d="M 263.81 326.16 
L 263.81 28.656315 
" clip-path="url(#p8ec77021b7)" style="fill: none; stroke-dasharray: 2.96,1.28; stroke-dashoffset: 0; stroke: #b0b0b0; stroke-opacity: 0.6; stroke-width: 0.8"/>
     </g>
     <g id="line2d_12">
      <g>
       <use xlink:href="#m5e49040d89" x="263.81" y="177.408158" style="stroke: #000000; stroke-width: 0.8"/>
      </g>
     </g>
     <g id="text_6">
      <!-- $\mathdefault{1}$ -->
      <g transform="translate(259.240952 198.245154) scale(0.2 -0.2)">
       <use xlink:href="#CMR17-31" transform="scale(0.996264)"/>
      </g>
     </g>
    </g>
    <g id="xtick_7">
     <g id="line2d_13">
      <path d="M 298.72 326.16 
L 298.72 28.656315 
" clip-path="url(#p8ec77021b7)" style="fill: none; stroke-dasharray: 2.96,1.28; stroke-dashoffset: 0; stroke: #b0b0b0; stroke-opacity: 0.6; stroke-width: 0.8"/>
     </g>
     <g id="line2d_14">
      <g>
       <use xlink:href="#m5e49040d89" x="298.72" y="177.408158" style="stroke: #000000; stroke-width: 0.8"/>
      </g>
     </g>
     <g id="text_7">
      <!-- $\mathdefault{2}$ -->
      <g transform="translate(294.150952 198.245154) scale(0.2 -0.2)">
       <use xlink:href="#CMR17-32" transform="scale(0.996264)"/>
      </g>
     </g>
    </g>
    <g id="xtick_8">
     <g id="line2d_15">
      <path d="M 333.63 326.16 
L 333.63 28.656315 
" clip-path="url(#p8ec77021b7)" style="fill: none; stroke-dasharray: 2.96,1.28; stroke-dashoffset: 0; stroke: #b0b0b0; stroke-opacity: 0.6; stroke-width: 0.8"/>
     </g>
     <g id="line2d_16">
      <g>
       <use xlink:href="#m5e49040d89" x="333.63" y="177.408158" style="stroke: #000000; stroke-width: 0.8"/>
      </g>
     </g>
     <g id="text_8">
      <!-- $\mathdefault{3}$ -->
      <g transform="translate(329.060952 198.245154) scale(0.2 -0.2)">
       <use xlink:href="#CMR17-33" transform="scale(0.996264)"/>
      </g>
     </g>
    </g>
    <g id="xtick_9">
     <g id="line2d_17">
      <path d="M 368.54 326.16 
L 368.54 28.656315 
" clip-path="url(#p8ec77021b7)" style="fill: none; stroke-dasharray: 2.96,1.28; stroke-dashoffset: 0; stroke: #b0b0b0; stroke-opacity: 0.6; stroke-width: 0.8"/>
     </g>
     <g id="line2d_18">
      <g>
       <use xlink:href="#m5e49040d89" x="368.54" y="177.408158" style="stroke: #000000; stroke-width: 0.8"/>
      </g>
     </g>
     <g id="text_9">
      <!-- $\mathdefault{4}$ -->
      <g transform="translate(363.970952 198.245154) scale(0.2 -0.2)">
       <use xlink:href="#CMR17-34" transform="scale(0.996264)"/>
      </g>
     </g>
    </g>
    <g id="xtick_10">
     <g id="line2d_19">
      <path d="M 403.45 326.16 
L 403.45 28.656315 
" clip-path="url(#p8ec77021b7)" style="fill: none; stroke-dasharray: 2.96,1.28; stroke-dashoffset: 0; stroke: #b0b0b0; stroke-opacity: 0.6; stroke-width: 0.8"/>
     </g>
     <g id="line2d_20">
      <g>
       <use xlink:href="#m5e49040d89" x="403.45" y="177.408158" style="stroke: #000000; stroke-width: 0.8"/>
      </g>
     </g>
     <g id="text_10">
      <!-- $\mathdefault{5}$ -->
      <g transform="translate(398.880952 198.245154) scale(0.2 -0.2)">
       <use xlink:href="#CMR17-35" transform="scale(0.996264)"/>
      </g>
     </g>
    </g>
    <g id="text_11">
     <!-- $x$ -->
     <g transform="translate(427.273188 219.957785) scale(0.2 -0.2)">
      <defs>
       <path id="CMMI12-78" d="M 3034 2606 
C 2829 2567 2752 2414 2752 2293 
C 2752 2139 2874 2088 2963 2088 
C 3155 2088 3290 2254 3290 2427 
C 3290 2695 2982 2816 2714 2816 
C 2323 2816 2106 2433 2048 2312 
C 1901 2816 1504 2816 1389 2816 
C 736 2816 390 1980 390 1839 
C 390 1814 416 1782 461 1782 
C 512 1782 525 1820 538 1846 
C 755 2555 1184 2689 1370 2689 
C 1658 2689 1715 2420 1715 2267 
C 1715 2127 1677 1980 1600 1673 
L 1382 798 
C 1286 415 1101 64 762 64 
C 730 64 570 64 435 147 
C 666 192 717 383 717 460 
C 717 588 621 664 499 664 
C 346 664 179 530 179 326 
C 179 57 480 -64 755 -64 
C 1062 -64 1280 179 1414 441 
C 1517 64 1837 -64 2074 -64 
C 2726 -64 3072 773 3072 913 
C 3072 945 3046 971 3008 971 
C 2950 971 2944 939 2925 888 
C 2752 326 2381 64 2093 64 
C 1869 64 1747 230 1747 492 
C 1747 632 1773 734 1875 1156 
L 2099 2024 
C 2195 2408 2413 2689 2707 2689 
C 2720 2689 2899 2689 3034 2606 
z
" transform="scale(0.015625)"/>
      </defs>
      <use xlink:href="#CMMI12-78" transform="scale(0.996264)"/>
     </g>
    </g>
   </g>
   <g id="matplotlib.axis_2">
    <g id="ytick_1">
     <g id="line2d_21">
      <path d="M 19.44 301.368026 
L 438.36 301.368026 
" clip-path="url(#p8ec77021b7)" style="fill: none; stroke-dasharray: 2.96,1.28; stroke-dashoffset: 0; stroke: #b0b0b0; stroke-opacity: 0.6; stroke-width: 0.8"/>
     </g>
     <g id="line2d_22">
      <defs>
       <path id="mb841f43b8b" d="M 0 0 
L -3.5 0 
" style="stroke: #000000; stroke-width: 0.8"/>
      </defs>
      <g>
       <use xlink:href="#mb841f43b8b" x="228.9" y="301.368026" style="stroke: #000000; stroke-width: 0.8"/>
      </g>
     </g>
     <g id="text_12">
      <!-- $\mathdefault{−5}$ -->
      <g transform="translate(197.264417 308.286525) scale(0.2 -0.2)">
       <use xlink:href="#CMSY10-0" transform="scale(0.996264)"/>
       <use xlink:href="#CMR17-35" transform="translate(77.487468 0) scale(0.996264)"/>
      </g>
     </g>
    </g>
    <g id="ytick_2">
     <g id="line2d_23">
      <path d="M 19.44 276.576053 
L 438.36 276.576053 
" clip-path="url(#p8ec77021b7)" style="fill: none; stroke-dasharray: 2.96,1.28; stroke-dashoffset: 0; stroke: #b0b0b0; stroke-opacity: 0.6; stroke-width: 0.8"/>
     </g>
     <g id="line2d_24">
      <g>
       <use xlink:href="#mb841f43b8b" x="228.9" y="276.576053" style="stroke: #000000; stroke-width: 0.8"/>
      </g>
     </g>
     <g id="text_13">
      <!-- $\mathdefault{−4}$ -->
      <g transform="translate(197.264417 283.494551) scale(0.2 -0.2)">
       <use xlink:href="#CMSY10-0" transform="scale(0.996264)"/>
       <use xlink:href="#CMR17-34" transform="translate(77.487468 0) scale(0.996264)"/>
      </g>
     </g>
    </g>
    <g id="ytick_3">
     <g id="line2d_25">
      <path d="M 19.44 251.784079 
L 438.36 251.784079 
" clip-path="url(#p8ec77021b7)" style="fill: none; stroke-dasharray: 2.96,1.28; stroke-dashoffset: 0; stroke: #b0b0b0; stroke-opacity: 0.6; stroke-width: 0.8"/>
     </g>
     <g id="line2d_26">
      <g>
       <use xlink:href="#mb841f43b8b" x="228.9" y="251.784079" style="stroke: #000000; stroke-width: 0.8"/>
      </g>
     </g>
     <g id="text_14">
      <!-- $\mathdefault{−3}$ -->
      <g transform="translate(197.264417 258.702577) scale(0.2 -0.2)">
       <use xlink:href="#CMSY10-0" transform="scale(0.996264)"/>
       <use xlink:href="#CMR17-33" transform="translate(77.487468 0) scale(0.996264)"/>
      </g>
     </g>
    </g>
    <g id="ytick_4">
     <g id="line2d_27">
      <path d="M 19.44 226.992105 
L 438.36 226.992105 
" clip-path="url(#p8ec77021b7)" style="fill: none; stroke-dasharray: 2.96,1.28; stroke-dashoffset: 0; stroke: #b0b0b0; stroke-opacity: 0.6; stroke-width: 0.8"/>
     </g>
     <g id="line2d_28">
      <g>
       <use xlink:href="#mb841f43b8b" x="228.9" y="226.992105" style="stroke: #000000; stroke-width: 0.8"/>
      </g>
     </g>
     <g id="text_15">
      <!-- $\mathdefault{−2}$ -->
      <g transform="translate(197.264417 233.910603) scale(0.2 -0.2)">
       <use xlink:href="#CMSY10-0" transform="scale(0.996264)"/>
       <use xlink:href="#CMR17-32" transform="translate(77.487468 0) scale(0.996264)"/>
      </g>
     </g>
    </g>
    <g id="ytick_5">
     <g id="line2d_29">
      <path d="M 19.44 202.200131 
L 438.36 202.200131 
" clip-path="url(#p8ec77021b7)" style="fill: none; stroke-dasharray: 2.96,1.28; stroke-dashoffset: 0; stroke: #b0b0b0; stroke-opacity: 0.6; stroke-width: 0.8"/>
     </g>
     <g id="line2d_30">
      <g>
       <use xlink:href="#mb841f43b8b" x="228.9" y="202.200131" style="stroke: #000000; stroke-width: 0.8"/>
      </g>
     </g>
     <g id="text_16">
      <!-- $\mathdefault{−1}$ -->
      <g transform="translate(197.264417 209.11863) scale(0.2 -0.2)">
       <use xlink:href="#CMSY10-0" transform="scale(0.996264)"/>
       <use xlink:href="#CMR17-31" transform="translate(77.487468 0) scale(0.996264)"/>
      </g>
     </g>
    </g>
    <g id="ytick_6">
     <g id="line2d_31">
      <path d="M 19.44 152.616184 
L 438.36 152.616184 
" clip-path="url(#p8ec77021b7)" style="fill: none; stroke-dasharray: 2.96,1.28; stroke-dashoffset: 0; stroke: #b0b0b0; stroke-opacity: 0.6; stroke-width: 0.8"/>
     </g>
     <g id="line2d_32">
      <g>
       <use xlink:href="#mb841f43b8b" x="228.9" y="152.616184" style="stroke: #000000; stroke-width: 0.8"/>
      </g>
     </g>
     <g id="text_17">
      <!-- $\mathdefault{1}$ -->
      <g transform="translate(212.761905 159.534682) scale(0.2 -0.2)">
       <use xlink:href="#CMR17-31" transform="scale(0.996264)"/>
      </g>
     </g>
    </g>
    <g id="ytick_7">
     <g id="line2d_33">
      <path d="M 19.44 127.82421 
L 438.36 127.82421 
" clip-path="url(#p8ec77021b7)" style="fill: none; stroke-dasharray: 2.96,1.28; stroke-dashoffset: 0; stroke: #b0b0b0; stroke-opacity: 0.6; stroke-width: 0.8"/>
     </g>
     <g id="line2d_34">
      <g>
       <use xlink:href="#mb841f43b8b" x="228.9" y="127.82421" style="stroke: #000000; stroke-width: 0.8"/>
      </g>
     </g>
     <g id="text_18">
      <!-- $\mathdefault{2}$ -->
      <g transform="translate(212.761905 134.742709) scale(0.2 -0.2)">
       <use xlink:href="#CMR17-32" transform="scale(0.996264)"/>
      </g>
     </g>
    </g>
    <g id="ytick_8">
     <g id="line2d_35">
      <path d="M 19.44 103.032236 
L 438.36 103.032236 
" clip-path="url(#p8ec77021b7)" style="fill: none; stroke-dasharray: 2.96,1.28; stroke-dashoffset: 0; stroke: #b0b0b0; stroke-opacity: 0.6; stroke-width: 0.8"/>
     </g>
     <g id="line2d_36">
      <g>
       <use xlink:href="#mb841f43b8b" x="228.9" y="103.032236" style="stroke: #000000; stroke-width: 0.8"/>
      </g>
     </g>
     <g id="text_19">
      <!-- $\mathdefault{3}$ -->
      <g transform="translate(212.761905 109.950735) scale(0.2 -0.2)">
       <use xlink:href="#CMR17-33" transform="scale(0.996264)"/>
      </g>
     </g>
    </g>
    <g id="ytick_9">
     <g id="line2d_37">
      <path d="M 19.44 78.240263 
L 438.36 78.240263 
" clip-path="url(#p8ec77021b7)" style="fill: none; stroke-dasharray: 2.96,1.28; stroke-dashoffset: 0; stroke: #b0b0b0; stroke-opacity: 0.6; stroke-width: 0.8"/>
     </g>
     <g id="line2d_38">
      <g>
       <use xlink:href="#mb841f43b8b" x="228.9" y="78.240263" style="stroke: #000000; stroke-width: 0.8"/>
      </g>
     </g>
     <g id="text_20">
      <!-- $\mathdefault{4}$ -->
      <g transform="translate(212.761905 85.158761) scale(0.2 -0.2)">
       <use xlink:href="#CMR17-34" transform="scale(0.996264)"/>
      </g>
     </g>
    </g>
    <g id="ytick_10">
     <g id="line2d_39">
      <path d="M 19.44 53.448289 
L 438.36 53.448289 
" clip-path="url(#p8ec77021b7)" style="fill: none; stroke-dasharray: 2.96,1.28; stroke-dashoffset: 0; stroke: #b0b0b0; stroke-opacity: 0.6; stroke-width: 0.8"/>
     </g>
     <g id="line2d_40">
      <g>
       <use xlink:href="#mb841f43b8b" x="228.9" y="53.448289" style="stroke: #000000; stroke-width: 0.8"/>
      </g>
     </g>
     <g id="text_21">
      <!-- $\mathdefault{5}$ -->
      <g transform="translate(212.761905 60.366787) scale(0.2 -0.2)">
       <use xlink:href="#CMR17-35" transform="scale(0.996264)"/>
      </g>
     </g>
    </g>
    <g id="text_22">
     <!-- $y$ -->
     <g transform="translate(183.751583 24.780682) scale(0.2 -0.2)">
      <defs>
       <path id="CMMI12-79" d="M 1683 -700 
C 1510 -939 1261 -1152 947 -1152 
C 870 -1152 563 -1152 467 -889 
C 486 -895 518 -895 531 -895 
C 723 -895 851 -729 851 -582 
C 851 -435 730 -384 634 -384 
C 531 -384 307 -458 307 -759 
C 307 -1071 582 -1286 947 -1286 
C 1587 -1286 2234 -700 2413 6 
L 3040 2485 
C 3046 2517 3059 2556 3059 2594 
C 3059 2689 2982 2753 2886 2753 
C 2829 2753 2694 2727 2643 2535 
L 2170 658 
C 2138 543 2138 530 2086 460 
C 1958 281 1747 64 1440 64 
C 1082 64 1050 415 1050 588 
C 1050 952 1222 1443 1395 1903 
C 1466 2088 1504 2178 1504 2305 
C 1504 2574 1312 2816 998 2816 
C 410 2816 173 1890 173 1839 
C 173 1814 198 1782 243 1782 
C 301 1782 307 1807 333 1897 
C 486 2433 730 2689 979 2689 
C 1037 2689 1146 2689 1146 2478 
C 1146 2312 1075 2127 979 1884 
C 666 1047 666 837 666 683 
C 666 77 1101 -64 1421 -64 
C 1606 -64 1837 -6 2061 230 
L 2067 224 
C 1971 -147 1907 -392 1683 -700 
z
" transform="scale(0.015625)"/>
      </defs>
      <use xlink:href="#CMMI12-79" transform="scale(0.996264)"/>
     </g>
    </g>
   </g>
   <g id="line2d_41">
    <defs>
     <path id="mdd116aab54" d="M 3 0 
L -3 -3 
L -3 3 
z
" style="stroke: #000000; stroke-linejoin: miter"/>
    </defs>
    <g>
     <use xlink:href="#mdd116aab54" x="438.36" y="177.408158" style="stroke: #000000; stroke-linejoin: miter"/>
    </g>
   </g>
   <g id="line2d_42">
    <defs>
     <path id="ma20f5144d1" d="M 0 -3 
L -3 3 
L 3 3 
z
" style="stroke: #000000; stroke-linejoin: miter"/>
    </defs>
    <g>
     <use xlink:href="#ma20f5144d1" x="228.9" y="28.656315" style="stroke: #000000; stroke-linejoin: miter"/>
    </g>
   </g>
   <g id="line2d_43">
    <path d="M 263.81 177.408158 
L 263.661952 175.127332 
L 263.219062 172.865852 
L 262.485088 170.642898 
L 261.466255 168.477326 
L 260.171204 166.387502 
L 258.61092 164.391152 
L 256.798635 162.505209 
L 254.749723 160.745668 
L 252.481561 159.127454 
L 250.013386 157.664292 
L 247.366134 156.368591 
L 244.562257 155.251343 
L 241.625537 154.322022 
L 238.580883 153.588511 
L 235.454118 153.057031 
L 232.271763 152.732091 
L 229.06081 152.616447 
L 225.848493 152.711079 
L 222.662058 153.015184 
L 219.528531 153.526184 
L 216.474491 154.239743 
L 213.52584 155.149811 
L 210.707589 156.248668 
L 208.04364 157.526993 
L 205.556589 158.973945 
L 203.26753 160.577251 
L 201.195879 162.323312 
L 199.359206 164.197318 
L 197.77309 166.183374 
L 196.450983 168.264637 
L 195.4041 170.423451 
L 194.64132 172.641509 
L 194.169112 174.899995 
L 193.991482 177.179755 
L 194.109935 179.461453 
L 194.523469 181.725735 
L 195.228574 183.953396 
L 196.219271 186.125542 
L 197.487156 188.223751 
L 199.021477 190.230224 
L 200.809218 192.127944 
L 202.835218 193.900815 
L 205.082291 195.5338 
L 207.53138 197.013049 
L 210.161712 198.326014 
L 212.950976 199.46156 
L 215.875515 200.410056 
L 218.910524 201.163455 
L 222.030262 201.715369 
L 225.208266 202.061116 
L 228.417583 202.197764 
L 231.630991 202.124153 
L 234.821236 201.840908 
L 237.961259 201.350432 
L 241.024426 200.656884 
L 243.984758 199.766147 
L 246.817145 198.685775 
L 249.497564 197.424933 
L 252.00328 195.994314 
L 254.313041 194.406053 
L 256.407255 192.67362 
L 258.268161 190.811711 
L 259.879974 188.836115 
L 261.229024 186.763592 
L 262.303868 184.611718 
L 263.09539 182.398745 
L 263.596877 180.143444 
L 263.804074 177.864943 
L 263.715225 175.582567 
L 263.331083 173.315676 
L 262.654906 171.083496 
L 261.69243 168.90496 
L 260.451817 166.798545 
L 258.943591 164.782119 
L 257.180544 162.872783 
L 255.177629 161.086731 
L 252.951835 159.439114 
L 250.52204 157.943905 
L 247.908853 156.613786 
L 245.134438 155.460039 
L 242.222327 154.49245 
L 239.19722 153.719225 
L 236.084775 153.146923 
L 232.911391 152.780399 
L 229.703983 152.622759 
L 226.489756 152.675343 
L 223.295972 152.937703 
L 220.14972 153.407615 
L 217.077685 154.081093 
L 214.105924 154.952424 
L 211.259642 156.014218 
L 208.56298 157.25747 
L 206.038812 158.671634 
L 203.708545 160.244716 
L 201.591945 161.963373 
L 199.706965 163.813029 
L 198.069591 165.777995 
L 196.693713 167.841605 
L 195.590999 169.986355 
L 194.770802 172.194055 
L 194.24008 174.445979 
L 194.003333 176.723028 
L 194.06257 179.005888 
L 194.417288 181.275197 
L 195.064479 183.511706 
L 195.998653 185.696447 
L 197.211887 187.810889 
L 198.693891 189.837097 
L 200.432094 191.757887 
L 202.411754 193.556967 
L 204.61608 195.219077 
L 207.026375 196.73012 
L 209.622196 198.077279 
L 212.381526 199.249129 
L 215.280961 200.23573 
L 218.295909 201.028714 
L 221.400798 201.621355 
L 224.569292 202.008627 
L 227.774519 202.187244 
L 230.989292 202.155692 
L 234.186344 201.914238 
L 237.338558 201.464931 
L 240.4192 200.811581 
L 243.402138 199.95973 
L 246.262074 198.916603 
L 248.974749 197.691047 
L 251.517156 196.293458 
L 253.867731 194.735688 
L 256.006536 193.030952 
L 257.915432 191.193707 
L 259.578226 189.239538 
L 260.980817 187.185018 
L 262.111308 185.047573 
L 262.960109 182.845333 
L 263.520022 180.596976 
L 263.786298 178.321573 
L 263.756678 176.038422 
L 263.431414 173.766889 
L 262.813264 171.526241 
L 261.907472 169.335481 
L 260.721719 167.213191 
L 259.266064 165.177372 
L 257.552852 163.245291 
L 255.596615 161.433336 
L 253.413944 159.756874 
L 251.023353 158.230126 
L 248.445119 156.86604 
L 245.701108 155.676187 
L 242.814595 154.670658 
L 239.810062 153.857982 
L 236.712993 153.245052 
L 233.549657 152.837067 
L 230.346883 152.637487 
L 227.131838 152.648004 
L 223.931789 152.86853 
L 220.773879 153.297195 
L 217.684893 153.930362 
L 214.691031 154.76266 
L 211.817684 155.787032 
L 209.089225 156.994788 
L 206.528796 158.375684 
L 204.158113 159.918008 
L 201.997283 161.608679 
L 200.064635 163.433356 
L 198.37656 165.376564 
L 196.947376 167.42182 
L 195.789205 169.551778 
L 194.911871 171.748371 
L 194.322814 173.992969 
L 194.027032 176.266534 
L 194.027032 178.549781 
L 194.322814 180.823346 
L 194.911871 183.067944 
L 195.789205 185.264537 
L 196.947376 187.394495 
L 198.37656 189.439751 
L 200.064635 191.382959 
L 201.997283 193.207636 
L 204.158113 194.898307 
L 206.528796 196.440631 
L 209.089225 197.821528 
L 211.817684 199.029283 
L 214.691031 200.053655 
L 217.684893 200.885954 
L 220.773879 201.51912 
L 223.931789 201.947785 
L 227.131838 202.168311 
L 230.346883 202.178829 
L 233.549657 201.979248 
L 236.712993 201.571263 
L 239.810062 200.958333 
L 242.814595 200.145657 
L 245.701108 199.140129 
L 248.445119 197.950275 
L 251.023353 196.58619 
L 253.413944 195.059441 
L 255.596615 193.38298 
L 257.552852 191.571024 
L 259.266064 189.638943 
L 260.721719 187.603124 
L 261.907472 185.480835 
L 262.813264 183.290075 
L 263.431414 181.049426 
L 263.756678 178.777893 
L 263.786298 176.494742 
L 263.520022 174.219339 
L 262.960109 171.970982 
L 262.111308 169.768742 
L 260.980817 167.631298 
L 259.578226 165.576777 
L 257.915432 163.622608 
L 256.006536 161.785363 
L 253.867731 160.080627 
L 251.517156 158.522857 
L 248.974749 157.125268 
L 246.262074 155.899712 
L 243.402138 154.856585 
L 240.4192 154.004734 
L 237.338558 153.351384 
L 234.186344 152.902077 
L 230.989292 152.660623 
L 227.774519 152.629071 
L 224.569292 152.807689 
L 221.400798 153.19496 
L 218.295909 153.787601 
L 215.280961 154.580585 
L 212.381526 155.567186 
L 209.622196 156.739036 
L 207.026375 158.086195 
L 204.61608 159.597238 
L 202.411754 161.259348 
L 200.432094 163.058428 
L 198.693891 164.979218 
L 197.211887 167.005427 
L 195.998653 169.119868 
L 195.064479 171.304609 
L 194.417288 173.541119 
L 194.06257 175.810427 
L 194.003333 178.093287 
L 194.24008 180.370336 
L 194.770802 182.62226 
L 195.590999 184.82996 
L 196.693713 186.974711 
L 198.069591 189.03832 
L 199.706965 191.003286 
L 201.591945 192.852942 
L 203.708545 194.571599 
L 206.038812 196.144681 
L 208.56298 197.558845 
L 211.259642 198.802097 
L 214.105924 199.863891 
L 217.077685 200.735223 
L 220.14972 201.4087 
L 223.295972 201.878612 
L 226.489756 202.140972 
L 229.703983 202.193556 
L 232.911391 202.035917 
L 236.084775 201.669392 
L 239.19722 201.09709 
L 242.222327 200.323865 
L 245.134438 199.356276 
L 247.908853 198.202529 
L 250.52204 196.87241 
L 252.951835 195.377201 
L 255.177629 193.729584 
L 257.180544 191.943533 
L 258.943591 190.034196 
L 260.451817 188.01777 
L 261.69243 185.911355 
L 262.654906 183.732819 
L 263.331083 181.500639 
L 263.715225 179.233748 
L 263.804074 176.951372 
L 263.596877 174.672871 
L 263.09539 172.41757 
L 262.303868 170.204597 
L 261.229024 168.052724 
L 259.879974 165.9802 
L 258.268161 164.004605 
L 256.407255 162.142695 
L 254.313041 160.410262 
L 252.00328 158.822001 
L 249.497564 157.391382 
L 246.817145 156.13054 
L 243.984758 155.050169 
L 241.024426 154.159431 
L 237.961259 153.465883 
L 234.821236 152.975407 
L 231.630991 152.692162 
L 228.417583 152.618551 
L 225.208266 152.755199 
L 222.030262 153.100946 
L 218.910524 153.65286 
L 215.875515 154.40626 
L 212.950976 155.354755 
L 210.161712 156.490301 
L 207.53138 157.803266 
L 205.082291 159.282515 
L 202.835218 160.9155 
L 200.809218 162.688371 
L 199.021477 164.586091 
L 197.487156 166.592565 
L 196.219271 168.690773 
L 195.228574 170.862919 
L 194.523469 173.090581 
L 194.109935 175.354863 
L 193.991482 177.63656 
L 194.169112 179.91632 
L 194.64132 182.174807 
L 195.4041 184.392864 
L 196.450983 186.551679 
L 197.77309 188.632941 
L 199.359206 190.618997 
L 201.195879 192.493004 
L 203.26753 194.239064 
L 205.556589 195.84237 
L 208.04364 197.289322 
L 210.707589 198.567647 
L 213.52584 199.666504 
L 216.474491 200.576572 
L 219.528531 201.290132 
L 222.662058 201.801131 
L 225.848493 202.105237 
L 229.06081 202.199868 
L 232.271763 202.084224 
L 235.454118 201.759284 
L 238.580883 201.227804 
L 241.625537 200.494293 
L 244.562257 199.564973 
L 247.366134 198.447724 
L 250.013386 197.152023 
L 252.481561 195.688861 
L 254.749723 194.070647 
L 256.798635 192.311106 
L 258.61092 190.425163 
L 260.171204 188.428813 
L 261.466255 186.33899 
L 262.485088 184.173417 
L 263.219062 181.950463 
L 263.661952 179.688983 
L 263.81 177.408158 
L 263.81 177.408158 
" clip-path="url(#p8ec77021b7)" style="fill: none; stroke: #000000; stroke-width: 2.5; stroke-linecap: square"/>
   </g>
   <g id="patch_3">
    <path d="M 228.9 326.16 
L 228.9 28.656315 
" style="fill: none; stroke: #000000; stroke-width: 0.8; stroke-linejoin: miter; stroke-linecap: square"/>
   </g>
   <g id="patch_4">
    <path d="M 438.36 326.16 
L 438.36 28.656315 
" style="fill: none"/>
   </g>
   <g id="patch_5">
    <path d="M 19.44 177.408158 
L 438.36 177.408158 
" style="fill: none; stroke: #000000; stroke-width: 0.8; stroke-linejoin: miter; stroke-linecap: square"/>
   </g>
   <g id="patch_6">
    <path d="M 19.44 28.656315 
L 438.36 28.656315 
" style="fill: none"/>
   </g>
  </g>
 </g>
 <defs>
  <clipPath id="p8ec77021b7">
   <rect x="19.44" y="28.656315" width="418.92" height="297.503685"/>
  </clipPath>
 </defs>
</svg>
