<?xml version="1.0" encoding="utf-8" standalone="no"?>
<!DOCTYPE svg PUBLIC "-//W3C//DTD SVG 1.1//EN"
  "http://www.w3.org/Graphics/SVG/1.1/DTD/svg11.dtd">
<svg xmlns:xlink="http://www.w3.org/1999/xlink" width="460.8pt" height="345.6pt" viewBox="0 0 460.8 345.6" xmlns="http://www.w3.org/2000/svg" version="1.1">
 <metadata>
  <rdf:RDF xmlns:dc="http://purl.org/dc/elements/1.1/" xmlns:cc="http://creativecommons.org/ns#" xmlns:rdf="http://www.w3.org/1999/02/22-rdf-syntax-ns#">
   <cc:Work>
    <dc:type rdf:resource="http://purl.org/dc/dcmitype/StillImage"/>
    <dc:date>2026-03-24T23:49:27.435410</dc:date>
    <dc:format>image/svg+xml</dc:format>
    <dc:creator>
     <cc:Agent>
      <dc:title>Matplotlib v3.10.8, https://matplotlib.org/</dc:title>
     </cc:Agent>
    </dc:creator>
   </cc:Work>
  </rdf:RDF>
 </metadata>
 <defs>
  <style type="text/css">*{stroke-linejoin: round; stroke-linecap: butt}</style>
 </defs>
 <g id="figure_1">
  <g id="patch_1">
   <path d="M 0 345.6 
L 460.8 345.6 
L 460.8 0 
L 0 0 
L 0 345.6 
z
" style="fill: none"/>
  </g>
  <g id="axes_1">
   <g id="patch_2">
    <path d="M 10.8 334.8 
L 447 334.8 
L 447 20.016315 
L 10.8 20.016315 
L 10.8 334.8 
z
" style="fill: none"/>
   </g>
   <g id="matplotlib.axis_1">
    <g id="text_1">
     <!-- $x$ -->
     <g transform="translate(435.913188 195.245154) scale(0.2 -0.2)">
      <defs>
       <path id="CMMI12-78" d="M 3034 2606 
C 2829 2567 2752 2414 2752 2293 
C 2752 2139 2874 2088 2963 2088 
C 3155 2088 3290 2254 3290 2427 
C 3290 2695 2982 2816 2714 2816 
C 2323 2816 2106 2433 2048 2312 
C 1901 2816 1504 2816 1389 2816 
C 736 2816 390 1980 390 1839 
C 390 1814 416 1782 461 1782 
C 512 1782 525 1820 538 1846 
C 755 2555 1184 2689 1370 2689 
C 1658 2689 1715 2420 1715 2267 
C 1715 2127 1677 1980 1600 1673 
L 1382 798 
C 1286 415 1101 64 762 64 
C 730 64 570 64 435 147 
C 666 192 717 383 717 460 
C 717 588 621 664 499 664 
C 346 664 179 530 179 326 
C 179 57 480 -64 755 -64 
C 1062 -64 1280 179 1414 441 
C 1517 64 1837 -64 2074 -64 
C 2726 -64 3072 773 3072 913 
C 3072 945 3046 971 3008 971 
C 2950 971 2944 939 2925 888 
C 2752 326 2381 64 2093 64 
C 1869 64 1747 230 1747 492 
C 1747 632 1773 734 1875 1156 
L 2099 2024 
C 2195 2408 2413 2689 2707 2689 
C 2720 2689 2899 2689 3034 2606 
z
" transform="scale(0.015625)"/>
      </defs>
      <use xlink:href="#CMMI12-78" transform="scale(0.996264)"/>
     </g>
    </g>
   </g>
   <g id="matplotlib.axis_2">
    <g id="text_2">
     <!-- $y$ -->
     <g transform="translate(215.387165 16.140682) scale(0.2 -0.2)">
      <defs>
       <path id="CMMI12-79" d="M 1683 -700 
C 1510 -939 1261 -1152 947 -1152 
C 870 -1152 563 -1152 467 -889 
C 486 -895 518 -895 531 -895 
C 723 -895 851 -729 851 -582 
C 851 -435 730 -384 634 -384 
C 531 -384 307 -458 307 -759 
C 307 -1071 582 -1286 947 -1286 
C 1587 -1286 2234 -700 2413 6 
L 3040 2485 
C 3046 2517 3059 2556 3059 2594 
C 3059 2689 2982 2753 2886 2753 
C 2829 2753 2694 2727 2643 2535 
L 2170 658 
C 2138 543 2138 530 2086 460 
C 1958 281 1747 64 1440 64 
C 1082 64 1050 415 1050 588 
C 1050 952 1222 1443 1395 1903 
C 1466 2088 1504 2178 1504 2305 
C 1504 2574 1312 2816 998 2816 
C 410 2816 173 1890 173 1839 
C 173 1814 198 1782 243 1782 
C 301 1782 307 1807 333 1897 
C 486 2433 730 2689 979 2689 
C 1037 2689 1146 2689 1146 2478 
C 1146 2312 1075 2127 979 1884 
C 666 1047 666 837 666 683 
C 666 77 1101 -64 1421 -64 
C 1606 -64 1837 -6 2061 230 
L 2067 224 
C 1971 -147 1907 -392 1683 -700 
z
" transform="scale(0.015625)"/>
      </defs>
      <use xlink:href="#CMMI12-79" transform="scale(0.996264)"/>
     </g>
    </g>
   </g>
   <g id="line2d_1">
    <defs>
     <path id="m6c3cc634cc" d="M 3 0 
L -3 -3 
L -3 3 
z
" style="stroke: #000000; stroke-linejoin: miter"/>
    </defs>
    <g>
     <use xlink:href="#m6c3cc634cc" x="447" y="177.408158" style="stroke: #000000; stroke-linejoin: miter"/>
    </g>
   </g>
   <g id="line2d_2">
    <defs>
     <path id="m3c7bfbd06d" d="M 0 -3 
L -3 3 
L 3 3 
z
" style="stroke: #000000; stroke-linejoin: miter"/>
    </defs>
    <g>
     <use xlink:href="#m3c7bfbd06d" x="228.9" y="20.016315" style="stroke: #000000; stroke-linejoin: miter"/>
    </g>
   </g>
   <g id="line2d_3">
    <path d="M 228.9 158.566208 
L 230.245276 157.666025 
L 231.959016 155.016672 
L 234.381179 150.768816 
L 237.796551 145.164001 
L 242.411634 138.52089 
L 248.33659 131.217149 
L 255.573444 123.668032 
L 264.011347 116.302929 
L 273.429259 109.541237 
L 283.505985 103.768978 
L 293.837003 99.317502 
L 303.957116 96.445525 
L 313.367599 95.325522 
L 321.566213 96.035235 
L 328.078266 98.554775 
L 332.486835 102.769423 
L 334.46029 108.477933 
L 333.775391 115.405783 
L 330.334516 123.222558 
L 324.175871 131.562367 
L 315.476004 140.046068 
L 304.544327 148.303927 
L 291.809895 155.997347 
L 277.801098 162.838369 
L 263.119379 168.605757 
L 248.408442 173.156735 
L 234.320682 176.433678 
L 221.482756 178.465393 
L 210.46226 179.362937 
L 201.737445 179.310285 
L 195.671693 178.550428 
L 192.494258 177.367817 
L 192.288362 176.068247 
L 194.987345 174.957451 
L 200.379088 174.319754 
L 208.118449 174.398128 
L 217.746981 175.376902 
L 228.718786 177.368227 
L 240.431007 180.403162 
L 252.257181 184.427953 
L 263.58153 189.305792 
L 273.83221 194.823963 
L 282.511616 200.705981 
L 289.222015 206.628021 
L 293.68508 212.238641 
L 295.75423 217.180627 
L 295.419166 221.113633 
L 292.802399 223.736235 
L 288.148097 224.806044 
L 281.803983 224.156635 
L 274.197468 221.71023 
L 265.807499 217.48531 
L 257.133893 211.598654 
L 248.666003 204.261612 
L 240.852666 195.770767 
L 234.075219 186.493486 
L 228.625219 176.849143 
L 224.688183 167.287096 
L 222.334301 158.262658 
L 221.516622 150.212449 
L 222.076789 143.530554 
L 223.75789 138.546868 
L 226.223589 135.508887 
L 229.082306 134.568008 
L 231.914888 135.77113 
L 234.30404 139.05805 
L 235.863628 144.264806 
L 236.266014 151.132774 
L 235.265676 159.322979 
L 232.717621 168.434801 
L 228.58938 178.027974 
L 222.965814 187.646606 
L 216.046352 196.843825 
L 208.134796 205.205637 
L 199.622248 212.372603 
L 190.96416 218.058133 
L 182.652878 222.062329 
L 175.187321 224.280645 
L 169.041631 224.706895 
L 164.634714 223.430499 
L 162.302536 220.628204 
L 162.2749 216.550815 
L 164.658154 211.505814 
L 169.424967 205.836925 
L 176.411855 199.901915 
L 185.324701 194.04998 
L 195.75205 188.60009 
L 207.185466 183.821618 
L 219.045833 179.918402 
L 230.714129 177.017192 
L 241.564913 175.161165 
L 251.000603 174.308853 
L 258.484581 174.338533 
L 263.571189 175.057756 
L 265.930895 176.217409 
L 265.369161 177.529391 
L 261.8379 178.686812 
L 255.43887 179.385418 
L 246.418801 179.344908 
L 235.156522 178.328794 
L 222.142846 176.161562 
L 207.954372 172.74204 
L 193.222714 168.052115 
L 178.600936 162.160244 
L 164.729122 155.219481 
L 152.201057 147.460135 
L 141.533899 139.177441 
L 133.142578 130.714988 
L 127.320321 122.44488 
L 124.226369 114.745811 
L 123.881502 107.980382 
L 126.171533 102.473038 
L 130.858448 98.489954 
L 137.598435 96.222122 
L 145.965626 95.772674 
L 155.480052 97.149247 
L 165.638073 100.261884 
L 175.943419 104.926651 
L 185.936938 110.874796 
L 195.223265 117.766948 
L 203.492817 125.211563 
L 210.537816 132.786545 
L 216.261426 140.062801 
L 220.679506 146.628364 
L 223.914964 152.11166 
L 226.185123 156.20258 
L 227.782962 158.670103 
L 229.053477 159.375449 
L 230.366683 158.279985 
L 232.08901 155.447416 
L 234.554929 151.040142 
L 238.040641 145.309984 
L 242.741517 138.583832 
L 248.754774 131.245057 
L 256.068521 123.711764 
L 264.557939 116.413188 
L 273.988901 109.765576 
L 284.028895 104.148997 
L 294.26464 99.886401 
L 304.225385 97.226146 
L 313.410501 96.328998 
L 321.319735 97.260323 
L 327.484264 99.9879 
L 331.496688 104.38543 
L 333.038081 110.241495 
L 331.900435 117.273377 
L 328.003055 125.144886 
L 321.401851 133.487076 
L 312.290841 141.920597 
L 300.995695 150.078317 
L 287.959572 157.626843 
L 273.722005 164.285655 
L 258.89196 169.842694 
L 244.116599 174.165505 
L 230.047494 177.207265 
L 217.306227 179.007376 
L 206.451345 179.68662 
L 197.948571 179.437213 
L 192.146 178.508399 
L 189.255691 177.188508 
L 189.342749 175.784605 
L 192.3225 174.601023 
L 197.965941 173.918117 
L 205.91313 173.972584 
L 215.693738 174.940593 
L 226.753576 176.924777 
L 238.485534 179.945952 
L 250.263163 183.940066 
L 261.474937 188.760648 
L 271.557233 194.186601 
L 280.024143 199.934928 
L 286.49241 205.677625 
L 290.700108 211.06174 
L 292.518033 215.731393 
L 291.953237 219.350413 
L 289.14456 221.624224 
L 284.350564 222.319624 
L 277.930629 221.281236 
L 270.320462 218.443592 
L 262.003537 213.838071 
L 253.480221 207.59422 
L 245.236513 199.935305 
L 237.714266 191.168301 
L 231.284707 181.668848 
L 226.226845 171.862008 
L 222.712036 162.199912 
L 220.795608 153.137578 
L 220.416003 145.10828 
L 221.401422 138.499906 
L 223.48352 133.633665 
L 226.317246 130.746384 
L 229.505537 129.977433 
L 232.627324 131.361025 
L 235.267034 134.824352 
L 237.043757 140.191663 
L 237.638205 147.194044 
L 236.81576 155.484329 
L 234.44414 164.656277 
L 230.504537 174.266894 
L 225.095482 183.860606 
L 218.429144 192.993879 
L 210.820235 201.25888 
L 202.668144 208.304787 
L 194.433343 213.855577 
L 186.609481 217.723256 
L 179.692835 219.815825 
L 174.150969 220.139564 
L 170.392523 218.795572 
L 168.739984 215.970815 
L 169.407132 211.924299 
L 172.482588 206.969235 
L 177.920528 201.452312 
L 185.539211 195.73137 
L 195.027503 190.152826 
L 205.959101 185.030239 
L 217.813708 180.625305 
L 230.003991 177.132419 
L 241.906794 174.667724 
L 252.896841 173.263291 
L 262.380977 172.866733 
L 269.830993 173.346265 
L 274.81312 174.500834 
L 277.01248 176.074692 
L 276.251085 177.775453 
L 272.498325 179.294518 
L 265.87333 180.328562 
L 256.63908 180.600742 
L 245.18858 179.880288 
L 232.023922 177.99925 
L 217.729428 174.865324 
L 202.940434 170.46995 
L 188.309517 164.891145 
L 174.4721 158.290853 
L 162.013403 150.906947 
L 151.438637 143.04034 
L 143.148084 135.037939 
L 137.418489 127.272486 
L 134.391725 120.120469 
L 134.071319 113.939441 
L 136.326929 109.046141 
L 140.906406 105.696711 
L 147.4546 104.070274 
L 155.537727 104.256848 
L 164.671725 106.250387 
L 174.352872 109.947406 
L 184.088762 115.151304 
L 193.427768 121.582196 
L 201.985205 128.891702 
L 209.464641 136.681847 
L 215.673099 144.52701 
L 220.529288 151.997631 
L 224.064422 158.684301 
L 226.41566 164.220845 
L 228.558088 170.715642 
L 229.00355 171.325125 
L 229.522206 170.106691 
L 230.480131 167.135841 
L 232.208083 162.585992 
L 234.975571 156.718537 
L 238.968863 149.867911 
L 244.2744 142.422554 
L 250.868693 134.802859 
L 258.615419 127.437428 
L 267.26996 120.739002 
L 276.4912 115.081479 
L 285.859908 110.779343 
L 294.90264 108.07071 
L 303.119761 107.104937 
L 310.015882 107.935508 
L 315.130888 110.518553 
L 318.06964 114.717068 
L 318.528538 120.310516 
L 316.317271 127.0092 
L 311.374362 134.472512 
L 303.775505 142.329927 
L 293.73407 150.203464 
L 281.593643 157.73024 
L 267.812943 164.583756 
L 252.943894 170.492649 
L 237.604054 175.255763 
L 222.444947 178.752678 
L 208.118089 180.949065 
L 195.240639 181.896593 
L 184.362654 181.72741 
L 175.93783 180.643598 
L 170.299412 178.902263 
L 167.642677 176.797217 
L 168.014986 174.638415 
L 171.314 172.730432 
L 177.294137 171.351332 
L 185.580911 170.733273 
L 195.692297 171.046055 
L 207.065898 172.384657 
L 219.090316 174.761575 
L 231.138922 178.104457 
L 242.60407 182.259209 
L 252.929773 186.998444 
L 261.640999 192.034758 
L 268.367891 197.038075 
L 272.863589 201.656013 
L 275.014662 205.536045 
L 274.843636 208.348117 
L 272.503561 209.806327 
L 268.265026 209.688352 
L 262.496504 207.851393 
L 255.639256 204.24365 
L 248.17839 198.910564 
L 240.611845 191.995421 
L 233.419211 183.734174 
L 227.032281 174.444768 
L 221.809109 164.511513 
L 218.013128 154.365383 
L 215.798573 144.461356 
L 215.203033 135.254093 
L 216.147551 127.173353 
L 218.444201 120.600561 
L 221.810612 115.847903 
L 225.890504 113.141147 
L 230.278902 112.607194 
L 234.55043 114.267098 
L 238.288899 118.034938 
L 241.116299 123.722631 
L 242.719369 131.050389 
L 242.872067 139.662218 
L 241.452479 149.145552 
L 238.453091 159.053881 
L 233.983732 168.931064 
L 228.266937 178.335904 
L 221.625971 186.865588 
L 214.466197 194.17663 
L 207.25087 200.002133 
L 200.472812 204.164406 
L 194.623668 206.582233 
L 190.162619 207.272451 
L 187.486448 206.345773 
L 186.902817 203.997206 
L 188.608411 200.491669 
L 192.673344 196.145737 
L 199.032827 191.306653 
L 207.486701 186.329896 
L 217.706959 181.556689 
L 229.252893 177.2928 
L 241.593066 173.789934 
L 254.1329 171.230824 
L 266.246301 169.718895 
L 277.30954 169.273123 
L 286.735433 169.828347 
L 294.005841 171.240993 
L 298.700633 173.299819 
L 300.521393 175.740974 
L 299.308536 178.26644 
L 295.050797 180.56466 
L 287.886559 182.332077 
L 278.096939 183.294224 
L 266.091019 183.225025 
L 252.384087 181.963118 
L 237.570143 179.424137 
L 222.290253 175.608181 
L 207.198581 170.601972 
L 192.928054 164.575535 
L 180.057608 157.773562 
L 169.082896 150.501956 
L 160.392086 143.110354 
L 154.2481 135.971651 
L 150.778234 129.459775 
L 149.971672 123.927036 
L 151.684931 119.682436 
L 155.654806 116.972255 
L 161.517939 115.964113 
L 168.835754 116.735504 
L 177.123194 119.267509 
L 185.879473 123.444136 
L 194.618947 129.05736 
L 202.900254 135.8176 
L 210.351933 143.369078 
L 216.693023 151.309169 
L 221.747423 159.210631 
L 225.451194 166.645442 
L 227.852434 173.208839 
L 229.103813 178.542169 
L 229.448296 182.3532 
L 229.199023 184.432727 
L 228.714654 184.666466 
L 228.371794 183.041567 
L 228.536253 179.647342 
L 229.535006 174.670184 
L 231.630648 168.382951 
L 235.000009 161.129473 
L 239.71831 153.305048 
L 245.749924 145.334117 
L 252.946393 137.646381 
L 261.05189 130.65279 
L 269.715874 124.722781 
L 278.512227 120.164097 
L 286.963755 117.206338 
L 294.570598 115.989196 
L 300.840847 116.556018 
L 305.3215 118.853042 
L 307.627882 122.734295 
L 307.469679 127.971826 
L 304.671988 134.270613 
L 299.190013 141.287205 
L 291.11644 148.65097 
L 280.680956 155.98663 
L 268.241806 162.936724 
L 254.26981 169.18264 
L 239.325658 174.462948 
L 224.031742 178.587951 
L 209.04011 181.449574 
L 194.998334 183.026052 
L 182.51527 183.381132 
L 172.128654 182.657904 
L 164.276407 181.067652 
L 159.273313 178.874459 
L 157.294405 176.37654 
L 158.36603 173.885475 
L 162.365103 171.70466 
L 169.026599 170.108322 
L 177.958827 169.322419 
L 188.665616 169.508632 
L 200.574102 170.752467 
L 213.066519 173.056226 
L 225.514145 176.337324 
L 237.311436 180.432083 
L 247.908397 185.104808 
L 256.839336 190.061628 
L 263.746364 194.968279 
L 268.39635 199.470763 
L 270.690392 203.217651 
L 270.665359 205.882651 
L 268.487485 207.186093 
L 264.438514 206.913975 
L 258.89529 204.93341 
L 252.304105 201.203483 
L 245.151403 195.780816 
L 237.932647 188.819446 
L 231.121264 180.56495 
L 225.139547 171.343119 
L 220.333272 161.543773 
L 216.951556 151.600635 
L 215.133131 141.968393 
L 214.899838 133.09828 
L 216.157681 125.413556 
L 218.705305 119.28634 
L 222.249344 115.017101 
L 226.425617 112.81804 
L 230.824825 112.801297 
L 235.021107 114.97269 
L 238.601652 119.231349 
L 241.195494 125.375259 
L 242.499651 133.112399 
L 242.30097 142.076819 
L 240.492257 151.848723 
L 237.08166 161.977392 
L 232.194658 172.005612 
L 226.068484 181.494196 
L 219.039266 190.045184 
L 211.522622 197.3224 
L 203.988845 203.068184 
L 196.934175 207.11538 
L 190.849873 209.393913 
L 186.190989 209.931643 
L 183.346725 208.849501 
L 182.61422 206.351267 
L 184.177405 202.708649 
L 188.092251 198.242632 
L 194.279394 193.302231 
L 202.524656 188.241983 
L 212.487535 183.399544 
L 223.71725 179.074748 
L 235.67548 175.511406 
L 247.76453 172.882925 
L 259.359336 171.282599 
L 269.841476 170.719137 
L 278.633234 171.11766 
L 285.229755 172.326082 
L 289.227411 174.126433 
L 290.346759 176.250401 
L 288.448725 178.398103 
L 283.54309 180.258905 
L 275.788771 181.53297 
L 265.485882 181.952189 
L 253.060029 181.299177 
L 239.039746 179.423127 
L 224.028383 176.251529 
L 208.672055 171.796988 
L 193.62552 166.158694 
L 179.517918 159.51841 
L 166.920354 152.131198 
L 156.317148 144.311403 
L 148.082369 136.414731 
L 142.462946 128.817476 
L 139.569256 121.89416 
L 139.373636 115.994918 
L 141.71679 111.424013 
L 146.321623 108.42079 
L 152.813553 107.144235 
L 160.746016 107.662114 
L 169.629551 109.945368 
L 178.962677 113.868158 
L 188.26265 119.213592 
L 197.094258 125.684852 
L 205.094895 132.921087 
L 211.994442 140.517186 
L 217.628786 148.046274 
L 221.94621 155.083641 
L 225.006349 161.230705 
L 226.971831 166.137604 
L 228.688291 171.190669 
L 229.116851 171.03967 
L 230.956379 165.388188 
L 233.044299 160.189307 
L 236.266707 153.758006 
L 240.7854 146.446299 
L 246.658974 138.654878 
L 253.834478 130.810509 
L 262.146373 123.342061 
L 271.322925 116.656566 
L 280.999734 111.116717 
L 290.739621 107.021086 
L 300.057712 104.58822 
L 308.450238 103.945511 
L 315.425305 105.12346 
L 320.533781 108.055622 
L 323.39839 112.584211 
L 323.739227 118.47095 
L 321.394087 125.412509 
L 316.332306 133.059545 
L 308.661182 141.038186 
L 298.624503 148.972638 
L 286.593143 156.507545 
L 273.04819 163.328759 
L 258.557492 169.181261 
L 243.746924 173.883172 
L 229.267979 177.335033 
L 215.763529 179.523811 
L 203.833708 180.521436 
L 194.003882 180.477975 
L 186.696545 179.609925 
L 182.208775 178.184358 
L 180.696536 176.499926 
L 182.166755 174.865936 
L 186.477615 173.580806 
L 193.347054 172.91125 
L 202.368962 173.073515 
L 213.036143 174.217839 
L 224.768703 176.41714 
L 236.946207 179.660641 
L 248.941754 183.852881 
L 260.156 188.818191 
L 270.049167 194.310417 
L 278.169221 200.027305 
L 284.174612 205.628716 
L 287.85033 210.757571 
L 289.116399 215.062266 
L 288.028399 218.219193 
L 284.7701 219.95399 
L 279.63871 220.060208 
L 273.023726 218.414243 
L 265.38073 214.985561 
L 257.201747 209.841581 
L 248.98401 203.146826 
L 241.199035 195.15636 
L 234.263888 186.203806 
L 228.516371 176.684626 
L 224.195607 167.035578 
L 221.42918 157.711518 
L 220.227546 149.160896 
L 220.486024 141.801328 
L 221.994161 135.996691 
L 224.451864 132.037043 
L 227.491225 130.122556 
L 230.70266 130.352384 
L 233.663685 132.719128 
L 235.968524 137.109209 
L 237.256648 143.309138 
L 237.238461 151.017305 
L 235.716487 159.860617 
L 232.600697 169.414999 
L 227.916979 179.228575 
L 221.80818 188.846183 
L 214.527579 197.833803 
L 206.425152 205.801494 
L 197.927411 212.423524 
L 189.512009 217.454553 
L 181.678631 220.740965 
L 174.917912 222.226736 
L 169.680301 221.953559 
L 166.346746 220.055277 
L 165.203024 216.747024 
L 166.419323 212.309776 
L 170.036366 207.071296 
L 175.958997 201.384655 
L 183.957704 195.605648 
L 193.67808 190.070496 
L 204.657766 185.075173 
L 216.349936 180.857622 
L 228.152041 177.583904 
L 239.438167 175.339118 
L 249.593161 174.123595 
L 258.046567 173.854574 
L 264.304404 174.373225 
L 267.976949 175.456535 
L 268.800912 176.833307 
L 266.654707 178.203252 
L 261.565935 179.257959 
L 253.710633 179.702441 
L 243.404331 179.275884 
L 231.085446 177.770311 
L 217.291944 175.04596 
L 202.632649 171.042422 
L 187.754842 165.784805 
L 173.310013 159.384513 
L 159.919737 152.034556 
L 148.143625 143.999641 
L 138.451161 135.601615 
L 131.199003 127.201123 
L 126.614995 119.17656 
L 124.789745 111.901602 
L 125.676134 105.722659 
L 129.096709 100.937619 
L 134.758382 97.777195 
L 142.273488 96.390008 
L 151.185834 96.832347 
L 161.000121 99.063261 
L 171.212914 102.945319 
L 181.343273 108.251032 
L 190.96117 114.674621 
L 199.712007 121.84845 
L 207.335763 129.363207 
L 213.67966 136.790656 
L 218.703645 143.707652 
L 222.478415 149.720007 
L 227.054914 157.729987 
L 228.43682 159.269662 
L 229.682966 159.014902 
L 231.165174 156.978732 
L 236.207759 148.113964 
L 240.314706 141.786196 
L 245.706112 134.650184 
L 252.425413 127.109914 
L 260.404073 119.592451 
L 269.461476 112.523893 
L 279.312246 106.305549 
L 289.580614 101.291705 
L 299.821032 97.770281 
L 309.543812 95.947482 
L 318.244265 95.93732 
L 325.433595 97.756583 
L 330.66966 101.325508 
L 333.585715 106.474064 
L 333.915361 112.953435 
L 331.512125 120.451965 
L 326.362409 128.614575 
L 318.590946 137.064468 
L 308.458321 145.425787 
L 296.350597 153.34585 
L 282.76156 160.515632 
L 268.26852 166.687259 
L 253.503027 171.687468 
L 239.118118 175.426257 
L 225.753984 177.900211 
L 214.004002 179.190358 
L 204.383096 179.454713 
L 197.300237 178.915996 
L 193.036683 177.845333 
L 191.731217 176.542953 
L 193.373216 175.317115 
L 197.803987 174.462581 
L 204.726253 174.239988 
L 213.721252 174.857428 
L 224.272452 176.455388 
L 235.794501 179.096019 
L 247.66572 182.757421 
L 259.262277 187.333338 
L 269.99206 192.638309 
L 279.326292 198.418008 
L 286.827111 204.364162 
L 292.169528 210.133171 
L 295.156572 215.367305 
L 295.726792 219.717206 
L 293.953784 222.864326 
L 290.037846 224.541922 
L 284.290372 224.55331 
L 277.111983 222.786256 
L 268.965791 219.222564 
L 260.347458 213.942247 
L 251.753887 207.121959 
L 243.652471 199.027725 
L 236.452753 190.002328 
L 230.482209 180.448044 
L 225.967601 170.805698 
L 223.022985 161.531233 
L 221.645067 153.07112 
L 221.716131 145.838058 
L 223.014296 140.188332 
L 225.230417 136.402186 
L 227.990538 134.668315 
L 230.882452 135.073405 
L 233.484686 137.597322 
L 235.396072 142.114227 
L 236.264031 148.399558 
L 235.809781 156.142475 
L 233.848858 164.963022 
L 230.305634 174.433042 
L 225.220885 184.099592 
L 218.751882 193.509523 
L 211.164936 202.233798 
L 202.820812 209.890144 
L 194.153844 216.162741 
L 185.645985 220.817846 
L 177.797353 223.714462 
L 171.095049 224.809499 
L 165.982136 224.157175 
L 162.828691 221.902755 
L 161.906716 218.271074 
L 163.37047 213.550579 
L 167.243491 208.073901 
L 173.413156 202.196158 
L 181.633214 196.272339 
L 191.534221 190.635127 
L 202.641351 185.574528 
L 214.398634 181.320522 
L 226.198242 178.029767 
L 237.413175 175.77716 
L 247.431477 174.552708 
L 255.69001 174.263894 
L 261.705829 174.743331 
L 265.103356 175.761218 
L 265.63575 177.041779 
L 263.199251 178.282666 
L 257.839647 179.176071 
L 249.750494 179.430248 
L 239.263177 178.790075 
L 226.829399 177.05536 
L 212.997103 174.09575 
L 198.381217 169.861276 
L 183.630919 164.387858 
L 169.395301 157.797404 
L 156.289398 150.292449 
L 144.862531 142.145624 
L 135.570747 133.684578 
L 128.754901 125.273234 
L 124.625579 117.290493 
L 123.255649 110.107682 
L 124.580782 104.066093 
L 128.407783 99.455989 
L 134.430161 96.498355 
L 142.249882 95.330524 
L 151.403939 95.996578 
L 161.394065 98.443134 
L 171.71777 102.520816 
L 181.89879 107.991384 
L 191.515109 114.540114 
L 200.222875 121.792767 
L 207.774792 129.336157 
L 214.031917 136.741135 
L 218.968215 143.586664 
L 222.667654 149.483572 
L 227.174814 157.163439 
L 228.578296 158.509694 
L 229.888535 158.058798 
L 231.476698 155.836394 
L 236.836774 146.676154 
L 241.137585 140.259171 
L 246.730521 133.082735 
L 253.645372 125.554847 
L 261.799548 118.10362 
L 270.998896 111.153197 
L 280.945936 105.100041 
L 291.25506 100.291005 
L 301.473846 97.004425 
L 311.109221 95.435341 
L 319.656919 95.685673 
L 326.632466 97.7599 
L 331.60178 101.566439 
L 334.209544 106.924613 
L 334.203557 113.576737 
L 331.453545 121.204551 
L 325.963216 129.449 
L 317.874735 137.932123 
L 307.465247 146.279737 
L 295.13554 154.143527 
L 281.391426 161.221215 
L 266.818828 167.273601 
L 252.053957 172.137463 
L 237.750266 175.733557 
L 224.54405 178.069263 
L 213.020663 179.235764 
L 203.683302 179.399944 
L 196.926141 178.791565 
L 193.013387 177.686525 
L 192.065454 176.387266 
L 194.053063 175.20157 
L 198.799599 174.421067 
L 205.991596 174.300817 
L 215.196724 175.041252 
L 225.888241 176.773603 
L 237.474481 179.549767 
L 249.331668 183.337254 
L 260.838156 188.019565 
L 271.408124 193.402016 
L 280.522786 199.222689 
L 287.757344 205.167862 
L 292.802155 210.891022 
L 295.476953 216.034293 
L 295.737368 220.251007 
L 293.673447 223.228036 
L 289.500368 224.70651 
L 283.541982 224.499653 
L 276.208253 222.506608 
L 267.968029 218.721386 
L 259.318827 213.236321 
L 250.755486 206.239789 
L 242.739619 198.008236 
L 235.671704 188.892941 
L 229.867484 179.302237 
L 225.540105 169.680182 
L 222.789014 160.482909 
L 221.59626 152.153996 
L 221.830355 145.100292 
L 223.257415 139.669591 
L 225.558823 136.131453 
L 228.354273 134.662289 
L 231.22874 135.335578 
L 233.761632 138.117788 
L 235.556308 142.870235 
L 236.268071 149.356782 
L 235.628872 157.256908 
L 233.467149 166.183413 
L 229.721519 175.703705 
L 224.447431 185.363441 
L 217.816306 194.711156 
L 210.107164 203.322439 
L 201.691192 210.82229 
L 193.010155 216.904359 
L 184.549914 221.345982 
L 176.810659 224.018201 
L 170.275639 224.8902 
L 165.380301 224.027988 
L 162.483728 221.587463 
L 161.844151 217.802319 
L 163.600049 212.967599 
L 167.758083 207.419915 
L 174.188637 201.51556 
L 182.629349 195.607872 
L 192.696508 190.025213 
L 203.903734 185.050908 
L 215.686922 180.906353 
L 227.434053 177.738293 
L 238.518174 175.61102 
L 248.331674 174.503937 
L 256.319852 174.314597 
L 262.011876 174.866992 
L 265.047298 175.924561 
L 265.196617 177.207056 
L 262.37467 178.410232 
L 256.64608 179.227083 
L 248.222439 179.36932 
L 237.451383 178.587716 
L 224.798198 176.690054 
L 210.821008 173.55553 
L 196.14099 169.144706 
L 181.409329 163.504351 
L 167.272824 156.766854 
L 154.340098 149.144192 
L 143.15036 140.916794 
L 134.146473 132.417951 
L 127.65383 124.014687 
L 123.866198 116.086235 
L 122.839256 109.001421 
L 124.492104 103.096312 
L 128.616552 98.653496 
L 134.893512 95.884266 
L 142.915445 94.914794 
L 152.213411 95.777178 
L 162.28706 98.405931 
L 172.635684 102.640171 
L 182.788474 108.231428 
L 192.332103 114.856651 
L 200.934033 122.135676 
L 208.360124 129.652168 
L 214.485555 136.976816 
L 219.298447 143.691448 
L 222.896034 149.412638 
L 225.473716 153.813452 
L 227.307724 156.642036 
L 228.732569 157.73597 
L 230.114718 157.031541 
L 231.824225 154.567388 
L 234.206123 150.482307 
L 237.553426 145.007349 
L 242.083484 138.452663 
L 247.919227 131.189876 
L 255.076527 123.63102 
L 263.45855 116.205261 
L 272.857508 109.334779 
L 282.963793 103.411213 
L 293.382002 98.774034 
L 303.652928 95.692103 
L 313.280225 94.349467 
L 321.760164 94.836204 
L 328.612661 97.1448 
L 333.411715 101.17225 
L 335.81336 106.727688 
L 335.579404 113.545065 
L 332.595459 121.300063 
L 326.882083 129.630201 
L 318.598269 138.156902 
L 308.036975 146.508176 
L 295.612838 154.340535 
L 281.842702 161.358838 
L 267.320011 167.332861 
L 252.684491 172.109618 
L 238.588825 175.620712 
L 225.664229 177.884296 
L 214.486881 179.001567 
L 205.54716 179.148045 
L 199.223443 178.560206 
L 195.761992 177.518317 
L 195.264091 176.326576 
L 197.681163 175.291795 
L 202.818172 174.70197 
L 210.345085 174.806087 
L 219.815739 175.79644 
L 230.693006 177.794571 
L 242.3788 180.841738 
L 254.247175 184.894531 
L 265.678616 189.825932 
L 276.09352 195.431813 
L 284.982976 201.442478 
L 291.935072 207.538606 
L 296.655249 213.370623 
L 298.979604 218.580358 
L 298.88041 222.823649 
L 296.463647 225.792557 
L 291.958779 227.235787 
L 285.701466 226.976082 
L 278.110343 224.923484 
L 269.659321 221.083622 
L 260.847128 215.560459 
L 252.165962 208.553293 
L 244.071174 200.348098 
L 236.953815 191.303673 
L 231.117684 181.833366 
L 226.762263 172.383384 
L 223.972516 163.408948 
L 222.716139 155.349644 
L 222.848359 148.605405 
L 224.123935 143.514516 
L 226.21557 140.334912 
L 228.737533 139.229868 
L 231.272992 140.258905 
L 233.403326 143.374449 
L 234.737544 148.424442 
L 234.939965 155.160737 
L 233.754394 163.252805 
L 231.023252 172.305948 
L 226.700433 181.882958 
L 220.857027 191.527957 
L 213.679511 200.79105 
L 205.460462 209.252358 
L 196.58229 216.544048 
L 187.49496 222.369104 
L 178.689006 226.515784 
L 170.665469 228.866961 
L 163.904571 229.403852 
L 158.835038 228.203981 
L 155.805948 225.433569 
L 155.062855 221.334856 
L 156.729693 216.20917 
L 160.797609 210.39682 
L 167.121493 204.25504 
L 175.424504 198.135356 
L 185.310413 192.361736 
L 196.283123 187.210873 
L 207.772304 182.895757 
L 219.163687 179.553533 
L 229.832315 177.238359 
L 239.17682 175.919648 
L 246.652777 175.485788 
L 251.803189 175.753053 
L 254.28433 176.479143 
L 253.885466 177.380472 
L 250.54128 178.152107 
L 244.336287 178.489123 
L 235.500985 178.107998 
L 224.399941 176.766731 
L 211.512524 174.282401 
L 197.407385 170.545057 
L 182.712156 165.527057 
L 168.080129 159.287242 
L 154.15582 151.969656 
L 141.541395 143.796847 
L 130.765873 135.058132 
L 122.258838 126.093503 
L 116.330129 117.27413 
L 113.156612 108.980619 
L 112.776706 101.580355 
L 115.092881 95.405272 
L 119.881878 90.731429 
L 126.811926 87.761623 
L 135.465841 86.612135 
L 145.368546 87.304423 
L 156.01729 89.762311 
L 166.912713 93.814885 
L 177.588855 99.204983 
L 187.640302 105.602786 
L 196.744842 112.62379 
L 204.680294 119.850084 
L 211.334537 126.853734 
L 216.708204 133.220903 
L 224.144623 142.599592 
L 226.695276 145.053503 
L 228.9 145.787582 
L 228.9 145.787582 
" clip-path="url(#p595fa006e6)" style="fill: none; stroke: #dc5e8b; stroke-width: 2.5; stroke-linecap: square"/>
   </g>
   <g id="line2d_4">
    <defs>
     <path id="m5dcbcdeb98" d="M 0 5 
C 1.326016 5 2.597899 4.473168 3.535534 3.535534 
C 4.473168 2.597899 5 1.326016 5 0 
C 5 -1.326016 4.473168 -2.597899 3.535534 -3.535534 
C 2.597899 -4.473168 1.326016 -5 0 -5 
C -1.326016 -5 -2.597899 -4.473168 -3.535534 -3.535534 
C -4.473168 -2.597899 -5 -1.326016 -5 0 
C -5 1.326016 -4.473168 2.597899 -3.535534 3.535534 
C -2.597899 4.473168 -1.326016 5 0 5 
z
" style="stroke: #000000; stroke-opacity: 0.8"/>
    </defs>
    <g clip-path="url(#p595fa006e6)">
     <use xlink:href="#m5dcbcdeb98" x="228.9" y="145.787582" style="fill-opacity: 0.8; stroke: #000000; stroke-opacity: 0.8"/>
    </g>
   </g>
   <g id="patch_3">
    <path d="M 228.9 334.8 
L 228.9 20.016315 
" style="fill: none; stroke: #000000; stroke-width: 0.8; stroke-linejoin: miter; stroke-linecap: square"/>
   </g>
   <g id="patch_4">
    <path d="M 447 334.8 
L 447 20.016315 
" style="fill: none"/>
   </g>
   <g id="patch_5">
    <path d="M 10.8 177.408158 
L 447 177.408158 
" style="fill: none; stroke: #000000; stroke-width: 0.8; stroke-linejoin: miter; stroke-linecap: square"/>
   </g>
   <g id="patch_6">
    <path d="M 10.8 20.016315 
L 447 20.016315 
" style="fill: none"/>
   </g>
  </g>
 </g>
 <defs>
  <clipPath id="p595fa006e6">
   <rect x="10.8" y="20.016315" width="436.2" height="314.783685"/>
  </clipPath>
 </defs>
</svg>
