<?xml version="1.0" encoding="utf-8" standalone="no"?>
<!DOCTYPE svg PUBLIC "-//W3C//DTD SVG 1.1//EN"
  "http://www.w3.org/Graphics/SVG/1.1/DTD/svg11.dtd">
<svg xmlns:xlink="http://www.w3.org/1999/xlink" width="460.8pt" height="345.6pt" viewBox="0 0 460.8 345.6" xmlns="http://www.w3.org/2000/svg" version="1.1">
 <metadata>
  <rdf:RDF xmlns:dc="http://purl.org/dc/elements/1.1/" xmlns:cc="http://creativecommons.org/ns#" xmlns:rdf="http://www.w3.org/1999/02/22-rdf-syntax-ns#">
   <cc:Work>
    <dc:type rdf:resource="http://purl.org/dc/dcmitype/StillImage"/>
    <dc:date>2026-03-24T23:47:51.015624</dc:date>
    <dc:format>image/svg+xml</dc:format>
    <dc:creator>
     <cc:Agent>
      <dc:title>Matplotlib v3.10.8, https://matplotlib.org/</dc:title>
     </cc:Agent>
    </dc:creator>
   </cc:Work>
  </rdf:RDF>
 </metadata>
 <defs>
  <style type="text/css">*{stroke-linejoin: round; stroke-linecap: butt}</style>
 </defs>
 <g id="figure_1">
  <g id="patch_1">
   <path d="M 0 345.6 
L 460.8 345.6 
L 460.8 0 
L 0 0 
L 0 345.6 
z
" style="fill: none"/>
  </g>
  <g id="axes_1">
   <g id="patch_2">
    <path d="M 10.8 334.8 
L 447 334.8 
L 447 20.016315 
L 10.8 20.016315 
L 10.8 334.8 
z
" style="fill: none"/>
   </g>
   <g id="matplotlib.axis_1">
    <g id="text_1">
     <!-- $x$ -->
     <g transform="translate(435.913188 195.245154) scale(0.2 -0.2)">
      <defs>
       <path id="CMMI12-78" d="M 3034 2606 
C 2829 2567 2752 2414 2752 2293 
C 2752 2139 2874 2088 2963 2088 
C 3155 2088 3290 2254 3290 2427 
C 3290 2695 2982 2816 2714 2816 
C 2323 2816 2106 2433 2048 2312 
C 1901 2816 1504 2816 1389 2816 
C 736 2816 390 1980 390 1839 
C 390 1814 416 1782 461 1782 
C 512 1782 525 1820 538 1846 
C 755 2555 1184 2689 1370 2689 
C 1658 2689 1715 2420 1715 2267 
C 1715 2127 1677 1980 1600 1673 
L 1382 798 
C 1286 415 1101 64 762 64 
C 730 64 570 64 435 147 
C 666 192 717 383 717 460 
C 717 588 621 664 499 664 
C 346 664 179 530 179 326 
C 179 57 480 -64 755 -64 
C 1062 -64 1280 179 1414 441 
C 1517 64 1837 -64 2074 -64 
C 2726 -64 3072 773 3072 913 
C 3072 945 3046 971 3008 971 
C 2950 971 2944 939 2925 888 
C 2752 326 2381 64 2093 64 
C 1869 64 1747 230 1747 492 
C 1747 632 1773 734 1875 1156 
L 2099 2024 
C 2195 2408 2413 2689 2707 2689 
C 2720 2689 2899 2689 3034 2606 
z
" transform="scale(0.015625)"/>
      </defs>
      <use xlink:href="#CMMI12-78" transform="scale(0.996264)"/>
     </g>
    </g>
   </g>
   <g id="matplotlib.axis_2">
    <g id="text_2">
     <!-- $y$ -->
     <g transform="translate(215.387165 16.140682) scale(0.2 -0.2)">
      <defs>
       <path id="CMMI12-79" d="M 1683 -700 
C 1510 -939 1261 -1152 947 -1152 
C 870 -1152 563 -1152 467 -889 
C 486 -895 518 -895 531 -895 
C 723 -895 851 -729 851 -582 
C 851 -435 730 -384 634 -384 
C 531 -384 307 -458 307 -759 
C 307 -1071 582 -1286 947 -1286 
C 1587 -1286 2234 -700 2413 6 
L 3040 2485 
C 3046 2517 3059 2556 3059 2594 
C 3059 2689 2982 2753 2886 2753 
C 2829 2753 2694 2727 2643 2535 
L 2170 658 
C 2138 543 2138 530 2086 460 
C 1958 281 1747 64 1440 64 
C 1082 64 1050 415 1050 588 
C 1050 952 1222 1443 1395 1903 
C 1466 2088 1504 2178 1504 2305 
C 1504 2574 1312 2816 998 2816 
C 410 2816 173 1890 173 1839 
C 173 1814 198 1782 243 1782 
C 301 1782 307 1807 333 1897 
C 486 2433 730 2689 979 2689 
C 1037 2689 1146 2689 1146 2478 
C 1146 2312 1075 2127 979 1884 
C 666 1047 666 837 666 683 
C 666 77 1101 -64 1421 -64 
C 1606 -64 1837 -6 2061 230 
L 2067 224 
C 1971 -147 1907 -392 1683 -700 
z
" transform="scale(0.015625)"/>
      </defs>
      <use xlink:href="#CMMI12-79" transform="scale(0.996264)"/>
     </g>
    </g>
   </g>
   <g id="line2d_1">
    <defs>
     <path id="m87dbfd070b" d="M 3 0 
L -3 -3 
L -3 3 
z
" style="stroke: #000000; stroke-linejoin: miter"/>
    </defs>
    <g>
     <use xlink:href="#m87dbfd070b" x="447" y="177.408158" style="stroke: #000000; stroke-linejoin: miter"/>
    </g>
   </g>
   <g id="line2d_2">
    <defs>
     <path id="m2fb762c55d" d="M 0 -3 
L -3 3 
L 3 3 
z
" style="stroke: #000000; stroke-linejoin: miter"/>
    </defs>
    <g>
     <use xlink:href="#m2fb762c55d" x="228.9" y="20.016315" style="stroke: #000000; stroke-linejoin: miter"/>
    </g>
   </g>
   <g id="line2d_3">
    <path d="M 228.9 158.566208 
L 231.959016 155.016672 
L 237.796551 145.164001 
L 248.33659 131.217149 
L 264.011347 116.302929 
L 283.505985 103.768978 
L 303.957116 96.445525 
L 321.566213 96.035235 
L 332.486835 102.769423 
L 333.775391 115.405783 
L 324.175871 131.562367 
L 304.544327 148.303927 
L 277.801098 162.838369 
L 248.408442 173.156735 
L 221.482756 178.465393 
L 201.737445 179.310285 
L 192.494258 177.367817 
L 194.987345 174.957451 
L 208.118449 174.398128 
L 228.718786 177.368227 
L 252.257181 184.427953 
L 273.83221 194.823963 
L 289.222015 206.628021 
L 295.75423 217.180627 
L 292.802399 223.736235 
L 281.803983 224.156635 
L 265.807499 217.48531 
L 248.666003 204.261612 
L 234.075219 186.493486 
L 224.688183 167.287096 
L 221.516622 150.212449 
L 223.75789 138.546868 
L 229.082306 134.568008 
L 234.30404 139.05805 
L 236.266014 151.132774 
L 232.717621 168.434801 
L 222.965814 187.646606 
L 208.134796 205.205637 
L 190.96416 218.058133 
L 175.187321 224.280645 
L 164.634714 223.430499 
L 162.2749 216.550815 
L 169.424967 205.836925 
L 185.324701 194.04998 
L 207.185466 183.821618 
L 230.714129 177.017192 
L 251.000603 174.308853 
L 263.571189 175.057756 
L 265.369161 177.529391 
L 255.43887 179.385418 
L 235.156522 178.328794 
L 207.954372 172.74204 
L 178.600936 162.160244 
L 152.201057 147.460135 
L 133.142578 130.714988 
L 124.226369 114.745811 
L 126.171533 102.473038 
L 137.598435 96.222122 
L 155.480052 97.149247 
L 175.943419 104.926651 
L 195.223265 117.766948 
L 210.537816 132.786545 
L 220.679506 146.628364 
L 226.185123 156.20258 
L 229.053477 159.375449 
L 232.08901 155.447416 
L 238.040641 145.309984 
L 248.754774 131.245057 
L 264.557939 116.413188 
L 284.028895 104.148997 
L 304.225385 97.226146 
L 321.319735 97.260323 
L 331.496688 104.38543 
L 331.900435 117.273377 
L 321.401851 133.487076 
L 300.995695 150.078317 
L 273.722005 164.285655 
L 244.116599 174.165505 
L 217.306227 179.007376 
L 197.948571 179.437213 
L 189.255691 177.188508 
L 192.3225 174.601023 
L 205.91313 173.972584 
L 226.753576 176.924777 
L 250.263163 183.940066 
L 271.557233 194.186601 
L 286.49241 205.677625 
L 292.518033 215.731393 
L 289.14456 221.624224 
L 277.930629 221.281236 
L 262.003537 213.838071 
L 245.236513 199.935305 
L 231.284707 181.668848 
L 222.712036 162.199912 
L 220.416003 145.10828 
L 223.48352 133.633665 
L 229.505537 129.977433 
L 235.267034 134.824352 
L 237.638205 147.194044 
L 234.44414 164.656277 
L 225.095482 183.860606 
L 210.820235 201.25888 
L 194.433343 213.855577 
L 179.692835 219.815825 
L 170.392523 218.795572 
L 169.407132 211.924299 
L 177.920528 201.452312 
L 195.027503 190.152826 
L 217.813708 180.625305 
L 241.906795 174.667724 
L 262.380977 172.866733 
L 274.81312 174.500834 
L 276.251085 177.775453 
L 265.87333 180.328562 
L 245.18858 179.880288 
L 217.729428 174.865324 
L 188.309517 164.891145 
L 162.013403 150.906947 
L 143.148084 135.037939 
L 134.391725 120.120469 
L 136.326929 109.046141 
L 147.4546 104.070274 
L 164.671725 106.250387 
L 184.088762 115.151304 
L 201.985205 128.891702 
L 215.673099 144.52701 
L 224.064422 158.684301 
L 229.00355 171.325125 
L 230.480131 167.135841 
L 234.975571 156.718537 
L 244.2744 142.422554 
L 258.615419 127.437428 
L 276.4912 115.081479 
L 294.90264 108.07071 
L 310.015882 107.935508 
L 318.06964 114.717068 
L 316.317271 127.0092 
L 303.775505 142.329927 
L 281.593643 157.73024 
L 252.943894 170.492649 
L 222.444947 178.752678 
L 195.240639 181.896593 
L 175.93783 180.643598 
L 167.642677 176.797217 
L 171.314 172.730432 
L 185.580911 170.733273 
L 207.065898 172.384657 
L 231.138922 178.104457 
L 252.929773 186.998444 
L 268.367891 197.038075 
L 275.014662 205.536045 
L 272.503561 209.806327 
L 262.496504 207.851393 
L 248.17839 198.910564 
L 233.419211 183.734174 
L 221.809109 164.511513 
L 215.798573 144.461356 
L 216.147551 127.173353 
L 221.810612 115.847903 
L 230.278902 112.607194 
L 238.288899 118.034938 
L 242.719369 131.050389 
L 241.452479 149.145552 
L 233.983732 168.931064 
L 221.625971 186.865588 
L 207.25087 200.002133 
L 194.623668 206.582233 
L 187.486448 206.345773 
L 188.608411 200.491669 
L 199.032827 191.306653 
L 217.706959 181.556689 
L 241.593066 173.789934 
L 266.246301 169.718895 
L 286.735433 169.828347 
L 298.700633 173.299819 
L 299.308536 178.26644 
L 287.886559 182.332077 
L 266.091019 183.225025 
L 237.570143 179.424137 
L 207.198581 170.601972 
L 180.057608 157.773562 
L 160.392086 143.110354 
L 150.778234 129.459775 
L 151.684931 119.682436 
L 161.517939 115.964113 
L 177.123194 119.267509 
L 194.618947 129.05736 
L 210.351933 143.369078 
L 221.747423 159.210631 
L 227.852434 173.208839 
L 229.448296 182.3532 
L 228.714654 184.666466 
L 228.536253 179.647342 
L 231.630648 168.382951 
L 239.71831 153.305048 
L 252.946393 137.646381 
L 269.715874 124.722781 
L 286.963755 117.206338 
L 300.840847 116.556018 
L 307.627882 122.734295 
L 304.671988 134.270613 
L 291.11644 148.65097 
L 268.241806 162.936724 
L 239.325658 174.462948 
L 209.04011 181.449574 
L 182.51527 183.381132 
L 164.276407 181.067652 
L 157.294405 176.37654 
L 162.365103 171.70466 
L 177.958827 169.322419 
L 200.574102 170.752467 
L 225.514145 176.337324 
L 247.908397 185.104808 
L 263.746364 194.968279 
L 270.690392 203.217651 
L 268.487485 207.186093 
L 258.89529 204.93341 
L 245.151403 195.780816 
L 231.121264 180.56495 
L 220.333272 161.543773 
L 215.133131 141.968393 
L 216.157681 125.413556 
L 222.249344 115.017101 
L 230.824825 112.801297 
L 238.601652 119.231349 
L 242.499651 133.112399 
L 240.492257 151.848723 
L 232.194658 172.005612 
L 219.039266 190.045184 
L 203.988845 203.068184 
L 190.849873 209.393913 
L 183.346725 208.849501 
L 184.177405 202.708649 
L 194.279394 193.302231 
L 212.487535 183.399544 
L 235.67548 175.511406 
L 259.359336 171.282599 
L 278.633234 171.11766 
L 289.227411 174.126433 
L 288.448725 178.398103 
L 275.788771 181.53297 
L 253.060029 181.299177 
L 224.028383 176.251529 
L 193.62552 166.158694 
L 166.920354 152.131198 
L 148.082369 136.414731 
L 139.569256 121.89416 
L 141.71679 111.424013 
L 152.813553 107.144235 
L 169.629551 109.945368 
L 188.26265 119.213592 
L 205.094895 132.921087 
L 217.628786 148.046274 
L 225.006349 161.230705 
L 228.093228 169.523109 
L 229.116851 171.03967 
L 230.956379 165.388188 
L 236.266707 153.758006 
L 246.658974 138.654878 
L 262.146373 123.342061 
L 280.999734 111.116717 
L 300.057712 104.58822 
L 315.425305 105.12346 
L 323.39839 112.584211 
L 321.394087 125.412509 
L 308.661182 141.038186 
L 286.593143 156.507545 
L 258.557492 169.181261 
L 229.267979 177.335033 
L 203.833708 180.521436 
L 186.696545 179.609925 
L 180.696536 176.499926 
L 186.477615 173.580806 
L 202.368962 173.073515 
L 224.768703 176.41714 
L 248.941754 183.852881 
L 270.049167 194.310417 
L 284.174612 205.628716 
L 289.116399 215.062266 
L 284.7701 219.95399 
L 273.023726 218.414243 
L 257.201747 209.841581 
L 241.199035 195.15636 
L 228.516371 176.684626 
L 221.42918 157.711518 
L 220.486024 141.801328 
L 224.451864 132.037043 
L 230.70266 130.352384 
L 235.968524 137.109209 
L 237.238461 151.017305 
L 232.600697 169.414999 
L 221.80818 188.846183 
L 206.425152 205.801494 
L 189.512009 217.454553 
L 174.917912 222.226736 
L 166.346746 220.055277 
L 166.419323 212.309776 
L 175.958997 201.384655 
L 193.67808 190.070496 
L 216.349936 180.857622 
L 239.438167 175.339118 
L 258.046567 173.854574 
L 267.976949 175.456535 
L 266.654707 178.203252 
L 253.710633 179.702441 
L 231.085446 177.770311 
L 202.632649 171.042422 
L 173.310013 159.384513 
L 148.143625 143.999641 
L 131.199003 127.201123 
L 124.789745 111.901602 
L 129.096709 100.937619 
L 142.273488 96.390008 
L 161.000121 99.063261 
L 181.343273 108.251032 
L 199.712007 121.84845 
L 213.67966 136.790656 
L 222.478415 149.720007 
L 227.054914 157.729987 
L 229.682966 159.014902 
L 240.314706 141.786196 
L 252.425413 127.109914 
L 269.461476 112.523893 
L 289.580614 101.291705 
L 309.543812 95.947482 
L 325.433595 97.756583 
L 333.585715 106.474064 
L 331.512125 120.451965 
L 318.590946 137.064469 
L 296.350597 153.34585 
L 268.26852 166.687259 
L 239.118118 175.426257 
L 214.004002 179.190358 
L 197.300237 178.915996 
L 191.731217 176.542953 
L 197.803987 174.462581 
L 213.721252 174.857428 
L 235.794501 179.096019 
L 259.262277 187.333338 
L 279.326292 198.418008 
L 292.169528 210.133171 
L 295.726792 219.717206 
L 290.037846 224.541922 
L 277.111983 222.786256 
L 260.347458 213.942246 
L 243.652471 199.027725 
L 230.482209 180.448044 
L 223.022985 161.531233 
L 221.716131 145.838058 
L 225.230417 136.402186 
L 230.882452 135.073405 
L 235.396072 142.114227 
L 235.809781 156.142475 
L 230.305634 174.433042 
L 218.751882 193.509523 
L 202.820812 209.890144 
L 185.645985 220.817846 
L 171.095049 224.809499 
L 162.828691 221.902755 
L 163.37047 213.550579 
L 173.413156 202.196158 
L 191.534221 190.635127 
L 214.398634 181.320522 
L 237.413175 175.77716 
L 255.69001 174.263894 
L 265.103356 175.761218 
L 263.199251 178.282666 
L 249.750494 179.430248 
L 226.829399 177.05536 
L 198.381217 169.861276 
L 169.395301 157.797404 
L 144.862531 142.145624 
L 128.754901 125.273234 
L 123.255649 110.107682 
L 128.407783 99.455989 
L 142.249882 95.330524 
L 161.394065 98.443134 
L 181.89879 107.991384 
L 200.222875 121.792767 
L 214.031917 136.741135 
L 222.667654 149.483572 
L 227.174814 157.163439 
L 229.888535 158.058798 
L 241.137585 140.259171 
L 253.645372 125.554847 
L 270.998896 111.153197 
L 291.25506 100.291005 
L 311.109221 95.435341 
L 326.632466 97.7599 
L 334.209544 106.924613 
L 331.453545 121.204551 
L 317.874735 137.932123 
L 295.13554 154.143527 
L 266.818828 167.273601 
L 237.750266 175.733557 
L 213.020663 179.235764 
L 196.926141 178.791565 
L 192.065454 176.387266 
L 198.799599 174.421067 
L 215.196724 175.041252 
L 237.474481 179.549767 
L 260.838156 188.019565 
L 280.522786 199.222689 
L 292.802155 210.891022 
L 295.737368 220.251007 
L 289.500368 224.70651 
L 276.208253 222.506608 
L 259.318827 213.236321 
L 242.739619 198.008236 
L 229.867484 179.302237 
L 222.789014 160.482909 
L 221.830355 145.100292 
L 225.558823 136.131453 
L 231.22874 135.335578 
L 235.556308 142.870235 
L 235.628872 157.256908 
L 229.721519 175.703705 
L 217.816306 194.711156 
L 201.691192 210.82229 
L 184.549914 221.345982 
L 170.275639 224.8902 
L 162.483728 221.587463 
L 163.600049 212.967599 
L 174.188637 201.51556 
L 192.696508 190.025213 
L 215.686922 180.906353 
L 238.518174 175.61102 
L 256.319852 174.314597 
L 265.047298 175.924561 
L 262.37467 178.410232 
L 248.222439 179.36932 
L 224.798198 176.690054 
L 196.14099 169.144706 
L 167.272824 156.766854 
L 143.15036 140.916794 
L 127.65383 124.014687 
L 122.839256 109.001421 
L 128.616552 98.653496 
L 142.915445 94.914794 
L 162.28706 98.405931 
L 182.788474 108.231428 
L 200.934033 122.135676 
L 214.485555 136.976816 
L 222.896034 149.412638 
L 227.307724 156.642036 
L 230.114718 157.031541 
L 234.206123 150.482307 
L 242.083484 138.452663 
L 255.076527 123.63102 
L 272.857508 109.334779 
L 293.382002 98.774034 
L 313.280225 94.349467 
L 328.612661 97.1448 
L 335.81336 106.727688 
L 332.595459 121.300063 
L 318.598269 138.156902 
L 295.612838 154.340535 
L 267.320011 167.332861 
L 238.588825 175.620712 
L 214.486881 179.001567 
L 199.223443 178.560206 
L 195.264091 176.326576 
L 202.818172 174.70197 
L 219.815739 175.79644 
L 242.3788 180.841738 
L 265.678616 189.825932 
L 284.982976 201.442478 
L 296.655249 213.370623 
L 298.88041 222.823649 
L 291.958779 227.235787 
L 278.110343 224.923484 
L 260.847128 215.560459 
L 244.071174 200.348098 
L 231.117684 181.833366 
L 223.972516 163.408948 
L 222.848359 148.605405 
L 226.21557 140.334912 
L 231.272992 140.258905 
L 234.737544 148.424442 
L 233.754394 163.252805 
L 226.700433 181.882958 
L 213.679511 200.79105 
L 196.58229 216.544048 
L 178.689006 226.515784 
L 163.904571 229.403852 
L 155.805948 225.433569 
L 156.729693 216.20917 
L 167.121493 204.25504 
L 185.310413 192.361736 
L 207.772304 182.895757 
L 229.832315 177.238359 
L 246.652777 175.485788 
L 254.28433 176.479143 
L 250.54128 178.152107 
L 235.500985 178.107998 
L 211.512524 174.282401 
L 182.712156 165.527057 
L 154.15582 151.969656 
L 130.765873 135.058132 
L 116.330129 117.27413 
L 112.776706 101.580355 
L 119.881878 90.731429 
L 135.465841 86.612135 
L 156.01729 89.762311 
L 177.588855 99.204983 
L 196.744842 112.62379 
L 211.334537 126.853734 
L 220.909944 138.575302 
L 226.695276 145.053503 
L 231.125283 144.751785 
L 237.074462 137.679062 
L 246.9742 125.389559 
L 262.042046 110.635464 
L 281.820145 96.75271 
L 304.14489 86.921647 
L 325.564879 83.472636 
L 342.114474 87.395047 
L 350.261853 98.159608 
L 347.804779 113.890066 
L 334.49556 131.838132 
L 312.237213 149.045096 
L 284.791735 163.030883 
L 257.055393 172.346646 
L 234.058204 176.861282 
L 219.911114 177.717163 
L 216.93894 176.970407 
L 225.196246 177.007094 
L 242.476422 179.880778 
L 264.811438 186.73561 
L 287.347551 197.458819 
L 305.396734 210.651092 
L 315.424821 223.926606 
L 315.754237 234.474504 
L 306.827561 239.749428 
L 290.981895 238.125827 
L 271.798447 229.357041 
L 253.190074 214.724447 
L 238.448594 196.833829 
L 229.479783 179.098797 
L 226.405949 165.02506 
L 227.62558 157.457084 
L 230.3083 157.958866 
L 231.198025 166.470722 
L 227.522778 181.320908 
L 217.783891 199.589445 
L 202.226394 217.740627 
L 182.869406 232.379393 
L 163.081849 240.959249 
L 146.799462 242.282157 
L 137.567477 236.680623 
L 137.638116 225.847244 
L 147.342499 212.359568 
L 164.894524 199.018693 
L 186.684177 188.162189 
L 208.003171 181.115646 
L 224.043641 177.912042 
L 230.945099 177.342396 
L 226.651468 177.320869 
L 211.382104 175.471507 
L 187.608575 169.790499 
L 159.541992 159.219653 
L 132.247607 143.98819 
L 110.587918 125.635723 
L 98.233096 106.706209 
L 96.959495 90.182232 
L 106.387886 78.792461 
L 124.209239 74.357029 
L 146.832085 77.328472 
L 170.288352 86.641118 
L 191.17702 99.909954 
L 207.420149 113.93797 
L 218.654615 125.418092 
L 226.173357 131.669342 
L 232.440183 131.237838 
L 240.306001 124.223827 
L 252.126714 112.259118 
L 269.006888 98.140123 
L 290.362793 85.201387 
L 313.920948 76.574233 
L 336.162265 74.501013 
L 353.112661 79.861391 
L 361.294751 92.016594 
L 358.612741 109.002475 
L 344.954321 128.020423 
L 322.356834 146.105882 
L 294.685588 160.813761 
L 266.88623 170.757894 
L 243.973775 175.87822 
L 229.984336 177.375698 
L 227.12665 177.335374 
L 235.32634 178.13319 
L 252.266632 181.774169 
L 273.915692 189.326174 
L 295.419491 200.590455 
L 312.156022 214.093159 
L 320.711277 227.404485 
L 319.55772 237.712584 
L 309.287209 242.516736 
L 292.355425 240.273726 
L 272.409155 230.840146 
L 253.364187 215.599737 
L 238.457662 197.23799 
L 229.501308 179.20892 
L 226.5109 165.011712 
L 227.794785 157.440596 
L 230.472711 157.978976 
L 231.292054 166.47661 
L 227.536724 181.183947 
L 217.801713 199.13569 
L 202.438635 216.795526 
L 183.557084 230.81434 
L 164.574216 238.729239 
L 149.414987 239.445902 
L 141.551602 233.398607 
L 143.11243 222.358341 
L 154.277497 208.941808 
L 173.112786 195.943381 
L 195.893768 185.651974 
L 217.85405 179.316075 
L 234.194462 176.882748 
L 241.125318 177.069326 
L 236.704711 177.745843 
L 221.281065 176.531269 
L 197.438279 171.455137 
L 169.455574 161.520459 
L 142.405093 147.027608 
L 121.092349 129.576393 
L 109.078865 111.741194 
L 108.004828 96.493172 
L 117.357682 86.505393 
L 134.727403 83.506367 
L 156.475638 87.837872 
L 178.650666 98.326092 
L 197.9256 112.502075 
L 212.335927 127.12548 
L 221.644346 138.893878 
L 227.253275 145.175543 
L 231.696049 144.597074 
L 237.840332 137.350195 
L 248.007037 125.146792 
L 263.228541 110.832613 
L 282.836186 97.749016 
L 304.487181 88.990102 
L 324.633981 86.726012 
L 339.33071 91.746665 
L 345.187138 103.32772 
L 340.241436 119.44449 
L 324.53805 137.277963 
L 300.263409 153.889171 
L 271.394328 166.899886 
L 242.927993 175.01801 
L 219.861401 178.284725 
L 206.148618 177.988236 
L 203.87177 176.269589 
L 212.814287 175.520226 
L 230.533473 177.721107 
L 252.915263 183.887302 
L 275.083816 193.75659 
L 292.457997 205.801837 
L 301.714793 217.568723 
L 301.443462 226.261316 
L 292.34818 229.437072 
L 276.963399 225.64454 
L 258.960067 214.848384 
L 242.215354 198.534772 
L 229.871517 179.464437 
L 223.608642 161.123366 
L 223.301829 146.992629 
L 227.138995 139.80235 
L 232.163501 140.939978 
L 235.10303 150.148434 
L 233.277048 165.583437 
L 225.356211 184.21681 
L 211.782821 202.493177 
L 194.743285 217.089727 
L 177.692084 225.606089 
L 164.535985 227.029112 
L 158.671164 221.87109 
L 162.104276 211.957032 
L 174.871978 199.91865 
L 194.9056 188.52065 
L 218.384371 179.982517 
L 240.506062 175.457804 
L 256.50518 174.793251 
L 262.689168 176.621622 
L 257.256752 178.76125 
L 240.711136 178.821277 
L 215.773078 174.862067 
L 186.813265 165.94703 
L 158.933226 152.44823 
L 136.903619 136.027466 
L 124.199501 119.292785 
L 122.347268 105.20899 
L 130.723394 96.400906 
L 146.838546 94.515481 
L 167.027533 99.79667 
L 187.37225 110.97819 
L 204.633334 125.525087 
L 216.968392 140.173098 
L 228.047264 157.375881 
L 230.898593 156.092803 
L 235.698579 148.094508 
L 244.721296 135.186925 
L 258.913551 120.276989 
L 277.507541 106.722936 
L 298.076406 97.590367 
L 317.028759 94.985019 
L 330.430525 99.61419 
L 334.960673 110.674392 
L 328.771373 126.0858 
L 312.041698 143.012844 
L 287.083088 158.543766 
L 257.958537 170.365995 
L 229.691257 177.277037 
L 207.235825 179.411482 
L 194.442258 178.13382 
L 193.247559 175.627565 
L 203.278619 174.284369 
L 221.956818 176.044949 
L 245.079918 181.85531 
L 267.747702 191.37397 
L 285.419891 203.005501 
L 294.866189 214.256778 
L 294.795558 222.33397 
L 286.028413 224.838969 
L 271.183126 220.398084 
L 253.961737 209.069609 
L 238.212232 192.427371 
L 226.994599 173.29267 
L 221.873492 155.169578 
L 222.603168 141.508767 
L 227.274099 134.966402 
L 232.878513 136.827209 
L 236.15075 146.723944 
L 234.472005 162.717699 
L 226.613472 181.720592 
L 213.130926 200.163823 
L 196.307932 214.758231 
L 179.654288 223.174326 
L 167.074675 224.488973 
L 161.904075 219.301593 
L 166.0416 209.500634 
L 179.394385 197.742877 
L 199.772633 186.774494 
L 223.272074 178.758187 
L 245.065834 174.766983 
L 260.430736 174.563452 
L 265.776479 176.713345 
L 259.443289 179.001611 
L 242.085449 179.045814 
L 216.552461 174.954456 
L 187.294588 165.866945 
L 159.428094 152.240429 
L 137.672497 135.809706 
L 125.399543 119.225266 
L 124.005248 105.452521 
L 132.739154 97.073766 
L 149.017253 95.659371 
L 169.132335 101.36008 
L 189.184304 112.821483 
L 206.004693 127.446473 
L 217.855185 141.949773 
L 224.73784 153.079453 
L 228.250729 158.340356 
L 231.033847 156.552836 
L 235.949733 148.117726 
L 245.207625 134.926258 
L 259.653579 119.935751 
L 278.40884 106.509208 
L 298.954149 97.671149 
L 317.649067 95.450624 
L 330.568508 100.460894 
L 334.459336 111.809009 
L 327.587098 127.350735 
L 310.264925 144.225362 
L 284.928571 159.53996 
L 255.726588 171.038937 
L 227.708257 177.60009 
L 205.787229 179.441392 
L 193.713227 177.993107 
L 193.2847 175.470736 
L 203.98159 174.256358 
L 223.101699 176.242084 
L 246.368986 182.298487 
L 268.874246 192.000795 
L 286.133317 203.683565 
L 295.02273 214.815145 
L 294.383406 222.605484 
L 285.162108 224.703296 
L 270.069297 219.815074 
L 252.844896 208.094746 
L 237.313907 191.205194 
L 226.460432 172.029225 
L 221.74084 154.08988 
L 222.796644 140.80885 
L 227.629712 134.77087 
L 233.190091 137.162011 
L 236.226985 147.510642 
L 234.189872 163.79055 
L 225.95465 182.862535 
L 212.191945 201.153134 
L 195.281144 215.415202 
L 178.783804 223.39741 
L 166.597586 224.272395 
L 161.990954 218.730779 
L 166.750668 208.727058 
L 180.650705 196.944678 
L 201.377881 186.112492 
L 224.943332 178.33785 
L 246.494983 174.615359 
L 261.351129 174.626385 
L 266.021727 176.873347 
L 258.98472 179.11179 
L 241.039606 178.971378 
L 215.156888 174.611484 
L 185.85738 165.248779 
L 158.262676 151.425025 
L 137.032398 134.945846 
L 125.427765 118.500661 
L 124.709309 105.051231 
L 133.996812 97.133011 
L 150.610723 96.236058 
L 170.802229 102.415204 
L 190.690079 114.22636 
L 207.177095 129.009696 
L 218.628368 143.45885 
L 225.153911 154.347637 
L 228.436264 159.247864 
L 231.15473 157.07292 
L 236.155974 148.321552 
L 245.582203 134.965434 
L 260.178435 120.006537 
L 278.956954 106.80666 
L 299.310323 98.343761 
L 317.555003 96.565841 
L 329.781785 101.98928 
L 332.812311 113.630449 
L 325.031505 129.280879 
L 306.891125 146.055799 
L 280.954187 161.082476 
L 251.456419 172.163345 
L 223.474125 178.256792 
L 201.881182 179.663561 
L 190.329226 177.878336 
L 190.482087 175.146949 
L 201.678661 173.840576 
L 221.100843 175.802382 
L 244.407607 181.82868 
L 266.68978 191.414369 
L 283.527492 202.828706 
L 291.910531 213.507611 
L 290.815839 220.671695 
L 281.318077 222.02346 
L 266.219098 216.355996 
L 249.294435 203.924268 
L 234.343087 186.484473 
L 224.270334 166.984206 
L 220.421985 148.968229 
L 222.325423 135.832061 
L 227.893168 130.092464 
L 234.032389 132.841381 
L 237.50565 143.50854 
L 235.827514 159.987199 
L 227.972999 179.094152 
L 214.719282 197.258405 
L 198.530657 211.281005 
L 183.007496 218.993327 
L 172.026353 219.666221 
L 168.774979 214.08174 
L 174.914458 204.258636 
L 190.073817 192.903693 
L 211.806515 182.724186 
L 236.030761 175.767541 
L 257.862049 172.945498 
L 272.653255 173.854069 
L 277.007313 176.928367 
L 269.531668 179.890332 
L 251.161748 180.376735 
L 224.979004 176.591455 
L 195.564701 167.820254 
L 168.036641 154.67934 
L 146.987471 139.03317 
L 135.563805 123.596743 
L 134.890216 111.314184 
L 143.959999 104.660296 
L 160.004755 105.031954 
L 179.243483 112.376686 
L 197.824989 125.151079 
L 212.735486 140.62459 
L 222.455771 155.463116 
L 227.215966 166.460374 
L 228.795165 171.249608 
L 229.92444 168.831684 
L 233.448069 159.797569 
L 241.456422 146.193775 
L 254.610857 131.061914 
L 271.83437 117.758861 
L 290.452983 109.214313 
L 306.76289 107.296162 
L 316.893698 112.427849 
L 317.763672 123.542034 
L 307.896769 138.375673 
L 287.900033 154.031691 
L 260.477048 167.670646 
L 229.960783 177.166684 
L 201.461873 181.572463 
L 179.819706 181.284853 
L 168.591846 177.875959 
L 169.310777 173.634832 
L 181.177094 170.934931 
L 201.258773 171.58436 
L 225.150413 176.320059 
L 247.941251 184.572508 
L 265.270958 194.562296 
L 274.233957 203.709685 
L 273.930372 209.262046 
L 265.545816 208.990216 
L 251.953086 201.78608 
L 236.940356 188.01495 
L 224.256339 169.532526 
L 216.703053 149.354393 
L 215.492114 131.047675 
L 220.014498 117.980408 
L 228.072593 112.598731 
L 236.511145 115.896983 
L 242.087275 127.202178 
L 242.362031 144.322338 
L 236.390786 164.024575 
L 225.038304 182.733222 
L 210.835017 197.288383 
L 197.402304 205.5926 
L 188.579823 207.000864 
L 187.461977 202.370248 
L 195.575653 193.765548 
L 212.401162 183.897674 
L 235.359736 175.433057 
L 260.282347 170.340773 
L 282.261518 169.432848 
L 296.696928 172.205094 
L 300.298403 177.012574 
L 291.81763 181.532793 
L 272.341002 183.40031 
L 245.076137 180.855287 
L 214.680438 173.245108 
L 186.284579 161.253619 
L 164.432476 146.798139 
L 152.176367 132.614571 
L 150.527168 121.62665 
L 158.375686 116.248373 
L 172.889567 117.786435 
L 190.280255 126.087519 
L 206.749679 139.51875 
L 219.38772 155.291746 
L 226.807403 170.059817 
L 229.37122 180.653157 
L 228.962772 184.783538 
L 228.368947 181.556148 
L 230.432438 171.670289 
L 237.190111 157.262509 
L 249.216139 141.428449 
L 265.339196 127.533944 
L 282.812157 118.474162 
L 297.902378 116.050726 
L 306.767106 120.608119 
L 306.406743 131.009133 
L 295.465971 144.949304 
L 274.684816 159.530927 
L 246.881439 171.957173 
L 216.457157 180.180086 
L 188.526329 183.349075 
L 167.862944 181.955683 
L 157.900655 177.644178 
L 160.013015 172.738227 
L 173.237735 169.602293 
L 194.507597 169.996207 
L 219.334714 174.583018 
L 242.791344 182.713394 
L 260.563482 192.543143 
L 269.838705 201.459899 
L 269.830415 206.719683 
L 261.827088 206.142054 
L 248.766819 198.696357 
L 234.448122 184.835189 
L 222.571449 166.489299 
L 215.842802 146.717079 
L 215.352585 129.083032 
L 220.374157 116.903978 
L 228.623929 112.53399 
L 236.912836 116.851471 
L 242.02443 129.066033 
L 241.600122 146.889563 
L 234.810385 167.032212 
L 222.642375 185.909566 
L 207.727112 200.399394 
L 193.741079 208.476254 
L 184.521025 209.582108 
L 183.10223 204.65386 
L 190.912073 195.809433 
L 207.317219 185.773682 
L 229.641626 177.185269 
L 253.662924 171.951701 
L 274.482269 170.805956 
L 287.574042 173.168063 
L 289.777836 177.3407 
L 280.00642 180.987015 
L 259.507399 181.770857 
L 231.618175 178.000522 
L 201.069748 169.116301 
L 172.997773 155.899719 
L 151.885144 140.349384 
L 140.673915 125.24886 
L 140.242633 113.526742 
L 149.358252 107.560213 
L 165.100326 108.588706 
L 183.645438 116.379887 
L 201.21769 129.231883 
L 214.975655 144.316985 
L 223.625544 158.291719 
L 228.9 171.344833 
L 228.9 171.344833 
" clip-path="url(#pcf81a19197)" style="fill: none; stroke: #dc5e8b; stroke-width: 2.5; stroke-linecap: square"/>
   </g>
   <g id="line2d_4">
    <defs>
     <path id="m94b0ab9f4c" d="M 0 5 
C 1.326016 5 2.597899 4.473168 3.535534 3.535534 
C 4.473168 2.597899 5 1.326016 5 0 
C 5 -1.326016 4.473168 -2.597899 3.535534 -3.535534 
C 2.597899 -4.473168 1.326016 -5 0 -5 
C -1.326016 -5 -2.597899 -4.473168 -3.535534 -3.535534 
C -4.473168 -2.597899 -5 -1.326016 -5 0 
C -5 1.326016 -4.473168 2.597899 -3.535534 3.535534 
C -2.597899 4.473168 -1.326016 5 0 5 
z
" style="stroke: #000000; stroke-opacity: 0.8"/>
    </defs>
    <g clip-path="url(#pcf81a19197)">
     <use xlink:href="#m94b0ab9f4c" x="228.9" y="171.344833" style="fill-opacity: 0.8; stroke: #000000; stroke-opacity: 0.8"/>
    </g>
   </g>
   <g id="patch_3">
    <path d="M 228.9 334.8 
L 228.9 20.016315 
" style="fill: none; stroke: #000000; stroke-width: 0.8; stroke-linejoin: miter; stroke-linecap: square"/>
   </g>
   <g id="patch_4">
    <path d="M 447 334.8 
L 447 20.016315 
" style="fill: none"/>
   </g>
   <g id="patch_5">
    <path d="M 10.8 177.408158 
L 447 177.408158 
" style="fill: none; stroke: #000000; stroke-width: 0.8; stroke-linejoin: miter; stroke-linecap: square"/>
   </g>
   <g id="patch_6">
    <path d="M 10.8 20.016315 
L 447 20.016315 
" style="fill: none"/>
   </g>
  </g>
 </g>
 <defs>
  <clipPath id="pcf81a19197">
   <rect x="10.8" y="20.016315" width="436.2" height="314.783685"/>
  </clipPath>
 </defs>
</svg>
