<?xml version="1.0" encoding="utf-8" standalone="no"?>
<!DOCTYPE svg PUBLIC "-//W3C//DTD SVG 1.1//EN"
  "http://www.w3.org/Graphics/SVG/1.1/DTD/svg11.dtd">
<svg xmlns:xlink="http://www.w3.org/1999/xlink" width="460.8pt" height="345.6pt" viewBox="0 0 460.8 345.6" xmlns="http://www.w3.org/2000/svg" version="1.1">
 <metadata>
  <rdf:RDF xmlns:dc="http://purl.org/dc/elements/1.1/" xmlns:cc="http://creativecommons.org/ns#" xmlns:rdf="http://www.w3.org/1999/02/22-rdf-syntax-ns#">
   <cc:Work>
    <dc:type rdf:resource="http://purl.org/dc/dcmitype/StillImage"/>
    <dc:date>2026-03-24T23:51:39.723606</dc:date>
    <dc:format>image/svg+xml</dc:format>
    <dc:creator>
     <cc:Agent>
      <dc:title>Matplotlib v3.10.8, https://matplotlib.org/</dc:title>
     </cc:Agent>
    </dc:creator>
   </cc:Work>
  </rdf:RDF>
 </metadata>
 <defs>
  <style type="text/css">*{stroke-linejoin: round; stroke-linecap: butt}</style>
 </defs>
 <g id="figure_1">
  <g id="patch_1">
   <path d="M 0 345.6 
L 460.8 345.6 
L 460.8 0 
L 0 0 
L 0 345.6 
z
" style="fill: none"/>
  </g>
  <g id="axes_1">
   <g id="patch_2">
    <path d="M 10.8 334.8 
L 447 334.8 
L 447 24.444473 
L 10.8 24.444473 
L 10.8 334.8 
z
" style="fill: none"/>
   </g>
   <g id="matplotlib.axis_1">
    <g id="text_1">
     <!-- $x$ -->
     <g transform="translate(430.369782 204.377732) scale(0.3 -0.3)">
      <defs>
       <path id="CMMI12-78" d="M 3034 2606 
C 2829 2567 2752 2414 2752 2293 
C 2752 2139 2874 2088 2963 2088 
C 3155 2088 3290 2254 3290 2427 
C 3290 2695 2982 2816 2714 2816 
C 2323 2816 2106 2433 2048 2312 
C 1901 2816 1504 2816 1389 2816 
C 736 2816 390 1980 390 1839 
C 390 1814 416 1782 461 1782 
C 512 1782 525 1820 538 1846 
C 755 2555 1184 2689 1370 2689 
C 1658 2689 1715 2420 1715 2267 
C 1715 2127 1677 1980 1600 1673 
L 1382 798 
C 1286 415 1101 64 762 64 
C 730 64 570 64 435 147 
C 666 192 717 383 717 460 
C 717 588 621 664 499 664 
C 346 664 179 530 179 326 
C 179 57 480 -64 755 -64 
C 1062 -64 1280 179 1414 441 
C 1517 64 1837 -64 2074 -64 
C 2726 -64 3072 773 3072 913 
C 3072 945 3046 971 3008 971 
C 2950 971 2944 939 2925 888 
C 2752 326 2381 64 2093 64 
C 1869 64 1747 230 1747 492 
C 1747 632 1773 734 1875 1156 
L 2099 2024 
C 2195 2408 2413 2689 2707 2689 
C 2720 2689 2899 2689 3034 2606 
z
" transform="scale(0.015625)"/>
      </defs>
      <use xlink:href="#CMMI12-78" transform="scale(0.996264)"/>
     </g>
    </g>
   </g>
   <g id="matplotlib.axis_2">
    <g id="text_2">
     <!-- $y$ -->
     <g transform="translate(210.630756 18.631022) scale(0.3 -0.3)">
      <defs>
       <path id="CMMI12-79" d="M 1683 -700 
C 1510 -939 1261 -1152 947 -1152 
C 870 -1152 563 -1152 467 -889 
C 486 -895 518 -895 531 -895 
C 723 -895 851 -729 851 -582 
C 851 -435 730 -384 634 -384 
C 531 -384 307 -458 307 -759 
C 307 -1071 582 -1286 947 -1286 
C 1587 -1286 2234 -700 2413 6 
L 3040 2485 
C 3046 2517 3059 2556 3059 2594 
C 3059 2689 2982 2753 2886 2753 
C 2829 2753 2694 2727 2643 2535 
L 2170 658 
C 2138 543 2138 530 2086 460 
C 1958 281 1747 64 1440 64 
C 1082 64 1050 415 1050 588 
C 1050 952 1222 1443 1395 1903 
C 1466 2088 1504 2178 1504 2305 
C 1504 2574 1312 2816 998 2816 
C 410 2816 173 1890 173 1839 
C 173 1814 198 1782 243 1782 
C 301 1782 307 1807 333 1897 
C 486 2433 730 2689 979 2689 
C 1037 2689 1146 2689 1146 2478 
C 1146 2312 1075 2127 979 1884 
C 666 1047 666 837 666 683 
C 666 77 1101 -64 1421 -64 
C 1606 -64 1837 -6 2061 230 
L 2067 224 
C 1971 -147 1907 -392 1683 -700 
z
" transform="scale(0.015625)"/>
      </defs>
      <use xlink:href="#CMMI12-79" transform="scale(0.996264)"/>
     </g>
    </g>
   </g>
   <g id="line2d_1">
    <defs>
     <path id="m38ae0358f3" d="M 3 0 
L -3 -3 
L -3 3 
z
" style="stroke: #000000; stroke-linejoin: miter"/>
    </defs>
    <g>
     <use xlink:href="#m38ae0358f3" x="447" y="179.622236" style="stroke: #000000; stroke-linejoin: miter"/>
    </g>
   </g>
   <g id="line2d_2">
    <defs>
     <path id="m6c0b9792f7" d="M 0 -3 
L -3 3 
L 3 3 
z
" style="stroke: #000000; stroke-linejoin: miter"/>
    </defs>
    <g>
     <use xlink:href="#m6c0b9792f7" x="228.9" y="24.444473" style="stroke: #000000; stroke-linejoin: miter"/>
    </g>
   </g>
   <g id="line2d_3">
    <path d="M 228.9 179.622236 
L 229.684165 179.496822 
L 230.352833 179.132792 
L 230.714103 178.723861 
L 230.911909 178.223362 
L 230.915422 177.659975 
L 230.702958 177.066882 
L 230.263167 176.480374 
L 229.595818 175.938304 
L 228.712139 175.478452 
L 227.634706 175.136859 
L 226.396869 174.946196 
L 225.041733 174.93423 
L 223.620722 175.122439 
L 222.191782 175.524849 
L 220.817266 176.147117 
L 219.561592 176.985921 
L 218.488741 178.028673 
L 217.659691 179.253577 
L 217.270115 180.156611 
L 217.028253 181.11608 
L 216.946787 182.119439 
L 217.036251 183.152843 
L 217.304787 184.201345 
L 217.757933 185.249102 
L 218.398449 186.279604 
L 219.226177 187.275928 
L 220.237957 188.220989 
L 221.427574 189.097816 
L 222.785761 189.889819 
L 224.300253 190.58107 
L 225.955873 191.156569 
L 227.73469 191.602509 
L 229.616198 191.906528 
L 231.577561 192.057941 
L 233.593884 192.047963 
L 235.638531 191.869892 
L 237.683476 191.519279 
L 239.699679 190.994066 
L 241.657494 190.294679 
L 243.52709 189.424109 
L 245.278889 188.387929 
L 246.884008 187.194302 
L 248.314706 185.853922 
L 249.544817 184.379944 
L 250.550182 182.787853 
L 251.309052 181.095308 
L 251.802468 179.321953 
L 252.014614 177.489183 
L 251.933128 175.619889 
L 251.549371 173.738172 
L 250.858655 171.869034 
L 249.860409 170.038045 
L 248.558296 168.271001 
L 246.96028 166.593565 
L 245.078615 165.030903 
L 242.929791 163.607323 
L 240.534412 162.345909 
L 237.917009 161.268175 
L 235.105801 160.393723 
L 232.132394 159.739928 
L 229.031433 159.321644 
L 225.840192 159.150936 
L 222.598133 159.236853 
L 219.346414 159.585226 
L 216.127368 160.198517 
L 212.983955 161.075707 
L 209.959192 162.212226 
L 207.095572 163.599938 
L 204.434475 165.227168 
L 202.015588 167.078781 
L 199.876329 169.136309 
L 198.051298 171.378123 
L 196.571745 173.779661 
L 195.465084 176.313685 
L 194.754445 178.950598 
L 194.458267 181.65878 
L 194.589963 184.404971 
L 195.157629 187.154681 
L 196.163832 189.87262 
L 197.605458 192.52315 
L 199.473641 195.070753 
L 201.753766 197.480499 
L 204.425544 199.718524 
L 207.463167 201.752492 
L 210.835546 203.552057 
L 214.50661 205.089295 
L 218.435688 206.339122 
L 222.577954 207.279677 
L 226.884937 207.892666 
L 231.305085 208.163672 
L 235.784384 208.082415 
L 240.267015 207.642961 
L 244.696055 206.843882 
L 249.014191 205.688353 
L 253.164466 204.184195 
L 257.091022 202.343859 
L 260.739847 200.18434 
L 264.059511 197.727042 
L 265.580715 196.394572 
L 267.001871 194.997576 
L 268.317586 193.539871 
L 269.522759 192.025499 
L 270.612592 190.458721 
L 271.582618 188.844001 
L 272.428707 187.185994 
L 273.147093 185.489536 
L 273.73438 183.759624 
L 274.187563 182.001407 
L 274.504037 180.220168 
L 274.681608 178.421308 
L 274.718508 176.61033 
L 274.613399 174.792823 
L 274.365383 172.974443 
L 273.97401 171.160896 
L 273.439281 169.357923 
L 272.761652 167.571276 
L 271.942036 165.806706 
L 270.981805 164.06994 
L 269.882788 162.366665 
L 268.64727 160.702507 
L 267.277985 159.083014 
L 265.778117 157.513641 
L 264.151288 155.999724 
L 262.40155 154.54647 
L 260.533378 153.158934 
L 258.551661 151.842003 
L 256.461681 150.600381 
L 254.26911 149.43857 
L 251.979985 148.360857 
L 249.6007 147.371295 
L 247.137982 146.473691 
L 244.598875 145.671591 
L 241.990721 144.968266 
L 239.321135 144.366701 
L 236.597988 143.869585 
L 233.829378 143.479293 
L 231.023611 143.197885 
L 228.189173 143.027091 
L 225.334706 142.968307 
L 222.46898 143.022583 
L 219.600868 143.190624 
L 216.739318 143.472779 
L 213.893324 143.869041 
L 211.071898 144.379042 
L 208.284042 145.002053 
L 205.53872 145.736985 
L 202.844829 146.582387 
L 200.211168 147.536449 
L 197.646412 148.597006 
L 195.159084 149.761542 
L 192.757524 151.027194 
L 190.449862 152.390761 
L 188.243995 153.848712 
L 186.147553 155.39719 
L 184.16788 157.032027 
L 182.312003 158.748756 
L 180.586613 160.542616 
L 178.998035 162.408573 
L 177.552212 164.341329 
L 176.254678 166.335339 
L 175.110543 168.384826 
L 174.124468 170.483799 
L 173.300654 172.626068 
L 172.642817 174.805264 
L 172.154183 177.014859 
L 171.837464 179.248184 
L 171.694856 181.498448 
L 171.72802 183.758761 
L 171.93808 186.022153 
L 172.32561 188.281599 
L 172.890633 190.530037 
L 173.632615 192.76039 
L 174.550464 194.965592 
L 175.642529 197.138606 
L 176.906601 199.27245 
L 178.339918 201.360219 
L 179.939168 203.395102 
L 181.7005 205.370412 
L 183.619526 207.279604 
L 185.691338 209.116294 
L 187.910514 210.874285 
L 190.271137 212.547584 
L 192.766809 214.130427 
L 195.390665 215.617292 
L 198.135396 217.002923 
L 200.993266 218.282345 
L 203.956136 219.450886 
L 207.015485 220.504188 
L 210.162436 221.438226 
L 213.387779 222.249323 
L 216.682004 222.934163 
L 220.035321 223.489802 
L 223.437694 223.913682 
L 226.878871 224.203642 
L 230.348414 224.357924 
L 233.835728 224.375183 
L 237.3301 224.254496 
L 240.820725 223.995361 
L 244.296742 223.59771 
L 247.747269 223.061903 
L 251.161437 222.388738 
L 254.528421 221.579443 
L 257.837478 220.635681 
L 261.07798 219.559543 
L 264.239446 218.353548 
L 267.311581 217.020635 
L 270.284301 215.564157 
L 273.147777 213.987872 
L 275.892455 212.295936 
L 278.509099 210.49289 
L 280.988813 208.58365 
L 283.323078 206.573491 
L 285.503775 204.468035 
L 287.523216 202.273236 
L 289.374171 199.99536 
L 291.049891 197.640971 
L 292.544133 195.216909 
L 293.851185 192.730272 
L 294.965883 190.188395 
L 295.883632 187.598827 
L 296.600424 184.969313 
L 297.112855 182.307763 
L 297.418136 179.622236 
L 297.514107 176.920913 
L 297.399249 174.212068 
L 297.072691 171.504049 
L 296.534213 168.805249 
L 295.784256 166.124081 
L 294.823923 163.468949 
L 293.654976 160.848226 
L 292.279837 158.270224 
L 290.701584 155.743171 
L 288.923943 153.275181 
L 286.951284 150.874232 
L 284.788605 148.548136 
L 282.441527 146.304518 
L 279.916274 144.150789 
L 277.219658 142.094119 
L 274.359063 140.141419 
L 271.342426 138.299314 
L 268.178208 136.574122 
L 264.875381 134.971832 
L 261.443394 133.498083 
L 257.892151 132.158146 
L 254.23198 130.956907 
L 250.473604 129.898844 
L 246.62811 128.988016 
L 242.706916 128.228048 
L 238.721736 127.622112 
L 234.684548 127.172923 
L 230.607555 126.88272 
L 226.503148 126.753262 
L 222.383873 126.785817 
L 218.262385 126.981158 
L 214.151416 127.339555 
L 210.063732 127.860774 
L 206.012096 128.544073 
L 202.009223 129.388205 
L 198.067748 130.391414 
L 194.200179 131.551443 
L 190.418861 132.865537 
L 186.735936 134.330445 
L 183.163303 135.942434 
L 179.712581 137.697293 
L 176.395073 139.590349 
L 173.221724 141.616471 
L 170.20309 143.770093 
L 167.349301 146.045223 
L 164.670028 148.43546 
L 162.174449 150.934015 
L 159.871221 153.533727 
L 157.768446 156.227085 
L 155.873648 159.006251 
L 154.193742 161.863077 
L 152.735013 164.789137 
L 151.503091 167.775747 
L 150.502932 170.813988 
L 149.738797 173.894741 
L 149.214238 177.008707 
L 148.93208 180.146437 
L 148.894413 183.298362 
L 149.102578 186.454822 
L 149.557161 189.606093 
L 150.257987 192.742422 
L 151.204117 195.854051 
L 152.393849 198.931252 
L 153.824714 201.964357 
L 155.493486 204.943784 
L 157.396187 207.860074 
L 159.528093 210.703915 
L 161.883747 213.466176 
L 164.456973 216.137932 
L 167.240892 218.710497 
L 170.227938 221.17545 
L 173.409878 223.524662 
L 176.777839 225.750324 
L 180.322326 227.844973 
L 184.033255 229.801513 
L 187.899976 231.613244 
L 191.911307 233.273884 
L 196.055565 234.777585 
L 200.320599 236.118961 
L 204.693829 237.2931 
L 209.162278 238.295586 
L 213.712615 239.122514 
L 218.331192 239.770504 
L 223.004085 240.236712 
L 227.717139 240.518846 
L 232.456007 240.61517 
L 237.206196 240.524519 
L 241.95311 240.246298 
L 246.682096 239.780491 
L 251.378489 239.12766 
L 256.027656 238.288952 
L 260.615044 237.266092 
L 265.126225 236.061383 
L 269.546937 234.677701 
L 273.863138 233.11849 
L 278.06104 231.38775 
L 282.127162 229.490033 
L 286.048367 227.430425 
L 289.811908 225.214538 
L 293.405468 222.848493 
L 296.8172 220.338899 
L 300.035764 217.692844 
L 303.050369 214.917867 
L 305.850805 212.021938 
L 308.42748 209.01344 
L 310.771448 205.901138 
L 312.874445 202.69416 
L 314.728916 199.401966 
L 316.328037 196.034319 
L 317.665748 192.601263 
L 318.736766 189.113084 
L 319.536612 185.580286 
L 320.061624 182.013558 
L 320.308973 178.423738 
L 320.276677 174.821785 
L 319.963608 171.218742 
L 319.369502 167.625704 
L 318.494962 164.053784 
L 317.34146 160.514075 
L 315.911335 157.017623 
L 314.207793 153.575384 
L 312.234897 150.198196 
L 309.99756 146.896742 
L 307.501532 143.681517 
L 304.753389 140.562794 
L 301.760511 137.550593 
L 298.531068 134.654646 
L 295.073994 131.884369 
L 291.398963 129.248829 
L 287.516365 126.756714 
L 283.437275 124.41631 
L 279.173419 122.235464 
L 274.737146 120.221567 
L 270.141388 118.381525 
L 265.399622 116.721735 
L 260.525834 115.248065 
L 255.534477 113.965832 
L 250.440425 112.879787 
L 245.258931 111.99409 
L 240.005583 111.312305 
L 234.696255 110.837377 
L 229.347056 110.571629 
L 223.97429 110.516743 
L 218.594396 110.673761 
L 213.223906 111.043073 
L 207.879388 111.624417 
L 202.5774 112.416875 
L 197.334434 113.418872 
L 192.166869 114.628182 
L 187.090917 116.041929 
L 182.122572 117.656597 
L 177.277564 119.468031 
L 172.571302 121.471458 
L 168.018831 123.661488 
L 163.634783 126.032136 
L 159.433327 128.576837 
L 155.428128 131.288459 
L 151.632297 134.159331 
L 148.058355 137.181257 
L 144.718185 140.345543 
L 141.622998 143.643022 
L 138.783295 147.064078 
L 136.208827 150.598679 
L 133.908569 154.2364 
L 131.890684 157.966458 
L 130.162497 161.777743 
L 128.730467 165.65885 
L 127.600166 169.598115 
L 126.776257 173.583648 
L 126.262477 177.603371 
L 126.061621 181.645052 
L 126.175529 185.696346 
L 126.605079 189.744827 
L 127.350178 193.778032 
L 128.40976 197.783496 
L 129.781786 201.748793 
L 131.463245 205.66157 
L 133.450161 209.50959 
L 135.737601 213.280769 
L 138.319685 216.963214 
L 141.189606 220.545258 
L 144.339639 224.015501 
L 147.76117 227.362842 
L 151.444713 230.576519 
L 155.37994 233.64614 
L 159.555707 236.561718 
L 163.960086 239.313702 
L 168.580402 241.89301 
L 173.403263 244.291057 
L 178.414605 246.499787 
L 183.599731 248.511693 
L 188.943349 250.319851 
L 194.429628 251.917935 
L 200.042232 253.300246 
L 205.764378 254.461725 
L 211.578884 255.397978 
L 217.468217 256.105287 
L 223.41455 256.580627 
L 229.399815 256.821674 
L 235.405755 256.826819 
L 241.413984 256.595174 
L 247.406041 256.126577 
L 253.363447 255.421595 
L 259.267761 254.481525 
L 265.10064 253.308395 
L 270.843893 251.904955 
L 276.479538 250.274678 
L 281.989859 248.421746 
L 287.357464 246.351042 
L 292.565336 244.068138 
L 297.596887 241.579281 
L 302.436014 238.891374 
L 307.067148 236.011956 
L 311.475305 232.949187 
L 315.646133 229.711816 
L 319.565961 226.309166 
L 323.221839 222.7511 
L 326.601586 219.047994 
L 329.693828 215.210709 
L 332.488035 211.250557 
L 334.974556 207.179271 
L 337.144656 203.008964 
L 338.990542 198.7521 
L 340.50539 194.421452 
L 341.683374 190.030065 
L 342.519683 185.591218 
L 343.010542 181.118383 
L 343.153224 176.625183 
L 342.946068 172.125352 
L 342.388481 167.632693 
L 341.480949 163.161033 
L 340.225034 158.724184 
L 338.62338 154.335901 
L 336.679701 150.009834 
L 334.398778 145.75949 
L 331.786448 141.598191 
L 328.849585 137.539028 
L 325.596089 133.594827 
L 322.03486 129.778099 
L 318.175776 126.101012 
L 314.029666 122.57534 
L 309.608278 119.212436 
L 304.924251 116.023188 
L 299.991072 113.017988 
L 294.823042 110.206696 
L 289.435233 107.598611 
L 283.843446 105.202435 
L 278.064162 103.026251 
L 272.114495 101.077491 
L 266.012141 99.36291 
L 259.775326 97.888568 
L 253.422751 96.659807 
L 246.973537 95.681228 
L 240.447165 94.956679 
L 233.86342 94.489242 
L 227.242329 94.281214 
L 220.604101 94.334104 
L 213.969065 94.648623 
L 207.35761 95.224679 
L 200.790117 96.061376 
L 194.286901 97.157011 
L 187.868146 98.509082 
L 181.553845 100.114287 
L 175.363734 101.968536 
L 169.317232 104.066959 
L 163.43338 106.403918 
L 157.730782 108.973023 
L 152.227546 111.76715 
L 146.941224 114.77846 
L 141.888762 117.998417 
L 137.086438 121.417819 
L 132.549816 125.026818 
L 128.293693 128.814953 
L 124.332051 132.771176 
L 120.678013 136.883887 
L 117.343795 141.140968 
L 114.340674 145.529816 
L 111.678941 150.037383 
L 109.367873 154.650214 
L 107.415696 159.354488 
L 105.829561 164.136055 
L 104.615515 168.980485 
L 103.77848 173.873108 
L 103.322236 178.799057 
L 103.249402 183.743318 
L 103.561429 188.69077 
L 104.258586 193.626236 
L 105.33996 198.534526 
L 106.803456 203.400487 
L 108.645794 208.209046 
L 110.86252 212.945262 
L 113.448016 217.594366 
L 116.395511 222.141812 
L 119.697101 226.57332 
L 123.343766 230.874923 
L 127.325401 235.033007 
L 131.630834 239.034359 
L 136.247868 242.866205 
L 141.163307 246.516252 
L 146.362996 249.97273 
L 151.831864 253.224424 
L 157.553965 256.260716 
L 163.512524 259.071616 
L 169.689989 261.647796 
L 176.068078 263.980622 
L 182.627839 266.062179 
L 189.349701 267.885302 
L 196.213535 269.443598 
L 203.198714 270.731467 
L 210.284173 271.744124 
L 217.448477 272.477615 
L 224.669881 272.928833 
L 231.926398 273.095526 
L 239.195867 272.976314 
L 246.456019 272.570687 
L 253.684545 271.879018 
L 260.859168 270.902556 
L 267.957706 269.643433 
L 274.958145 268.104654 
L 281.838707 266.290091 
L 288.577915 264.20448 
L 295.154661 261.853399 
L 301.548274 259.243261 
L 307.738584 256.381296 
L 313.705984 253.275526 
L 319.431494 249.934749 
L 324.896819 246.36851 
L 330.084412 242.587076 
L 334.977523 238.601407 
L 339.560259 234.42312 
L 343.817634 230.064462 
L 347.735616 225.538269 
L 351.301175 220.857928 
L 354.502324 216.037344 
L 357.328162 211.090889 
L 359.768906 206.033367 
L 361.815931 200.879967 
L 363.461793 195.646216 
L 364.700261 190.347935 
L 365.526336 185.001188 
L 365.936272 179.622236 
L 365.927588 174.227487 
L 365.499086 168.833445 
L 364.650852 163.45666 
L 363.384261 158.113677 
L 361.701977 152.820985 
L 359.607952 147.594969 
L 357.10741 142.451853 
L 354.206841 137.407656 
L 350.913984 132.478138 
L 347.237802 127.678754 
L 343.188464 123.024602 
L 338.777315 118.530379 
L 334.01684 114.210332 
L 328.920638 110.078215 
L 323.503375 106.147242 
L 317.780746 102.43005 
L 311.769429 98.938654 
L 305.487036 95.684409 
L 298.952062 92.677976 
L 292.183831 89.929284 
L 285.202437 87.447498 
L 278.028688 85.240991 
L 270.68404 83.317314 
L 263.190536 81.68317 
L 255.570736 80.344391 
L 247.847654 79.305921 
L 240.044686 78.571793 
L 232.185539 78.145118 
L 224.294158 78.028071 
L 216.394656 78.221884 
L 208.511237 78.726836 
L 200.668125 79.542251 
L 192.889488 80.666499 
L 185.199361 82.096997 
L 177.621578 83.830213 
L 170.179691 85.861678 
L 162.896902 88.185993 
L 155.79599 90.796844 
L 148.899236 93.687021 
L 142.228358 96.848437 
L 135.80444 100.272148 
L 129.647866 103.948381 
L 123.778254 107.86656 
L 118.214398 112.015338 
L 112.974201 116.382628 
L 108.074626 120.955639 
L 103.531632 125.720913 
L 99.360132 130.664365 
L 95.573934 135.771325 
L 92.185704 141.02658 
L 89.206921 146.414421 
L 86.647836 151.918688 
L 84.517442 157.52282 
L 82.823438 163.209906 
L 81.572206 168.962732 
L 80.768784 174.763837 
L 80.416852 180.595563 
L 80.518711 186.440113 
L 81.075275 192.2796 
L 82.086068 198.096106 
L 83.549215 203.871733 
L 85.461448 209.588663 
L 87.818112 215.229208 
L 90.613176 220.77587 
L 93.839247 226.21139 
L 97.487587 231.518803 
L 101.548141 236.681495 
L 106.00956 241.68325 
L 110.859237 246.508303 
L 116.083336 251.14139 
L 121.666838 255.567794 
L 127.593579 259.773396 
L 133.8463 263.744716 
L 140.406696 267.468956 
L 147.255467 270.934044 
L 154.372379 274.128673 
L 161.736321 277.042333 
L 169.325368 279.665351 
L 177.116848 281.98892 
L 185.087406 284.005129 
L 193.213076 285.706989 
L 201.469357 287.088459 
L 209.831277 288.144464 
L 218.27348 288.870914 
L 226.770295 289.264723 
L 235.295816 289.323813 
L 243.823983 289.047133 
L 252.328659 288.434655 
L 260.783712 287.487385 
L 269.163094 286.207357 
L 277.440922 284.597633 
L 285.591558 282.662293 
L 293.589687 280.406427 
L 301.410399 277.836123 
L 309.029261 274.95845 
L 316.4224 271.781435 
L 323.566573 268.314048 
L 330.43924 264.566171 
L 337.018637 260.548573 
L 343.283846 256.272877 
L 349.214858 251.751529 
L 354.792638 246.997759 
L 359.999188 242.025547 
L 364.817602 236.849575 
L 369.232122 231.485189 
L 373.22819 225.948354 
L 376.792494 220.255602 
L 379.913014 214.423987 
L 382.579061 208.471031 
L 384.781313 202.414672 
L 386.511849 196.273214 
L 387.764172 190.065264 
L 388.53324 183.809683 
L 388.815478 177.525524 
L 388.608796 171.231974 
L 387.912602 164.948302 
L 386.7278 158.693789 
L 385.056797 152.487678 
L 382.903499 146.349112 
L 380.273299 140.297073 
L 377.17307 134.350326 
L 373.611139 128.527358 
L 369.597276 122.846325 
L 365.142656 117.324989 
L 360.259839 111.98067 
L 354.962726 106.830185 
L 349.266526 101.889799 
L 343.187708 97.175173 
L 336.743955 92.701313 
L 329.954116 88.482525 
L 322.838145 84.532367 
L 315.417047 80.863605 
L 307.712815 77.488174 
L 299.748363 74.417141 
L 291.54746 71.660661 
L 283.134659 69.227955 
L 274.535223 67.127268 
L 265.775049 65.365851 
L 256.880589 63.949928 
L 247.878772 62.884682 
L 238.796924 62.17423 
L 229.66268 61.821614 
L 220.503903 61.828782 
L 211.348601 62.196585 
L 202.224836 62.924772 
L 193.160644 64.011981 
L 184.183944 65.455751 
L 175.322455 67.252517 
L 166.603609 69.397625 
L 158.054466 71.885341 
L 149.701631 74.708867 
L 141.571173 77.860356 
L 133.688536 81.33094 
L 126.07847 85.11075 
L 118.764946 89.188942 
L 111.771083 93.553735 
L 105.119075 98.192439 
L 98.83012 103.091494 
L 92.924353 108.236509 
L 87.420782 113.612305 
L 82.337226 119.202958 
L 77.69026 124.991848 
L 73.495157 130.961709 
L 69.765841 137.094677 
L 66.514841 143.372346 
L 63.753249 149.775825 
L 61.490682 156.285789 
L 59.735248 162.882544 
L 58.493519 169.546082 
L 57.77051 176.256144 
L 57.569654 182.99228 
L 57.892792 189.733912 
L 58.740161 196.460397 
L 60.110393 203.151092 
L 62.000513 209.785414 
L 64.405943 216.342904 
L 67.320517 222.803293 
L 70.736491 229.14656 
L 74.644566 235.353 
L 79.033913 241.403278 
L 83.892202 247.278496 
L 89.205637 252.960249 
L 94.958992 258.430679 
L 101.13566 263.672539 
L 107.717696 268.669242 
L 114.68587 273.404912 
L 122.019726 277.86444 
L 129.697636 282.033527 
L 137.696872 285.898732 
L 145.993665 289.447517 
L 154.56328 292.668281 
L 163.380089 295.550408 
L 172.417648 298.08429 
L 181.648775 300.261369 
L 191.045634 302.074161 
L 200.579814 303.51628 
L 210.222421 304.582463 
L 219.944164 305.268588 
L 229.715438 305.571689 
L 239.506424 305.489966 
L 249.287173 305.022797 
L 259.027698 304.170739 
L 268.698071 302.935531 
L 278.268508 301.32009 
L 287.709465 299.328505 
L 296.991731 296.966029 
L 306.086513 294.239063 
L 314.965528 291.155138 
L 323.601092 287.722901 
L 331.966206 283.952081 
L 340.034637 279.85347 
L 347.781006 275.438889 
L 355.180862 270.721152 
L 362.210763 265.714033 
L 368.848348 260.432224 
L 375.072411 254.89129 
L 380.862963 249.107627 
L 386.201302 243.098411 
L 391.07007 236.881546 
L 395.453311 230.475615 
L 399.33652 223.89982 
L 402.706695 217.173927 
L 405.552377 210.318205 
L 407.863688 203.353367 
L 409.632368 196.300506 
L 410.851803 189.181029 
L 411.517047 182.016598 
L 411.62484 174.829058 
L 411.173628 167.640374 
L 410.163564 160.472562 
L 408.596514 153.347623 
L 406.476058 146.287473 
L 403.807478 139.31388 
L 400.59775 132.448392 
L 396.855521 125.712274 
L 392.59109 119.126441 
L 387.816382 112.711392 
L 382.544909 106.487146 
L 376.791735 100.473185 
L 370.573434 94.688383 
L 363.908044 89.150956 
L 356.815007 83.878402 
L 349.315124 78.887442 
L 341.430483 74.193973 
L 333.184403 69.813011 
L 324.601357 65.758651 
L 315.706908 62.044013 
L 306.527624 58.681208 
L 297.091008 55.68129 
L 287.425406 53.054229 
L 277.559931 50.808871 
L 267.524367 48.952912 
L 257.349086 47.492871 
L 247.064952 46.434066 
L 236.703229 45.780599 
L 226.295485 45.535336 
L 215.873496 45.699901 
L 205.469151 46.274663 
L 195.114351 47.258734 
L 184.840915 48.649972 
L 174.680477 50.444982 
L 164.664395 52.639123 
L 154.823649 55.226522 
L 145.188748 58.200087 
L 135.789634 61.55153 
L 126.655591 65.271386 
L 117.815151 69.34904 
L 109.296007 73.772759 
L 101.124925 78.529726 
L 93.327662 83.606073 
L 85.928882 88.986926 
L 78.95208 94.656447 
L 72.419507 100.597879 
L 66.352099 106.793596 
L 60.769412 113.225158 
L 55.689556 119.873362 
L 51.129137 126.718302 
L 47.103205 133.739427 
L 43.625203 140.915602 
L 40.706924 148.225176 
L 38.358468 155.646042 
L 36.588212 163.155706 
L 35.402778 170.731356 
L 34.807008 178.349931 
L 34.803949 185.988188 
L 35.394837 193.62278 
L 36.579092 201.230318 
L 38.354311 208.787452 
L 40.716279 216.270936 
L 43.658973 223.657703 
L 47.174576 230.924932 
L 51.253504 238.050126 
L 55.884422 245.011174 
L 61.054284 251.786422 
L 66.748364 258.354744 
L 72.950301 264.695602 
L 79.642142 270.789114 
L 86.804399 276.616116 
L 94.4161 282.15822 
L 102.454855 287.397875 
L 110.89692 292.318421 
L 119.717265 296.904139 
L 128.889653 301.140309 
L 138.386712 305.013247 
L 148.180021 308.510358 
L 158.240194 311.62017 
L 168.536967 314.332379 
L 179.039291 316.637873 
L 189.715423 318.528771 
L 200.533026 319.998446 
L 211.45926 321.041548 
L 222.46089 321.654023 
L 233.504382 321.833128 
L 244.556005 321.577444 
L 255.581937 320.886879 
L 266.548365 319.762674 
L 277.421594 318.207403 
L 288.168143 316.224963 
L 298.754854 313.820569 
L 309.148993 311.00074 
L 319.318351 307.773279 
L 329.231341 304.147254 
L 338.857101 300.132974 
L 348.165587 295.741956 
L 357.127666 290.986895 
L 365.715211 285.881625 
L 373.901184 280.441084 
L 381.659725 274.681262 
L 388.966232 268.619164 
L 395.79744 262.27275 
L 402.131493 255.660889 
L 407.948016 248.803301 
L 413.228179 241.720497 
L 417.954758 234.433716 
L 422.11219 226.964869 
L 425.686627 219.336463 
L 428.665979 211.57154 
L 431.039955 203.693606 
L 432.800098 195.726558 
L 433.939817 187.694613 
L 434.454407 179.622236 
L 434.454407 179.622236 
" clip-path="url(#p999c3a3df9)" style="fill: none; stroke: #0072b2; stroke-width: 2.5; stroke-linecap: square"/>
   </g>
   <g id="line2d_4">
    <defs>
     <path id="m92ba8dcb3a" d="M 0 5 
C 1.326016 5 2.597899 4.473168 3.535534 3.535534 
C 4.473168 2.597899 5 1.326016 5 0 
C 5 -1.326016 4.473168 -2.597899 3.535534 -3.535534 
C 2.597899 -4.473168 1.326016 -5 0 -5 
C -1.326016 -5 -2.597899 -4.473168 -3.535534 -3.535534 
C -4.473168 -2.597899 -5 -1.326016 -5 0 
C -5 1.326016 -4.473168 2.597899 -3.535534 3.535534 
C -2.597899 4.473168 -1.326016 5 0 5 
z
" style="stroke: #000000; stroke-opacity: 0.8"/>
    </defs>
    <g clip-path="url(#p999c3a3df9)">
     <use xlink:href="#m92ba8dcb3a" x="434.454407" y="179.622236" style="fill-opacity: 0.8; stroke: #000000; stroke-opacity: 0.8"/>
    </g>
   </g>
   <g id="patch_3">
    <path d="M 228.9 334.8 
L 228.9 24.444473 
" style="fill: none; stroke: #000000; stroke-width: 0.8; stroke-linejoin: miter; stroke-linecap: square"/>
   </g>
   <g id="patch_4">
    <path d="M 447 334.8 
L 447 24.444473 
" style="fill: none"/>
   </g>
   <g id="patch_5">
    <path d="M 10.8 179.622236 
L 447 179.622236 
" style="fill: none; stroke: #000000; stroke-width: 0.8; stroke-linejoin: miter; stroke-linecap: square"/>
   </g>
   <g id="patch_6">
    <path d="M 10.8 24.444473 
L 447 24.444473 
" style="fill: none"/>
   </g>
  </g>
 </g>
 <defs>
  <clipPath id="p999c3a3df9">
   <rect x="10.8" y="24.444473" width="436.2" height="310.355527"/>
  </clipPath>
 </defs>
</svg>
