<?xml version="1.0" encoding="utf-8" standalone="no"?>
<!DOCTYPE svg PUBLIC "-//W3C//DTD SVG 1.1//EN"
  "http://www.w3.org/Graphics/SVG/1.1/DTD/svg11.dtd">
<svg xmlns:xlink="http://www.w3.org/1999/xlink" width="460.8pt" height="345.6pt" viewBox="0 0 460.8 345.6" xmlns="http://www.w3.org/2000/svg" version="1.1">
 <metadata>
  <rdf:RDF xmlns:dc="http://purl.org/dc/elements/1.1/" xmlns:cc="http://creativecommons.org/ns#" xmlns:rdf="http://www.w3.org/1999/02/22-rdf-syntax-ns#">
   <cc:Work>
    <dc:type rdf:resource="http://purl.org/dc/dcmitype/StillImage"/>
    <dc:date>2026-04-24T19:18:09.084357</dc:date>
    <dc:format>image/svg+xml</dc:format>
    <dc:creator>
     <cc:Agent>
      <dc:title>Matplotlib v3.10.8, https://matplotlib.org/</dc:title>
     </cc:Agent>
    </dc:creator>
   </cc:Work>
  </rdf:RDF>
 </metadata>
 <defs>
  <style type="text/css">*{stroke-linejoin: round; stroke-linecap: butt}</style>
 </defs>
 <g id="figure_1">
  <g id="patch_1">
   <path d="M 0 345.6 
L 460.8 345.6 
L 460.8 0 
L 0 0 
L 0 345.6 
z
" style="fill: none"/>
  </g>
  <g id="axes_1">
   <g id="patch_2">
    <path d="M 10.8 334.8 
L 447 334.8 
L 447 20.016315 
L 10.8 20.016315 
L 10.8 334.8 
z
" style="fill: none"/>
   </g>
   <g id="matplotlib.axis_1">
    <g id="text_1">
     <!-- $x$ -->
     <g transform="translate(435.913188 247.709102) scale(0.2 -0.2)">
      <defs>
       <path id="CMMI12-78" d="M 3034 2606 
C 2829 2567 2752 2414 2752 2293 
C 2752 2139 2874 2088 2963 2088 
C 3155 2088 3290 2254 3290 2427 
C 3290 2695 2982 2816 2714 2816 
C 2323 2816 2106 2433 2048 2312 
C 1901 2816 1504 2816 1389 2816 
C 736 2816 390 1980 390 1839 
C 390 1814 416 1782 461 1782 
C 512 1782 525 1820 538 1846 
C 755 2555 1184 2689 1370 2689 
C 1658 2689 1715 2420 1715 2267 
C 1715 2127 1677 1980 1600 1673 
L 1382 798 
C 1286 415 1101 64 762 64 
C 730 64 570 64 435 147 
C 666 192 717 383 717 460 
C 717 588 621 664 499 664 
C 346 664 179 530 179 326 
C 179 57 480 -64 755 -64 
C 1062 -64 1280 179 1414 441 
C 1517 64 1837 -64 2074 -64 
C 2726 -64 3072 773 3072 913 
C 3072 945 3046 971 3008 971 
C 2950 971 2944 939 2925 888 
C 2752 326 2381 64 2093 64 
C 1869 64 1747 230 1747 492 
C 1747 632 1773 734 1875 1156 
L 2099 2024 
C 2195 2408 2413 2689 2707 2689 
C 2720 2689 2899 2689 3034 2606 
z
" transform="scale(0.015625)"/>
      </defs>
      <use xlink:href="#CMMI12-78" transform="scale(0.996264)"/>
     </g>
    </g>
   </g>
   <g id="matplotlib.axis_2">
    <g id="text_2">
     <!-- $y$ -->
     <g transform="translate(94.220499 16.140682) scale(0.2 -0.2)">
      <defs>
       <path id="CMMI12-79" d="M 1683 -700 
C 1510 -939 1261 -1152 947 -1152 
C 870 -1152 563 -1152 467 -889 
C 486 -895 518 -895 531 -895 
C 723 -895 851 -729 851 -582 
C 851 -435 730 -384 634 -384 
C 531 -384 307 -458 307 -759 
C 307 -1071 582 -1286 947 -1286 
C 1587 -1286 2234 -700 2413 6 
L 3040 2485 
C 3046 2517 3059 2556 3059 2594 
C 3059 2689 2982 2753 2886 2753 
C 2829 2753 2694 2727 2643 2535 
L 2170 658 
C 2138 543 2138 530 2086 460 
C 1958 281 1747 64 1440 64 
C 1082 64 1050 415 1050 588 
C 1050 952 1222 1443 1395 1903 
C 1466 2088 1504 2178 1504 2305 
C 1504 2574 1312 2816 998 2816 
C 410 2816 173 1890 173 1839 
C 173 1814 198 1782 243 1782 
C 301 1782 307 1807 333 1897 
C 486 2433 730 2689 979 2689 
C 1037 2689 1146 2689 1146 2478 
C 1146 2312 1075 2127 979 1884 
C 666 1047 666 837 666 683 
C 666 77 1101 -64 1421 -64 
C 1606 -64 1837 -6 2061 230 
L 2067 224 
C 1971 -147 1907 -392 1683 -700 
z
" transform="scale(0.015625)"/>
      </defs>
      <use xlink:href="#CMMI12-79" transform="scale(0.996264)"/>
     </g>
    </g>
   </g>
   <g id="line2d_1">
    <defs>
     <path id="m722ad8244c" d="M 3 0 
L -3 -3 
L -3 3 
z
" style="stroke: #000000; stroke-linejoin: miter"/>
    </defs>
    <g>
     <use xlink:href="#m722ad8244c" x="447" y="229.872105" style="stroke: #000000; stroke-linejoin: miter"/>
    </g>
   </g>
   <g id="line2d_2">
    <defs>
     <path id="m4d814a23b5" d="M 0 -3 
L -3 3 
L 3 3 
z
" style="stroke: #000000; stroke-linejoin: miter"/>
    </defs>
    <g>
     <use xlink:href="#m4d814a23b5" x="107.733333" y="20.016315" style="stroke: #000000; stroke-linejoin: miter"/>
    </g>
   </g>
   <g id="line2d_3">
    <path d="M 22.578897 -1 
L 28.097479 20.505716 
L 33.529012 40.786627 
L 38.854044 59.81701 
L 44.072575 77.64753 
L 49.184606 94.327839 
L 54.163511 109.825685 
L 59.035915 124.27733 
L 63.828444 137.802385 
L 68.514472 150.365534 
L 73.094 162.011363 
L 77.567027 172.783443 
L 81.933553 182.724335 
L 86.193579 191.875582 
L 90.347104 200.277717 
L 94.394128 207.970259 
L 98.334652 214.991713 
L 102.1953 221.422401 
L 105.949448 227.250041 
L 109.62372 232.54729 
L 113.191491 237.306279 
L 116.679387 241.592299 
L 120.060783 245.401595 
L 123.362302 248.792386 
L 126.583947 251.788233 
L 129.725716 254.412123 
L 132.814234 256.70503 
L 135.822877 258.665499 
L 138.77827 260.328824 
L 141.680413 261.709065 
L 144.529305 262.820028 
L 147.351572 263.682293 
L 150.120588 264.297761 
L 152.86298 264.682264 
L 155.605371 264.842805 
L 158.347763 264.779386 
L 161.090154 264.492006 
L 163.832546 263.980664 
L 166.601563 263.237126 
L 169.397204 262.254803 
L 172.219471 261.027046 
L 175.094989 259.532172 
L 178.023756 257.7565 
L 181.005774 255.686098 
L 184.041043 253.306779 
L 187.156186 250.579571 
L 190.351206 247.482243 
L 193.6261 243.991996 
L 196.98087 240.085462 
L 200.415516 235.738701 
L 203.930037 230.927203 
L 207.524434 225.625889 
L 211.225331 219.765493 
L 215.006104 213.357439 
L 218.893377 206.325049 
L 222.860526 198.684204 
L 226.934176 190.350519 
L 231.114326 181.285238 
L 235.374351 171.511372 
L 239.740878 160.932298 
L 244.213905 149.506468 
L 248.793432 137.191325 
L 253.133333 124.94421 
L 253.133333 124.94421 
" clip-path="url(#p751ebb87b2)" style="fill: none; stroke: #0072b2; stroke-width: 2.5; stroke-linecap: square"/>
   </g>
   <g id="line2d_4">
    <path d="M 253.133333 124.94421 
L 427.655925 -1 
L 427.655925 -1 
" clip-path="url(#p751ebb87b2)" style="fill: none; stroke: #0072b2; stroke-width: 2.5; stroke-linecap: square"/>
   </g>
   <g id="LineCollection_1">
    <path d="M 253.133333 229.872105 
L 253.133333 124.94421 
" clip-path="url(#p751ebb87b2)" style="fill: none; stroke-dasharray: 9.25,4; stroke-dashoffset: 0; stroke: #808080; stroke-width: 2.5"/>
   </g>
   <g id="LineCollection_2">
    <path d="M 107.733333 124.94421 
L 253.133333 124.94421 
" clip-path="url(#p751ebb87b2)" style="fill: none; stroke-dasharray: 9.25,4; stroke-dashoffset: 0; stroke: #808080; stroke-width: 2.5"/>
   </g>
   <g id="patch_3">
    <path d="M 107.733333 334.8 
L 107.733333 20.016315 
" style="fill: none; stroke: #000000; stroke-width: 0.8; stroke-linejoin: miter; stroke-linecap: square"/>
   </g>
   <g id="patch_4">
    <path d="M 447 334.8 
L 447 20.016315 
" style="fill: none"/>
   </g>
   <g id="patch_5">
    <path d="M 10.8 229.872105 
L 447 229.872105 
" style="fill: none; stroke: #000000; stroke-width: 0.8; stroke-linejoin: miter; stroke-linecap: square"/>
   </g>
   <g id="patch_6">
    <path d="M 10.8 20.016315 
L 447 20.016315 
" style="fill: none"/>
   </g>
   <g id="text_3">
    <!-- $a$ -->
    <g transform="translate(248.012552 248.430857) scale(0.2 -0.2)">
     <defs>
      <path id="CMMI12-61" d="M 1926 760 
C 1894 651 1894 639 1805 517 
C 1664 338 1382 64 1082 64 
C 819 64 672 300 672 677 
C 672 1028 870 1743 992 2012 
C 1210 2459 1510 2689 1760 2689 
C 2182 2689 2266 2165 2266 2114 
C 2266 2108 2246 2024 2240 2012 
L 1926 760 
z
M 2336 2395 
C 2266 2561 2093 2816 1760 2816 
C 1037 2816 256 1884 256 939 
C 256 307 627 -64 1062 -64 
C 1414 -64 1715 211 1894 422 
C 1958 45 2259 -64 2451 -64 
C 2643 -64 2797 51 2912 281 
C 3014 498 3104 888 3104 913 
C 3104 945 3078 971 3040 971 
C 2982 971 2976 939 2950 843 
C 2854 466 2733 64 2470 64 
C 2285 64 2272 230 2272 358 
C 2272 505 2291 575 2349 824 
C 2394 984 2426 1124 2477 1309 
C 2714 2267 2771 2497 2771 2535 
C 2771 2625 2701 2695 2605 2695 
C 2400 2695 2349 2472 2336 2395 
z
" transform="scale(0.015625)"/>
     </defs>
     <use xlink:href="#CMMI12-61" transform="scale(0.996264)"/>
    </g>
   </g>
   <g id="text_4">
    <!-- $L$ -->
    <g transform="translate(87.916167 129.924892) scale(0.2 -0.2)">
     <defs>
      <path id="CMMI12-4c" d="M 2349 3861 
C 2406 4103 2426 4167 2989 4167 
C 3162 4167 3206 4167 3206 4288 
C 3206 4352 3136 4352 3110 4352 
C 2982 4352 2835 4352 2707 4352 
L 1850 4352 
C 1728 4352 1587 4352 1466 4352 
C 1414 4352 1344 4352 1344 4231 
C 1344 4167 1402 4167 1498 4167 
C 1888 4167 1888 4116 1888 4046 
C 1888 4034 1888 3995 1862 3899 
L 998 472 
C 941 249 928 185 480 185 
C 358 185 294 185 294 70 
C 294 0 333 0 461 0 
L 3328 0 
C 3469 0 3475 6 3520 121 
L 4013 1478 
C 4026 1510 4038 1548 4038 1567 
C 4038 1605 4006 1631 3974 1631 
C 3968 1631 3936 1631 3923 1605 
C 3910 1599 3910 1586 3859 1465 
C 3654 905 3366 185 2285 185 
L 1670 185 
C 1581 185 1568 185 1530 192 
C 1459 198 1453 211 1453 262 
C 1453 307 1466 345 1478 401 
L 2349 3861 
z
" transform="scale(0.015625)"/>
     </defs>
     <use xlink:href="#CMMI12-4c" transform="scale(0.996264)"/>
    </g>
   </g>
   <g id="legend_1">
    <g id="patch_7">
     <path d="M 24.8 324.8 
L 98.416648 324.8 
Q 102.416648 324.8 102.416648 320.8 
L 102.416648 294.924366 
Q 102.416648 290.924366 98.416648 290.924366 
L 24.8 290.924366 
Q 20.8 290.924366 20.8 294.924366 
L 20.8 320.8 
Q 20.8 324.8 24.8 324.8 
z
" style="fill: #ffffff; opacity: 0.8; stroke: #cccccc; stroke-linejoin: miter"/>
    </g>
    <g id="line2d_5">
     <path d="M 28.8 305.924366 
L 48.8 305.924366 
L 68.8 305.924366 
" style="fill: none; stroke: #0072b2; stroke-width: 2.5; stroke-linecap: square"/>
    </g>
    <g id="text_5">
     <!-- $f$ -->
     <g transform="translate(84.8 312.924366) scale(0.2 -0.2)">
      <defs>
       <path id="CMMI12-66" d="M 2854 2566 
C 2982 2566 3034 2566 3034 2688 
C 3034 2752 2982 2752 2867 2752 
L 2349 2752 
C 2470 3429 2560 3897 2611 4107 
C 2650 4265 2784 4416 2950 4416 
C 3085 4416 3219 4358 3283 4298 
C 3034 4272 2957 4082 2957 3969 
C 2957 3837 3053 3759 3174 3759 
C 3302 3759 3494 3870 3494 4119 
C 3494 4393 3226 4544 2944 4544 
C 2669 4544 2400 4334 2272 4078 
C 2157 3848 2093 3611 1946 2752 
L 1517 2752 
C 1395 2752 1331 2752 1331 2637 
C 1331 2566 1370 2566 1498 2566 
L 1907 2566 
C 1792 1976 1530 542 1382 -137 
C 1274 -689 1178 -1152 858 -1152 
C 838 -1152 653 -1152 538 -1031 
C 864 -1005 864 -726 864 -720 
C 864 -593 768 -517 646 -517 
C 518 -517 326 -625 326 -867 
C 326 -1140 608 -1280 858 -1280 
C 1510 -1280 1779 -118 1850 199 
C 1965 688 2278 2376 2310 2566 
L 2854 2566 
z
" transform="scale(0.015625)"/>
      </defs>
      <use xlink:href="#CMMI12-66" transform="scale(0.996264)"/>
     </g>
    </g>
   </g>
   <g id="line2d_6">
    <path clip-path="url(#p751ebb87b2)" style="fill: none; stroke: #0072b2; stroke-width: 2"/>
   </g>
   <g id="line2d_7">
    <path clip-path="url(#p751ebb87b2)" style="fill: none; stroke: #0072b2; stroke-width: 2"/>
   </g>
   <g id="line2d_8">
    <path d="M 253.133333 124.94421 
L 242.743583 127.440347 
" clip-path="url(#p751ebb87b2)" style="fill: none; stroke: #0072b2; stroke-width: 2"/>
   </g>
   <g id="line2d_9">
    <path d="M 253.133333 124.94421 
L 259.751639 133.333229 
" clip-path="url(#p751ebb87b2)" style="fill: none; stroke: #0072b2; stroke-width: 2"/>
   </g>
   <g id="line2d_10">
    <path d="M 258.400003 132.242305 
L 247.866664 117.646115 
" clip-path="url(#p751ebb87b2)" style="fill: none; stroke: #0072b2; stroke-width: 2"/>
   </g>
   <g id="line2d_11">
    <path d="M 247.866664 117.646115 
L 252.537445 114.275447 
" clip-path="url(#p751ebb87b2)" style="fill: none; stroke: #0072b2; stroke-width: 2"/>
   </g>
   <g id="line2d_12">
    <path d="M 258.400003 132.242305 
L 263.070784 128.871637 
" clip-path="url(#p751ebb87b2)" style="fill: none; stroke: #0072b2; stroke-width: 2"/>
   </g>
   <g id="line2d_13">
    <path clip-path="url(#p751ebb87b2)" style="fill: none; stroke: #0072b2; stroke-width: 2"/>
   </g>
   <g id="line2d_14">
    <path clip-path="url(#p751ebb87b2)" style="fill: none; stroke: #0072b2; stroke-width: 2"/>
   </g>
  </g>
 </g>
 <defs>
  <clipPath id="p751ebb87b2">
   <rect x="10.8" y="20.016315" width="436.2" height="314.783685"/>
  </clipPath>
 </defs>
</svg>
