<?xml version="1.0" encoding="utf-8" standalone="no"?>
<!DOCTYPE svg PUBLIC "-//W3C//DTD SVG 1.1//EN"
  "http://www.w3.org/Graphics/SVG/1.1/DTD/svg11.dtd">
<svg xmlns:xlink="http://www.w3.org/1999/xlink" width="453.6pt" height="338.54pt" viewBox="0 0 453.6 338.54" xmlns="http://www.w3.org/2000/svg" version="1.1">
 <metadata>
  <rdf:RDF xmlns:dc="http://purl.org/dc/elements/1.1/" xmlns:cc="http://creativecommons.org/ns#" xmlns:rdf="http://www.w3.org/1999/02/22-rdf-syntax-ns#">
   <cc:Work>
    <dc:type rdf:resource="http://purl.org/dc/dcmitype/StillImage"/>
    <dc:date>2025-08-31T21:16:46.920670</dc:date>
    <dc:format>image/svg+xml</dc:format>
    <dc:creator>
     <cc:Agent>
      <dc:title>Matplotlib v3.9.1, https://matplotlib.org/</dc:title>
     </cc:Agent>
    </dc:creator>
   </cc:Work>
  </rdf:RDF>
 </metadata>
 <defs>
  <style type="text/css">*{stroke-linejoin: round; stroke-linecap: butt}</style>
 </defs>
 <g id="figure_1">
  <g id="patch_1">
   <path d="M 0 338.54 
L 453.6 338.54 
L 453.6 0 
L 0 0 
L 0 338.54 
z
" style="fill: none"/>
  </g>
  <g id="axes_1">
   <g id="patch_2">
    <path d="M 7.2 331.34 
L 443.4 331.34 
L 443.4 16.556315 
L 7.2 16.556315 
L 7.2 331.34 
z
" style="fill: none"/>
   </g>
   <g id="matplotlib.axis_1">
    <g id="text_1">
     <!-- $x$ -->
     <g transform="translate(432.313188 191.785154) scale(0.2 -0.2)">
      <defs>
       <path id="CMMI12-78" d="M 3034 2606 
C 2829 2567 2752 2414 2752 2293 
C 2752 2139 2874 2088 2963 2088 
C 3155 2088 3290 2254 3290 2427 
C 3290 2695 2982 2816 2714 2816 
C 2323 2816 2106 2433 2048 2312 
C 1901 2816 1504 2816 1389 2816 
C 736 2816 390 1980 390 1839 
C 390 1814 416 1782 461 1782 
C 512 1782 525 1820 538 1846 
C 755 2555 1184 2689 1370 2689 
C 1658 2689 1715 2420 1715 2267 
C 1715 2127 1677 1980 1600 1673 
L 1382 798 
C 1286 415 1101 64 762 64 
C 730 64 570 64 435 147 
C 666 192 717 383 717 460 
C 717 588 621 664 499 664 
C 346 664 179 530 179 326 
C 179 57 480 -64 755 -64 
C 1062 -64 1280 179 1414 441 
C 1517 64 1837 -64 2074 -64 
C 2726 -64 3072 773 3072 913 
C 3072 945 3046 971 3008 971 
C 2950 971 2944 939 2925 888 
C 2752 326 2381 64 2093 64 
C 1869 64 1747 230 1747 492 
C 1747 632 1773 734 1875 1156 
L 2099 2024 
C 2195 2408 2413 2689 2707 2689 
C 2720 2689 2899 2689 3034 2606 
z
" transform="scale(0.015625)"/>
      </defs>
      <use xlink:href="#CMMI12-78" transform="scale(0.996264)"/>
     </g>
    </g>
   </g>
   <g id="matplotlib.axis_2">
    <g id="text_2">
     <!-- $y$ -->
     <g transform="translate(80.927165 12.680682) scale(0.2 -0.2)">
      <defs>
       <path id="CMMI12-79" d="M 1683 -700 
C 1510 -939 1261 -1152 947 -1152 
C 870 -1152 563 -1152 467 -889 
C 486 -895 518 -895 531 -895 
C 723 -895 851 -729 851 -582 
C 851 -435 730 -384 634 -384 
C 531 -384 307 -458 307 -759 
C 307 -1071 582 -1286 947 -1286 
C 1587 -1286 2234 -700 2413 6 
L 3040 2485 
C 3046 2517 3059 2556 3059 2594 
C 3059 2689 2982 2753 2886 2753 
C 2829 2753 2694 2727 2643 2535 
L 2170 658 
C 2138 543 2138 530 2086 460 
C 1958 281 1747 64 1440 64 
C 1082 64 1050 415 1050 588 
C 1050 952 1222 1443 1395 1903 
C 1466 2088 1504 2178 1504 2305 
C 1504 2574 1312 2816 998 2816 
C 410 2816 173 1890 173 1839 
C 173 1814 198 1782 243 1782 
C 301 1782 307 1807 333 1897 
C 486 2433 730 2689 979 2689 
C 1037 2689 1146 2689 1146 2478 
C 1146 2312 1075 2127 979 1884 
C 666 1047 666 837 666 683 
C 666 77 1101 -64 1421 -64 
C 1606 -64 1837 -6 2061 230 
L 2067 224 
C 1971 -147 1907 -392 1683 -700 
z
" transform="scale(0.015625)"/>
      </defs>
      <use xlink:href="#CMMI12-79" transform="scale(0.996264)"/>
     </g>
    </g>
   </g>
   <g id="line2d_1">
    <defs>
     <path id="m8e056bf8bc" d="M 3 0 
L -3 -3 
L -3 3 
z
" style="stroke: #000000; stroke-linejoin: miter"/>
    </defs>
    <g>
     <use xlink:href="#m8e056bf8bc" x="443.4" y="173.948158" style="stroke: #000000; stroke-linejoin: miter"/>
    </g>
   </g>
   <g id="line2d_2">
    <defs>
     <path id="m4b669a4a0f" d="M 0 -3 
L -3 3 
L 3 3 
z
" style="stroke: #000000; stroke-linejoin: miter"/>
    </defs>
    <g>
     <use xlink:href="#m4b669a4a0f" x="94.44" y="16.556315" style="stroke: #000000; stroke-linejoin: miter"/>
    </g>
   </g>
   <g id="line2d_3">
    <path d="M 7.2 16.556315 
L 443.4 278.876053 
L 443.4 278.876053 
" clip-path="url(#p414eea729c)" style="fill: none; stroke: #0072b2; stroke-width: 2.5; stroke-linecap: square"/>
   </g>
   <g id="line2d_4">
    <defs>
     <path id="m5f4bbf5460" d="M 0 5 
C 1.326016 5 2.597899 4.473168 3.535534 3.535534 
C 4.473168 2.597899 5 1.326016 5 0 
C 5 -1.326016 4.473168 -2.597899 3.535534 -3.535534 
C 2.597899 -4.473168 1.326016 -5 0 -5 
C -1.326016 -5 -2.597899 -4.473168 -3.535534 -3.535534 
C -4.473168 -2.597899 -5 -1.326016 -5 0 
C -5 1.326016 -4.473168 2.597899 -3.535534 3.535534 
C -2.597899 4.473168 -1.326016 5 0 5 
z
" style="stroke: #000000; stroke-opacity: 0.8"/>
    </defs>
    <g clip-path="url(#p414eea729c)">
     <use xlink:href="#m5f4bbf5460" x="268.92" y="173.948158" style="fill-opacity: 0.8; stroke: #000000; stroke-opacity: 0.8"/>
    </g>
   </g>
   <g id="LineCollection_1">
    <path d="M 225.3 147.716184 
L 225.3 95.252236 
" clip-path="url(#p414eea729c)" style="fill: none; stroke-dasharray: 2.5,4.125; stroke-dashoffset: 0; stroke: #dc5e8b; stroke-width: 2.5"/>
   </g>
   <g id="LineCollection_2">
    <path d="M 138.06 95.252236 
L 225.3 95.252236 
" clip-path="url(#p414eea729c)" style="fill: none; stroke-dasharray: 2.5,4.125; stroke-dashoffset: 0; stroke: #dc5e8b; stroke-width: 2.5"/>
   </g>
   <g id="patch_3">
    <path d="M 94.44 331.34 
L 94.44 16.556315 
" style="fill: none; stroke: #000000; stroke-width: 0.8; stroke-linejoin: miter; stroke-linecap: square"/>
   </g>
   <g id="patch_4">
    <path d="M 443.4 331.34 
L 443.4 16.556315 
" style="fill: none"/>
   </g>
   <g id="patch_5">
    <path d="M 7.2 173.948158 
L 443.4 173.948158 
" style="fill: none; stroke: #000000; stroke-width: 0.8; stroke-linejoin: miter; stroke-linecap: square"/>
   </g>
   <g id="patch_6">
    <path d="M 7.2 16.556315 
L 443.4 16.556315 
" style="fill: none"/>
   </g>
   <g id="patch_7">
    <path d="M 244.637614 231.950661 
Q 242.997451 200.223534 265.935504 176.949385 
" style="fill: none; opacity: 0.7; stroke: #000000; stroke-width: 2; stroke-linecap: round"/>
    <path d="M 257.471017 179.839448 
L 265.935504 176.949385 
L 263.168862 185.455012 
" style="fill: none; opacity: 0.7; stroke: #000000; stroke-width: 2; stroke-linecap: round"/>
   </g>
   <g id="text_3">
    <g id="patch_8">
     <path d="M 181.68 270.589412 
L 314.865217 270.589412 
Q 322.865217 270.589412 322.865217 262.589412 
L 322.865217 242.698746 
Q 322.865217 234.698746 314.865217 234.698746 
L 181.68 234.698746 
Q 173.68 234.698746 173.68 242.698746 
L 173.68 262.589412 
Q 173.68 270.589412 181.68 270.589412 
z
" style="fill: #ffffff; stroke: #000000; stroke-width: 1.5; stroke-linejoin: miter"/>
    </g>
    <!-- Nullpunkt $(x_1, 0)$ -->
    <g transform="translate(181.68 257.624768) scale(0.2 -0.2)">
     <defs>
      <path id="CMSS17-4e" d="M 1466 4180 
L 1350 4416 
L 563 4416 
L 563 0 
L 1062 0 
L 1062 3926 
L 1069 3932 
C 1114 3817 1139 3760 1402 3194 
L 2771 236 
L 2886 0 
L 3674 0 
L 3674 4416 
L 3174 4416 
L 3174 490 
L 3168 483 
C 3123 598 3098 655 2835 1221 
L 1466 4180 
z
" transform="scale(0.015625)"/>
      <path id="CMSS17-75" d="M 2618 2739 
L 2131 2739 
L 2131 972 
C 2131 498 1786 306 1421 306 
C 998 306 960 447 960 709 
L 960 2739 
L 474 2739 
L 474 678 
C 474 179 646 -64 1088 -64 
C 1306 -64 1798 -13 2144 306 
L 2144 0 
L 2618 0 
L 2618 2739 
z
" transform="scale(0.015625)"/>
      <path id="CMSS17-6c" d="M 947 4416 
L 474 4416 
L 474 0 
L 947 0 
L 947 4416 
z
" transform="scale(0.015625)"/>
      <path id="CMSS17-70" d="M 966 333 
C 1178 129 1466 -5 1773 -5 
C 2368 -5 2880 603 2880 1412 
C 2880 2159 2496 2816 1946 2816 
C 1626 2816 1242 2702 954 2472 
L 954 2765 
L 480 2765 
L 480 -1216 
L 966 -1216 
L 966 333 
z
M 966 2100 
C 1018 2176 1235 2415 1587 2415 
C 2035 2415 2394 1960 2394 1412 
C 2394 787 1958 384 1530 384 
C 1402 384 1267 415 1139 523 
C 966 674 966 768 966 857 
L 966 2100 
z
" transform="scale(0.015625)"/>
      <path id="CMSS17-6e" d="M 2618 1877 
C 2618 2283 2522 2816 1798 2816 
C 1389 2816 1120 2606 941 2389 
L 941 2758 
L 474 2758 
L 474 0 
L 960 0 
L 960 1559 
C 960 1964 1114 2428 1549 2428 
C 2112 2428 2131 2048 2131 1829 
L 2131 0 
L 2618 0 
L 2618 1877 
z
" transform="scale(0.015625)"/>
      <path id="CMSS17-6b" d="M 1696 1688 
L 2688 2739 
L 2074 2739 
L 954 1554 
L 954 4416 
L 480 4416 
L 480 0 
L 947 0 
L 947 892 
L 1376 1344 
L 2278 0 
L 2822 0 
L 1696 1688 
z
" transform="scale(0.015625)"/>
      <path id="CMSS17-74" d="M 1069 2368 
L 1901 2368 
L 1901 2737 
L 1069 2737 
L 1069 3520 
L 614 3520 
L 614 2737 
L 109 2737 
L 109 2368 
L 602 2368 
L 602 749 
C 602 384 685 -64 1107 -64 
C 1427 -64 1722 25 2003 172 
L 1901 548 
C 1747 414 1562 337 1363 337 
C 1082 337 1069 696 1069 856 
L 1069 2368 
z
" transform="scale(0.015625)"/>
      <path id="CMR17-28" d="M 1958 -1561 
C 1958 -1555 1958 -1542 1939 -1523 
C 1645 -1224 858 -407 858 1581 
C 858 3569 1632 4379 1946 4697 
C 1946 4704 1958 4717 1958 4736 
C 1958 4755 1939 4768 1914 4768 
C 1843 4768 1299 4296 986 3594 
C 666 2887 576 2199 576 1588 
C 576 1128 621 351 1005 -471 
C 1312 -1135 1837 -1600 1914 -1600 
C 1946 -1600 1958 -1587 1958 -1561 
z
" transform="scale(0.015625)"/>
      <path id="CMR17-31" d="M 1702 4058 
C 1702 4192 1696 4192 1606 4192 
C 1357 3916 979 3827 621 3827 
C 602 3827 570 3827 563 3808 
C 557 3795 557 3782 557 3648 
C 755 3648 1088 3686 1344 3839 
L 1344 461 
C 1344 236 1331 160 781 160 
L 589 160 
L 589 0 
C 896 0 1216 0 1523 0 
C 1830 0 2150 0 2458 0 
L 2458 160 
L 2266 160 
C 1715 160 1702 230 1702 458 
L 1702 4058 
z
" transform="scale(0.015625)"/>
      <path id="CMMI12-3b" d="M 1248 -31 
C 1248 343 1126 619 864 619 
C 659 619 557 453 557 313 
C 557 172 653 0 870 0 
C 954 0 1024 26 1082 83 
C 1094 96 1101 96 1107 96 
C 1120 96 1120 5 1120 -27 
C 1120 -240 1082 -659 710 -1080 
C 640 -1157 640 -1170 640 -1183 
C 640 -1216 672 -1248 704 -1248 
C 755 -1248 1248 -771 1248 -31 
z
" transform="scale(0.015625)"/>
      <path id="CMR17-30" d="M 2688 2025 
C 2688 2416 2682 3080 2413 3591 
C 2176 4039 1798 4198 1466 4198 
C 1158 4198 768 4058 525 3597 
C 269 3118 243 2524 243 2025 
C 243 1661 250 1106 448 619 
C 723 -39 1216 -128 1466 -128 
C 1760 -128 2208 -7 2470 600 
C 2662 1042 2688 1559 2688 2025 
z
M 1466 -26 
C 1056 -26 813 325 723 812 
C 653 1188 653 1738 653 2096 
C 653 2588 653 2997 736 3387 
C 858 3929 1216 4096 1466 4096 
C 1728 4096 2067 3923 2189 3400 
C 2272 3036 2278 2607 2278 2096 
C 2278 1680 2278 1169 2202 792 
C 2067 95 1690 -26 1466 -26 
z
" transform="scale(0.015625)"/>
      <path id="CMR17-29" d="M 1683 1581 
C 1683 2040 1638 2817 1254 3639 
C 947 4303 422 4768 346 4768 
C 326 4768 301 4761 301 4729 
C 301 4717 307 4710 314 4697 
C 621 4378 1402 3568 1402 1584 
C 1402 -407 627 -1217 314 -1537 
C 307 -1549 301 -1556 301 -1568 
C 301 -1600 326 -1600 346 -1600 
C 416 -1600 960 -1128 1274 -426 
C 1594 281 1683 969 1683 1581 
z
" transform="scale(0.015625)"/>
     </defs>
     <use xlink:href="#CMSS17-4e" transform="scale(0.996264)"/>
     <use xlink:href="#CMSS17-75" transform="translate(66.061519 0) scale(0.996264)"/>
     <use xlink:href="#CMSS17-6c" transform="translate(114.266462 0) scale(0.996264)"/>
     <use xlink:href="#CMSS17-6c" transform="translate(136.447185 0) scale(0.996264)"/>
     <use xlink:href="#CMSS17-70" transform="translate(158.627908 0) scale(0.996264)"/>
     <use xlink:href="#CMSS17-75" transform="translate(206.832852 0) scale(0.996264)"/>
     <use xlink:href="#CMSS17-6e" transform="translate(255.037795 0) scale(0.996264)"/>
     <use xlink:href="#CMSS17-6b" transform="translate(303.242738 0) scale(0.996264)"/>
     <use xlink:href="#CMSS17-74" transform="translate(348.845227 0) scale(0.996264)"/>
     <use xlink:href="#CMR17-28" transform="translate(413.905906 0) scale(0.996264)"/>
     <use xlink:href="#CMMI12-78" transform="translate(449.186674 0) scale(0.996264)"/>
     <use xlink:href="#CMR17-31" transform="translate(504.620734 -14.943915) scale(0.697382)"/>
     <use xlink:href="#CMMI12-3b" transform="translate(537.102048 0) scale(0.996264)"/>
     <use xlink:href="#CMR17-30" transform="translate(580.80363 0) scale(0.996264)"/>
     <use xlink:href="#CMR17-29" transform="translate(626.494107 0) scale(0.996264)"/>
    </g>
   </g>
   <g id="text_4">
    <!-- $1$ -->
    <g transform="translate(177.110952 86.654848) scale(0.2 -0.2)">
     <use xlink:href="#CMR17-31" transform="scale(0.996264)"/>
    </g>
   </g>
   <g id="text_5">
    <!-- $a$ -->
    <g transform="translate(231.843 126.464892) scale(0.2 -0.2)">
     <defs>
      <path id="CMMI12-61" d="M 1926 760 
C 1894 651 1894 639 1805 517 
C 1664 338 1382 64 1082 64 
C 819 64 672 300 672 677 
C 672 1028 870 1743 992 2012 
C 1210 2459 1510 2689 1760 2689 
C 2182 2689 2266 2165 2266 2114 
C 2266 2108 2246 2024 2240 2012 
L 1926 760 
z
M 2336 2395 
C 2266 2561 2093 2816 1760 2816 
C 1037 2816 256 1884 256 939 
C 256 307 627 -64 1062 -64 
C 1414 -64 1715 211 1894 422 
C 1958 45 2259 -64 2451 -64 
C 2643 -64 2797 51 2912 281 
C 3014 498 3104 888 3104 913 
C 3104 945 3078 971 3040 971 
C 2982 971 2976 939 2950 843 
C 2854 466 2733 64 2470 64 
C 2285 64 2272 230 2272 358 
C 2272 505 2291 575 2349 824 
C 2394 984 2426 1124 2477 1309 
C 2714 2267 2771 2497 2771 2535 
C 2771 2625 2701 2695 2605 2695 
C 2400 2695 2349 2472 2336 2395 
z
" transform="scale(0.015625)"/>
     </defs>
     <use xlink:href="#CMMI12-61" transform="scale(0.996264)"/>
    </g>
   </g>
   <g id="legend_1">
    <g id="patch_9">
     <path d="M 355.783352 60.431949 
L 429.4 60.431949 
Q 433.4 60.431949 433.4 56.431949 
L 433.4 30.556315 
Q 433.4 26.556315 429.4 26.556315 
L 355.783352 26.556315 
Q 351.783352 26.556315 351.783352 30.556315 
L 351.783352 56.431949 
Q 351.783352 60.431949 355.783352 60.431949 
z
" style="fill: #ffffff; opacity: 0.8; stroke: #cccccc; stroke-linejoin: miter"/>
    </g>
    <g id="line2d_5">
     <path d="M 359.783352 41.556315 
L 379.783352 41.556315 
L 399.783352 41.556315 
" style="fill: none; stroke: #0072b2; stroke-width: 2.5; stroke-linecap: square"/>
    </g>
    <g id="text_6">
     <!-- $f$ -->
     <g transform="translate(415.783352 48.556315) scale(0.2 -0.2)">
      <defs>
       <path id="CMMI12-66" d="M 2854 2566 
C 2982 2566 3034 2566 3034 2688 
C 3034 2752 2982 2752 2867 2752 
L 2349 2752 
C 2470 3429 2560 3897 2611 4107 
C 2650 4265 2784 4416 2950 4416 
C 3085 4416 3219 4358 3283 4298 
C 3034 4272 2957 4082 2957 3969 
C 2957 3837 3053 3759 3174 3759 
C 3302 3759 3494 3870 3494 4119 
C 3494 4393 3226 4544 2944 4544 
C 2669 4544 2400 4334 2272 4078 
C 2157 3848 2093 3611 1946 2752 
L 1517 2752 
C 1395 2752 1331 2752 1331 2637 
C 1331 2566 1370 2566 1498 2566 
L 1907 2566 
C 1792 1976 1530 542 1382 -137 
C 1274 -689 1178 -1152 858 -1152 
C 838 -1152 653 -1152 538 -1031 
C 864 -1005 864 -726 864 -720 
C 864 -593 768 -517 646 -517 
C 518 -517 326 -625 326 -867 
C 326 -1140 608 -1280 858 -1280 
C 1510 -1280 1779 -118 1850 199 
C 1965 688 2278 2376 2310 2566 
L 2854 2566 
z
" transform="scale(0.015625)"/>
      </defs>
      <use xlink:href="#CMMI12-66" transform="scale(0.996264)"/>
     </g>
    </g>
   </g>
  </g>
 </g>
 <defs>
  <clipPath id="p414eea729c">
   <rect x="7.2" y="16.556315" width="436.2" height="314.783685"/>
  </clipPath>
 </defs>
</svg>
