<?xml version="1.0" encoding="utf-8" standalone="no"?>
<!DOCTYPE svg PUBLIC "-//W3C//DTD SVG 1.1//EN"
  "http://www.w3.org/Graphics/SVG/1.1/DTD/svg11.dtd">
<svg xmlns:xlink="http://www.w3.org/1999/xlink" width="460.8pt" height="345.6pt" viewBox="0 0 460.8 345.6" xmlns="http://www.w3.org/2000/svg" version="1.1">
 <metadata>
  <rdf:RDF xmlns:dc="http://purl.org/dc/elements/1.1/" xmlns:cc="http://creativecommons.org/ns#" xmlns:rdf="http://www.w3.org/1999/02/22-rdf-syntax-ns#">
   <cc:Work>
    <dc:type rdf:resource="http://purl.org/dc/dcmitype/StillImage"/>
    <dc:date>2026-01-19T19:45:36.543482</dc:date>
    <dc:format>image/svg+xml</dc:format>
    <dc:creator>
     <cc:Agent>
      <dc:title>Matplotlib v3.9.1, https://matplotlib.org/</dc:title>
     </cc:Agent>
    </dc:creator>
   </cc:Work>
  </rdf:RDF>
 </metadata>
 <defs>
  <style type="text/css">*{stroke-linejoin: round; stroke-linecap: butt}</style>
 </defs>
 <g id="figure_1">
  <g id="patch_1">
   <path d="M 0 345.6 
L 460.8 345.6 
L 460.8 0 
L 0 0 
L 0 345.6 
z
" style="fill: none"/>
  </g>
  <g id="axes_1">
   <g id="patch_2">
    <path d="M 73.114286 254.545925 
L 447 254.545925 
L 447 22.230394 
L 73.114286 22.230394 
L 73.114286 254.545925 
z
" style="fill: none"/>
   </g>
   <g id="matplotlib.axis_1">
    <g id="text_1">
     <!-- $x$ -->
     <g transform="translate(433.141493 242.654245) scale(0.25 -0.25)">
      <defs>
       <path id="CMMI12-78" d="M 3034 2606 
C 2829 2567 2752 2414 2752 2293 
C 2752 2139 2874 2088 2963 2088 
C 3155 2088 3290 2254 3290 2427 
C 3290 2695 2982 2816 2714 2816 
C 2323 2816 2106 2433 2048 2312 
C 1901 2816 1504 2816 1389 2816 
C 736 2816 390 1980 390 1839 
C 390 1814 416 1782 461 1782 
C 512 1782 525 1820 538 1846 
C 755 2555 1184 2689 1370 2689 
C 1658 2689 1715 2420 1715 2267 
C 1715 2127 1677 1980 1600 1673 
L 1382 798 
C 1286 415 1101 64 762 64 
C 730 64 570 64 435 147 
C 666 192 717 383 717 460 
C 717 588 621 664 499 664 
C 346 664 179 530 179 326 
C 179 57 480 -64 755 -64 
C 1062 -64 1280 179 1414 441 
C 1517 64 1837 -64 2074 -64 
C 2726 -64 3072 773 3072 913 
C 3072 945 3046 971 3008 971 
C 2950 971 2944 939 2925 888 
C 2752 326 2381 64 2093 64 
C 1869 64 1747 230 1747 492 
C 1747 632 1773 734 1875 1156 
L 2099 2024 
C 2195 2408 2413 2689 2707 2689 
C 2720 2689 2899 2689 3034 2606 
z
" transform="scale(0.015625)"/>
      </defs>
      <use xlink:href="#CMMI12-78" transform="scale(0.996264)"/>
     </g>
    </g>
   </g>
   <g id="matplotlib.axis_2">
    <g id="text_2">
     <!-- $y$ -->
     <g transform="translate(110.635484 17.38586) scale(0.25 -0.25)">
      <defs>
       <path id="CMMI12-79" d="M 1683 -700 
C 1510 -939 1261 -1152 947 -1152 
C 870 -1152 563 -1152 467 -889 
C 486 -895 518 -895 531 -895 
C 723 -895 851 -729 851 -582 
C 851 -435 730 -384 634 -384 
C 531 -384 307 -458 307 -759 
C 307 -1071 582 -1286 947 -1286 
C 1587 -1286 2234 -700 2413 6 
L 3040 2485 
C 3046 2517 3059 2556 3059 2594 
C 3059 2689 2982 2753 2886 2753 
C 2829 2753 2694 2727 2643 2535 
L 2170 658 
C 2138 543 2138 530 2086 460 
C 1958 281 1747 64 1440 64 
C 1082 64 1050 415 1050 588 
C 1050 952 1222 1443 1395 1903 
C 1466 2088 1504 2178 1504 2305 
C 1504 2574 1312 2816 998 2816 
C 410 2816 173 1890 173 1839 
C 173 1814 198 1782 243 1782 
C 301 1782 307 1807 333 1897 
C 486 2433 730 2689 979 2689 
C 1037 2689 1146 2689 1146 2478 
C 1146 2312 1075 2127 979 1884 
C 666 1047 666 837 666 683 
C 666 77 1101 -64 1421 -64 
C 1606 -64 1837 -6 2061 230 
L 2067 224 
C 1971 -147 1907 -392 1683 -700 
z
" transform="scale(0.015625)"/>
      </defs>
      <use xlink:href="#CMMI12-79" transform="scale(0.996264)"/>
     </g>
    </g>
   </g>
   <g id="line2d_1">
    <defs>
     <path id="m4460bcb296" d="M 3 0 
L -3 -3 
L -3 3 
z
" style="stroke: #000000; stroke-linejoin: miter"/>
    </defs>
    <g>
     <use xlink:href="#m4460bcb296" x="447" y="221.357992" style="stroke: #000000; stroke-linejoin: miter"/>
    </g>
   </g>
   <g id="line2d_2">
    <defs>
     <path id="m988fd5f77f" d="M 0 -3 
L -3 3 
L 3 3 
z
" style="stroke: #000000; stroke-linejoin: miter"/>
    </defs>
    <g>
     <use xlink:href="#m988fd5f77f" x="126.526531" y="22.230394" style="stroke: #000000; stroke-linejoin: miter"/>
    </g>
   </g>
   <g id="line2d_3">
    <path d="M 126.526531 188.170059 
L 129.617223 188.058934 
L 132.714435 187.724622 
L 135.818168 187.165713 
L 138.941462 186.37703 
L 142.097359 185.349585 
L 145.285858 184.076198 
L 148.513479 182.546277 
L 151.786744 180.747177 
L 155.112172 178.664133 
L 158.496284 176.280188 
L 161.945601 173.576109 
L 165.466643 170.530288 
L 169.059409 167.125099 
L 172.7239 163.342556 
L 176.466637 159.156736 
L 180.29414 154.539042 
L 184.206408 149.466829 
L 188.203443 143.91695 
L 192.291763 137.855779 
L 196.47137 131.257266 
L 200.742263 124.094781 
L 205.110963 116.329189 
L 209.570949 107.943265 
L 214.128741 98.895302 
L 218.784341 89.154185 
L 223.537747 78.68813 
L 228.39548 67.449233 
L 233.35102 55.418327 
L 233.35102 55.418327 
" clip-path="url(#pf3cef31521)" style="fill: none; stroke: #0072b2; stroke-width: 2.5; stroke-linecap: square"/>
   </g>
   <g id="line2d_4">
    <path d="M 179.938776 221.357992 
L 180.082225 219.638065 
L 180.460411 218.078221 
L 181.073333 216.521025 
L 181.947073 214.922617 
L 183.107713 213.274172 
L 184.594375 211.559762 
L 186.433141 209.785466 
L 188.689216 207.924938 
L 191.401722 205.983247 
L 194.622823 203.956652 
L 198.417723 201.837156 
L 202.851628 199.621004 
L 207.98974 197.306961 
L 213.897266 194.895303 
L 220.652449 192.382559 
L 228.333536 189.767313 
L 237.018772 187.04949 
L 246.799443 184.226265 
L 257.753795 181.299785 
L 269.973113 178.269244 
L 283.561726 175.131837 
L 298.623959 171.886154 
L 315.2511 168.534334 
L 333.547475 165.076228 
L 353.630453 161.51004 
L 375.604361 157.837038 
L 393.587755 154.982126 
L 393.587755 154.982126 
" clip-path="url(#pf3cef31521)" style="fill: none; stroke: #dc5e8b; stroke-width: 2.5; stroke-linecap: square"/>
   </g>
   <g id="line2d_5">
    <path d="M 73.114286 221.357992 
L 447 139.222048 
" clip-path="url(#pf3cef31521)" style="fill: none; stroke-dasharray: 9.25,4; stroke-dashoffset: 0; stroke: #808080; stroke-width: 2.5"/>
   </g>
   <g id="line2d_6">
    <path d="M 74.147356 346.6 
L 271.933289 -1 
" clip-path="url(#pf3cef31521)" style="fill: none; stroke-dasharray: 9.25,4; stroke-dashoffset: 0; stroke: #808080; stroke-width: 2.5"/>
   </g>
   <g id="line2d_7">
    <defs>
     <path id="mbbade6f6e4" d="M 0 5 
C 1.326016 5 2.597899 4.473168 3.535534 3.535534 
C 4.473168 2.597899 5 1.326016 5 0 
C 5 -1.326016 4.473168 -2.597899 3.535534 -3.535534 
C 2.597899 -4.473168 1.326016 -5 0 -5 
C -1.326016 -5 -2.597899 -4.473168 -3.535534 -3.535534 
C -4.473168 -2.597899 -5 -1.326016 -5 0 
C -5 1.326016 -4.473168 2.597899 -3.535534 3.535534 
C -2.597899 4.473168 -1.326016 5 0 5 
z
" style="stroke: #000000; stroke-opacity: 0.8"/>
    </defs>
    <g clip-path="url(#pf3cef31521)">
     <use xlink:href="#mbbade6f6e4" x="202.062852" y="121.794193" style="fill-opacity: 0.8; stroke: #000000; stroke-opacity: 0.8"/>
    </g>
   </g>
   <g id="line2d_8">
    <g clip-path="url(#pf3cef31521)">
     <use xlink:href="#mbbade6f6e4" x="286.763265" y="174.423167" style="fill-opacity: 0.8; stroke: #000000; stroke-opacity: 0.8"/>
    </g>
   </g>
   <g id="patch_3">
    <path d="M 126.526531 254.545925 
L 126.526531 22.230394 
" style="fill: none; stroke: #000000; stroke-width: 0.8; stroke-linejoin: miter; stroke-linecap: square"/>
   </g>
   <g id="patch_4">
    <path d="M 447 254.545925 
L 447 22.230394 
" style="fill: none"/>
   </g>
   <g id="patch_5">
    <path d="M 73.114286 221.357992 
L 447 221.357992 
" style="fill: none; stroke: #000000; stroke-width: 0.8; stroke-linejoin: miter; stroke-linecap: square"/>
   </g>
   <g id="patch_6">
    <path d="M 73.114286 22.230394 
L 447 22.230394 
" style="fill: none"/>
   </g>
   <g id="patch_7">
    <path d="M 126.764256 80.274565 
Q 152.133841 116.019056 197.852047 121.319951 
" style="fill: none; opacity: 0.7; stroke: #000000; stroke-width: 2; stroke-linecap: round"/>
    <path d="M 188.494474 115.20147 
L 197.852047 121.319951 
L 187.342718 125.134922 
" style="fill: none; opacity: 0.7; stroke: #000000; stroke-width: 2; stroke-linecap: round"/>
   </g>
   <g id="text_3">
    <g id="patch_8">
     <path d="M 19.702041 77.88337 
L 206.874488 77.88337 
Q 216.874488 77.88337 216.874488 67.88337 
L 216.874488 42.953283 
Q 216.874488 32.953283 206.874488 32.953283 
L 19.702041 32.953283 
Q 9.702041 32.953283 9.702041 42.953283 
L 9.702041 67.88337 
Q 9.702041 77.88337 19.702041 77.88337 
z
" style="fill: #ffffff; stroke: #000000; stroke-width: 1.5; stroke-linejoin: miter"/>
    </g>
    <!-- Stigningstall: $f'(a)$ -->
    <g transform="translate(19.702041 61.677562) scale(0.25 -0.25)">
     <defs>
      <path id="CMSS17-53" d="M 2797 4169 
C 2515 4334 2208 4480 1690 4480 
C 864 4480 333 3879 333 3266 
C 333 3025 403 2753 653 2475 
C 902 2196 1184 2121 1542 2033 
C 1690 1994 1939 1924 1984 1906 
C 2342 1767 2515 1444 2515 1140 
C 2515 742 2202 318 1645 318 
C 1453 318 890 318 358 819 
L 269 318 
C 794 -64 1363 -128 1651 -128 
C 2438 -128 3002 488 3002 1186 
C 3002 1440 2925 1763 2656 2061 
C 2394 2347 2163 2410 1638 2549 
C 1338 2626 1146 2677 986 2873 
C 877 3013 819 3146 819 3317 
C 819 3673 1126 4060 1690 4060 
C 1971 4060 2336 4002 2707 3660 
L 2797 4169 
z
" transform="scale(0.015625)"/>
      <path id="CMSS17-74" d="M 1069 2368 
L 1901 2368 
L 1901 2737 
L 1069 2737 
L 1069 3520 
L 614 3520 
L 614 2737 
L 109 2737 
L 109 2368 
L 602 2368 
L 602 749 
C 602 384 685 -64 1107 -64 
C 1427 -64 1722 25 2003 172 
L 1901 548 
C 1747 414 1562 337 1363 337 
C 1082 337 1069 696 1069 856 
L 1069 2368 
z
" transform="scale(0.015625)"/>
      <path id="CMSS17-69" d="M 979 4183 
L 442 4183 
L 442 3648 
L 979 3648 
L 979 4183 
z
M 947 2739 
L 474 2739 
L 474 0 
L 947 0 
L 947 2739 
z
" transform="scale(0.015625)"/>
      <path id="CMSS17-67" d="M 2848 2808 
C 2483 2808 2170 2738 1914 2617 
C 1702 2777 1485 2808 1338 2808 
C 781 2808 358 2349 358 1814 
C 358 1468 550 1207 563 1195 
C 448 1035 384 863 384 672 
C 384 448 474 289 544 200 
C 211 -3 166 -314 166 -435 
C 166 -898 749 -1280 1498 -1280 
C 2253 -1280 2835 -898 2835 -428 
C 2835 448 1856 448 1587 448 
L 1069 448 
C 973 448 717 448 717 791 
C 717 921 774 1004 781 1010 
C 877 940 1075 832 1338 832 
C 1869 832 2310 1278 2310 1827 
C 2310 2132 2170 2355 2112 2432 
L 2131 2432 
C 2150 2432 2419 2432 2515 2432 
C 2720 2432 2739 2429 2918 2419 
L 2848 2808 
z
M 1338 1182 
C 1120 1182 813 1315 813 1823 
C 813 2375 1165 2464 1331 2464 
C 1549 2464 1856 2331 1856 1823 
C 1856 1271 1504 1182 1338 1182 
z
M 1581 -10 
C 1734 -10 2381 -10 2381 -442 
C 2381 -714 1984 -929 1504 -929 
C 1018 -929 621 -720 621 -435 
C 621 -403 621 -10 1062 -10 
L 1581 -10 
z
" transform="scale(0.015625)"/>
      <path id="CMSS17-6e" d="M 2618 1877 
C 2618 2283 2522 2816 1798 2816 
C 1389 2816 1120 2606 941 2389 
L 941 2758 
L 474 2758 
L 474 0 
L 960 0 
L 960 1559 
C 960 1964 1114 2428 1549 2428 
C 2112 2428 2131 2048 2131 1829 
L 2131 0 
L 2618 0 
L 2618 1877 
z
" transform="scale(0.015625)"/>
      <path id="CMSS17-73" d="M 2061 2627 
C 1683 2807 1389 2807 1197 2807 
C 742 2807 198 2648 198 2003 
C 198 1359 902 1218 1094 1179 
C 1389 1122 1715 1058 1715 740 
C 1715 337 1254 337 1171 337 
C 915 337 563 407 243 638 
L 166 210 
C 531 0 883 -64 1178 -64 
C 1965 -64 2163 416 2163 781 
C 2163 1094 1984 1305 1862 1401 
C 1651 1568 1574 1587 1050 1696 
C 960 1709 646 1779 646 2066 
C 646 2432 1050 2432 1139 2432 
C 1555 2432 1811 2303 1984 2208 
L 2061 2627 
z
" transform="scale(0.015625)"/>
      <path id="CMSS17-61" d="M 2406 1791 
C 2406 2392 1978 2808 1402 2808 
C 1120 2808 813 2757 461 2553 
L 499 2135 
C 659 2248 934 2432 1395 2432 
C 1722 2432 1920 2180 1920 1782 
L 1920 1536 
C 896 1536 256 1238 256 726 
C 256 461 416 -64 947 -64 
C 1043 -64 1562 -64 1933 217 
L 1933 -19 
L 2406 -19 
L 2406 1791 
z
M 1920 816 
C 1920 701 1920 548 1728 434 
C 1562 325 1350 325 1261 325 
C 941 325 723 511 723 744 
C 723 1211 1722 1211 1920 1211 
L 1920 816 
z
" transform="scale(0.015625)"/>
      <path id="CMSS17-6c" d="M 947 4416 
L 474 4416 
L 474 0 
L 947 0 
L 947 4416 
z
" transform="scale(0.015625)"/>
      <path id="CMSS17-3a" d="M 1088 2749 
L 576 2749 
L 576 2240 
L 1088 2240 
L 1088 2749 
z
M 576 510 
L 576 0 
L 1088 0 
L 1088 510 
L 576 510 
z
" transform="scale(0.015625)"/>
      <path id="CMMI12-66" d="M 2854 2566 
C 2982 2566 3034 2566 3034 2688 
C 3034 2752 2982 2752 2867 2752 
L 2349 2752 
C 2470 3429 2560 3897 2611 4107 
C 2650 4265 2784 4416 2950 4416 
C 3085 4416 3219 4358 3283 4298 
C 3034 4272 2957 4082 2957 3969 
C 2957 3837 3053 3759 3174 3759 
C 3302 3759 3494 3870 3494 4119 
C 3494 4393 3226 4544 2944 4544 
C 2669 4544 2400 4334 2272 4078 
C 2157 3848 2093 3611 1946 2752 
L 1517 2752 
C 1395 2752 1331 2752 1331 2637 
C 1331 2566 1370 2566 1498 2566 
L 1907 2566 
C 1792 1976 1530 542 1382 -137 
C 1274 -689 1178 -1152 858 -1152 
C 838 -1152 653 -1152 538 -1031 
C 864 -1005 864 -726 864 -720 
C 864 -593 768 -517 646 -517 
C 518 -517 326 -625 326 -867 
C 326 -1140 608 -1280 858 -1280 
C 1510 -1280 1779 -118 1850 199 
C 1965 688 2278 2376 2310 2566 
L 2854 2566 
z
" transform="scale(0.015625)"/>
      <path id="CMSY10-30" d="M 1619 3040 
C 1651 3117 1677 3174 1677 3238 
C 1677 3424 1510 3578 1312 3578 
C 1133 3578 1018 3456 973 3290 
L 211 493 
C 211 480 186 410 186 403 
C 186 333 352 288 403 288 
C 442 288 448 307 486 390 
L 1619 3040 
z
" transform="scale(0.015625)"/>
      <path id="CMR17-28" d="M 1958 -1561 
C 1958 -1555 1958 -1542 1939 -1523 
C 1645 -1224 858 -407 858 1581 
C 858 3569 1632 4379 1946 4697 
C 1946 4704 1958 4717 1958 4736 
C 1958 4755 1939 4768 1914 4768 
C 1843 4768 1299 4296 986 3594 
C 666 2887 576 2199 576 1588 
C 576 1128 621 351 1005 -471 
C 1312 -1135 1837 -1600 1914 -1600 
C 1946 -1600 1958 -1587 1958 -1561 
z
" transform="scale(0.015625)"/>
      <path id="CMMI12-61" d="M 1926 760 
C 1894 651 1894 639 1805 517 
C 1664 338 1382 64 1082 64 
C 819 64 672 300 672 677 
C 672 1028 870 1743 992 2012 
C 1210 2459 1510 2689 1760 2689 
C 2182 2689 2266 2165 2266 2114 
C 2266 2108 2246 2024 2240 2012 
L 1926 760 
z
M 2336 2395 
C 2266 2561 2093 2816 1760 2816 
C 1037 2816 256 1884 256 939 
C 256 307 627 -64 1062 -64 
C 1414 -64 1715 211 1894 422 
C 1958 45 2259 -64 2451 -64 
C 2643 -64 2797 51 2912 281 
C 3014 498 3104 888 3104 913 
C 3104 945 3078 971 3040 971 
C 2982 971 2976 939 2950 843 
C 2854 466 2733 64 2470 64 
C 2285 64 2272 230 2272 358 
C 2272 505 2291 575 2349 824 
C 2394 984 2426 1124 2477 1309 
C 2714 2267 2771 2497 2771 2535 
C 2771 2625 2701 2695 2605 2695 
C 2400 2695 2349 2472 2336 2395 
z
" transform="scale(0.015625)"/>
      <path id="CMR17-29" d="M 1683 1581 
C 1683 2040 1638 2817 1254 3639 
C 947 4303 422 4768 346 4768 
C 326 4768 301 4761 301 4729 
C 301 4717 307 4710 314 4697 
C 621 4378 1402 3568 1402 1584 
C 1402 -407 627 -1217 314 -1537 
C 307 -1549 301 -1556 301 -1568 
C 301 -1600 326 -1600 346 -1600 
C 416 -1600 960 -1128 1274 -426 
C 1594 281 1683 969 1683 1581 
z
" transform="scale(0.015625)"/>
     </defs>
     <use xlink:href="#CMSS17-53" transform="scale(0.996264)"/>
     <use xlink:href="#CMSS17-74" transform="translate(52.048516 0) scale(0.996264)"/>
     <use xlink:href="#CMSS17-69" transform="translate(85.880083 0) scale(0.996264)"/>
     <use xlink:href="#CMSS17-67" transform="translate(108.060806 0) scale(0.996264)"/>
     <use xlink:href="#CMSS17-6e" transform="translate(154.904429 0) scale(0.996264)"/>
     <use xlink:href="#CMSS17-69" transform="translate(203.109373 0) scale(0.996264)"/>
     <use xlink:href="#CMSS17-6e" transform="translate(225.290096 0) scale(0.996264)"/>
     <use xlink:href="#CMSS17-67" transform="translate(273.495039 0) scale(0.996264)"/>
     <use xlink:href="#CMSS17-73" transform="translate(320.338662 0) scale(0.996264)"/>
     <use xlink:href="#CMSS17-74" transform="translate(356.252204 0) scale(0.996264)"/>
     <use xlink:href="#CMSS17-61" transform="translate(390.083771 0) scale(0.996264)"/>
     <use xlink:href="#CMSS17-6c" transform="translate(435.005692 0) scale(0.996264)"/>
     <use xlink:href="#CMSS17-6c" transform="translate(457.186415 0) scale(0.996264)"/>
     <use xlink:href="#CMSS17-3a" transform="translate(479.367138 0) scale(0.996264)"/>
     <use xlink:href="#CMMI12-66" transform="translate(547.030149 0) scale(0.996264)"/>
     <use xlink:href="#CMSY10-30" transform="translate(605.750454 36.153639) scale(0.697382)"/>
     <use xlink:href="#CMR17-28" transform="translate(625.426547 0) scale(0.996264)"/>
     <use xlink:href="#CMMI12-61" transform="translate(660.707315 0) scale(0.996264)"/>
     <use xlink:href="#CMR17-29" transform="translate(711.915172 0) scale(0.996264)"/>
    </g>
   </g>
   <g id="patch_9">
    <path d="M 313.401441 239.382235 
Q 312.159763 205.93562 289.429264 177.712093 
" style="fill: none; opacity: 0.7; stroke: #000000; stroke-width: 2; stroke-linecap: round"/>
    <path d="M 291.807588 188.636542 
L 289.429264 177.712093 
L 299.595817 182.364103 
" style="fill: none; opacity: 0.7; stroke: #000000; stroke-width: 2; stroke-linecap: round"/>
   </g>
   <g id="text_4">
    <g id="patch_10">
     <path d="M 233.35102 333.335132 
L 374.642725 333.335132 
Q 384.642725 333.335132 384.642725 323.335132 
L 384.642725 252.132583 
Q 384.642725 242.132583 374.642725 242.132583 
L 233.35102 242.132583 
Q 223.35102 242.132583 223.35102 252.132583 
L 223.35102 323.335132 
Q 223.35102 333.335132 233.35102 333.335132 
z
" style="fill: #ffffff; stroke: #000000; stroke-width: 1.5; stroke-linejoin: miter"/>
    </g>
    <!-- Stigningstall: $\\displaystyle \\frac{1}{f'(a)}$ -->
    <g transform="translate(233.35102 269.428836) scale(0.25 -0.25)">
     <defs>
      <path id="CMMI12-64" d="M 3219 4257 
C 3226 4282 3238 4320 3238 4352 
C 3238 4416 3174 4416 3162 4416 
C 3155 4416 2842 4388 2810 4380 
C 2701 4373 2605 4358 2490 4358 
C 2330 4345 2285 4339 2285 4224 
C 2285 4160 2336 4160 2426 4160 
C 2739 4160 2746 4103 2746 4040 
C 2746 4002 2733 3952 2726 3933 
L 2336 2395 
C 2266 2561 2093 2816 1760 2816 
C 1037 2816 256 1884 256 939 
C 256 307 627 -64 1062 -64 
C 1414 -64 1715 211 1894 422 
C 1958 45 2259 -64 2451 -64 
C 2643 -64 2797 51 2912 281 
C 3014 498 3104 888 3104 913 
C 3104 945 3078 971 3040 971 
C 2982 971 2976 939 2950 843 
C 2854 466 2733 64 2470 64 
C 2285 64 2272 229 2272 357 
C 2272 382 2272 515 2317 694 
L 3219 4257 
z
M 1926 760 
C 1894 651 1894 639 1805 517 
C 1664 338 1382 64 1082 64 
C 819 64 672 300 672 677 
C 672 1028 870 1743 992 2012 
C 1210 2459 1510 2689 1760 2689 
C 2182 2689 2266 2165 2266 2114 
C 2266 2108 2246 2024 2240 2012 
L 1926 760 
z
" transform="scale(0.015625)"/>
      <path id="CMMI12-69" d="M 1811 913 
C 1811 945 1786 971 1747 971 
C 1690 971 1683 952 1651 843 
C 1485 262 1222 64 1011 64 
C 934 64 845 83 845 275 
C 845 447 922 639 992 830 
L 1440 2018 
C 1459 2069 1504 2184 1504 2305 
C 1504 2574 1312 2816 998 2816 
C 410 2816 173 1890 173 1839 
C 173 1814 198 1782 243 1782 
C 301 1782 307 1807 333 1896 
C 486 2428 730 2682 979 2682 
C 1037 2682 1146 2682 1146 2478 
C 1146 2312 1062 2101 1011 1961 
L 563 773 
C 525 671 486 568 486 453 
C 486 166 685 -64 992 -64 
C 1581 -64 1811 869 1811 913 
z
M 1760 4013 
C 1760 4109 1683 4224 1542 4224 
C 1395 4224 1229 4083 1229 3917 
C 1229 3758 1363 3707 1440 3707 
C 1613 3707 1760 3873 1760 4013 
z
" transform="scale(0.015625)"/>
      <path id="CMMI12-73" d="M 1459 1280 
C 1568 1261 1741 1223 1779 1216 
C 1862 1192 2150 1090 2150 783 
C 2150 586 1971 70 1229 70 
C 1094 70 614 70 486 436 
C 742 404 870 603 870 745 
C 870 880 781 950 653 950 
C 512 950 326 841 326 552 
C 326 173 710 -64 1222 -64 
C 2195 -64 2483 651 2483 984 
C 2483 1079 2483 1258 2278 1462 
C 2118 1616 1965 1648 1619 1718 
C 1446 1756 1171 1814 1171 2101 
C 1171 2229 1286 2689 1894 2689 
C 2163 2689 2426 2589 2490 2368 
C 2208 2368 2195 2125 2195 2119 
C 2195 1984 2317 1946 2374 1946 
C 2464 1946 2643 2015 2643 2281 
C 2643 2545 2400 2816 1901 2816 
C 1062 2816 838 2160 838 1899 
C 838 1414 1312 1312 1459 1280 
z
" transform="scale(0.015625)"/>
      <path id="CMMI12-70" d="M 275 -789 
C 230 -980 205 -1031 -58 -1031 
C -134 -1031 -198 -1031 -198 -1152 
C -198 -1165 -192 -1216 -122 -1216 
C -38 -1216 51 -1216 134 -1216 
L 410 -1216 
C 544 -1216 870 -1216 1005 -1216 
C 1043 -1216 1120 -1216 1120 -1101 
C 1120 -1031 1075 -1031 966 -1031 
C 672 -1031 653 -987 653 -937 
C 653 -861 941 219 979 364 
C 1050 185 1222 -64 1555 -64 
C 2278 -64 3059 875 3059 1814 
C 3059 2401 2726 2816 2246 2816 
C 1837 2816 1491 2420 1421 2331 
C 1370 2650 1120 2816 864 2816 
C 678 2816 531 2727 410 2484 
C 294 2254 205 1865 205 1839 
C 205 1814 230 1782 275 1782 
C 326 1782 333 1788 371 1935 
C 467 2312 589 2689 845 2689 
C 992 2689 1043 2587 1043 2397 
C 1043 2245 1024 2181 998 2067 
L 275 -789 
z
M 1382 1993 
C 1427 2171 1606 2357 1709 2446 
C 1779 2510 1990 2689 2234 2689 
C 2515 2689 2643 2408 2643 2076 
C 2643 1769 2464 1047 2304 715 
C 2144 370 1850 64 1555 64 
C 1120 64 1050 613 1050 639 
C 1050 658 1062 709 1069 741 
L 1382 1993 
z
" transform="scale(0.015625)"/>
      <path id="CMMI12-6c" d="M 1626 4257 
C 1632 4282 1645 4320 1645 4352 
C 1645 4416 1581 4416 1568 4416 
C 1562 4416 1331 4393 1216 4377 
C 1107 4377 1011 4358 896 4358 
C 742 4345 698 4339 698 4224 
C 698 4160 762 4160 826 4160 
C 1152 4160 1152 4102 1152 4039 
C 1152 4014 1152 4001 1120 3887 
L 326 731 
C 307 661 294 610 294 509 
C 294 191 531 -64 858 -64 
C 1069 -64 1210 76 1312 274 
C 1421 483 1510 884 1510 909 
C 1510 941 1485 967 1446 967 
C 1389 967 1382 935 1357 840 
C 1242 401 1126 64 870 64 
C 678 64 678 267 678 357 
C 678 382 678 515 723 694 
L 1626 4257 
z
" transform="scale(0.015625)"/>
      <path id="CMMI12-74" d="M 1286 2566 
L 1875 2566 
C 1997 2566 2061 2566 2061 2681 
C 2061 2752 2022 2752 1894 2752 
L 1331 2752 
L 1568 3692 
C 1594 3781 1594 3794 1594 3840 
C 1594 3943 1510 4000 1427 4000 
C 1376 4000 1229 3981 1178 3775 
L 928 2752 
L 326 2752 
C 198 2752 141 2752 141 2630 
C 141 2566 186 2566 307 2566 
L 877 2566 
L 454 881 
C 403 658 384 594 384 511 
C 384 211 595 -64 954 -64 
C 1600 -64 1946 868 1946 912 
C 1946 951 1920 970 1882 970 
C 1869 970 1843 970 1830 944 
C 1824 938 1818 931 1773 829 
C 1638 511 1344 64 973 64 
C 781 64 768 224 768 364 
C 768 370 768 492 787 568 
L 1286 2566 
z
" transform="scale(0.015625)"/>
      <path id="CMMI12-65" d="M 1146 1479 
C 1318 1479 1754 1479 2061 1595 
C 2547 1783 2592 2158 2592 2274 
C 2592 2558 2349 2816 1926 2816 
C 1254 2816 288 2210 288 1073 
C 288 402 672 -64 1254 -64 
C 2125 -64 2675 609 2675 692 
C 2675 730 2637 762 2611 762 
C 2592 762 2586 756 2528 699 
C 2118 159 1510 64 1267 64 
C 902 64 710 350 710 822 
C 710 911 710 1071 806 1479 
L 1146 1479 
z
M 838 1600 
C 1114 2592 1722 2689 1926 2689 
C 2208 2689 2400 2522 2400 2277 
C 2400 1600 1376 1600 1107 1600 
L 838 1600 
z
" transform="scale(0.015625)"/>
      <path id="CMMI12-72" d="M 2490 2612 
C 2291 2574 2189 2433 2189 2293 
C 2189 2139 2310 2088 2400 2088 
C 2579 2088 2726 2242 2726 2433 
C 2726 2638 2528 2816 2208 2816 
C 1952 2816 1658 2701 1389 2312 
C 1344 2650 1088 2816 832 2816 
C 582 2816 454 2625 378 2484 
C 269 2254 173 1871 173 1839 
C 173 1814 198 1782 243 1782 
C 294 1782 301 1788 339 1935 
C 435 2318 557 2689 813 2689 
C 966 2689 1011 2580 1011 2395 
C 1011 2254 947 2005 902 1807 
L 723 1118 
C 698 996 627 709 595 594 
C 550 428 480 128 480 96 
C 480 6 550 -64 646 -64 
C 717 -64 838 -19 877 109 
C 896 160 1133 1124 1171 1271 
C 1203 1411 1242 1546 1274 1686 
C 1299 1775 1325 1878 1344 1961 
C 1363 2018 1536 2331 1696 2472 
C 1773 2542 1939 2689 2202 2689 
C 2304 2689 2406 2670 2490 2612 
z
" transform="scale(0.015625)"/>
      <path id="CMMI12-63" d="M 2502 2431 
C 2381 2431 2323 2431 2234 2355 
C 2195 2323 2125 2227 2125 2125 
C 2125 1997 2221 1920 2342 1920 
C 2496 1920 2669 2044 2669 2292 
C 2669 2588 2374 2816 1933 2816 
C 1094 2816 256 1903 256 996 
C 256 441 602 -64 1254 -64 
C 2125 -64 2675 622 2675 706 
C 2675 744 2637 776 2611 776 
C 2592 776 2586 770 2528 713 
C 2118 162 1510 64 1267 64 
C 826 64 685 446 685 764 
C 685 988 794 1605 1024 2039 
C 1190 2338 1536 2682 1939 2682 
C 2022 2682 2374 2682 2502 2431 
z
" transform="scale(0.015625)"/>
      <path id="CMR17-31" d="M 1702 4058 
C 1702 4192 1696 4192 1606 4192 
C 1357 3916 979 3827 621 3827 
C 602 3827 570 3827 563 3808 
C 557 3795 557 3782 557 3648 
C 755 3648 1088 3686 1344 3839 
L 1344 461 
C 1344 236 1331 160 781 160 
L 589 160 
L 589 0 
C 896 0 1216 0 1523 0 
C 1830 0 2150 0 2458 0 
L 2458 160 
L 2266 160 
C 1715 160 1702 230 1702 458 
L 1702 4058 
z
" transform="scale(0.015625)"/>
     </defs>
     <use xlink:href="#CMSS17-53" transform="translate(14.94396 0) scale(0.996264)"/>
     <use xlink:href="#CMSS17-74" transform="translate(66.992476 0) scale(0.996264)"/>
     <use xlink:href="#CMSS17-69" transform="translate(100.824043 0) scale(0.996264)"/>
     <use xlink:href="#CMSS17-67" transform="translate(123.004766 0) scale(0.996264)"/>
     <use xlink:href="#CMSS17-6e" transform="translate(169.84839 0) scale(0.996264)"/>
     <use xlink:href="#CMSS17-69" transform="translate(218.053333 0) scale(0.996264)"/>
     <use xlink:href="#CMSS17-6e" transform="translate(240.234056 0) scale(0.996264)"/>
     <use xlink:href="#CMSS17-67" transform="translate(288.438999 0) scale(0.996264)"/>
     <use xlink:href="#CMSS17-73" transform="translate(335.282622 0) scale(0.996264)"/>
     <use xlink:href="#CMSS17-74" transform="translate(371.196164 0) scale(0.996264)"/>
     <use xlink:href="#CMSS17-61" transform="translate(405.027731 0) scale(0.996264)"/>
     <use xlink:href="#CMSS17-6c" transform="translate(449.949652 0) scale(0.996264)"/>
     <use xlink:href="#CMSS17-6c" transform="translate(472.130375 0) scale(0.996264)"/>
     <use xlink:href="#CMSS17-3a" transform="translate(494.311098 0) scale(0.996264)"/>
     <use xlink:href="#CMMI12-64" transform="translate(0 -89.55937) scale(0.996264)"/>
     <use xlink:href="#CMMI12-69" transform="translate(50.689097 -89.55937) scale(0.996264)"/>
     <use xlink:href="#CMMI12-73" transform="translate(83.967699 -89.55937) scale(0.996264)"/>
     <use xlink:href="#CMMI12-70" transform="translate(129.917746 -89.55937) scale(0.996264)"/>
     <use xlink:href="#CMMI12-6c" transform="translate(178.87726 -89.55937) scale(0.996264)"/>
     <use xlink:href="#CMMI12-61" transform="translate(210.125664 -89.55937) scale(0.996264)"/>
     <use xlink:href="#CMMI12-79" transform="translate(261.333522 -89.55937) scale(0.996264)"/>
     <use xlink:href="#CMMI12-73" transform="translate(312.472302 -89.55937) scale(0.996264)"/>
     <use xlink:href="#CMMI12-74" transform="translate(358.42235 -89.55937) scale(0.996264)"/>
     <use xlink:href="#CMMI12-79" transform="translate(393.64868 -89.55937) scale(0.996264)"/>
     <use xlink:href="#CMMI12-6c" transform="translate(444.787461 -89.55937) scale(0.996264)"/>
     <use xlink:href="#CMMI12-65" transform="translate(476.035865 -89.55937) scale(0.996264)"/>
     <use xlink:href="#CMMI12-66" transform="translate(0 -184.824532) scale(0.996264)"/>
     <use xlink:href="#CMMI12-72" transform="translate(58.720305 -184.824532) scale(0.996264)"/>
     <use xlink:href="#CMMI12-61" transform="translate(105.390917 -184.824532) scale(0.996264)"/>
     <use xlink:href="#CMMI12-63" transform="translate(156.598774 -184.824532) scale(0.996264)"/>
     <use xlink:href="#CMR17-31" transform="translate(198.582008 -184.824532) scale(0.996264)"/>
     <use xlink:href="#CMMI12-66" transform="translate(244.272485 -184.824532) scale(0.996264)"/>
     <use xlink:href="#CMSY10-30" transform="translate(302.99279 -148.670893) scale(0.697382)"/>
     <use xlink:href="#CMR17-28" transform="translate(322.668883 -184.824532) scale(0.996264)"/>
     <use xlink:href="#CMMI12-61" transform="translate(357.94965 -184.824532) scale(0.996264)"/>
     <use xlink:href="#CMR17-29" transform="translate(409.157508 -184.824532) scale(0.996264)"/>
    </g>
   </g>
   <g id="text_5">
    <!-- $(a, b)$ -->
    <g transform="translate(207.671137 112.103651) scale(0.25 -0.25)">
     <defs>
      <path id="CMMI12-3b" d="M 1248 -31 
C 1248 343 1126 619 864 619 
C 659 619 557 453 557 313 
C 557 172 653 0 870 0 
C 954 0 1024 26 1082 83 
C 1094 96 1101 96 1107 96 
C 1120 96 1120 5 1120 -27 
C 1120 -240 1082 -659 710 -1080 
C 640 -1157 640 -1170 640 -1183 
C 640 -1216 672 -1248 704 -1248 
C 755 -1248 1248 -771 1248 -31 
z
" transform="scale(0.015625)"/>
      <path id="CMMI12-62" d="M 1478 4257 
C 1485 4283 1498 4321 1498 4352 
C 1498 4416 1434 4416 1421 4416 
C 1414 4416 1184 4393 1069 4377 
C 960 4377 864 4358 749 4358 
C 595 4345 550 4339 550 4224 
C 550 4160 614 4160 678 4160 
C 1005 4160 1005 4103 1005 4040 
C 1005 3996 954 3811 928 3696 
L 774 3085 
C 710 2831 346 1387 320 1272 
C 288 1114 288 1005 288 922 
C 288 274 653 -64 1069 -64 
C 1811 -64 2579 888 2579 1814 
C 2579 2401 2246 2816 1766 2816 
C 1434 2816 1133 2542 1011 2414 
L 1478 4257 
z
M 1075 64 
C 870 64 646 217 646 715 
C 646 926 666 1047 781 1494 
C 800 1577 902 1986 928 2069 
C 941 2120 1318 2689 1754 2689 
C 2035 2689 2163 2408 2163 2076 
C 2163 1769 1984 1047 1824 715 
C 1664 370 1370 64 1075 64 
z
" transform="scale(0.015625)"/>
     </defs>
     <use xlink:href="#CMR17-28" transform="scale(0.996264)"/>
     <use xlink:href="#CMMI12-61" transform="translate(35.280768 0) scale(0.996264)"/>
     <use xlink:href="#CMMI12-3b" transform="translate(86.488625 0) scale(0.996264)"/>
     <use xlink:href="#CMMI12-62" transform="translate(130.190208 0) scale(0.996264)"/>
     <use xlink:href="#CMR17-29" transform="translate(171.666082 0) scale(0.996264)"/>
    </g>
   </g>
   <g id="text_6">
    <!-- $(b, a)$ -->
    <g transform="translate(229.418313 164.732625) scale(0.25 -0.25)">
     <use xlink:href="#CMR17-28" transform="scale(0.996264)"/>
     <use xlink:href="#CMMI12-62" transform="translate(35.280768 0) scale(0.996264)"/>
     <use xlink:href="#CMMI12-3b" transform="translate(76.756642 0) scale(0.996264)"/>
     <use xlink:href="#CMMI12-61" transform="translate(120.458224 0) scale(0.996264)"/>
     <use xlink:href="#CMR17-29" transform="translate(171.666082 0) scale(0.996264)"/>
    </g>
   </g>
   <g id="legend_1">
    <g id="patch_11">
     <path d="M 313.263891 114.694749 
L 429.5 114.694749 
Q 434.5 114.694749 434.5 109.694749 
L 434.5 39.730394 
Q 434.5 34.730394 429.5 34.730394 
L 313.263891 34.730394 
Q 308.263891 34.730394 308.263891 39.730394 
L 308.263891 109.694749 
Q 308.263891 114.694749 313.263891 114.694749 
z
" style="fill: #ffffff; opacity: 0.8; stroke: #cccccc; stroke-linejoin: miter"/>
    </g>
    <g id="line2d_9">
     <path d="M 318.263891 53.480394 
L 343.263891 53.480394 
L 368.263891 53.480394 
" style="fill: none; stroke: #0072b2; stroke-width: 2.5; stroke-linecap: square"/>
    </g>
    <g id="text_7">
     <!-- $f$ -->
     <g transform="translate(388.263891 62.230394) scale(0.25 -0.25)">
      <use xlink:href="#CMMI12-66" transform="scale(0.996264)"/>
     </g>
    </g>
    <g id="line2d_10">
     <path d="M 318.263891 91.100214 
L 343.263891 91.100214 
L 368.263891 91.100214 
" style="fill: none; stroke: #dc5e8b; stroke-width: 2.5; stroke-linecap: square"/>
    </g>
    <g id="text_8">
     <!-- $f^{-1}$ -->
     <g transform="translate(388.263891 99.850214) scale(0.25 -0.25)">
      <defs>
       <path id="CMSY10-0" d="M 4218 1472 
C 4326 1472 4442 1472 4442 1600 
C 4442 1728 4326 1728 4218 1728 
L 755 1728 
C 646 1728 531 1728 531 1600 
C 531 1472 646 1472 755 1472 
L 4218 1472 
z
" transform="scale(0.015625)"/>
      </defs>
      <use xlink:href="#CMMI12-66" transform="scale(0.996264)"/>
      <use xlink:href="#CMSY10-0" transform="translate(58.720305 36.153639) scale(0.697382)"/>
      <use xlink:href="#CMR17-31" transform="translate(112.961298 36.153639) scale(0.697382)"/>
     </g>
    </g>
   </g>
   <g id="line2d_11">
    <path d="M 126.526531 188.170059 
L 131.462999 181.480487 
" clip-path="url(#pf3cef31521)" style="fill: none; stroke: #0072b2; stroke-width: 2"/>
   </g>
   <g id="line2d_12">
    <path d="M 126.526531 188.170059 
L 131.464348 194.858881 
" clip-path="url(#pf3cef31521)" style="fill: none; stroke: #0072b2; stroke-width: 2"/>
   </g>
   <g id="line2d_13">
    <path d="M 240.634724 57.621876 
L 226.067317 53.214778 
" clip-path="url(#pf3cef31521)" style="fill: none; stroke: #0072b2; stroke-width: 2"/>
   </g>
   <g id="line2d_14">
    <path d="M 226.067317 53.214778 
L 224.440928 57.25691 
" clip-path="url(#pf3cef31521)" style="fill: none; stroke: #0072b2; stroke-width: 2"/>
   </g>
   <g id="line2d_15">
    <path d="M 240.634724 57.621876 
L 239.008335 61.664008 
" clip-path="url(#pf3cef31521)" style="fill: none; stroke: #0072b2; stroke-width: 2"/>
   </g>
   <g id="line2d_16">
    <path d="M 179.938776 221.357992 
L 172.333956 216.932094 
" clip-path="url(#pf3cef31521)" style="fill: none; stroke: #dc5e8b; stroke-width: 2"/>
   </g>
   <g id="line2d_17">
    <path d="M 179.938776 221.357992 
L 187.758861 217.223751 
" clip-path="url(#pf3cef31521)" style="fill: none; stroke: #dc5e8b; stroke-width: 2"/>
   </g>
   <g id="line2d_18">
    <path d="M 394.948084 161.5665 
L 392.227426 148.397751 
" clip-path="url(#pf3cef31521)" style="fill: none; stroke: #dc5e8b; stroke-width: 2"/>
   </g>
   <g id="line2d_19">
    <path d="M 392.227426 148.397751 
L 387.367651 149.152674 
" clip-path="url(#pf3cef31521)" style="fill: none; stroke: #dc5e8b; stroke-width: 2"/>
   </g>
   <g id="line2d_20">
    <path d="M 394.948084 161.5665 
L 390.088309 162.321422 
" clip-path="url(#pf3cef31521)" style="fill: none; stroke: #dc5e8b; stroke-width: 2"/>
   </g>
  </g>
 </g>
 <defs>
  <clipPath id="pf3cef31521">
   <rect x="73.114286" y="22.230394" width="373.885714" height="232.315531"/>
  </clipPath>
 </defs>
</svg>
