<?xml version="1.0" encoding="utf-8" standalone="no"?>
<!DOCTYPE svg PUBLIC "-//W3C//DTD SVG 1.1//EN"
  "http://www.w3.org/Graphics/SVG/1.1/DTD/svg11.dtd">
<svg xmlns:xlink="http://www.w3.org/1999/xlink" width="460.8pt" height="345.6pt" viewBox="0 0 460.8 345.6" xmlns="http://www.w3.org/2000/svg" version="1.1">
 <metadata>
  <rdf:RDF xmlns:dc="http://purl.org/dc/elements/1.1/" xmlns:cc="http://creativecommons.org/ns#" xmlns:rdf="http://www.w3.org/1999/02/22-rdf-syntax-ns#">
   <cc:Work>
    <dc:type rdf:resource="http://purl.org/dc/dcmitype/StillImage"/>
    <dc:date>2026-02-21T17:11:31.342631</dc:date>
    <dc:format>image/svg+xml</dc:format>
    <dc:creator>
     <cc:Agent>
      <dc:title>Matplotlib v3.9.1, https://matplotlib.org/</dc:title>
     </cc:Agent>
    </dc:creator>
   </cc:Work>
  </rdf:RDF>
 </metadata>
 <defs>
  <style type="text/css">*{stroke-linejoin: round; stroke-linecap: butt}</style>
 </defs>
 <g id="figure_1">
  <g id="patch_1">
   <path d="M 0 345.6 
L 460.8 345.6 
L 460.8 0 
L 0 0 
L 0 345.6 
z
" style="fill: none"/>
  </g>
  <g id="axes_1">
   <g id="patch_2">
    <path d="M 10.8 334.8 
L 447 334.8 
L 447 24.444473 
L 10.8 24.444473 
L 10.8 334.8 
z
" style="fill: none"/>
   </g>
   <g id="matplotlib.axis_1">
    <g id="text_1">
     <!-- $x$ -->
     <g transform="translate(430.369782 204.377732) scale(0.3 -0.3)">
      <defs>
       <path id="CMMI12-78" d="M 3034 2606 
C 2829 2567 2752 2414 2752 2293 
C 2752 2139 2874 2088 2963 2088 
C 3155 2088 3290 2254 3290 2427 
C 3290 2695 2982 2816 2714 2816 
C 2323 2816 2106 2433 2048 2312 
C 1901 2816 1504 2816 1389 2816 
C 736 2816 390 1980 390 1839 
C 390 1814 416 1782 461 1782 
C 512 1782 525 1820 538 1846 
C 755 2555 1184 2689 1370 2689 
C 1658 2689 1715 2420 1715 2267 
C 1715 2127 1677 1980 1600 1673 
L 1382 798 
C 1286 415 1101 64 762 64 
C 730 64 570 64 435 147 
C 666 192 717 383 717 460 
C 717 588 621 664 499 664 
C 346 664 179 530 179 326 
C 179 57 480 -64 755 -64 
C 1062 -64 1280 179 1414 441 
C 1517 64 1837 -64 2074 -64 
C 2726 -64 3072 773 3072 913 
C 3072 945 3046 971 3008 971 
C 2950 971 2944 939 2925 888 
C 2752 326 2381 64 2093 64 
C 1869 64 1747 230 1747 492 
C 1747 632 1773 734 1875 1156 
L 2099 2024 
C 2195 2408 2413 2689 2707 2689 
C 2720 2689 2899 2689 3034 2606 
z
" transform="scale(0.015625)"/>
      </defs>
      <use xlink:href="#CMMI12-78" transform="scale(0.996264)"/>
     </g>
    </g>
   </g>
   <g id="matplotlib.axis_2">
    <g id="text_2">
     <!-- $y$ -->
     <g transform="translate(210.630756 18.631022) scale(0.3 -0.3)">
      <defs>
       <path id="CMMI12-79" d="M 1683 -700 
C 1510 -939 1261 -1152 947 -1152 
C 870 -1152 563 -1152 467 -889 
C 486 -895 518 -895 531 -895 
C 723 -895 851 -729 851 -582 
C 851 -435 730 -384 634 -384 
C 531 -384 307 -458 307 -759 
C 307 -1071 582 -1286 947 -1286 
C 1587 -1286 2234 -700 2413 6 
L 3040 2485 
C 3046 2517 3059 2556 3059 2594 
C 3059 2689 2982 2753 2886 2753 
C 2829 2753 2694 2727 2643 2535 
L 2170 658 
C 2138 543 2138 530 2086 460 
C 1958 281 1747 64 1440 64 
C 1082 64 1050 415 1050 588 
C 1050 952 1222 1443 1395 1903 
C 1466 2088 1504 2178 1504 2305 
C 1504 2574 1312 2816 998 2816 
C 410 2816 173 1890 173 1839 
C 173 1814 198 1782 243 1782 
C 301 1782 307 1807 333 1897 
C 486 2433 730 2689 979 2689 
C 1037 2689 1146 2689 1146 2478 
C 1146 2312 1075 2127 979 1884 
C 666 1047 666 837 666 683 
C 666 77 1101 -64 1421 -64 
C 1606 -64 1837 -6 2061 230 
L 2067 224 
C 1971 -147 1907 -392 1683 -700 
z
" transform="scale(0.015625)"/>
      </defs>
      <use xlink:href="#CMMI12-79" transform="scale(0.996264)"/>
     </g>
    </g>
   </g>
   <g id="line2d_1">
    <defs>
     <path id="mf7d748e6f9" d="M 3 0 
L -3 -3 
L -3 3 
z
" style="stroke: #000000; stroke-linejoin: miter"/>
    </defs>
    <g>
     <use xlink:href="#mf7d748e6f9" x="447" y="179.622236" style="stroke: #000000; stroke-linejoin: miter"/>
    </g>
   </g>
   <g id="line2d_2">
    <defs>
     <path id="m32ea41c1d6" d="M 0 -3 
L -3 3 
L 3 3 
z
" style="stroke: #000000; stroke-linejoin: miter"/>
    </defs>
    <g>
     <use xlink:href="#m32ea41c1d6" x="228.9" y="24.444473" style="stroke: #000000; stroke-linejoin: miter"/>
    </g>
   </g>
   <g id="line2d_3">
    <path d="M 10.8 179.545635 
L 29.01161 179.325841 
L 40.433803 178.97537 
L 49.060355 178.496234 
L 56.169273 177.884537 
L 62.29306 177.138812 
L 67.724593 176.257511 
L 72.676872 175.231317 
L 77.2564 174.056983 
L 81.543051 172.730158 
L 85.6167 171.238026 
L 89.530599 169.568279 
L 93.311372 167.714932 
L 97.012269 165.654202 
L 100.686541 163.35202 
L 104.334188 160.802056 
L 108.00846 157.958746 
L 111.735982 154.788543 
L 115.54338 151.255225 
L 119.510529 147.266335 
L 123.717305 142.716492 
L 128.350082 137.370056 
L 133.834865 130.683831 
L 143.845926 118.034808 
L 149.943087 110.54139 
L 154.149863 105.710776 
L 157.637759 102.032069 
L 160.699652 99.117362 
L 163.442044 96.805702 
L 165.944809 94.978517 
L 168.261198 93.554869 
L 170.444461 92.469895 
L 172.494598 91.694958 
L 174.46486 91.186651 
L 176.355246 90.928149 
L 178.192382 90.901465 
L 180.002893 91.09977 
L 181.786779 91.52007 
L 183.570665 92.169458 
L 185.381176 93.067787 
L 187.218312 94.229828 
L 189.108698 95.692159 
L 191.052335 97.479675 
L 193.075847 99.647153 
L 195.179235 102.230235 
L 197.389123 105.30246 
L 199.705512 108.909223 
L 202.155027 113.140859 
L 204.764292 118.100735 
L 207.559934 123.902469 
L 210.595202 130.727032 
L 213.949973 138.836299 
L 217.730745 148.576135 
L 222.283648 160.947463 
L 229.179564 180.417862 
L 237.459989 203.648493 
L 241.986266 215.678262 
L 245.740414 225.045997 
L 249.068559 232.769898 
L 252.103827 239.264132 
L 254.899469 244.733086 
L 257.508735 249.36181 
L 259.958249 253.268036 
L 262.274638 256.557157 
L 264.484527 259.319978 
L 266.587914 261.605045 
L 268.611426 263.484536 
L 270.581688 265.014645 
L 272.472075 266.206587 
L 274.309211 267.109063 
L 276.119722 267.755872 
L 277.930233 268.167038 
L 279.740743 268.348697 
L 281.551254 268.307904 
L 283.415016 268.041882 
L 285.332027 267.54103 
L 287.328914 266.78619 
L 289.432302 265.748476 
L 291.668815 264.390353 
L 294.06508 262.66716 
L 296.64772 260.529318 
L 299.496612 257.873263 
L 302.665006 254.606869 
L 306.339279 250.48729 
L 310.838931 245.090811 
L 317.681597 236.491213 
L 327.266654 224.496865 
L 332.485186 218.334795 
L 337.011463 213.326936 
L 341.164988 209.056234 
L 345.105512 205.317564 
L 348.91291 202.007034 
L 352.640432 199.056904 
L 356.341329 196.409903 
L 360.042227 194.036293 
L 363.769749 191.910227 
L 367.550522 190.009805 
L 371.437795 188.305952 
L 375.458194 186.788298 
L 379.66497 185.440514 
L 384.084746 184.259158 
L 388.824025 183.224555 
L 393.962681 182.333009 
L 399.660465 181.574789 
L 406.077129 180.950149 
L 413.558799 180.451486 
L 422.691229 180.074774 
L 434.672551 179.816474 
L 447 179.698838 
L 447 179.698838 
" clip-path="url(#pd4d82ba4df)" style="fill: none; stroke: #0072b2; stroke-width: 3.5; stroke-linecap: square"/>
   </g>
   <g id="patch_3">
    <path d="M 228.9 334.8 
L 228.9 24.444473 
" style="fill: none; stroke: #000000; stroke-width: 0.8; stroke-linejoin: miter; stroke-linecap: square"/>
   </g>
   <g id="patch_4">
    <path d="M 447 334.8 
L 447 24.444473 
" style="fill: none"/>
   </g>
   <g id="patch_5">
    <path d="M 10.8 179.622236 
L 447 179.622236 
" style="fill: none; stroke: #000000; stroke-width: 0.8; stroke-linejoin: miter; stroke-linecap: square"/>
   </g>
   <g id="patch_6">
    <path d="M 10.8 24.444473 
L 447 24.444473 
" style="fill: none"/>
   </g>
   <g id="legend_1">
    <g id="patch_7">
     <path d="M 307.767606 90.257923 
L 426 90.257923 
Q 432 90.257923 432 84.257923 
L 432 45.444473 
Q 432 39.444473 426 39.444473 
L 307.767606 39.444473 
Q 301.767606 39.444473 301.767606 45.444473 
L 301.767606 84.257923 
Q 301.767606 90.257923 307.767606 90.257923 
z
" style="fill: #ffffff; opacity: 0.8; stroke: #cccccc; stroke-linejoin: miter"/>
    </g>
    <g id="line2d_4">
     <path d="M 313.767606 61.944473 
L 343.767606 61.944473 
L 373.767606 61.944473 
" style="fill: none; stroke: #0072b2; stroke-width: 3.5; stroke-linecap: square"/>
    </g>
    <g id="text_3">
     <!-- $B$ -->
     <g transform="translate(397.767606 72.444473) scale(0.3 -0.3)">
      <defs>
       <path id="CMMI12-42" d="M 2342 3921 
C 2400 4160 2426 4160 2675 4160 
L 3507 4160 
C 4230 4160 4230 3544 4230 3485 
C 4230 2966 3712 2304 2867 2304 
L 1946 2304 
L 2342 3921 
z
M 3424 2275 
C 4122 2402 4755 2886 4755 3473 
C 4755 3970 4314 4352 3590 4352 
L 1536 4352 
C 1414 4352 1357 4352 1357 4226 
C 1357 4160 1414 4160 1510 4160 
C 1901 4160 1901 4112 1901 4044 
C 1901 4032 1901 3993 1875 3897 
L 1011 472 
C 954 249 941 185 493 185 
C 371 185 307 185 307 70 
C 307 0 346 0 474 0 
L 2669 0 
C 3648 0 4403 739 4403 1383 
C 4403 1906 3942 2224 3424 2275 
z
M 2515 185 
L 1651 185 
C 1562 185 1549 185 1510 192 
C 1440 198 1434 211 1434 261 
C 1434 305 1446 343 1459 399 
L 1907 2176 
L 3110 2176 
C 3866 2176 3866 1483 3866 1433 
C 3866 828 3309 185 2515 185 
z
" transform="scale(0.015625)"/>
      </defs>
      <use xlink:href="#CMMI12-42" transform="scale(0.996264)"/>
     </g>
    </g>
   </g>
  </g>
 </g>
 <defs>
  <clipPath id="pd4d82ba4df">
   <rect x="10.8" y="24.444473" width="436.2" height="310.355527"/>
  </clipPath>
 </defs>
</svg>
