<?xml version="1.0" encoding="utf-8" standalone="no"?>
<!DOCTYPE svg PUBLIC "-//W3C//DTD SVG 1.1//EN"
  "http://www.w3.org/Graphics/SVG/1.1/DTD/svg11.dtd">
<svg xmlns:xlink="http://www.w3.org/1999/xlink" width="432pt" height="432pt" viewBox="0 0 432 432" xmlns="http://www.w3.org/2000/svg" version="1.1">
 <metadata>
  <rdf:RDF xmlns:dc="http://purl.org/dc/elements/1.1/" xmlns:cc="http://creativecommons.org/ns#" xmlns:rdf="http://www.w3.org/1999/02/22-rdf-syntax-ns#">
   <cc:Work>
    <dc:type rdf:resource="http://purl.org/dc/dcmitype/StillImage"/>
    <dc:date>2025-11-20T20:26:28.410737</dc:date>
    <dc:format>image/svg+xml</dc:format>
    <dc:creator>
     <cc:Agent>
      <dc:title>Matplotlib v3.9.1, https://matplotlib.org/</dc:title>
     </cc:Agent>
    </dc:creator>
   </cc:Work>
  </rdf:RDF>
 </metadata>
 <defs>
  <style type="text/css">*{stroke-linejoin: round; stroke-linecap: butt}</style>
 </defs>
 <g id="figure_1">
  <g id="patch_1">
   <path d="M 0 432 
L 432 432 
L 432 0 
L 0 0 
L 0 432 
z
" style="fill: none"/>
  </g>
  <g id="axes_1">
   <g id="line2d_1">
    <path d="M 213.499539 28.242879 
L 376.102071 309.878726 
" clip-path="url(#p4145005ea4)" style="fill: none; stroke: #dc5e8b; stroke-width: 3; stroke-linecap: square"/>
   </g>
   <g id="line2d_2">
    <path d="M 213.499539 28.242879 
L 50.897007 309.878726 
" clip-path="url(#p4145005ea4)" style="fill: none; stroke: #dc5e8b; stroke-width: 3; stroke-linecap: square"/>
   </g>
   <g id="line2d_3">
    <path d="M 213.499539 309.878726 
L 376.102071 309.878726 
" clip-path="url(#p4145005ea4)" style="fill: none; stroke: #000000; stroke-width: 3; stroke-linecap: square"/>
   </g>
   <g id="line2d_4">
    <path d="M 401.256771 216.000111 
L 401.129295 214.616596 
L 400.74704 213.234959 
L 400.110525 211.857078 
L 399.220614 210.484822 
L 398.078517 209.120055 
L 396.429421 207.539765 
L 394.442243 205.97511 
L 392.120655 204.428983 
L 389.063463 202.688332 
L 385.582495 200.979812 
L 381.686153 199.307548 
L 376.818016 197.474611 
L 371.450974 195.698266 
L 365.601421 193.983939 
L 358.557793 192.158231 
L 350.967131 190.422434 
L 342.858061 188.783093 
L 333.375874 187.098594 
L 323.34672 185.545965 
L 312.816357 184.132291 
L 300.81358 182.756142 
L 288.336714 181.560497 
L 275.453507 180.551848 
L 262.233909 179.735671 
L 248.7497 179.116399 
L 235.074093 178.697394 
L 220.129004 178.472079 
L 205.141674 178.485887 
L 190.207598 178.738729 
L 176.551873 179.182915 
L 163.096761 179.827006 
L 149.915321 180.667505 
L 137.079122 181.69985 
L 124.657863 182.918433 
L 112.718985 184.31664 
L 101.327313 185.886878 
L 91.418538 187.470122 
L 82.06679 189.183541 
L 73.314739 191.019318 
L 65.912387 192.787347 
L 59.066605 194.642914 
L 52.80321 196.579021 
L 47.683665 198.384352 
L 43.070655 200.243495 
L 39.406867 201.936655 
L 36.163304 203.663762 
L 33.347795 205.420646 
L 31.240731 206.979014 
L 29.470509 208.554054 
L 28.040401 210.142856 
L 27.087317 211.513414 
L 26.387359 212.890064 
L 25.941477 214.270937 
L 25.750276 215.654159 
L 25.814017 217.03785 
L 26.132612 218.420132 
L 26.70563 219.799127 
L 27.532291 221.172965 
L 28.611474 222.539778 
L 29.941713 223.897711 
L 31.808537 225.468283 
L 34.011153 227.021357 
L 36.545491 228.554062 
L 39.842031 230.277152 
L 43.557745 231.96578 
L 48.227762 233.819221 
L 53.402652 235.618229 
L 59.066605 237.357308 
L 65.912387 239.212875 
L 73.314739 240.980903 
L 81.245748 242.654726 
L 90.544701 244.3796 
L 100.404669 245.974986 
L 110.780663 247.433603 
L 122.632766 248.861034 
L 134.978246 250.110041 
L 147.750072 251.173843 
L 160.878896 252.046662 
L 174.293434 252.723759 
L 187.920848 253.201459 
L 201.687147 253.477168 
L 216.670661 253.546201 
L 231.63397 253.375996 
L 246.481729 252.967639 
L 260.002955 252.38154 
L 273.271683 251.597902 
L 286.215867 250.620979 
L 298.765225 249.456076 
L 310.851617 248.109518 
L 322.409419 246.588616 
L 332.486065 245.048336 
L 342.019802 243.375516 
L 350.967131 241.577788 
L 358.557793 239.841991 
L 365.601421 238.016283 
L 372.071452 236.107549 
L 377.383843 234.324644 
L 382.1956 232.485762 
L 386.492024 230.596519 
L 389.867796 228.879576 
L 392.817851 227.131546 
L 395.044304 225.579832 
L 396.935234 224.010413 
L 398.487148 222.42619 
L 399.545339 221.058721 
L 400.350901 219.684382 
L 400.902742 218.305041 
L 401.200111 216.92257 
L 401.256771 216.000111 
L 401.256771 216.000111 
" clip-path="url(#p4145005ea4)" style="fill: none; stroke-dasharray: 11.1,4.8; stroke-dashoffset: 0; stroke: #000000; stroke-width: 3"/>
   </g>
   <g id="line2d_5">
    <path d="M 376.102071 309.878726 
L 375.991674 308.495211 
L 375.660631 307.113575 
L 375.109393 305.735694 
L 374.338708 304.363438 
L 373.163632 302.772068 
L 371.693472 301.193833 
L 369.930945 299.631649 
L 367.87931 298.088403 
L 365.185461 296.35154 
L 362.125473 294.647328 
L 358.254566 292.774238 
L 353.941461 290.953399 
L 349.199334 289.190373 
L 343.444792 287.305805 
L 337.200209 285.506362 
L 330.489135 283.798831 
L 322.598411 282.034378 
L 314.209893 280.396973 
L 305.361858 278.894087 
L 296.094676 277.532576 
L 285.55672 276.215812 
L 274.627517 275.081827 
L 263.366409 274.136778 
L 251.834539 273.385796 
L 240.094523 272.83296 
L 228.210104 272.48127 
L 215.247217 272.329449 
L 202.273193 272.416886 
L 189.370702 272.743024 
L 177.595314 273.254166 
L 166.014874 273.964168 
L 154.692261 274.869175 
L 143.688953 275.964273 
L 133.064694 277.243515 
L 122.87717 278.699956 
L 113.969557 280.183954 
L 105.516075 281.803442 
L 97.555298 283.551031 
L 90.123547 285.418748 
L 83.855066 287.213753 
L 78.075491 289.094231 
L 72.806618 291.053091 
L 68.517747 292.87698 
L 64.671765 294.752807 
L 61.634453 296.45918 
L 58.963713 298.197946 
L 56.665992 299.964906 
L 54.965859 301.530774 
L 53.558721 303.11207 
L 52.447178 304.705872 
L 51.731268 306.07971 
L 51.235021 307.458705 
L 50.959109 308.840987 
L 50.903908 310.224678 
L 51.069492 311.6079 
L 51.455638 312.988773 
L 52.061819 314.365423 
L 52.887214 315.735981 
L 54.125724 317.324783 
L 55.658781 318.899823 
L 57.483552 320.458191 
L 59.921855 322.215075 
L 62.730862 323.942182 
L 65.903796 325.635342 
L 69.89878 327.494485 
L 74.332436 329.299816 
L 79.19122 331.045819 
L 85.07038 332.90976 
L 91.433864 334.686848 
L 98.257673 336.370381 
L 106.264778 338.106646 
L 114.76117 339.714113 
L 123.708083 341.185448 
L 133.934149 342.627411 
L 144.592229 343.89156 
L 155.624454 344.97103 
L 166.970922 345.859959 
L 178.570026 346.553522 
L 190.358786 347.047953 
L 202.273193 347.340567 
L 215.247217 347.428004 
L 228.210104 347.276183 
L 241.079258 346.886072 
L 252.80435 346.316593 
L 264.31603 345.549269 
L 275.551792 344.588265 
L 286.450631 343.438799 
L 296.953368 342.107113 
L 307.002977 340.600437 
L 315.770408 339.072564 
L 324.0712 337.411486 
L 331.867479 335.624783 
L 339.123672 333.720606 
L 345.223633 331.894898 
L 350.826844 329.986164 
L 355.42751 328.20326 
L 359.594613 326.364377 
L 363.315426 324.475134 
L 366.23893 322.758192 
L 368.793752 321.010161 
L 370.973726 319.235262 
L 372.56955 317.66355 
L 373.871389 316.07745 
L 374.876836 314.479895 
L 375.501321 313.103681 
L 375.905827 311.723088 
L 376.089804 310.339991 
L 376.102071 309.878726 
L 376.102071 309.878726 
" clip-path="url(#p4145005ea4)" style="fill: none; stroke-dasharray: 11.1,4.8; stroke-dashoffset: 0; stroke: #dc5e8b; stroke-width: 3"/>
   </g>
   <g id="line2d_6">
    <path d="M 401.256771 216.000111 
L 401.129295 209.082536 
L 400.74704 202.174355 
L 400.110525 195.284947 
L 399.220614 188.423668 
L 398.078517 181.599835 
L 396.685783 174.822713 
L 395.044304 168.101505 
L 393.156308 161.445337 
L 391.02436 154.863249 
L 388.651355 148.364177 
L 386.040514 141.956947 
L 383.195383 135.650259 
L 380.119825 129.452676 
L 376.818016 123.372614 
L 373.29444 117.41833 
L 369.553882 111.597908 
L 365.601421 105.919251 
L 361.442423 100.390072 
L 357.082536 95.017877 
L 352.527681 89.809962 
L 347.784042 84.773397 
L 342.858061 79.915024 
L 337.756426 75.241437 
L 332.486065 70.758984 
L 327.054134 66.473752 
L 321.46801 62.391558 
L 315.735277 58.517947 
L 309.86372 54.858178 
L 303.861312 51.41722 
L 297.736204 48.199746 
L 291.496712 45.210126 
L 285.151309 42.452418 
L 278.708612 39.930367 
L 272.177369 37.647398 
L 265.566448 35.60661 
L 258.884826 33.810776 
L 252.141576 32.262333 
L 245.345856 30.963384 
L 238.506891 29.915694 
L 231.63397 29.120683 
L 224.736424 28.579433 
L 217.82362 28.292678 
L 210.904944 28.260807 
L 203.989792 28.483864 
L 197.087552 28.961546 
L 190.207598 29.693204 
L 183.359272 30.677845 
L 176.551873 31.914131 
L 169.794644 33.400384 
L 163.096761 35.134586 
L 156.46732 37.114382 
L 149.915321 39.337084 
L 143.449662 41.799673 
L 137.079122 44.498805 
L 130.812353 47.430816 
L 124.657863 50.591724 
L 118.624009 53.977237 
L 112.718985 57.582758 
L 106.950809 61.40339 
L 101.327313 65.433947 
L 95.856134 69.668955 
L 90.544701 74.102663 
L 85.400226 78.729051 
L 80.429695 83.541837 
L 75.639856 88.534485 
L 71.037215 93.700217 
L 66.628021 99.032017 
L 62.41826 104.522646 
L 58.413651 110.164649 
L 54.619629 115.950363 
L 51.041348 121.871933 
L 47.683665 127.921318 
L 44.551141 134.090303 
L 41.648029 140.370512 
L 38.97827 146.753418 
L 36.545491 153.230352 
L 34.352994 159.79252 
L 32.403757 166.431011 
L 30.700427 173.136811 
L 29.245316 179.900814 
L 28.040401 186.713836 
L 27.087317 193.566625 
L 26.387359 200.449877 
L 25.941477 207.354243 
L 25.750276 214.27035 
L 25.814017 221.188805 
L 26.132612 228.100215 
L 26.70563 234.995195 
L 27.532291 241.864381 
L 28.611474 248.698447 
L 29.941713 255.488112 
L 31.521202 262.224157 
L 33.347795 268.897436 
L 35.419014 275.498886 
L 37.732044 282.019544 
L 40.283746 288.450555 
L 43.070655 294.783187 
L 46.088985 301.008841 
L 49.33464 307.119064 
L 52.80321 313.105557 
L 56.489988 318.960193 
L 60.389965 324.675022 
L 64.497848 330.242282 
L 68.808057 335.654416 
L 73.314739 340.904073 
L 78.011776 345.984125 
L 82.89279 350.887675 
L 87.951152 355.608063 
L 93.179993 360.13888 
L 98.572215 364.473974 
L 104.120494 368.607458 
L 109.817297 372.533719 
L 115.654888 376.247426 
L 121.62534 379.743536 
L 127.720547 383.017302 
L 133.932231 386.064279 
L 140.251958 388.880329 
L 146.671147 391.461628 
L 153.181081 393.804671 
L 159.77292 395.906276 
L 166.437714 397.76359 
L 173.166412 399.374091 
L 179.949877 400.735592 
L 186.778899 401.846244 
L 193.644205 402.704539 
L 200.536471 403.309312 
L 207.44634 403.659741 
L 214.364429 403.75535 
L 221.281343 403.59601 
L 228.18769 403.181937 
L 235.074093 402.513693 
L 241.9312 401.592187 
L 248.7497 400.418668 
L 255.520334 398.99473 
L 262.233909 397.322308 
L 268.881309 395.403671 
L 275.453507 393.241426 
L 281.941579 390.838508 
L 288.336714 388.19818 
L 294.63023 385.324028 
L 300.81358 382.219954 
L 306.878367 378.890173 
L 312.816357 375.339207 
L 318.619487 371.571877 
L 324.279877 367.593299 
L 329.789839 363.408876 
L 335.141894 359.024289 
L 340.328772 354.445492 
L 345.343432 349.678703 
L 350.179063 344.730394 
L 354.829099 339.607284 
L 359.287227 334.316331 
L 363.547393 328.864718 
L 367.603811 323.259849 
L 371.450974 317.509334 
L 375.083657 311.620981 
L 378.496929 305.602786 
L 381.686153 299.462922 
L 384.647 293.209725 
L 387.37545 286.851686 
L 389.867796 280.39744 
L 392.120655 273.855749 
L 394.130968 267.235497 
L 395.896005 260.545674 
L 397.413369 253.795363 
L 398.681 246.993731 
L 399.697177 240.150013 
L 400.460519 233.273503 
L 400.96999 226.373537 
L 401.224899 219.459485 
L 401.256771 216.000111 
L 401.256771 216.000111 
" clip-path="url(#p4145005ea4)" style="fill: none; stroke: #0072b2; stroke-width: 3; stroke-linecap: square"/>
   </g>
   <g id="text_1">
    <!-- $r$ -->
    <g transform="translate(288.206675 336.125472) scale(0.3 -0.3)">
     <defs>
      <path id="CMMI12-72" d="M 2490 2612 
C 2291 2574 2189 2433 2189 2293 
C 2189 2139 2310 2088 2400 2088 
C 2579 2088 2726 2242 2726 2433 
C 2726 2638 2528 2816 2208 2816 
C 1952 2816 1658 2701 1389 2312 
C 1344 2650 1088 2816 832 2816 
C 582 2816 454 2625 378 2484 
C 269 2254 173 1871 173 1839 
C 173 1814 198 1782 243 1782 
C 294 1782 301 1788 339 1935 
C 435 2318 557 2689 813 2689 
C 966 2689 1011 2580 1011 2395 
C 1011 2254 947 2005 902 1807 
L 723 1118 
C 698 996 627 709 595 594 
C 550 428 480 128 480 96 
C 480 6 550 -64 646 -64 
C 717 -64 838 -19 877 109 
C 896 160 1133 1124 1171 1271 
C 1203 1411 1242 1546 1274 1686 
C 1299 1775 1325 1878 1344 1961 
C 1363 2018 1536 2331 1696 2472 
C 1773 2542 1939 2689 2202 2689 
C 2304 2689 2406 2670 2490 2612 
z
" transform="scale(0.015625)"/>
     </defs>
     <use xlink:href="#CMMI12-72" transform="scale(0.996264)"/>
    </g>
   </g>
  </g>
 </g>
 <defs>
  <clipPath id="p4145005ea4">
   <rect x="10.8" y="10.8" width="405.399964" height="410.4"/>
  </clipPath>
 </defs>
</svg>
