<?xml version="1.0" encoding="utf-8" standalone="no"?>
<!DOCTYPE svg PUBLIC "-//W3C//DTD SVG 1.1//EN"
  "http://www.w3.org/Graphics/SVG/1.1/DTD/svg11.dtd">
<svg xmlns:xlink="http://www.w3.org/1999/xlink" width="460.8pt" height="345.6pt" viewBox="0 0 460.8 345.6" xmlns="http://www.w3.org/2000/svg" version="1.1">
 <metadata>
  <rdf:RDF xmlns:dc="http://purl.org/dc/elements/1.1/" xmlns:cc="http://creativecommons.org/ns#" xmlns:rdf="http://www.w3.org/1999/02/22-rdf-syntax-ns#">
   <cc:Work>
    <dc:type rdf:resource="http://purl.org/dc/dcmitype/StillImage"/>
    <dc:date>2026-01-19T19:19:27.259063</dc:date>
    <dc:format>image/svg+xml</dc:format>
    <dc:creator>
     <cc:Agent>
      <dc:title>Matplotlib v3.9.1, https://matplotlib.org/</dc:title>
     </cc:Agent>
    </dc:creator>
   </cc:Work>
  </rdf:RDF>
 </metadata>
 <defs>
  <style type="text/css">*{stroke-linejoin: round; stroke-linecap: butt}</style>
 </defs>
 <g id="figure_1">
  <g id="patch_1">
   <path d="M 0 345.6 
L 460.8 345.6 
L 460.8 0 
L 0 0 
L 0 345.6 
z
" style="fill: none"/>
  </g>
  <g id="axes_1">
   <g id="patch_2">
    <path d="M 10.8 334.8 
L 447 334.8 
L 447 20.016315 
L 10.8 20.016315 
L 10.8 334.8 
z
" style="fill: none"/>
   </g>
   <g id="matplotlib.axis_1">
    <g id="text_1">
     <!-- $x$ -->
     <g transform="translate(435.913188 163.766786) scale(0.2 -0.2)">
      <defs>
       <path id="CMMI12-78" d="M 3034 2606 
C 2829 2567 2752 2414 2752 2293 
C 2752 2139 2874 2088 2963 2088 
C 3155 2088 3290 2254 3290 2427 
C 3290 2695 2982 2816 2714 2816 
C 2323 2816 2106 2433 2048 2312 
C 1901 2816 1504 2816 1389 2816 
C 736 2816 390 1980 390 1839 
C 390 1814 416 1782 461 1782 
C 512 1782 525 1820 538 1846 
C 755 2555 1184 2689 1370 2689 
C 1658 2689 1715 2420 1715 2267 
C 1715 2127 1677 1980 1600 1673 
L 1382 798 
C 1286 415 1101 64 762 64 
C 730 64 570 64 435 147 
C 666 192 717 383 717 460 
C 717 588 621 664 499 664 
C 346 664 179 530 179 326 
C 179 57 480 -64 755 -64 
C 1062 -64 1280 179 1414 441 
C 1517 64 1837 -64 2074 -64 
C 2726 -64 3072 773 3072 913 
C 3072 945 3046 971 3008 971 
C 2950 971 2944 939 2925 888 
C 2752 326 2381 64 2093 64 
C 1869 64 1747 230 1747 492 
C 1747 632 1773 734 1875 1156 
L 2099 2024 
C 2195 2408 2413 2689 2707 2689 
C 2720 2689 2899 2689 3034 2606 
z
" transform="scale(0.015625)"/>
      </defs>
      <use xlink:href="#CMMI12-78" transform="scale(0.996264)"/>
     </g>
    </g>
   </g>
   <g id="matplotlib.axis_2">
    <g id="text_2">
     <!-- $y$ -->
     <g transform="translate(215.387165 16.140682) scale(0.2 -0.2)">
      <defs>
       <path id="CMMI12-79" d="M 1683 -700 
C 1510 -939 1261 -1152 947 -1152 
C 870 -1152 563 -1152 467 -889 
C 486 -895 518 -895 531 -895 
C 723 -895 851 -729 851 -582 
C 851 -435 730 -384 634 -384 
C 531 -384 307 -458 307 -759 
C 307 -1071 582 -1286 947 -1286 
C 1587 -1286 2234 -700 2413 6 
L 3040 2485 
C 3046 2517 3059 2556 3059 2594 
C 3059 2689 2982 2753 2886 2753 
C 2829 2753 2694 2727 2643 2535 
L 2170 658 
C 2138 543 2138 530 2086 460 
C 1958 281 1747 64 1440 64 
C 1082 64 1050 415 1050 588 
C 1050 952 1222 1443 1395 1903 
C 1466 2088 1504 2178 1504 2305 
C 1504 2574 1312 2816 998 2816 
C 410 2816 173 1890 173 1839 
C 173 1814 198 1782 243 1782 
C 301 1782 307 1807 333 1897 
C 486 2433 730 2689 979 2689 
C 1037 2689 1146 2689 1146 2478 
C 1146 2312 1075 2127 979 1884 
C 666 1047 666 837 666 683 
C 666 77 1101 -64 1421 -64 
C 1606 -64 1837 -6 2061 230 
L 2067 224 
C 1971 -147 1907 -392 1683 -700 
z
" transform="scale(0.015625)"/>
      </defs>
      <use xlink:href="#CMMI12-79" transform="scale(0.996264)"/>
     </g>
    </g>
   </g>
   <g id="line2d_1">
    <defs>
     <path id="mee8e61b414" d="M 3 0 
L -3 -3 
L -3 3 
z
" style="stroke: #000000; stroke-linejoin: miter"/>
    </defs>
    <g>
     <use xlink:href="#mee8e61b414" x="447" y="145.929789" style="stroke: #000000; stroke-linejoin: miter"/>
    </g>
   </g>
   <g id="line2d_2">
    <defs>
     <path id="m16ba074f2d" d="M 0 -3 
L -3 3 
L 3 3 
z
" style="stroke: #000000; stroke-linejoin: miter"/>
    </defs>
    <g>
     <use xlink:href="#m16ba074f2d" x="228.9" y="20.016315" style="stroke: #000000; stroke-linejoin: miter"/>
    </g>
   </g>
   <g id="line2d_3">
    <path d="M 162.120786 247.558833 
L 163.65341 247.447208 
L 165.177882 247.11224 
L 166.718659 246.544426 
L 168.300197 245.72153 
L 169.9388 244.614482 
L 171.658927 243.179017 
L 173.485032 241.358586 
L 175.441574 239.085854 
L 177.569313 236.262919 
L 179.917163 232.767035 
L 182.599256 228.359038 
L 185.860159 222.547748 
L 190.987928 212.882691 
L 196.515159 202.606312 
L 199.759757 197.041045 
L 202.474459 192.811388 
L 204.903831 189.42692 
L 207.13755 186.686889 
L 209.240832 184.451639 
L 211.246287 182.638514 
L 213.194677 181.172234 
L 215.110457 180.004858 
L 217.03439 179.090261 
L 219.015388 178.394791 
L 221.110518 177.897048 
L 223.433912 177.57885 
L 226.262745 177.427477 
L 235.450339 177.115693 
L 237.716666 176.70329 
L 239.771035 176.104695 
L 241.711272 175.307524 
L 243.602596 174.288162 
L 245.485767 173.017078 
L 247.393395 171.456483 
L 249.358089 169.555707 
L 251.404306 167.260522 
L 253.580958 164.476604 
L 255.936961 161.09122 
L 258.553835 156.927863 
L 261.602779 151.64053 
L 265.654451 144.131436 
L 274.149103 128.285483 
L 277.222504 123.096879 
L 279.80677 119.156517 
L 282.097554 116.057514 
L 284.176379 113.607974 
L 286.100312 111.674645 
L 287.901961 110.171186 
L 289.605783 109.032066 
L 291.236234 108.204361 
L 292.80962 107.650736 
L 294.350396 107.341323 
L 295.679214 107.257482 
L 295.679214 107.257482 
" clip-path="url(#p3527e36d52)" style="fill: none; stroke: #0072b2; stroke-width: 2.5; stroke-linecap: square"/>
   </g>
   <g id="line2d_4">
    <path d="M 10.777824 177.409387 
L 49.269676 177.526487 
L 60.704755 177.778343 
L 68.390628 178.160707 
L 74.389358 178.675695 
L 79.3883 179.322956 
L 83.762374 180.110305 
L 87.69904 181.043514 
L 91.323273 182.131641 
L 94.697559 183.376774 
L 97.884384 184.787702 
L 100.946236 186.383495 
L 103.945601 188.196576 
L 106.882479 190.229278 
L 109.819358 192.530503 
L 112.818723 195.167147 
L 115.880575 198.160284 
L 119.0674 201.592945 
L 122.441686 205.559619 
L 126.190892 210.31963 
L 130.752426 216.492288 
L 143.437241 233.891935 
L 146.56158 237.662176 
L 149.186024 240.490761 
L 151.498035 242.665071 
L 153.560098 244.312731 
L 155.497188 245.580576 
L 157.309304 246.499297 
L 158.996447 247.106572 
L 160.621103 247.453556 
L 162.120786 247.558833 
L 162.120786 247.558833 
" clip-path="url(#p3527e36d52)" style="fill: none; stroke: #dc5e8b; stroke-width: 2.5; stroke-linecap: square"/>
   </g>
   <g id="line2d_5">
    <path d="M 295.679214 107.257482 
L 297.241383 107.371673 
L 298.803553 107.709743 
L 300.428209 108.290173 
L 302.115352 109.128378 
L 303.927468 110.280054 
L 305.864558 111.777549 
L 307.989108 113.706321 
L 310.363606 116.172815 
L 313.050537 119.294673 
L 316.299849 123.43102 
L 320.673923 129.396202 
L 331.984029 144.98737 
L 335.920695 149.940125 
L 339.419955 153.99041 
L 342.669267 157.417073 
L 345.793605 160.392141 
L 348.855457 163.000002 
L 351.854822 165.264373 
L 354.854187 167.252786 
L 357.916039 169.014589 
L 361.040378 170.554398 
L 364.28969 171.905244 
L 367.663975 173.067747 
L 371.288208 174.079477 
L 375.224875 174.943402 
L 379.598949 175.66891 
L 384.535404 176.256159 
L 390.346674 176.716266 
L 397.532652 177.053115 
L 407.343076 177.274327 
L 423.402176 177.385041 
L 447.022176 177.406929 
L 447.022176 177.406929 
" clip-path="url(#p3527e36d52)" style="fill: none; stroke: #dc5e8b; stroke-width: 2.5; stroke-linecap: square"/>
   </g>
   <g id="patch_3">
    <path d="M 228.9 334.8 
L 228.9 20.016315 
" style="fill: none; stroke: #000000; stroke-width: 0.8; stroke-linejoin: miter; stroke-linecap: square"/>
   </g>
   <g id="patch_4">
    <path d="M 447 334.8 
L 447 20.016315 
" style="fill: none"/>
   </g>
   <g id="patch_5">
    <path d="M 10.8 145.929789 
L 447 145.929789 
" style="fill: none; stroke: #000000; stroke-width: 0.8; stroke-linejoin: miter; stroke-linecap: square"/>
   </g>
   <g id="patch_6">
    <path d="M 10.8 20.016315 
L 447 20.016315 
" style="fill: none"/>
   </g>
   <g id="legend_1">
    <g id="patch_7">
     <path d="M 359.383352 63.891949 
L 433 63.891949 
Q 437 63.891949 437 59.891949 
L 437 34.016315 
Q 437 30.016315 433 30.016315 
L 359.383352 30.016315 
Q 355.383352 30.016315 355.383352 34.016315 
L 355.383352 59.891949 
Q 355.383352 63.891949 359.383352 63.891949 
z
" style="fill: #ffffff; opacity: 0.8; stroke: #cccccc; stroke-linejoin: miter"/>
    </g>
    <g id="line2d_6">
     <path d="M 363.383352 45.016315 
L 383.383352 45.016315 
L 403.383352 45.016315 
" style="fill: none; stroke: #0072b2; stroke-width: 2.5; stroke-linecap: square"/>
    </g>
    <g id="text_3">
     <!-- $f$ -->
     <g transform="translate(419.383352 52.016315) scale(0.2 -0.2)">
      <defs>
       <path id="CMMI12-66" d="M 2854 2566 
C 2982 2566 3034 2566 3034 2688 
C 3034 2752 2982 2752 2867 2752 
L 2349 2752 
C 2470 3429 2560 3897 2611 4107 
C 2650 4265 2784 4416 2950 4416 
C 3085 4416 3219 4358 3283 4298 
C 3034 4272 2957 4082 2957 3969 
C 2957 3837 3053 3759 3174 3759 
C 3302 3759 3494 3870 3494 4119 
C 3494 4393 3226 4544 2944 4544 
C 2669 4544 2400 4334 2272 4078 
C 2157 3848 2093 3611 1946 2752 
L 1517 2752 
C 1395 2752 1331 2752 1331 2637 
C 1331 2566 1370 2566 1498 2566 
L 1907 2566 
C 1792 1976 1530 542 1382 -137 
C 1274 -689 1178 -1152 858 -1152 
C 838 -1152 653 -1152 538 -1031 
C 864 -1005 864 -726 864 -720 
C 864 -593 768 -517 646 -517 
C 518 -517 326 -625 326 -867 
C 326 -1140 608 -1280 858 -1280 
C 1510 -1280 1779 -118 1850 199 
C 1965 688 2278 2376 2310 2566 
L 2854 2566 
z
" transform="scale(0.015625)"/>
      </defs>
      <use xlink:href="#CMMI12-66" transform="scale(0.996264)"/>
     </g>
    </g>
   </g>
   <g id="line2d_7">
    <path d="M 162.124249 256.558833 
L 162.117323 238.558834 
" clip-path="url(#p3527e36d52)" style="fill: none; stroke: #0072b2; stroke-width: 2"/>
   </g>
   <g id="line2d_8">
    <path d="M 162.117323 238.558834 
L 167.877323 238.556618 
" clip-path="url(#p3527e36d52)" style="fill: none; stroke: #0072b2; stroke-width: 2"/>
   </g>
   <g id="line2d_9">
    <path d="M 162.124249 256.558833 
L 167.884248 256.556616 
" clip-path="url(#p3527e36d52)" style="fill: none; stroke: #0072b2; stroke-width: 2"/>
   </g>
   <g id="line2d_10">
    <path d="M 295.682677 116.257481 
L 295.675751 98.257483 
" clip-path="url(#p3527e36d52)" style="fill: none; stroke: #0072b2; stroke-width: 2"/>
   </g>
   <g id="line2d_11">
    <path d="M 295.675751 98.257483 
L 289.915752 98.259699 
" clip-path="url(#p3527e36d52)" style="fill: none; stroke: #0072b2; stroke-width: 2"/>
   </g>
   <g id="line2d_12">
    <path d="M 295.682677 116.257481 
L 289.922677 116.259697 
" clip-path="url(#p3527e36d52)" style="fill: none; stroke: #0072b2; stroke-width: 2"/>
   </g>
   <g id="line2d_13">
    <path clip-path="url(#p3527e36d52)" style="fill: none; stroke: #dc5e8b; stroke-width: 2"/>
   </g>
   <g id="line2d_14">
    <path clip-path="url(#p3527e36d52)" style="fill: none; stroke: #dc5e8b; stroke-width: 2"/>
   </g>
   <g id="line2d_15">
    <path d="M 162.120786 247.558833 
L 156.387343 238.541892 
" clip-path="url(#p3527e36d52)" style="fill: none; stroke: #dc5e8b; stroke-width: 2"/>
   </g>
   <g id="line2d_16">
    <path d="M 162.120786 247.558833 
L 156.334279 256.541814 
" clip-path="url(#p3527e36d52)" style="fill: none; stroke: #dc5e8b; stroke-width: 2"/>
   </g>
   <g id="line2d_17">
    <path d="M 295.679214 107.257482 
L 301.465721 98.274501 
" clip-path="url(#p3527e36d52)" style="fill: none; stroke: #dc5e8b; stroke-width: 2"/>
   </g>
   <g id="line2d_18">
    <path d="M 295.679214 107.257482 
L 301.412657 116.274423 
" clip-path="url(#p3527e36d52)" style="fill: none; stroke: #dc5e8b; stroke-width: 2"/>
   </g>
   <g id="line2d_19">
    <path clip-path="url(#p3527e36d52)" style="fill: none; stroke: #dc5e8b; stroke-width: 2"/>
   </g>
   <g id="line2d_20">
    <path clip-path="url(#p3527e36d52)" style="fill: none; stroke: #dc5e8b; stroke-width: 2"/>
   </g>
  </g>
 </g>
 <defs>
  <clipPath id="p3527e36d52">
   <rect x="10.8" y="20.016315" width="436.2" height="314.783685"/>
  </clipPath>
 </defs>
</svg>
