<?xml version="1.0" encoding="utf-8" standalone="no"?>
<!DOCTYPE svg PUBLIC "-//W3C//DTD SVG 1.1//EN"
  "http://www.w3.org/Graphics/SVG/1.1/DTD/svg11.dtd">
<svg xmlns:xlink="http://www.w3.org/1999/xlink" width="460.8pt" height="345.6pt" viewBox="0 0 460.8 345.6" xmlns="http://www.w3.org/2000/svg" version="1.1">
 <metadata>
  <rdf:RDF xmlns:dc="http://purl.org/dc/elements/1.1/" xmlns:cc="http://creativecommons.org/ns#" xmlns:rdf="http://www.w3.org/1999/02/22-rdf-syntax-ns#">
   <cc:Work>
    <dc:type rdf:resource="http://purl.org/dc/dcmitype/StillImage"/>
    <dc:date>2026-01-19T19:20:29.298687</dc:date>
    <dc:format>image/svg+xml</dc:format>
    <dc:creator>
     <cc:Agent>
      <dc:title>Matplotlib v3.9.1, https://matplotlib.org/</dc:title>
     </cc:Agent>
    </dc:creator>
   </cc:Work>
  </rdf:RDF>
 </metadata>
 <defs>
  <style type="text/css">*{stroke-linejoin: round; stroke-linecap: butt}</style>
 </defs>
 <g id="figure_1">
  <g id="patch_1">
   <path d="M 0 345.6 
L 460.8 345.6 
L 460.8 0 
L 0 0 
L 0 345.6 
z
" style="fill: none"/>
  </g>
  <g id="axes_1">
   <g id="patch_2">
    <path d="M 10.8 334.8 
L 447 334.8 
L 447 20.016315 
L 10.8 20.016315 
L 10.8 334.8 
z
" style="fill: none"/>
   </g>
   <g id="matplotlib.axis_1">
    <g id="text_1">
     <!-- $x$ -->
     <g transform="translate(435.913188 155.897194) scale(0.2 -0.2)">
      <defs>
       <path id="CMMI12-78" d="M 3034 2606 
C 2829 2567 2752 2414 2752 2293 
C 2752 2139 2874 2088 2963 2088 
C 3155 2088 3290 2254 3290 2427 
C 3290 2695 2982 2816 2714 2816 
C 2323 2816 2106 2433 2048 2312 
C 1901 2816 1504 2816 1389 2816 
C 736 2816 390 1980 390 1839 
C 390 1814 416 1782 461 1782 
C 512 1782 525 1820 538 1846 
C 755 2555 1184 2689 1370 2689 
C 1658 2689 1715 2420 1715 2267 
C 1715 2127 1677 1980 1600 1673 
L 1382 798 
C 1286 415 1101 64 762 64 
C 730 64 570 64 435 147 
C 666 192 717 383 717 460 
C 717 588 621 664 499 664 
C 346 664 179 530 179 326 
C 179 57 480 -64 755 -64 
C 1062 -64 1280 179 1414 441 
C 1517 64 1837 -64 2074 -64 
C 2726 -64 3072 773 3072 913 
C 3072 945 3046 971 3008 971 
C 2950 971 2944 939 2925 888 
C 2752 326 2381 64 2093 64 
C 1869 64 1747 230 1747 492 
C 1747 632 1773 734 1875 1156 
L 2099 2024 
C 2195 2408 2413 2689 2707 2689 
C 2720 2689 2899 2689 3034 2606 
z
" transform="scale(0.015625)"/>
      </defs>
      <use xlink:href="#CMMI12-78" transform="scale(0.996264)"/>
     </g>
    </g>
   </g>
   <g id="matplotlib.axis_2">
    <g id="text_2">
     <!-- $y$ -->
     <g transform="translate(215.387165 16.140682) scale(0.2 -0.2)">
      <defs>
       <path id="CMMI12-79" d="M 1683 -700 
C 1510 -939 1261 -1152 947 -1152 
C 870 -1152 563 -1152 467 -889 
C 486 -895 518 -895 531 -895 
C 723 -895 851 -729 851 -582 
C 851 -435 730 -384 634 -384 
C 531 -384 307 -458 307 -759 
C 307 -1071 582 -1286 947 -1286 
C 1587 -1286 2234 -700 2413 6 
L 3040 2485 
C 3046 2517 3059 2556 3059 2594 
C 3059 2689 2982 2753 2886 2753 
C 2829 2753 2694 2727 2643 2535 
L 2170 658 
C 2138 543 2138 530 2086 460 
C 1958 281 1747 64 1440 64 
C 1082 64 1050 415 1050 588 
C 1050 952 1222 1443 1395 1903 
C 1466 2088 1504 2178 1504 2305 
C 1504 2574 1312 2816 998 2816 
C 410 2816 173 1890 173 1839 
C 173 1814 198 1782 243 1782 
C 301 1782 307 1807 333 1897 
C 486 2433 730 2689 979 2689 
C 1037 2689 1146 2689 1146 2478 
C 1146 2312 1075 2127 979 1884 
C 666 1047 666 837 666 683 
C 666 77 1101 -64 1421 -64 
C 1606 -64 1837 -6 2061 230 
L 2067 224 
C 1971 -147 1907 -392 1683 -700 
z
" transform="scale(0.015625)"/>
      </defs>
      <use xlink:href="#CMMI12-79" transform="scale(0.996264)"/>
     </g>
    </g>
   </g>
   <g id="line2d_1">
    <defs>
     <path id="mcd65f59af1" d="M 3 0 
L -3 -3 
L -3 3 
z
" style="stroke: #000000; stroke-linejoin: miter"/>
    </defs>
    <g>
     <use xlink:href="#mcd65f59af1" x="447" y="138.060197" style="stroke: #000000; stroke-linejoin: miter"/>
    </g>
   </g>
   <g id="line2d_2">
    <defs>
     <path id="m70c5a03843" d="M 0 -3 
L -3 3 
L 3 3 
z
" style="stroke: #000000; stroke-linejoin: miter"/>
    </defs>
    <g>
     <use xlink:href="#m70c5a03843" x="228.9" y="20.016315" style="stroke: #000000; stroke-linejoin: miter"/>
    </g>
   </g>
   <g id="line2d_3">
    <path d="M 162.120786 296.855578 
L 163.343624 296.744689 
L 164.566463 296.409899 
L 165.813758 295.835373 
L 167.109967 294.987763 
L 168.463242 293.830717 
L 169.898039 292.302916 
L 171.422511 290.345868 
L 173.061115 287.86946 
L 174.830155 284.780261 
L 176.754087 280.959977 
L 178.881827 276.223796 
L 181.27859 270.324812 
L 184.082967 262.804136 
L 187.710721 252.391185 
L 197.754302 223.20829 
L 200.656505 215.663384 
L 203.151096 209.776825 
L 205.392967 205.037845 
L 207.455488 201.181223 
L 209.387573 198.026806 
L 211.213678 195.459765 
L 212.958261 193.380676 
L 214.645778 191.70704 
L 216.300687 190.372819 
L 217.947443 189.326726 
L 219.618655 188.526352 
L 221.363238 187.937977 
L 223.24641 187.540047 
L 225.423062 187.314203 
L 228.455702 187.245292 
L 233.020966 187.130363 
L 235.205771 186.837039 
L 237.072638 186.364708 
L 238.784612 185.703534 
L 240.423215 184.831391 
L 242.02921 183.722213 
L 243.635205 182.33923 
L 245.273808 180.628251 
L 246.961326 178.536207 
L 248.714061 176.000669 
L 250.564623 172.921314 
L 252.529317 169.208334 
L 254.648904 164.71347 
L 256.98045 159.229833 
L 259.613629 152.446595 
L 262.776704 143.651184 
L 267.488709 129.803975 
L 273.390943 112.595823 
L 276.513258 104.186456 
L 279.081219 97.885921 
L 281.331242 92.934867 
L 283.353001 89.005484 
L 285.203564 85.880138 
L 286.907385 83.42568 
L 288.488923 81.525184 
L 289.964482 80.088407 
L 291.358518 79.033492 
L 292.679183 78.306589 
L 293.950936 77.856681 
L 295.190079 77.652401 
L 295.679214 77.634717 
L 295.679214 77.634717 
" clip-path="url(#pd89fff9a60)" style="fill: none; stroke: #0072b2; stroke-width: 2.5; stroke-linecap: square"/>
   </g>
   <g id="line2d_4">
    <path d="M 10.777824 187.247068 
L 45.270522 187.366315 
L 56.205707 187.618906 
L 63.51666 187.999017 
L 69.202956 188.509133 
L 73.951951 189.15364 
L 78.076078 189.935176 
L 81.762797 190.859106 
L 85.137083 191.93486 
L 88.261421 193.165145 
L 91.1983 194.560579 
L 94.010204 196.143926 
L 96.697136 197.909928 
L 99.32158 199.898025 
L 101.946024 202.168959 
L 104.507982 204.678676 
L 107.132427 207.567574 
L 109.756871 210.792828 
L 112.443802 214.453597 
L 115.19322 218.579233 
L 118.067612 223.298072 
L 121.129463 228.761266 
L 124.441262 235.132997 
L 128.252955 242.96373 
L 133.439358 254.179302 
L 141.312691 271.196845 
L 144.686976 277.928426 
L 147.373908 282.817744 
L 149.685918 286.588567 
L 151.747982 289.545143 
L 153.622585 291.854287 
L 155.309728 293.59247 
L 156.871897 294.892112 
L 158.309093 295.80882 
L 159.683802 296.423696 
L 160.996024 296.76285 
L 162.120786 296.855578 
L 162.120786 296.855578 
" clip-path="url(#pd89fff9a60)" style="fill: none; stroke: #dc5e8b; stroke-width: 2.5; stroke-linecap: square"/>
   </g>
   <g id="line2d_5">
    <path d="M 295.679214 77.634717 
L 296.92895 77.749115 
L 298.178685 78.088849 
L 299.490907 78.681475 
L 300.865616 79.552664 
L 302.302812 80.725743 
L 303.864981 82.288973 
L 305.552124 84.292421 
L 307.426727 86.870726 
L 309.488791 90.090301 
L 311.863288 94.227065 
L 314.612706 99.484744 
L 318.049478 106.57172 
L 323.360854 118.114866 
L 330.421859 133.363635 
L 334.358526 141.327702 
L 337.732812 147.673504 
L 340.85715 153.087319 
L 343.794029 157.739638 
L 346.605933 161.784945 
L 349.355351 165.352883 
L 352.042282 168.477071 
L 354.666727 171.195389 
L 357.291171 173.601281 
L 359.978103 175.761538 
L 362.665034 177.638707 
L 365.414452 179.292416 
L 368.288843 180.761572 
L 371.288208 182.044085 
L 374.475034 183.163137 
L 377.911806 184.130713 
L 381.661012 184.951758 
L 385.847626 185.637127 
L 390.659108 186.194091 
L 396.407891 186.627684 
L 403.656356 186.940783 
L 413.779213 187.139235 
L 431.525456 187.23135 
L 447.022176 187.243228 
L 447.022176 187.243228 
" clip-path="url(#pd89fff9a60)" style="fill: none; stroke: #dc5e8b; stroke-width: 2.5; stroke-linecap: square"/>
   </g>
   <g id="patch_3">
    <path d="M 228.9 334.8 
L 228.9 20.016315 
" style="fill: none; stroke: #000000; stroke-width: 0.8; stroke-linejoin: miter; stroke-linecap: square"/>
   </g>
   <g id="patch_4">
    <path d="M 447 334.8 
L 447 20.016315 
" style="fill: none"/>
   </g>
   <g id="patch_5">
    <path d="M 10.8 138.060197 
L 447 138.060197 
" style="fill: none; stroke: #000000; stroke-width: 0.8; stroke-linejoin: miter; stroke-linecap: square"/>
   </g>
   <g id="patch_6">
    <path d="M 10.8 20.016315 
L 447 20.016315 
" style="fill: none"/>
   </g>
   <g id="legend_1">
    <g id="patch_7">
     <path d="M 359.383352 63.891949 
L 433 63.891949 
Q 437 63.891949 437 59.891949 
L 437 34.016315 
Q 437 30.016315 433 30.016315 
L 359.383352 30.016315 
Q 355.383352 30.016315 355.383352 34.016315 
L 355.383352 59.891949 
Q 355.383352 63.891949 359.383352 63.891949 
z
" style="fill: #ffffff; opacity: 0.8; stroke: #cccccc; stroke-linejoin: miter"/>
    </g>
    <g id="line2d_6">
     <path d="M 363.383352 45.016315 
L 383.383352 45.016315 
L 403.383352 45.016315 
" style="fill: none; stroke: #0072b2; stroke-width: 2.5; stroke-linecap: square"/>
    </g>
    <g id="text_3">
     <!-- $f$ -->
     <g transform="translate(419.383352 52.016315) scale(0.2 -0.2)">
      <defs>
       <path id="CMMI12-66" d="M 2854 2566 
C 2982 2566 3034 2566 3034 2688 
C 3034 2752 2982 2752 2867 2752 
L 2349 2752 
C 2470 3429 2560 3897 2611 4107 
C 2650 4265 2784 4416 2950 4416 
C 3085 4416 3219 4358 3283 4298 
C 3034 4272 2957 4082 2957 3969 
C 2957 3837 3053 3759 3174 3759 
C 3302 3759 3494 3870 3494 4119 
C 3494 4393 3226 4544 2944 4544 
C 2669 4544 2400 4334 2272 4078 
C 2157 3848 2093 3611 1946 2752 
L 1517 2752 
C 1395 2752 1331 2752 1331 2637 
C 1331 2566 1370 2566 1498 2566 
L 1907 2566 
C 1792 1976 1530 542 1382 -137 
C 1274 -689 1178 -1152 858 -1152 
C 838 -1152 653 -1152 538 -1031 
C 864 -1005 864 -726 864 -720 
C 864 -593 768 -517 646 -517 
C 518 -517 326 -625 326 -867 
C 326 -1140 608 -1280 858 -1280 
C 1510 -1280 1779 -118 1850 199 
C 1965 688 2278 2376 2310 2566 
L 2854 2566 
z
" transform="scale(0.015625)"/>
      </defs>
      <use xlink:href="#CMMI12-66" transform="scale(0.996264)"/>
     </g>
    </g>
   </g>
   <g id="line2d_7">
    <path d="M 162.126196 305.855577 
L 162.115375 287.85558 
" clip-path="url(#pd89fff9a60)" style="fill: none; stroke: #0072b2; stroke-width: 2"/>
   </g>
   <g id="line2d_8">
    <path d="M 162.115375 287.85558 
L 167.875374 287.852117 
" clip-path="url(#pd89fff9a60)" style="fill: none; stroke: #0072b2; stroke-width: 2"/>
   </g>
   <g id="line2d_9">
    <path d="M 162.126196 305.855577 
L 167.886195 305.852114 
" clip-path="url(#pd89fff9a60)" style="fill: none; stroke: #0072b2; stroke-width: 2"/>
   </g>
   <g id="line2d_10">
    <path d="M 295.684625 86.634715 
L 295.673804 68.634719 
" clip-path="url(#pd89fff9a60)" style="fill: none; stroke: #0072b2; stroke-width: 2"/>
   </g>
   <g id="line2d_11">
    <path d="M 295.673804 68.634719 
L 289.913805 68.638181 
" clip-path="url(#pd89fff9a60)" style="fill: none; stroke: #0072b2; stroke-width: 2"/>
   </g>
   <g id="line2d_12">
    <path d="M 295.684625 86.634715 
L 289.924626 86.638178 
" clip-path="url(#pd89fff9a60)" style="fill: none; stroke: #0072b2; stroke-width: 2"/>
   </g>
   <g id="line2d_13">
    <path clip-path="url(#pd89fff9a60)" style="fill: none; stroke: #dc5e8b; stroke-width: 2"/>
   </g>
   <g id="line2d_14">
    <path clip-path="url(#pd89fff9a60)" style="fill: none; stroke: #dc5e8b; stroke-width: 2"/>
   </g>
   <g id="line2d_15">
    <path d="M 162.120786 296.855578 
L 156.402302 287.829142 
" clip-path="url(#pd89fff9a60)" style="fill: none; stroke: #dc5e8b; stroke-width: 2"/>
   </g>
   <g id="line2d_16">
    <path d="M 162.120786 296.855578 
L 156.319392 305.828952 
" clip-path="url(#pd89fff9a60)" style="fill: none; stroke: #dc5e8b; stroke-width: 2"/>
   </g>
   <g id="line2d_17">
    <path d="M 295.679214 77.634717 
L 301.480608 68.661344 
" clip-path="url(#pd89fff9a60)" style="fill: none; stroke: #dc5e8b; stroke-width: 2"/>
   </g>
   <g id="line2d_18">
    <path d="M 295.679214 77.634717 
L 301.397698 86.661153 
" clip-path="url(#pd89fff9a60)" style="fill: none; stroke: #dc5e8b; stroke-width: 2"/>
   </g>
   <g id="line2d_19">
    <path clip-path="url(#pd89fff9a60)" style="fill: none; stroke: #dc5e8b; stroke-width: 2"/>
   </g>
   <g id="line2d_20">
    <path clip-path="url(#pd89fff9a60)" style="fill: none; stroke: #dc5e8b; stroke-width: 2"/>
   </g>
  </g>
 </g>
 <defs>
  <clipPath id="pd89fff9a60">
   <rect x="10.8" y="20.016315" width="436.2" height="314.783685"/>
  </clipPath>
 </defs>
</svg>
