<?xml version="1.0" encoding="utf-8" standalone="no"?>
<!DOCTYPE svg PUBLIC "-//W3C//DTD SVG 1.1//EN"
  "http://www.w3.org/Graphics/SVG/1.1/DTD/svg11.dtd">
<svg xmlns:xlink="http://www.w3.org/1999/xlink" width="460.8pt" height="345.6pt" viewBox="0 0 460.8 345.6" xmlns="http://www.w3.org/2000/svg" version="1.1">
 <metadata>
  <rdf:RDF xmlns:dc="http://purl.org/dc/elements/1.1/" xmlns:cc="http://creativecommons.org/ns#" xmlns:rdf="http://www.w3.org/1999/02/22-rdf-syntax-ns#">
   <cc:Work>
    <dc:type rdf:resource="http://purl.org/dc/dcmitype/StillImage"/>
    <dc:date>2025-12-10T23:45:29.549540</dc:date>
    <dc:format>image/svg+xml</dc:format>
    <dc:creator>
     <cc:Agent>
      <dc:title>Matplotlib v3.9.1, https://matplotlib.org/</dc:title>
     </cc:Agent>
    </dc:creator>
   </cc:Work>
  </rdf:RDF>
 </metadata>
 <defs>
  <style type="text/css">*{stroke-linejoin: round; stroke-linecap: butt}</style>
 </defs>
 <g id="figure_1">
  <g id="patch_1">
   <path d="M 0 345.6 
L 460.8 345.6 
L 460.8 0 
L 0 0 
L 0 345.6 
z
" style="fill: none"/>
  </g>
  <g id="axes_1">
   <g id="patch_2">
    <path d="M 10.8 334.8 
L 447 334.8 
L 447 22.230394 
L 10.8 22.230394 
L 10.8 334.8 
z
" style="fill: none"/>
   </g>
   <g id="matplotlib.axis_1">
    <g id="text_1">
     <!-- $x$ -->
     <g transform="translate(433.141493 199.811451) scale(0.25 -0.25)">
      <defs>
       <path id="CMMI12-78" d="M 3034 2606 
C 2829 2567 2752 2414 2752 2293 
C 2752 2139 2874 2088 2963 2088 
C 3155 2088 3290 2254 3290 2427 
C 3290 2695 2982 2816 2714 2816 
C 2323 2816 2106 2433 2048 2312 
C 1901 2816 1504 2816 1389 2816 
C 736 2816 390 1980 390 1839 
C 390 1814 416 1782 461 1782 
C 512 1782 525 1820 538 1846 
C 755 2555 1184 2689 1370 2689 
C 1658 2689 1715 2420 1715 2267 
C 1715 2127 1677 1980 1600 1673 
L 1382 798 
C 1286 415 1101 64 762 64 
C 730 64 570 64 435 147 
C 666 192 717 383 717 460 
C 717 588 621 664 499 664 
C 346 664 179 530 179 326 
C 179 57 480 -64 755 -64 
C 1062 -64 1280 179 1414 441 
C 1517 64 1837 -64 2074 -64 
C 2726 -64 3072 773 3072 913 
C 3072 945 3046 971 3008 971 
C 2950 971 2944 939 2925 888 
C 2752 326 2381 64 2093 64 
C 1869 64 1747 230 1747 492 
C 1747 632 1773 734 1875 1156 
L 2099 2024 
C 2195 2408 2413 2689 2707 2689 
C 2720 2689 2899 2689 3034 2606 
z
" transform="scale(0.015625)"/>
      </defs>
      <use xlink:href="#CMMI12-78" transform="scale(0.996264)"/>
     </g>
    </g>
   </g>
   <g id="matplotlib.axis_2">
    <g id="text_2">
     <!-- $y$ -->
     <g transform="translate(213.008953 17.38586) scale(0.25 -0.25)">
      <defs>
       <path id="CMMI12-79" d="M 1683 -700 
C 1510 -939 1261 -1152 947 -1152 
C 870 -1152 563 -1152 467 -889 
C 486 -895 518 -895 531 -895 
C 723 -895 851 -729 851 -582 
C 851 -435 730 -384 634 -384 
C 531 -384 307 -458 307 -759 
C 307 -1071 582 -1286 947 -1286 
C 1587 -1286 2234 -700 2413 6 
L 3040 2485 
C 3046 2517 3059 2556 3059 2594 
C 3059 2689 2982 2753 2886 2753 
C 2829 2753 2694 2727 2643 2535 
L 2170 658 
C 2138 543 2138 530 2086 460 
C 1958 281 1747 64 1440 64 
C 1082 64 1050 415 1050 588 
C 1050 952 1222 1443 1395 1903 
C 1466 2088 1504 2178 1504 2305 
C 1504 2574 1312 2816 998 2816 
C 410 2816 173 1890 173 1839 
C 173 1814 198 1782 243 1782 
C 301 1782 307 1807 333 1897 
C 486 2433 730 2689 979 2689 
C 1037 2689 1146 2689 1146 2478 
C 1146 2312 1075 2127 979 1884 
C 666 1047 666 837 666 683 
C 666 77 1101 -64 1421 -64 
C 1606 -64 1837 -6 2061 230 
L 2067 224 
C 1971 -147 1907 -392 1683 -700 
z
" transform="scale(0.015625)"/>
      </defs>
      <use xlink:href="#CMMI12-79" transform="scale(0.996264)"/>
     </g>
    </g>
   </g>
   <g id="line2d_1">
    <defs>
     <path id="m2df7493f05" d="M 3 0 
L -3 -3 
L -3 3 
z
" style="stroke: #000000; stroke-linejoin: miter"/>
    </defs>
    <g>
     <use xlink:href="#m2df7493f05" x="447" y="178.515197" style="stroke: #000000; stroke-linejoin: miter"/>
    </g>
   </g>
   <g id="line2d_2">
    <defs>
     <path id="m38ac7ab728" d="M 0 -3 
L -3 3 
L 3 3 
z
" style="stroke: #000000; stroke-linejoin: miter"/>
    </defs>
    <g>
     <use xlink:href="#m38ac7ab728" x="228.9" y="22.230394" style="stroke: #000000; stroke-linejoin: miter"/>
    </g>
   </g>
   <g id="line2d_3">
    <path d="M 75.083419 -1 
L 77.801172 32.21831 
L 80.464176 62.13512 
L 83.127179 89.588011 
L 85.790183 114.712827 
L 88.346667 136.764613 
L 90.90315 156.90499 
L 93.353114 174.51374 
L 95.803077 190.560608 
L 98.25304 205.13583 
L 100.596484 217.780849 
L 102.939927 229.233286 
L 105.28337 239.564703 
L 107.520293 248.444351 
L 109.757216 256.4238 
L 111.887619 263.237824 
L 114.018022 269.333311 
L 116.148425 274.755644 
L 118.172308 279.323289 
L 120.19619 283.359267 
L 122.220073 286.898622 
L 124.137436 289.824245 
L 126.054799 292.362231 
L 127.972161 294.539339 
L 129.889524 296.381357 
L 131.806886 297.913116 
L 133.724249 299.158498 
L 135.641612 300.140444 
L 137.558974 300.880964 
L 139.582857 301.423996 
L 141.71326 301.756419 
L 143.950183 301.869711 
L 146.293626 301.760272 
L 148.85011 301.410769 
L 151.619634 300.803894 
L 154.815238 299.865427 
L 158.543443 298.527515 
L 163.44337 296.511895 
L 180.699634 289.198559 
L 185.49304 287.523855 
L 189.966886 286.192052 
L 194.334212 285.121844 
L 198.701538 284.27855 
L 203.281905 283.624373 
L 208.181832 283.15596 
L 213.720879 282.859314 
L 220.751209 282.721919 
L 236.40967 282.717605 
L 244.611722 282.879033 
L 250.36381 283.213401 
L 255.263736 283.715744 
L 259.844103 284.406853 
L 264.211429 285.288331 
L 268.578755 286.397664 
L 273.052601 287.768214 
L 277.739487 289.439441 
L 283.065495 291.580595 
L 291.054505 295.067987 
L 298.404396 298.193809 
L 302.558681 299.724231 
L 305.967326 300.748636 
L 308.84337 301.391542 
L 311.506374 301.760272 
L 313.849817 301.869711 
L 316.08674 301.756419 
L 318.217143 301.423996 
L 320.241026 300.880964 
L 322.158388 300.140444 
L 324.075751 299.158498 
L 325.993114 297.913116 
L 327.803956 296.474369 
L 329.614799 294.760092 
L 331.425641 292.749435 
L 333.343004 290.273427 
L 335.260366 287.41431 
L 337.177729 284.144513 
L 339.095092 280.435483 
L 341.118974 276.011217 
L 343.142857 271.028668 
L 345.16674 265.450622 
L 347.297143 258.893346 
L 349.427546 251.587193 
L 351.557949 243.484182 
L 353.794872 234.064141 
L 356.031795 223.651612 
L 358.268718 212.185343 
L 360.612161 198.973938 
L 362.955604 184.46158 
L 365.299048 168.570794 
L 367.749011 150.397091 
L 370.198974 130.535238 
L 372.648938 108.888079 
L 375.205421 84.287965 
L 377.761905 57.517595 
L 380.424908 27.193668 
L 382.716581 -1 
L 382.716581 -1 
" clip-path="url(#pebe1e637ce)" style="fill: none; stroke: #0072b2; stroke-width: 3; stroke-linecap: square"/>
   </g>
   <g id="patch_3">
    <path d="M 228.9 334.8 
L 228.9 22.230394 
" style="fill: none; stroke: #000000; stroke-width: 0.8; stroke-linejoin: miter; stroke-linecap: square"/>
   </g>
   <g id="patch_4">
    <path d="M 447 334.8 
L 447 22.230394 
" style="fill: none"/>
   </g>
   <g id="patch_5">
    <path d="M 10.8 178.515197 
L 447 178.515197 
" style="fill: none; stroke: #000000; stroke-width: 0.8; stroke-linejoin: miter; stroke-linecap: square"/>
   </g>
   <g id="patch_6">
    <path d="M 10.8 22.230394 
L 447 22.230394 
" style="fill: none"/>
   </g>
   <g id="legend_1">
    <g id="patch_7">
     <path d="M 183.06114 77.074928 
L 274.73886 77.074928 
Q 279.73886 77.074928 279.73886 72.074928 
L 279.73886 39.730394 
Q 279.73886 34.730394 274.73886 34.730394 
L 183.06114 34.730394 
Q 178.06114 34.730394 178.06114 39.730394 
L 178.06114 72.074928 
Q 178.06114 77.074928 183.06114 77.074928 
z
" style="fill: #ffffff; opacity: 0.8; stroke: #cccccc; stroke-linejoin: miter"/>
    </g>
    <g id="line2d_4">
     <path d="M 188.06114 53.480394 
L 213.06114 53.480394 
L 238.06114 53.480394 
" style="fill: none; stroke: #0072b2; stroke-width: 3; stroke-linecap: square"/>
    </g>
    <g id="text_3">
     <!-- $g$ -->
     <g transform="translate(258.06114 62.230394) scale(0.25 -0.25)">
      <defs>
       <path id="CMMI12-67" d="M 2163 811 
C 2138 709 2125 683 2042 588 
C 1779 249 1510 128 1312 128 
C 1101 128 902 294 902 734 
C 902 1073 1094 1788 1235 2076 
C 1421 2433 1709 2689 1978 2689 
C 2400 2689 2483 2165 2483 2127 
L 2464 2037 
L 2163 811 
z
M 2560 2395 
C 2477 2580 2298 2816 1978 2816 
C 1280 2816 486 1941 486 990 
C 486 326 890 0 1299 0 
C 1638 0 1939 268 2054 396 
L 1914 -171 
C 1824 -516 1786 -674 1555 -894 
C 1293 -1152 1050 -1152 909 -1152 
C 717 -1152 557 -1139 397 -1089 
C 602 -1033 653 -858 653 -789 
C 653 -689 576 -588 435 -588 
C 282 -588 115 -714 115 -922 
C 115 -1180 378 -1280 922 -1280 
C 1747 -1280 2176 -753 2259 -410 
L 2970 2435 
C 2989 2511 2989 2524 2989 2536 
C 2989 2625 2918 2695 2822 2695 
C 2669 2695 2579 2567 2560 2395 
z
" transform="scale(0.015625)"/>
      </defs>
      <use xlink:href="#CMMI12-67" transform="scale(0.996264)"/>
     </g>
    </g>
   </g>
  </g>
 </g>
 <defs>
  <clipPath id="pebe1e637ce">
   <rect x="10.8" y="22.230394" width="436.2" height="312.569606"/>
  </clipPath>
 </defs>
</svg>
