<?xml version="1.0" encoding="utf-8" standalone="no"?>
<!DOCTYPE svg PUBLIC "-//W3C//DTD SVG 1.1//EN"
  "http://www.w3.org/Graphics/SVG/1.1/DTD/svg11.dtd">
<svg xmlns:xlink="http://www.w3.org/1999/xlink" width="460.8pt" height="345.6pt" viewBox="0 0 460.8 345.6" xmlns="http://www.w3.org/2000/svg" version="1.1">
 <metadata>
  <rdf:RDF xmlns:dc="http://purl.org/dc/elements/1.1/" xmlns:cc="http://creativecommons.org/ns#" xmlns:rdf="http://www.w3.org/1999/02/22-rdf-syntax-ns#">
   <cc:Work>
    <dc:type rdf:resource="http://purl.org/dc/dcmitype/StillImage"/>
    <dc:date>2025-12-11T13:09:19.033578</dc:date>
    <dc:format>image/svg+xml</dc:format>
    <dc:creator>
     <cc:Agent>
      <dc:title>Matplotlib v3.9.1, https://matplotlib.org/</dc:title>
     </cc:Agent>
    </dc:creator>
   </cc:Work>
  </rdf:RDF>
 </metadata>
 <defs>
  <style type="text/css">*{stroke-linejoin: round; stroke-linecap: butt}</style>
 </defs>
 <g id="figure_1">
  <g id="patch_1">
   <path d="M 0 345.6 
L 460.8 345.6 
L 460.8 0 
L 0 0 
L 0 345.6 
z
" style="fill: none"/>
  </g>
  <g id="axes_1">
   <g id="patch_2">
    <path d="M 10.8 334.8 
L 447 334.8 
L 447 23.55884 
L 10.8 23.55884 
L 10.8 334.8 
z
" style="fill: none"/>
   </g>
   <g id="matplotlib.axis_1">
    <g id="text_1">
     <!-- $x$ -->
     <g transform="translate(431.478463 180.319707) scale(0.28 -0.28)">
      <defs>
       <path id="CMMI12-78" d="M 3034 2606 
C 2829 2567 2752 2414 2752 2293 
C 2752 2139 2874 2088 2963 2088 
C 3155 2088 3290 2254 3290 2427 
C 3290 2695 2982 2816 2714 2816 
C 2323 2816 2106 2433 2048 2312 
C 1901 2816 1504 2816 1389 2816 
C 736 2816 390 1980 390 1839 
C 390 1814 416 1782 461 1782 
C 512 1782 525 1820 538 1846 
C 755 2555 1184 2689 1370 2689 
C 1658 2689 1715 2420 1715 2267 
C 1715 2127 1677 1980 1600 1673 
L 1382 798 
C 1286 415 1101 64 762 64 
C 730 64 570 64 435 147 
C 666 192 717 383 717 460 
C 717 588 621 664 499 664 
C 346 664 179 530 179 326 
C 179 57 480 -64 755 -64 
C 1062 -64 1280 179 1414 441 
C 1517 64 1837 -64 2074 -64 
C 2726 -64 3072 773 3072 913 
C 3072 945 3046 971 3008 971 
C 2950 971 2944 939 2925 888 
C 2752 326 2381 64 2093 64 
C 1869 64 1747 230 1747 492 
C 1747 632 1773 734 1875 1156 
L 2099 2024 
C 2195 2408 2413 2689 2707 2689 
C 2720 2689 2899 2689 3034 2606 
z
" transform="scale(0.015625)"/>
      </defs>
      <use xlink:href="#CMMI12-78" transform="scale(0.996264)"/>
     </g>
    </g>
   </g>
   <g id="matplotlib.axis_2">
    <g id="text_2">
     <!-- $y$ -->
     <g transform="translate(211.582038 18.132959) scale(0.28 -0.28)">
      <defs>
       <path id="CMMI12-79" d="M 1683 -700 
C 1510 -939 1261 -1152 947 -1152 
C 870 -1152 563 -1152 467 -889 
C 486 -895 518 -895 531 -895 
C 723 -895 851 -729 851 -582 
C 851 -435 730 -384 634 -384 
C 531 -384 307 -458 307 -759 
C 307 -1071 582 -1286 947 -1286 
C 1587 -1286 2234 -700 2413 6 
L 3040 2485 
C 3046 2517 3059 2556 3059 2594 
C 3059 2689 2982 2753 2886 2753 
C 2829 2753 2694 2727 2643 2535 
L 2170 658 
C 2138 543 2138 530 2086 460 
C 1958 281 1747 64 1440 64 
C 1082 64 1050 415 1050 588 
C 1050 952 1222 1443 1395 1903 
C 1466 2088 1504 2178 1504 2305 
C 1504 2574 1312 2816 998 2816 
C 410 2816 173 1890 173 1839 
C 173 1814 198 1782 243 1782 
C 301 1782 307 1807 333 1897 
C 486 2433 730 2689 979 2689 
C 1037 2689 1146 2689 1146 2478 
C 1146 2312 1075 2127 979 1884 
C 666 1047 666 837 666 683 
C 666 77 1101 -64 1421 -64 
C 1606 -64 1837 -6 2061 230 
L 2067 224 
C 1971 -147 1907 -392 1683 -700 
z
" transform="scale(0.015625)"/>
      </defs>
      <use xlink:href="#CMMI12-79" transform="scale(0.996264)"/>
     </g>
    </g>
   </g>
   <g id="line2d_1">
    <defs>
     <path id="m6f272b5dd7" d="M 3 0 
L -3 -3 
L -3 3 
z
" style="stroke: #000000; stroke-linejoin: miter"/>
    </defs>
    <g>
     <use xlink:href="#m6f272b5dd7" x="447" y="156.947908" style="stroke: #000000; stroke-linejoin: miter"/>
    </g>
   </g>
   <g id="line2d_2">
    <defs>
     <path id="me3c855e17a" d="M 0 -3 
L -3 3 
L 3 3 
z
" style="stroke: #000000; stroke-linejoin: miter"/>
    </defs>
    <g>
     <use xlink:href="#me3c855e17a" x="228.9" y="23.55884" style="stroke: #000000; stroke-linejoin: miter"/>
    </g>
   </g>
   <g id="line2d_3">
    <path d="M 10.8 201.412672 
L 46.164689 201.531448 
L 57.242784 201.785109 
L 64.592674 202.163906 
L 70.344762 202.674628 
L 75.138168 203.317879 
L 79.292454 204.094772 
L 83.020659 205.015103 
L 86.429304 206.083771 
L 89.624908 207.320396 
L 92.607473 208.712353 
L 95.483516 210.301588 
L 98.25304 212.087619 
L 100.916044 214.06459 
L 103.579048 216.31688 
L 106.242051 218.862836 
L 108.905055 221.717654 
L 111.674579 225.026022 
L 114.444103 228.686323 
L 117.320147 232.857935 
L 120.409231 237.744529 
L 123.711355 243.397522 
L 127.43956 250.235595 
L 132.232967 259.529899 
L 141.9263 278.445126 
L 145.121905 284.132903 
L 147.784908 288.443159 
L 150.128352 291.82151 
L 152.152234 294.368773 
L 153.963077 296.318623 
L 155.667399 297.841956 
L 157.265201 298.974745 
L 158.756484 299.75888 
L 160.141245 300.240031 
L 161.419487 300.465711 
L 162.697729 300.476126 
L 163.975971 300.267057 
L 165.254212 299.835512 
L 166.532454 299.179796 
L 167.917216 298.216095 
L 169.408498 296.88526 
L 170.89978 295.254826 
L 172.497582 293.183475 
L 174.201905 290.617486 
L 176.119267 287.314285 
L 178.24967 283.166919 
L 180.593114 278.089871 
L 183.256117 271.774008 
L 186.664762 263.067623 
L 199.021099 230.869857 
L 201.684103 224.842517 
L 204.134066 219.83993 
L 206.264469 215.967584 
L 208.288352 212.730077 
L 210.205714 210.072794 
L 212.016557 207.931404 
L 213.720879 206.237277 
L 215.425201 204.843185 
L 217.129524 203.731957 
L 218.833846 202.880958 
L 220.644689 202.23087 
L 222.562051 201.785485 
L 224.692454 201.521349 
L 227.461978 201.415363 
L 233.640147 201.253305 
L 235.770549 200.934922 
L 237.687912 200.424851 
L 239.392234 199.75112 
L 241.096557 198.837469 
L 242.800879 197.65744 
L 244.505201 196.189727 
L 246.209524 194.418582 
L 248.020366 192.193294 
L 249.831209 189.609923 
L 251.748571 186.488105 
L 253.878974 182.569526 
L 256.115897 177.979346 
L 258.672381 172.203595 
L 261.654945 164.881827 
L 265.59619 154.563526 
L 274.011282 132.368896 
L 276.993846 125.217491 
L 279.55033 119.654943 
L 281.787253 115.313014 
L 283.811136 111.86409 
L 285.621978 109.197776 
L 287.3263 107.070985 
L 288.924103 105.426631 
L 290.415385 104.203979 
L 291.800147 103.341555 
L 293.184908 102.742632 
L 294.46315 102.422619 
L 295.741392 102.323744 
L 297.019634 102.442393 
L 298.297875 102.773761 
L 299.682637 103.365898 
L 301.173919 104.264763 
L 302.665201 105.421995 
L 304.369524 107.042521 
L 306.180366 109.087376 
L 308.204249 111.730005 
L 310.441172 115.037159 
L 312.997656 119.235047 
L 315.98022 124.574021 
L 319.921465 132.11583 
L 332.703883 156.935384 
L 336.325568 163.299895 
L 339.627692 168.656922 
L 342.716777 173.240883 
L 345.592821 177.119333 
L 348.362344 180.49513 
L 351.131868 183.523353 
L 353.901392 186.215306 
L 356.564396 188.50192 
L 359.333919 190.585746 
L 362.103443 192.392121 
L 364.979487 194.000461 
L 367.962051 195.410039 
L 371.051136 196.625271 
L 374.35326 197.68592 
L 377.974945 198.609703 
L 381.91619 199.381283 
L 386.390037 200.024052 
L 391.609524 200.539211 
L 397.894212 200.926507 
L 406.096264 201.196058 
L 418.346081 201.352964 
L 444.230476 201.408422 
L 447 201.40919 
L 447 201.40919 
" clip-path="url(#p44ff38ffc3)" style="fill: none; stroke: #0072b2; stroke-width: 3; stroke-linecap: square"/>
   </g>
   <g id="patch_3">
    <path d="M 228.9 334.8 
L 228.9 23.55884 
" style="fill: none; stroke: #000000; stroke-width: 0.8; stroke-linejoin: miter; stroke-linecap: square"/>
   </g>
   <g id="patch_4">
    <path d="M 447 334.8 
L 447 23.55884 
" style="fill: none"/>
   </g>
   <g id="patch_5">
    <path d="M 10.8 156.947908 
L 447 156.947908 
" style="fill: none; stroke: #000000; stroke-width: 0.8; stroke-linejoin: miter; stroke-linecap: square"/>
   </g>
   <g id="patch_6">
    <path d="M 10.8 23.55884 
L 447 23.55884 
" style="fill: none"/>
   </g>
   <g id="legend_1">
    <g id="patch_7">
     <path d="M 324.720949 84.984721 
L 427.4 84.984721 
Q 433 84.984721 433 79.384721 
L 433 43.15884 
Q 433 37.55884 427.4 37.55884 
L 324.720949 37.55884 
Q 319.120949 37.55884 319.120949 43.15884 
L 319.120949 79.384721 
Q 319.120949 84.984721 324.720949 84.984721 
z
" style="fill: #ffffff; opacity: 0.8; stroke: #cccccc; stroke-linejoin: miter"/>
    </g>
    <g id="line2d_4">
     <path d="M 330.320949 58.55884 
L 358.320949 58.55884 
L 386.320949 58.55884 
" style="fill: none; stroke: #0072b2; stroke-width: 3; stroke-linecap: square"/>
    </g>
    <g id="text_3">
     <!-- $g$ -->
     <g transform="translate(408.720949 68.35884) scale(0.28 -0.28)">
      <defs>
       <path id="CMMI12-67" d="M 2163 811 
C 2138 709 2125 683 2042 588 
C 1779 249 1510 128 1312 128 
C 1101 128 902 294 902 734 
C 902 1073 1094 1788 1235 2076 
C 1421 2433 1709 2689 1978 2689 
C 2400 2689 2483 2165 2483 2127 
L 2464 2037 
L 2163 811 
z
M 2560 2395 
C 2477 2580 2298 2816 1978 2816 
C 1280 2816 486 1941 486 990 
C 486 326 890 0 1299 0 
C 1638 0 1939 268 2054 396 
L 1914 -171 
C 1824 -516 1786 -674 1555 -894 
C 1293 -1152 1050 -1152 909 -1152 
C 717 -1152 557 -1139 397 -1089 
C 602 -1033 653 -858 653 -789 
C 653 -689 576 -588 435 -588 
C 282 -588 115 -714 115 -922 
C 115 -1180 378 -1280 922 -1280 
C 1747 -1280 2176 -753 2259 -410 
L 2970 2435 
C 2989 2511 2989 2524 2989 2536 
C 2989 2625 2918 2695 2822 2695 
C 2669 2695 2579 2567 2560 2395 
z
" transform="scale(0.015625)"/>
      </defs>
      <use xlink:href="#CMMI12-67" transform="scale(0.996264)"/>
     </g>
    </g>
   </g>
  </g>
 </g>
 <defs>
  <clipPath id="p44ff38ffc3">
   <rect x="10.8" y="23.55884" width="436.2" height="311.24116"/>
  </clipPath>
 </defs>
</svg>
