<?xml version="1.0" encoding="utf-8" standalone="no"?>
<!DOCTYPE svg PUBLIC "-//W3C//DTD SVG 1.1//EN"
  "http://www.w3.org/Graphics/SVG/1.1/DTD/svg11.dtd">
<svg xmlns:xlink="http://www.w3.org/1999/xlink" width="460.8pt" height="345.6pt" viewBox="0 0 460.8 345.6" xmlns="http://www.w3.org/2000/svg" version="1.1">
 <metadata>
  <rdf:RDF xmlns:dc="http://purl.org/dc/elements/1.1/" xmlns:cc="http://creativecommons.org/ns#" xmlns:rdf="http://www.w3.org/1999/02/22-rdf-syntax-ns#">
   <cc:Work>
    <dc:type rdf:resource="http://purl.org/dc/dcmitype/StillImage"/>
    <dc:date>2026-02-21T17:11:17.001725</dc:date>
    <dc:format>image/svg+xml</dc:format>
    <dc:creator>
     <cc:Agent>
      <dc:title>Matplotlib v3.9.1, https://matplotlib.org/</dc:title>
     </cc:Agent>
    </dc:creator>
   </cc:Work>
  </rdf:RDF>
 </metadata>
 <defs>
  <style type="text/css">*{stroke-linejoin: round; stroke-linecap: butt}</style>
 </defs>
 <g id="figure_1">
  <g id="patch_1">
   <path d="M 0 345.6 
L 460.8 345.6 
L 460.8 0 
L 0 0 
L 0 345.6 
z
" style="fill: none"/>
  </g>
  <g id="axes_1">
   <g id="patch_2">
    <path d="M 10.8 334.8 
L 447 334.8 
L 447 23.55884 
L 10.8 23.55884 
L 10.8 334.8 
z
" style="fill: none"/>
   </g>
   <g id="matplotlib.axis_1">
    <g id="text_1">
     <!-- $x$ -->
     <g transform="translate(431.478463 116.095341) scale(0.28 -0.28)">
      <defs>
       <path id="CMMI12-78" d="M 3034 2606 
C 2829 2567 2752 2414 2752 2293 
C 2752 2139 2874 2088 2963 2088 
C 3155 2088 3290 2254 3290 2427 
C 3290 2695 2982 2816 2714 2816 
C 2323 2816 2106 2433 2048 2312 
C 1901 2816 1504 2816 1389 2816 
C 736 2816 390 1980 390 1839 
C 390 1814 416 1782 461 1782 
C 512 1782 525 1820 538 1846 
C 755 2555 1184 2689 1370 2689 
C 1658 2689 1715 2420 1715 2267 
C 1715 2127 1677 1980 1600 1673 
L 1382 798 
C 1286 415 1101 64 762 64 
C 730 64 570 64 435 147 
C 666 192 717 383 717 460 
C 717 588 621 664 499 664 
C 346 664 179 530 179 326 
C 179 57 480 -64 755 -64 
C 1062 -64 1280 179 1414 441 
C 1517 64 1837 -64 2074 -64 
C 2726 -64 3072 773 3072 913 
C 3072 945 3046 971 3008 971 
C 2950 971 2944 939 2925 888 
C 2752 326 2381 64 2093 64 
C 1869 64 1747 230 1747 492 
C 1747 632 1773 734 1875 1156 
L 2099 2024 
C 2195 2408 2413 2689 2707 2689 
C 2720 2689 2899 2689 3034 2606 
z
" transform="scale(0.015625)"/>
      </defs>
      <use xlink:href="#CMMI12-78" transform="scale(0.996264)"/>
     </g>
    </g>
   </g>
   <g id="matplotlib.axis_2">
    <g id="text_2">
     <!-- $y$ -->
     <g transform="translate(211.582038 18.132959) scale(0.28 -0.28)">
      <defs>
       <path id="CMMI12-79" d="M 1683 -700 
C 1510 -939 1261 -1152 947 -1152 
C 870 -1152 563 -1152 467 -889 
C 486 -895 518 -895 531 -895 
C 723 -895 851 -729 851 -582 
C 851 -435 730 -384 634 -384 
C 531 -384 307 -458 307 -759 
C 307 -1071 582 -1286 947 -1286 
C 1587 -1286 2234 -700 2413 6 
L 3040 2485 
C 3046 2517 3059 2556 3059 2594 
C 3059 2689 2982 2753 2886 2753 
C 2829 2753 2694 2727 2643 2535 
L 2170 658 
C 2138 543 2138 530 2086 460 
C 1958 281 1747 64 1440 64 
C 1082 64 1050 415 1050 588 
C 1050 952 1222 1443 1395 1903 
C 1466 2088 1504 2178 1504 2305 
C 1504 2574 1312 2816 998 2816 
C 410 2816 173 1890 173 1839 
C 173 1814 198 1782 243 1782 
C 301 1782 307 1807 333 1897 
C 486 2433 730 2689 979 2689 
C 1037 2689 1146 2689 1146 2478 
C 1146 2312 1075 2127 979 1884 
C 666 1047 666 837 666 683 
C 666 77 1101 -64 1421 -64 
C 1606 -64 1837 -6 2061 230 
L 2067 224 
C 1971 -147 1907 -392 1683 -700 
z
" transform="scale(0.015625)"/>
      </defs>
      <use xlink:href="#CMMI12-79" transform="scale(0.996264)"/>
     </g>
    </g>
   </g>
   <g id="line2d_1">
    <defs>
     <path id="m10e545f3ab" d="M 3 0 
L -3 -3 
L -3 3 
z
" style="stroke: #000000; stroke-linejoin: miter"/>
    </defs>
    <g>
     <use xlink:href="#m10e545f3ab" x="447" y="92.723542" style="stroke: #000000; stroke-linejoin: miter"/>
    </g>
   </g>
   <g id="line2d_2">
    <defs>
     <path id="m3fd93af971" d="M 0 -3 
L -3 3 
L 3 3 
z
" style="stroke: #000000; stroke-linejoin: miter"/>
    </defs>
    <g>
     <use xlink:href="#m3fd93af971" x="228.9" y="23.55884" style="stroke: #000000; stroke-linejoin: miter"/>
    </g>
   </g>
   <g id="line2d_3">
    <path d="M 10.8 92.537925 
L 24.565208 92.242506 
L 34.523018 91.814972 
L 42.590441 91.252575 
L 49.539608 90.549924 
L 55.769896 89.699204 
L 61.494305 88.695535 
L 66.899213 87.523838 
L 72.117744 86.165725 
L 77.283025 84.59087 
L 82.528182 82.757544 
L 88.119465 80.563282 
L 94.722505 77.720606 
L 110.324849 70.895001 
L 114.425124 69.417373 
L 117.833144 68.418749 
L 120.841787 67.764421 
L 123.557554 67.397416 
L 126.060319 67.279283 
L 128.429958 67.389036 
L 130.666471 67.713292 
L 132.823109 68.249045 
L 134.926497 69.000673 
L 137.003259 69.981533 
L 139.053397 71.198069 
L 141.103534 72.675898 
L 143.153671 74.42872 
L 145.230434 76.497599 
L 147.360447 78.938443 
L 149.54371 81.786872 
L 151.780223 85.078597 
L 154.069987 88.848673 
L 156.466252 93.232933 
L 158.942392 98.23653 
L 161.525032 103.964146 
L 164.240798 110.53617 
L 167.116316 118.086097 
L 170.204834 126.833437 
L 173.559604 137.017575 
L 177.340377 149.23175 
L 181.813404 164.470214 
L 188.496319 188.134935 
L 196.217616 215.286727 
L 200.371141 229.079768 
L 203.779161 239.651404 
L 206.734554 248.118085 
L 209.370445 255.020543 
L 211.766709 260.697155 
L 213.976598 265.379768 
L 216.026735 269.216027 
L 217.917121 272.296423 
L 219.674382 274.750071 
L 221.325142 276.683621 
L 222.869401 278.158623 
L 224.30716 279.236449 
L 225.691668 280.001448 
L 226.996301 280.474996 
L 228.274309 280.704845 
L 229.525691 280.704845 
L 230.777074 280.48215 
L 232.055081 280.025486 
L 233.359714 279.321689 
L 234.744223 278.314509 
L 236.181981 276.98837 
L 237.726241 275.251243 
L 239.350375 273.082311 
L 241.107636 270.351744 
L 242.971397 267.035113 
L 244.994909 262.96597 
L 247.178172 258.059782 
L 249.547812 252.172401 
L 252.157077 245.074793 
L 255.05922 236.514441 
L 258.36074 226.061518 
L 262.327889 212.730043 
L 267.865922 193.263058 
L 278.302985 156.489238 
L 282.669511 142.005731 
L 286.397034 130.393201 
L 289.725179 120.732332 
L 292.813697 112.436312 
L 295.689214 105.334564 
L 298.404981 99.202989 
L 301.014246 93.85155 
L 303.517012 89.220158 
L 305.913276 85.244925 
L 308.229665 81.823816 
L 310.492804 78.873395 
L 312.676067 76.384131 
L 314.832705 74.257669 
L 316.936092 72.489227 
L 319.03948 71.008612 
L 321.116242 69.814543 
L 323.21963 68.860704 
L 325.349643 68.139954 
L 327.506281 67.643443 
L 329.742794 67.356438 
L 332.085808 67.281926 
L 334.561948 67.428351 
L 337.224464 67.812463 
L 340.126607 68.459908 
L 343.374876 69.417373 
L 347.155649 70.77119 
L 351.894928 72.717544 
L 359.74935 76.225224 
L 368.855155 80.220862 
L 374.792565 82.578713 
L 380.170848 84.47707 
L 385.362754 86.075028 
L 390.55466 87.440838 
L 395.879692 88.611419 
L 401.470976 89.611112 
L 407.461637 90.453509 
L 414.038052 91.149961 
L 421.493097 91.710198 
L 430.279399 92.139849 
L 441.302216 92.44543 
L 447 92.537925 
L 447 92.537925 
" clip-path="url(#p31f783d947)" style="fill: none; stroke: #0072b2; stroke-width: 3; stroke-linecap: square"/>
   </g>
   <g id="patch_3">
    <path d="M 228.9 334.8 
L 228.9 23.55884 
" style="fill: none; stroke: #000000; stroke-width: 0.8; stroke-linejoin: miter; stroke-linecap: square"/>
   </g>
   <g id="patch_4">
    <path d="M 447 334.8 
L 447 23.55884 
" style="fill: none"/>
   </g>
   <g id="patch_5">
    <path d="M 10.8 92.723542 
L 447 92.723542 
" style="fill: none; stroke: #000000; stroke-width: 0.8; stroke-linejoin: miter; stroke-linecap: square"/>
   </g>
   <g id="patch_6">
    <path d="M 10.8 23.55884 
L 447 23.55884 
" style="fill: none"/>
   </g>
   <g id="legend_1">
    <g id="patch_7">
     <path d="M 30.4 320.8 
L 133.463307 320.8 
Q 139.063307 320.8 139.063307 315.2 
L 139.063307 278.974119 
Q 139.063307 273.374119 133.463307 273.374119 
L 30.4 273.374119 
Q 24.8 273.374119 24.8 278.974119 
L 24.8 315.2 
Q 24.8 320.8 30.4 320.8 
z
" style="fill: #ffffff; opacity: 0.8; stroke: #cccccc; stroke-linejoin: miter"/>
    </g>
    <g id="line2d_4">
     <path d="M 36 294.374119 
L 64 294.374119 
L 92 294.374119 
" style="fill: none; stroke: #0072b2; stroke-width: 3; stroke-linecap: square"/>
    </g>
    <g id="text_3">
     <!-- $f$ -->
     <g transform="translate(114.4 304.174119) scale(0.28 -0.28)">
      <defs>
       <path id="CMMI12-66" d="M 2854 2566 
C 2982 2566 3034 2566 3034 2688 
C 3034 2752 2982 2752 2867 2752 
L 2349 2752 
C 2470 3429 2560 3897 2611 4107 
C 2650 4265 2784 4416 2950 4416 
C 3085 4416 3219 4358 3283 4298 
C 3034 4272 2957 4082 2957 3969 
C 2957 3837 3053 3759 3174 3759 
C 3302 3759 3494 3870 3494 4119 
C 3494 4393 3226 4544 2944 4544 
C 2669 4544 2400 4334 2272 4078 
C 2157 3848 2093 3611 1946 2752 
L 1517 2752 
C 1395 2752 1331 2752 1331 2637 
C 1331 2566 1370 2566 1498 2566 
L 1907 2566 
C 1792 1976 1530 542 1382 -137 
C 1274 -689 1178 -1152 858 -1152 
C 838 -1152 653 -1152 538 -1031 
C 864 -1005 864 -726 864 -720 
C 864 -593 768 -517 646 -517 
C 518 -517 326 -625 326 -867 
C 326 -1140 608 -1280 858 -1280 
C 1510 -1280 1779 -118 1850 199 
C 1965 688 2278 2376 2310 2566 
L 2854 2566 
z
" transform="scale(0.015625)"/>
      </defs>
      <use xlink:href="#CMMI12-66" transform="scale(0.996264)"/>
     </g>
    </g>
   </g>
  </g>
 </g>
 <defs>
  <clipPath id="p31f783d947">
   <rect x="10.8" y="23.55884" width="436.2" height="311.24116"/>
  </clipPath>
 </defs>
</svg>
