<?xml version="1.0" encoding="utf-8" standalone="no"?>
<!DOCTYPE svg PUBLIC "-//W3C//DTD SVG 1.1//EN"
  "http://www.w3.org/Graphics/SVG/1.1/DTD/svg11.dtd">
<svg xmlns:xlink="http://www.w3.org/1999/xlink" width="460.8pt" height="345.6pt" viewBox="0 0 460.8 345.6" xmlns="http://www.w3.org/2000/svg" version="1.1">
 <metadata>
  <rdf:RDF xmlns:dc="http://purl.org/dc/elements/1.1/" xmlns:cc="http://creativecommons.org/ns#" xmlns:rdf="http://www.w3.org/1999/02/22-rdf-syntax-ns#">
   <cc:Work>
    <dc:type rdf:resource="http://purl.org/dc/dcmitype/StillImage"/>
    <dc:date>2025-12-06T22:17:32.720010</dc:date>
    <dc:format>image/svg+xml</dc:format>
    <dc:creator>
     <cc:Agent>
      <dc:title>Matplotlib v3.9.1, https://matplotlib.org/</dc:title>
     </cc:Agent>
    </dc:creator>
   </cc:Work>
  </rdf:RDF>
 </metadata>
 <defs>
  <style type="text/css">*{stroke-linejoin: round; stroke-linecap: butt}</style>
 </defs>
 <g id="figure_1">
  <g id="patch_1">
   <path d="M 0 345.6 
L 460.8 345.6 
L 460.8 0 
L 0 0 
L 0 345.6 
z
" style="fill: none"/>
  </g>
  <g id="axes_1">
   <g id="patch_2">
    <path d="M 10.8 334.8 
L 447 334.8 
L 447 22.673214 
L 10.8 22.673214 
L 10.8 334.8 
z
" style="fill: none"/>
   </g>
   <g id="matplotlib.axis_1">
    <g id="text_1">
     <!-- $x$ -->
     <g transform="translate(432.587145 200.724709) scale(0.26 -0.26)">
      <defs>
       <path id="CMMI12-78" d="M 3034 2606 
C 2829 2567 2752 2414 2752 2293 
C 2752 2139 2874 2088 2963 2088 
C 3155 2088 3290 2254 3290 2427 
C 3290 2695 2982 2816 2714 2816 
C 2323 2816 2106 2433 2048 2312 
C 1901 2816 1504 2816 1389 2816 
C 736 2816 390 1980 390 1839 
C 390 1814 416 1782 461 1782 
C 512 1782 525 1820 538 1846 
C 755 2555 1184 2689 1370 2689 
C 1658 2689 1715 2420 1715 2267 
C 1715 2127 1677 1980 1600 1673 
L 1382 798 
C 1286 415 1101 64 762 64 
C 730 64 570 64 435 147 
C 666 192 717 383 717 460 
C 717 588 621 664 499 664 
C 346 664 179 530 179 326 
C 179 57 480 -64 755 -64 
C 1062 -64 1280 179 1414 441 
C 1517 64 1837 -64 2074 -64 
C 2726 -64 3072 773 3072 913 
C 3072 945 3046 971 3008 971 
C 2950 971 2944 939 2925 888 
C 2752 326 2381 64 2093 64 
C 1869 64 1747 230 1747 492 
C 1747 632 1773 734 1875 1156 
L 2099 2024 
C 2195 2408 2413 2689 2707 2689 
C 2720 2689 2899 2689 3034 2606 
z
" transform="scale(0.015625)"/>
      </defs>
      <use xlink:href="#CMMI12-78" transform="scale(0.996264)"/>
     </g>
    </g>
   </g>
   <g id="matplotlib.axis_2">
    <g id="text_2">
     <!-- $y$ -->
     <g transform="translate(212.53332 17.634888) scale(0.26 -0.26)">
      <defs>
       <path id="CMMI12-79" d="M 1683 -700 
C 1510 -939 1261 -1152 947 -1152 
C 870 -1152 563 -1152 467 -889 
C 486 -895 518 -895 531 -895 
C 723 -895 851 -729 851 -582 
C 851 -435 730 -384 634 -384 
C 531 -384 307 -458 307 -759 
C 307 -1071 582 -1286 947 -1286 
C 1587 -1286 2234 -700 2413 6 
L 3040 2485 
C 3046 2517 3059 2556 3059 2594 
C 3059 2689 2982 2753 2886 2753 
C 2829 2753 2694 2727 2643 2535 
L 2170 658 
C 2138 543 2138 530 2086 460 
C 1958 281 1747 64 1440 64 
C 1082 64 1050 415 1050 588 
C 1050 952 1222 1443 1395 1903 
C 1466 2088 1504 2178 1504 2305 
C 1504 2574 1312 2816 998 2816 
C 410 2816 173 1890 173 1839 
C 173 1814 198 1782 243 1782 
C 301 1782 307 1807 333 1897 
C 486 2433 730 2689 979 2689 
C 1037 2689 1146 2689 1146 2478 
C 1146 2312 1075 2127 979 1884 
C 666 1047 666 837 666 683 
C 666 77 1101 -64 1421 -64 
C 1606 -64 1837 -6 2061 230 
L 2067 224 
C 1971 -147 1907 -392 1683 -700 
z
" transform="scale(0.015625)"/>
      </defs>
      <use xlink:href="#CMMI12-79" transform="scale(0.996264)"/>
     </g>
    </g>
   </g>
   <g id="line2d_1">
    <defs>
     <path id="m97d639a7c9" d="M 3 0 
L -3 -3 
L -3 3 
z
" style="stroke: #000000; stroke-linejoin: miter"/>
    </defs>
    <g>
     <use xlink:href="#m97d639a7c9" x="447" y="178.736607" style="stroke: #000000; stroke-linejoin: miter"/>
    </g>
   </g>
   <g id="line2d_2">
    <defs>
     <path id="m29e60f6ac1" d="M 0 -3 
L -3 3 
L 3 3 
z
" style="stroke: #000000; stroke-linejoin: miter"/>
    </defs>
    <g>
     <use xlink:href="#m29e60f6ac1" x="228.9" y="22.673214" style="stroke: #000000; stroke-linejoin: miter"/>
    </g>
   </g>
   <g id="line2d_3">
    <path d="M 10.8 178.390668 
L 20.919414 178.022569 
L 28.801905 177.519714 
L 35.299634 176.887394 
L 40.945201 176.117903 
L 45.951648 175.215269 
L 50.532015 174.166874 
L 54.792821 172.965435 
L 58.840586 171.591324 
L 62.675311 170.053989 
L 66.403516 168.316921 
L 70.025201 166.381722 
L 73.540366 164.25534 
L 77.055531 161.874216 
L 80.677216 159.148993 
L 84.405421 156.056835 
L 88.240147 152.584818 
L 92.394432 148.519946 
L 97.187839 143.50797 
L 104.431209 135.56375 
L 111.035458 128.430074 
L 114.870183 124.609184 
L 117.959267 121.838659 
L 120.622271 119.747664 
L 122.965714 118.188478 
L 125.096117 117.038692 
L 127.01348 116.251187 
L 128.824322 115.746113 
L 130.528645 115.501848 
L 132.126447 115.492136 
L 133.724249 115.708906 
L 135.215531 116.12747 
L 136.706813 116.765576 
L 138.198095 117.633153 
L 139.795897 118.827845 
L 141.3937 120.306958 
L 143.098022 122.208499 
L 144.802344 124.453519 
L 146.613187 127.223492 
L 148.530549 130.594991 
L 150.447912 134.420976 
L 152.471795 138.951566 
L 154.602198 144.259126 
L 156.945641 150.716928 
L 159.395604 158.127886 
L 162.165128 167.252444 
L 165.254212 178.245827 
L 168.875897 191.995621 
L 174.521465 214.440926 
L 180.060513 236.187725 
L 183.256117 247.866742 
L 185.812601 256.42101 
L 188.049524 263.156338 
L 189.966886 268.26554 
L 191.671209 272.222683 
L 193.269011 275.382473 
L 194.653773 277.657092 
L 195.932015 279.351312 
L 197.103736 280.54636 
L 198.168938 281.324536 
L 199.127619 281.766546 
L 200.0863 281.958049 
L 200.938462 281.914066 
L 201.790623 281.665463 
L 202.749304 281.13825 
L 203.707985 280.346453 
L 204.773187 279.154262 
L 205.838388 277.632172 
L 207.01011 275.577229 
L 208.288352 272.883529 
L 209.673114 269.440143 
L 211.164396 265.134397 
L 212.868718 259.480686 
L 214.67956 252.659961 
L 216.703443 244.116842 
L 218.940366 233.661925 
L 221.49685 220.610505 
L 224.692454 203.043162 
L 229.805421 173.455686 
L 234.811868 144.917618 
L 237.900952 128.580325 
L 240.457436 116.241038 
L 242.694359 106.533937 
L 244.611722 99.13673 
L 246.422564 93.003423 
L 248.020366 88.320271 
L 249.511648 84.589685 
L 250.89641 81.692741 
L 252.174652 79.510226 
L 253.346374 77.926679 
L 254.411575 76.833304 
L 255.370256 76.12994 
L 256.328938 75.690384 
L 257.287619 75.511747 
L 258.13978 75.569026 
L 259.098462 75.872503 
L 260.057143 76.424115 
L 261.122344 77.320919 
L 262.187546 78.507892 
L 263.359267 80.136901 
L 264.637509 82.283945 
L 266.128791 85.250531 
L 267.726593 88.943591 
L 269.537436 93.717171 
L 271.561319 99.710681 
L 273.904762 107.392578 
L 276.674286 117.292365 
L 280.189451 130.752382 
L 293.717509 183.488817 
L 296.806593 194.172505 
L 299.576117 202.970991 
L 302.132601 210.357623 
L 304.476044 216.46424 
L 306.712967 221.675928 
L 308.84337 226.067322 
L 310.867253 229.71927 
L 312.784615 232.714523 
L 314.595458 235.134552 
L 316.29978 237.057304 
L 318.004103 238.64537 
L 319.601905 239.840061 
L 321.199707 240.760713 
L 322.797509 241.418741 
L 324.395311 241.826436 
L 325.993114 241.996814 
L 327.590916 241.943467 
L 329.295238 241.655784 
L 331.106081 241.10818 
L 333.023443 240.279723 
L 335.047326 239.155113 
L 337.284249 237.648048 
L 339.734212 235.723958 
L 342.610256 233.165228 
L 346.018901 229.812126 
L 350.492747 225.067396 
L 365.831648 208.523165 
L 370.198974 204.290096 
L 374.14022 200.775054 
L 377.868425 197.740532 
L 381.49011 195.072276 
L 385.111795 192.679312 
L 388.73348 190.554536 
L 392.355165 188.685633 
L 396.08337 187.012056 
L 399.918095 185.534379 
L 403.965861 184.216689 
L 408.226667 183.067324 
L 412.807033 182.066826 
L 417.81348 181.207637 
L 423.352527 180.488984 
L 429.637216 179.903227 
L 437.093626 179.440161 
L 446.360879 179.099227 
L 447 179.082546 
L 447 179.082546 
" clip-path="url(#p939f32fdb0)" style="fill: none; stroke: #0072b2; stroke-width: 3.5; stroke-linecap: square"/>
   </g>
   <g id="patch_3">
    <path d="M 228.9 334.8 
L 228.9 22.673214 
" style="fill: none; stroke: #000000; stroke-width: 0.8; stroke-linejoin: miter; stroke-linecap: square"/>
   </g>
   <g id="patch_4">
    <path d="M 447 334.8 
L 447 22.673214 
" style="fill: none"/>
   </g>
   <g id="patch_5">
    <path d="M 10.8 178.736607 
L 447 178.736607 
" style="fill: none; stroke: #000000; stroke-width: 0.8; stroke-linejoin: miter; stroke-linecap: square"/>
   </g>
   <g id="patch_6">
    <path d="M 10.8 22.673214 
L 447 22.673214 
" style="fill: none"/>
   </g>
   <g id="legend_1">
    <g id="patch_7">
     <path d="M 326.586751 79.711541 
L 428.8 79.711541 
Q 434 79.711541 434 74.511541 
L 434 40.873214 
Q 434 35.673214 428.8 35.673214 
L 326.586751 35.673214 
Q 321.386751 35.673214 321.386751 40.873214 
L 321.386751 74.511541 
Q 321.386751 79.711541 326.586751 79.711541 
z
" style="fill: #ffffff; opacity: 0.8; stroke: #cccccc; stroke-linejoin: miter"/>
    </g>
    <g id="line2d_4">
     <path d="M 331.786751 55.173214 
L 357.786751 55.173214 
L 383.786751 55.173214 
" style="fill: none; stroke: #0072b2; stroke-width: 3.5; stroke-linecap: square"/>
    </g>
    <g id="text_3">
     <!-- $A$ -->
     <g transform="translate(404.586751 64.273214) scale(0.26 -0.26)">
      <defs>
       <path id="CMMI12-41" d="M 1088 691 
C 864 314 646 186 339 186 
C 269 180 218 180 218 58 
C 218 24 250 0 294 0 
C 410 0 698 0 813 0 
C 998 0 1203 0 1382 0 
C 1421 0 1498 0 1498 122 
C 1498 180 1446 186 1408 186 
C 1261 186 1139 236 1139 388 
C 1139 476 1178 546 1261 685 
L 1747 1479 
L 3379 1479 
C 3386 1423 3386 1373 3392 1316 
C 3411 1152 3488 495 3488 376 
C 3488 186 3162 186 3059 186 
C 2989 186 2918 186 2918 70 
C 2918 0 2976 0 3014 0 
C 3123 0 3251 0 3360 0 
L 3725 0 
C 4115 0 4397 0 4403 0 
C 4448 0 4518 0 4518 122 
C 4518 186 4461 186 4365 186 
C 4013 186 4006 244 3987 434 
L 3597 4404 
C 3584 4531 3558 4544 3488 4544 
C 3424 4544 3386 4531 3328 4435 
L 1088 691 
z
M 1856 1664 
L 3142 3819 
L 3360 1664 
L 1856 1664 
z
" transform="scale(0.015625)"/>
      </defs>
      <use xlink:href="#CMMI12-41" transform="scale(0.996264)"/>
     </g>
    </g>
   </g>
  </g>
 </g>
 <defs>
  <clipPath id="p939f32fdb0">
   <rect x="10.8" y="22.673214" width="436.2" height="312.126786"/>
  </clipPath>
 </defs>
</svg>
