<?xml version="1.0" encoding="utf-8" standalone="no"?>
<!DOCTYPE svg PUBLIC "-//W3C//DTD SVG 1.1//EN"
  "http://www.w3.org/Graphics/SVG/1.1/DTD/svg11.dtd">
<svg xmlns:xlink="http://www.w3.org/1999/xlink" width="432pt" height="432pt" viewBox="0 0 432 432" xmlns="http://www.w3.org/2000/svg" version="1.1">
 <metadata>
  <rdf:RDF xmlns:dc="http://purl.org/dc/elements/1.1/" xmlns:cc="http://creativecommons.org/ns#" xmlns:rdf="http://www.w3.org/1999/02/22-rdf-syntax-ns#">
   <cc:Work>
    <dc:type rdf:resource="http://purl.org/dc/dcmitype/StillImage"/>
    <dc:date>2025-11-20T20:24:46.873003</dc:date>
    <dc:format>image/svg+xml</dc:format>
    <dc:creator>
     <cc:Agent>
      <dc:title>Matplotlib v3.9.1, https://matplotlib.org/</dc:title>
     </cc:Agent>
    </dc:creator>
   </cc:Work>
  </rdf:RDF>
 </metadata>
 <defs>
  <style type="text/css">*{stroke-linejoin: round; stroke-linecap: butt}</style>
 </defs>
 <g id="figure_1">
  <g id="patch_1">
   <path d="M 0 432 
L 432 432 
L 432 0 
L 0 0 
L 0 432 
z
" style="fill: none"/>
  </g>
  <g id="axes_1">
   <g id="line2d_1">
    <path d="M 215.999706 160.419967 
L 323.908411 347.323325 
" clip-path="url(#p18c630ffc4)" style="fill: none; stroke: #dc5e8b; stroke-width: 3; stroke-linecap: square"/>
   </g>
   <g id="line2d_2">
    <path d="M 215.999706 160.419967 
L 108.091002 347.323325 
" clip-path="url(#p18c630ffc4)" style="fill: none; stroke: #dc5e8b; stroke-width: 3; stroke-linecap: square"/>
   </g>
   <g id="line2d_3">
    <path d="M 215.999706 347.323325 
L 323.908411 347.323325 
" clip-path="url(#p18c630ffc4)" style="fill: none; stroke: #000000; stroke-width: 3; stroke-linecap: square"/>
   </g>
   <g id="line2d_4">
    <path d="M 340.601945 285.022206 
L 340.486803 283.95112 
L 340.14159 282.882013 
L 339.566944 281.816862 
L 338.630649 280.606915 
L 337.398348 279.407625 
L 335.873014 278.221888 
L 333.811361 276.907695 
L 331.389817 275.618291 
L 328.286151 274.21948 
L 324.383536 272.728039 
L 319.986391 271.292694 
L 314.649128 269.798527 
L 308.776231 268.387021 
L 301.846527 266.960045 
L 294.369822 265.648158 
L 285.760965 264.373637 
L 276.63663 263.251692 
L 267.064236 262.290614 
L 256.391312 261.447443 
L 245.375797 260.804226 
L 234.111123 260.36642 
L 222.692833 260.137737 
L 211.217774 260.120116 
L 199.783273 260.313709 
L 188.486316 260.716872 
L 177.42272 261.326186 
L 166.686323 262.136482 
L 156.368188 263.140889 
L 147.192558 264.245975 
L 138.525358 265.504579 
L 130.430631 266.907404 
L 123.479049 268.330117 
L 117.116993 269.859189 
L 111.802698 271.356626 
L 107.05416 272.928263 
L 103.220412 274.426832 
L 100.181313 275.831302 
L 97.57898 277.270433 
L 95.618462 278.590801 
L 94.025684 279.930817 
L 92.922562 281.135127 
L 92.116522 282.34882 
L 91.656487 283.416195 
L 91.426256 284.486539 
L 91.426256 285.557872 
L 91.656487 286.628216 
L 92.116522 287.695591 
L 92.805513 288.758026 
L 93.871631 289.963668 
L 95.232542 291.157383 
L 97.111819 292.482469 
L 99.354274 293.784765 
L 102.263472 295.200196 
L 105.601585 296.577244 
L 109.753835 298.041472 
L 114.390859 299.446297 
L 119.977398 300.903559 
L 126.085307 302.27459 
L 133.252032 303.653942 
L 140.946011 304.914577 
L 149.765185 306.130219 
L 159.073779 307.189891 
L 169.512167 308.143301 
L 180.34485 308.900605 
L 191.479948 309.455379 
L 202.823015 309.802918 
L 214.277843 309.940274 
L 225.747275 309.866282 
L 237.134031 309.581569 
L 248.341532 309.088551 
L 259.274718 308.391409 
L 269.840859 307.496056 
L 279.950333 306.410086 
L 288.898121 305.232638 
L 297.307249 303.905851 
L 304.579023 302.548669 
L 311.286385 301.07981 
L 317.386595 299.508636 
L 322.444985 297.976156 
L 326.574732 296.509384 
L 330.19995 294.990199 
L 333.043825 293.569468 
L 335.446311 292.116504 
L 337.223638 290.785803 
L 338.492745 289.58805 
L 339.466179 288.379276 
L 340.14159 287.162398 
L 340.486803 286.093292 
L 340.601945 285.022206 
L 340.601945 285.022206 
" clip-path="url(#p18c630ffc4)" style="fill: none; stroke-dasharray: 11.1,4.8; stroke-dashoffset: 0; stroke: #000000; stroke-width: 3"/>
   </g>
   <g id="line2d_5">
    <path d="M 323.908411 347.323325 
L 323.808695 346.252239 
L 323.509732 345.183133 
L 322.924808 343.966255 
L 322.08179 342.757481 
L 320.98271 341.559727 
L 319.4435 340.229027 
L 317.58829 338.919998 
L 315.163253 337.495801 
L 312.364257 336.108664 
L 308.866078 334.631857 
L 304.94417 333.212959 
L 300.203543 331.738713 
L 295.005716 330.349088 
L 288.89159 328.94789 
L 282.313008 327.663777 
L 274.757102 326.421195 
L 266.767027 325.333063 
L 257.791571 324.347711 
L 248.461648 323.557231 
L 238.856392 322.968328 
L 229.057272 322.585997 
L 219.147402 322.413482 
L 209.210833 322.452244 
L 199.331847 322.701957 
L 189.594232 323.1605 
L 180.080581 323.823986 
L 170.871585 324.686787 
L 162.045354 325.741584 
L 154.218972 326.891416 
L 146.8491 328.192223 
L 139.990195 329.634394 
L 134.1231 331.090831 
L 128.777709 332.650699 
L 124.336067 334.173794 
L 120.392129 335.768287 
L 117.232411 337.285238 
L 114.750662 338.704216 
L 112.650737 340.155698 
L 111.093839 341.4853 
L 109.857408 342.832736 
L 109.030467 344.042103 
L 108.461728 345.25939 
L 108.152565 346.481658 
L 108.095581 347.552911 
L 108.238021 348.623739 
L 108.644647 349.844485 
L 109.310405 351.059145 
L 110.233691 352.264788 
L 111.412274 353.458503 
L 113.039775 354.783588 
L 114.981798 356.085884 
L 117.501238 357.501315 
L 120.392129 358.878364 
L 123.988082 360.342592 
L 128.389134 361.871958 
L 133.265883 363.32233 
L 139.055069 364.795301 
L 145.334533 366.156943 
L 152.599374 367.488888 
L 160.332692 368.671826 
L 168.477344 369.697016 
L 177.591784 370.6118 
L 187.031988 371.329057 
L 196.717889 371.842705 
L 206.567333 372.148386 
L 216.49678 372.243508 
L 226.42201 372.127265 
L 236.258841 371.800641 
L 245.923841 371.266407 
L 255.335032 370.529095 
L 264.412592 369.594958 
L 273.079527 368.47192 
L 280.733285 367.2617 
L 287.908714 365.904151 
L 294.096909 364.520403 
L 299.78748 363.027078 
L 304.567226 361.559585 
L 308.866078 360.014793 
L 312.364257 358.537986 
L 315.422747 357.01001 
L 317.809862 355.582399 
L 319.813036 354.123643 
L 321.281351 352.788676 
L 322.428052 351.437014 
L 323.17449 350.224858 
L 323.662229 349.005698 
L 323.890093 347.782477 
L 323.908411 347.323325 
L 323.908411 347.323325 
" clip-path="url(#p18c630ffc4)" style="fill: none; stroke-dasharray: 11.1,4.8; stroke-dashoffset: 0; stroke: #dc5e8b; stroke-width: 3"/>
   </g>
   <g id="line2d_6">
    <path d="M 340.601945 285.022206 
L 340.486803 279.666776 
L 340.14159 274.321244 
L 339.566944 268.995489 
L 338.763927 263.699354 
L 337.734023 258.442626 
L 336.479136 253.235022 
L 335.001584 248.086166 
L 333.304099 243.005572 
L 331.389817 238.002632 
L 329.262277 233.086591 
L 326.92541 228.266535 
L 324.383536 223.551372 
L 321.641353 218.949817 
L 318.703927 214.470373 
L 315.576688 210.12132 
L 312.265416 205.910695 
L 308.776231 201.846281 
L 305.11558 197.935588 
L 301.290229 194.185844 
L 297.307249 190.603979 
L 293.174 187.196614 
L 288.898121 183.970046 
L 284.487515 180.930237 
L 279.950333 178.082806 
L 275.294961 175.433015 
L 270.530002 172.985761 
L 265.664262 170.745568 
L 260.706735 168.716576 
L 255.666583 166.902534 
L 250.55312 165.306795 
L 245.375797 163.932308 
L 240.144183 162.781614 
L 234.867946 161.856839 
L 229.556838 161.159693 
L 224.220674 160.691463 
L 218.869317 160.453015 
L 213.512656 160.44479 
L 208.160591 160.666803 
L 202.823015 161.118643 
L 197.50979 161.799476 
L 192.230739 162.708044 
L 186.995615 163.842667 
L 181.814096 165.201247 
L 176.695757 166.781276 
L 171.650057 168.579831 
L 166.686323 170.59359 
L 161.813727 172.81883 
L 157.041275 175.251438 
L 152.377787 177.88692 
L 147.831882 180.720405 
L 143.411962 183.746654 
L 139.126194 186.960077 
L 134.982501 190.354733 
L 130.98854 193.924349 
L 127.151692 197.662327 
L 123.479049 201.56176 
L 119.977398 205.615441 
L 116.653211 209.815877 
L 113.512631 214.155306 
L 110.561463 218.625708 
L 107.805161 223.21882 
L 105.248819 227.926155 
L 102.897162 232.739012 
L 100.754535 237.648496 
L 98.824898 242.645534 
L 97.111819 247.72089 
L 95.618462 252.865185 
L 94.347588 258.068911 
L 93.301546 263.322451 
L 92.482268 268.616095 
L 91.89127 273.94006 
L 91.529642 279.284507 
L 91.398055 284.639558 
L 91.49675 289.995316 
L 91.825545 295.341883 
L 92.383834 300.669377 
L 93.170583 305.967953 
L 94.184339 311.227819 
L 95.423228 316.439252 
L 96.884961 321.592622 
L 98.566836 326.678404 
L 100.465745 331.687199 
L 102.578178 336.609751 
L 104.900231 341.43696 
L 107.427613 346.159907 
L 110.155653 350.769862 
L 113.079308 355.258305 
L 116.193176 359.616941 
L 119.491502 363.837715 
L 122.96819 367.912826 
L 126.616814 371.834742 
L 130.430631 375.596216 
L 134.402593 379.190295 
L 138.525358 382.610337 
L 142.791308 385.850021 
L 147.192558 388.903361 
L 151.720975 391.764712 
L 156.368188 394.428787 
L 161.125609 396.890661 
L 165.984446 399.145786 
L 170.935718 401.189994 
L 175.970276 403.019505 
L 181.078814 404.63094 
L 186.251892 406.021319 
L 191.479948 407.188074 
L 196.75332 408.129048 
L 202.062262 408.842501 
L 207.396963 409.327116 
L 212.747563 409.581997 
L 218.104173 409.606672 
L 223.456894 409.401096 
L 228.795833 408.965649 
L 234.111123 408.301135 
L 239.39294 407.408784 
L 244.631523 406.290243 
L 249.81719 404.947581 
L 254.940358 403.383279 
L 259.991557 401.600227 
L 264.961452 399.601721 
L 269.840859 397.391455 
L 274.620758 394.973514 
L 279.292318 392.352366 
L 283.846903 389.532855 
L 288.276096 386.520193 
L 292.571711 383.319947 
L 296.72581 379.938032 
L 300.730714 376.380698 
L 304.579023 372.65452 
L 308.263624 368.766384 
L 311.777707 364.723476 
L 315.114778 360.533268 
L 318.268669 356.203504 
L 321.233551 351.742186 
L 324.003945 347.15756 
L 326.574732 342.458098 
L 328.941158 337.652486 
L 331.098852 332.749605 
L 333.043825 327.758516 
L 334.772483 322.688445 
L 336.28163 317.54876 
L 337.568478 312.348961 
L 338.630649 307.098659 
L 339.466179 301.807555 
L 340.073525 296.48543 
L 340.451563 291.142119 
L 340.599595 285.787498 
L 340.601945 285.022206 
L 340.601945 285.022206 
" clip-path="url(#p18c630ffc4)" style="fill: none; stroke: #0072b2; stroke-width: 3; stroke-linecap: square"/>
   </g>
   <g id="patch_2">
    <path d="M 278.300826 37.814071 
Q 278.300826 98.116131 278.300826 158.418192 
" style="fill: none; stroke: #000000; stroke-linecap: round"/>
    <path d="M 283.300826 37.814071 
L 283.300826 37.814071 
L 273.300826 37.814071 
L 273.300826 37.814071 
" style="fill: none; stroke: #000000; stroke-linecap: round"/>
    <path d="M 273.300826 158.418192 
L 273.300826 158.418192 
L 283.300826 158.418192 
L 283.300826 158.418192 
" style="fill: none; stroke: #000000; stroke-linecap: round"/>
   </g>
   <g id="text_1">
    <!-- $r$ -->
    <g transform="translate(263.359928 367.254571) scale(0.3 -0.3)">
     <defs>
      <path id="CMMI12-72" d="M 2490 2612 
C 2291 2574 2189 2433 2189 2293 
C 2189 2139 2310 2088 2400 2088 
C 2579 2088 2726 2242 2726 2433 
C 2726 2638 2528 2816 2208 2816 
C 1952 2816 1658 2701 1389 2312 
C 1344 2650 1088 2816 832 2816 
C 582 2816 454 2625 378 2484 
C 269 2254 173 1871 173 1839 
C 173 1814 198 1782 243 1782 
C 294 1782 301 1788 339 1935 
C 435 2318 557 2689 813 2689 
C 966 2689 1011 2580 1011 2395 
C 1011 2254 947 2005 902 1807 
L 723 1118 
C 698 996 627 709 595 594 
C 550 428 480 128 480 96 
C 480 6 550 -64 646 -64 
C 717 -64 838 -19 877 109 
C 896 160 1133 1124 1171 1271 
C 1203 1411 1242 1546 1274 1686 
C 1299 1775 1325 1878 1344 1961 
C 1363 2018 1536 2331 1696 2472 
C 1773 2542 1939 2689 2202 2689 
C 2304 2689 2406 2670 2490 2612 
z
" transform="scale(0.015625)"/>
     </defs>
     <use xlink:href="#CMMI12-72" transform="scale(0.996264)"/>
    </g>
   </g>
  </g>
 </g>
 <defs>
  <clipPath id="p18c630ffc4">
   <rect x="10.8" y="148.844264" width="410.4" height="272.355736"/>
  </clipPath>
 </defs>
</svg>
