<?xml version="1.0" encoding="utf-8" standalone="no"?>
<!DOCTYPE svg PUBLIC "-//W3C//DTD SVG 1.1//EN"
  "http://www.w3.org/Graphics/SVG/1.1/DTD/svg11.dtd">
<svg xmlns:xlink="http://www.w3.org/1999/xlink" width="460.8pt" height="345.6pt" viewBox="0 0 460.8 345.6" xmlns="http://www.w3.org/2000/svg" version="1.1">
 <metadata>
  <rdf:RDF xmlns:dc="http://purl.org/dc/elements/1.1/" xmlns:cc="http://creativecommons.org/ns#" xmlns:rdf="http://www.w3.org/1999/02/22-rdf-syntax-ns#">
   <cc:Work>
    <dc:type rdf:resource="http://purl.org/dc/dcmitype/StillImage"/>
    <dc:date>2025-12-10T23:42:27.482795</dc:date>
    <dc:format>image/svg+xml</dc:format>
    <dc:creator>
     <cc:Agent>
      <dc:title>Matplotlib v3.9.1, https://matplotlib.org/</dc:title>
     </cc:Agent>
    </dc:creator>
   </cc:Work>
  </rdf:RDF>
 </metadata>
 <defs>
  <style type="text/css">*{stroke-linejoin: round; stroke-linecap: butt}</style>
 </defs>
 <g id="figure_1">
  <g id="patch_1">
   <path d="M 0 345.6 
L 460.8 345.6 
L 460.8 0 
L 0 0 
L 0 345.6 
z
" style="fill: none"/>
  </g>
  <g id="axes_1">
   <g id="patch_2">
    <path d="M 10.8 334.8 
L 447 334.8 
L 447 22.230394 
L 10.8 22.230394 
L 10.8 334.8 
z
" style="fill: none"/>
   </g>
   <g id="matplotlib.axis_1">
    <g id="text_1">
     <!-- $x$ -->
     <g transform="translate(433.141493 177.48505) scale(0.25 -0.25)">
      <defs>
       <path id="CMMI12-78" d="M 3034 2606 
C 2829 2567 2752 2414 2752 2293 
C 2752 2139 2874 2088 2963 2088 
C 3155 2088 3290 2254 3290 2427 
C 3290 2695 2982 2816 2714 2816 
C 2323 2816 2106 2433 2048 2312 
C 1901 2816 1504 2816 1389 2816 
C 736 2816 390 1980 390 1839 
C 390 1814 416 1782 461 1782 
C 512 1782 525 1820 538 1846 
C 755 2555 1184 2689 1370 2689 
C 1658 2689 1715 2420 1715 2267 
C 1715 2127 1677 1980 1600 1673 
L 1382 798 
C 1286 415 1101 64 762 64 
C 730 64 570 64 435 147 
C 666 192 717 383 717 460 
C 717 588 621 664 499 664 
C 346 664 179 530 179 326 
C 179 57 480 -64 755 -64 
C 1062 -64 1280 179 1414 441 
C 1517 64 1837 -64 2074 -64 
C 2726 -64 3072 773 3072 913 
C 3072 945 3046 971 3008 971 
C 2950 971 2944 939 2925 888 
C 2752 326 2381 64 2093 64 
C 1869 64 1747 230 1747 492 
C 1747 632 1773 734 1875 1156 
L 2099 2024 
C 2195 2408 2413 2689 2707 2689 
C 2720 2689 2899 2689 3034 2606 
z
" transform="scale(0.015625)"/>
      </defs>
      <use xlink:href="#CMMI12-78" transform="scale(0.996264)"/>
     </g>
    </g>
   </g>
   <g id="matplotlib.axis_2">
    <g id="text_2">
     <!-- $y$ -->
     <g transform="translate(213.008953 17.38586) scale(0.25 -0.25)">
      <defs>
       <path id="CMMI12-79" d="M 1683 -700 
C 1510 -939 1261 -1152 947 -1152 
C 870 -1152 563 -1152 467 -889 
C 486 -895 518 -895 531 -895 
C 723 -895 851 -729 851 -582 
C 851 -435 730 -384 634 -384 
C 531 -384 307 -458 307 -759 
C 307 -1071 582 -1286 947 -1286 
C 1587 -1286 2234 -700 2413 6 
L 3040 2485 
C 3046 2517 3059 2556 3059 2594 
C 3059 2689 2982 2753 2886 2753 
C 2829 2753 2694 2727 2643 2535 
L 2170 658 
C 2138 543 2138 530 2086 460 
C 1958 281 1747 64 1440 64 
C 1082 64 1050 415 1050 588 
C 1050 952 1222 1443 1395 1903 
C 1466 2088 1504 2178 1504 2305 
C 1504 2574 1312 2816 998 2816 
C 410 2816 173 1890 173 1839 
C 173 1814 198 1782 243 1782 
C 301 1782 307 1807 333 1897 
C 486 2433 730 2689 979 2689 
C 1037 2689 1146 2689 1146 2478 
C 1146 2312 1075 2127 979 1884 
C 666 1047 666 837 666 683 
C 666 77 1101 -64 1421 -64 
C 1606 -64 1837 -6 2061 230 
L 2067 224 
C 1971 -147 1907 -392 1683 -700 
z
" transform="scale(0.015625)"/>
      </defs>
      <use xlink:href="#CMMI12-79" transform="scale(0.996264)"/>
     </g>
    </g>
   </g>
   <g id="line2d_1">
    <defs>
     <path id="m688c926e80" d="M 3 0 
L -3 -3 
L -3 3 
z
" style="stroke: #000000; stroke-linejoin: miter"/>
    </defs>
    <g>
     <use xlink:href="#m688c926e80" x="447" y="156.188797" style="stroke: #000000; stroke-linejoin: miter"/>
    </g>
   </g>
   <g id="line2d_2">
    <defs>
     <path id="mcaab7b1ddc" d="M 0 -3 
L -3 3 
L 3 3 
z
" style="stroke: #000000; stroke-linejoin: miter"/>
    </defs>
    <g>
     <use xlink:href="#mcaab7b1ddc" x="228.9" y="22.230394" style="stroke: #000000; stroke-linejoin: miter"/>
    </g>
   </g>
   <g id="line2d_3">
    <path d="M 10.8 200.843346 
L 46.164689 200.962629 
L 57.136264 201.213469 
L 64.592674 201.597786 
L 70.344762 202.110688 
L 75.138168 202.756685 
L 79.292454 203.536894 
L 83.020659 204.461152 
L 86.429304 205.534382 
L 89.624908 206.776285 
L 92.607473 208.174183 
L 95.483516 209.770202 
L 98.25304 211.563855 
L 100.916044 213.549265 
L 103.579048 215.811168 
L 106.242051 218.36799 
L 108.905055 221.234994 
L 111.568059 224.423175 
L 114.337582 228.085483 
L 117.213626 232.26101 
L 120.302711 237.154311 
L 123.604835 242.817862 
L 127.33304 249.672742 
L 132.019927 258.786125 
L 142.032821 278.402286 
L 145.228425 284.098182 
L 147.891429 288.4086 
L 150.234872 291.781762 
L 152.258755 294.320371 
L 154.069597 296.25915 
L 155.773919 297.769193 
L 157.371722 298.887031 
L 158.863004 299.655089 
L 160.247766 300.119541 
L 161.526007 300.32836 
L 162.804249 300.320596 
L 164.082491 300.092113 
L 165.360733 299.640013 
L 166.638974 298.962702 
L 168.023736 297.974567 
L 169.515018 296.616385 
L 171.0063 294.957737 
L 172.604103 292.85545 
L 174.414945 290.081678 
L 176.332308 286.71702 
L 178.462711 282.504278 
L 180.806154 277.360248 
L 183.575678 270.711044 
L 187.090842 261.63416 
L 198.488498 231.701575 
L 201.258022 225.302715 
L 203.707985 220.182045 
L 205.944908 216.013778 
L 207.968791 212.692975 
L 209.886154 209.957172 
L 211.696996 207.743477 
L 213.507839 205.884444 
L 215.212161 204.447563 
L 216.916484 203.297217 
L 218.620806 202.411339 
L 220.431648 201.729381 
L 222.349011 201.256587 
L 224.479414 200.970118 
L 227.142418 200.84972 
L 233.853187 200.661106 
L 235.98359 200.318218 
L 237.900952 199.778883 
L 239.605275 199.073776 
L 241.309597 198.124138 
L 243.013919 196.904018 
L 244.718242 195.392696 
L 246.422564 193.575078 
L 248.233407 191.298065 
L 250.044249 188.661429 
L 251.961612 185.482565 
L 254.092015 181.501149 
L 256.435458 176.61433 
L 258.991941 170.749183 
L 262.081026 163.064939 
L 266.341832 151.788304 
L 273.585201 132.578171 
L 276.674286 125.061238 
L 279.230769 119.401717 
L 281.467692 114.966175 
L 283.491575 111.42722 
L 285.302418 108.677349 
L 287.00674 106.470356 
L 288.604542 104.750281 
L 290.095824 103.457165 
L 291.480586 102.530015 
L 292.865348 101.86751 
L 294.14359 101.490192 
L 295.421832 101.335666 
L 296.700073 101.400615 
L 297.978315 101.680506 
L 299.363077 102.219669 
L 300.747839 102.995806 
L 302.239121 104.085244 
L 303.836923 105.528819 
L 305.541245 107.362824 
L 307.458608 109.758709 
L 309.589011 112.789633 
L 312.038974 116.687153 
L 314.915018 121.715731 
L 318.430183 128.3376 
L 324.395311 140.144175 
L 330.57348 152.212067 
L 334.514725 159.431494 
L 337.92337 165.228039 
L 341.012454 170.064381 
L 343.995018 174.329497 
L 346.871062 178.054873 
L 349.640586 181.282954 
L 352.41011 184.16648 
L 355.073114 186.627094 
L 357.736117 188.798393 
L 360.505641 190.770317 
L 363.275165 192.473836 
L 366.151209 193.985434 
L 369.133773 195.305655 
L 372.329377 196.475137 
L 375.738022 197.482708 
L 379.466227 198.347629 
L 383.620513 199.075213 
L 388.307399 199.664276 
L 393.846447 200.12883 
L 400.770256 200.473593 
L 410.144029 200.699851 
L 425.37641 200.815526 
L 447 200.839849 
L 447 200.839849 
" clip-path="url(#p6842d475a9)" style="fill: none; stroke: #0072b2; stroke-width: 3; stroke-linecap: square"/>
   </g>
   <g id="patch_3">
    <path d="M 228.9 334.8 
L 228.9 22.230394 
" style="fill: none; stroke: #000000; stroke-width: 0.8; stroke-linejoin: miter; stroke-linecap: square"/>
   </g>
   <g id="patch_4">
    <path d="M 447 334.8 
L 447 22.230394 
" style="fill: none"/>
   </g>
   <g id="patch_5">
    <path d="M 10.8 156.188797 
L 447 156.188797 
" style="fill: none; stroke: #000000; stroke-width: 0.8; stroke-linejoin: miter; stroke-linecap: square"/>
   </g>
   <g id="patch_6">
    <path d="M 10.8 22.230394 
L 447 22.230394 
" style="fill: none"/>
   </g>
   <g id="legend_1">
    <g id="patch_7">
     <path d="M 337.479191 77.074928 
L 429.5 77.074928 
Q 434.5 77.074928 434.5 72.074928 
L 434.5 39.730394 
Q 434.5 34.730394 429.5 34.730394 
L 337.479191 34.730394 
Q 332.479191 34.730394 332.479191 39.730394 
L 332.479191 72.074928 
Q 332.479191 77.074928 337.479191 77.074928 
z
" style="fill: #ffffff; opacity: 0.8; stroke: #cccccc; stroke-linejoin: miter"/>
    </g>
    <g id="line2d_4">
     <path d="M 342.479191 53.480394 
L 367.479191 53.480394 
L 392.479191 53.480394 
" style="fill: none; stroke: #0072b2; stroke-width: 3; stroke-linecap: square"/>
    </g>
    <g id="text_3">
     <!-- $f$ -->
     <g transform="translate(412.479191 62.230394) scale(0.25 -0.25)">
      <defs>
       <path id="CMMI12-66" d="M 2854 2566 
C 2982 2566 3034 2566 3034 2688 
C 3034 2752 2982 2752 2867 2752 
L 2349 2752 
C 2470 3429 2560 3897 2611 4107 
C 2650 4265 2784 4416 2950 4416 
C 3085 4416 3219 4358 3283 4298 
C 3034 4272 2957 4082 2957 3969 
C 2957 3837 3053 3759 3174 3759 
C 3302 3759 3494 3870 3494 4119 
C 3494 4393 3226 4544 2944 4544 
C 2669 4544 2400 4334 2272 4078 
C 2157 3848 2093 3611 1946 2752 
L 1517 2752 
C 1395 2752 1331 2752 1331 2637 
C 1331 2566 1370 2566 1498 2566 
L 1907 2566 
C 1792 1976 1530 542 1382 -137 
C 1274 -689 1178 -1152 858 -1152 
C 838 -1152 653 -1152 538 -1031 
C 864 -1005 864 -726 864 -720 
C 864 -593 768 -517 646 -517 
C 518 -517 326 -625 326 -867 
C 326 -1140 608 -1280 858 -1280 
C 1510 -1280 1779 -118 1850 199 
C 1965 688 2278 2376 2310 2566 
L 2854 2566 
z
" transform="scale(0.015625)"/>
      </defs>
      <use xlink:href="#CMMI12-66" transform="scale(0.996264)"/>
     </g>
    </g>
   </g>
  </g>
 </g>
 <defs>
  <clipPath id="p6842d475a9">
   <rect x="10.8" y="22.230394" width="436.2" height="312.569606"/>
  </clipPath>
 </defs>
</svg>
