<?xml version="1.0" encoding="utf-8" standalone="no"?>
<!DOCTYPE svg PUBLIC "-//W3C//DTD SVG 1.1//EN"
  "http://www.w3.org/Graphics/SVG/1.1/DTD/svg11.dtd">
<svg xmlns:xlink="http://www.w3.org/1999/xlink" width="460.8pt" height="345.6pt" viewBox="0 0 460.8 345.6" xmlns="http://www.w3.org/2000/svg" version="1.1">
 <metadata>
  <rdf:RDF xmlns:dc="http://purl.org/dc/elements/1.1/" xmlns:cc="http://creativecommons.org/ns#" xmlns:rdf="http://www.w3.org/1999/02/22-rdf-syntax-ns#">
   <cc:Work>
    <dc:type rdf:resource="http://purl.org/dc/dcmitype/StillImage"/>
    <dc:date>2025-12-06T21:55:12.353959</dc:date>
    <dc:format>image/svg+xml</dc:format>
    <dc:creator>
     <cc:Agent>
      <dc:title>Matplotlib v3.9.1, https://matplotlib.org/</dc:title>
     </cc:Agent>
    </dc:creator>
   </cc:Work>
  </rdf:RDF>
 </metadata>
 <defs>
  <style type="text/css">*{stroke-linejoin: round; stroke-linecap: butt}</style>
 </defs>
 <g id="figure_1">
  <g id="patch_1">
   <path d="M 0 345.6 
L 460.8 345.6 
L 460.8 0 
L 0 0 
L 0 345.6 
z
" style="fill: none"/>
  </g>
  <g id="axes_1">
   <g id="patch_2">
    <path d="M 10.8 334.8 
L 447 334.8 
L 447 20.016315 
L 10.8 20.016315 
L 10.8 334.8 
z
" style="fill: none"/>
   </g>
   <g id="matplotlib.axis_1">
    <g id="text_1">
     <!-- $x$ -->
     <g transform="translate(435.913188 195.245154) scale(0.2 -0.2)">
      <defs>
       <path id="CMMI12-78" d="M 3034 2606 
C 2829 2567 2752 2414 2752 2293 
C 2752 2139 2874 2088 2963 2088 
C 3155 2088 3290 2254 3290 2427 
C 3290 2695 2982 2816 2714 2816 
C 2323 2816 2106 2433 2048 2312 
C 1901 2816 1504 2816 1389 2816 
C 736 2816 390 1980 390 1839 
C 390 1814 416 1782 461 1782 
C 512 1782 525 1820 538 1846 
C 755 2555 1184 2689 1370 2689 
C 1658 2689 1715 2420 1715 2267 
C 1715 2127 1677 1980 1600 1673 
L 1382 798 
C 1286 415 1101 64 762 64 
C 730 64 570 64 435 147 
C 666 192 717 383 717 460 
C 717 588 621 664 499 664 
C 346 664 179 530 179 326 
C 179 57 480 -64 755 -64 
C 1062 -64 1280 179 1414 441 
C 1517 64 1837 -64 2074 -64 
C 2726 -64 3072 773 3072 913 
C 3072 945 3046 971 3008 971 
C 2950 971 2944 939 2925 888 
C 2752 326 2381 64 2093 64 
C 1869 64 1747 230 1747 492 
C 1747 632 1773 734 1875 1156 
L 2099 2024 
C 2195 2408 2413 2689 2707 2689 
C 2720 2689 2899 2689 3034 2606 
z
" transform="scale(0.015625)"/>
      </defs>
      <use xlink:href="#CMMI12-78" transform="scale(0.996264)"/>
     </g>
    </g>
   </g>
   <g id="matplotlib.axis_2">
    <g id="text_2">
     <!-- $y$ -->
     <g transform="translate(215.387165 16.140682) scale(0.2 -0.2)">
      <defs>
       <path id="CMMI12-79" d="M 1683 -700 
C 1510 -939 1261 -1152 947 -1152 
C 870 -1152 563 -1152 467 -889 
C 486 -895 518 -895 531 -895 
C 723 -895 851 -729 851 -582 
C 851 -435 730 -384 634 -384 
C 531 -384 307 -458 307 -759 
C 307 -1071 582 -1286 947 -1286 
C 1587 -1286 2234 -700 2413 6 
L 3040 2485 
C 3046 2517 3059 2556 3059 2594 
C 3059 2689 2982 2753 2886 2753 
C 2829 2753 2694 2727 2643 2535 
L 2170 658 
C 2138 543 2138 530 2086 460 
C 1958 281 1747 64 1440 64 
C 1082 64 1050 415 1050 588 
C 1050 952 1222 1443 1395 1903 
C 1466 2088 1504 2178 1504 2305 
C 1504 2574 1312 2816 998 2816 
C 410 2816 173 1890 173 1839 
C 173 1814 198 1782 243 1782 
C 301 1782 307 1807 333 1897 
C 486 2433 730 2689 979 2689 
C 1037 2689 1146 2689 1146 2478 
C 1146 2312 1075 2127 979 1884 
C 666 1047 666 837 666 683 
C 666 77 1101 -64 1421 -64 
C 1606 -64 1837 -6 2061 230 
L 2067 224 
C 1971 -147 1907 -392 1683 -700 
z
" transform="scale(0.015625)"/>
      </defs>
      <use xlink:href="#CMMI12-79" transform="scale(0.996264)"/>
     </g>
    </g>
   </g>
   <g id="line2d_1">
    <defs>
     <path id="ma0465ca19b" d="M 3 0 
L -3 -3 
L -3 3 
z
" style="stroke: #000000; stroke-linejoin: miter"/>
    </defs>
    <g>
     <use xlink:href="#ma0465ca19b" x="447" y="177.408158" style="stroke: #000000; stroke-linejoin: miter"/>
    </g>
   </g>
   <g id="line2d_2">
    <defs>
     <path id="mb57c99d40a" d="M 0 -3 
L -3 3 
L 3 3 
z
" style="stroke: #000000; stroke-linejoin: miter"/>
    </defs>
    <g>
     <use xlink:href="#mb57c99d40a" x="228.9" y="20.016315" style="stroke: #000000; stroke-linejoin: miter"/>
    </g>
   </g>
   <g id="line2d_3">
    <path d="M 10.8 177.407883 
L 61.50359 177.294865 
L 73.646886 177.047442 
L 81.848938 176.668646 
L 88.240147 176.160845 
L 93.672674 175.51231 
L 98.466081 174.719149 
L 102.833407 173.771409 
L 106.881172 172.665442 
L 110.715897 171.387278 
L 114.444103 169.907831 
L 118.065788 168.232543 
L 121.687473 166.31613 
L 125.522198 164.028624 
L 129.569963 161.348584 
L 134.25685 157.96945 
L 148.85011 147.222203 
L 151.832674 145.433613 
L 154.389158 144.152071 
L 156.626081 143.268273 
L 158.649963 142.693506 
L 160.567326 142.3728 
L 162.378168 142.291647 
L 164.082491 142.42961 
L 165.786813 142.790903 
L 167.491136 143.38959 
L 169.195458 144.238386 
L 170.89978 145.348403 
L 172.604103 146.728905 
L 174.414945 148.500042 
L 176.225788 150.590323 
L 178.14315 153.154119 
L 180.167033 156.249947 
L 182.297436 159.933017 
L 184.534359 164.2515 
L 186.984322 169.47944 
L 189.647326 175.696605 
L 192.73641 183.501112 
L 196.571136 193.847314 
L 209.033993 228.024849 
L 211.803516 234.710098 
L 214.25348 240.05937 
L 216.383883 244.197089 
L 218.301245 247.459517 
L 220.112088 250.102513 
L 221.70989 252.057711 
L 223.201172 253.548426 
L 224.585934 254.63383 
L 225.864176 255.374094 
L 227.142418 255.858982 
L 228.314139 256.076825 
L 229.485861 256.076825 
L 230.657582 255.858982 
L 231.829304 255.424302 
L 233.107546 254.705183 
L 234.385788 253.734351 
L 235.770549 252.404747 
L 237.261832 250.659261 
L 238.859634 248.442579 
L 240.563956 245.703671 
L 242.481319 242.192315 
L 244.611722 237.806022 
L 246.955165 232.465452 
L 249.724689 225.580145 
L 253.133333 216.481154 
L 259.098462 199.789895 
L 264.317949 185.464479 
L 267.726593 176.738065 
L 270.602637 169.957205 
L 273.159121 164.468254 
L 275.502564 159.933017 
L 277.739487 156.077123 
L 279.86989 152.85145 
L 281.893773 150.198106 
L 283.811136 148.054753 
L 285.621978 146.357992 
L 287.432821 144.972862 
L 289.137143 143.945564 
L 290.841465 143.176202 
L 292.545788 142.653134 
L 294.25011 142.363199 
L 295.954432 142.291964 
L 297.765275 142.438618 
L 299.682637 142.822345 
L 301.70652 143.456369 
L 303.943443 144.396888 
L 306.393407 145.671581 
L 309.269451 147.429194 
L 312.784615 149.85452 
L 318.004103 153.763007 
L 326.738755 160.301129 
L 331.212601 163.348329 
L 335.153846 165.768687 
L 338.882051 167.80336 
L 342.610256 169.582447 
L 346.338462 171.11066 
L 350.066667 172.401683 
L 354.007912 173.530508 
L 358.162198 174.487723 
L 362.636044 175.290275 
L 367.642491 175.958288 
L 373.394579 176.493109 
L 380.211868 176.895505 
L 388.94652 177.176697 
L 401.622418 177.342353 
L 426.974212 177.404447 
L 447 177.407883 
L 447 177.407883 
" clip-path="url(#p1bf623a037)" style="fill: none; stroke: #0072b2; stroke-width: 2.5; stroke-linecap: square"/>
   </g>
   <g id="patch_3">
    <path d="M 228.9 334.8 
L 228.9 20.016315 
" style="fill: none; stroke: #000000; stroke-width: 0.8; stroke-linejoin: miter; stroke-linecap: square"/>
   </g>
   <g id="patch_4">
    <path d="M 447 334.8 
L 447 20.016315 
" style="fill: none"/>
   </g>
   <g id="patch_5">
    <path d="M 10.8 177.408158 
L 447 177.408158 
" style="fill: none; stroke: #000000; stroke-width: 0.8; stroke-linejoin: miter; stroke-linecap: square"/>
   </g>
   <g id="patch_6">
    <path d="M 10.8 20.016315 
L 447 20.016315 
" style="fill: none"/>
   </g>
   <g id="legend_1">
    <g id="patch_7">
     <path d="M 354.374426 63.891949 
L 433 63.891949 
Q 437 63.891949 437 59.891949 
L 437 34.016315 
Q 437 30.016315 433 30.016315 
L 354.374426 30.016315 
Q 350.374426 30.016315 350.374426 34.016315 
L 350.374426 59.891949 
Q 350.374426 63.891949 354.374426 63.891949 
z
" style="fill: #ffffff; opacity: 0.8; stroke: #cccccc; stroke-linejoin: miter"/>
    </g>
    <g id="line2d_4">
     <path d="M 358.374426 45.016315 
L 378.374426 45.016315 
L 398.374426 45.016315 
" style="fill: none; stroke: #0072b2; stroke-width: 2.5; stroke-linecap: square"/>
    </g>
    <g id="text_3">
     <!-- $A$ -->
     <g transform="translate(414.374426 52.016315) scale(0.2 -0.2)">
      <defs>
       <path id="CMMI12-41" d="M 1088 691 
C 864 314 646 186 339 186 
C 269 180 218 180 218 58 
C 218 24 250 0 294 0 
C 410 0 698 0 813 0 
C 998 0 1203 0 1382 0 
C 1421 0 1498 0 1498 122 
C 1498 180 1446 186 1408 186 
C 1261 186 1139 236 1139 388 
C 1139 476 1178 546 1261 685 
L 1747 1479 
L 3379 1479 
C 3386 1423 3386 1373 3392 1316 
C 3411 1152 3488 495 3488 376 
C 3488 186 3162 186 3059 186 
C 2989 186 2918 186 2918 70 
C 2918 0 2976 0 3014 0 
C 3123 0 3251 0 3360 0 
L 3725 0 
C 4115 0 4397 0 4403 0 
C 4448 0 4518 0 4518 122 
C 4518 186 4461 186 4365 186 
C 4013 186 4006 244 3987 434 
L 3597 4404 
C 3584 4531 3558 4544 3488 4544 
C 3424 4544 3386 4531 3328 4435 
L 1088 691 
z
M 1856 1664 
L 3142 3819 
L 3360 1664 
L 1856 1664 
z
" transform="scale(0.015625)"/>
      </defs>
      <use xlink:href="#CMMI12-41" transform="scale(0.996264)"/>
     </g>
    </g>
   </g>
  </g>
 </g>
 <defs>
  <clipPath id="p1bf623a037">
   <rect x="10.8" y="20.016315" width="436.2" height="314.783685"/>
  </clipPath>
 </defs>
</svg>
