<?xml version="1.0" encoding="utf-8" standalone="no"?>
<!DOCTYPE svg PUBLIC "-//W3C//DTD SVG 1.1//EN"
  "http://www.w3.org/Graphics/SVG/1.1/DTD/svg11.dtd">
<svg xmlns:xlink="http://www.w3.org/1999/xlink" width="453.6pt" height="339.646325pt" viewBox="0 0 453.6 339.646325" xmlns="http://www.w3.org/2000/svg" version="1.1">
 <metadata>
  <rdf:RDF xmlns:dc="http://purl.org/dc/elements/1.1/" xmlns:cc="http://creativecommons.org/ns#" xmlns:rdf="http://www.w3.org/1999/02/22-rdf-syntax-ns#">
   <cc:Work>
    <dc:type rdf:resource="http://purl.org/dc/dcmitype/StillImage"/>
    <dc:date>2025-08-31T21:16:44.240581</dc:date>
    <dc:format>image/svg+xml</dc:format>
    <dc:creator>
     <cc:Agent>
      <dc:title>Matplotlib v3.9.1, https://matplotlib.org/</dc:title>
     </cc:Agent>
    </dc:creator>
   </cc:Work>
  </rdf:RDF>
 </metadata>
 <defs>
  <style type="text/css">*{stroke-linejoin: round; stroke-linecap: butt}</style>
 </defs>
 <g id="figure_1">
  <g id="patch_1">
   <path d="M 0 339.646325 
L 453.6 339.646325 
L 453.6 0 
L 0 0 
L 0 339.646325 
z
" style="fill: none"/>
  </g>
  <g id="axes_1">
   <g id="patch_2">
    <path d="M 7.2 332.446325 
L 443.4 332.446325 
L 443.4 17.66264 
L 7.2 17.66264 
L 7.2 332.446325 
z
" style="fill: none"/>
   </g>
   <g id="matplotlib.axis_1">
    <g id="text_1">
     <!-- $t / \mathrm{s}$ -->
     <g transform="translate(419.439483 246.46239) scale(0.2 -0.2)">
      <defs>
       <path id="CMMI12-74" d="M 1286 2566 
L 1875 2566 
C 1997 2566 2061 2566 2061 2681 
C 2061 2752 2022 2752 1894 2752 
L 1331 2752 
L 1568 3692 
C 1594 3781 1594 3794 1594 3840 
C 1594 3943 1510 4000 1427 4000 
C 1376 4000 1229 3981 1178 3775 
L 928 2752 
L 326 2752 
C 198 2752 141 2752 141 2630 
C 141 2566 186 2566 307 2566 
L 877 2566 
L 454 881 
C 403 658 384 594 384 511 
C 384 211 595 -64 954 -64 
C 1600 -64 1946 868 1946 912 
C 1946 951 1920 970 1882 970 
C 1869 970 1843 970 1830 944 
C 1824 938 1818 931 1773 829 
C 1638 511 1344 64 973 64 
C 781 64 768 224 768 364 
C 768 370 768 492 787 568 
L 1286 2566 
z
" transform="scale(0.015625)"/>
       <path id="CMMI12-3d" d="M 2746 4562 
C 2746 4569 2784 4666 2784 4678 
C 2784 4755 2720 4800 2669 4800 
C 2637 4800 2579 4800 2528 4659 
L 384 -1363 
C 384 -1370 346 -1465 346 -1478 
C 346 -1555 410 -1600 461 -1600 
C 499 -1600 557 -1593 602 -1459 
L 2746 4562 
z
" transform="scale(0.015625)"/>
       <path id="CMR17-73" d="M 1978 2697 
C 1978 2813 1971 2819 1933 2819 
C 1907 2819 1901 2813 1824 2717 
C 1805 2691 1747 2626 1728 2601 
C 1523 2819 1235 2819 1126 2819 
C 416 2819 160 2447 160 2076 
C 160 1498 813 1365 998 1325 
C 1402 1243 1542 1217 1677 1101 
C 1760 1025 1901 884 1901 654 
C 1901 384 1747 38 1158 38 
C 602 38 403 460 288 1021 
C 269 1110 269 1117 218 1117 
C 166 1117 160 1110 160 983 
L 160 63 
C 160 -51 166 -58 205 -58 
C 237 -58 243 -51 275 0 
C 314 57 410 211 448 276 
C 576 103 800 -64 1158 -64 
C 1792 -64 2131 283 2131 784 
C 2131 1112 1958 1285 1875 1362 
C 1683 1561 1459 1606 1190 1657 
C 838 1735 390 1825 390 2217 
C 390 2383 480 2737 1126 2737 
C 1811 2737 1850 2094 1862 1888 
C 1869 1856 1901 1849 1920 1849 
C 1978 1849 1978 1869 1978 1978 
L 1978 2697 
z
" transform="scale(0.015625)"/>
      </defs>
      <use xlink:href="#CMMI12-74" transform="scale(0.996264)"/>
      <use xlink:href="#CMMI12-3d" transform="translate(35.22633 0) scale(0.996264)"/>
      <use xlink:href="#CMR17-73" transform="translate(84.001249 0) scale(0.996264)"/>
     </g>
    </g>
   </g>
   <g id="matplotlib.axis_2">
    <g id="text_2">
     <!-- $s / \mathrm{m}$ -->
     <g transform="translate(138.504425 12.68132) scale(0.2 -0.2)">
      <defs>
       <path id="CMMI12-73" d="M 1459 1280 
C 1568 1261 1741 1223 1779 1216 
C 1862 1192 2150 1090 2150 783 
C 2150 586 1971 70 1229 70 
C 1094 70 614 70 486 436 
C 742 404 870 603 870 745 
C 870 880 781 950 653 950 
C 512 950 326 841 326 552 
C 326 173 710 -64 1222 -64 
C 2195 -64 2483 651 2483 984 
C 2483 1079 2483 1258 2278 1462 
C 2118 1616 1965 1648 1619 1718 
C 1446 1756 1171 1814 1171 2101 
C 1171 2229 1286 2689 1894 2689 
C 2163 2689 2426 2589 2490 2368 
C 2208 2368 2195 2125 2195 2119 
C 2195 1984 2317 1946 2374 1946 
C 2464 1946 2643 2015 2643 2281 
C 2643 2545 2400 2816 1901 2816 
C 1062 2816 838 2160 838 1899 
C 838 1414 1312 1312 1459 1280 
z
" transform="scale(0.015625)"/>
       <path id="CMR17-6d" d="M 4326 1933 
C 4326 2252 4269 2790 3507 2790 
C 3072 2790 2771 2496 2656 2151 
L 2650 2151 
C 2573 2676 2195 2790 1837 2790 
C 1331 2790 1069 2400 973 2144 
L 966 2144 
L 966 2790 
L 211 2720 
L 211 2554 
C 589 2554 646 2515 646 2208 
L 646 428 
C 646 184 621 153 211 153 
L 211 -13 
C 365 0 646 0 813 0 
C 979 0 1267 0 1421 -13 
L 1421 153 
C 1011 153 986 178 986 428 
L 986 1658 
C 986 2247 1344 2688 1792 2688 
C 2266 2688 2317 2266 2317 1958 
L 2317 428 
C 2317 184 2291 153 1882 153 
L 1882 -13 
C 2035 0 2317 0 2483 0 
C 2650 0 2938 0 3091 -13 
L 3091 153 
C 2682 153 2656 178 2656 428 
L 2656 1658 
C 2656 2247 3014 2688 3462 2688 
C 3936 2688 3987 2266 3987 1958 
L 3987 428 
C 3987 184 3962 153 3552 153 
L 3552 -13 
C 3706 0 3987 0 4154 0 
C 4320 0 4608 0 4762 -13 
L 4762 153 
C 4352 153 4326 178 4326 428 
L 4326 1933 
z
" transform="scale(0.015625)"/>
      </defs>
      <use xlink:href="#CMMI12-73" transform="scale(0.996264)"/>
      <use xlink:href="#CMMI12-3d" transform="translate(45.950048 0) scale(0.996264)"/>
      <use xlink:href="#CMR17-6d" transform="translate(94.724966 0) scale(0.996264)"/>
     </g>
    </g>
   </g>
   <g id="line2d_1">
    <defs>
     <path id="mea6fe3b373" d="M 3 0 
L -3 -3 
L -3 3 
z
" style="stroke: #000000; stroke-linejoin: miter"/>
    </defs>
    <g>
     <use xlink:href="#mea6fe3b373" x="443.4" y="227.51843" style="stroke: #000000; stroke-linejoin: miter"/>
    </g>
   </g>
   <g id="line2d_2">
    <defs>
     <path id="m47b54953de" d="M 0 -3 
L -3 3 
L 3 3 
z
" style="stroke: #000000; stroke-linejoin: miter"/>
    </defs>
    <g>
     <use xlink:href="#m47b54953de" x="176.833333" y="17.66264" style="stroke: #000000; stroke-linejoin: miter"/>
    </g>
   </g>
   <g id="line2d_3">
    <path d="M 176.833333 175.054483 
L 249.533333 96.358561 
L 249.533333 96.358561 
" clip-path="url(#p750bc62c1c)" style="fill: none; stroke: #0072b2; stroke-width: 2.5; stroke-linecap: square"/>
   </g>
   <g id="line2d_4">
    <path d="M 249.533333 96.358561 
L 298 96.358561 
L 298 96.358561 
" clip-path="url(#p750bc62c1c)" style="fill: none; stroke: #0072b2; stroke-width: 2.5; stroke-linecap: square"/>
   </g>
   <g id="line2d_5">
    <path d="M 298 96.358561 
L 346.466667 306.214351 
L 346.466667 306.214351 
" clip-path="url(#p750bc62c1c)" style="fill: none; stroke: #0072b2; stroke-width: 2.5; stroke-linecap: square"/>
   </g>
   <g id="line2d_6">
    <path d="M 346.466667 306.214351 
L 394.933333 306.214351 
L 394.933333 306.214351 
" clip-path="url(#p750bc62c1c)" style="fill: none; stroke: #0072b2; stroke-width: 2.5; stroke-linecap: square"/>
   </g>
   <g id="line2d_7">
    <defs>
     <path id="m392d66cdd0" d="M 0 5 
C 1.326016 5 2.597899 4.473168 3.535534 3.535534 
C 4.473168 2.597899 5 1.326016 5 0 
C 5 -1.326016 4.473168 -2.597899 3.535534 -3.535534 
C 2.597899 -4.473168 1.326016 -5 0 -5 
C -1.326016 -5 -2.597899 -4.473168 -3.535534 -3.535534 
C -4.473168 -2.597899 -5 -1.326016 -5 0 
C -5 1.326016 -4.473168 2.597899 -3.535534 3.535534 
C -2.597899 4.473168 -1.326016 5 0 5 
z
" style="stroke: #000000; stroke-opacity: 0.8"/>
    </defs>
    <g clip-path="url(#p750bc62c1c)">
     <use xlink:href="#m392d66cdd0" x="176.833333" y="175.054483" style="fill-opacity: 0.8; stroke: #000000; stroke-opacity: 0.8"/>
    </g>
   </g>
   <g id="patch_3">
    <path d="M 176.833333 332.446325 
L 176.833333 17.66264 
" style="fill: none; stroke: #000000; stroke-width: 0.8; stroke-linejoin: miter; stroke-linecap: square"/>
   </g>
   <g id="patch_4">
    <path d="M 443.4 332.446325 
L 443.4 17.66264 
" style="fill: none"/>
   </g>
   <g id="patch_5">
    <path d="M 7.2 227.51843 
L 443.4 227.51843 
" style="fill: none; stroke: #000000; stroke-width: 0.8; stroke-linejoin: miter; stroke-linecap: square"/>
   </g>
   <g id="patch_6">
    <path d="M 7.2 17.66264 
L 443.4 17.66264 
" style="fill: none"/>
   </g>
   <g id="patch_7">
    <path d="M 119.008212 89.72449 
Q 124.823197 144.283581 173.182554 172.908362 
" style="fill: none; opacity: 0.7; stroke: #000000; stroke-width: 2; stroke-linecap: round"/>
    <path d="M 168.335678 165.391196 
L 173.182554 172.908362 
L 164.260695 172.275564 
" style="fill: none; opacity: 0.7; stroke: #000000; stroke-width: 2; stroke-linecap: round"/>
   </g>
   <g id="text_3">
    <g id="patch_8">
     <path d="M 67.783333 86.982903 
L 168.869546 86.982903 
Q 176.869546 86.982903 176.869546 78.982903 
L 176.869546 61.270272 
Q 176.869546 53.270272 168.869546 53.270272 
L 67.783333 53.270272 
Q 59.783333 53.270272 59.783333 61.270272 
L 59.783333 78.982903 
Q 59.783333 86.982903 67.783333 86.982903 
z
" style="fill: #ffffff; stroke: #000000; stroke-width: 1.5; stroke-linejoin: miter"/>
    </g>
    <!-- Startposisjon -->
    <g transform="translate(67.783333 75.107269) scale(0.2 -0.2)">
     <defs>
      <path id="CMSS17-53" d="M 2797 4169 
C 2515 4334 2208 4480 1690 4480 
C 864 4480 333 3879 333 3266 
C 333 3025 403 2753 653 2475 
C 902 2196 1184 2121 1542 2033 
C 1690 1994 1939 1924 1984 1906 
C 2342 1767 2515 1444 2515 1140 
C 2515 742 2202 318 1645 318 
C 1453 318 890 318 358 819 
L 269 318 
C 794 -64 1363 -128 1651 -128 
C 2438 -128 3002 488 3002 1186 
C 3002 1440 2925 1763 2656 2061 
C 2394 2347 2163 2410 1638 2549 
C 1338 2626 1146 2677 986 2873 
C 877 3013 819 3146 819 3317 
C 819 3673 1126 4060 1690 4060 
C 1971 4060 2336 4002 2707 3660 
L 2797 4169 
z
" transform="scale(0.015625)"/>
      <path id="CMSS17-74" d="M 1069 2368 
L 1901 2368 
L 1901 2737 
L 1069 2737 
L 1069 3520 
L 614 3520 
L 614 2737 
L 109 2737 
L 109 2368 
L 602 2368 
L 602 749 
C 602 384 685 -64 1107 -64 
C 1427 -64 1722 25 2003 172 
L 1901 548 
C 1747 414 1562 337 1363 337 
C 1082 337 1069 696 1069 856 
L 1069 2368 
z
" transform="scale(0.015625)"/>
      <path id="CMSS17-61" d="M 2406 1791 
C 2406 2392 1978 2808 1402 2808 
C 1120 2808 813 2757 461 2553 
L 499 2135 
C 659 2248 934 2432 1395 2432 
C 1722 2432 1920 2180 1920 1782 
L 1920 1536 
C 896 1536 256 1238 256 726 
C 256 461 416 -64 947 -64 
C 1043 -64 1562 -64 1933 217 
L 1933 -19 
L 2406 -19 
L 2406 1791 
z
M 1920 816 
C 1920 701 1920 548 1728 434 
C 1562 325 1350 325 1261 325 
C 941 325 723 511 723 744 
C 723 1211 1722 1211 1920 1211 
L 1920 816 
z
" transform="scale(0.015625)"/>
      <path id="CMSS17-72" d="M 954 1363 
C 954 1965 1395 2368 1958 2368 
L 1958 2789 
C 1549 2789 1165 2585 934 2253 
L 934 2758 
L 480 2758 
L 480 0 
L 954 0 
L 954 1363 
z
" transform="scale(0.015625)"/>
      <path id="CMSS17-70" d="M 966 333 
C 1178 129 1466 -5 1773 -5 
C 2368 -5 2880 603 2880 1412 
C 2880 2159 2496 2816 1946 2816 
C 1626 2816 1242 2702 954 2472 
L 954 2765 
L 480 2765 
L 480 -1216 
L 966 -1216 
L 966 333 
z
M 966 2100 
C 1018 2176 1235 2415 1587 2415 
C 2035 2415 2394 1960 2394 1412 
C 2394 787 1958 384 1530 384 
C 1402 384 1267 415 1139 523 
C 966 674 966 768 966 857 
L 966 2100 
z
" transform="scale(0.015625)"/>
      <path id="CMSS17-6f" d="M 2829 1356 
C 2829 2176 2221 2816 1504 2816 
C 768 2816 173 2157 173 1356 
C 173 544 787 -64 1498 -64 
C 2227 -64 2829 563 2829 1356 
z
M 1504 337 
C 1050 337 659 709 659 1408 
C 659 2151 1114 2427 1498 2427 
C 1914 2427 2342 2126 2342 1408 
C 2342 683 1926 337 1504 337 
z
" transform="scale(0.015625)"/>
      <path id="CMSS17-73" d="M 2061 2627 
C 1683 2807 1389 2807 1197 2807 
C 742 2807 198 2648 198 2003 
C 198 1359 902 1218 1094 1179 
C 1389 1122 1715 1058 1715 740 
C 1715 337 1254 337 1171 337 
C 915 337 563 407 243 638 
L 166 210 
C 531 0 883 -64 1178 -64 
C 1965 -64 2163 416 2163 781 
C 2163 1094 1984 1305 1862 1401 
C 1651 1568 1574 1587 1050 1696 
C 960 1709 646 1779 646 2066 
C 646 2432 1050 2432 1139 2432 
C 1555 2432 1811 2303 1984 2208 
L 2061 2627 
z
" transform="scale(0.015625)"/>
      <path id="CMSS17-69" d="M 979 4183 
L 442 4183 
L 442 3648 
L 979 3648 
L 979 4183 
z
M 947 2739 
L 474 2739 
L 474 0 
L 947 0 
L 947 2739 
z
" transform="scale(0.015625)"/>
      <path id="CMSS17-6a" d="M 1114 4224 
L 576 4224 
L 576 3689 
L 1114 3689 
L 1114 4224 
z
M -371 -1064 
C -166 -1191 83 -1280 352 -1280 
C 755 -1280 1114 -935 1114 -366 
L 1114 2767 
L 640 2767 
L 640 -425 
C 640 -815 346 -873 179 -873 
C 38 -873 -128 -828 -275 -675 
L -371 -1064 
z
" transform="scale(0.015625)"/>
      <path id="CMSS17-6e" d="M 2618 1877 
C 2618 2283 2522 2816 1798 2816 
C 1389 2816 1120 2606 941 2389 
L 941 2758 
L 474 2758 
L 474 0 
L 960 0 
L 960 1559 
C 960 1964 1114 2428 1549 2428 
C 2112 2428 2131 2048 2131 1829 
L 2131 0 
L 2618 0 
L 2618 1877 
z
" transform="scale(0.015625)"/>
     </defs>
     <use xlink:href="#CMSS17-53" transform="scale(0.996264)"/>
     <use xlink:href="#CMSS17-74" transform="translate(52.048516 0) scale(0.996264)"/>
     <use xlink:href="#CMSS17-61" transform="translate(85.880083 0) scale(0.996264)"/>
     <use xlink:href="#CMSS17-72" transform="translate(128.19955 0) scale(0.996264)"/>
     <use xlink:href="#CMSS17-74" transform="translate(160.109322 0) scale(0.996264)"/>
     <use xlink:href="#CMSS17-70" transform="translate(193.940889 0) scale(0.996264)"/>
     <use xlink:href="#CMSS17-6f" transform="translate(244.748271 0) scale(0.996264)"/>
     <use xlink:href="#CMSS17-73" transform="translate(291.591894 0) scale(0.996264)"/>
     <use xlink:href="#CMSS17-69" transform="translate(327.505436 0) scale(0.996264)"/>
     <use xlink:href="#CMSS17-73" transform="translate(349.686159 0) scale(0.996264)"/>
     <use xlink:href="#CMSS17-6a" transform="translate(385.599701 0) scale(0.996264)"/>
     <use xlink:href="#CMSS17-6f" transform="translate(410.382787 0) scale(0.996264)"/>
     <use xlink:href="#CMSS17-6e" transform="translate(457.22641 0) scale(0.996264)"/>
    </g>
   </g>
   <g id="patch_9">
    <path d="M 229.002293 76.378084 
Q 218.808562 96.211032 224.268491 118.479456 
" style="fill: none; opacity: 0.7; stroke: #000000; stroke-width: 2; stroke-linecap: round"/>
    <path d="M 226.248352 109.757062 
L 224.268491 118.479456 
L 218.478493 111.662131 
" style="fill: none; opacity: 0.7; stroke: #000000; stroke-width: 2; stroke-linecap: round"/>
   </g>
   <g id="text_4">
    <g id="patch_10">
     <path d="M 201.066667 73.866916 
L 286.866621 73.866916 
Q 294.866621 73.866916 294.866621 65.866916 
L 294.866621 48.154286 
Q 294.866621 40.154286 286.866621 40.154286 
L 201.066667 40.154286 
Q 193.066667 40.154286 193.066667 48.154286 
L 193.066667 65.866916 
Q 193.066667 73.866916 201.066667 73.866916 
z
" style="fill: #ffffff; stroke: #000000; stroke-width: 1.5; stroke-linejoin: miter"/>
    </g>
    <!-- Positiv fart -->
    <g transform="translate(201.066667 61.991282) scale(0.2 -0.2)">
     <defs>
      <path id="CMSS17-50" d="M 2106 1856 
C 2874 1856 3501 2453 3501 3158 
C 3501 3850 2899 4453 2067 4453 
L 570 4453 
L 570 0 
L 1107 0 
L 1107 1856 
L 2106 1856 
z
M 1926 4096 
C 2669 4096 2995 3627 2995 3157 
C 2995 2720 2694 2226 1926 2226 
L 1094 2226 
L 1094 4096 
L 1926 4096 
z
" transform="scale(0.015625)"/>
      <path id="CMSS17-76" d="M 2675 2752 
L 2176 2752 
L 1747 1556 
C 1613 1165 1421 627 1389 352 
L 1382 352 
C 1370 468 1318 634 1286 749 
C 1248 890 1197 1056 1158 1172 
L 595 2752 
L 83 2752 
L 1094 0 
L 1664 0 
L 2675 2752 
z
" transform="scale(0.015625)"/>
      <path id="CMSS17-66" d="M 1075 2368 
L 1722 2368 
L 1722 2737 
L 1062 2737 
L 1062 3559 
C 1062 4014 1408 4092 1606 4092 
C 1670 4092 1850 4092 2080 4009 
L 2080 4429 
C 1933 4461 1754 4480 1613 4480 
C 1018 4480 602 3993 602 3359 
L 602 2737 
L 160 2737 
L 160 2368 
L 602 2368 
L 602 0 
L 1075 0 
L 1075 2368 
z
" transform="scale(0.015625)"/>
     </defs>
     <use xlink:href="#CMSS17-50" transform="scale(0.996264)"/>
     <use xlink:href="#CMSS17-6f" transform="translate(57.133132 0) scale(0.996264)"/>
     <use xlink:href="#CMSS17-73" transform="translate(103.976756 0) scale(0.996264)"/>
     <use xlink:href="#CMSS17-69" transform="translate(139.890298 0) scale(0.996264)"/>
     <use xlink:href="#CMSS17-74" transform="translate(162.071021 0) scale(0.996264)"/>
     <use xlink:href="#CMSS17-69" transform="translate(195.902588 0) scale(0.996264)"/>
     <use xlink:href="#CMSS17-76" transform="translate(218.083311 0) scale(0.996264)"/>
     <use xlink:href="#CMSS17-66" transform="translate(292.312565 0) scale(0.996264)"/>
     <use xlink:href="#CMSS17-61" transform="translate(320.939224 0) scale(0.996264)"/>
     <use xlink:href="#CMSS17-72" transform="translate(363.258691 0) scale(0.996264)"/>
     <use xlink:href="#CMSS17-74" transform="translate(395.168463 0) scale(0.996264)"/>
    </g>
   </g>
   <g id="patch_11">
    <path d="M 311.520106 70.621086 
Q 290.024149 75.079752 276.321984 92.982052 
" style="fill: none; opacity: 0.7; stroke: #000000; stroke-width: 2; stroke-linecap: round"/>
    <path d="M 284.360699 89.060437 
L 276.321984 92.982052 
L 278.007921 84.198111 
" style="fill: none; opacity: 0.7; stroke: #000000; stroke-width: 2; stroke-linecap: round"/>
   </g>
   <g id="text_5">
    <g id="patch_12">
     <path d="M 322.233333 86.982903 
L 349.386605 86.982903 
Q 357.386605 86.982903 357.386605 78.982903 
L 357.386605 61.270272 
Q 357.386605 53.270272 349.386605 53.270272 
L 322.233333 53.270272 
Q 314.233333 53.270272 314.233333 61.270272 
L 314.233333 78.982903 
Q 314.233333 86.982903 322.233333 86.982903 
z
" style="fill: #ffffff; stroke: #000000; stroke-width: 1.5; stroke-linejoin: miter"/>
    </g>
    <!-- I ro -->
    <g transform="translate(322.233333 75.107269) scale(0.2 -0.2)">
     <defs>
      <path id="CMSS17-49" d="M 1094 4416 
L 557 4416 
L 557 0 
L 1094 0 
L 1094 4416 
z
" transform="scale(0.015625)"/>
     </defs>
     <use xlink:href="#CMSS17-49" transform="scale(0.996264)"/>
     <use xlink:href="#CMSS17-72" transform="translate(57.013038 0) scale(0.996264)"/>
     <use xlink:href="#CMSS17-6f" transform="translate(88.922811 0) scale(0.996264)"/>
    </g>
   </g>
   <g id="patch_13">
    <path d="M 335.964002 138.144249 
Q 323.903279 140.873062 313.780981 146.69383 
" style="fill: none; opacity: 0.7; stroke: #000000; stroke-width: 2; stroke-linecap: round"/>
    <path d="M 322.710099 146.17339 
L 313.780981 146.69383 
L 318.722099 139.238272 
" style="fill: none; opacity: 0.7; stroke: #000000; stroke-width: 2; stroke-linecap: round"/>
   </g>
   <g id="text_6">
    <g id="patch_14">
     <path d="M 346.466667 165.678824 
L 439.745594 165.678824 
Q 447.745594 165.678824 447.745594 157.678824 
L 447.745594 139.966194 
Q 447.745594 131.966194 439.745594 131.966194 
L 346.466667 131.966194 
Q 338.466667 131.966194 338.466667 139.966194 
L 338.466667 157.678824 
Q 338.466667 165.678824 346.466667 165.678824 
z
" style="fill: #ffffff; stroke: #000000; stroke-width: 1.5; stroke-linejoin: miter"/>
    </g>
    <!-- Negativ fart -->
    <g transform="translate(346.466667 153.80319) scale(0.2 -0.2)">
     <defs>
      <path id="CMSS17-4e" d="M 1466 4180 
L 1350 4416 
L 563 4416 
L 563 0 
L 1062 0 
L 1062 3926 
L 1069 3932 
C 1114 3817 1139 3760 1402 3194 
L 2771 236 
L 2886 0 
L 3674 0 
L 3674 4416 
L 3174 4416 
L 3174 490 
L 3168 483 
C 3123 598 3098 655 2835 1221 
L 1466 4180 
z
" transform="scale(0.015625)"/>
      <path id="CMSS17-65" d="M 2502 1377 
C 2502 1590 2490 2003 2285 2345 
C 2061 2713 1696 2816 1421 2816 
C 755 2816 192 2188 192 1375 
C 192 582 774 -64 1510 -64 
C 1798 -64 2150 19 2470 248 
C 2470 274 2458 414 2451 420 
C 2451 433 2432 630 2432 656 
C 2125 407 1773 325 1517 325 
C 1107 325 666 667 646 1377 
L 2502 1377 
z
M 698 1728 
C 781 2084 1062 2421 1421 2421 
C 1517 2421 1965 2421 2080 1728 
L 698 1728 
z
" transform="scale(0.015625)"/>
      <path id="CMSS17-67" d="M 2848 2808 
C 2483 2808 2170 2738 1914 2617 
C 1702 2777 1485 2808 1338 2808 
C 781 2808 358 2349 358 1814 
C 358 1468 550 1207 563 1195 
C 448 1035 384 863 384 672 
C 384 448 474 289 544 200 
C 211 -3 166 -314 166 -435 
C 166 -898 749 -1280 1498 -1280 
C 2253 -1280 2835 -898 2835 -428 
C 2835 448 1856 448 1587 448 
L 1069 448 
C 973 448 717 448 717 791 
C 717 921 774 1004 781 1010 
C 877 940 1075 832 1338 832 
C 1869 832 2310 1278 2310 1827 
C 2310 2132 2170 2355 2112 2432 
L 2131 2432 
C 2150 2432 2419 2432 2515 2432 
C 2720 2432 2739 2429 2918 2419 
L 2848 2808 
z
M 1338 1182 
C 1120 1182 813 1315 813 1823 
C 813 2375 1165 2464 1331 2464 
C 1549 2464 1856 2331 1856 1823 
C 1856 1271 1504 1182 1338 1182 
z
M 1581 -10 
C 1734 -10 2381 -10 2381 -442 
C 2381 -714 1984 -929 1504 -929 
C 1018 -929 621 -720 621 -435 
C 621 -403 621 -10 1062 -10 
L 1581 -10 
z
" transform="scale(0.015625)"/>
     </defs>
     <use xlink:href="#CMSS17-4e" transform="scale(0.996264)"/>
     <use xlink:href="#CMSS17-65" transform="translate(66.061519 0) scale(0.996264)"/>
     <use xlink:href="#CMSS17-67" transform="translate(107.700341 0) scale(0.996264)"/>
     <use xlink:href="#CMSS17-61" transform="translate(154.543965 0) scale(0.996264)"/>
     <use xlink:href="#CMSS17-74" transform="translate(199.465885 0) scale(0.996264)"/>
     <use xlink:href="#CMSS17-69" transform="translate(233.297452 0) scale(0.996264)"/>
     <use xlink:href="#CMSS17-76" transform="translate(255.478175 0) scale(0.996264)"/>
     <use xlink:href="#CMSS17-66" transform="translate(329.70743 0) scale(0.996264)"/>
     <use xlink:href="#CMSS17-61" transform="translate(358.334088 0) scale(0.996264)"/>
     <use xlink:href="#CMSS17-72" transform="translate(400.653555 0) scale(0.996264)"/>
     <use xlink:href="#CMSS17-74" transform="translate(432.563328 0) scale(0.996264)"/>
    </g>
   </g>
   <g id="text_7">
    <g id="patch_15">
     <path d="M 22.024958 215.31981 
L 142.7855 215.31981 
Q 150.7855 215.31981 150.7855 207.31981 
L 150.7855 189.60718 
Q 150.7855 181.60718 142.7855 181.60718 
L 22.024958 181.60718 
Q 14.024958 181.60718 14.024958 189.60718 
L 14.024958 207.31981 
Q 14.024958 215.31981 22.024958 215.31981 
z
" style="fill: #ffffff; opacity: 0.7; stroke: #000000; stroke-width: 1.5; stroke-linejoin: miter"/>
    </g>
    <!-- Positiv posisjon -->
    <g transform="translate(22.024958 203.444177) scale(0.2 -0.2)">
     <use xlink:href="#CMSS17-50" transform="scale(0.996264)"/>
     <use xlink:href="#CMSS17-6f" transform="translate(57.133132 0) scale(0.996264)"/>
     <use xlink:href="#CMSS17-73" transform="translate(103.976756 0) scale(0.996264)"/>
     <use xlink:href="#CMSS17-69" transform="translate(139.890298 0) scale(0.996264)"/>
     <use xlink:href="#CMSS17-74" transform="translate(162.071021 0) scale(0.996264)"/>
     <use xlink:href="#CMSS17-69" transform="translate(195.902588 0) scale(0.996264)"/>
     <use xlink:href="#CMSS17-76" transform="translate(218.083311 0) scale(0.996264)"/>
     <use xlink:href="#CMSS17-70" transform="translate(292.312565 0) scale(0.996264)"/>
     <use xlink:href="#CMSS17-6f" transform="translate(343.119947 0) scale(0.996264)"/>
     <use xlink:href="#CMSS17-73" transform="translate(389.96357 0) scale(0.996264)"/>
     <use xlink:href="#CMSS17-69" transform="translate(425.877112 0) scale(0.996264)"/>
     <use xlink:href="#CMSS17-73" transform="translate(448.057835 0) scale(0.996264)"/>
     <use xlink:href="#CMSS17-6a" transform="translate(483.971377 0) scale(0.996264)"/>
     <use xlink:href="#CMSS17-6f" transform="translate(508.754463 0) scale(0.996264)"/>
     <use xlink:href="#CMSS17-6e" transform="translate(555.598087 0) scale(0.996264)"/>
    </g>
   </g>
   <g id="text_8">
    <g id="patch_16">
     <path d="M 24.239318 280.899745 
L 152.478833 280.899745 
Q 160.478833 280.899745 160.478833 272.899745 
L 160.478833 255.187114 
Q 160.478833 247.187114 152.478833 247.187114 
L 24.239318 247.187114 
Q 16.239318 247.187114 16.239318 255.187114 
L 16.239318 272.899745 
Q 16.239318 280.899745 24.239318 280.899745 
z
" style="fill: #ffffff; opacity: 0.7; stroke: #000000; stroke-width: 1.5; stroke-linejoin: miter"/>
    </g>
    <!-- Negativ posisjon -->
    <g transform="translate(24.239318 269.024111) scale(0.2 -0.2)">
     <use xlink:href="#CMSS17-4e" transform="scale(0.996264)"/>
     <use xlink:href="#CMSS17-65" transform="translate(66.061519 0) scale(0.996264)"/>
     <use xlink:href="#CMSS17-67" transform="translate(107.700341 0) scale(0.996264)"/>
     <use xlink:href="#CMSS17-61" transform="translate(154.543965 0) scale(0.996264)"/>
     <use xlink:href="#CMSS17-74" transform="translate(199.465885 0) scale(0.996264)"/>
     <use xlink:href="#CMSS17-69" transform="translate(233.297452 0) scale(0.996264)"/>
     <use xlink:href="#CMSS17-76" transform="translate(255.478175 0) scale(0.996264)"/>
     <use xlink:href="#CMSS17-70" transform="translate(329.70743 0) scale(0.996264)"/>
     <use xlink:href="#CMSS17-6f" transform="translate(380.514811 0) scale(0.996264)"/>
     <use xlink:href="#CMSS17-73" transform="translate(427.358435 0) scale(0.996264)"/>
     <use xlink:href="#CMSS17-69" transform="translate(463.271977 0) scale(0.996264)"/>
     <use xlink:href="#CMSS17-73" transform="translate(485.4527 0) scale(0.996264)"/>
     <use xlink:href="#CMSS17-6a" transform="translate(521.366242 0) scale(0.996264)"/>
     <use xlink:href="#CMSS17-6f" transform="translate(546.149328 0) scale(0.996264)"/>
     <use xlink:href="#CMSS17-6e" transform="translate(592.992951 0) scale(0.996264)"/>
    </g>
   </g>
  </g>
 </g>
 <defs>
  <clipPath id="p750bc62c1c">
   <rect x="7.2" y="17.66264" width="436.2" height="314.783685"/>
  </clipPath>
 </defs>
</svg>
