<?xml version="1.0" encoding="utf-8" standalone="no"?>
<!DOCTYPE svg PUBLIC "-//W3C//DTD SVG 1.1//EN"
  "http://www.w3.org/Graphics/SVG/1.1/DTD/svg11.dtd">
<svg xmlns:xlink="http://www.w3.org/1999/xlink" width="460.8pt" height="345.6pt" viewBox="0 0 460.8 345.6" xmlns="http://www.w3.org/2000/svg" version="1.1">
 <metadata>
  <rdf:RDF xmlns:dc="http://purl.org/dc/elements/1.1/" xmlns:cc="http://creativecommons.org/ns#" xmlns:rdf="http://www.w3.org/1999/02/22-rdf-syntax-ns#">
   <cc:Work>
    <dc:type rdf:resource="http://purl.org/dc/dcmitype/StillImage"/>
    <dc:date>2026-03-30T18:43:25.424190</dc:date>
    <dc:format>image/svg+xml</dc:format>
    <dc:creator>
     <cc:Agent>
      <dc:title>Matplotlib v3.10.8, https://matplotlib.org/</dc:title>
     </cc:Agent>
    </dc:creator>
   </cc:Work>
  </rdf:RDF>
 </metadata>
 <defs>
  <style type="text/css">*{stroke-linejoin: round; stroke-linecap: butt}</style>
 </defs>
 <g id="figure_1">
  <g id="patch_1">
   <path d="M 0 345.6 
L 460.8 345.6 
L 460.8 0 
L 0 0 
L 0 345.6 
z
" style="fill: none"/>
  </g>
  <g id="axes_1">
   <g id="patch_2">
    <path d="M 10.8 334.8 
L 447 334.8 
L 447 20.016315 
L 10.8 20.016315 
L 10.8 334.8 
z
" style="fill: none"/>
   </g>
   <g id="matplotlib.axis_1">
    <g id="text_1">
     <!-- $x$ -->
     <g transform="translate(435.913188 234.593115) scale(0.2 -0.2)">
      <defs>
       <path id="CMMI12-78" d="M 3034 2606 
C 2829 2567 2752 2414 2752 2293 
C 2752 2139 2874 2088 2963 2088 
C 3155 2088 3290 2254 3290 2427 
C 3290 2695 2982 2816 2714 2816 
C 2323 2816 2106 2433 2048 2312 
C 1901 2816 1504 2816 1389 2816 
C 736 2816 390 1980 390 1839 
C 390 1814 416 1782 461 1782 
C 512 1782 525 1820 538 1846 
C 755 2555 1184 2689 1370 2689 
C 1658 2689 1715 2420 1715 2267 
C 1715 2127 1677 1980 1600 1673 
L 1382 798 
C 1286 415 1101 64 762 64 
C 730 64 570 64 435 147 
C 666 192 717 383 717 460 
C 717 588 621 664 499 664 
C 346 664 179 530 179 326 
C 179 57 480 -64 755 -64 
C 1062 -64 1280 179 1414 441 
C 1517 64 1837 -64 2074 -64 
C 2726 -64 3072 773 3072 913 
C 3072 945 3046 971 3008 971 
C 2950 971 2944 939 2925 888 
C 2752 326 2381 64 2093 64 
C 1869 64 1747 230 1747 492 
C 1747 632 1773 734 1875 1156 
L 2099 2024 
C 2195 2408 2413 2689 2707 2689 
C 2720 2689 2899 2689 3034 2606 
z
" transform="scale(0.015625)"/>
      </defs>
      <use xlink:href="#CMMI12-78" transform="scale(0.996264)"/>
     </g>
    </g>
   </g>
   <g id="matplotlib.axis_2">
    <g id="text_2">
     <!-- $y$ -->
     <g transform="translate(239.620499 16.140682) scale(0.2 -0.2)">
      <defs>
       <path id="CMMI12-79" d="M 1683 -700 
C 1510 -939 1261 -1152 947 -1152 
C 870 -1152 563 -1152 467 -889 
C 486 -895 518 -895 531 -895 
C 723 -895 851 -729 851 -582 
C 851 -435 730 -384 634 -384 
C 531 -384 307 -458 307 -759 
C 307 -1071 582 -1286 947 -1286 
C 1587 -1286 2234 -700 2413 6 
L 3040 2485 
C 3046 2517 3059 2556 3059 2594 
C 3059 2689 2982 2753 2886 2753 
C 2829 2753 2694 2727 2643 2535 
L 2170 658 
C 2138 543 2138 530 2086 460 
C 1958 281 1747 64 1440 64 
C 1082 64 1050 415 1050 588 
C 1050 952 1222 1443 1395 1903 
C 1466 2088 1504 2178 1504 2305 
C 1504 2574 1312 2816 998 2816 
C 410 2816 173 1890 173 1839 
C 173 1814 198 1782 243 1782 
C 301 1782 307 1807 333 1897 
C 486 2433 730 2689 979 2689 
C 1037 2689 1146 2689 1146 2478 
C 1146 2312 1075 2127 979 1884 
C 666 1047 666 837 666 683 
C 666 77 1101 -64 1421 -64 
C 1606 -64 1837 -6 2061 230 
L 2067 224 
C 1971 -147 1907 -392 1683 -700 
z
" transform="scale(0.015625)"/>
      </defs>
      <use xlink:href="#CMMI12-79" transform="scale(0.996264)"/>
     </g>
    </g>
   </g>
   <g id="line2d_1">
    <defs>
     <path id="m9aaa0ace9c" d="M 3 0 
L -3 -3 
L -3 3 
z
" style="stroke: #000000; stroke-linejoin: miter"/>
    </defs>
    <g>
     <use xlink:href="#m9aaa0ace9c" x="447" y="216.756118" style="stroke: #000000; stroke-linejoin: miter"/>
    </g>
   </g>
   <g id="line2d_2">
    <defs>
     <path id="m68736ead8d" d="M 0 -3 
L -3 3 
L 3 3 
z
" style="stroke: #000000; stroke-linejoin: miter"/>
    </defs>
    <g>
     <use xlink:href="#m68736ead8d" x="253.133333" y="20.016315" style="stroke: #000000; stroke-linejoin: miter"/>
    </g>
   </g>
   <g id="line2d_3">
    <path d="M 59.266667 226.593108 
L 63.863944 223.924524 
L 68.502639 221.488216 
L 73.224167 219.259483 
L 78.02853 217.237653 
L 82.936434 215.413611 
L 87.968589 213.780735 
L 93.166412 212.329023 
L 98.550611 211.057761 
L 104.162604 209.962952 
L 110.064514 209.040311 
L 116.339177 208.287208 
L 123.110843 207.70171 
L 130.607304 207.281222 
L 139.304857 207.023302 
L 150.756634 206.922612 
L 175.482533 206.764259 
L 184.262919 206.44174 
L 191.759381 205.947868 
L 198.510338 205.283019 
L 204.743584 204.448153 
L 210.604077 203.440827 
L 216.174653 202.259234 
L 221.517435 200.899632 
L 226.673841 199.358522 
L 231.664579 197.635831 
L 236.531067 195.721568 
L 241.294012 193.609381 
L 245.974124 191.290304 
L 250.571401 188.764222 
L 255.106554 186.019046 
L 259.600289 183.038923 
L 264.052607 179.819412 
L 268.484217 176.33973 
L 272.895119 172.592522 
L 277.285312 168.570734 
L 281.675505 164.246475 
L 286.065698 159.608779 
L 290.455891 154.646679 
L 294.866793 149.323409 
L 299.298403 143.622999 
L 303.730013 137.558354 
L 308.182331 131.0872 
L 312.676067 124.159877 
L 317.19051 116.788246 
L 321.725663 108.954612 
L 326.302232 100.6021 
L 330.89951 91.746879 
L 335.538204 82.326817 
L 340.218316 72.315755 
L 344.939844 61.686711 
L 349.702789 50.411871 
L 354.507152 38.462571 
L 359.352931 25.80928 
L 364.240127 12.421585 
L 368.919458 -1 
L 368.919458 -1 
" clip-path="url(#p82a949d3ce)" style="fill: none; stroke: #0072b2; stroke-width: 2.5; stroke-linecap: square"/>
   </g>
   <g id="patch_3">
    <path d="M 253.133333 334.8 
L 253.133333 20.016315 
" style="fill: none; stroke: #000000; stroke-width: 0.8; stroke-linejoin: miter; stroke-linecap: square"/>
   </g>
   <g id="patch_4">
    <path d="M 447 334.8 
L 447 20.016315 
" style="fill: none"/>
   </g>
   <g id="patch_5">
    <path d="M 10.8 216.756118 
L 447 216.756118 
" style="fill: none; stroke: #000000; stroke-width: 0.8; stroke-linejoin: miter; stroke-linecap: square"/>
   </g>
   <g id="patch_6">
    <path d="M 10.8 20.016315 
L 447 20.016315 
" style="fill: none"/>
   </g>
   <g id="legend_1">
    <g id="patch_7">
     <path d="M 24.8 63.891949 
L 98.142179 63.891949 
Q 102.142179 63.891949 102.142179 59.891949 
L 102.142179 34.016315 
Q 102.142179 30.016315 98.142179 30.016315 
L 24.8 30.016315 
Q 20.8 30.016315 20.8 34.016315 
L 20.8 59.891949 
Q 20.8 63.891949 24.8 63.891949 
z
" style="fill: #ffffff; opacity: 0.8; stroke: #cccccc; stroke-linejoin: miter"/>
    </g>
    <g id="line2d_4">
     <path d="M 28.8 45.016315 
L 48.8 45.016315 
L 68.8 45.016315 
" style="fill: none; stroke: #0072b2; stroke-width: 2.5; stroke-linecap: square"/>
    </g>
    <g id="text_3">
     <!-- $g$ -->
     <g transform="translate(84.8 52.016315) scale(0.2 -0.2)">
      <defs>
       <path id="CMMI12-67" d="M 2163 811 
C 2138 709 2125 683 2042 588 
C 1779 249 1510 128 1312 128 
C 1101 128 902 294 902 734 
C 902 1073 1094 1788 1235 2076 
C 1421 2433 1709 2689 1978 2689 
C 2400 2689 2483 2165 2483 2127 
L 2464 2037 
L 2163 811 
z
M 2560 2395 
C 2477 2580 2298 2816 1978 2816 
C 1280 2816 486 1941 486 990 
C 486 326 890 0 1299 0 
C 1638 0 1939 268 2054 396 
L 1914 -171 
C 1824 -516 1786 -674 1555 -894 
C 1293 -1152 1050 -1152 909 -1152 
C 717 -1152 557 -1139 397 -1089 
C 602 -1033 653 -858 653 -789 
C 653 -689 576 -588 435 -588 
C 282 -588 115 -714 115 -922 
C 115 -1180 378 -1280 922 -1280 
C 1747 -1280 2176 -753 2259 -410 
L 2970 2435 
C 2989 2511 2989 2524 2989 2536 
C 2989 2625 2918 2695 2822 2695 
C 2669 2695 2579 2567 2560 2395 
z
" transform="scale(0.015625)"/>
      </defs>
      <use xlink:href="#CMMI12-67" transform="scale(0.996264)"/>
     </g>
    </g>
   </g>
   <g id="line2d_5">
    <path d="M 63.946562 234.280669 
L 54.586772 218.905548 
" clip-path="url(#p82a949d3ce)" style="fill: none; stroke: #000000; stroke-width: 2"/>
   </g>
   <g id="line2d_6">
    <path d="M 54.586772 218.905548 
L 59.50681 215.910415 
" clip-path="url(#p82a949d3ce)" style="fill: none; stroke: #000000; stroke-width: 2"/>
   </g>
   <g id="line2d_7">
    <path d="M 63.946562 234.280669 
L 68.8666 231.285536 
" clip-path="url(#p82a949d3ce)" style="fill: none; stroke: #000000; stroke-width: 2"/>
   </g>
   <g id="line2d_8">
    <path clip-path="url(#p82a949d3ce)" style="fill: none; stroke: #000000; stroke-width: 2"/>
   </g>
   <g id="line2d_9">
    <path clip-path="url(#p82a949d3ce)" style="fill: none; stroke: #000000; stroke-width: 2"/>
   </g>
  </g>
 </g>
 <defs>
  <clipPath id="p82a949d3ce">
   <rect x="10.8" y="20.016315" width="436.2" height="314.783685"/>
  </clipPath>
 </defs>
</svg>
