<?xml version="1.0" encoding="utf-8" standalone="no"?>
<!DOCTYPE svg PUBLIC "-//W3C//DTD SVG 1.1//EN"
  "http://www.w3.org/Graphics/SVG/1.1/DTD/svg11.dtd">
<svg xmlns:xlink="http://www.w3.org/1999/xlink" width="460.8pt" height="345.6pt" viewBox="0 0 460.8 345.6" xmlns="http://www.w3.org/2000/svg" version="1.1">
 <metadata>
  <rdf:RDF xmlns:dc="http://purl.org/dc/elements/1.1/" xmlns:cc="http://creativecommons.org/ns#" xmlns:rdf="http://www.w3.org/1999/02/22-rdf-syntax-ns#">
   <cc:Work>
    <dc:type rdf:resource="http://purl.org/dc/dcmitype/StillImage"/>
    <dc:date>2025-10-11T17:17:08.697222</dc:date>
    <dc:format>image/svg+xml</dc:format>
    <dc:creator>
     <cc:Agent>
      <dc:title>Matplotlib v3.9.1, https://matplotlib.org/</dc:title>
     </cc:Agent>
    </dc:creator>
   </cc:Work>
  </rdf:RDF>
 </metadata>
 <defs>
  <style type="text/css">*{stroke-linejoin: round; stroke-linecap: butt}</style>
 </defs>
 <g id="figure_1">
  <g id="patch_1">
   <path d="M 0 345.6 
L 460.8 345.6 
L 460.8 0 
L 0 0 
L 0 345.6 
z
" style="fill: none"/>
  </g>
  <g id="axes_1">
   <g id="patch_2">
    <path d="M 19.44 326.16 
L 438.36 326.16 
L 438.36 29.88 
L 19.44 29.88 
L 19.44 326.16 
z
" style="fill: none"/>
   </g>
   <g id="matplotlib.axis_1">
    <g id="text_1">
     <!-- $x$ -->
     <g transform="translate(426.36 197.216875) scale(0.2 -0.2)">
      <defs>
       <path id="DejaVuSans-Oblique-78" d="M 3841 3500 
L 2234 1784 
L 3219 0 
L 2559 0 
L 1819 1388 
L 531 0 
L -166 0 
L 1556 1844 
L 641 3500 
L 1300 3500 
L 1972 2234 
L 3144 3500 
L 3841 3500 
z
" transform="scale(0.015625)"/>
      </defs>
      <use xlink:href="#DejaVuSans-Oblique-78" transform="translate(0 0.3125)"/>
     </g>
    </g>
   </g>
   <g id="matplotlib.axis_2">
    <g id="text_2">
     <!-- $y$ -->
     <g transform="translate(212.9 25.68) scale(0.2 -0.2)">
      <defs>
       <path id="DejaVuSans-Oblique-79" d="M 1588 -325 
Q 1188 -997 936 -1164 
Q 684 -1331 294 -1331 
L -159 -1331 
L -63 -850 
L 269 -850 
Q 509 -850 678 -719 
Q 847 -588 1056 -206 
L 1234 128 
L 459 3500 
L 1069 3500 
L 1650 819 
L 3256 3500 
L 3859 3500 
L 1588 -325 
z
" transform="scale(0.015625)"/>
      </defs>
      <use xlink:href="#DejaVuSans-Oblique-79" transform="translate(0 0.3125)"/>
     </g>
    </g>
   </g>
   <g id="line2d_1">
    <defs>
     <path id="m7fbb4e9b34" d="M 3 0 
L -3 -3 
L -3 3 
z
" style="stroke: #000000; stroke-linejoin: miter"/>
    </defs>
    <g>
     <use xlink:href="#m7fbb4e9b34" x="438.36" y="178.02" style="stroke: #000000; stroke-linejoin: miter"/>
    </g>
   </g>
   <g id="line2d_2">
    <defs>
     <path id="m4755533a31" d="M 0 -3 
L -3 3 
L 3 3 
z
" style="stroke: #000000; stroke-linejoin: miter"/>
    </defs>
    <g>
     <use xlink:href="#m4755533a31" x="228.9" y="29.88" style="stroke: #000000; stroke-linejoin: miter"/>
    </g>
   </g>
   <g id="line2d_3">
    <path d="M 19.269499 177.986313 
L 76.728205 177.814524 
L 104.860806 177.52197 
L 123.956874 177.111668 
L 138.449426 176.586767 
L 150.213968 175.944585 
L 160.103004 175.186911 
L 168.628034 174.315127 
L 176.130061 173.328574 
L 182.779585 172.236575 
L 188.917607 171.004243 
L 194.544127 169.645224 
L 199.659145 168.182583 
L 204.433162 166.587837 
L 208.866178 164.876373 
L 213.128694 162.989556 
L 217.050208 161.015344 
L 220.801221 158.884773 
L 224.381734 156.602482 
L 227.791746 154.17626 
L 231.201758 151.475189 
L 234.44127 148.626275 
L 237.680781 145.471603 
L 240.749792 142.171224 
L 243.818803 138.536189 
L 246.717314 134.765278 
L 249.615824 130.634225 
L 252.514335 126.108635 
L 255.412845 121.150827 
L 258.140855 116.052908 
L 260.868864 110.497997 
L 263.596874 104.445128 
L 266.324884 97.849662 
L 269.052894 90.662958 
L 271.780904 82.832018 
L 274.508913 74.29909 
L 277.236923 65.001245 
L 279.964933 54.869914 
L 282.692943 43.830381 
L 285.420952 31.801232 
L 288.148962 18.693755 
L 290.876972 4.411285 
L 291.852211 -1 
L 291.852211 -1 
" clip-path="url(#p90ce78a2c7)" style="fill: none; stroke: #0072b2; stroke-width: 2.5; stroke-linecap: square"/>
   </g>
   <g id="line2d_4">
    <path d="M 229.002335 309.093405 
L 229.258086 280.944529 
L 229.616137 265.367969 
L 230.076489 254.211571 
L 230.690291 244.776085 
L 231.406393 237.214399 
L 232.224796 230.86412 
L 233.145499 225.370374 
L 234.219653 220.301438 
L 235.396107 215.811284 
L 236.726012 211.625539 
L 238.158217 207.848627 
L 239.743872 204.295772 
L 241.482978 200.95291 
L 243.375534 197.803993 
L 245.421541 194.83284 
L 247.672149 191.962727 
L 250.127357 189.200326 
L 252.787166 186.547281 
L 255.702726 183.959146 
L 258.874037 181.445946 
L 262.352249 178.978604 
L 266.137362 176.569556 
L 270.280526 174.19862 
L 274.832892 171.853005 
L 279.845609 169.525233 
L 285.318678 167.231967 
L 291.354398 164.947811 
L 298.003921 162.674028 
L 305.318396 160.412893 
L 313.348973 158.16722 
L 322.197953 155.92769 
L 331.916487 153.700741 
L 342.658023 151.471686 
L 354.473714 149.250839 
L 367.465858 147.038231 
L 381.787907 144.827723 
L 397.593311 142.61681 
L 415.03552 140.405552 
L 434.216836 138.201337 
L 438.36 137.752344 
L 438.36 137.752344 
" clip-path="url(#p90ce78a2c7)" style="fill: none; stroke: #dc5e8b; stroke-width: 2.5; stroke-linecap: square"/>
   </g>
   <g id="line2d_5">
    <path d="M 19.44 326.16 
L 438.36 29.88 
" clip-path="url(#p90ce78a2c7)" style="fill: none; stroke-dasharray: 9.25,4; stroke-dashoffset: 0; stroke: #9c27b0; stroke-width: 2.5"/>
   </g>
   <g id="line2d_6">
    <defs>
     <path id="m3d3b8357e7" d="M 0 5 
C 1.326016 5 2.597899 4.473168 3.535534 3.535534 
C 4.473168 2.597899 5 1.326016 5 0 
C 5 -1.326016 4.473168 -2.597899 3.535534 -3.535534 
C 2.597899 -4.473168 1.326016 -5 0 -5 
C -1.326016 -5 -2.597899 -4.473168 -3.535534 -3.535534 
C -4.473168 -2.597899 -5 -1.326016 -5 0 
C -5 1.326016 -4.473168 2.597899 -3.535534 3.535534 
C -2.597899 4.473168 -1.326016 5 0 5 
z
" style="stroke: #000000; stroke-opacity: 0.8"/>
    </defs>
    <g clip-path="url(#p90ce78a2c7)">
     <use xlink:href="#m3d3b8357e7" x="228.9" y="153.33" style="fill-opacity: 0.8; stroke: #000000; stroke-opacity: 0.8"/>
    </g>
   </g>
   <g id="line2d_7">
    <g clip-path="url(#p90ce78a2c7)">
     <use xlink:href="#m3d3b8357e7" x="263.81" y="178.02" style="fill-opacity: 0.8; stroke: #000000; stroke-opacity: 0.8"/>
    </g>
   </g>
   <g id="line2d_8">
    <g clip-path="url(#p90ce78a2c7)">
     <use xlink:href="#m3d3b8357e7" x="333.63" y="153.33" style="fill-opacity: 0.8; stroke: #000000; stroke-opacity: 0.8"/>
    </g>
   </g>
   <g id="line2d_9">
    <g clip-path="url(#p90ce78a2c7)">
     <use xlink:href="#m3d3b8357e7" x="263.81" y="103.95" style="fill-opacity: 0.8; stroke: #000000; stroke-opacity: 0.8"/>
    </g>
   </g>
   <g id="patch_3">
    <path d="M 228.9 326.16 
L 228.9 29.88 
" style="fill: none; stroke: #000000; stroke-width: 0.8; stroke-linejoin: miter; stroke-linecap: square"/>
   </g>
   <g id="patch_4">
    <path d="M 438.36 326.16 
L 438.36 29.88 
" style="fill: none"/>
   </g>
   <g id="patch_5">
    <path d="M 19.44 178.02 
L 438.36 178.02 
" style="fill: none; stroke: #000000; stroke-width: 0.8; stroke-linejoin: miter; stroke-linecap: square"/>
   </g>
   <g id="patch_6">
    <path d="M 19.44 29.88 
L 438.36 29.88 
" style="fill: none"/>
   </g>
   <g id="text_3">
    <!-- $(0, 1)$ -->
    <g transform="translate(171.2162 158.84875) scale(0.2 -0.2)">
     <defs>
      <path id="DejaVuSans-28" d="M 1984 4856 
Q 1566 4138 1362 3434 
Q 1159 2731 1159 2009 
Q 1159 1288 1364 580 
Q 1569 -128 1984 -844 
L 1484 -844 
Q 1016 -109 783 600 
Q 550 1309 550 2009 
Q 550 2706 781 3412 
Q 1013 4119 1484 4856 
L 1984 4856 
z
" transform="scale(0.015625)"/>
      <path id="DejaVuSans-30" d="M 2034 4250 
Q 1547 4250 1301 3770 
Q 1056 3291 1056 2328 
Q 1056 1369 1301 889 
Q 1547 409 2034 409 
Q 2525 409 2770 889 
Q 3016 1369 3016 2328 
Q 3016 3291 2770 3770 
Q 2525 4250 2034 4250 
z
M 2034 4750 
Q 2819 4750 3233 4129 
Q 3647 3509 3647 2328 
Q 3647 1150 3233 529 
Q 2819 -91 2034 -91 
Q 1250 -91 836 529 
Q 422 1150 422 2328 
Q 422 3509 836 4129 
Q 1250 4750 2034 4750 
z
" transform="scale(0.015625)"/>
      <path id="DejaVuSans-2c" d="M 750 794 
L 1409 794 
L 1409 256 
L 897 -744 
L 494 -744 
L 750 256 
L 750 794 
z
" transform="scale(0.015625)"/>
      <path id="DejaVuSans-31" d="M 794 531 
L 1825 531 
L 1825 4091 
L 703 3866 
L 703 4441 
L 1819 4666 
L 2450 4666 
L 2450 531 
L 3481 531 
L 3481 0 
L 794 0 
L 794 531 
z
" transform="scale(0.015625)"/>
      <path id="DejaVuSans-29" d="M 513 4856 
L 1013 4856 
Q 1481 4119 1714 3412 
Q 1947 2706 1947 2009 
Q 1947 1309 1714 600 
Q 1481 -109 1013 -844 
L 513 -844 
Q 928 -128 1133 580 
Q 1338 1288 1338 2009 
Q 1338 2731 1133 3434 
Q 928 4138 513 4856 
z
" transform="scale(0.015625)"/>
     </defs>
     <use xlink:href="#DejaVuSans-28" transform="translate(0 0.125)"/>
     <use xlink:href="#DejaVuSans-30" transform="translate(39.013672 0.125)"/>
     <use xlink:href="#DejaVuSans-2c" transform="translate(102.636719 0.125)"/>
     <use xlink:href="#DejaVuSans-31" transform="translate(153.90625 0.125)"/>
     <use xlink:href="#DejaVuSans-29" transform="translate(217.529297 0.125)"/>
    </g>
   </g>
   <g id="text_4">
    <!-- $(1, 0)$ -->
    <g transform="translate(270.0938 197.661075) scale(0.2 -0.2)">
     <use xlink:href="#DejaVuSans-28" transform="translate(0 0.125)"/>
     <use xlink:href="#DejaVuSans-31" transform="translate(39.013672 0.125)"/>
     <use xlink:href="#DejaVuSans-2c" transform="translate(102.636719 0.125)"/>
     <use xlink:href="#DejaVuSans-30" transform="translate(153.90625 0.125)"/>
     <use xlink:href="#DejaVuSans-29" transform="translate(217.529297 0.125)"/>
    </g>
   </g>
   <g id="text_5">
    <!-- $(a, 1)$ -->
    <g transform="translate(308.13 144.726425) scale(0.2 -0.2)">
     <defs>
      <path id="DejaVuSans-Oblique-61" d="M 3438 1997 
L 3047 0 
L 2472 0 
L 2578 531 
Q 2325 219 2001 64 
Q 1678 -91 1281 -91 
Q 834 -91 548 182 
Q 263 456 263 884 
Q 263 1497 752 1853 
Q 1241 2209 2100 2209 
L 2900 2209 
L 2931 2363 
Q 2938 2388 2941 2417 
Q 2944 2447 2944 2509 
Q 2944 2788 2717 2942 
Q 2491 3097 2081 3097 
Q 1800 3097 1504 3025 
Q 1209 2953 897 2809 
L 997 3341 
Q 1322 3463 1633 3523 
Q 1944 3584 2234 3584 
Q 2853 3584 3176 3315 
Q 3500 3047 3500 2534 
Q 3500 2431 3484 2292 
Q 3469 2153 3438 1997 
z
M 2816 1759 
L 2241 1759 
Q 1534 1759 1195 1570 
Q 856 1381 856 984 
Q 856 709 1029 553 
Q 1203 397 1509 397 
Q 1978 397 2328 733 
Q 2678 1069 2791 1631 
L 2816 1759 
z
" transform="scale(0.015625)"/>
     </defs>
     <use xlink:href="#DejaVuSans-28" transform="translate(0 0.125)"/>
     <use xlink:href="#DejaVuSans-Oblique-61" transform="translate(39.013672 0.125)"/>
     <use xlink:href="#DejaVuSans-2c" transform="translate(100.292969 0.125)"/>
     <use xlink:href="#DejaVuSans-31" transform="translate(151.5625 0.125)"/>
     <use xlink:href="#DejaVuSans-29" transform="translate(215.185547 0.125)"/>
    </g>
   </g>
   <g id="text_6">
    <!-- $(1, a)$ -->
    <g transform="translate(270.0938 109.46875) scale(0.2 -0.2)">
     <use xlink:href="#DejaVuSans-28" transform="translate(0 0.125)"/>
     <use xlink:href="#DejaVuSans-31" transform="translate(39.013672 0.125)"/>
     <use xlink:href="#DejaVuSans-2c" transform="translate(102.636719 0.125)"/>
     <use xlink:href="#DejaVuSans-Oblique-61" transform="translate(153.90625 0.125)"/>
     <use xlink:href="#DejaVuSans-29" transform="translate(215.185547 0.125)"/>
    </g>
   </g>
   <g id="legend_1">
    <g id="patch_7">
     <path d="M 33.44 104.63625 
L 232.64 104.63625 
Q 236.64 104.63625 236.64 100.63625 
L 236.64 43.88 
Q 236.64 39.88 232.64 39.88 
L 33.44 39.88 
Q 29.44 39.88 29.44 43.88 
L 29.44 100.63625 
Q 29.44 104.63625 33.44 104.63625 
z
" style="fill: #ffffff; opacity: 0.8; stroke: #cccccc; stroke-linejoin: miter"/>
    </g>
    <g id="line2d_10">
     <path d="M 37.44 56.076875 
L 57.44 56.076875 
L 77.44 56.076875 
" style="fill: none; stroke: #0072b2; stroke-width: 2.5; stroke-linecap: square"/>
    </g>
    <g id="text_7">
     <!-- $f(x) = a^x$ -->
     <g transform="translate(93.44 63.076875) scale(0.2 -0.2)">
      <defs>
       <path id="DejaVuSans-Oblique-66" d="M 3059 4863 
L 2969 4384 
L 2419 4384 
Q 2106 4384 1964 4261 
Q 1822 4138 1753 3809 
L 1691 3500 
L 2638 3500 
L 2553 3053 
L 1606 3053 
L 1013 0 
L 434 0 
L 1031 3053 
L 481 3053 
L 563 3500 
L 1113 3500 
L 1159 3744 
Q 1278 4363 1576 4613 
Q 1875 4863 2516 4863 
L 3059 4863 
z
" transform="scale(0.015625)"/>
       <path id="DejaVuSans-3d" d="M 678 2906 
L 4684 2906 
L 4684 2381 
L 678 2381 
L 678 2906 
z
M 678 1631 
L 4684 1631 
L 4684 1100 
L 678 1100 
L 678 1631 
z
" transform="scale(0.015625)"/>
      </defs>
      <use xlink:href="#DejaVuSans-Oblique-66" transform="translate(0 0.4375)"/>
      <use xlink:href="#DejaVuSans-28" transform="translate(35.205078 0.4375)"/>
      <use xlink:href="#DejaVuSans-Oblique-78" transform="translate(74.21875 0.4375)"/>
      <use xlink:href="#DejaVuSans-29" transform="translate(133.398438 0.4375)"/>
      <use xlink:href="#DejaVuSans-3d" transform="translate(191.894531 0.4375)"/>
      <use xlink:href="#DejaVuSans-Oblique-61" transform="translate(295.166016 0.4375)"/>
      <use xlink:href="#DejaVuSans-Oblique-78" transform="translate(361.095208 38.71875) scale(0.7)"/>
     </g>
    </g>
    <g id="line2d_11">
     <path d="M 37.44 85.43625 
L 57.44 85.43625 
L 77.44 85.43625 
" style="fill: none; stroke: #dc5e8b; stroke-width: 2.5; stroke-linecap: square"/>
    </g>
    <g id="text_8">
     <!-- $g(x) = \log_a(x)$ -->
     <g transform="translate(93.44 92.43625) scale(0.2 -0.2)">
      <defs>
       <path id="DejaVuSans-Oblique-67" d="M 3816 3500 
L 3219 434 
Q 3047 -456 2561 -893 
Q 2075 -1331 1253 -1331 
Q 950 -1331 690 -1286 
Q 431 -1241 206 -1147 
L 313 -588 
Q 525 -725 762 -790 
Q 1000 -856 1269 -856 
Q 1816 -856 2167 -557 
Q 2519 -259 2631 300 
L 2681 563 
Q 2441 288 2122 144 
Q 1803 0 1434 0 
Q 903 0 598 351 
Q 294 703 294 1319 
Q 294 1803 478 2267 
Q 663 2731 997 3091 
Q 1219 3328 1514 3456 
Q 1809 3584 2131 3584 
Q 2484 3584 2746 3420 
Q 3009 3256 3138 2956 
L 3238 3500 
L 3816 3500 
z
M 2950 2216 
Q 2950 2641 2750 2872 
Q 2550 3103 2181 3103 
Q 1953 3103 1747 3012 
Q 1541 2922 1394 2759 
Q 1156 2491 1023 2127 
Q 891 1763 891 1375 
Q 891 944 1092 712 
Q 1294 481 1672 481 
Q 2219 481 2584 976 
Q 2950 1472 2950 2216 
z
" transform="scale(0.015625)"/>
       <path id="DejaVuSans-6c" d="M 603 4863 
L 1178 4863 
L 1178 0 
L 603 0 
L 603 4863 
z
" transform="scale(0.015625)"/>
       <path id="DejaVuSans-6f" d="M 1959 3097 
Q 1497 3097 1228 2736 
Q 959 2375 959 1747 
Q 959 1119 1226 758 
Q 1494 397 1959 397 
Q 2419 397 2687 759 
Q 2956 1122 2956 1747 
Q 2956 2369 2687 2733 
Q 2419 3097 1959 3097 
z
M 1959 3584 
Q 2709 3584 3137 3096 
Q 3566 2609 3566 1747 
Q 3566 888 3137 398 
Q 2709 -91 1959 -91 
Q 1206 -91 779 398 
Q 353 888 353 1747 
Q 353 2609 779 3096 
Q 1206 3584 1959 3584 
z
" transform="scale(0.015625)"/>
       <path id="DejaVuSans-67" d="M 2906 1791 
Q 2906 2416 2648 2759 
Q 2391 3103 1925 3103 
Q 1463 3103 1205 2759 
Q 947 2416 947 1791 
Q 947 1169 1205 825 
Q 1463 481 1925 481 
Q 2391 481 2648 825 
Q 2906 1169 2906 1791 
z
M 3481 434 
Q 3481 -459 3084 -895 
Q 2688 -1331 1869 -1331 
Q 1566 -1331 1297 -1286 
Q 1028 -1241 775 -1147 
L 775 -588 
Q 1028 -725 1275 -790 
Q 1522 -856 1778 -856 
Q 2344 -856 2625 -561 
Q 2906 -266 2906 331 
L 2906 616 
Q 2728 306 2450 153 
Q 2172 0 1784 0 
Q 1141 0 747 490 
Q 353 981 353 1791 
Q 353 2603 747 3093 
Q 1141 3584 1784 3584 
Q 2172 3584 2450 3431 
Q 2728 3278 2906 2969 
L 2906 3500 
L 3481 3500 
L 3481 434 
z
" transform="scale(0.015625)"/>
      </defs>
      <use xlink:href="#DejaVuSans-Oblique-67" transform="translate(0 0.015625)"/>
      <use xlink:href="#DejaVuSans-28" transform="translate(63.476562 0.015625)"/>
      <use xlink:href="#DejaVuSans-Oblique-78" transform="translate(102.490234 0.015625)"/>
      <use xlink:href="#DejaVuSans-29" transform="translate(161.669922 0.015625)"/>
      <use xlink:href="#DejaVuSans-3d" transform="translate(220.166016 0.015625)"/>
      <use xlink:href="#DejaVuSans-6c" transform="translate(323.4375 0.015625)"/>
      <use xlink:href="#DejaVuSans-6f" transform="translate(351.220703 0.015625)"/>
      <use xlink:href="#DejaVuSans-67" transform="translate(412.402344 0.015625)"/>
      <use xlink:href="#DejaVuSans-Oblique-61" transform="translate(476.835938 -16.390625) scale(0.7)"/>
      <use xlink:href="#DejaVuSans-28" transform="translate(538.701497 0.015625)"/>
      <use xlink:href="#DejaVuSans-Oblique-78" transform="translate(577.715168 0.015625)"/>
      <use xlink:href="#DejaVuSans-29" transform="translate(636.894856 0.015625)"/>
     </g>
    </g>
   </g>
  </g>
 </g>
 <defs>
  <clipPath id="p90ce78a2c7">
   <rect x="19.44" y="29.88" width="418.92" height="296.28"/>
  </clipPath>
 </defs>
</svg>
