<?xml version="1.0" encoding="utf-8" standalone="no"?>
<!DOCTYPE svg PUBLIC "-//W3C//DTD SVG 1.1//EN"
  "http://www.w3.org/Graphics/SVG/1.1/DTD/svg11.dtd">
<svg xmlns:xlink="http://www.w3.org/1999/xlink" width="460.8pt" height="345.6pt" viewBox="0 0 460.8 345.6" xmlns="http://www.w3.org/2000/svg" version="1.1">
 <metadata>
  <rdf:RDF xmlns:dc="http://purl.org/dc/elements/1.1/" xmlns:cc="http://creativecommons.org/ns#" xmlns:rdf="http://www.w3.org/1999/02/22-rdf-syntax-ns#">
   <cc:Work>
    <dc:type rdf:resource="http://purl.org/dc/dcmitype/StillImage"/>
    <dc:date>2026-03-30T18:43:42.923009</dc:date>
    <dc:format>image/svg+xml</dc:format>
    <dc:creator>
     <cc:Agent>
      <dc:title>Matplotlib v3.10.8, https://matplotlib.org/</dc:title>
     </cc:Agent>
    </dc:creator>
   </cc:Work>
  </rdf:RDF>
 </metadata>
 <defs>
  <style type="text/css">*{stroke-linejoin: round; stroke-linecap: butt}</style>
 </defs>
 <g id="figure_1">
  <g id="patch_1">
   <path d="M 0 345.6 
L 460.8 345.6 
L 460.8 0 
L 0 0 
L 0 345.6 
z
" style="fill: none"/>
  </g>
  <g id="axes_1">
   <g id="patch_2">
    <path d="M 10.8 334.8 
L 447 334.8 
L 447 20.016315 
L 10.8 20.016315 
L 10.8 334.8 
z
" style="fill: none"/>
   </g>
   <g id="matplotlib.axis_1">
    <g id="text_1">
     <!-- $x$ -->
     <g transform="translate(435.913188 234.593115) scale(0.2 -0.2)">
      <defs>
       <path id="CMMI12-78" d="M 3034 2606 
C 2829 2567 2752 2414 2752 2293 
C 2752 2139 2874 2088 2963 2088 
C 3155 2088 3290 2254 3290 2427 
C 3290 2695 2982 2816 2714 2816 
C 2323 2816 2106 2433 2048 2312 
C 1901 2816 1504 2816 1389 2816 
C 736 2816 390 1980 390 1839 
C 390 1814 416 1782 461 1782 
C 512 1782 525 1820 538 1846 
C 755 2555 1184 2689 1370 2689 
C 1658 2689 1715 2420 1715 2267 
C 1715 2127 1677 1980 1600 1673 
L 1382 798 
C 1286 415 1101 64 762 64 
C 730 64 570 64 435 147 
C 666 192 717 383 717 460 
C 717 588 621 664 499 664 
C 346 664 179 530 179 326 
C 179 57 480 -64 755 -64 
C 1062 -64 1280 179 1414 441 
C 1517 64 1837 -64 2074 -64 
C 2726 -64 3072 773 3072 913 
C 3072 945 3046 971 3008 971 
C 2950 971 2944 939 2925 888 
C 2752 326 2381 64 2093 64 
C 1869 64 1747 230 1747 492 
C 1747 632 1773 734 1875 1156 
L 2099 2024 
C 2195 2408 2413 2689 2707 2689 
C 2720 2689 2899 2689 3034 2606 
z
" transform="scale(0.015625)"/>
      </defs>
      <use xlink:href="#CMMI12-78" transform="scale(0.996264)"/>
     </g>
    </g>
   </g>
   <g id="matplotlib.axis_2">
    <g id="text_2">
     <!-- $y$ -->
     <g transform="translate(239.620499 16.140682) scale(0.2 -0.2)">
      <defs>
       <path id="CMMI12-79" d="M 1683 -700 
C 1510 -939 1261 -1152 947 -1152 
C 870 -1152 563 -1152 467 -889 
C 486 -895 518 -895 531 -895 
C 723 -895 851 -729 851 -582 
C 851 -435 730 -384 634 -384 
C 531 -384 307 -458 307 -759 
C 307 -1071 582 -1286 947 -1286 
C 1587 -1286 2234 -700 2413 6 
L 3040 2485 
C 3046 2517 3059 2556 3059 2594 
C 3059 2689 2982 2753 2886 2753 
C 2829 2753 2694 2727 2643 2535 
L 2170 658 
C 2138 543 2138 530 2086 460 
C 1958 281 1747 64 1440 64 
C 1082 64 1050 415 1050 588 
C 1050 952 1222 1443 1395 1903 
C 1466 2088 1504 2178 1504 2305 
C 1504 2574 1312 2816 998 2816 
C 410 2816 173 1890 173 1839 
C 173 1814 198 1782 243 1782 
C 301 1782 307 1807 333 1897 
C 486 2433 730 2689 979 2689 
C 1037 2689 1146 2689 1146 2478 
C 1146 2312 1075 2127 979 1884 
C 666 1047 666 837 666 683 
C 666 77 1101 -64 1421 -64 
C 1606 -64 1837 -6 2061 230 
L 2067 224 
C 1971 -147 1907 -392 1683 -700 
z
" transform="scale(0.015625)"/>
      </defs>
      <use xlink:href="#CMMI12-79" transform="scale(0.996264)"/>
     </g>
    </g>
   </g>
   <g id="line2d_1">
    <defs>
     <path id="mb16df9a20f" d="M 3 0 
L -3 -3 
L -3 3 
z
" style="stroke: #000000; stroke-linejoin: miter"/>
    </defs>
    <g>
     <use xlink:href="#mb16df9a20f" x="447" y="216.756118" style="stroke: #000000; stroke-linejoin: miter"/>
    </g>
   </g>
   <g id="line2d_2">
    <defs>
     <path id="m25e452a6a2" d="M 0 -3 
L -3 3 
L 3 3 
z
" style="stroke: #000000; stroke-linejoin: miter"/>
    </defs>
    <g>
     <use xlink:href="#m25e452a6a2" x="253.133333" y="20.016315" style="stroke: #000000; stroke-linejoin: miter"/>
    </g>
   </g>
   <g id="line2d_3">
    <path d="M 59.266667 226.593108 
L 63.846194 223.934333 
L 68.496722 221.491165 
L 73.218251 219.262123 
L 78.02853 217.237653 
L 82.945309 215.410524 
L 87.986339 213.775381 
L 93.169371 212.328262 
L 98.547653 211.058398 
L 104.156687 209.96399 
L 110.049722 209.042352 
L 116.31551 208.289647 
L 123.078301 207.704021 
L 130.568846 207.282857 
L 139.266398 207.024015 
L 150.697467 206.922727 
L 175.529866 206.763116 
L 184.298419 206.439926 
L 191.788964 205.945442 
L 198.534005 205.280272 
L 204.764292 204.44499 
L 210.621828 203.437422 
L 216.195361 202.254406 
L 221.538143 200.893905 
L 226.685674 199.354713 
L 231.673454 197.632555 
L 236.536983 195.719094 
L 241.294012 193.609381 
L 245.96229 191.296483 
L 250.559568 188.771051 
L 255.103595 186.020921 
L 259.594372 183.043022 
L 264.049649 179.821642 
L 268.487176 176.337312 
L 272.906952 172.582079 
L 277.308979 168.548243 
L 281.693255 164.228362 
L 286.077532 159.595845 
L 290.479558 154.61903 
L 294.881585 149.304976 
L 299.301361 143.619074 
L 303.738888 137.545836 
L 308.194165 131.069486 
L 312.684942 124.145794 
L 317.193469 116.783277 
L 321.737496 108.9336 
L 326.317024 100.574363 
L 330.932052 91.682506 
L 335.58258 82.234308 
L 340.268608 72.205364 
L 344.990136 61.570583 
L 349.747165 50.304173 
L 350.066667 49.527286 
L 350.066667 49.527286 
" clip-path="url(#pa4483f95e2)" style="fill: none; stroke: #0072b2; stroke-width: 2.5; stroke-linecap: square"/>
   </g>
   <g id="patch_3">
    <path d="M 253.133333 334.8 
L 253.133333 20.016315 
" style="fill: none; stroke: #000000; stroke-width: 0.8; stroke-linejoin: miter; stroke-linecap: square"/>
   </g>
   <g id="patch_4">
    <path d="M 447 334.8 
L 447 20.016315 
" style="fill: none"/>
   </g>
   <g id="patch_5">
    <path d="M 10.8 216.756118 
L 447 216.756118 
" style="fill: none; stroke: #000000; stroke-width: 0.8; stroke-linejoin: miter; stroke-linecap: square"/>
   </g>
   <g id="patch_6">
    <path d="M 10.8 20.016315 
L 447 20.016315 
" style="fill: none"/>
   </g>
   <g id="legend_1">
    <g id="patch_7">
     <path d="M 24.8 63.891949 
L 98.142179 63.891949 
Q 102.142179 63.891949 102.142179 59.891949 
L 102.142179 34.016315 
Q 102.142179 30.016315 98.142179 30.016315 
L 24.8 30.016315 
Q 20.8 30.016315 20.8 34.016315 
L 20.8 59.891949 
Q 20.8 63.891949 24.8 63.891949 
z
" style="fill: #ffffff; opacity: 0.8; stroke: #cccccc; stroke-linejoin: miter"/>
    </g>
    <g id="line2d_4">
     <path d="M 28.8 45.016315 
L 48.8 45.016315 
L 68.8 45.016315 
" style="fill: none; stroke: #0072b2; stroke-width: 2.5; stroke-linecap: square"/>
    </g>
    <g id="text_3">
     <!-- $g$ -->
     <g transform="translate(84.8 52.016315) scale(0.2 -0.2)">
      <defs>
       <path id="CMMI12-67" d="M 2163 811 
C 2138 709 2125 683 2042 588 
C 1779 249 1510 128 1312 128 
C 1101 128 902 294 902 734 
C 902 1073 1094 1788 1235 2076 
C 1421 2433 1709 2689 1978 2689 
C 2400 2689 2483 2165 2483 2127 
L 2464 2037 
L 2163 811 
z
M 2560 2395 
C 2477 2580 2298 2816 1978 2816 
C 1280 2816 486 1941 486 990 
C 486 326 890 0 1299 0 
C 1638 0 1939 268 2054 396 
L 1914 -171 
C 1824 -516 1786 -674 1555 -894 
C 1293 -1152 1050 -1152 909 -1152 
C 717 -1152 557 -1139 397 -1089 
C 602 -1033 653 -858 653 -789 
C 653 -689 576 -588 435 -588 
C 282 -588 115 -714 115 -922 
C 115 -1180 378 -1280 922 -1280 
C 1747 -1280 2176 -753 2259 -410 
L 2970 2435 
C 2989 2511 2989 2524 2989 2536 
C 2989 2625 2918 2695 2822 2695 
C 2669 2695 2579 2567 2560 2395 
z
" transform="scale(0.015625)"/>
      </defs>
      <use xlink:href="#CMMI12-67" transform="scale(0.996264)"/>
     </g>
    </g>
   </g>
   <g id="line2d_5">
    <path d="M 63.946666 234.280605 
L 54.586668 218.905611 
" clip-path="url(#pa4483f95e2)" style="fill: none; stroke: #000000; stroke-width: 2"/>
   </g>
   <g id="line2d_6">
    <path d="M 54.586668 218.905611 
L 59.506666 215.910412 
" clip-path="url(#pa4483f95e2)" style="fill: none; stroke: #000000; stroke-width: 2"/>
   </g>
   <g id="line2d_7">
    <path d="M 63.946666 234.280605 
L 68.866664 231.285406 
" clip-path="url(#pa4483f95e2)" style="fill: none; stroke: #000000; stroke-width: 2"/>
   </g>
   <g id="line2d_8">
    <path d="M 350.066667 49.527286 
L 339.553311 51.436984 
" clip-path="url(#pa4483f95e2)" style="fill: none; stroke: #000000; stroke-width: 2"/>
   </g>
   <g id="line2d_9">
    <path d="M 350.066667 49.527286 
L 356.204223 58.274171 
" clip-path="url(#pa4483f95e2)" style="fill: none; stroke: #000000; stroke-width: 2"/>
   </g>
  </g>
 </g>
 <defs>
  <clipPath id="pa4483f95e2">
   <rect x="10.8" y="20.016315" width="436.2" height="314.783685"/>
  </clipPath>
 </defs>
</svg>
