<?xml version="1.0" encoding="utf-8" standalone="no"?>
<!DOCTYPE svg PUBLIC "-//W3C//DTD SVG 1.1//EN"
  "http://www.w3.org/Graphics/SVG/1.1/DTD/svg11.dtd">
<svg xmlns:xlink="http://www.w3.org/1999/xlink" width="432pt" height="432pt" viewBox="0 0 432 432" xmlns="http://www.w3.org/2000/svg" version="1.1">
 <metadata>
  <rdf:RDF xmlns:dc="http://purl.org/dc/elements/1.1/" xmlns:cc="http://creativecommons.org/ns#" xmlns:rdf="http://www.w3.org/1999/02/22-rdf-syntax-ns#">
   <cc:Work>
    <dc:type rdf:resource="http://purl.org/dc/dcmitype/StillImage"/>
    <dc:date>2025-11-12T15:59:07.696309</dc:date>
    <dc:format>image/svg+xml</dc:format>
    <dc:creator>
     <cc:Agent>
      <dc:title>Matplotlib v3.9.1, https://matplotlib.org/</dc:title>
     </cc:Agent>
    </dc:creator>
   </cc:Work>
  </rdf:RDF>
 </metadata>
 <defs>
  <style type="text/css">*{stroke-linejoin: round; stroke-linecap: butt}</style>
 </defs>
 <g id="figure_1">
  <g id="patch_1">
   <path d="M 0 432 
L 432 432 
L 432 0 
L 0 0 
L 0 432 
z
" style="fill: none"/>
  </g>
  <g id="axes_1">
   <g id="Quiver_1">
    <path d="M 70.762371 102 
L 70.762371 181.1958 
L 74.763771 181.1958 
L 69.428571 193.2 
L 64.093371 181.1958 
L 68.094771 181.1958 
L 68.094771 102 
L 70.762371 102 
" clip-path="url(#p2137dcd2ec)" style="fill: #dc5e8b"/>
   </g>
   <g id="Quiver_2">
    <path d="M 303.942857 374.2662 
L 379.881514 374.2662 
L 379.881514 370.2648 
L 391.885714 375.6 
L 379.881514 380.9352 
L 379.881514 376.9338 
L 303.942857 376.9338 
L 303.942857 374.2662 
" clip-path="url(#p2137dcd2ec)" style="fill: #dc5e8b"/>
   </g>
   <g id="line2d_1">
    <path d="M 69.428571 102 
L 303.942857 375.6 
L 303.942857 375.6 
" clip-path="url(#p2137dcd2ec)" style="fill: none; stroke: #0072b2; stroke-width: 2.5; stroke-linecap: square"/>
   </g>
   <g id="LineCollection_1">
    <path d="M 69.428571 375.6 
L 69.428571 -1 
" clip-path="url(#p2137dcd2ec)" style="fill: none; stroke: #808080; stroke-width: 2.5"/>
   </g>
   <g id="LineCollection_2">
    <path d="M 10.8 375.6 
L 433 375.6 
" clip-path="url(#p2137dcd2ec)" style="fill: none; stroke: #808080; stroke-width: 2.5"/>
   </g>
  </g>
 </g>
 <defs>
  <clipPath id="p2137dcd2ec">
   <rect x="10.8" y="10.8" width="410.4" height="410.4"/>
  </clipPath>
 </defs>
</svg>
