<?xml version="1.0" encoding="utf-8" standalone="no"?>
<!DOCTYPE svg PUBLIC "-//W3C//DTD SVG 1.1//EN"
  "http://www.w3.org/Graphics/SVG/1.1/DTD/svg11.dtd">
<svg xmlns:xlink="http://www.w3.org/1999/xlink" width="460.8pt" height="345.6pt" viewBox="0 0 460.8 345.6" xmlns="http://www.w3.org/2000/svg" version="1.1">
 <metadata>
  <rdf:RDF xmlns:dc="http://purl.org/dc/elements/1.1/" xmlns:cc="http://creativecommons.org/ns#" xmlns:rdf="http://www.w3.org/1999/02/22-rdf-syntax-ns#">
   <cc:Work>
    <dc:type rdf:resource="http://purl.org/dc/dcmitype/StillImage"/>
    <dc:date>2026-01-19T19:45:55.828097</dc:date>
    <dc:format>image/svg+xml</dc:format>
    <dc:creator>
     <cc:Agent>
      <dc:title>Matplotlib v3.9.1, https://matplotlib.org/</dc:title>
     </cc:Agent>
    </dc:creator>
   </cc:Work>
  </rdf:RDF>
 </metadata>
 <defs>
  <style type="text/css">*{stroke-linejoin: round; stroke-linecap: butt}</style>
 </defs>
 <g id="figure_1">
  <g id="patch_1">
   <path d="M 0 345.6 
L 460.8 345.6 
L 460.8 0 
L 0 0 
L 0 345.6 
z
" style="fill: none"/>
  </g>
  <g id="axes_1">
   <g id="patch_2">
    <path d="M 73.114286 265.490965 
L 447 265.490965 
L 447 22.230394 
L 73.114286 22.230394 
L 73.114286 265.490965 
z
" style="fill: none"/>
   </g>
   <g id="matplotlib.axis_1">
    <g id="text_1">
     <!-- $x$ -->
     <g transform="translate(433.141493 252.035708) scale(0.25 -0.25)">
      <defs>
       <path id="CMMI12-78" d="M 3034 2606 
C 2829 2567 2752 2414 2752 2293 
C 2752 2139 2874 2088 2963 2088 
C 3155 2088 3290 2254 3290 2427 
C 3290 2695 2982 2816 2714 2816 
C 2323 2816 2106 2433 2048 2312 
C 1901 2816 1504 2816 1389 2816 
C 736 2816 390 1980 390 1839 
C 390 1814 416 1782 461 1782 
C 512 1782 525 1820 538 1846 
C 755 2555 1184 2689 1370 2689 
C 1658 2689 1715 2420 1715 2267 
C 1715 2127 1677 1980 1600 1673 
L 1382 798 
C 1286 415 1101 64 762 64 
C 730 64 570 64 435 147 
C 666 192 717 383 717 460 
C 717 588 621 664 499 664 
C 346 664 179 530 179 326 
C 179 57 480 -64 755 -64 
C 1062 -64 1280 179 1414 441 
C 1517 64 1837 -64 2074 -64 
C 2726 -64 3072 773 3072 913 
C 3072 945 3046 971 3008 971 
C 2950 971 2944 939 2925 888 
C 2752 326 2381 64 2093 64 
C 1869 64 1747 230 1747 492 
C 1747 632 1773 734 1875 1156 
L 2099 2024 
C 2195 2408 2413 2689 2707 2689 
C 2720 2689 2899 2689 3034 2606 
z
" transform="scale(0.015625)"/>
      </defs>
      <use xlink:href="#CMMI12-78" transform="scale(0.996264)"/>
     </g>
    </g>
   </g>
   <g id="matplotlib.axis_2">
    <g id="text_2">
     <!-- $y$ -->
     <g transform="translate(110.635484 17.38586) scale(0.25 -0.25)">
      <defs>
       <path id="CMMI12-79" d="M 1683 -700 
C 1510 -939 1261 -1152 947 -1152 
C 870 -1152 563 -1152 467 -889 
C 486 -895 518 -895 531 -895 
C 723 -895 851 -729 851 -582 
C 851 -435 730 -384 634 -384 
C 531 -384 307 -458 307 -759 
C 307 -1071 582 -1286 947 -1286 
C 1587 -1286 2234 -700 2413 6 
L 3040 2485 
C 3046 2517 3059 2556 3059 2594 
C 3059 2689 2982 2753 2886 2753 
C 2829 2753 2694 2727 2643 2535 
L 2170 658 
C 2138 543 2138 530 2086 460 
C 1958 281 1747 64 1440 64 
C 1082 64 1050 415 1050 588 
C 1050 952 1222 1443 1395 1903 
C 1466 2088 1504 2178 1504 2305 
C 1504 2574 1312 2816 998 2816 
C 410 2816 173 1890 173 1839 
C 173 1814 198 1782 243 1782 
C 301 1782 307 1807 333 1897 
C 486 2433 730 2689 979 2689 
C 1037 2689 1146 2689 1146 2478 
C 1146 2312 1075 2127 979 1884 
C 666 1047 666 837 666 683 
C 666 77 1101 -64 1421 -64 
C 1606 -64 1837 -6 2061 230 
L 2067 224 
C 1971 -147 1907 -392 1683 -700 
z
" transform="scale(0.015625)"/>
      </defs>
      <use xlink:href="#CMMI12-79" transform="scale(0.996264)"/>
     </g>
    </g>
   </g>
   <g id="line2d_1">
    <defs>
     <path id="m4e23e41cf1" d="M 3 0 
L -3 -3 
L -3 3 
z
" style="stroke: #000000; stroke-linejoin: miter"/>
    </defs>
    <g>
     <use xlink:href="#m4e23e41cf1" x="447" y="230.739455" style="stroke: #000000; stroke-linejoin: miter"/>
    </g>
   </g>
   <g id="line2d_2">
    <defs>
     <path id="m6e2a74d003" d="M 0 -3 
L -3 3 
L 3 3 
z
" style="stroke: #000000; stroke-linejoin: miter"/>
    </defs>
    <g>
     <use xlink:href="#m6e2a74d003" x="126.526531" y="22.230394" style="stroke: #000000; stroke-linejoin: miter"/>
    </g>
   </g>
   <g id="line2d_3">
    <path d="M 126.526531 195.987944 
L 129.545498 195.876923 
L 132.570985 195.542897 
L 135.609514 194.982984 
L 138.667604 194.192359 
L 141.751775 193.164231 
L 144.868549 191.889809 
L 148.030966 190.354836 
L 151.239026 188.548762 
L 154.49925 186.456441 
L 157.824678 184.055504 
L 161.20879 181.335611 
L 164.664627 178.270134 
L 168.19219 174.840956 
L 171.797997 171.022394 
L 175.48205 166.793828 
L 179.250868 162.125814 
L 183.104453 156.995002 
L 187.042803 151.37752 
L 191.072439 145.238714 
L 195.193362 138.5517 
L 199.412092 131.277405 
L 203.722107 123.397935 
L 208.12993 114.871573 
L 212.635559 105.666807 
L 217.238995 95.751432 
L 221.940237 85.092538 
L 226.745807 73.640601 
L 231.649184 61.375676 
L 233.35102 56.981904 
L 233.35102 56.981904 
" clip-path="url(#p1a35b3d92f)" style="fill: none; stroke: #0072b2; stroke-width: 2.5; stroke-linecap: square"/>
   </g>
   <g id="line2d_4">
    <path d="M 179.938776 230.739455 
L 180.082225 228.938498 
L 180.460411 227.305165 
L 181.073333 225.674605 
L 181.947073 224.000891 
L 183.094672 222.292218 
L 184.555252 220.522803 
L 186.367937 218.6827 
L 188.571848 216.768182 
L 191.21915 214.769083 
L 194.362005 212.680836 
L 198.052578 210.501898 
L 202.343033 208.232406 
L 207.298573 205.867512 
L 212.984403 203.405009 
L 219.478769 200.839429 
L 226.846874 198.172498 
L 235.153924 195.406302 
L 244.491205 192.535391 
L 254.936962 189.560184 
L 266.582481 186.478398 
L 279.506007 183.292157 
L 293.798828 180.000799 
L 309.56527 176.601711 
L 326.896619 173.096046 
L 345.897203 169.48285 
L 366.671348 165.761908 
L 389.323383 161.933561 
L 393.587755 161.236434 
L 393.587755 161.236434 
" clip-path="url(#p1a35b3d92f)" style="fill: none; stroke: #dc5e8b; stroke-width: 2.5; stroke-linecap: square"/>
   </g>
   <g id="line2d_5">
    <path d="M 73.114286 230.739455 
L 447 144.733855 
" clip-path="url(#p1a35b3d92f)" style="fill: none; stroke-dasharray: 9.25,4; stroke-dashoffset: 0; stroke: #808080; stroke-width: 2.5"/>
   </g>
   <g id="line2d_6">
    <path d="M 82.451625 346.6 
L 271.338562 -1 
" clip-path="url(#p1a35b3d92f)" style="fill: none; stroke-dasharray: 9.25,4; stroke-dashoffset: 0; stroke: #808080; stroke-width: 2.5"/>
   </g>
   <g id="line2d_7">
    <defs>
     <path id="mf8cdae5753" d="M 0 5 
C 1.326016 5 2.597899 4.473168 3.535534 3.535534 
C 4.473168 2.597899 5 1.326016 5 0 
C 5 -1.326016 4.473168 -2.597899 3.535534 -3.535534 
C 2.597899 -4.473168 1.326016 -5 0 -5 
C -1.326016 -5 -2.597899 -4.473168 -3.535534 -3.535534 
C -4.473168 -2.597899 -5 -1.326016 -5 0 
C -5 1.326016 -4.473168 2.597899 -3.535534 3.535534 
C -2.597899 4.473168 -1.326016 5 0 5 
z
" style="stroke: #000000; stroke-opacity: 0.8"/>
    </defs>
    <g clip-path="url(#p1a35b3d92f)">
     <use xlink:href="#mf8cdae5753" x="202.062852" y="126.484924" style="fill-opacity: 0.8; stroke: #000000; stroke-opacity: 0.8"/>
    </g>
   </g>
   <g id="line2d_8">
    <g clip-path="url(#p1a35b3d92f)">
     <use xlink:href="#mf8cdae5753" x="286.763265" y="181.593398" style="fill-opacity: 0.8; stroke: #000000; stroke-opacity: 0.8"/>
    </g>
   </g>
   <g id="patch_3">
    <path d="M 126.526531 265.490965 
L 126.526531 22.230394 
" style="fill: none; stroke: #000000; stroke-width: 0.8; stroke-linejoin: miter; stroke-linecap: square"/>
   </g>
   <g id="patch_4">
    <path d="M 447 265.490965 
L 447 22.230394 
" style="fill: none"/>
   </g>
   <g id="patch_5">
    <path d="M 73.114286 230.739455 
L 447 230.739455 
" style="fill: none; stroke: #000000; stroke-width: 0.8; stroke-linejoin: miter; stroke-linecap: square"/>
   </g>
   <g id="patch_6">
    <path d="M 73.114286 22.230394 
L 447 22.230394 
" style="fill: none"/>
   </g>
   <g id="patch_7">
    <path d="M 125.968175 81.87417 
Q 150.978644 119.435607 197.866272 125.918441 
" style="fill: none; opacity: 0.7; stroke: #000000; stroke-width: 2; stroke-linecap: round"/>
    <path d="M 188.645308 119.595955 
L 197.866272 125.918441 
L 187.275705 129.501721 
" style="fill: none; opacity: 0.7; stroke: #000000; stroke-width: 2; stroke-linecap: round"/>
   </g>
   <g id="text_3">
    <g id="patch_8">
     <path d="M 19.702041 79.446948 
L 206.874488 79.446948 
Q 216.874488 79.446948 216.874488 69.446948 
L 216.874488 44.516861 
Q 216.874488 34.516861 206.874488 34.516861 
L 19.702041 34.516861 
Q 9.702041 34.516861 9.702041 44.516861 
L 9.702041 69.446948 
Q 9.702041 79.446948 19.702041 79.446948 
z
" style="fill: #ffffff; stroke: #000000; stroke-width: 1.5; stroke-linejoin: miter"/>
    </g>
    <!-- Stigningstall: $f'(a)$ -->
    <g transform="translate(19.702041 63.241139) scale(0.25 -0.25)">
     <defs>
      <path id="CMSS17-53" d="M 2797 4169 
C 2515 4334 2208 4480 1690 4480 
C 864 4480 333 3879 333 3266 
C 333 3025 403 2753 653 2475 
C 902 2196 1184 2121 1542 2033 
C 1690 1994 1939 1924 1984 1906 
C 2342 1767 2515 1444 2515 1140 
C 2515 742 2202 318 1645 318 
C 1453 318 890 318 358 819 
L 269 318 
C 794 -64 1363 -128 1651 -128 
C 2438 -128 3002 488 3002 1186 
C 3002 1440 2925 1763 2656 2061 
C 2394 2347 2163 2410 1638 2549 
C 1338 2626 1146 2677 986 2873 
C 877 3013 819 3146 819 3317 
C 819 3673 1126 4060 1690 4060 
C 1971 4060 2336 4002 2707 3660 
L 2797 4169 
z
" transform="scale(0.015625)"/>
      <path id="CMSS17-74" d="M 1069 2368 
L 1901 2368 
L 1901 2737 
L 1069 2737 
L 1069 3520 
L 614 3520 
L 614 2737 
L 109 2737 
L 109 2368 
L 602 2368 
L 602 749 
C 602 384 685 -64 1107 -64 
C 1427 -64 1722 25 2003 172 
L 1901 548 
C 1747 414 1562 337 1363 337 
C 1082 337 1069 696 1069 856 
L 1069 2368 
z
" transform="scale(0.015625)"/>
      <path id="CMSS17-69" d="M 979 4183 
L 442 4183 
L 442 3648 
L 979 3648 
L 979 4183 
z
M 947 2739 
L 474 2739 
L 474 0 
L 947 0 
L 947 2739 
z
" transform="scale(0.015625)"/>
      <path id="CMSS17-67" d="M 2848 2808 
C 2483 2808 2170 2738 1914 2617 
C 1702 2777 1485 2808 1338 2808 
C 781 2808 358 2349 358 1814 
C 358 1468 550 1207 563 1195 
C 448 1035 384 863 384 672 
C 384 448 474 289 544 200 
C 211 -3 166 -314 166 -435 
C 166 -898 749 -1280 1498 -1280 
C 2253 -1280 2835 -898 2835 -428 
C 2835 448 1856 448 1587 448 
L 1069 448 
C 973 448 717 448 717 791 
C 717 921 774 1004 781 1010 
C 877 940 1075 832 1338 832 
C 1869 832 2310 1278 2310 1827 
C 2310 2132 2170 2355 2112 2432 
L 2131 2432 
C 2150 2432 2419 2432 2515 2432 
C 2720 2432 2739 2429 2918 2419 
L 2848 2808 
z
M 1338 1182 
C 1120 1182 813 1315 813 1823 
C 813 2375 1165 2464 1331 2464 
C 1549 2464 1856 2331 1856 1823 
C 1856 1271 1504 1182 1338 1182 
z
M 1581 -10 
C 1734 -10 2381 -10 2381 -442 
C 2381 -714 1984 -929 1504 -929 
C 1018 -929 621 -720 621 -435 
C 621 -403 621 -10 1062 -10 
L 1581 -10 
z
" transform="scale(0.015625)"/>
      <path id="CMSS17-6e" d="M 2618 1877 
C 2618 2283 2522 2816 1798 2816 
C 1389 2816 1120 2606 941 2389 
L 941 2758 
L 474 2758 
L 474 0 
L 960 0 
L 960 1559 
C 960 1964 1114 2428 1549 2428 
C 2112 2428 2131 2048 2131 1829 
L 2131 0 
L 2618 0 
L 2618 1877 
z
" transform="scale(0.015625)"/>
      <path id="CMSS17-73" d="M 2061 2627 
C 1683 2807 1389 2807 1197 2807 
C 742 2807 198 2648 198 2003 
C 198 1359 902 1218 1094 1179 
C 1389 1122 1715 1058 1715 740 
C 1715 337 1254 337 1171 337 
C 915 337 563 407 243 638 
L 166 210 
C 531 0 883 -64 1178 -64 
C 1965 -64 2163 416 2163 781 
C 2163 1094 1984 1305 1862 1401 
C 1651 1568 1574 1587 1050 1696 
C 960 1709 646 1779 646 2066 
C 646 2432 1050 2432 1139 2432 
C 1555 2432 1811 2303 1984 2208 
L 2061 2627 
z
" transform="scale(0.015625)"/>
      <path id="CMSS17-61" d="M 2406 1791 
C 2406 2392 1978 2808 1402 2808 
C 1120 2808 813 2757 461 2553 
L 499 2135 
C 659 2248 934 2432 1395 2432 
C 1722 2432 1920 2180 1920 1782 
L 1920 1536 
C 896 1536 256 1238 256 726 
C 256 461 416 -64 947 -64 
C 1043 -64 1562 -64 1933 217 
L 1933 -19 
L 2406 -19 
L 2406 1791 
z
M 1920 816 
C 1920 701 1920 548 1728 434 
C 1562 325 1350 325 1261 325 
C 941 325 723 511 723 744 
C 723 1211 1722 1211 1920 1211 
L 1920 816 
z
" transform="scale(0.015625)"/>
      <path id="CMSS17-6c" d="M 947 4416 
L 474 4416 
L 474 0 
L 947 0 
L 947 4416 
z
" transform="scale(0.015625)"/>
      <path id="CMSS17-3a" d="M 1088 2749 
L 576 2749 
L 576 2240 
L 1088 2240 
L 1088 2749 
z
M 576 510 
L 576 0 
L 1088 0 
L 1088 510 
L 576 510 
z
" transform="scale(0.015625)"/>
      <path id="CMMI12-66" d="M 2854 2566 
C 2982 2566 3034 2566 3034 2688 
C 3034 2752 2982 2752 2867 2752 
L 2349 2752 
C 2470 3429 2560 3897 2611 4107 
C 2650 4265 2784 4416 2950 4416 
C 3085 4416 3219 4358 3283 4298 
C 3034 4272 2957 4082 2957 3969 
C 2957 3837 3053 3759 3174 3759 
C 3302 3759 3494 3870 3494 4119 
C 3494 4393 3226 4544 2944 4544 
C 2669 4544 2400 4334 2272 4078 
C 2157 3848 2093 3611 1946 2752 
L 1517 2752 
C 1395 2752 1331 2752 1331 2637 
C 1331 2566 1370 2566 1498 2566 
L 1907 2566 
C 1792 1976 1530 542 1382 -137 
C 1274 -689 1178 -1152 858 -1152 
C 838 -1152 653 -1152 538 -1031 
C 864 -1005 864 -726 864 -720 
C 864 -593 768 -517 646 -517 
C 518 -517 326 -625 326 -867 
C 326 -1140 608 -1280 858 -1280 
C 1510 -1280 1779 -118 1850 199 
C 1965 688 2278 2376 2310 2566 
L 2854 2566 
z
" transform="scale(0.015625)"/>
      <path id="CMSY10-30" d="M 1619 3040 
C 1651 3117 1677 3174 1677 3238 
C 1677 3424 1510 3578 1312 3578 
C 1133 3578 1018 3456 973 3290 
L 211 493 
C 211 480 186 410 186 403 
C 186 333 352 288 403 288 
C 442 288 448 307 486 390 
L 1619 3040 
z
" transform="scale(0.015625)"/>
      <path id="CMR17-28" d="M 1958 -1561 
C 1958 -1555 1958 -1542 1939 -1523 
C 1645 -1224 858 -407 858 1581 
C 858 3569 1632 4379 1946 4697 
C 1946 4704 1958 4717 1958 4736 
C 1958 4755 1939 4768 1914 4768 
C 1843 4768 1299 4296 986 3594 
C 666 2887 576 2199 576 1588 
C 576 1128 621 351 1005 -471 
C 1312 -1135 1837 -1600 1914 -1600 
C 1946 -1600 1958 -1587 1958 -1561 
z
" transform="scale(0.015625)"/>
      <path id="CMMI12-61" d="M 1926 760 
C 1894 651 1894 639 1805 517 
C 1664 338 1382 64 1082 64 
C 819 64 672 300 672 677 
C 672 1028 870 1743 992 2012 
C 1210 2459 1510 2689 1760 2689 
C 2182 2689 2266 2165 2266 2114 
C 2266 2108 2246 2024 2240 2012 
L 1926 760 
z
M 2336 2395 
C 2266 2561 2093 2816 1760 2816 
C 1037 2816 256 1884 256 939 
C 256 307 627 -64 1062 -64 
C 1414 -64 1715 211 1894 422 
C 1958 45 2259 -64 2451 -64 
C 2643 -64 2797 51 2912 281 
C 3014 498 3104 888 3104 913 
C 3104 945 3078 971 3040 971 
C 2982 971 2976 939 2950 843 
C 2854 466 2733 64 2470 64 
C 2285 64 2272 230 2272 358 
C 2272 505 2291 575 2349 824 
C 2394 984 2426 1124 2477 1309 
C 2714 2267 2771 2497 2771 2535 
C 2771 2625 2701 2695 2605 2695 
C 2400 2695 2349 2472 2336 2395 
z
" transform="scale(0.015625)"/>
      <path id="CMR17-29" d="M 1683 1581 
C 1683 2040 1638 2817 1254 3639 
C 947 4303 422 4768 346 4768 
C 326 4768 301 4761 301 4729 
C 301 4717 307 4710 314 4697 
C 621 4378 1402 3568 1402 1584 
C 1402 -407 627 -1217 314 -1537 
C 307 -1549 301 -1556 301 -1568 
C 301 -1600 326 -1600 346 -1600 
C 416 -1600 960 -1128 1274 -426 
C 1594 281 1683 969 1683 1581 
z
" transform="scale(0.015625)"/>
     </defs>
     <use xlink:href="#CMSS17-53" transform="scale(0.996264)"/>
     <use xlink:href="#CMSS17-74" transform="translate(52.048516 0) scale(0.996264)"/>
     <use xlink:href="#CMSS17-69" transform="translate(85.880083 0) scale(0.996264)"/>
     <use xlink:href="#CMSS17-67" transform="translate(108.060806 0) scale(0.996264)"/>
     <use xlink:href="#CMSS17-6e" transform="translate(154.904429 0) scale(0.996264)"/>
     <use xlink:href="#CMSS17-69" transform="translate(203.109373 0) scale(0.996264)"/>
     <use xlink:href="#CMSS17-6e" transform="translate(225.290096 0) scale(0.996264)"/>
     <use xlink:href="#CMSS17-67" transform="translate(273.495039 0) scale(0.996264)"/>
     <use xlink:href="#CMSS17-73" transform="translate(320.338662 0) scale(0.996264)"/>
     <use xlink:href="#CMSS17-74" transform="translate(356.252204 0) scale(0.996264)"/>
     <use xlink:href="#CMSS17-61" transform="translate(390.083771 0) scale(0.996264)"/>
     <use xlink:href="#CMSS17-6c" transform="translate(435.005692 0) scale(0.996264)"/>
     <use xlink:href="#CMSS17-6c" transform="translate(457.186415 0) scale(0.996264)"/>
     <use xlink:href="#CMSS17-3a" transform="translate(479.367138 0) scale(0.996264)"/>
     <use xlink:href="#CMMI12-66" transform="translate(547.030149 0) scale(0.996264)"/>
     <use xlink:href="#CMSY10-30" transform="translate(605.750454 36.153639) scale(0.697382)"/>
     <use xlink:href="#CMR17-28" transform="translate(625.426547 0) scale(0.996264)"/>
     <use xlink:href="#CMMI12-61" transform="translate(660.707315 0) scale(0.996264)"/>
     <use xlink:href="#CMR17-29" transform="translate(711.915172 0) scale(0.996264)"/>
    </g>
   </g>
   <g id="patch_9">
    <path d="M 313.741837 262.848664 
Q 317.761593 220.547334 289.409652 184.900155 
" style="fill: none; opacity: 0.7; stroke: #000000; stroke-width: 2; stroke-linecap: round"/>
    <path d="M 291.721174 195.838933 
L 289.409652 184.900155 
L 299.547587 189.614204 
" style="fill: none; opacity: 0.7; stroke: #000000; stroke-width: 2; stroke-linecap: round"/>
   </g>
   <g id="text_4">
    <g id="patch_10">
     <path d="M 233.35102 334.898709 
L 374.642725 334.898709 
Q 384.642725 334.898709 384.642725 324.898709 
L 384.642725 275.58624 
Q 384.642725 265.58624 374.642725 265.58624 
L 233.35102 265.58624 
Q 223.35102 265.58624 223.35102 275.58624 
L 223.35102 324.898709 
Q 223.35102 334.898709 233.35102 334.898709 
z
" style="fill: #ffffff; stroke: #000000; stroke-width: 1.5; stroke-linejoin: miter"/>
    </g>
    <!-- Stigningstall: $\displaystyle \\frac{1}{f'(a)}$ -->
    <g transform="translate(233.35102 292.882494) scale(0.25 -0.25)">
     <defs>
      <path id="CMMI12-72" d="M 2490 2612 
C 2291 2574 2189 2433 2189 2293 
C 2189 2139 2310 2088 2400 2088 
C 2579 2088 2726 2242 2726 2433 
C 2726 2638 2528 2816 2208 2816 
C 1952 2816 1658 2701 1389 2312 
C 1344 2650 1088 2816 832 2816 
C 582 2816 454 2625 378 2484 
C 269 2254 173 1871 173 1839 
C 173 1814 198 1782 243 1782 
C 294 1782 301 1788 339 1935 
C 435 2318 557 2689 813 2689 
C 966 2689 1011 2580 1011 2395 
C 1011 2254 947 2005 902 1807 
L 723 1118 
C 698 996 627 709 595 594 
C 550 428 480 128 480 96 
C 480 6 550 -64 646 -64 
C 717 -64 838 -19 877 109 
C 896 160 1133 1124 1171 1271 
C 1203 1411 1242 1546 1274 1686 
C 1299 1775 1325 1878 1344 1961 
C 1363 2018 1536 2331 1696 2472 
C 1773 2542 1939 2689 2202 2689 
C 2304 2689 2406 2670 2490 2612 
z
" transform="scale(0.015625)"/>
      <path id="CMMI12-63" d="M 2502 2431 
C 2381 2431 2323 2431 2234 2355 
C 2195 2323 2125 2227 2125 2125 
C 2125 1997 2221 1920 2342 1920 
C 2496 1920 2669 2044 2669 2292 
C 2669 2588 2374 2816 1933 2816 
C 1094 2816 256 1903 256 996 
C 256 441 602 -64 1254 -64 
C 2125 -64 2675 622 2675 706 
C 2675 744 2637 776 2611 776 
C 2592 776 2586 770 2528 713 
C 2118 162 1510 64 1267 64 
C 826 64 685 446 685 764 
C 685 988 794 1605 1024 2039 
C 1190 2338 1536 2682 1939 2682 
C 2022 2682 2374 2682 2502 2431 
z
" transform="scale(0.015625)"/>
      <path id="CMR17-31" d="M 1702 4058 
C 1702 4192 1696 4192 1606 4192 
C 1357 3916 979 3827 621 3827 
C 602 3827 570 3827 563 3808 
C 557 3795 557 3782 557 3648 
C 755 3648 1088 3686 1344 3839 
L 1344 461 
C 1344 236 1331 160 781 160 
L 589 160 
L 589 0 
C 896 0 1216 0 1523 0 
C 1830 0 2150 0 2458 0 
L 2458 160 
L 2266 160 
C 1715 160 1702 230 1702 458 
L 1702 4058 
z
" transform="scale(0.015625)"/>
     </defs>
     <use xlink:href="#CMSS17-53" transform="translate(14.94396 0) scale(0.996264)"/>
     <use xlink:href="#CMSS17-74" transform="translate(66.992476 0) scale(0.996264)"/>
     <use xlink:href="#CMSS17-69" transform="translate(100.824043 0) scale(0.996264)"/>
     <use xlink:href="#CMSS17-67" transform="translate(123.004766 0) scale(0.996264)"/>
     <use xlink:href="#CMSS17-6e" transform="translate(169.84839 0) scale(0.996264)"/>
     <use xlink:href="#CMSS17-69" transform="translate(218.053333 0) scale(0.996264)"/>
     <use xlink:href="#CMSS17-6e" transform="translate(240.234056 0) scale(0.996264)"/>
     <use xlink:href="#CMSS17-67" transform="translate(288.438999 0) scale(0.996264)"/>
     <use xlink:href="#CMSS17-73" transform="translate(335.282622 0) scale(0.996264)"/>
     <use xlink:href="#CMSS17-74" transform="translate(371.196164 0) scale(0.996264)"/>
     <use xlink:href="#CMSS17-61" transform="translate(405.027731 0) scale(0.996264)"/>
     <use xlink:href="#CMSS17-6c" transform="translate(449.949652 0) scale(0.996264)"/>
     <use xlink:href="#CMSS17-6c" transform="translate(472.130375 0) scale(0.996264)"/>
     <use xlink:href="#CMSS17-3a" transform="translate(494.311098 0) scale(0.996264)"/>
     <use xlink:href="#CMMI12-66" transform="translate(0 -100.252958) scale(0.996264)"/>
     <use xlink:href="#CMMI12-72" transform="translate(58.720305 -100.252958) scale(0.996264)"/>
     <use xlink:href="#CMMI12-61" transform="translate(105.390917 -100.252958) scale(0.996264)"/>
     <use xlink:href="#CMMI12-63" transform="translate(156.598774 -100.252958) scale(0.996264)"/>
     <use xlink:href="#CMR17-31" transform="translate(198.582008 -100.252958) scale(0.996264)"/>
     <use xlink:href="#CMMI12-66" transform="translate(244.272485 -100.252958) scale(0.996264)"/>
     <use xlink:href="#CMSY10-30" transform="translate(302.99279 -59.117983) scale(0.697382)"/>
     <use xlink:href="#CMR17-28" transform="translate(322.668883 -100.252958) scale(0.996264)"/>
     <use xlink:href="#CMMI12-61" transform="translate(357.94965 -100.252958) scale(0.996264)"/>
     <use xlink:href="#CMR17-29" transform="translate(409.157508 -100.252958) scale(0.996264)"/>
    </g>
   </g>
   <g id="text_5">
    <!-- $(a, b)$ -->
    <g transform="translate(207.671137 116.630207) scale(0.25 -0.25)">
     <defs>
      <path id="CMMI12-3b" d="M 1248 -31 
C 1248 343 1126 619 864 619 
C 659 619 557 453 557 313 
C 557 172 653 0 870 0 
C 954 0 1024 26 1082 83 
C 1094 96 1101 96 1107 96 
C 1120 96 1120 5 1120 -27 
C 1120 -240 1082 -659 710 -1080 
C 640 -1157 640 -1170 640 -1183 
C 640 -1216 672 -1248 704 -1248 
C 755 -1248 1248 -771 1248 -31 
z
" transform="scale(0.015625)"/>
      <path id="CMMI12-62" d="M 1478 4257 
C 1485 4283 1498 4321 1498 4352 
C 1498 4416 1434 4416 1421 4416 
C 1414 4416 1184 4393 1069 4377 
C 960 4377 864 4358 749 4358 
C 595 4345 550 4339 550 4224 
C 550 4160 614 4160 678 4160 
C 1005 4160 1005 4103 1005 4040 
C 1005 3996 954 3811 928 3696 
L 774 3085 
C 710 2831 346 1387 320 1272 
C 288 1114 288 1005 288 922 
C 288 274 653 -64 1069 -64 
C 1811 -64 2579 888 2579 1814 
C 2579 2401 2246 2816 1766 2816 
C 1434 2816 1133 2542 1011 2414 
L 1478 4257 
z
M 1075 64 
C 870 64 646 217 646 715 
C 646 926 666 1047 781 1494 
C 800 1577 902 1986 928 2069 
C 941 2120 1318 2689 1754 2689 
C 2035 2689 2163 2408 2163 2076 
C 2163 1769 1984 1047 1824 715 
C 1664 370 1370 64 1075 64 
z
" transform="scale(0.015625)"/>
     </defs>
     <use xlink:href="#CMR17-28" transform="scale(0.996264)"/>
     <use xlink:href="#CMMI12-61" transform="translate(35.280768 0) scale(0.996264)"/>
     <use xlink:href="#CMMI12-3b" transform="translate(86.488625 0) scale(0.996264)"/>
     <use xlink:href="#CMMI12-62" transform="translate(130.190208 0) scale(0.996264)"/>
     <use xlink:href="#CMR17-29" transform="translate(171.666082 0) scale(0.996264)"/>
    </g>
   </g>
   <g id="text_6">
    <!-- $(b, a)$ -->
    <g transform="translate(229.418313 171.738681) scale(0.25 -0.25)">
     <use xlink:href="#CMR17-28" transform="scale(0.996264)"/>
     <use xlink:href="#CMMI12-62" transform="translate(35.280768 0) scale(0.996264)"/>
     <use xlink:href="#CMMI12-3b" transform="translate(76.756642 0) scale(0.996264)"/>
     <use xlink:href="#CMMI12-61" transform="translate(120.458224 0) scale(0.996264)"/>
     <use xlink:href="#CMR17-29" transform="translate(171.666082 0) scale(0.996264)"/>
    </g>
   </g>
   <g id="legend_1">
    <g id="patch_11">
     <path d="M 313.263891 114.694749 
L 429.5 114.694749 
Q 434.5 114.694749 434.5 109.694749 
L 434.5 39.730394 
Q 434.5 34.730394 429.5 34.730394 
L 313.263891 34.730394 
Q 308.263891 34.730394 308.263891 39.730394 
L 308.263891 109.694749 
Q 308.263891 114.694749 313.263891 114.694749 
z
" style="fill: #ffffff; opacity: 0.8; stroke: #cccccc; stroke-linejoin: miter"/>
    </g>
    <g id="line2d_9">
     <path d="M 318.263891 53.480394 
L 343.263891 53.480394 
L 368.263891 53.480394 
" style="fill: none; stroke: #0072b2; stroke-width: 2.5; stroke-linecap: square"/>
    </g>
    <g id="text_7">
     <!-- $f$ -->
     <g transform="translate(388.263891 62.230394) scale(0.25 -0.25)">
      <use xlink:href="#CMMI12-66" transform="scale(0.996264)"/>
     </g>
    </g>
    <g id="line2d_10">
     <path d="M 318.263891 91.100214 
L 343.263891 91.100214 
L 368.263891 91.100214 
" style="fill: none; stroke: #dc5e8b; stroke-width: 2.5; stroke-linecap: square"/>
    </g>
    <g id="text_8">
     <!-- $f^{-1}$ -->
     <g transform="translate(388.263891 99.850214) scale(0.25 -0.25)">
      <defs>
       <path id="CMSY10-0" d="M 4218 1472 
C 4326 1472 4442 1472 4442 1600 
C 4442 1728 4326 1728 4218 1728 
L 755 1728 
C 646 1728 531 1728 531 1600 
C 531 1472 646 1472 755 1472 
L 4218 1472 
z
" transform="scale(0.015625)"/>
      </defs>
      <use xlink:href="#CMMI12-66" transform="scale(0.996264)"/>
      <use xlink:href="#CMSY10-0" transform="translate(58.720305 36.153639) scale(0.697382)"/>
      <use xlink:href="#CMR17-31" transform="translate(112.961298 36.153639) scale(0.697382)"/>
     </g>
    </g>
   </g>
   <g id="line2d_11">
    <path d="M 126.526531 195.987944 
L 131.462999 188.983208 
" clip-path="url(#p1a35b3d92f)" style="fill: none; stroke: #0072b2; stroke-width: 2"/>
   </g>
   <g id="line2d_12">
    <path d="M 126.526531 195.987944 
L 131.464348 202.991897 
" clip-path="url(#p1a35b3d92f)" style="fill: none; stroke: #0072b2; stroke-width: 2"/>
   </g>
   <g id="line2d_13">
    <path d="M 240.634724 59.289269 
L 226.067317 54.67454 
" clip-path="url(#p1a35b3d92f)" style="fill: none; stroke: #0072b2; stroke-width: 2"/>
   </g>
   <g id="line2d_14">
    <path d="M 226.067317 54.67454 
L 224.440928 58.907108 
" clip-path="url(#p1a35b3d92f)" style="fill: none; stroke: #0072b2; stroke-width: 2"/>
   </g>
   <g id="line2d_15">
    <path d="M 240.634724 59.289269 
L 239.008335 63.521837 
" clip-path="url(#p1a35b3d92f)" style="fill: none; stroke: #0072b2; stroke-width: 2"/>
   </g>
   <g id="line2d_16">
    <path d="M 179.938776 230.739455 
L 172.333956 226.10504 
" clip-path="url(#p1a35b3d92f)" style="fill: none; stroke: #dc5e8b; stroke-width: 2"/>
   </g>
   <g id="line2d_17">
    <path d="M 179.938776 230.739455 
L 187.758861 226.410439 
" clip-path="url(#p1a35b3d92f)" style="fill: none; stroke: #dc5e8b; stroke-width: 2"/>
   </g>
   <g id="line2d_18">
    <path d="M 394.948084 168.131017 
L 392.227426 154.341852 
" clip-path="url(#p1a35b3d92f)" style="fill: none; stroke: #dc5e8b; stroke-width: 2"/>
   </g>
   <g id="line2d_19">
    <path d="M 392.227426 154.341852 
L 387.367651 155.13234 
" clip-path="url(#p1a35b3d92f)" style="fill: none; stroke: #dc5e8b; stroke-width: 2"/>
   </g>
   <g id="line2d_20">
    <path d="M 394.948084 168.131017 
L 390.088309 168.921506 
" clip-path="url(#p1a35b3d92f)" style="fill: none; stroke: #dc5e8b; stroke-width: 2"/>
   </g>
  </g>
 </g>
 <defs>
  <clipPath id="p1a35b3d92f">
   <rect x="73.114286" y="22.230394" width="373.885714" height="243.260571"/>
  </clipPath>
 </defs>
</svg>
