<?xml version="1.0" encoding="utf-8" standalone="no"?>
<!DOCTYPE svg PUBLIC "-//W3C//DTD SVG 1.1//EN"
  "http://www.w3.org/Graphics/SVG/1.1/DTD/svg11.dtd">
<svg xmlns:xlink="http://www.w3.org/1999/xlink" width="460.8pt" height="345.6pt" viewBox="0 0 460.8 345.6" xmlns="http://www.w3.org/2000/svg" version="1.1">
 <metadata>
  <rdf:RDF xmlns:dc="http://purl.org/dc/elements/1.1/" xmlns:cc="http://creativecommons.org/ns#" xmlns:rdf="http://www.w3.org/1999/02/22-rdf-syntax-ns#">
   <cc:Work>
    <dc:type rdf:resource="http://purl.org/dc/dcmitype/StillImage"/>
    <dc:date>2025-12-06T22:17:32.758557</dc:date>
    <dc:format>image/svg+xml</dc:format>
    <dc:creator>
     <cc:Agent>
      <dc:title>Matplotlib v3.9.1, https://matplotlib.org/</dc:title>
     </cc:Agent>
    </dc:creator>
   </cc:Work>
  </rdf:RDF>
 </metadata>
 <defs>
  <style type="text/css">*{stroke-linejoin: round; stroke-linecap: butt}</style>
 </defs>
 <g id="figure_1">
  <g id="patch_1">
   <path d="M 0 345.6 
L 460.8 345.6 
L 460.8 0 
L 0 0 
L 0 345.6 
z
" style="fill: none"/>
  </g>
  <g id="axes_1">
   <g id="patch_2">
    <path d="M 10.8 334.8 
L 447 334.8 
L 447 22.673214 
L 10.8 22.673214 
L 10.8 334.8 
z
" style="fill: none"/>
   </g>
   <g id="matplotlib.axis_1">
    <g id="text_1">
     <!-- $x$ -->
     <g transform="translate(432.587145 200.724709) scale(0.26 -0.26)">
      <defs>
       <path id="CMMI12-78" d="M 3034 2606 
C 2829 2567 2752 2414 2752 2293 
C 2752 2139 2874 2088 2963 2088 
C 3155 2088 3290 2254 3290 2427 
C 3290 2695 2982 2816 2714 2816 
C 2323 2816 2106 2433 2048 2312 
C 1901 2816 1504 2816 1389 2816 
C 736 2816 390 1980 390 1839 
C 390 1814 416 1782 461 1782 
C 512 1782 525 1820 538 1846 
C 755 2555 1184 2689 1370 2689 
C 1658 2689 1715 2420 1715 2267 
C 1715 2127 1677 1980 1600 1673 
L 1382 798 
C 1286 415 1101 64 762 64 
C 730 64 570 64 435 147 
C 666 192 717 383 717 460 
C 717 588 621 664 499 664 
C 346 664 179 530 179 326 
C 179 57 480 -64 755 -64 
C 1062 -64 1280 179 1414 441 
C 1517 64 1837 -64 2074 -64 
C 2726 -64 3072 773 3072 913 
C 3072 945 3046 971 3008 971 
C 2950 971 2944 939 2925 888 
C 2752 326 2381 64 2093 64 
C 1869 64 1747 230 1747 492 
C 1747 632 1773 734 1875 1156 
L 2099 2024 
C 2195 2408 2413 2689 2707 2689 
C 2720 2689 2899 2689 3034 2606 
z
" transform="scale(0.015625)"/>
      </defs>
      <use xlink:href="#CMMI12-78" transform="scale(0.996264)"/>
     </g>
    </g>
   </g>
   <g id="matplotlib.axis_2">
    <g id="text_2">
     <!-- $y$ -->
     <g transform="translate(212.53332 17.634888) scale(0.26 -0.26)">
      <defs>
       <path id="CMMI12-79" d="M 1683 -700 
C 1510 -939 1261 -1152 947 -1152 
C 870 -1152 563 -1152 467 -889 
C 486 -895 518 -895 531 -895 
C 723 -895 851 -729 851 -582 
C 851 -435 730 -384 634 -384 
C 531 -384 307 -458 307 -759 
C 307 -1071 582 -1286 947 -1286 
C 1587 -1286 2234 -700 2413 6 
L 3040 2485 
C 3046 2517 3059 2556 3059 2594 
C 3059 2689 2982 2753 2886 2753 
C 2829 2753 2694 2727 2643 2535 
L 2170 658 
C 2138 543 2138 530 2086 460 
C 1958 281 1747 64 1440 64 
C 1082 64 1050 415 1050 588 
C 1050 952 1222 1443 1395 1903 
C 1466 2088 1504 2178 1504 2305 
C 1504 2574 1312 2816 998 2816 
C 410 2816 173 1890 173 1839 
C 173 1814 198 1782 243 1782 
C 301 1782 307 1807 333 1897 
C 486 2433 730 2689 979 2689 
C 1037 2689 1146 2689 1146 2478 
C 1146 2312 1075 2127 979 1884 
C 666 1047 666 837 666 683 
C 666 77 1101 -64 1421 -64 
C 1606 -64 1837 -6 2061 230 
L 2067 224 
C 1971 -147 1907 -392 1683 -700 
z
" transform="scale(0.015625)"/>
      </defs>
      <use xlink:href="#CMMI12-79" transform="scale(0.996264)"/>
     </g>
    </g>
   </g>
   <g id="line2d_1">
    <defs>
     <path id="m62a311941f" d="M 3 0 
L -3 -3 
L -3 3 
z
" style="stroke: #000000; stroke-linejoin: miter"/>
    </defs>
    <g>
     <use xlink:href="#m62a311941f" x="447" y="178.736607" style="stroke: #000000; stroke-linejoin: miter"/>
    </g>
   </g>
   <g id="line2d_2">
    <defs>
     <path id="m2085ac6718" d="M 0 -3 
L -3 3 
L 3 3 
z
" style="stroke: #000000; stroke-linejoin: miter"/>
    </defs>
    <g>
     <use xlink:href="#m2085ac6718" x="228.9" y="22.673214" style="stroke: #000000; stroke-linejoin: miter"/>
    </g>
   </g>
   <g id="line2d_3">
    <path d="M 10.8 179.082546 
L 20.919414 179.450645 
L 28.801905 179.953501 
L 35.299634 180.58582 
L 40.945201 181.355311 
L 45.951648 182.257946 
L 50.532015 183.30634 
L 54.792821 184.50778 
L 58.840586 185.881891 
L 62.675311 187.419225 
L 66.403516 189.156293 
L 70.025201 191.091492 
L 73.540366 193.217875 
L 77.055531 195.598998 
L 80.677216 198.324221 
L 84.405421 201.416379 
L 88.240147 204.888397 
L 92.394432 208.953268 
L 97.187839 213.965244 
L 104.431209 221.909464 
L 111.035458 229.04314 
L 114.870183 232.864031 
L 117.959267 235.634555 
L 120.622271 237.72555 
L 122.965714 239.284736 
L 125.096117 240.434522 
L 127.01348 241.222027 
L 128.824322 241.727101 
L 130.528645 241.971366 
L 132.126447 241.981078 
L 133.724249 241.764308 
L 135.215531 241.345744 
L 136.706813 240.707638 
L 138.198095 239.840061 
L 139.795897 238.64537 
L 141.3937 237.166257 
L 143.098022 235.264715 
L 144.802344 233.019696 
L 146.613187 230.249722 
L 148.530549 226.878223 
L 150.447912 223.052239 
L 152.471795 218.521648 
L 154.602198 213.214088 
L 156.945641 206.756287 
L 159.395604 199.345328 
L 162.165128 190.220771 
L 165.254212 179.227387 
L 168.875897 165.477593 
L 174.521465 143.032289 
L 180.060513 121.285489 
L 183.256117 109.606473 
L 185.812601 101.052204 
L 188.049524 94.316876 
L 189.966886 89.207675 
L 191.671209 85.250531 
L 193.269011 82.090741 
L 194.653773 79.816122 
L 195.932015 78.121903 
L 197.103736 76.926854 
L 198.168938 76.148678 
L 199.127619 75.706669 
L 200.0863 75.515165 
L 200.938462 75.559148 
L 201.790623 75.807752 
L 202.749304 76.334964 
L 203.707985 77.126761 
L 204.773187 78.318952 
L 205.838388 79.841042 
L 207.01011 81.895985 
L 208.288352 84.589685 
L 209.673114 88.033071 
L 211.164396 92.338817 
L 212.868718 97.992529 
L 214.67956 104.813253 
L 216.703443 113.356372 
L 218.940366 123.811289 
L 221.49685 136.86271 
L 224.692454 154.430052 
L 229.805421 184.017529 
L 234.811868 212.555596 
L 237.900952 228.89289 
L 240.457436 241.232176 
L 242.694359 250.939277 
L 244.611722 258.336484 
L 246.422564 264.469791 
L 248.020366 269.152943 
L 249.511648 272.883529 
L 250.89641 275.780473 
L 252.174652 277.962988 
L 253.346374 279.546535 
L 254.411575 280.63991 
L 255.370256 281.343275 
L 256.328938 281.78283 
L 257.287619 281.961467 
L 258.13978 281.904188 
L 259.098462 281.600711 
L 260.057143 281.049099 
L 261.122344 280.152295 
L 262.187546 278.965322 
L 263.359267 277.336313 
L 264.637509 275.189269 
L 266.128791 272.222683 
L 267.726593 268.529623 
L 269.537436 263.756043 
L 271.561319 257.762533 
L 273.904762 250.080637 
L 276.674286 240.180849 
L 280.189451 226.720832 
L 293.717509 173.984397 
L 296.806593 163.30071 
L 299.576117 154.502224 
L 302.132601 147.115591 
L 304.476044 141.008975 
L 306.712967 135.797286 
L 308.84337 131.405892 
L 310.867253 127.753944 
L 312.784615 124.758691 
L 314.595458 122.338662 
L 316.29978 120.41591 
L 318.004103 118.827845 
L 319.601905 117.633153 
L 321.199707 116.712501 
L 322.797509 116.054473 
L 324.395311 115.646778 
L 325.993114 115.4764 
L 327.590916 115.529747 
L 329.295238 115.81743 
L 331.106081 116.365034 
L 333.023443 117.193491 
L 335.047326 118.318102 
L 337.284249 119.825166 
L 339.734212 121.749256 
L 342.610256 124.307986 
L 346.018901 127.661089 
L 350.492747 132.405818 
L 365.831648 148.95005 
L 370.198974 153.183118 
L 374.14022 156.69816 
L 377.868425 159.732682 
L 381.49011 162.400938 
L 385.111795 164.793903 
L 388.73348 166.918679 
L 392.355165 168.787581 
L 396.08337 170.461158 
L 399.918095 171.938835 
L 403.965861 173.256526 
L 408.226667 174.40589 
L 412.807033 175.406388 
L 417.81348 176.265577 
L 423.352527 176.98423 
L 429.637216 177.569987 
L 437.093626 178.033053 
L 446.360879 178.373987 
L 447 178.390668 
L 447 178.390668 
" clip-path="url(#pa663f8ac6e)" style="fill: none; stroke: #0072b2; stroke-width: 3.5; stroke-linecap: square"/>
   </g>
   <g id="patch_3">
    <path d="M 228.9 334.8 
L 228.9 22.673214 
" style="fill: none; stroke: #000000; stroke-width: 0.8; stroke-linejoin: miter; stroke-linecap: square"/>
   </g>
   <g id="patch_4">
    <path d="M 447 334.8 
L 447 22.673214 
" style="fill: none"/>
   </g>
   <g id="patch_5">
    <path d="M 10.8 178.736607 
L 447 178.736607 
" style="fill: none; stroke: #000000; stroke-width: 0.8; stroke-linejoin: miter; stroke-linecap: square"/>
   </g>
   <g id="patch_6">
    <path d="M 10.8 22.673214 
L 447 22.673214 
" style="fill: none"/>
   </g>
   <g id="legend_1">
    <g id="patch_7">
     <path d="M 326.331923 79.711541 
L 428.8 79.711541 
Q 434 79.711541 434 74.511541 
L 434 40.873214 
Q 434 35.673214 428.8 35.673214 
L 326.331923 35.673214 
Q 321.131923 35.673214 321.131923 40.873214 
L 321.131923 74.511541 
Q 321.131923 79.711541 326.331923 79.711541 
z
" style="fill: #ffffff; opacity: 0.8; stroke: #cccccc; stroke-linejoin: miter"/>
    </g>
    <g id="line2d_4">
     <path d="M 331.531923 55.173214 
L 357.531923 55.173214 
L 383.531923 55.173214 
" style="fill: none; stroke: #0072b2; stroke-width: 3.5; stroke-linecap: square"/>
    </g>
    <g id="text_3">
     <!-- $B$ -->
     <g transform="translate(404.331923 64.273214) scale(0.26 -0.26)">
      <defs>
       <path id="CMMI12-42" d="M 2342 3921 
C 2400 4160 2426 4160 2675 4160 
L 3507 4160 
C 4230 4160 4230 3544 4230 3485 
C 4230 2966 3712 2304 2867 2304 
L 1946 2304 
L 2342 3921 
z
M 3424 2275 
C 4122 2402 4755 2886 4755 3473 
C 4755 3970 4314 4352 3590 4352 
L 1536 4352 
C 1414 4352 1357 4352 1357 4226 
C 1357 4160 1414 4160 1510 4160 
C 1901 4160 1901 4112 1901 4044 
C 1901 4032 1901 3993 1875 3897 
L 1011 472 
C 954 249 941 185 493 185 
C 371 185 307 185 307 70 
C 307 0 346 0 474 0 
L 2669 0 
C 3648 0 4403 739 4403 1383 
C 4403 1906 3942 2224 3424 2275 
z
M 2515 185 
L 1651 185 
C 1562 185 1549 185 1510 192 
C 1440 198 1434 211 1434 261 
C 1434 305 1446 343 1459 399 
L 1907 2176 
L 3110 2176 
C 3866 2176 3866 1483 3866 1433 
C 3866 828 3309 185 2515 185 
z
" transform="scale(0.015625)"/>
      </defs>
      <use xlink:href="#CMMI12-42" transform="scale(0.996264)"/>
     </g>
    </g>
   </g>
  </g>
 </g>
 <defs>
  <clipPath id="pa663f8ac6e">
   <rect x="10.8" y="22.673214" width="436.2" height="312.126786"/>
  </clipPath>
 </defs>
</svg>
