<?xml version="1.0" encoding="utf-8" standalone="no"?>
<!DOCTYPE svg PUBLIC "-//W3C//DTD SVG 1.1//EN"
  "http://www.w3.org/Graphics/SVG/1.1/DTD/svg11.dtd">
<svg xmlns:xlink="http://www.w3.org/1999/xlink" width="460.8pt" height="345.6pt" viewBox="0 0 460.8 345.6" xmlns="http://www.w3.org/2000/svg" version="1.1">
 <metadata>
  <rdf:RDF xmlns:dc="http://purl.org/dc/elements/1.1/" xmlns:cc="http://creativecommons.org/ns#" xmlns:rdf="http://www.w3.org/1999/02/22-rdf-syntax-ns#">
   <cc:Work>
    <dc:type rdf:resource="http://purl.org/dc/dcmitype/StillImage"/>
    <dc:date>2025-12-10T23:51:11.864703</dc:date>
    <dc:format>image/svg+xml</dc:format>
    <dc:creator>
     <cc:Agent>
      <dc:title>Matplotlib v3.9.1, https://matplotlib.org/</dc:title>
     </cc:Agent>
    </dc:creator>
   </cc:Work>
  </rdf:RDF>
 </metadata>
 <defs>
  <style type="text/css">*{stroke-linejoin: round; stroke-linecap: butt}</style>
 </defs>
 <g id="figure_1">
  <g id="patch_1">
   <path d="M 0 345.6 
L 460.8 345.6 
L 460.8 0 
L 0 0 
L 0 345.6 
z
" style="fill: none"/>
  </g>
  <g id="axes_1">
   <g id="patch_2">
    <path d="M 10.8 334.8 
L 447 334.8 
L 447 22.230394 
L 10.8 22.230394 
L 10.8 334.8 
z
" style="fill: none"/>
   </g>
   <g id="matplotlib.axis_1">
    <g id="text_1">
     <!-- $x$ -->
     <g transform="translate(433.141493 177.48505) scale(0.25 -0.25)">
      <defs>
       <path id="CMMI12-78" d="M 3034 2606 
C 2829 2567 2752 2414 2752 2293 
C 2752 2139 2874 2088 2963 2088 
C 3155 2088 3290 2254 3290 2427 
C 3290 2695 2982 2816 2714 2816 
C 2323 2816 2106 2433 2048 2312 
C 1901 2816 1504 2816 1389 2816 
C 736 2816 390 1980 390 1839 
C 390 1814 416 1782 461 1782 
C 512 1782 525 1820 538 1846 
C 755 2555 1184 2689 1370 2689 
C 1658 2689 1715 2420 1715 2267 
C 1715 2127 1677 1980 1600 1673 
L 1382 798 
C 1286 415 1101 64 762 64 
C 730 64 570 64 435 147 
C 666 192 717 383 717 460 
C 717 588 621 664 499 664 
C 346 664 179 530 179 326 
C 179 57 480 -64 755 -64 
C 1062 -64 1280 179 1414 441 
C 1517 64 1837 -64 2074 -64 
C 2726 -64 3072 773 3072 913 
C 3072 945 3046 971 3008 971 
C 2950 971 2944 939 2925 888 
C 2752 326 2381 64 2093 64 
C 1869 64 1747 230 1747 492 
C 1747 632 1773 734 1875 1156 
L 2099 2024 
C 2195 2408 2413 2689 2707 2689 
C 2720 2689 2899 2689 3034 2606 
z
" transform="scale(0.015625)"/>
      </defs>
      <use xlink:href="#CMMI12-78" transform="scale(0.996264)"/>
     </g>
    </g>
   </g>
   <g id="matplotlib.axis_2">
    <g id="text_2">
     <!-- $y$ -->
     <g transform="translate(213.008953 17.38586) scale(0.25 -0.25)">
      <defs>
       <path id="CMMI12-79" d="M 1683 -700 
C 1510 -939 1261 -1152 947 -1152 
C 870 -1152 563 -1152 467 -889 
C 486 -895 518 -895 531 -895 
C 723 -895 851 -729 851 -582 
C 851 -435 730 -384 634 -384 
C 531 -384 307 -458 307 -759 
C 307 -1071 582 -1286 947 -1286 
C 1587 -1286 2234 -700 2413 6 
L 3040 2485 
C 3046 2517 3059 2556 3059 2594 
C 3059 2689 2982 2753 2886 2753 
C 2829 2753 2694 2727 2643 2535 
L 2170 658 
C 2138 543 2138 530 2086 460 
C 1958 281 1747 64 1440 64 
C 1082 64 1050 415 1050 588 
C 1050 952 1222 1443 1395 1903 
C 1466 2088 1504 2178 1504 2305 
C 1504 2574 1312 2816 998 2816 
C 410 2816 173 1890 173 1839 
C 173 1814 198 1782 243 1782 
C 301 1782 307 1807 333 1897 
C 486 2433 730 2689 979 2689 
C 1037 2689 1146 2689 1146 2478 
C 1146 2312 1075 2127 979 1884 
C 666 1047 666 837 666 683 
C 666 77 1101 -64 1421 -64 
C 1606 -64 1837 -6 2061 230 
L 2067 224 
C 1971 -147 1907 -392 1683 -700 
z
" transform="scale(0.015625)"/>
      </defs>
      <use xlink:href="#CMMI12-79" transform="scale(0.996264)"/>
     </g>
    </g>
   </g>
   <g id="line2d_1">
    <defs>
     <path id="maaf3929c2a" d="M 3 0 
L -3 -3 
L -3 3 
z
" style="stroke: #000000; stroke-linejoin: miter"/>
    </defs>
    <g>
     <use xlink:href="#maaf3929c2a" x="447" y="156.188797" style="stroke: #000000; stroke-linejoin: miter"/>
    </g>
   </g>
   <g id="line2d_2">
    <defs>
     <path id="m37de843c18" d="M 0 -3 
L -3 3 
L 3 3 
z
" style="stroke: #000000; stroke-linejoin: miter"/>
    </defs>
    <g>
     <use xlink:href="#m37de843c18" x="228.9" y="22.230394" style="stroke: #000000; stroke-linejoin: miter"/>
    </g>
   </g>
   <g id="line2d_3">
    <path d="M 59.230831 -1 
L 61.92967 36.661627 
L 64.592674 70.884077 
L 67.255678 102.330617 
L 69.918681 131.139803 
L 72.475165 156.440547 
L 75.031648 179.550938 
L 77.481612 199.747473 
L 79.931575 218.13262 
L 82.275018 234.110122 
L 84.618462 248.596302 
L 86.855385 261.104352 
L 89.092308 272.390334 
L 91.329231 282.518311 
L 93.459634 291.144414 
L 95.483516 298.466352 
L 97.507399 304.982258 
L 99.424762 310.450239 
L 101.342125 315.268137 
L 103.152967 319.252347 
L 104.96381 322.715373 
L 106.668132 325.523126 
L 108.372454 327.915715 
L 109.970256 329.801006 
L 111.568059 331.357891 
L 113.165861 332.603364 
L 114.657143 333.499461 
L 116.148425 334.151856 
L 117.639707 334.573363 
L 119.130989 334.776483 
L 120.728791 334.765606 
L 122.326593 334.532599 
L 124.030916 334.055189 
L 125.841758 333.307353 
L 127.759121 332.266449 
L 129.783004 330.913835 
L 132.019927 329.145164 
L 134.46989 326.915505 
L 137.239414 324.076207 
L 140.328498 320.575282 
L 143.950183 316.115368 
L 148.424029 310.226956 
L 155.134799 300.975799 
L 165.041172 287.358504 
L 170.260659 280.582097 
L 174.734505 275.134952 
L 178.782271 270.552263 
L 182.510476 266.654739 
L 186.132161 263.185578 
L 189.647326 260.128944 
L 193.055971 257.462583 
L 196.358095 255.159864 
L 199.66022 253.130203 
L 202.962344 251.367645 
L 206.264469 249.86348 
L 209.566593 248.606676 
L 212.868718 247.584369 
L 216.277363 246.760078 
L 219.792527 246.138879 
L 223.414212 245.723816 
L 227.142418 245.517646 
L 230.977143 245.526893 
L 234.811868 245.761364 
L 238.433553 246.202378 
L 241.948718 246.850823 
L 245.357363 247.703589 
L 248.659487 248.75538 
L 251.961612 250.043413 
L 255.157216 251.526764 
L 258.352821 253.253009 
L 261.548425 255.229859 
L 264.850549 257.541451 
L 268.152674 260.128944 
L 271.561319 263.088416 
L 275.076484 266.441869 
L 278.698168 270.205671 
L 282.532894 274.512221 
L 286.687179 279.516272 
L 291.374066 285.522885 
L 297.019634 293.13847 
L 313.956337 316.251072 
L 317.791062 320.951753 
L 320.986667 324.53293 
L 323.75619 327.323526 
L 326.312674 329.590683 
L 328.549597 331.293683 
L 330.68 332.640543 
L 332.597363 333.598415 
L 334.408205 334.260874 
L 336.112527 334.651541 
L 337.71033 334.79742 
L 339.308132 334.715384 
L 340.799414 334.42018 
L 342.290696 333.90127 
L 343.781978 333.146019 
L 345.27326 332.141475 
L 346.764542 330.874361 
L 348.362344 329.209917 
L 349.960147 327.211307 
L 351.557949 324.860969 
L 353.262271 321.945971 
L 354.966593 318.587914 
L 356.777436 314.508833 
L 358.588278 309.875424 
L 360.505641 304.333057 
L 362.423004 298.101459 
L 364.446886 290.735899 
L 366.470769 282.518311 
L 368.601172 272.898377 
L 370.731575 262.230838 
L 372.968498 249.841984 
L 375.205421 236.171568 
L 377.548864 220.402089 
L 379.892308 203.072334 
L 382.235751 184.100419 
L 384.685714 162.419029 
L 387.135678 138.75221 
L 389.692161 111.829972 
L 392.248645 82.517299 
L 394.911648 49.310377 
L 397.574652 13.236876 
L 398.569169 -1 
L 398.569169 -1 
" clip-path="url(#p4076c2c734)" style="fill: none; stroke: #0072b2; stroke-width: 3; stroke-linecap: square"/>
   </g>
   <g id="patch_3">
    <path d="M 228.9 334.8 
L 228.9 22.230394 
" style="fill: none; stroke: #000000; stroke-width: 0.8; stroke-linejoin: miter; stroke-linecap: square"/>
   </g>
   <g id="patch_4">
    <path d="M 447 334.8 
L 447 22.230394 
" style="fill: none"/>
   </g>
   <g id="patch_5">
    <path d="M 10.8 156.188797 
L 447 156.188797 
" style="fill: none; stroke: #000000; stroke-width: 0.8; stroke-linejoin: miter; stroke-linecap: square"/>
   </g>
   <g id="patch_6">
    <path d="M 10.8 22.230394 
L 447 22.230394 
" style="fill: none"/>
   </g>
   <g id="legend_1">
    <g id="patch_7">
     <path d="M 183.06114 322.3 
L 274.73886 322.3 
Q 279.73886 322.3 279.73886 317.3 
L 279.73886 284.955466 
Q 279.73886 279.955466 274.73886 279.955466 
L 183.06114 279.955466 
Q 178.06114 279.955466 178.06114 284.955466 
L 178.06114 317.3 
Q 178.06114 322.3 183.06114 322.3 
z
" style="fill: #ffffff; opacity: 0.8; stroke: #cccccc; stroke-linejoin: miter"/>
    </g>
    <g id="line2d_4">
     <path d="M 188.06114 298.705466 
L 213.06114 298.705466 
L 238.06114 298.705466 
" style="fill: none; stroke: #0072b2; stroke-width: 3; stroke-linecap: square"/>
    </g>
    <g id="text_3">
     <!-- $g$ -->
     <g transform="translate(258.06114 307.455466) scale(0.25 -0.25)">
      <defs>
       <path id="CMMI12-67" d="M 2163 811 
C 2138 709 2125 683 2042 588 
C 1779 249 1510 128 1312 128 
C 1101 128 902 294 902 734 
C 902 1073 1094 1788 1235 2076 
C 1421 2433 1709 2689 1978 2689 
C 2400 2689 2483 2165 2483 2127 
L 2464 2037 
L 2163 811 
z
M 2560 2395 
C 2477 2580 2298 2816 1978 2816 
C 1280 2816 486 1941 486 990 
C 486 326 890 0 1299 0 
C 1638 0 1939 268 2054 396 
L 1914 -171 
C 1824 -516 1786 -674 1555 -894 
C 1293 -1152 1050 -1152 909 -1152 
C 717 -1152 557 -1139 397 -1089 
C 602 -1033 653 -858 653 -789 
C 653 -689 576 -588 435 -588 
C 282 -588 115 -714 115 -922 
C 115 -1180 378 -1280 922 -1280 
C 1747 -1280 2176 -753 2259 -410 
L 2970 2435 
C 2989 2511 2989 2524 2989 2536 
C 2989 2625 2918 2695 2822 2695 
C 2669 2695 2579 2567 2560 2395 
z
" transform="scale(0.015625)"/>
      </defs>
      <use xlink:href="#CMMI12-67" transform="scale(0.996264)"/>
     </g>
    </g>
   </g>
  </g>
 </g>
 <defs>
  <clipPath id="p4076c2c734">
   <rect x="10.8" y="22.230394" width="436.2" height="312.569606"/>
  </clipPath>
 </defs>
</svg>
