<?xml version="1.0" encoding="utf-8" standalone="no"?>
<!DOCTYPE svg PUBLIC "-//W3C//DTD SVG 1.1//EN"
  "http://www.w3.org/Graphics/SVG/1.1/DTD/svg11.dtd">
<svg xmlns:xlink="http://www.w3.org/1999/xlink" width="460.8pt" height="345.6pt" viewBox="0 0 460.8 345.6" xmlns="http://www.w3.org/2000/svg" version="1.1">
 <metadata>
  <rdf:RDF xmlns:dc="http://purl.org/dc/elements/1.1/" xmlns:cc="http://creativecommons.org/ns#" xmlns:rdf="http://www.w3.org/1999/02/22-rdf-syntax-ns#">
   <cc:Work>
    <dc:type rdf:resource="http://purl.org/dc/dcmitype/StillImage"/>
    <dc:date>2025-11-26T22:13:47.772428</dc:date>
    <dc:format>image/svg+xml</dc:format>
    <dc:creator>
     <cc:Agent>
      <dc:title>Matplotlib v3.9.1, https://matplotlib.org/</dc:title>
     </cc:Agent>
    </dc:creator>
   </cc:Work>
  </rdf:RDF>
 </metadata>
 <defs>
  <style type="text/css">*{stroke-linejoin: round; stroke-linecap: butt}</style>
 </defs>
 <g id="figure_1">
  <g id="patch_1">
   <path d="M 0 345.6 
L 460.8 345.6 
L 460.8 0 
L 0 0 
L 0 345.6 
z
" style="fill: none"/>
  </g>
  <g id="axes_1">
   <g id="patch_2">
    <path d="M 10.8 334.8 
L 447 334.8 
L 447 20.016315 
L 10.8 20.016315 
L 10.8 334.8 
z
" style="fill: none"/>
   </g>
   <g id="matplotlib.axis_1">
    <g id="xtick_1">
     <g id="line2d_1">
      <defs>
       <path id="m6485615fea" d="M 0 0 
L 0 3.5 
" style="stroke: #000000; stroke-width: 0.8"/>
      </defs>
      <g>
       <use xlink:href="#m6485615fea" x="83.5" y="177.408158" style="stroke: #000000; stroke-width: 0.8"/>
      </g>
     </g>
     <g id="text_1">
      <!-- $\mathdefault{−2}$ -->
      <g transform="translate(71.182209 198.245154) scale(0.2 -0.2)">
       <defs>
        <path id="CMSY10-0" d="M 4218 1472 
C 4326 1472 4442 1472 4442 1600 
C 4442 1728 4326 1728 4218 1728 
L 755 1728 
C 646 1728 531 1728 531 1600 
C 531 1472 646 1472 755 1472 
L 4218 1472 
z
" transform="scale(0.015625)"/>
        <path id="CMR17-32" d="M 2669 989 
L 2554 989 
C 2490 536 2438 459 2413 420 
C 2381 369 1920 369 1830 369 
L 602 369 
C 832 619 1280 1072 1824 1597 
C 2214 1967 2669 2402 2669 3035 
C 2669 3790 2067 4224 1395 4224 
C 691 4224 262 3604 262 3030 
C 262 2780 448 2748 525 2748 
C 589 2748 781 2787 781 3010 
C 781 3207 614 3264 525 3264 
C 486 3264 448 3258 422 3245 
C 544 3790 915 4058 1306 4058 
C 1862 4058 2227 3617 2227 3035 
C 2227 2479 1901 2000 1536 1584 
L 262 146 
L 262 0 
L 2515 0 
L 2669 989 
z
" transform="scale(0.015625)"/>
       </defs>
       <use xlink:href="#CMSY10-0" transform="scale(0.996264)"/>
       <use xlink:href="#CMR17-32" transform="translate(77.487468 0) scale(0.996264)"/>
      </g>
     </g>
    </g>
    <g id="xtick_2">
     <g id="line2d_2">
      <g>
       <use xlink:href="#m6485615fea" x="156.2" y="177.408158" style="stroke: #000000; stroke-width: 0.8"/>
      </g>
     </g>
     <g id="text_2">
      <!-- $\mathdefault{−1}$ -->
      <g transform="translate(143.882209 198.245154) scale(0.2 -0.2)">
       <defs>
        <path id="CMR17-31" d="M 1702 4058 
C 1702 4192 1696 4192 1606 4192 
C 1357 3916 979 3827 621 3827 
C 602 3827 570 3827 563 3808 
C 557 3795 557 3782 557 3648 
C 755 3648 1088 3686 1344 3839 
L 1344 461 
C 1344 236 1331 160 781 160 
L 589 160 
L 589 0 
C 896 0 1216 0 1523 0 
C 1830 0 2150 0 2458 0 
L 2458 160 
L 2266 160 
C 1715 160 1702 230 1702 458 
L 1702 4058 
z
" transform="scale(0.015625)"/>
       </defs>
       <use xlink:href="#CMSY10-0" transform="scale(0.996264)"/>
       <use xlink:href="#CMR17-31" transform="translate(77.487468 0) scale(0.996264)"/>
      </g>
     </g>
    </g>
    <g id="xtick_3">
     <g id="line2d_3">
      <g>
       <use xlink:href="#m6485615fea" x="301.6" y="177.408158" style="stroke: #000000; stroke-width: 0.8"/>
      </g>
     </g>
     <g id="text_3">
      <!-- $\mathdefault{1}$ -->
      <g transform="translate(297.030952 198.245154) scale(0.2 -0.2)">
       <use xlink:href="#CMR17-31" transform="scale(0.996264)"/>
      </g>
     </g>
    </g>
    <g id="xtick_4">
     <g id="line2d_4">
      <g>
       <use xlink:href="#m6485615fea" x="374.3" y="177.408158" style="stroke: #000000; stroke-width: 0.8"/>
      </g>
     </g>
     <g id="text_4">
      <!-- $\mathdefault{2}$ -->
      <g transform="translate(369.730952 198.245154) scale(0.2 -0.2)">
       <use xlink:href="#CMR17-32" transform="scale(0.996264)"/>
      </g>
     </g>
    </g>
    <g id="text_5">
     <!-- $x$ -->
     <g transform="translate(435.913188 219.957785) scale(0.2 -0.2)">
      <defs>
       <path id="CMMI12-78" d="M 3034 2606 
C 2829 2567 2752 2414 2752 2293 
C 2752 2139 2874 2088 2963 2088 
C 3155 2088 3290 2254 3290 2427 
C 3290 2695 2982 2816 2714 2816 
C 2323 2816 2106 2433 2048 2312 
C 1901 2816 1504 2816 1389 2816 
C 736 2816 390 1980 390 1839 
C 390 1814 416 1782 461 1782 
C 512 1782 525 1820 538 1846 
C 755 2555 1184 2689 1370 2689 
C 1658 2689 1715 2420 1715 2267 
C 1715 2127 1677 1980 1600 1673 
L 1382 798 
C 1286 415 1101 64 762 64 
C 730 64 570 64 435 147 
C 666 192 717 383 717 460 
C 717 588 621 664 499 664 
C 346 664 179 530 179 326 
C 179 57 480 -64 755 -64 
C 1062 -64 1280 179 1414 441 
C 1517 64 1837 -64 2074 -64 
C 2726 -64 3072 773 3072 913 
C 3072 945 3046 971 3008 971 
C 2950 971 2944 939 2925 888 
C 2752 326 2381 64 2093 64 
C 1869 64 1747 230 1747 492 
C 1747 632 1773 734 1875 1156 
L 2099 2024 
C 2195 2408 2413 2689 2707 2689 
C 2720 2689 2899 2689 3034 2606 
z
" transform="scale(0.015625)"/>
      </defs>
      <use xlink:href="#CMMI12-78" transform="scale(0.996264)"/>
     </g>
    </g>
   </g>
   <g id="matplotlib.axis_2">
    <g id="text_6">
     <!-- $y$ -->
     <g transform="translate(215.387165 16.140682) scale(0.2 -0.2)">
      <defs>
       <path id="CMMI12-79" d="M 1683 -700 
C 1510 -939 1261 -1152 947 -1152 
C 870 -1152 563 -1152 467 -889 
C 486 -895 518 -895 531 -895 
C 723 -895 851 -729 851 -582 
C 851 -435 730 -384 634 -384 
C 531 -384 307 -458 307 -759 
C 307 -1071 582 -1286 947 -1286 
C 1587 -1286 2234 -700 2413 6 
L 3040 2485 
C 3046 2517 3059 2556 3059 2594 
C 3059 2689 2982 2753 2886 2753 
C 2829 2753 2694 2727 2643 2535 
L 2170 658 
C 2138 543 2138 530 2086 460 
C 1958 281 1747 64 1440 64 
C 1082 64 1050 415 1050 588 
C 1050 952 1222 1443 1395 1903 
C 1466 2088 1504 2178 1504 2305 
C 1504 2574 1312 2816 998 2816 
C 410 2816 173 1890 173 1839 
C 173 1814 198 1782 243 1782 
C 301 1782 307 1807 333 1897 
C 486 2433 730 2689 979 2689 
C 1037 2689 1146 2689 1146 2478 
C 1146 2312 1075 2127 979 1884 
C 666 1047 666 837 666 683 
C 666 77 1101 -64 1421 -64 
C 1606 -64 1837 -6 2061 230 
L 2067 224 
C 1971 -147 1907 -392 1683 -700 
z
" transform="scale(0.015625)"/>
      </defs>
      <use xlink:href="#CMMI12-79" transform="scale(0.996264)"/>
     </g>
    </g>
   </g>
   <g id="line2d_5">
    <defs>
     <path id="m7dc698ae52" d="M 3 0 
L -3 -3 
L -3 3 
z
" style="stroke: #000000; stroke-linejoin: miter"/>
    </defs>
    <g>
     <use xlink:href="#m7dc698ae52" x="447" y="177.408158" style="stroke: #000000; stroke-linejoin: miter"/>
    </g>
   </g>
   <g id="line2d_6">
    <defs>
     <path id="me504d79384" d="M 0 -3 
L -3 3 
L 3 3 
z
" style="stroke: #000000; stroke-linejoin: miter"/>
    </defs>
    <g>
     <use xlink:href="#me504d79384" x="228.9" y="20.016315" style="stroke: #000000; stroke-linejoin: miter"/>
    </g>
   </g>
   <g id="line2d_7">
    <path d="M 10.8 186.625641 
L 65.870916 189.971968 
L 75.031648 190.207648 
L 82.381538 190.182482 
L 88.559707 189.947562 
L 93.992234 189.524244 
L 98.785641 188.93519 
L 103.152967 188.18082 
L 107.200733 187.258037 
L 110.928938 186.182897 
L 114.444103 184.938779 
L 117.746227 183.535978 
L 120.941832 181.932939 
L 123.924396 180.19164 
L 126.80044 178.262562 
L 129.676484 176.06187 
L 132.446007 173.660442 
L 135.215531 170.956295 
L 137.878535 168.046336 
L 140.541538 164.808928 
L 143.204542 161.22111 
L 145.867546 157.261093 
L 148.530549 152.90922 
L 151.300073 147.950101 
L 154.069597 142.536777 
L 156.945641 136.429396 
L 160.034725 129.326279 
L 163.33685 121.144421 
L 166.958535 111.556397 
L 171.645421 98.461187 
L 179.634432 76.061302 
L 182.403956 68.997344 
L 184.640879 63.868889 
L 186.451722 60.228764 
L 188.049524 57.488494 
L 189.434286 55.534991 
L 190.606007 54.230179 
L 191.671209 53.351808 
L 192.62989 52.834935 
L 193.482051 52.610086 
L 194.334212 52.621153 
L 195.186374 52.882942 
L 196.038535 53.410519 
L 196.890696 54.219179 
L 197.742857 55.324425 
L 198.701538 56.941873 
L 199.76674 59.230038 
L 200.831941 62.065318 
L 202.003663 65.853819 
L 203.175385 70.385233 
L 204.453626 76.226695 
L 205.838388 83.677213 
L 207.22315 92.368328 
L 208.714432 103.206636 
L 210.205714 115.6839 
L 211.803516 131.010862 
L 213.401319 148.54192 
L 214.999121 168.51069 
L 216.596923 191.237322 
L 218.194725 217.188311 
L 219.686007 244.949821 
L 221.070769 274.624503 
L 222.349011 306.450247 
L 223.520733 340.845964 
L 223.697248 346.6 
M 234.102752 346.6 
L 235.344469 309.342503 
L 236.729231 274.624503 
L 238.220513 242.835544 
L 239.818315 213.519456 
L 241.522637 186.451759 
L 243.22696 162.931251 
L 244.931282 142.440286 
L 246.635604 124.62665 
L 248.233407 110.128372 
L 249.831209 97.589623 
L 251.322491 87.52965 
L 252.813773 78.950331 
L 254.198535 72.225633 
L 255.476777 67.014176 
L 256.755018 62.700806 
L 257.92674 59.488426 
L 258.991941 57.146965 
L 260.057143 55.324425 
L 261.015824 54.102197 
L 261.867985 53.329516 
L 262.720147 52.835994 
L 263.572308 52.606364 
L 264.424469 52.625591 
L 265.27663 52.878902 
L 266.235311 53.425652 
L 267.193993 54.230179 
L 268.259194 55.402589 
L 269.537436 57.160975 
L 270.922198 59.451295 
L 272.52 62.52568 
L 274.437363 66.724567 
L 276.674286 72.176068 
L 279.55033 79.802085 
L 284.024176 92.386195 
L 291.161026 112.424815 
L 294.995751 122.502834 
L 298.404396 130.841013 
L 301.49348 137.829248 
L 304.476044 144.039334 
L 307.352088 149.523901 
L 310.121612 154.345529 
L 312.891136 158.730872 
L 315.660659 162.699717 
L 318.430183 166.275218 
L 321.199707 169.482544 
L 323.969231 172.347832 
L 326.738755 174.897383 
L 329.614799 177.23853 
L 332.490842 179.295057 
L 335.473407 181.15558 
L 338.562491 182.819783 
L 341.758095 184.290229 
L 345.16674 185.609674 
L 348.788425 186.765 
L 352.62315 187.748781 
L 356.777436 188.577423 
L 361.251282 189.23829 
L 366.151209 189.735382 
L 371.690256 190.068397 
L 377.974945 190.218297 
L 385.431355 190.164605 
L 394.592088 189.864009 
L 406.841905 189.222898 
L 428.785055 187.80854 
L 447 186.625641 
L 447 186.625641 
" clip-path="url(#p79e797f7bd)" style="fill: none; stroke: #0072b2; stroke-width: 2.5; stroke-linecap: square"/>
   </g>
   <g id="patch_3">
    <path d="M 228.9 334.8 
L 228.9 20.016315 
" style="fill: none; stroke: #000000; stroke-width: 0.8; stroke-linejoin: miter; stroke-linecap: square"/>
   </g>
   <g id="patch_4">
    <path d="M 447 334.8 
L 447 20.016315 
" style="fill: none"/>
   </g>
   <g id="patch_5">
    <path d="M 10.8 177.408158 
L 447 177.408158 
" style="fill: none; stroke: #000000; stroke-width: 0.8; stroke-linejoin: miter; stroke-linecap: square"/>
   </g>
   <g id="patch_6">
    <path d="M 10.8 20.016315 
L 447 20.016315 
" style="fill: none"/>
   </g>
   <g id="legend_1">
    <g id="patch_7">
     <path d="M 355.041602 63.891949 
L 433 63.891949 
Q 437 63.891949 437 59.891949 
L 437 34.016315 
Q 437 30.016315 433 30.016315 
L 355.041602 30.016315 
Q 351.041602 30.016315 351.041602 34.016315 
L 351.041602 59.891949 
Q 351.041602 63.891949 355.041602 63.891949 
z
" style="fill: #ffffff; opacity: 0.8; stroke: #cccccc; stroke-linejoin: miter"/>
    </g>
    <g id="line2d_8">
     <path d="M 359.041602 45.016315 
L 379.041602 45.016315 
L 399.041602 45.016315 
" style="fill: none; stroke: #0072b2; stroke-width: 2.5; stroke-linecap: square"/>
    </g>
    <g id="text_7">
     <!-- $C$ -->
     <g transform="translate(415.041602 52.016315) scale(0.2 -0.2)">
      <defs>
       <path id="CMMI12-43" d="M 4781 4423 
C 4781 4480 4736 4480 4723 4480 
C 4710 4480 4685 4480 4634 4416 
L 4192 3882 
C 3968 4264 3616 4480 3136 4480 
C 1754 4480 320 3088 320 1595 
C 320 533 1069 -128 2003 -128 
C 2515 -128 2963 88 3334 400 
C 3891 863 4058 1481 4058 1531 
C 4058 1588 4006 1588 3987 1588 
C 3930 1588 3923 1550 3910 1524 
C 3616 534 2752 57 2112 57 
C 1434 57 845 489 845 1391 
C 845 1595 909 2700 1632 3532 
C 1984 3939 2586 4295 3194 4295 
C 3898 4295 4211 3717 4211 3068 
C 4211 2903 4192 2764 4192 2738 
C 4192 2681 4256 2681 4275 2681 
C 4346 2681 4352 2687 4378 2801 
L 4781 4423 
z
" transform="scale(0.015625)"/>
      </defs>
      <use xlink:href="#CMMI12-43" transform="scale(0.996264)"/>
     </g>
    </g>
   </g>
  </g>
 </g>
 <defs>
  <clipPath id="p79e797f7bd">
   <rect x="10.8" y="20.016315" width="436.2" height="314.783685"/>
  </clipPath>
 </defs>
</svg>
