<?xml version="1.0" encoding="utf-8" standalone="no"?>
<!DOCTYPE svg PUBLIC "-//W3C//DTD SVG 1.1//EN"
  "http://www.w3.org/Graphics/SVG/1.1/DTD/svg11.dtd">
<svg xmlns:xlink="http://www.w3.org/1999/xlink" width="460.8pt" height="345.6pt" viewBox="0 0 460.8 345.6" xmlns="http://www.w3.org/2000/svg" version="1.1">
 <metadata>
  <rdf:RDF xmlns:dc="http://purl.org/dc/elements/1.1/" xmlns:cc="http://creativecommons.org/ns#" xmlns:rdf="http://www.w3.org/1999/02/22-rdf-syntax-ns#">
   <cc:Work>
    <dc:type rdf:resource="http://purl.org/dc/dcmitype/StillImage"/>
    <dc:date>2026-04-25T15:21:11.156426</dc:date>
    <dc:format>image/svg+xml</dc:format>
    <dc:creator>
     <cc:Agent>
      <dc:title>Matplotlib v3.10.8, https://matplotlib.org/</dc:title>
     </cc:Agent>
    </dc:creator>
   </cc:Work>
  </rdf:RDF>
 </metadata>
 <defs>
  <style type="text/css">*{stroke-linejoin: round; stroke-linecap: butt}</style>
 </defs>
 <g id="figure_1">
  <g id="patch_1">
   <path d="M 0 345.6 
L 460.8 345.6 
L 460.8 0 
L 0 0 
L 0 345.6 
z
" style="fill: none"/>
  </g>
  <g id="axes_1">
   <g id="patch_2">
    <path d="M 10.8 320.149646 
L 447 320.149646 
L 447 23.55884 
L 10.8 23.55884 
L 10.8 320.149646 
z
" style="fill: none"/>
   </g>
   <g id="matplotlib.axis_1">
    <g id="text_1">
     <!-- $x$ -->
     <g transform="translate(431.478463 330.040044) scale(0.28 -0.28)">
      <defs>
       <path id="CMMI12-78" d="M 3034 2606 
C 2829 2567 2752 2414 2752 2293 
C 2752 2139 2874 2088 2963 2088 
C 3155 2088 3290 2254 3290 2427 
C 3290 2695 2982 2816 2714 2816 
C 2323 2816 2106 2433 2048 2312 
C 1901 2816 1504 2816 1389 2816 
C 736 2816 390 1980 390 1839 
C 390 1814 416 1782 461 1782 
C 512 1782 525 1820 538 1846 
C 755 2555 1184 2689 1370 2689 
C 1658 2689 1715 2420 1715 2267 
C 1715 2127 1677 1980 1600 1673 
L 1382 798 
C 1286 415 1101 64 762 64 
C 730 64 570 64 435 147 
C 666 192 717 383 717 460 
C 717 588 621 664 499 664 
C 346 664 179 530 179 326 
C 179 57 480 -64 755 -64 
C 1062 -64 1280 179 1414 441 
C 1517 64 1837 -64 2074 -64 
C 2726 -64 3072 773 3072 913 
C 3072 945 3046 971 3008 971 
C 2950 971 2944 939 2925 888 
C 2752 326 2381 64 2093 64 
C 1869 64 1747 230 1747 492 
C 1747 632 1773 734 1875 1156 
L 2099 2024 
C 2195 2408 2413 2689 2707 2689 
C 2720 2689 2899 2689 3034 2606 
z
" transform="scale(0.015625)"/>
      </defs>
      <use xlink:href="#CMMI12-78" transform="scale(0.996264)"/>
     </g>
    </g>
   </g>
   <g id="matplotlib.axis_2">
    <g id="text_2">
     <!-- $y$ -->
     <g transform="translate(76.768035 18.132959) scale(0.28 -0.28)">
      <defs>
       <path id="CMMI12-79" d="M 1683 -700 
C 1510 -939 1261 -1152 947 -1152 
C 870 -1152 563 -1152 467 -889 
C 486 -895 518 -895 531 -895 
C 723 -895 851 -729 851 -582 
C 851 -435 730 -384 634 -384 
C 531 -384 307 -458 307 -759 
C 307 -1071 582 -1286 947 -1286 
C 1587 -1286 2234 -700 2413 6 
L 3040 2485 
C 3046 2517 3059 2556 3059 2594 
C 3059 2689 2982 2753 2886 2753 
C 2829 2753 2694 2727 2643 2535 
L 2170 658 
C 2138 543 2138 530 2086 460 
C 1958 281 1747 64 1440 64 
C 1082 64 1050 415 1050 588 
C 1050 952 1222 1443 1395 1903 
C 1466 2088 1504 2178 1504 2305 
C 1504 2574 1312 2816 998 2816 
C 410 2816 173 1890 173 1839 
C 173 1814 198 1782 243 1782 
C 301 1782 307 1807 333 1897 
C 486 2433 730 2689 979 2689 
C 1037 2689 1146 2689 1146 2478 
C 1146 2312 1075 2127 979 1884 
C 666 1047 666 837 666 683 
C 666 77 1101 -64 1421 -64 
C 1606 -64 1837 -6 2061 230 
L 2067 224 
C 1971 -147 1907 -392 1683 -700 
z
" transform="scale(0.015625)"/>
      </defs>
      <use xlink:href="#CMMI12-79" transform="scale(0.996264)"/>
     </g>
    </g>
   </g>
   <g id="line2d_1">
    <defs>
     <path id="m6d603125bc" d="M 3 0 
L -3 -3 
L -3 3 
z
" style="stroke: #000000; stroke-linejoin: miter"/>
    </defs>
    <g>
     <use xlink:href="#m6d603125bc" x="447" y="306.668246" style="stroke: #000000; stroke-linejoin: miter"/>
    </g>
   </g>
   <g id="line2d_2">
    <defs>
     <path id="m54fcb0b6df" d="M 0 -3 
L -3 3 
L 3 3 
z
" style="stroke: #000000; stroke-linejoin: miter"/>
    </defs>
    <g>
     <use xlink:href="#m54fcb0b6df" x="94.085997" y="23.55884" style="stroke: #000000; stroke-linejoin: miter"/>
    </g>
   </g>
   <g id="line2d_3">
    <path d="M 94.085997 37.04024 
L 101.821159 37.151217 
L 109.556322 37.484423 
L 117.275026 38.039263 
L 124.977273 38.815692 
L 132.646604 39.81184 
L 140.283019 41.027329 
L 147.886519 42.462331 
L 155.440646 44.11374 
L 162.945399 45.981376 
L 170.400778 48.065625 
L 177.790327 50.362088 
L 185.114044 52.870775 
L 192.355473 55.585846 
L 199.514612 58.50687 
L 206.591463 61.634 
L 213.586025 64.968008 
L 220.481839 68.501597 
L 227.26245 72.225728 
L 233.944313 76.149455 
L 240.510972 80.263767 
L 246.945969 84.557709 
L 253.265761 89.042272 
L 259.453891 93.706462 
L 265.4939 98.537056 
L 271.402248 103.547078 
L 277.162475 108.72314 
L 282.774582 114.06534 
L 288.222111 119.557501 
L 293.505062 125.198419 
L 298.639893 131.006739 
L 303.593689 136.945564 
L 308.382906 143.034214 
L 312.991088 149.252164 
L 317.418234 155.598813 
L 321.664344 162.074479 
L 325.712961 168.652989 
L 329.580542 175.361046 
L 333.25063 182.171098 
L 336.723224 189.082372 
L 339.998325 196.095244 
L 343.075932 203.211617 
L 345.939588 210.392442 
L 348.60575 217.679724 
L 351.057961 225.030807 
L 353.296221 232.443442 
L 355.320529 239.91661 
L 357.130886 247.45129 
L 358.727292 255.051905 
L 360.093289 262.629827 
L 361.245334 270.265634 
L 362.183428 277.979765 
L 362.891113 285.618994 
L 363.384847 293.349427 
L 363.648172 300.710434 
L 363.714003 306.668246 
L 363.714003 306.668246 
" clip-path="url(#p038c2d4f83)" style="fill: none; stroke: #0072b2; stroke-width: 2.5; stroke-linecap: square"/>
   </g>
   <g id="line2d_4">
    <path d="M 282.825601 306.668246 
L 282.825601 114.115335 
" clip-path="url(#p038c2d4f83)" style="fill: none; stroke: #000000; stroke-width: 2.5; stroke-linecap: square"/>
   </g>
   <g id="line2d_5">
    <path d="M 94.085997 114.115335 
L 282.825601 114.115335 
" clip-path="url(#p038c2d4f83)" style="fill: none; stroke: #000000; stroke-width: 2.5; stroke-linecap: square"/>
   </g>
   <g id="line2d_6">
    <path d="M 94.085997 306.668246 
L 94.085997 114.115335 
" clip-path="url(#p038c2d4f83)" style="fill: none; stroke: #000000; stroke-width: 2.5; stroke-linecap: square"/>
   </g>
   <g id="line2d_7">
    <path d="M 94.085997 306.668246 
L 282.825601 306.668246 
" clip-path="url(#p038c2d4f83)" style="fill: none; stroke: #000000; stroke-width: 2.5; stroke-linecap: square"/>
   </g>
   <g id="patch_3">
    <path d="M 94.085997 320.149646 
L 94.085997 23.55884 
" style="fill: none; stroke: #000000; stroke-width: 0.8; stroke-linejoin: miter; stroke-linecap: square"/>
   </g>
   <g id="patch_4">
    <path d="M 447 320.149646 
L 447 23.55884 
" style="fill: none"/>
   </g>
   <g id="patch_5">
    <path d="M 10.8 306.668246 
L 447 306.668246 
" style="fill: none; stroke: #000000; stroke-width: 0.8; stroke-linejoin: miter; stroke-linecap: square"/>
   </g>
   <g id="patch_6">
    <path d="M 10.8 23.55884 
L 447 23.55884 
" style="fill: none"/>
   </g>
  </g>
 </g>
 <defs>
  <clipPath id="p038c2d4f83">
   <rect x="10.8" y="23.55884" width="436.2" height="296.590806"/>
  </clipPath>
 </defs>
</svg>
