<?xml version="1.0" encoding="utf-8" standalone="no"?>
<!DOCTYPE svg PUBLIC "-//W3C//DTD SVG 1.1//EN"
  "http://www.w3.org/Graphics/SVG/1.1/DTD/svg11.dtd">
<svg xmlns:xlink="http://www.w3.org/1999/xlink" width="460.8pt" height="345.6pt" viewBox="0 0 460.8 345.6" xmlns="http://www.w3.org/2000/svg" version="1.1">
 <metadata>
  <rdf:RDF xmlns:dc="http://purl.org/dc/elements/1.1/" xmlns:cc="http://creativecommons.org/ns#" xmlns:rdf="http://www.w3.org/1999/02/22-rdf-syntax-ns#">
   <cc:Work>
    <dc:type rdf:resource="http://purl.org/dc/dcmitype/StillImage"/>
    <dc:date>2025-11-15T15:34:46.630351</dc:date>
    <dc:format>image/svg+xml</dc:format>
    <dc:creator>
     <cc:Agent>
      <dc:title>Matplotlib v3.9.1, https://matplotlib.org/</dc:title>
     </cc:Agent>
    </dc:creator>
   </cc:Work>
  </rdf:RDF>
 </metadata>
 <defs>
  <style type="text/css">*{stroke-linejoin: round; stroke-linecap: butt}</style>
 </defs>
 <g id="figure_1">
  <g id="patch_1">
   <path d="M 0 345.6 
L 460.8 345.6 
L 460.8 0 
L 0 0 
L 0 345.6 
z
" style="fill: none"/>
  </g>
  <g id="axes_1">
   <g id="patch_2">
    <path d="M 10.8 334.8 
L 435.509731 334.8 
L 435.509731 20.016315 
L 10.8 20.016315 
L 10.8 334.8 
z
" style="fill: none"/>
   </g>
   <g id="patch_3">
    <path d="M 270.344835 194.89614 
L 284.501826 194.89614 
L 284.501826 177.408158 
L 270.344835 177.408158 
z
" clip-path="url(#p8298b23934)" style="fill: #0072b2; opacity: 0.05; stroke: #0072b2; stroke-linejoin: miter"/>
   </g>
   <g id="matplotlib.axis_1">
    <g id="text_1">
     <!-- $x$ -->
     <g transform="translate(424.422919 317.661032) scale(0.2 -0.2)">
      <defs>
       <path id="CMMI12-78" d="M 3034 2606 
C 2829 2567 2752 2414 2752 2293 
C 2752 2139 2874 2088 2963 2088 
C 3155 2088 3290 2254 3290 2427 
C 3290 2695 2982 2816 2714 2816 
C 2323 2816 2106 2433 2048 2312 
C 1901 2816 1504 2816 1389 2816 
C 736 2816 390 1980 390 1839 
C 390 1814 416 1782 461 1782 
C 512 1782 525 1820 538 1846 
C 755 2555 1184 2689 1370 2689 
C 1658 2689 1715 2420 1715 2267 
C 1715 2127 1677 1980 1600 1673 
L 1382 798 
C 1286 415 1101 64 762 64 
C 730 64 570 64 435 147 
C 666 192 717 383 717 460 
C 717 588 621 664 499 664 
C 346 664 179 530 179 326 
C 179 57 480 -64 755 -64 
C 1062 -64 1280 179 1414 441 
C 1517 64 1837 -64 2074 -64 
C 2726 -64 3072 773 3072 913 
C 3072 945 3046 971 3008 971 
C 2950 971 2944 939 2925 888 
C 2752 326 2381 64 2093 64 
C 1869 64 1747 230 1747 492 
C 1747 632 1773 734 1875 1156 
L 2099 2024 
C 2195 2408 2413 2689 2707 2689 
C 2720 2689 2899 2689 3034 2606 
z
" transform="scale(0.015625)"/>
      </defs>
      <use xlink:href="#CMMI12-78" transform="scale(0.996264)"/>
     </g>
    </g>
   </g>
   <g id="matplotlib.axis_2">
    <g id="text_2">
     <!-- $y$ -->
     <g transform="translate(138.857076 16.140682) scale(0.2 -0.2)">
      <defs>
       <path id="CMMI12-79" d="M 1683 -700 
C 1510 -939 1261 -1152 947 -1152 
C 870 -1152 563 -1152 467 -889 
C 486 -895 518 -895 531 -895 
C 723 -895 851 -729 851 -582 
C 851 -435 730 -384 634 -384 
C 531 -384 307 -458 307 -759 
C 307 -1071 582 -1286 947 -1286 
C 1587 -1286 2234 -700 2413 6 
L 3040 2485 
C 3046 2517 3059 2556 3059 2594 
C 3059 2689 2982 2753 2886 2753 
C 2829 2753 2694 2727 2643 2535 
L 2170 658 
C 2138 543 2138 530 2086 460 
C 1958 281 1747 64 1440 64 
C 1082 64 1050 415 1050 588 
C 1050 952 1222 1443 1395 1903 
C 1466 2088 1504 2178 1504 2305 
C 1504 2574 1312 2816 998 2816 
C 410 2816 173 1890 173 1839 
C 173 1814 198 1782 243 1782 
C 301 1782 307 1807 333 1897 
C 486 2433 730 2689 979 2689 
C 1037 2689 1146 2689 1146 2478 
C 1146 2312 1075 2127 979 1884 
C 666 1047 666 837 666 683 
C 666 77 1101 -64 1421 -64 
C 1606 -64 1837 -6 2061 230 
L 2067 224 
C 1971 -147 1907 -392 1683 -700 
z
" transform="scale(0.015625)"/>
      </defs>
      <use xlink:href="#CMMI12-79" transform="scale(0.996264)"/>
     </g>
    </g>
   </g>
   <g id="line2d_1">
    <defs>
     <path id="m60a8b3a145" d="M 3 0 
L -3 -3 
L -3 3 
z
" style="stroke: #000000; stroke-linejoin: miter"/>
    </defs>
    <g>
     <use xlink:href="#m60a8b3a145" x="435.509731" y="299.824035" style="stroke: #000000; stroke-linejoin: miter"/>
    </g>
   </g>
   <g id="line2d_2">
    <defs>
     <path id="mdc8ab1b466" d="M 0 -3 
L -3 3 
L 3 3 
z
" style="stroke: #000000; stroke-linejoin: miter"/>
    </defs>
    <g>
     <use xlink:href="#mdc8ab1b466" x="152.36991" y="20.016315" style="stroke: #000000; stroke-linejoin: miter"/>
    </g>
   </g>
   <g id="line2d_3">
    <path d="M 13.974692 -1 
L 19.511994 22.590877 
L 25.008848 45.056758 
L 30.401988 66.176311 
L 35.691413 86.002247 
L 40.877124 104.586264 
L 45.959121 121.979046 
L 50.937403 138.230262 
L 55.811971 153.388569 
L 60.582826 167.501609 
L 65.249965 180.616012 
L 69.813391 192.777393 
L 74.273103 204.030353 
L 78.6291 214.418481 
L 82.881383 223.984351 
L 87.029952 232.769522 
L 91.074806 240.814543 
L 95.015947 248.158947 
L 98.853373 254.841253 
L 102.587085 260.898966 
L 106.217082 266.368581 
L 109.743366 271.285574 
L 113.165935 275.68441 
L 116.48479 279.598542 
L 119.699931 283.060407 
L 122.915072 286.197558 
L 126.026498 288.92434 
L 129.034211 291.271163 
L 132.041923 293.33382 
L 134.945921 295.055714 
L 137.746205 296.465227 
L 140.546489 297.628418 
L 143.243059 298.51572 
L 145.939629 299.174608 
L 148.636198 299.605082 
L 151.332768 299.80714 
L 154.029338 299.780785 
L 156.725907 299.526015 
L 159.422477 299.042831 
L 162.119047 298.331232 
L 164.815617 297.391218 
L 167.615901 296.173289 
L 170.416184 294.709038 
L 173.320183 292.930378 
L 176.224181 290.886812 
L 179.231893 288.490995 
L 182.239606 285.81101 
L 185.351032 282.739579 
L 188.566173 279.246291 
L 191.885028 275.299721 
L 195.203883 271.007151 
L 198.626452 266.21805 
L 202.152736 260.898966 
L 205.782733 255.015436 
L 209.516445 248.531979 
L 213.353872 241.412104 
L 217.295012 233.618305 
L 221.339866 225.112062 
L 225.488435 215.853843 
L 229.740718 205.8031 
L 234.096716 194.918272 
L 238.556427 183.156785 
L 243.119853 170.475052 
L 247.786993 156.82847 
L 252.557847 142.171425 
L 257.432415 126.457287 
L 262.410698 109.638414 
L 267.492694 91.666149 
L 272.678405 72.490822 
L 277.967831 52.06175 
L 283.36097 30.327235 
L 288.857824 7.234566 
L 290.765129 -1 
L 290.765129 -1 
" clip-path="url(#p8298b23934)" style="fill: none; stroke: #0072b2; stroke-width: 2.5; stroke-linecap: square"/>
   </g>
   <g id="line2d_4">
    <path d="M 388.319761 194.89614 
L 270.344835 81.224254 
" clip-path="url(#p8298b23934)" style="fill: none; stroke: #dc5e8b; stroke-width: 2.5; stroke-linecap: square"/>
   </g>
   <g id="LineCollection_1">
    <path d="M 270.344835 194.89614 
L 270.344835 81.224254 
" clip-path="url(#p8298b23934)" style="fill: none; stroke-dasharray: 9.25,4; stroke-dashoffset: 0; stroke: #808080; stroke-width: 2.5"/>
   </g>
   <g id="LineCollection_2">
    <path d="M 270.344835 194.89614 
L 388.319761 194.89614 
" clip-path="url(#p8298b23934)" style="fill: none; stroke-dasharray: 9.25,4; stroke-dashoffset: 0; stroke: #808080; stroke-width: 2.5"/>
   </g>
   <g id="line2d_5">
    <path d="M 270.344835 194.89614 
L 284.501826 194.89614 
L 284.501826 177.408158 
L 270.344835 177.408158 
L 270.344835 194.89614 
" clip-path="url(#p8298b23934)" style="fill: none; stroke: #000000; stroke-width: 1.5; stroke-linecap: square"/>
   </g>
   <g id="line2d_6">
    <defs>
     <path id="m5391c465e2" d="M 0 5 
C 1.326016 5 2.597899 4.473168 3.535534 3.535534 
C 4.473168 2.597899 5 1.326016 5 0 
C 5 -1.326016 4.473168 -2.597899 3.535534 -3.535534 
C 2.597899 -4.473168 1.326016 -5 0 -5 
C -1.326016 -5 -2.597899 -4.473168 -3.535534 -3.535534 
C -4.473168 -2.597899 -5 -1.326016 -5 0 
C -5 1.326016 -4.473168 2.597899 -3.535534 3.535534 
C -2.597899 4.473168 -1.326016 5 0 5 
z
" style="stroke: #000000; stroke-opacity: 0.8"/>
    </defs>
    <g clip-path="url(#p8298b23934)">
     <use xlink:href="#m5391c465e2" x="388.319761" y="194.89614" style="fill-opacity: 0.8; stroke: #000000; stroke-opacity: 0.8"/>
    </g>
   </g>
   <g id="line2d_7">
    <g clip-path="url(#p8298b23934)">
     <use xlink:href="#m5391c465e2" x="270.344835" y="81.224254" style="fill-opacity: 0.8; stroke: #000000; stroke-opacity: 0.8"/>
    </g>
   </g>
   <g id="patch_4">
    <path d="M 152.36991 334.8 
L 152.36991 20.016315 
" style="fill: none; stroke: #000000; stroke-width: 0.8; stroke-linejoin: miter; stroke-linecap: square"/>
   </g>
   <g id="patch_5">
    <path d="M 435.509731 334.8 
L 435.509731 20.016315 
" style="fill: none"/>
   </g>
   <g id="patch_6">
    <path d="M 10.8 299.824035 
L 435.509731 299.824035 
" style="fill: none; stroke: #000000; stroke-width: 0.8; stroke-linejoin: miter; stroke-linecap: square"/>
   </g>
   <g id="patch_7">
    <path d="M 10.8 20.016315 
L 435.509731 20.016315 
" style="fill: none"/>
   </g>
   <g id="text_3">
    <!-- $P(5, 3)$ -->
    <g transform="translate(394.690407 185.209741) scale(0.2 -0.2)">
     <defs>
      <path id="CMMI12-50" d="M 1894 2023 
L 2970 2023 
C 3853 2023 4736 2673 4736 3401 
C 4736 3898 4314 4352 3507 4352 
L 1530 4352 
C 1408 4352 1350 4352 1350 4231 
C 1350 4167 1408 4167 1504 4167 
C 1894 4167 1894 4116 1894 4046 
C 1894 4034 1894 3995 1869 3899 
L 1005 472 
C 947 249 934 185 486 185 
C 365 185 301 185 301 70 
C 301 0 358 0 397 0 
C 518 0 646 0 768 0 
L 1517 0 
C 1638 0 1773 0 1894 0 
C 1946 0 2016 0 2016 121 
C 2016 185 1958 185 1862 185 
C 1478 185 1472 230 1472 293 
C 1472 325 1478 369 1485 401 
L 1894 2023 
z
M 2355 3930 
C 2413 4167 2438 4167 2688 4167 
L 3322 4167 
C 3802 4167 4198 4013 4198 3535 
C 4198 3369 4115 2827 3821 2534 
C 3712 2419 3405 2176 2822 2176 
L 1920 2176 
L 2355 3930 
z
" transform="scale(0.015625)"/>
      <path id="CMR17-28" d="M 1958 -1561 
C 1958 -1555 1958 -1542 1939 -1523 
C 1645 -1224 858 -407 858 1581 
C 858 3569 1632 4379 1946 4697 
C 1946 4704 1958 4717 1958 4736 
C 1958 4755 1939 4768 1914 4768 
C 1843 4768 1299 4296 986 3594 
C 666 2887 576 2199 576 1588 
C 576 1128 621 351 1005 -471 
C 1312 -1135 1837 -1600 1914 -1600 
C 1946 -1600 1958 -1587 1958 -1561 
z
" transform="scale(0.015625)"/>
      <path id="CMR17-35" d="M 730 3692 
C 794 3666 1056 3584 1325 3584 
C 1920 3584 2246 3911 2432 4100 
C 2432 4157 2432 4192 2394 4192 
C 2387 4192 2374 4192 2323 4163 
C 2099 4058 1837 3973 1517 3973 
C 1325 3973 1037 3999 723 4139 
C 653 4171 640 4171 634 4171 
C 602 4171 595 4164 595 4037 
L 595 2203 
C 595 2089 595 2057 659 2057 
C 691 2057 704 2070 736 2114 
C 941 2401 1222 2522 1542 2522 
C 1766 2522 2246 2382 2246 1289 
C 2246 1085 2246 715 2054 421 
C 1894 159 1645 25 1370 25 
C 947 25 518 320 403 814 
C 429 807 480 795 506 795 
C 589 795 749 840 749 1038 
C 749 1210 627 1280 506 1280 
C 358 1280 262 1190 262 1011 
C 262 454 704 -128 1382 -128 
C 2042 -128 2669 440 2669 1264 
C 2669 2030 2170 2624 1549 2624 
C 1222 2624 947 2503 730 2274 
L 730 3692 
z
" transform="scale(0.015625)"/>
      <path id="CMMI12-3b" d="M 1248 -31 
C 1248 343 1126 619 864 619 
C 659 619 557 453 557 313 
C 557 172 653 0 870 0 
C 954 0 1024 26 1082 83 
C 1094 96 1101 96 1107 96 
C 1120 96 1120 5 1120 -27 
C 1120 -240 1082 -659 710 -1080 
C 640 -1157 640 -1170 640 -1183 
C 640 -1216 672 -1248 704 -1248 
C 755 -1248 1248 -771 1248 -31 
z
" transform="scale(0.015625)"/>
      <path id="CMR17-33" d="M 1414 2157 
C 1984 2157 2234 1662 2234 1090 
C 2234 320 1824 25 1453 25 
C 1114 25 563 194 390 693 
C 422 680 454 680 486 680 
C 640 680 755 782 755 948 
C 755 1133 614 1216 486 1216 
C 378 1216 211 1165 211 926 
C 211 335 787 -128 1466 -128 
C 2176 -128 2720 430 2720 1085 
C 2720 1707 2208 2157 1600 2227 
C 2086 2328 2554 2756 2554 3329 
C 2554 3820 2048 4179 1472 4179 
C 890 4179 378 3829 378 3329 
C 378 3110 544 3072 627 3072 
C 762 3072 877 3155 877 3321 
C 877 3486 762 3569 627 3569 
C 602 3569 570 3569 544 3557 
C 730 3959 1235 4032 1459 4032 
C 1683 4032 2106 3925 2106 3320 
C 2106 3143 2080 2828 1862 2550 
C 1670 2304 1453 2304 1242 2284 
C 1210 2284 1062 2269 1037 2269 
C 992 2263 966 2257 966 2208 
C 966 2163 973 2157 1101 2157 
L 1414 2157 
z
" transform="scale(0.015625)"/>
      <path id="CMR17-29" d="M 1683 1581 
C 1683 2040 1638 2817 1254 3639 
C 947 4303 422 4768 346 4768 
C 326 4768 301 4761 301 4729 
C 301 4717 307 4710 314 4697 
C 621 4378 1402 3568 1402 1584 
C 1402 -407 627 -1217 314 -1537 
C 307 -1549 301 -1556 301 -1568 
C 301 -1600 326 -1600 346 -1600 
C 416 -1600 960 -1128 1274 -426 
C 1594 281 1683 969 1683 1581 
z
" transform="scale(0.015625)"/>
     </defs>
     <use xlink:href="#CMMI12-50" transform="scale(0.996264)"/>
     <use xlink:href="#CMR17-28" transform="translate(76.425821 0) scale(0.996264)"/>
     <use xlink:href="#CMR17-35" transform="translate(111.706589 0) scale(0.996264)"/>
     <use xlink:href="#CMMI12-3b" transform="translate(157.397066 0) scale(0.996264)"/>
     <use xlink:href="#CMR17-33" transform="translate(201.098648 0) scale(0.996264)"/>
     <use xlink:href="#CMR17-29" transform="translate(246.789125 0) scale(0.996264)"/>
    </g>
   </g>
   <g id="text_4">
    <!-- $(x, f(x))$ -->
    <g transform="translate(276.715481 71.537855) scale(0.2 -0.2)">
     <defs>
      <path id="CMMI12-66" d="M 2854 2566 
C 2982 2566 3034 2566 3034 2688 
C 3034 2752 2982 2752 2867 2752 
L 2349 2752 
C 2470 3429 2560 3897 2611 4107 
C 2650 4265 2784 4416 2950 4416 
C 3085 4416 3219 4358 3283 4298 
C 3034 4272 2957 4082 2957 3969 
C 2957 3837 3053 3759 3174 3759 
C 3302 3759 3494 3870 3494 4119 
C 3494 4393 3226 4544 2944 4544 
C 2669 4544 2400 4334 2272 4078 
C 2157 3848 2093 3611 1946 2752 
L 1517 2752 
C 1395 2752 1331 2752 1331 2637 
C 1331 2566 1370 2566 1498 2566 
L 1907 2566 
C 1792 1976 1530 542 1382 -137 
C 1274 -689 1178 -1152 858 -1152 
C 838 -1152 653 -1152 538 -1031 
C 864 -1005 864 -726 864 -720 
C 864 -593 768 -517 646 -517 
C 518 -517 326 -625 326 -867 
C 326 -1140 608 -1280 858 -1280 
C 1510 -1280 1779 -118 1850 199 
C 1965 688 2278 2376 2310 2566 
L 2854 2566 
z
" transform="scale(0.015625)"/>
     </defs>
     <use xlink:href="#CMR17-28" transform="scale(0.996264)"/>
     <use xlink:href="#CMMI12-78" transform="translate(35.280768 0) scale(0.996264)"/>
     <use xlink:href="#CMMI12-3b" transform="translate(90.714827 0) scale(0.996264)"/>
     <use xlink:href="#CMMI12-66" transform="translate(134.41641 0) scale(0.996264)"/>
     <use xlink:href="#CMR17-28" transform="translate(193.136714 0) scale(0.996264)"/>
     <use xlink:href="#CMMI12-78" transform="translate(228.417482 0) scale(0.996264)"/>
     <use xlink:href="#CMR17-29" transform="translate(283.851542 0) scale(0.996264)"/>
     <use xlink:href="#CMR17-29" transform="translate(319.13231 0) scale(0.996264)"/>
    </g>
   </g>
   <g id="text_5">
    <!-- $\ell$ -->
    <g transform="translate(333.343445 133.834804) scale(0.2 -0.2)">
     <defs>
      <path id="CMMI12-60" d="M 589 1088 
C 186 692 83 597 83 572 
C 83 546 109 501 154 501 
C 186 501 550 851 602 909 
C 640 482 800 -73 1299 -73 
C 1555 -73 1786 86 1888 163 
C 1971 227 2278 488 2278 546 
C 2278 578 2246 616 2214 616 
C 2189 616 2093 520 2067 495 
C 1843 278 1562 55 1306 55 
C 960 55 915 552 915 897 
C 915 960 915 1228 960 1279 
C 1338 1667 2522 2886 2522 4014 
C 2522 4269 2426 4492 2150 4492 
C 1555 4492 1037 3178 947 2936 
C 922 2873 550 1891 589 1088 
z
M 973 1471 
C 979 1509 1267 3186 1805 4082 
C 1914 4255 2022 4364 2150 4364 
C 2368 4364 2381 4159 2381 4018 
C 2381 3794 2317 3218 1760 2412 
C 1594 2175 1338 1855 973 1471 
z
" transform="scale(0.015625)"/>
     </defs>
     <use xlink:href="#CMMI12-60" transform="scale(0.996264)"/>
    </g>
   </g>
   <g id="legend_1">
    <g id="patch_8">
     <path d="M 24.8 324.8 
L 98.416648 324.8 
Q 102.416648 324.8 102.416648 320.8 
L 102.416648 294.924366 
Q 102.416648 290.924366 98.416648 290.924366 
L 24.8 290.924366 
Q 20.8 290.924366 20.8 294.924366 
L 20.8 320.8 
Q 20.8 324.8 24.8 324.8 
z
" style="fill: #ffffff; opacity: 0.8; stroke: #cccccc; stroke-linejoin: miter"/>
    </g>
    <g id="line2d_8">
     <path d="M 28.8 305.924366 
L 48.8 305.924366 
L 68.8 305.924366 
" style="fill: none; stroke: #0072b2; stroke-width: 2.5; stroke-linecap: square"/>
    </g>
    <g id="text_6">
     <!-- $f$ -->
     <g transform="translate(84.8 312.924366) scale(0.2 -0.2)">
      <use xlink:href="#CMMI12-66" transform="scale(0.996264)"/>
     </g>
    </g>
   </g>
  </g>
 </g>
 <defs>
  <clipPath id="p8298b23934">
   <rect x="10.8" y="20.016315" width="424.709731" height="314.783685"/>
  </clipPath>
 </defs>
</svg>
