<?xml version="1.0" encoding="utf-8" standalone="no"?>
<!DOCTYPE svg PUBLIC "-//W3C//DTD SVG 1.1//EN"
  "http://www.w3.org/Graphics/SVG/1.1/DTD/svg11.dtd">
<svg xmlns:xlink="http://www.w3.org/1999/xlink" width="460.8pt" height="345.6pt" viewBox="0 0 460.8 345.6" xmlns="http://www.w3.org/2000/svg" version="1.1">
 <metadata>
  <rdf:RDF xmlns:dc="http://purl.org/dc/elements/1.1/" xmlns:cc="http://creativecommons.org/ns#" xmlns:rdf="http://www.w3.org/1999/02/22-rdf-syntax-ns#">
   <cc:Work>
    <dc:type rdf:resource="http://purl.org/dc/dcmitype/StillImage"/>
    <dc:date>2025-11-29T12:49:39.830285</dc:date>
    <dc:format>image/svg+xml</dc:format>
    <dc:creator>
     <cc:Agent>
      <dc:title>Matplotlib v3.9.1, https://matplotlib.org/</dc:title>
     </cc:Agent>
    </dc:creator>
   </cc:Work>
  </rdf:RDF>
 </metadata>
 <defs>
  <style type="text/css">*{stroke-linejoin: round; stroke-linecap: butt}</style>
 </defs>
 <g id="figure_1">
  <g id="patch_1">
   <path d="M 0 345.6 
L 460.8 345.6 
L 460.8 0 
L 0 0 
L 0 345.6 
z
" style="fill: none"/>
  </g>
  <g id="axes_1">
   <g id="patch_2">
    <path d="M 10.8 334.8 
L 447 334.8 
L 447 24.444473 
L 10.8 24.444473 
L 10.8 334.8 
z
" style="fill: none"/>
   </g>
   <g id="matplotlib.axis_1">
    <g id="text_1">
     <!-- $x$ -->
     <g transform="translate(430.369782 204.377732) scale(0.3 -0.3)">
      <defs>
       <path id="CMMI12-78" d="M 3034 2606 
C 2829 2567 2752 2414 2752 2293 
C 2752 2139 2874 2088 2963 2088 
C 3155 2088 3290 2254 3290 2427 
C 3290 2695 2982 2816 2714 2816 
C 2323 2816 2106 2433 2048 2312 
C 1901 2816 1504 2816 1389 2816 
C 736 2816 390 1980 390 1839 
C 390 1814 416 1782 461 1782 
C 512 1782 525 1820 538 1846 
C 755 2555 1184 2689 1370 2689 
C 1658 2689 1715 2420 1715 2267 
C 1715 2127 1677 1980 1600 1673 
L 1382 798 
C 1286 415 1101 64 762 64 
C 730 64 570 64 435 147 
C 666 192 717 383 717 460 
C 717 588 621 664 499 664 
C 346 664 179 530 179 326 
C 179 57 480 -64 755 -64 
C 1062 -64 1280 179 1414 441 
C 1517 64 1837 -64 2074 -64 
C 2726 -64 3072 773 3072 913 
C 3072 945 3046 971 3008 971 
C 2950 971 2944 939 2925 888 
C 2752 326 2381 64 2093 64 
C 1869 64 1747 230 1747 492 
C 1747 632 1773 734 1875 1156 
L 2099 2024 
C 2195 2408 2413 2689 2707 2689 
C 2720 2689 2899 2689 3034 2606 
z
" transform="scale(0.015625)"/>
      </defs>
      <use xlink:href="#CMMI12-78" transform="scale(0.996264)"/>
     </g>
    </g>
   </g>
   <g id="matplotlib.axis_2">
    <g id="text_2">
     <!-- $y$ -->
     <g transform="translate(210.630756 18.631022) scale(0.3 -0.3)">
      <defs>
       <path id="CMMI12-79" d="M 1683 -700 
C 1510 -939 1261 -1152 947 -1152 
C 870 -1152 563 -1152 467 -889 
C 486 -895 518 -895 531 -895 
C 723 -895 851 -729 851 -582 
C 851 -435 730 -384 634 -384 
C 531 -384 307 -458 307 -759 
C 307 -1071 582 -1286 947 -1286 
C 1587 -1286 2234 -700 2413 6 
L 3040 2485 
C 3046 2517 3059 2556 3059 2594 
C 3059 2689 2982 2753 2886 2753 
C 2829 2753 2694 2727 2643 2535 
L 2170 658 
C 2138 543 2138 530 2086 460 
C 1958 281 1747 64 1440 64 
C 1082 64 1050 415 1050 588 
C 1050 952 1222 1443 1395 1903 
C 1466 2088 1504 2178 1504 2305 
C 1504 2574 1312 2816 998 2816 
C 410 2816 173 1890 173 1839 
C 173 1814 198 1782 243 1782 
C 301 1782 307 1807 333 1897 
C 486 2433 730 2689 979 2689 
C 1037 2689 1146 2689 1146 2478 
C 1146 2312 1075 2127 979 1884 
C 666 1047 666 837 666 683 
C 666 77 1101 -64 1421 -64 
C 1606 -64 1837 -6 2061 230 
L 2067 224 
C 1971 -147 1907 -392 1683 -700 
z
" transform="scale(0.015625)"/>
      </defs>
      <use xlink:href="#CMMI12-79" transform="scale(0.996264)"/>
     </g>
    </g>
   </g>
   <g id="line2d_1">
    <defs>
     <path id="m44d3e78690" d="M 3 0 
L -3 -3 
L -3 3 
z
" style="stroke: #000000; stroke-linejoin: miter"/>
    </defs>
    <g>
     <use xlink:href="#m44d3e78690" x="447" y="179.622236" style="stroke: #000000; stroke-linejoin: miter"/>
    </g>
   </g>
   <g id="line2d_2">
    <defs>
     <path id="mc443506d28" d="M 0 -3 
L -3 3 
L 3 3 
z
" style="stroke: #000000; stroke-linejoin: miter"/>
    </defs>
    <g>
     <use xlink:href="#mc443506d28" x="228.9" y="24.444473" style="stroke: #000000; stroke-linejoin: miter"/>
    </g>
   </g>
   <g id="line2d_3">
    <path d="M 10.8 179.502372 
L 25.712821 179.250374 
L 35.619194 178.872064 
L 43.288645 178.366191 
L 49.679853 177.72821 
L 55.218901 176.955812 
L 60.118828 176.05275 
L 64.592674 175.005263 
L 68.74696 173.804467 
L 72.581685 172.468597 
L 76.20337 170.977997 
L 79.718535 169.292542 
L 83.127179 167.409724 
L 86.429304 165.33096 
L 89.624908 163.061765 
L 92.820513 160.522608 
L 96.016117 157.69898 
L 99.211722 154.579102 
L 102.513846 151.03529 
L 105.815971 147.162268 
L 109.224615 142.821169 
L 112.8463 137.838378 
L 116.681026 132.173109 
L 120.941832 125.463443 
L 125.948278 117.141196 
L 135.748132 100.275259 
L 140.967619 91.583953 
L 144.695824 85.79347 
L 147.784908 81.393799 
L 150.447912 77.971261 
L 152.897875 75.183173 
L 155.028278 73.079174 
L 157.052161 71.386749 
L 158.863004 70.147261 
L 160.567326 69.234321 
L 162.165128 68.614453 
L 163.76293 68.233839 
L 165.254212 68.102991 
L 166.745495 68.195988 
L 168.236777 68.518928 
L 169.728059 69.076906 
L 171.219341 69.873929 
L 172.817143 70.996337 
L 174.414945 72.398258 
L 176.119267 74.201807 
L 177.93011 76.464101 
L 179.847473 79.241599 
L 181.871355 82.58769 
L 184.001758 86.549613 
L 186.345201 91.395406 
L 188.901685 97.210355 
L 191.777729 104.320459 
L 195.292894 113.647477 
L 200.512381 128.227812 
L 206.584029 145.054913 
L 209.886154 153.558199 
L 212.549158 159.83397 
L 214.892601 164.807003 
L 216.916484 168.617254 
L 218.833846 171.763984 
L 220.538168 174.151376 
L 222.135971 176.017831 
L 223.627253 177.420807 
L 225.012015 178.420963 
L 226.290256 179.079722 
L 227.568498 179.480813 
L 228.74022 179.620199 
L 229.911941 179.540533 
L 231.083663 179.242188 
L 232.255385 178.726557 
L 233.533626 177.919089 
L 234.918388 176.760989 
L 236.40967 175.192722 
L 238.007473 173.156032 
L 239.711795 170.596421 
L 241.522637 167.466041 
L 243.54652 163.507296 
L 245.783443 158.628098 
L 248.339927 152.501065 
L 251.429011 144.484842 
L 255.583297 133.031789 
L 264.530989 108.204761 
L 267.833114 99.779362 
L 270.709158 93.037314 
L 273.265641 87.607488 
L 275.609084 83.15381 
L 277.739487 79.574043 
L 279.76337 76.608173 
L 281.574212 74.325053 
L 283.385055 72.398258 
L 285.089377 70.912825 
L 286.687179 69.809004 
L 288.284982 68.98264 
L 289.776264 68.458511 
L 291.267546 68.168757 
L 292.758828 68.108133 
L 294.25011 68.270406 
L 295.741392 68.648447 
L 297.339194 69.283898 
L 299.043516 70.212645 
L 300.854359 71.467942 
L 302.771722 73.079174 
L 304.795604 75.070589 
L 307.032527 77.586855 
L 309.482491 80.679552 
L 312.252015 84.538925 
L 315.447619 89.381453 
L 319.388864 95.77747 
L 325.140952 105.588456 
L 335.047326 122.499683 
L 339.734212 130.036905 
L 343.888498 136.303328 
L 347.616703 141.538602 
L 351.238388 146.242222 
L 354.647033 150.311396 
L 357.949158 153.918779 
L 361.251282 157.199844 
L 364.553407 160.162849 
L 367.855531 162.820255 
L 371.157656 165.187757 
L 374.45978 167.283399 
L 377.868425 169.182276 
L 381.38359 170.8828 
L 385.005275 172.387345 
L 388.84 173.736279 
L 392.887766 174.921174 
L 397.255092 175.962835 
L 401.941978 176.850801 
L 407.161465 177.610833 
L 413.126593 178.247288 
L 420.050403 178.754465 
L 428.465495 179.139354 
L 439.43707 179.406978 
L 447 179.502372 
L 447 179.502372 
" clip-path="url(#p220d19a3c0)" style="fill: none; stroke: #0072b2; stroke-width: 4; stroke-linecap: square"/>
   </g>
   <g id="patch_3">
    <path d="M 228.9 334.8 
L 228.9 24.444473 
" style="fill: none; stroke: #000000; stroke-width: 0.8; stroke-linejoin: miter; stroke-linecap: square"/>
   </g>
   <g id="patch_4">
    <path d="M 447 334.8 
L 447 24.444473 
" style="fill: none"/>
   </g>
   <g id="patch_5">
    <path d="M 10.8 179.622236 
L 447 179.622236 
" style="fill: none; stroke: #000000; stroke-width: 0.8; stroke-linejoin: miter; stroke-linecap: square"/>
   </g>
   <g id="patch_6">
    <path d="M 10.8 24.444473 
L 447 24.444473 
" style="fill: none"/>
   </g>
   <g id="legend_1">
    <g id="patch_7">
     <path d="M 31.8 319.8 
L 142.224971 319.8 
Q 148.224971 319.8 148.224971 313.8 
L 148.224971 274.98655 
Q 148.224971 268.98655 142.224971 268.98655 
L 31.8 268.98655 
Q 25.8 268.98655 25.8 274.98655 
L 25.8 313.8 
Q 25.8 319.8 31.8 319.8 
z
" style="fill: #ffffff; opacity: 0.8; stroke: #cccccc; stroke-linejoin: miter"/>
    </g>
    <g id="line2d_4">
     <path d="M 37.8 291.48655 
L 67.8 291.48655 
L 97.8 291.48655 
" style="fill: none; stroke: #0072b2; stroke-width: 4; stroke-linecap: square"/>
    </g>
    <g id="text_3">
     <!-- $f$ -->
     <g transform="translate(121.8 301.98655) scale(0.3 -0.3)">
      <defs>
       <path id="CMMI12-66" d="M 2854 2566 
C 2982 2566 3034 2566 3034 2688 
C 3034 2752 2982 2752 2867 2752 
L 2349 2752 
C 2470 3429 2560 3897 2611 4107 
C 2650 4265 2784 4416 2950 4416 
C 3085 4416 3219 4358 3283 4298 
C 3034 4272 2957 4082 2957 3969 
C 2957 3837 3053 3759 3174 3759 
C 3302 3759 3494 3870 3494 4119 
C 3494 4393 3226 4544 2944 4544 
C 2669 4544 2400 4334 2272 4078 
C 2157 3848 2093 3611 1946 2752 
L 1517 2752 
C 1395 2752 1331 2752 1331 2637 
C 1331 2566 1370 2566 1498 2566 
L 1907 2566 
C 1792 1976 1530 542 1382 -137 
C 1274 -689 1178 -1152 858 -1152 
C 838 -1152 653 -1152 538 -1031 
C 864 -1005 864 -726 864 -720 
C 864 -593 768 -517 646 -517 
C 518 -517 326 -625 326 -867 
C 326 -1140 608 -1280 858 -1280 
C 1510 -1280 1779 -118 1850 199 
C 1965 688 2278 2376 2310 2566 
L 2854 2566 
z
" transform="scale(0.015625)"/>
      </defs>
      <use xlink:href="#CMMI12-66" transform="scale(0.996264)"/>
     </g>
    </g>
   </g>
  </g>
 </g>
 <defs>
  <clipPath id="p220d19a3c0">
   <rect x="10.8" y="24.444473" width="436.2" height="310.355527"/>
  </clipPath>
 </defs>
</svg>
