<?xml version="1.0" encoding="utf-8" standalone="no"?>
<!DOCTYPE svg PUBLIC "-//W3C//DTD SVG 1.1//EN"
  "http://www.w3.org/Graphics/SVG/1.1/DTD/svg11.dtd">
<svg xmlns:xlink="http://www.w3.org/1999/xlink" width="432pt" height="432pt" viewBox="0 0 432 432" xmlns="http://www.w3.org/2000/svg" version="1.1">
 <metadata>
  <rdf:RDF xmlns:dc="http://purl.org/dc/elements/1.1/" xmlns:cc="http://creativecommons.org/ns#" xmlns:rdf="http://www.w3.org/1999/02/22-rdf-syntax-ns#">
   <cc:Work>
    <dc:type rdf:resource="http://purl.org/dc/dcmitype/StillImage"/>
    <dc:date>2026-01-06T06:43:37.043626</dc:date>
    <dc:format>image/svg+xml</dc:format>
    <dc:creator>
     <cc:Agent>
      <dc:title>Matplotlib v3.9.1, https://matplotlib.org/</dc:title>
     </cc:Agent>
    </dc:creator>
   </cc:Work>
  </rdf:RDF>
 </metadata>
 <defs>
  <style type="text/css">*{stroke-linejoin: round; stroke-linecap: butt}</style>
 </defs>
 <g id="figure_1">
  <g id="patch_1">
   <path d="M 0 432 
L 432 432 
L 432 0 
L 0 0 
L 0 432 
z
" style="fill: none"/>
  </g>
  <g id="axes_1">
   <g id="line2d_1">
    <path d="M 216 29.454545 
L 406.0625 358.652452 
" clip-path="url(#p2891d16af2)" style="fill: none; stroke: #0072b2; stroke-width: 3; stroke-linecap: square"/>
   </g>
   <g id="line2d_2">
    <path d="M 216 29.454545 
L 25.9375 358.652452 
" clip-path="url(#p2891d16af2)" style="fill: none; stroke: #0072b2; stroke-width: 3; stroke-linecap: square"/>
   </g>
   <g id="line2d_3">
    <path d="M 216 358.652452 
L 406.0625 358.652452 
" clip-path="url(#p2891d16af2)" style="fill: none; stroke: #000000; stroke-width: 3; stroke-linecap: square"/>
   </g>
   <g id="line2d_4">
    <path d="M 216 358.652452 
L 216 29.454545 
" clip-path="url(#p2891d16af2)" style="fill: none; stroke: #000000; stroke-width: 3; stroke-linecap: square"/>
   </g>
   <g id="line2d_5">
    <path d="M 406.0625 358.652452 
L 405.933459 357.035292 
L 405.546511 355.420328 
L 404.902181 353.809753 
L 404.001344 352.205753 
L 402.845224 350.610508 
L 401.43539 349.026182 
L 399.472491 347.194473 
L 397.170507 345.38394 
L 394.533692 343.59793 
L 391.56692 341.839742 
L 387.779356 339.868619 
L 383.57715 337.942837 
L 378.970447 336.067044 
L 373.318287 334.022161 
L 367.185552 332.052519 
L 360.590975 330.164135 
L 352.746548 328.168239 
L 344.386432 326.287304 
L 335.542154 324.528422 
L 326.247066 322.898226 
L 315.543668 321.260965 
L 304.386075 319.794313 
L 292.825197 318.504962 
L 280.913783 317.398795 
L 268.706182 316.480858 
L 256.258095 315.755341 
L 243.626319 315.225554 
L 229.704446 314.873649 
L 215.708163 314.75945 
L 201.713464 314.883575 
L 187.796337 315.245351 
L 174.032346 315.842815 
L 161.61373 316.594785 
L 149.443266 317.538656 
L 137.576485 318.670119 
L 126.067532 319.984012 
L 114.968921 321.47434 
L 104.331291 323.134304 
L 95.10163 324.784207 
L 86.327893 326.561832 
L 78.043167 328.460474 
L 70.278695 330.472975 
L 63.759729 332.37531 
L 57.705828 334.357916 
L 52.135483 336.414737 
L 47.065713 338.539491 
L 42.992039 340.479946 
L 39.335972 342.464267 
L 36.106337 344.487662 
L 33.636367 346.28635 
L 31.503432 348.107892 
L 29.711476 349.948921 
L 28.449431 351.539879 
L 27.442058 353.140495 
L 26.690723 354.748596 
L 26.196449 356.361998 
L 25.959905 357.978509 
L 25.981413 359.595936 
L 26.260944 361.212082 
L 26.798118 362.824752 
L 27.592205 364.431757 
L 28.642128 366.030914 
L 29.946461 367.620052 
L 31.503432 369.197013 
L 33.636367 371.018554 
L 36.106337 372.817242 
L 38.908777 374.589751 
L 42.512002 376.579219 
L 46.533992 378.525417 
L 50.965039 380.423645 
L 56.425562 382.496113 
L 62.373554 384.495743 
L 68.790843 386.416427 
L 75.657828 388.252298 
L 83.789671 390.18587 
L 92.420097 392.000525 
L 101.51656 393.68942 
L 111.044755 395.246186 
L 121.98149 396.799028 
L 133.34721 398.177816 
L 145.090056 399.376259 
L 157.156447 400.388889 
L 169.491328 401.211084 
L 182.038418 401.839095 
L 195.900883 402.299387 
L 209.87248 402.522689 
L 223.877348 402.507791 
L 237.839444 402.254772 
L 251.682959 401.765006 
L 264.204463 401.110327 
L 276.506022 400.261922 
L 288.531505 399.223663 
L 300.226043 398.000287 
L 311.536278 396.597376 
L 322.410602 395.021331 
L 332.7994 393.279343 
L 341.782503 391.558392 
L 350.291263 389.713348 
L 358.293593 387.751169 
L 365.759315 385.679255 
L 371.996352 383.727159 
L 377.75685 381.698464 
L 383.023214 379.599369 
L 387.276557 377.679583 
L 391.116473 375.71387 
L 394.533692 373.706974 
L 397.170507 371.920964 
L 399.472491 370.110431 
L 401.43539 368.278722 
L 402.845224 366.694396 
L 404.001344 365.099151 
L 404.902181 363.495151 
L 405.546511 361.884576 
L 405.933459 360.269612 
L 406.0625 358.652452 
L 406.0625 358.652452 
" clip-path="url(#p2891d16af2)" style="fill: none; stroke-dasharray: 11.1,4.8; stroke-dashoffset: 0; stroke: #0072b2; stroke-width: 3"/>
   </g>
   <g id="text_1">
    <!-- $r$ -->
    <g transform="translate(304.43712 388.070002) scale(0.3 -0.3)">
     <defs>
      <path id="CMMI12-72" d="M 2490 2612 
C 2291 2574 2189 2433 2189 2293 
C 2189 2139 2310 2088 2400 2088 
C 2579 2088 2726 2242 2726 2433 
C 2726 2638 2528 2816 2208 2816 
C 1952 2816 1658 2701 1389 2312 
C 1344 2650 1088 2816 832 2816 
C 582 2816 454 2625 378 2484 
C 269 2254 173 1871 173 1839 
C 173 1814 198 1782 243 1782 
C 294 1782 301 1788 339 1935 
C 435 2318 557 2689 813 2689 
C 966 2689 1011 2580 1011 2395 
C 1011 2254 947 2005 902 1807 
L 723 1118 
C 698 996 627 709 595 594 
C 550 428 480 128 480 96 
C 480 6 550 -64 646 -64 
C 717 -64 838 -19 877 109 
C 896 160 1133 1124 1171 1271 
C 1203 1411 1242 1546 1274 1686 
C 1299 1775 1325 1878 1344 1961 
C 1363 2018 1536 2331 1696 2472 
C 1773 2542 1939 2689 2202 2689 
C 2304 2689 2406 2670 2490 2612 
z
" transform="scale(0.015625)"/>
     </defs>
     <use xlink:href="#CMMI12-72" transform="scale(0.996264)"/>
    </g>
   </g>
   <g id="text_2">
    <!-- $h$ -->
    <g transform="translate(229.523334 201.524521) scale(0.3 -0.3)">
     <defs>
      <path id="CMMI12-68" d="M 1798 4257 
C 1805 4283 1818 4321 1818 4352 
C 1818 4416 1754 4416 1741 4416 
C 1734 4416 1421 4388 1389 4380 
C 1280 4373 1184 4358 1069 4358 
C 909 4345 864 4339 864 4224 
C 864 4160 915 4160 1005 4160 
C 1318 4160 1325 4103 1325 4040 
C 1325 4002 1312 3951 1306 3932 
L 378 248 
C 352 152 352 140 352 101 
C 352 -38 461 -64 525 -64 
C 634 -64 717 19 749 89 
L 1037 1245 
C 1069 1386 1107 1520 1139 1660 
C 1210 1929 1210 1935 1331 2120 
C 1453 2305 1741 2689 2234 2689 
C 2490 2689 2579 2497 2579 2242 
C 2579 1884 2330 1188 2189 805 
C 2131 651 2099 568 2099 453 
C 2099 166 2298 -64 2605 -64 
C 3200 -64 3424 875 3424 913 
C 3424 945 3398 971 3360 971 
C 3302 971 3296 952 3264 843 
C 3117 332 2880 64 2624 64 
C 2560 64 2458 64 2458 269 
C 2458 436 2534 640 2560 710 
C 2675 1018 2963 1773 2963 2145 
C 2963 2528 2739 2816 2253 2816 
C 1888 2816 1568 2644 1306 2312 
L 1798 4257 
z
" transform="scale(0.015625)"/>
     </defs>
     <use xlink:href="#CMMI12-68" transform="scale(0.996264)"/>
    </g>
   </g>
   <g id="text_3">
    <!-- $9$ -->
    <g transform="translate(310.370067 170.93769) scale(0.3 -0.3)">
     <defs>
      <path id="CMR17-39" d="M 2253 1864 
C 2253 464 1670 31 1190 31 
C 1043 31 685 31 538 294 
C 704 268 826 357 826 518 
C 826 692 685 749 595 749 
C 538 749 365 723 365 506 
C 365 71 742 -128 1203 -128 
C 1939 -128 2688 674 2688 2073 
C 2688 3817 1971 4179 1485 4179 
C 851 4179 243 3628 243 2778 
C 243 1991 762 1408 1414 1408 
C 1952 1408 2189 1903 2253 2112 
L 2253 1864 
z
M 1427 1510 
C 1254 1510 1011 1542 813 1922 
C 678 2169 678 2461 678 2771 
C 678 3146 678 3405 858 3684 
C 947 3817 1114 4032 1485 4032 
C 2240 4032 2240 2885 2240 2632 
C 2240 2182 2035 1510 1427 1510 
z
" transform="scale(0.015625)"/>
     </defs>
     <use xlink:href="#CMR17-39" transform="scale(0.996264)"/>
    </g>
   </g>
  </g>
 </g>
 <defs>
  <clipPath id="p2891d16af2">
   <rect x="10.8" y="10.8" width="410.4" height="410.4"/>
  </clipPath>
 </defs>
</svg>
