<?xml version="1.0" encoding="utf-8" standalone="no"?>
<!DOCTYPE svg PUBLIC "-//W3C//DTD SVG 1.1//EN"
  "http://www.w3.org/Graphics/SVG/1.1/DTD/svg11.dtd">
<svg xmlns:xlink="http://www.w3.org/1999/xlink" width="432pt" height="432pt" viewBox="0 0 432 432" xmlns="http://www.w3.org/2000/svg" version="1.1">
 <metadata>
  <rdf:RDF xmlns:dc="http://purl.org/dc/elements/1.1/" xmlns:cc="http://creativecommons.org/ns#" xmlns:rdf="http://www.w3.org/1999/02/22-rdf-syntax-ns#">
   <cc:Work>
    <dc:type rdf:resource="http://purl.org/dc/dcmitype/StillImage"/>
    <dc:date>2025-11-20T20:13:06.691992</dc:date>
    <dc:format>image/svg+xml</dc:format>
    <dc:creator>
     <cc:Agent>
      <dc:title>Matplotlib v3.9.1, https://matplotlib.org/</dc:title>
     </cc:Agent>
    </dc:creator>
   </cc:Work>
  </rdf:RDF>
 </metadata>
 <defs>
  <style type="text/css">*{stroke-linejoin: round; stroke-linecap: butt}</style>
 </defs>
 <g id="figure_1">
  <g id="patch_1">
   <path d="M 0 432 
L 432 432 
L 432 0 
L 0 0 
L 0 432 
z
" style="fill: none"/>
  </g>
  <g id="axes_1">
   <g id="line2d_1">
    <path d="M 403.756789 216 
L 403.629313 209.082425 
L 403.247058 202.174244 
L 402.610543 195.284836 
L 401.720632 188.423557 
L 400.578535 181.599724 
L 399.185801 174.822602 
L 397.544322 168.101394 
L 395.656326 161.445227 
L 393.524378 154.863138 
L 391.151373 148.364067 
L 388.540532 141.956836 
L 385.695401 135.650148 
L 382.619843 129.452565 
L 379.318034 123.372504 
L 375.794458 117.418219 
L 372.0539 111.597797 
L 368.101439 105.919141 
L 363.942441 100.389961 
L 359.582554 95.017766 
L 355.027699 89.809851 
L 350.28406 84.773287 
L 345.358079 79.914913 
L 340.256444 75.241327 
L 334.986082 70.758874 
L 329.554152 66.473641 
L 323.968027 62.391448 
L 318.235295 58.517836 
L 312.363738 54.858067 
L 306.36133 51.417109 
L 300.236222 48.199636 
L 293.99673 45.210015 
L 287.651327 42.452307 
L 281.20863 39.930256 
L 274.677387 37.647287 
L 268.066466 35.6065 
L 261.384844 33.810665 
L 254.641594 32.262222 
L 247.845873 30.963274 
L 241.006909 29.915583 
L 234.133988 29.120573 
L 227.236442 28.579323 
L 220.323638 28.292567 
L 213.404962 28.260697 
L 206.48981 28.483754 
L 199.58757 28.961436 
L 192.707616 29.693094 
L 185.85929 30.677734 
L 179.051891 31.91402 
L 172.294662 33.400274 
L 165.596779 35.134476 
L 158.967337 37.114272 
L 152.415339 39.336973 
L 145.94968 41.799562 
L 139.57914 44.498694 
L 133.312371 47.430705 
L 127.15788 50.591613 
L 121.124027 53.977126 
L 115.219003 57.582647 
L 109.450827 61.40328 
L 103.827331 65.433837 
L 98.356152 69.668844 
L 93.044719 74.102552 
L 87.900244 78.72894 
L 82.929713 83.541726 
L 78.139874 88.534374 
L 73.537233 93.700106 
L 69.128039 99.031906 
L 64.918278 104.522536 
L 60.913669 110.164538 
L 57.119647 115.950252 
L 53.541366 121.871822 
L 50.183683 127.921207 
L 47.051159 134.090192 
L 44.148046 140.370402 
L 41.478288 146.753307 
L 39.045509 153.230241 
L 36.853012 159.792409 
L 34.903775 166.4309 
L 33.200445 173.1367 
L 31.745334 179.900704 
L 30.540419 186.713726 
L 29.587335 193.566515 
L 28.887377 200.449766 
L 28.441495 207.354133 
L 28.250294 214.270239 
L 28.314035 221.188695 
L 28.63263 228.100105 
L 29.205648 234.995084 
L 30.032309 241.86427 
L 31.111492 248.698336 
L 32.441731 255.488001 
L 34.021219 262.224046 
L 35.847813 268.897325 
L 37.919031 275.498775 
L 40.232062 282.019433 
L 42.783764 288.450444 
L 45.570672 294.783076 
L 48.589003 301.00873 
L 51.834657 307.118953 
L 55.303228 313.105446 
L 58.990006 318.960082 
L 62.889983 324.674911 
L 66.997866 330.242172 
L 71.308074 335.654305 
L 75.814757 340.903962 
L 80.511794 345.984014 
L 85.392808 350.887564 
L 90.45117 355.607952 
L 95.680011 360.138769 
L 101.072233 364.473863 
L 106.620512 368.607347 
L 112.317315 372.533608 
L 118.154906 376.247315 
L 124.125358 379.743426 
L 130.220565 383.017192 
L 136.432249 386.064168 
L 142.751976 388.880218 
L 149.171165 391.461517 
L 155.681099 393.80456 
L 162.272938 395.906165 
L 168.937732 397.76348 
L 175.66643 399.373981 
L 182.449895 400.735481 
L 189.278917 401.846133 
L 196.144223 402.704428 
L 203.036489 403.309201 
L 209.946358 403.65963 
L 216.864447 403.755239 
L 223.781361 403.595899 
L 230.687708 403.181826 
L 237.574111 402.513583 
L 244.431218 401.592076 
L 251.249718 400.418557 
L 258.020352 398.994619 
L 264.733927 397.322197 
L 271.381327 395.40356 
L 277.953525 393.241315 
L 284.441597 390.838397 
L 290.836732 388.19807 
L 297.130248 385.323917 
L 303.313598 382.219843 
L 309.378385 378.890062 
L 315.316375 375.339096 
L 321.119505 371.571766 
L 326.779895 367.593189 
L 332.289857 363.408765 
L 337.641912 359.024178 
L 342.82879 354.445381 
L 347.84345 349.678592 
L 352.679081 344.730283 
L 357.329117 339.607174 
L 361.787245 334.31622 
L 366.04741 328.864608 
L 370.103829 323.259738 
L 373.950992 317.509223 
L 377.583675 311.62087 
L 380.996947 305.602676 
L 384.186171 299.462811 
L 387.147018 293.209614 
L 389.875468 286.851575 
L 392.367814 280.397329 
L 394.620673 273.855638 
L 396.630986 267.235387 
L 398.396023 260.545564 
L 399.913387 253.795253 
L 401.181018 246.993621 
L 402.197195 240.149903 
L 402.960537 233.273392 
L 403.470008 226.373426 
L 403.724917 219.459375 
L 403.756789 216 
L 403.756789 216 
" clip-path="url(#p02ecf2ca29)" style="fill: none; stroke: #0072b2; stroke-width: 2.5; stroke-linecap: square"/>
   </g>
  </g>
 </g>
 <defs>
  <clipPath id="p02ecf2ca29">
   <rect x="10.8" y="10.8" width="410.4" height="410.4"/>
  </clipPath>
 </defs>
</svg>
