<?xml version="1.0" encoding="utf-8" standalone="no"?>
<!DOCTYPE svg PUBLIC "-//W3C//DTD SVG 1.1//EN"
  "http://www.w3.org/Graphics/SVG/1.1/DTD/svg11.dtd">
<svg xmlns:xlink="http://www.w3.org/1999/xlink" width="460.8pt" height="345.6pt" viewBox="0 0 460.8 345.6" xmlns="http://www.w3.org/2000/svg" version="1.1">
 <metadata>
  <rdf:RDF xmlns:dc="http://purl.org/dc/elements/1.1/" xmlns:cc="http://creativecommons.org/ns#" xmlns:rdf="http://www.w3.org/1999/02/22-rdf-syntax-ns#">
   <cc:Work>
    <dc:type rdf:resource="http://purl.org/dc/dcmitype/StillImage"/>
    <dc:date>2025-12-06T22:05:15.334130</dc:date>
    <dc:format>image/svg+xml</dc:format>
    <dc:creator>
     <cc:Agent>
      <dc:title>Matplotlib v3.9.1, https://matplotlib.org/</dc:title>
     </cc:Agent>
    </dc:creator>
   </cc:Work>
  </rdf:RDF>
 </metadata>
 <defs>
  <style type="text/css">*{stroke-linejoin: round; stroke-linecap: butt}</style>
 </defs>
 <g id="figure_1">
  <g id="patch_1">
   <path d="M 0 345.6 
L 460.8 345.6 
L 460.8 0 
L 0 0 
L 0 345.6 
z
" style="fill: none"/>
  </g>
  <g id="axes_1">
   <g id="patch_2">
    <path d="M 10.8 334.8 
L 447 334.8 
L 447 28.872638 
L 10.8 28.872638 
L 10.8 334.8 
z
" style="fill: none"/>
   </g>
   <g id="matplotlib.axis_1">
    <g id="text_1">
     <!-- $x$ -->
     <g transform="translate(424.826376 213.510328) scale(0.4 -0.4)">
      <defs>
       <path id="CMMI12-78" d="M 3034 2606 
C 2829 2567 2752 2414 2752 2293 
C 2752 2139 2874 2088 2963 2088 
C 3155 2088 3290 2254 3290 2427 
C 3290 2695 2982 2816 2714 2816 
C 2323 2816 2106 2433 2048 2312 
C 1901 2816 1504 2816 1389 2816 
C 736 2816 390 1980 390 1839 
C 390 1814 416 1782 461 1782 
C 512 1782 525 1820 538 1846 
C 755 2555 1184 2689 1370 2689 
C 1658 2689 1715 2420 1715 2267 
C 1715 2127 1677 1980 1600 1673 
L 1382 798 
C 1286 415 1101 64 762 64 
C 730 64 570 64 435 147 
C 666 192 717 383 717 460 
C 717 588 621 664 499 664 
C 346 664 179 530 179 326 
C 179 57 480 -64 755 -64 
C 1062 -64 1280 179 1414 441 
C 1517 64 1837 -64 2074 -64 
C 2726 -64 3072 773 3072 913 
C 3072 945 3046 971 3008 971 
C 2950 971 2944 939 2925 888 
C 2752 326 2381 64 2093 64 
C 1869 64 1747 230 1747 492 
C 1747 632 1773 734 1875 1156 
L 2099 2024 
C 2195 2408 2413 2689 2707 2689 
C 2720 2689 2899 2689 3034 2606 
z
" transform="scale(0.015625)"/>
      </defs>
      <use xlink:href="#CMMI12-78" transform="scale(0.996264)"/>
     </g>
    </g>
   </g>
   <g id="matplotlib.axis_2">
    <g id="text_2">
     <!-- $y$ -->
     <g transform="translate(205.874331 21.121371) scale(0.4 -0.4)">
      <defs>
       <path id="CMMI12-79" d="M 1683 -700 
C 1510 -939 1261 -1152 947 -1152 
C 870 -1152 563 -1152 467 -889 
C 486 -895 518 -895 531 -895 
C 723 -895 851 -729 851 -582 
C 851 -435 730 -384 634 -384 
C 531 -384 307 -458 307 -759 
C 307 -1071 582 -1286 947 -1286 
C 1587 -1286 2234 -700 2413 6 
L 3040 2485 
C 3046 2517 3059 2556 3059 2594 
C 3059 2689 2982 2753 2886 2753 
C 2829 2753 2694 2727 2643 2535 
L 2170 658 
C 2138 543 2138 530 2086 460 
C 1958 281 1747 64 1440 64 
C 1082 64 1050 415 1050 588 
C 1050 952 1222 1443 1395 1903 
C 1466 2088 1504 2178 1504 2305 
C 1504 2574 1312 2816 998 2816 
C 410 2816 173 1890 173 1839 
C 173 1814 198 1782 243 1782 
C 301 1782 307 1807 333 1897 
C 486 2433 730 2689 979 2689 
C 1037 2689 1146 2689 1146 2478 
C 1146 2312 1075 2127 979 1884 
C 666 1047 666 837 666 683 
C 666 77 1101 -64 1421 -64 
C 1606 -64 1837 -6 2061 230 
L 2067 224 
C 1971 -147 1907 -392 1683 -700 
z
" transform="scale(0.015625)"/>
      </defs>
      <use xlink:href="#CMMI12-79" transform="scale(0.996264)"/>
     </g>
    </g>
   </g>
   <g id="line2d_1">
    <defs>
     <path id="mdacb5e0074" d="M 3 0 
L -3 -3 
L -3 3 
z
" style="stroke: #000000; stroke-linejoin: miter"/>
    </defs>
    <g>
     <use xlink:href="#mdacb5e0074" x="447" y="181.836319" style="stroke: #000000; stroke-linejoin: miter"/>
    </g>
   </g>
   <g id="line2d_2">
    <defs>
     <path id="me78d606422" d="M 0 -3 
L -3 3 
L 3 3 
z
" style="stroke: #000000; stroke-linejoin: miter"/>
    </defs>
    <g>
     <use xlink:href="#me78d606422" x="228.9" y="28.872638" style="stroke: #000000; stroke-linejoin: miter"/>
    </g>
   </g>
   <g id="line2d_3">
    <path d="M 10.8 181.836052 
L 61.71663 181.723845 
L 73.966447 181.475455 
L 82.168498 181.098014 
L 88.666227 180.582557 
L 94.098755 179.934224 
L 98.892161 179.142963 
L 103.259487 178.199338 
L 107.307253 177.100235 
L 111.141978 175.832338 
L 114.870183 174.367502 
L 118.598388 172.659691 
L 122.326593 170.703459 
L 126.161319 168.438702 
L 130.315604 165.723128 
L 135.322051 162.168899 
L 147.784908 153.179773 
L 150.980513 151.230007 
L 153.643516 149.852315 
L 155.98696 148.878001 
L 158.117363 148.223565 
L 160.141245 147.836413 
L 161.952088 147.706486 
L 163.76293 147.800638 
L 165.467253 148.109994 
L 167.171575 148.647594 
L 168.875897 149.426059 
L 170.58022 150.456502 
L 172.284542 151.74828 
L 174.095385 153.415344 
L 175.906227 155.391812 
L 177.82359 157.825048 
L 179.847473 160.772686 
L 181.977875 164.289461 
L 184.214799 168.423632 
L 186.664762 173.440733 
L 189.327766 179.42161 
L 192.31033 186.679787 
L 195.932015 196.100564 
L 202.323223 213.488359 
L 207.11663 226.222543 
L 210.312234 234.100535 
L 212.975238 240.08357 
L 215.212161 244.595988 
L 217.236044 248.210363 
L 219.046886 251.026335 
L 220.751209 253.287786 
L 222.349011 255.045646 
L 223.840293 256.356499 
L 225.225055 257.279804 
L 226.503297 257.875553 
L 227.781538 258.221648 
L 228.95326 258.317941 
L 230.124982 258.202398 
L 231.296703 257.875553 
L 232.574945 257.279804 
L 233.853187 256.437664 
L 235.237949 255.252676 
L 236.729231 253.667953 
L 238.327033 251.628005 
L 240.031355 249.081132 
L 241.948718 245.78801 
L 243.972601 241.862489 
L 246.316044 236.807471 
L 248.979048 230.506 
L 252.174652 222.349245 
L 256.861538 209.707251 
L 263.998388 190.491647 
L 267.513553 181.69552 
L 270.389597 175.062768 
L 273.052601 169.472088 
L 275.396044 165.042672 
L 277.632967 161.273387 
L 279.76337 158.117042 
L 281.787253 155.51779 
L 283.704615 153.415344 
L 285.515458 151.74828 
L 287.3263 150.384531 
L 289.030623 149.37013 
L 290.734945 148.607061 
L 292.439267 148.08411 
L 294.14359 147.78857 
L 295.954432 147.708106 
L 297.765275 147.850634 
L 299.682637 148.223565 
L 301.70652 148.839751 
L 303.943443 149.753809 
L 306.499927 151.051419 
L 309.375971 152.76842 
L 312.997656 155.207704 
L 318.430183 159.173076 
L 326.632234 165.136816 
L 331.106081 168.10495 
L 335.153846 170.524321 
L 338.988571 172.5546 
L 342.716777 174.276554 
L 346.444982 175.754967 
L 350.279707 177.035811 
L 354.327473 178.147164 
L 358.588278 179.081631 
L 363.168645 179.857435 
L 368.281612 180.495739 
L 374.24674 181.007487 
L 381.38359 181.386962 
L 390.650842 181.645014 
L 404.604982 181.789578 
L 436.241465 181.835199 
L 447 181.836052 
L 447 181.836052 
" clip-path="url(#p40f31b557a)" style="fill: none; stroke: #0072b2; stroke-width: 8; stroke-linecap: square"/>
   </g>
   <g id="patch_3">
    <path d="M 228.9 334.8 
L 228.9 28.872638 
" style="fill: none; stroke: #000000; stroke-width: 0.8; stroke-linejoin: miter; stroke-linecap: square"/>
   </g>
   <g id="patch_4">
    <path d="M 447 334.8 
L 447 28.872638 
" style="fill: none"/>
   </g>
   <g id="patch_5">
    <path d="M 10.8 181.836319 
L 447 181.836319 
" style="fill: none; stroke: #000000; stroke-width: 0.8; stroke-linejoin: miter; stroke-linecap: square"/>
   </g>
   <g id="patch_6">
    <path d="M 10.8 28.872638 
L 447 28.872638 
" style="fill: none"/>
   </g>
   <g id="legend_1">
    <g id="patch_7">
     <path d="M 261.748852 116.623905 
L 419 116.623905 
Q 427 116.623905 427 108.623905 
L 427 56.872638 
Q 427 48.872638 419 48.872638 
L 261.748852 48.872638 
Q 253.748852 48.872638 253.748852 56.872638 
L 253.748852 108.623905 
Q 253.748852 116.623905 261.748852 116.623905 
z
" style="fill: #ffffff; opacity: 0.8; stroke: #cccccc; stroke-linejoin: miter"/>
    </g>
    <g id="line2d_4">
     <path d="M 269.748852 78.872638 
L 309.748852 78.872638 
L 349.748852 78.872638 
" style="fill: none; stroke: #0072b2; stroke-width: 8; stroke-linecap: square"/>
    </g>
    <g id="text_3">
     <!-- $A$ -->
     <g transform="translate(381.748852 92.872638) scale(0.4 -0.4)">
      <defs>
       <path id="CMMI12-41" d="M 1088 691 
C 864 314 646 186 339 186 
C 269 180 218 180 218 58 
C 218 24 250 0 294 0 
C 410 0 698 0 813 0 
C 998 0 1203 0 1382 0 
C 1421 0 1498 0 1498 122 
C 1498 180 1446 186 1408 186 
C 1261 186 1139 236 1139 388 
C 1139 476 1178 546 1261 685 
L 1747 1479 
L 3379 1479 
C 3386 1423 3386 1373 3392 1316 
C 3411 1152 3488 495 3488 376 
C 3488 186 3162 186 3059 186 
C 2989 186 2918 186 2918 70 
C 2918 0 2976 0 3014 0 
C 3123 0 3251 0 3360 0 
L 3725 0 
C 4115 0 4397 0 4403 0 
C 4448 0 4518 0 4518 122 
C 4518 186 4461 186 4365 186 
C 4013 186 4006 244 3987 434 
L 3597 4404 
C 3584 4531 3558 4544 3488 4544 
C 3424 4544 3386 4531 3328 4435 
L 1088 691 
z
M 1856 1664 
L 3142 3819 
L 3360 1664 
L 1856 1664 
z
" transform="scale(0.015625)"/>
      </defs>
      <use xlink:href="#CMMI12-41" transform="scale(0.996264)"/>
     </g>
    </g>
   </g>
  </g>
 </g>
 <defs>
  <clipPath id="p40f31b557a">
   <rect x="10.8" y="28.872638" width="436.2" height="305.927362"/>
  </clipPath>
 </defs>
</svg>
