<?xml version="1.0" encoding="utf-8" standalone="no"?>
<!DOCTYPE svg PUBLIC "-//W3C//DTD SVG 1.1//EN"
  "http://www.w3.org/Graphics/SVG/1.1/DTD/svg11.dtd">
<svg xmlns:xlink="http://www.w3.org/1999/xlink" width="460.8pt" height="345.6pt" viewBox="0 0 460.8 345.6" xmlns="http://www.w3.org/2000/svg" version="1.1">
 <metadata>
  <rdf:RDF xmlns:dc="http://purl.org/dc/elements/1.1/" xmlns:cc="http://creativecommons.org/ns#" xmlns:rdf="http://www.w3.org/1999/02/22-rdf-syntax-ns#">
   <cc:Work>
    <dc:type rdf:resource="http://purl.org/dc/dcmitype/StillImage"/>
    <dc:date>2025-12-06T22:16:37.386302</dc:date>
    <dc:format>image/svg+xml</dc:format>
    <dc:creator>
     <cc:Agent>
      <dc:title>Matplotlib v3.9.1, https://matplotlib.org/</dc:title>
     </cc:Agent>
    </dc:creator>
   </cc:Work>
  </rdf:RDF>
 </metadata>
 <defs>
  <style type="text/css">*{stroke-linejoin: round; stroke-linecap: butt}</style>
 </defs>
 <g id="figure_1">
  <g id="patch_1">
   <path d="M 0 345.6 
L 460.8 345.6 
L 460.8 0 
L 0 0 
L 0 345.6 
z
" style="fill: none"/>
  </g>
  <g id="axes_1">
   <g id="patch_2">
    <path d="M 10.8 334.8 
L 447 334.8 
L 447 20.016315 
L 10.8 20.016315 
L 10.8 334.8 
z
" style="fill: none"/>
   </g>
   <g id="matplotlib.axis_1">
    <g id="text_1">
     <!-- $x$ -->
     <g transform="translate(435.913188 195.245154) scale(0.2 -0.2)">
      <defs>
       <path id="CMMI12-78" d="M 3034 2606 
C 2829 2567 2752 2414 2752 2293 
C 2752 2139 2874 2088 2963 2088 
C 3155 2088 3290 2254 3290 2427 
C 3290 2695 2982 2816 2714 2816 
C 2323 2816 2106 2433 2048 2312 
C 1901 2816 1504 2816 1389 2816 
C 736 2816 390 1980 390 1839 
C 390 1814 416 1782 461 1782 
C 512 1782 525 1820 538 1846 
C 755 2555 1184 2689 1370 2689 
C 1658 2689 1715 2420 1715 2267 
C 1715 2127 1677 1980 1600 1673 
L 1382 798 
C 1286 415 1101 64 762 64 
C 730 64 570 64 435 147 
C 666 192 717 383 717 460 
C 717 588 621 664 499 664 
C 346 664 179 530 179 326 
C 179 57 480 -64 755 -64 
C 1062 -64 1280 179 1414 441 
C 1517 64 1837 -64 2074 -64 
C 2726 -64 3072 773 3072 913 
C 3072 945 3046 971 3008 971 
C 2950 971 2944 939 2925 888 
C 2752 326 2381 64 2093 64 
C 1869 64 1747 230 1747 492 
C 1747 632 1773 734 1875 1156 
L 2099 2024 
C 2195 2408 2413 2689 2707 2689 
C 2720 2689 2899 2689 3034 2606 
z
" transform="scale(0.015625)"/>
      </defs>
      <use xlink:href="#CMMI12-78" transform="scale(0.996264)"/>
     </g>
    </g>
   </g>
   <g id="matplotlib.axis_2">
    <g id="text_2">
     <!-- $y$ -->
     <g transform="translate(215.387165 16.140682) scale(0.2 -0.2)">
      <defs>
       <path id="CMMI12-79" d="M 1683 -700 
C 1510 -939 1261 -1152 947 -1152 
C 870 -1152 563 -1152 467 -889 
C 486 -895 518 -895 531 -895 
C 723 -895 851 -729 851 -582 
C 851 -435 730 -384 634 -384 
C 531 -384 307 -458 307 -759 
C 307 -1071 582 -1286 947 -1286 
C 1587 -1286 2234 -700 2413 6 
L 3040 2485 
C 3046 2517 3059 2556 3059 2594 
C 3059 2689 2982 2753 2886 2753 
C 2829 2753 2694 2727 2643 2535 
L 2170 658 
C 2138 543 2138 530 2086 460 
C 1958 281 1747 64 1440 64 
C 1082 64 1050 415 1050 588 
C 1050 952 1222 1443 1395 1903 
C 1466 2088 1504 2178 1504 2305 
C 1504 2574 1312 2816 998 2816 
C 410 2816 173 1890 173 1839 
C 173 1814 198 1782 243 1782 
C 301 1782 307 1807 333 1897 
C 486 2433 730 2689 979 2689 
C 1037 2689 1146 2689 1146 2478 
C 1146 2312 1075 2127 979 1884 
C 666 1047 666 837 666 683 
C 666 77 1101 -64 1421 -64 
C 1606 -64 1837 -6 2061 230 
L 2067 224 
C 1971 -147 1907 -392 1683 -700 
z
" transform="scale(0.015625)"/>
      </defs>
      <use xlink:href="#CMMI12-79" transform="scale(0.996264)"/>
     </g>
    </g>
   </g>
   <g id="line2d_1">
    <defs>
     <path id="m0db28f0c52" d="M 3 0 
L -3 -3 
L -3 3 
z
" style="stroke: #000000; stroke-linejoin: miter"/>
    </defs>
    <g>
     <use xlink:href="#m0db28f0c52" x="447" y="177.408158" style="stroke: #000000; stroke-linejoin: miter"/>
    </g>
   </g>
   <g id="line2d_2">
    <defs>
     <path id="m9cf42371bc" d="M 0 -3 
L -3 3 
L 3 3 
z
" style="stroke: #000000; stroke-linejoin: miter"/>
    </defs>
    <g>
     <use xlink:href="#m9cf42371bc" x="228.9" y="20.016315" style="stroke: #000000; stroke-linejoin: miter"/>
    </g>
   </g>
   <g id="line2d_3">
    <path d="M 10.8 177.059274 
L 20.919414 176.688041 
L 28.695385 176.189489 
L 35.193114 175.555667 
L 40.838681 174.784085 
L 45.845128 173.87872 
L 50.425495 172.826854 
L 54.6863 171.621106 
L 58.734066 170.241701 
L 62.568791 168.698039 
L 66.296996 166.953365 
L 69.918681 165.009177 
L 73.433846 162.87234 
L 76.949011 160.47884 
L 80.570696 157.738625 
L 84.298901 154.628424 
L 88.133626 151.134855 
L 92.287912 147.042992 
L 97.081319 141.99498 
L 104.218168 134.105153 
L 111.035458 126.673403 
L 114.870183 122.819988 
L 117.959267 120.02588 
L 120.622271 117.917086 
L 122.965714 116.344628 
L 125.096117 115.185055 
L 127.01348 114.390846 
L 128.824322 113.881473 
L 130.528645 113.635129 
L 132.126447 113.625334 
L 133.724249 113.843949 
L 135.215531 114.266077 
L 136.706813 114.909614 
L 138.198095 115.784576 
L 139.795897 116.989437 
L 141.3937 118.481141 
L 142.991502 120.268951 
L 144.695824 122.511189 
L 146.506667 125.281039 
L 148.317509 128.456342 
L 150.234872 132.263925 
L 152.258755 136.779641 
L 154.389158 142.077228 
L 156.732601 148.531584 
L 159.182564 155.948287 
L 161.845568 164.72646 
L 164.828132 175.338225 
L 168.343297 188.694204 
L 173.456264 209.110891 
L 180.060513 235.348313 
L 183.256117 247.126745 
L 185.812601 255.753829 
L 188.049524 262.54649 
L 189.966886 267.699182 
L 191.671209 271.69001 
L 193.269011 274.876697 
L 194.653773 277.170678 
L 195.932015 278.879319 
L 197.103736 280.08454 
L 198.168938 280.86934 
L 199.127619 281.315112 
L 200.0863 281.508246 
L 200.938462 281.463889 
L 201.790623 281.213169 
L 202.749304 280.681469 
L 203.707985 279.882931 
L 204.773187 278.680592 
L 205.838388 277.145545 
L 207.01011 275.07311 
L 208.288352 272.356481 
L 209.673114 268.883784 
L 211.164396 264.541387 
L 212.868718 258.839549 
L 214.67956 251.960765 
L 216.703443 243.344925 
L 218.940366 232.801013 
L 221.49685 219.638496 
L 224.692454 201.921616 
L 229.805421 172.082284 
L 234.811868 143.301293 
L 237.900952 126.824932 
L 240.457436 114.380611 
L 242.694359 104.590881 
L 244.611722 97.130707 
L 246.422564 90.945192 
L 248.020366 86.222176 
L 249.511648 82.459834 
L 250.89641 79.53823 
L 252.174652 77.337137 
L 253.346374 75.740111 
L 254.411575 74.637429 
L 255.370256 73.928077 
L 256.328938 73.48478 
L 257.181099 73.311755 
L 258.03326 73.344062 
L 258.885421 73.578616 
L 259.844103 74.079797 
L 260.802784 74.826707 
L 261.867985 75.936996 
L 263.039707 77.487973 
L 264.317949 79.557671 
L 265.702711 82.222135 
L 267.300513 85.807521 
L 269.004835 90.187396 
L 270.922198 95.730664 
L 273.159121 102.913487 
L 275.715604 111.898173 
L 278.911209 123.991263 
L 283.704615 143.12168 
L 290.628425 170.659344 
L 294.25011 184.118303 
L 297.232674 194.391804 
L 299.895678 202.820247 
L 302.345641 209.885216 
L 304.689084 215.983991 
L 306.926007 221.181309 
L 308.94989 225.348338 
L 310.867253 228.824797 
L 312.784615 231.845547 
L 314.595458 234.286176 
L 316.29978 236.225294 
L 318.004103 237.826878 
L 319.601905 239.031739 
L 321.199707 239.960228 
L 322.797509 240.623857 
L 324.395311 241.035023 
L 325.993114 241.206851 
L 327.590916 241.15305 
L 329.295238 240.862918 
L 330.99956 240.349728 
L 332.810403 239.579948 
L 334.834286 238.471687 
L 337.071209 236.976839 
L 339.521172 235.059563 
L 342.290696 232.600718 
L 345.592821 229.356552 
L 349.853626 224.833015 
L 366.89685 206.376597 
L 371.051136 202.386718 
L 374.992381 198.90904 
L 378.720586 195.915559 
L 382.342271 193.290224 
L 385.963956 190.941395 
L 389.585641 188.860531 
L 393.207326 187.034195 
L 396.935531 185.402148 
L 400.770256 183.964111 
L 404.818022 182.684419 
L 409.078828 181.570545 
L 413.659194 180.603036 
L 418.665641 179.774059 
L 424.311209 179.071024 
L 430.702418 178.50437 
L 438.371868 178.057166 
L 447 177.757041 
L 447 177.757041 
" clip-path="url(#p918b21fe08)" style="fill: none; stroke: #0072b2; stroke-width: 2.5; stroke-linecap: square"/>
   </g>
   <g id="patch_3">
    <path d="M 228.9 334.8 
L 228.9 20.016315 
" style="fill: none; stroke: #000000; stroke-width: 0.8; stroke-linejoin: miter; stroke-linecap: square"/>
   </g>
   <g id="patch_4">
    <path d="M 447 334.8 
L 447 20.016315 
" style="fill: none"/>
   </g>
   <g id="patch_5">
    <path d="M 10.8 177.408158 
L 447 177.408158 
" style="fill: none; stroke: #000000; stroke-width: 0.8; stroke-linejoin: miter; stroke-linecap: square"/>
   </g>
   <g id="patch_6">
    <path d="M 10.8 20.016315 
L 447 20.016315 
" style="fill: none"/>
   </g>
   <g id="legend_1">
    <g id="patch_7">
     <path d="M 354.374426 63.891949 
L 433 63.891949 
Q 437 63.891949 437 59.891949 
L 437 34.016315 
Q 437 30.016315 433 30.016315 
L 354.374426 30.016315 
Q 350.374426 30.016315 350.374426 34.016315 
L 350.374426 59.891949 
Q 350.374426 63.891949 354.374426 63.891949 
z
" style="fill: #ffffff; opacity: 0.8; stroke: #cccccc; stroke-linejoin: miter"/>
    </g>
    <g id="line2d_4">
     <path d="M 358.374426 45.016315 
L 378.374426 45.016315 
L 398.374426 45.016315 
" style="fill: none; stroke: #0072b2; stroke-width: 2.5; stroke-linecap: square"/>
    </g>
    <g id="text_3">
     <!-- $A$ -->
     <g transform="translate(414.374426 52.016315) scale(0.2 -0.2)">
      <defs>
       <path id="CMMI12-41" d="M 1088 691 
C 864 314 646 186 339 186 
C 269 180 218 180 218 58 
C 218 24 250 0 294 0 
C 410 0 698 0 813 0 
C 998 0 1203 0 1382 0 
C 1421 0 1498 0 1498 122 
C 1498 180 1446 186 1408 186 
C 1261 186 1139 236 1139 388 
C 1139 476 1178 546 1261 685 
L 1747 1479 
L 3379 1479 
C 3386 1423 3386 1373 3392 1316 
C 3411 1152 3488 495 3488 376 
C 3488 186 3162 186 3059 186 
C 2989 186 2918 186 2918 70 
C 2918 0 2976 0 3014 0 
C 3123 0 3251 0 3360 0 
L 3725 0 
C 4115 0 4397 0 4403 0 
C 4448 0 4518 0 4518 122 
C 4518 186 4461 186 4365 186 
C 4013 186 4006 244 3987 434 
L 3597 4404 
C 3584 4531 3558 4544 3488 4544 
C 3424 4544 3386 4531 3328 4435 
L 1088 691 
z
M 1856 1664 
L 3142 3819 
L 3360 1664 
L 1856 1664 
z
" transform="scale(0.015625)"/>
      </defs>
      <use xlink:href="#CMMI12-41" transform="scale(0.996264)"/>
     </g>
    </g>
   </g>
  </g>
 </g>
 <defs>
  <clipPath id="p918b21fe08">
   <rect x="10.8" y="20.016315" width="436.2" height="314.783685"/>
  </clipPath>
 </defs>
</svg>
