<?xml version="1.0" encoding="utf-8" standalone="no"?>
<!DOCTYPE svg PUBLIC "-//W3C//DTD SVG 1.1//EN"
  "http://www.w3.org/Graphics/SVG/1.1/DTD/svg11.dtd">
<svg xmlns:xlink="http://www.w3.org/1999/xlink" width="453.6pt" height="335.572692pt" viewBox="0 0 453.6 335.572692" xmlns="http://www.w3.org/2000/svg" version="1.1">
 <metadata>
  <rdf:RDF xmlns:dc="http://purl.org/dc/elements/1.1/" xmlns:cc="http://creativecommons.org/ns#" xmlns:rdf="http://www.w3.org/1999/02/22-rdf-syntax-ns#">
   <cc:Work>
    <dc:type rdf:resource="http://purl.org/dc/dcmitype/StillImage"/>
    <dc:date>2026-01-22T01:58:42.408224</dc:date>
    <dc:format>image/svg+xml</dc:format>
    <dc:creator>
     <cc:Agent>
      <dc:title>Matplotlib v3.9.1, https://matplotlib.org/</dc:title>
     </cc:Agent>
    </dc:creator>
   </cc:Work>
  </rdf:RDF>
 </metadata>
 <defs>
  <style type="text/css">*{stroke-linejoin: round; stroke-linecap: butt}</style>
 </defs>
 <g id="frame0004_ba69f5_figure_1">
  <g id="frame0004_ba69f5_patch_1">
   <path d="M 0 335.572692 
L 453.6 335.572692 
L 453.6 0 
L 0 0 
L 0 335.572692 
z
" style="fill: none; opacity: 0"/>
  </g>
  <g id="frame0004_ba69f5_axes_1">
   <g id="frame0004_ba69f5_patch_2">
    <path d="M 7.2 328.372692 
L 443.4 328.372692 
L 443.4 16.556315 
L 7.2 16.556315 
L 7.2 328.372692 
z
" style="fill: none; opacity: 0"/>
   </g>
   <g id="frame0004_ba69f5_matplotlib.axis_1">
    <g id="frame0004_ba69f5_xtick_1">
     <g id="frame0004_ba69f5_line2d_1">
      <defs>
       <path id="frame0004_ba69f5_m577cf8c371" d="M 0 0 
L 0 3.5 
" style="stroke: #000000; stroke-width: 0.8"/>
      </defs>
      <g>
       <use xlink:href="#frame0004_ba69f5_m577cf8c371" x="40.753846" y="172.464503" style="stroke: #000000; stroke-width: 0.8"/>
      </g>
     </g>
     <g id="frame0004_ba69f5_text_1">
      <!-- $\mathdefault{−5}$ -->
      <g transform="translate(28.436055 193.3015) scale(0.2 -0.2)">
       <defs>
        <path id="frame0004_ba69f5_CMSY10-0" d="M 4218 1472 
C 4326 1472 4442 1472 4442 1600 
C 4442 1728 4326 1728 4218 1728 
L 755 1728 
C 646 1728 531 1728 531 1600 
C 531 1472 646 1472 755 1472 
L 4218 1472 
z
" transform="scale(0.015625)"/>
        <path id="frame0004_ba69f5_CMR17-35" d="M 730 3692 
C 794 3666 1056 3584 1325 3584 
C 1920 3584 2246 3911 2432 4100 
C 2432 4157 2432 4192 2394 4192 
C 2387 4192 2374 4192 2323 4163 
C 2099 4058 1837 3973 1517 3973 
C 1325 3973 1037 3999 723 4139 
C 653 4171 640 4171 634 4171 
C 602 4171 595 4164 595 4037 
L 595 2203 
C 595 2089 595 2057 659 2057 
C 691 2057 704 2070 736 2114 
C 941 2401 1222 2522 1542 2522 
C 1766 2522 2246 2382 2246 1289 
C 2246 1085 2246 715 2054 421 
C 1894 159 1645 25 1370 25 
C 947 25 518 320 403 814 
C 429 807 480 795 506 795 
C 589 795 749 840 749 1038 
C 749 1210 627 1280 506 1280 
C 358 1280 262 1190 262 1011 
C 262 454 704 -128 1382 -128 
C 2042 -128 2669 440 2669 1264 
C 2669 2030 2170 2624 1549 2624 
C 1222 2624 947 2503 730 2274 
L 730 3692 
z
" transform="scale(0.015625)"/>
       </defs>
       <use xlink:href="#frame0004_ba69f5_CMSY10-0" transform="scale(0.996264)"/>
       <use xlink:href="#frame0004_ba69f5_CMR17-35" transform="translate(77.487468 0) scale(0.996264)"/>
      </g>
     </g>
    </g>
    <g id="frame0004_ba69f5_xtick_2">
     <g id="frame0004_ba69f5_line2d_2">
      <g>
       <use xlink:href="#frame0004_ba69f5_m577cf8c371" x="74.307692" y="172.464503" style="stroke: #000000; stroke-width: 0.8"/>
      </g>
     </g>
     <g id="frame0004_ba69f5_text_2">
      <!-- $\mathdefault{−4}$ -->
      <g transform="translate(61.989901 193.3015) scale(0.2 -0.2)">
       <defs>
        <path id="frame0004_ba69f5_CMR17-34" d="M 2150 4122 
C 2150 4256 2144 4256 2029 4256 
L 128 1254 
L 128 1088 
L 1779 1088 
L 1779 457 
C 1779 224 1766 160 1318 160 
L 1197 160 
L 1197 0 
C 1402 0 1747 0 1965 0 
C 2182 0 2528 0 2733 0 
L 2733 160 
L 2611 160 
C 2163 160 2150 224 2150 457 
L 2150 1088 
L 2803 1088 
L 2803 1254 
L 2150 1254 
L 2150 4122 
z
M 1798 3703 
L 1798 1254 
L 256 1254 
L 1798 3703 
z
" transform="scale(0.015625)"/>
       </defs>
       <use xlink:href="#frame0004_ba69f5_CMSY10-0" transform="scale(0.996264)"/>
       <use xlink:href="#frame0004_ba69f5_CMR17-34" transform="translate(77.487468 0) scale(0.996264)"/>
      </g>
     </g>
    </g>
    <g id="frame0004_ba69f5_xtick_3">
     <g id="frame0004_ba69f5_line2d_3">
      <g>
       <use xlink:href="#frame0004_ba69f5_m577cf8c371" x="107.861538" y="172.464503" style="stroke: #000000; stroke-width: 0.8"/>
      </g>
     </g>
     <g id="frame0004_ba69f5_text_3">
      <!-- $\mathdefault{−3}$ -->
      <g transform="translate(95.543747 193.3015) scale(0.2 -0.2)">
       <defs>
        <path id="frame0004_ba69f5_CMR17-33" d="M 1414 2157 
C 1984 2157 2234 1662 2234 1090 
C 2234 320 1824 25 1453 25 
C 1114 25 563 194 390 693 
C 422 680 454 680 486 680 
C 640 680 755 782 755 948 
C 755 1133 614 1216 486 1216 
C 378 1216 211 1165 211 926 
C 211 335 787 -128 1466 -128 
C 2176 -128 2720 430 2720 1085 
C 2720 1707 2208 2157 1600 2227 
C 2086 2328 2554 2756 2554 3329 
C 2554 3820 2048 4179 1472 4179 
C 890 4179 378 3829 378 3329 
C 378 3110 544 3072 627 3072 
C 762 3072 877 3155 877 3321 
C 877 3486 762 3569 627 3569 
C 602 3569 570 3569 544 3557 
C 730 3959 1235 4032 1459 4032 
C 1683 4032 2106 3925 2106 3320 
C 2106 3143 2080 2828 1862 2550 
C 1670 2304 1453 2304 1242 2284 
C 1210 2284 1062 2269 1037 2269 
C 992 2263 966 2257 966 2208 
C 966 2163 973 2157 1101 2157 
L 1414 2157 
z
" transform="scale(0.015625)"/>
       </defs>
       <use xlink:href="#frame0004_ba69f5_CMSY10-0" transform="scale(0.996264)"/>
       <use xlink:href="#frame0004_ba69f5_CMR17-33" transform="translate(77.487468 0) scale(0.996264)"/>
      </g>
     </g>
    </g>
    <g id="frame0004_ba69f5_xtick_4">
     <g id="frame0004_ba69f5_line2d_4">
      <g>
       <use xlink:href="#frame0004_ba69f5_m577cf8c371" x="141.415385" y="172.464503" style="stroke: #000000; stroke-width: 0.8"/>
      </g>
     </g>
     <g id="frame0004_ba69f5_text_4">
      <!-- $\mathdefault{−2}$ -->
      <g transform="translate(129.097593 193.3015) scale(0.2 -0.2)">
       <defs>
        <path id="frame0004_ba69f5_CMR17-32" d="M 2669 989 
L 2554 989 
C 2490 536 2438 459 2413 420 
C 2381 369 1920 369 1830 369 
L 602 369 
C 832 619 1280 1072 1824 1597 
C 2214 1967 2669 2402 2669 3035 
C 2669 3790 2067 4224 1395 4224 
C 691 4224 262 3604 262 3030 
C 262 2780 448 2748 525 2748 
C 589 2748 781 2787 781 3010 
C 781 3207 614 3264 525 3264 
C 486 3264 448 3258 422 3245 
C 544 3790 915 4058 1306 4058 
C 1862 4058 2227 3617 2227 3035 
C 2227 2479 1901 2000 1536 1584 
L 262 146 
L 262 0 
L 2515 0 
L 2669 989 
z
" transform="scale(0.015625)"/>
       </defs>
       <use xlink:href="#frame0004_ba69f5_CMSY10-0" transform="scale(0.996264)"/>
       <use xlink:href="#frame0004_ba69f5_CMR17-32" transform="translate(77.487468 0) scale(0.996264)"/>
      </g>
     </g>
    </g>
    <g id="frame0004_ba69f5_xtick_5">
     <g id="frame0004_ba69f5_line2d_5">
      <g>
       <use xlink:href="#frame0004_ba69f5_m577cf8c371" x="174.969231" y="172.464503" style="stroke: #000000; stroke-width: 0.8"/>
      </g>
     </g>
     <g id="frame0004_ba69f5_text_5">
      <!-- $\mathdefault{−1}$ -->
      <g transform="translate(162.651439 193.3015) scale(0.2 -0.2)">
       <defs>
        <path id="frame0004_ba69f5_CMR17-31" d="M 1702 4058 
C 1702 4192 1696 4192 1606 4192 
C 1357 3916 979 3827 621 3827 
C 602 3827 570 3827 563 3808 
C 557 3795 557 3782 557 3648 
C 755 3648 1088 3686 1344 3839 
L 1344 461 
C 1344 236 1331 160 781 160 
L 589 160 
L 589 0 
C 896 0 1216 0 1523 0 
C 1830 0 2150 0 2458 0 
L 2458 160 
L 2266 160 
C 1715 160 1702 230 1702 458 
L 1702 4058 
z
" transform="scale(0.015625)"/>
       </defs>
       <use xlink:href="#frame0004_ba69f5_CMSY10-0" transform="scale(0.996264)"/>
       <use xlink:href="#frame0004_ba69f5_CMR17-31" transform="translate(77.487468 0) scale(0.996264)"/>
      </g>
     </g>
    </g>
    <g id="frame0004_ba69f5_xtick_6">
     <g id="frame0004_ba69f5_line2d_6">
      <g>
       <use xlink:href="#frame0004_ba69f5_m577cf8c371" x="242.076923" y="172.464503" style="stroke: #000000; stroke-width: 0.8"/>
      </g>
     </g>
     <g id="frame0004_ba69f5_text_6">
      <!-- $\mathdefault{1}$ -->
      <g transform="translate(237.507875 193.3015) scale(0.2 -0.2)">
       <use xlink:href="#frame0004_ba69f5_CMR17-31" transform="scale(0.996264)"/>
      </g>
     </g>
    </g>
    <g id="frame0004_ba69f5_xtick_7">
     <g id="frame0004_ba69f5_line2d_7">
      <g>
       <use xlink:href="#frame0004_ba69f5_m577cf8c371" x="275.630769" y="172.464503" style="stroke: #000000; stroke-width: 0.8"/>
      </g>
     </g>
     <g id="frame0004_ba69f5_text_7">
      <!-- $\mathdefault{2}$ -->
      <g transform="translate(271.061722 193.3015) scale(0.2 -0.2)">
       <use xlink:href="#frame0004_ba69f5_CMR17-32" transform="scale(0.996264)"/>
      </g>
     </g>
    </g>
    <g id="frame0004_ba69f5_xtick_8">
     <g id="frame0004_ba69f5_line2d_8">
      <g>
       <use xlink:href="#frame0004_ba69f5_m577cf8c371" x="309.184615" y="172.464503" style="stroke: #000000; stroke-width: 0.8"/>
      </g>
     </g>
     <g id="frame0004_ba69f5_text_8">
      <!-- $\mathdefault{3}$ -->
      <g transform="translate(304.615568 193.3015) scale(0.2 -0.2)">
       <use xlink:href="#frame0004_ba69f5_CMR17-33" transform="scale(0.996264)"/>
      </g>
     </g>
    </g>
    <g id="frame0004_ba69f5_xtick_9">
     <g id="frame0004_ba69f5_line2d_9">
      <g>
       <use xlink:href="#frame0004_ba69f5_m577cf8c371" x="342.738462" y="172.464503" style="stroke: #000000; stroke-width: 0.8"/>
      </g>
     </g>
     <g id="frame0004_ba69f5_text_9">
      <!-- $\mathdefault{4}$ -->
      <g transform="translate(338.169414 193.3015) scale(0.2 -0.2)">
       <use xlink:href="#frame0004_ba69f5_CMR17-34" transform="scale(0.996264)"/>
      </g>
     </g>
    </g>
    <g id="frame0004_ba69f5_xtick_10">
     <g id="frame0004_ba69f5_line2d_10">
      <g>
       <use xlink:href="#frame0004_ba69f5_m577cf8c371" x="376.292308" y="172.464503" style="stroke: #000000; stroke-width: 0.8"/>
      </g>
     </g>
     <g id="frame0004_ba69f5_text_10">
      <!-- $\mathdefault{5}$ -->
      <g transform="translate(371.72326 193.3015) scale(0.2 -0.2)">
       <use xlink:href="#frame0004_ba69f5_CMR17-35" transform="scale(0.996264)"/>
      </g>
     </g>
    </g>
    <g id="frame0004_ba69f5_xtick_11">
     <g id="frame0004_ba69f5_line2d_11">
      <g>
       <use xlink:href="#frame0004_ba69f5_m577cf8c371" x="409.846154" y="172.464503" style="stroke: #000000; stroke-width: 0.8"/>
      </g>
     </g>
     <g id="frame0004_ba69f5_text_11">
      <!-- $\mathdefault{6}$ -->
      <g transform="translate(405.277106 193.3015) scale(0.2 -0.2)">
       <defs>
        <path id="frame0004_ba69f5_CMR17-36" d="M 678 2176 
C 678 3690 1395 4032 1811 4032 
C 1946 4032 2272 4009 2400 3776 
C 2298 3776 2106 3776 2106 3553 
C 2106 3381 2246 3323 2336 3323 
C 2394 3323 2566 3348 2566 3560 
C 2566 3954 2246 4179 1805 4179 
C 1043 4179 243 3390 243 1984 
C 243 253 966 -128 1478 -128 
C 2099 -128 2688 427 2688 1283 
C 2688 2081 2170 2662 1517 2662 
C 1126 2662 838 2407 678 1960 
L 678 2176 
z
M 1478 25 
C 691 25 691 1200 691 1436 
C 691 1896 909 2560 1504 2560 
C 1613 2560 1926 2560 2138 2120 
C 2253 1870 2253 1609 2253 1289 
C 2253 944 2253 690 2118 434 
C 1978 171 1773 25 1478 25 
z
" transform="scale(0.015625)"/>
       </defs>
       <use xlink:href="#frame0004_ba69f5_CMR17-36" transform="scale(0.996264)"/>
      </g>
     </g>
    </g>
    <g id="frame0004_ba69f5_text_12">
     <!-- $x$ -->
     <g transform="translate(432.313188 215.01413) scale(0.2 -0.2)">
      <defs>
       <path id="frame0004_ba69f5_CMMI12-78" d="M 3034 2606 
C 2829 2567 2752 2414 2752 2293 
C 2752 2139 2874 2088 2963 2088 
C 3155 2088 3290 2254 3290 2427 
C 3290 2695 2982 2816 2714 2816 
C 2323 2816 2106 2433 2048 2312 
C 1901 2816 1504 2816 1389 2816 
C 736 2816 390 1980 390 1839 
C 390 1814 416 1782 461 1782 
C 512 1782 525 1820 538 1846 
C 755 2555 1184 2689 1370 2689 
C 1658 2689 1715 2420 1715 2267 
C 1715 2127 1677 1980 1600 1673 
L 1382 798 
C 1286 415 1101 64 762 64 
C 730 64 570 64 435 147 
C 666 192 717 383 717 460 
C 717 588 621 664 499 664 
C 346 664 179 530 179 326 
C 179 57 480 -64 755 -64 
C 1062 -64 1280 179 1414 441 
C 1517 64 1837 -64 2074 -64 
C 2726 -64 3072 773 3072 913 
C 3072 945 3046 971 3008 971 
C 2950 971 2944 939 2925 888 
C 2752 326 2381 64 2093 64 
C 1869 64 1747 230 1747 492 
C 1747 632 1773 734 1875 1156 
L 2099 2024 
C 2195 2408 2413 2689 2707 2689 
C 2720 2689 2899 2689 3034 2606 
z
" transform="scale(0.015625)"/>
      </defs>
      <use xlink:href="#frame0004_ba69f5_CMMI12-78" transform="scale(0.996264)"/>
     </g>
    </g>
   </g>
   <g id="frame0004_ba69f5_matplotlib.axis_2">
    <g id="frame0004_ba69f5_text_13">
     <!-- $y$ -->
     <g transform="translate(195.010242 12.680682) scale(0.2 -0.2)">
      <defs>
       <path id="frame0004_ba69f5_CMMI12-79" d="M 1683 -700 
C 1510 -939 1261 -1152 947 -1152 
C 870 -1152 563 -1152 467 -889 
C 486 -895 518 -895 531 -895 
C 723 -895 851 -729 851 -582 
C 851 -435 730 -384 634 -384 
C 531 -384 307 -458 307 -759 
C 307 -1071 582 -1286 947 -1286 
C 1587 -1286 2234 -700 2413 6 
L 3040 2485 
C 3046 2517 3059 2556 3059 2594 
C 3059 2689 2982 2753 2886 2753 
C 2829 2753 2694 2727 2643 2535 
L 2170 658 
C 2138 543 2138 530 2086 460 
C 1958 281 1747 64 1440 64 
C 1082 64 1050 415 1050 588 
C 1050 952 1222 1443 1395 1903 
C 1466 2088 1504 2178 1504 2305 
C 1504 2574 1312 2816 998 2816 
C 410 2816 173 1890 173 1839 
C 173 1814 198 1782 243 1782 
C 301 1782 307 1807 333 1897 
C 486 2433 730 2689 979 2689 
C 1037 2689 1146 2689 1146 2478 
C 1146 2312 1075 2127 979 1884 
C 666 1047 666 837 666 683 
C 666 77 1101 -64 1421 -64 
C 1606 -64 1837 -6 2061 230 
L 2067 224 
C 1971 -147 1907 -392 1683 -700 
z
" transform="scale(0.015625)"/>
      </defs>
      <use xlink:href="#frame0004_ba69f5_CMMI12-79" transform="scale(0.996264)"/>
     </g>
    </g>
   </g>
   <g id="frame0004_ba69f5_line2d_12">
    <defs>
     <path id="frame0004_ba69f5_m391af4d864" d="M 3 0 
L -3 -3 
L -3 3 
z
" style="stroke: #000000; stroke-linejoin: miter"/>
    </defs>
    <g>
     <use xlink:href="#frame0004_ba69f5_m391af4d864" x="443.4" y="172.464503" style="stroke: #000000; stroke-linejoin: miter"/>
    </g>
   </g>
   <g id="frame0004_ba69f5_line2d_13">
    <defs>
     <path id="frame0004_ba69f5_m6c753bf8b8" d="M 0 -3 
L -3 3 
L 3 3 
z
" style="stroke: #000000; stroke-linejoin: miter"/>
    </defs>
    <g>
     <use xlink:href="#frame0004_ba69f5_m6c753bf8b8" x="208.523077" y="16.556315" style="stroke: #000000; stroke-linejoin: miter"/>
    </g>
   </g>
   <g id="frame0004_ba69f5_line2d_14">
    <path d="M 121.021424 336.572692 
L 127.000283 321.388901 
L 133.029136 306.667991 
L 139.057989 292.539235 
L 145.086841 279.002633 
L 150.713771 266.902725 
L 156.3407 255.31865 
L 161.96763 244.250406 
L 167.594559 233.697995 
L 172.819565 224.361208 
L 178.04457 215.469194 
L 183.269576 207.021953 
L 188.494582 199.019487 
L 193.317664 192.027363 
L 198.140747 185.414219 
L 202.963829 179.180053 
L 207.786911 173.324866 
L 212.20807 168.290533 
L 216.629229 163.574648 
L 221.050388 159.17721 
L 225.471546 155.098219 
L 229.892705 151.337676 
L 233.91194 148.195339 
L 237.931176 145.316181 
L 241.950411 142.700203 
L 245.969646 140.347405 
L 249.988881 138.257786 
L 254.008117 136.431347 
L 258.027352 134.868087 
L 261.644664 133.686172 
L 265.261975 132.717432 
L 268.879287 131.961868 
L 272.496599 131.41948 
L 276.11391 131.090266 
L 279.731222 130.974229 
L 283.348534 131.071367 
L 284.152381 131.121903 
L 284.152381 131.121903 
" clip-path="url(#frame0004_ba69f5_p61a4a127ac)" style="fill: none; stroke: #0072b2; stroke-width: 2.5; stroke-linecap: square"/>
   </g>
   <g id="frame0004_ba69f5_line2d_15">
    <path d="M 284.152381 131.121903 
L 288.725563 125.63425 
L 293.298744 119.805874 
L 298.125992 113.284056 
L 302.953239 106.382605 
L 307.780486 99.10152 
L 312.861799 91.02709 
L 317.943112 82.532014 
L 323.024425 73.616291 
L 328.359804 63.802061 
L 333.695182 53.524068 
L 339.284626 42.259233 
L 344.874071 30.485415 
L 350.463515 18.202615 
L 356.307025 4.817295 
L 358.773687 -1 
L 358.773687 -1 
" clip-path="url(#frame0004_ba69f5_p61a4a127ac)" style="fill: none; stroke: #dc5e8b; stroke-width: 2.5; stroke-linecap: square"/>
   </g>
   <g id="frame0004_ba69f5_patch_3">
    <path d="M 208.523077 328.372692 
L 208.523077 16.556315 
" style="fill: none; stroke: #000000; stroke-width: 0.8; stroke-linejoin: miter; stroke-linecap: square"/>
   </g>
   <g id="frame0004_ba69f5_patch_4">
    <path d="M 443.4 328.372692 
L 443.4 16.556315 
" style="fill: none"/>
   </g>
   <g id="frame0004_ba69f5_patch_5">
    <path d="M 7.2 172.464503 
L 443.4 172.464503 
" style="fill: none; stroke: #000000; stroke-width: 0.8; stroke-linejoin: miter; stroke-linecap: square"/>
   </g>
   <g id="frame0004_ba69f5_patch_6">
    <path d="M 7.2 16.556315 
L 443.4 16.556315 
" style="fill: none"/>
   </g>
   <g id="frame0004_ba69f5_line2d_16">
    <path clip-path="url(#frame0004_ba69f5_p61a4a127ac)" style="fill: none; stroke: #0072b2; stroke-width: 2"/>
   </g>
   <g id="frame0004_ba69f5_line2d_17">
    <path clip-path="url(#frame0004_ba69f5_p61a4a127ac)" style="fill: none; stroke: #0072b2; stroke-width: 2"/>
   </g>
   <g id="frame0004_ba69f5_line2d_18">
    <path d="M 284.152381 131.121903 
L 278.998916 121.761379 
" clip-path="url(#frame0004_ba69f5_p61a4a127ac)" style="fill: none; stroke: #0072b2; stroke-width: 2"/>
   </g>
   <g id="frame0004_ba69f5_line2d_19">
    <path d="M 284.152381 131.121903 
L 277.810962 139.722136 
" clip-path="url(#frame0004_ba69f5_p61a4a127ac)" style="fill: none; stroke: #0072b2; stroke-width: 2"/>
   </g>
   <g id="frame0004_ba69f5_line2d_20">
    <path d="M 290.981006 136.984485 
L 277.323756 125.25932 
" clip-path="url(#frame0004_ba69f5_p61a4a127ac)" style="fill: none; stroke: #dc5e8b; stroke-width: 2"/>
   </g>
   <g id="frame0004_ba69f5_line2d_21">
    <path d="M 277.323756 125.25932 
L 281.075809 120.889 
" clip-path="url(#frame0004_ba69f5_p61a4a127ac)" style="fill: none; stroke: #dc5e8b; stroke-width: 2"/>
   </g>
   <g id="frame0004_ba69f5_line2d_22">
    <path d="M 290.981006 136.984485 
L 294.733059 132.614165 
" clip-path="url(#frame0004_ba69f5_p61a4a127ac)" style="fill: none; stroke: #dc5e8b; stroke-width: 2"/>
   </g>
   <g id="frame0004_ba69f5_line2d_23">
    <path clip-path="url(#frame0004_ba69f5_p61a4a127ac)" style="fill: none; stroke: #dc5e8b; stroke-width: 2"/>
   </g>
   <g id="frame0004_ba69f5_line2d_24">
    <path clip-path="url(#frame0004_ba69f5_p61a4a127ac)" style="fill: none; stroke: #dc5e8b; stroke-width: 2"/>
   </g>
  </g>
 </g>
 <defs>
  <clipPath id="frame0004_ba69f5_p61a4a127ac">
   <rect x="7.2" y="16.556315" width="436.2" height="311.816376"/>
  </clipPath>
 </defs>
</svg>
