<svg xmlns:xlink="http://www.w3.org/1999/xlink" xmlns="http://www.w3.org/2000/svg" width="453.6pt" height="338.54pt" viewBox="0 0 453.6 338.54" version="1.1">
 
 <defs>
  <style type="text/css">*{stroke-linejoin: round; stroke-linecap: butt}</style>
 </defs>
 <g id="figure_1">
  <g id="patch_1">
   <path d="M 0 338.54  L 453.6 338.54  L 453.6 0  L 0 0  L 0 338.54  z " style="fill: none; opacity: 0" id="mb_auto_path_0"/>
  </g>
  <g id="axes_1">
   <g id="patch_2">
    <path d="M 7.2 331.34  L 443.4 331.34  L 443.4 16.556315  L 7.2 16.556315  L 7.2 331.34  z " style="fill: none; opacity: 0" id="mb_auto_path_1"/>
   </g>
   <g id="matplotlib.axis_1">
    <g id="text_1">
     <!-- $x$ -->
     <g transform="translate(432.313188 191.785154) scale(0.2 -0.2)" id="mb_auto_g_0">
      <defs>
       <path id="CMMI12-78" d="M 3034 2606  C 2829 2567 2752 2414 2752 2293  C 2752 2139 2874 2088 2963 2088  C 3155 2088 3290 2254 3290 2427  C 3290 2695 2982 2816 2714 2816  C 2323 2816 2106 2433 2048 2312  C 1901 2816 1504 2816 1389 2816  C 736 2816 390 1980 390 1839  C 390 1814 416 1782 461 1782  C 512 1782 525 1820 538 1846  C 755 2555 1184 2689 1370 2689  C 1658 2689 1715 2420 1715 2267  C 1715 2127 1677 1980 1600 1673  L 1382 798  C 1286 415 1101 64 762 64  C 730 64 570 64 435 147  C 666 192 717 383 717 460  C 717 588 621 664 499 664  C 346 664 179 530 179 326  C 179 57 480 -64 755 -64  C 1062 -64 1280 179 1414 441  C 1517 64 1837 -64 2074 -64  C 2726 -64 3072 773 3072 913  C 3072 945 3046 971 3008 971  C 2950 971 2944 939 2925 888  C 2752 326 2381 64 2093 64  C 1869 64 1747 230 1747 492  C 1747 632 1773 734 1875 1156  L 2099 2024  C 2195 2408 2413 2689 2707 2689  C 2720 2689 2899 2689 3034 2606  z " transform="scale(0.015625)"/>
      </defs>
      <use xlink:href="#CMMI12-78" transform="scale(0.996264)" id="mb_auto_use_0"/>
     </g>
    </g>
   </g>
   <g id="matplotlib.axis_2">
    <g id="text_2">
     <!-- $y$ -->
     <g transform="translate(211.787165 12.680682) scale(0.2 -0.2)" id="mb_auto_g_1">
      <defs>
       <path id="CMMI12-79" d="M 1683 -700  C 1510 -939 1261 -1152 947 -1152  C 870 -1152 563 -1152 467 -889  C 486 -895 518 -895 531 -895  C 723 -895 851 -729 851 -582  C 851 -435 730 -384 634 -384  C 531 -384 307 -458 307 -759  C 307 -1071 582 -1286 947 -1286  C 1587 -1286 2234 -700 2413 6  L 3040 2485  C 3046 2517 3059 2556 3059 2594  C 3059 2689 2982 2753 2886 2753  C 2829 2753 2694 2727 2643 2535  L 2170 658  C 2138 543 2138 530 2086 460  C 1958 281 1747 64 1440 64  C 1082 64 1050 415 1050 588  C 1050 952 1222 1443 1395 1903  C 1466 2088 1504 2178 1504 2305  C 1504 2574 1312 2816 998 2816  C 410 2816 173 1890 173 1839  C 173 1814 198 1782 243 1782  C 301 1782 307 1807 333 1897  C 486 2433 730 2689 979 2689  C 1037 2689 1146 2689 1146 2478  C 1146 2312 1075 2127 979 1884  C 666 1047 666 837 666 683  C 666 77 1101 -64 1421 -64  C 1606 -64 1837 -6 2061 230  L 2067 224  C 1971 -147 1907 -392 1683 -700  z " transform="scale(0.015625)"/>
      </defs>
      <use xlink:href="#CMMI12-79" transform="scale(0.996264)" id="mb_auto_use_1"/>
     </g>
    </g>
   </g>
   <g id="line2d_1">
    <defs>
     <path id="m7f2c7e8ffc" d="M 3 0  L -3 -3  L -3 3  z " style="stroke: #000000; stroke-linejoin: miter"/>
    </defs>
    <g id="mb_auto_g_2">
     <use xlink:href="#m7f2c7e8ffc" x="443.4" y="173.948158" style="stroke: #000000; stroke-linejoin: miter" id="mb_auto_use_2"/>
    </g>
   </g>
   <g id="line2d_2">
    <defs>
     <path id="m650df3f5c8" d="M 0 -3  L -3 3  L 3 3  z " style="stroke: #000000; stroke-linejoin: miter"/>
    </defs>
    <g id="mb_auto_g_3">
     <use xlink:href="#m650df3f5c8" x="225.3" y="16.556315" style="stroke: #000000; stroke-linejoin: miter" id="mb_auto_use_3"/>
    </g>
   </g>
   <g id="line2d_3">
    <defs>
     <path id="mad0aa92d2b" d="M 0 5  C 1.326016 5 2.597899 4.473168 3.535534 3.535534  C 4.473168 2.597899 5 1.326016 5 0  C 5 -1.326016 4.473168 -2.597899 3.535534 -3.535534  C 2.597899 -4.473168 1.326016 -5 0 -5  C -1.326016 -5 -2.597899 -4.473168 -3.535534 -3.535534  C -4.473168 -2.597899 -5 -1.326016 -5 0  C -5 1.326016 -4.473168 2.597899 -3.535534 3.535534  C -2.597899 4.473168 -1.326016 5 0 5  z " style="stroke: #000000; stroke-opacity: 0.8"/>
    </defs>
    <g clip-path="url(#p469bad9624)" id="mb_auto_g_4"/>
   </g>
   <g id="line2d_4">
    <path d="M 214.395 173.948158  L 214.499202 174.710073  L 214.811806 175.427885  L 215.332814 176.057489  L 215.979906 176.512263  L 216.795805 176.827713  L 217.78051 176.971687  L 218.934022 176.912033  L 220.25634 176.616601  L 221.747465 176.053237  L 223.407397 175.189791  L 225.236135 173.994111  L 227.23368 172.434044  L 229.400031 170.47744  L 232.005071 167.799254  L 234.818514 164.547719  L 237.840361 160.678729  L 241.070611 156.148182  L 244.509263 150.911973  L 248.15632 144.925998  L 252.011779 138.146154  L 256.075641 130.528337  L 260.347907 122.028442  L 264.828576 112.602366  L 269.517648 102.206006  L 274.415124 90.795257  L 279.521002 78.326015  L 284.835284 64.754177  L 290.357969 50.035639  L 296.089057 34.126296  L 302.028549 16.982046  L 308.031586 -1  L 308.031586 -1  " clip-path="url(#p469bad9624)" style="fill: none; stroke: #0072b2; stroke-width: 2.5; stroke-linecap: square" id="mb_auto_path_2"/>
   </g>
   <g id="patch_3">
    <path d="M 225.3 331.34  L 225.3 16.556315  " style="fill: none; stroke: #000000; stroke-width: 0.8; stroke-linejoin: miter; stroke-linecap: square" id="mb_auto_path_3"/>
   </g>
   <g id="patch_4">
    <path d="M 443.4 331.34  L 443.4 16.556315  " style="fill: none" id="mb_auto_path_4"/>
   </g>
   <g id="patch_5">
    <path d="M 7.2 173.948158  L 443.4 173.948158  " style="fill: none; stroke: #000000; stroke-width: 0.8; stroke-linejoin: miter; stroke-linecap: square" id="mb_auto_path_5"/>
   </g>
   <g id="patch_6">
    <path d="M 7.2 16.556315  L 443.4 16.556315  " style="fill: none" id="mb_auto_path_6"/>
   </g>
  </g>
 </g>
 <defs>
  <clipPath id="p469bad9624">
   <rect x="7.2" y="16.556315" width="436.2" height="314.783685" id="mb_auto_rect_0"/>
  </clipPath>
 </defs>
</svg>