<?xml version="1.0" encoding="utf-8" standalone="no"?>
<!DOCTYPE svg PUBLIC "-//W3C//DTD SVG 1.1//EN"
  "http://www.w3.org/Graphics/SVG/1.1/DTD/svg11.dtd">
<svg xmlns:xlink="http://www.w3.org/1999/xlink" width="288pt" height="216pt" viewBox="0 0 288 216" xmlns="http://www.w3.org/2000/svg" version="1.1">
 <metadata>
  <rdf:RDF xmlns:dc="http://purl.org/dc/elements/1.1/" xmlns:cc="http://creativecommons.org/ns#" xmlns:rdf="http://www.w3.org/1999/02/22-rdf-syntax-ns#">
   <cc:Work>
    <dc:type rdf:resource="http://purl.org/dc/dcmitype/StillImage"/>
    <dc:date>2025-10-03T20:54:47.641649</dc:date>
    <dc:format>image/svg+xml</dc:format>
    <dc:creator>
     <cc:Agent>
      <dc:title>Matplotlib v3.9.1, https://matplotlib.org/</dc:title>
     </cc:Agent>
    </dc:creator>
   </cc:Work>
  </rdf:RDF>
 </metadata>
 <defs>
  <style type="text/css">*{stroke-linejoin: round; stroke-linecap: butt}</style>
 </defs>
 <g id="figure_1">
  <g id="patch_1">
   <path d="M 0 216 
L 288 216 
L 288 0 
L 0 0 
L 0 216 
z
" style="fill: none"/>
  </g>
  <g id="axes_1">
   <g id="patch_2">
    <path d="M 26.287256 193.173346 
L 261.712744 193.173346 
L 144 16.60423 
z
" clip-path="url(#p95a982d54f)" style="fill: #0072b2; opacity: 0.12"/>
   </g>
   <g id="line2d_1">
    <path d="M 26.287256 193.173346 
L 261.712744 193.173346 
L 144 16.60423 
L 26.287256 193.173346 
" clip-path="url(#p95a982d54f)" style="fill: none; stroke: #0072b2; stroke-width: 2.5; stroke-linecap: square"/>
   </g>
   <g id="line2d_2">
    <defs>
     <path id="m086c42b640" d="M 0 4 
C 1.060812 4 2.078319 3.578535 2.828427 2.828427 
C 3.578535 2.078319 4 1.060812 4 0 
C 4 -1.060812 3.578535 -2.078319 2.828427 -2.828427 
C 2.078319 -3.578535 1.060812 -4 0 -4 
C -1.060812 -4 -2.078319 -3.578535 -2.828427 -2.828427 
C -3.578535 -2.078319 -4 -1.060812 -4 0 
C -4 1.060812 -3.578535 2.078319 -2.828427 2.828427 
C -2.078319 3.578535 -1.060812 4 0 4 
z
" style="stroke: #000000; stroke-opacity: 0.9"/>
    </defs>
    <g clip-path="url(#p95a982d54f)">
     <use xlink:href="#m086c42b640" x="26.287256" y="193.173346" style="fill-opacity: 0.9; stroke: #000000; stroke-opacity: 0.9"/>
    </g>
   </g>
   <g id="line2d_3">
    <g clip-path="url(#p95a982d54f)">
     <use xlink:href="#m086c42b640" x="261.712744" y="193.173346" style="fill-opacity: 0.9; stroke: #000000; stroke-opacity: 0.9"/>
    </g>
   </g>
   <g id="line2d_4">
    <g clip-path="url(#p95a982d54f)">
     <use xlink:href="#m086c42b640" x="144" y="16.60423" style="fill-opacity: 0.9; stroke: #000000; stroke-opacity: 0.9"/>
    </g>
   </g>
   <g id="line2d_5">
    <path d="M 34.006175 193.173346 
L 33.894581 191.865556 
L 33.563026 190.595581 
L 33.021098 189.40014 
L 32.284464 188.313798 
L 31.374425 187.367968 
L 30.568942 186.750817 
L 30.568942 186.750817 
" clip-path="url(#p95a982d54f)" style="fill: none; stroke: #000000; stroke-linecap: square"/>
   </g>
   <g id="line2d_6">
    <path d="M 257.431058 186.750817 
L 256.404813 187.5691 
L 255.532043 188.549426 
L 254.837984 189.663449 
L 254.342704 190.878959 
L 254.060524 192.160809 
L 253.993825 193.173346 
L 253.993825 193.173346 
" clip-path="url(#p95a982d54f)" style="fill: none; stroke: #000000; stroke-linecap: square"/>
   </g>
   <g id="line2d_7">
    <path d="M 139.718315 23.026758 
L 140.843197 23.648113 
L 142.055577 24.074231 
L 143.321851 24.293301 
L 144.606921 24.299251 
L 145.87517 24.091916 
L 147.091443 23.677043 
L 148.222031 23.06613 
L 148.281685 23.026758 
L 148.281685 23.026758 
" clip-path="url(#p95a982d54f)" style="fill: none; stroke: #000000; stroke-linecap: square"/>
   </g>
   <g id="text_1">
    <!-- 3.61 -->
    <g transform="translate(190.482559 107.015012) scale(0.2 -0.2)">
     <defs>
      <path id="CMSS17-33" d="M 1005 2025 
L 1440 2025 
C 2042 2025 2214 1507 2214 1146 
C 2214 653 1933 267 1472 267 
C 1114 267 608 444 320 912 
C 275 691 275 678 250 526 
C 550 88 1037 -128 1485 -128 
C 2214 -128 2752 473 2752 1138 
C 2752 1638 2400 2057 1920 2215 
C 2304 2424 2586 2816 2586 3273 
C 2586 3805 2093 4229 1491 4229 
C 941 4229 512 3892 333 3530 
C 378 3468 493 3284 550 3189 
C 691 3562 1056 3840 1485 3840 
C 1843 3840 2080 3607 2080 3271 
C 2080 2923 1856 2543 1478 2455 
C 1453 2455 1056 2417 1005 2411 
L 1005 2025 
z
" transform="scale(0.015625)"/>
      <path id="CMSS17-2e" d="M 1088 510 
L 576 510 
L 576 0 
L 1088 0 
L 1088 510 
z
" transform="scale(0.015625)"/>
      <path id="CMSS17-36" d="M 2496 4101 
C 2227 4210 2035 4229 1856 4229 
C 1024 4229 250 3368 250 2006 
C 250 265 986 -128 1510 -128 
C 1798 -128 2086 -39 2362 280 
C 2643 617 2752 898 2752 1389 
C 2752 2179 2362 2880 1779 2880 
C 1357 2880 992 2657 768 2376 
C 832 3258 1254 3840 1862 3840 
C 2029 3840 2246 3816 2496 3710 
L 2496 4101 
z
M 774 1369 
C 774 1420 774 1452 781 1548 
C 781 2045 1069 2491 1536 2491 
C 1837 2491 1990 2332 2106 2135 
C 2240 1886 2246 1650 2246 1388 
C 2246 1140 2246 891 2099 637 
C 1978 439 1818 267 1510 267 
C 902 267 800 1114 774 1369 
z
" transform="scale(0.015625)"/>
      <path id="CMSS17-31" d="M 1818 4288 
L 1696 4288 
C 1350 3940 947 3890 538 3890 
L 538 3520 
C 723 3520 1024 3520 1325 3667 
L 1325 369 
L 570 369 
L 570 0 
L 2573 0 
L 2573 369 
L 1818 369 
L 1818 4288 
z
" transform="scale(0.015625)"/>
     </defs>
     <use xlink:href="#CMSS17-33" transform="scale(0.996264)"/>
     <use xlink:href="#CMSS17-2e" transform="translate(46.843624 0) scale(0.996264)"/>
     <use xlink:href="#CMSS17-36" transform="translate(72.867828 0) scale(0.996264)"/>
     <use xlink:href="#CMSS17-31" transform="translate(119.711452 0) scale(0.996264)"/>
    </g>
   </g>
   <g id="text_2">
    <!-- 3.61 -->
    <g transform="translate(64.206444 107.015012) scale(0.2 -0.2)">
     <use xlink:href="#CMSS17-33" transform="scale(0.996264)"/>
     <use xlink:href="#CMSS17-2e" transform="translate(46.843624 0) scale(0.996264)"/>
     <use xlink:href="#CMSS17-36" transform="translate(72.867828 0) scale(0.996264)"/>
     <use xlink:href="#CMSS17-31" transform="translate(119.711452 0) scale(0.996264)"/>
    </g>
   </g>
   <g id="text_3">
    <!-- 4.00 -->
    <g transform="translate(127.344502 203.299973) scale(0.2 -0.2)">
     <defs>
      <path id="CMSS17-34" d="M 2253 1088 
L 2835 1088 
L 2835 1477 
L 2253 1477 
L 2253 4192 
L 1690 4192 
L 166 1477 
L 166 1088 
L 1747 1088 
L 1747 0 
L 2253 0 
L 2253 1088 
z
M 659 1477 
C 1030 2127 1766 3439 1766 3885 
L 1766 1477 
L 659 1477 
z
" transform="scale(0.015625)"/>
      <path id="CMSS17-30" d="M 2758 2044 
C 2758 2405 2752 3077 2490 3596 
C 2227 4096 1805 4229 1504 4229 
C 1069 4229 698 3975 506 3570 
C 301 3146 243 2709 243 2044 
C 243 1589 262 1031 493 543 
C 755 5 1197 -128 1498 -128 
C 1894 -128 2278 81 2496 518 
C 2720 974 2758 1474 2758 2044 
z
M 1498 261 
C 1011 261 864 811 819 995 
C 742 1310 730 1614 730 2114 
C 730 2506 730 2948 851 3297 
C 998 3701 1254 3840 1498 3840 
C 1971 3840 2125 3372 2176 3208 
C 2272 2873 2272 2481 2272 2114 
C 2272 1526 2272 261 1498 261 
z
" transform="scale(0.015625)"/>
     </defs>
     <use xlink:href="#CMSS17-34" transform="scale(0.996264)"/>
     <use xlink:href="#CMSS17-2e" transform="translate(46.843624 0) scale(0.996264)"/>
     <use xlink:href="#CMSS17-30" transform="translate(72.867828 0) scale(0.996264)"/>
     <use xlink:href="#CMSS17-30" transform="translate(119.711452 0) scale(0.996264)"/>
    </g>
   </g>
   <g id="text_4">
    <!-- 56.3° -->
    <g transform="translate(13.384589 194.43895) scale(0.2 -0.2)">
     <defs>
      <path id="CMSS17-35" d="M 934 3752 
L 2502 3752 
L 2502 4160 
L 467 4160 
L 467 1781 
L 896 1781 
C 1011 2046 1248 2240 1555 2240 
C 1843 2240 2163 1989 2163 1266 
C 2163 493 1709 267 1376 267 
C 966 267 589 512 422 851 
L 218 499 
C 512 49 992 -128 1376 -128 
C 2118 -128 2701 497 2701 1253 
C 2701 2030 2182 2629 1562 2629 
C 1338 2629 1120 2553 934 2399 
L 934 3752 
z
" transform="scale(0.015625)"/>
      <path id="SFSS3583-b0" d="M 890 4352 
C 544 4307 326 4016 326 3712 
C 326 3389 576 3072 960 3072 
L 1018 3072 
C 1357 3117 1587 3408 1587 3712 
C 1587 4042 1312 4352 947 4352 
L 890 4352 
z
M 525 3673 
L 525 3712 
C 525 3939 723 4139 947 4139 
C 1178 4139 1338 3960 1382 3751 
L 1382 3711 
C 1382 3482 1184 3278 960 3278 
C 730 3278 570 3460 525 3673 
z
" transform="scale(0.015625)"/>
     </defs>
     <use xlink:href="#CMSS17-35" transform="scale(0.996264)"/>
     <use xlink:href="#CMSS17-36" transform="translate(46.843624 0) scale(0.996264)"/>
     <use xlink:href="#CMSS17-2e" transform="translate(93.687247 0) scale(0.996264)"/>
     <use xlink:href="#CMSS17-33" transform="translate(119.711452 0) scale(0.996264)"/>
     <use xlink:href="#SFSS3583-b0" transform="translate(166.555075 0) scale(0.356961)"/>
    </g>
   </g>
   <g id="text_5">
    <!-- 56.3° -->
    <g transform="translate(234.926704 194.43895) scale(0.2 -0.2)">
     <use xlink:href="#CMSS17-35" transform="scale(0.996264)"/>
     <use xlink:href="#CMSS17-36" transform="translate(46.843624 0) scale(0.996264)"/>
     <use xlink:href="#CMSS17-2e" transform="translate(93.687247 0) scale(0.996264)"/>
     <use xlink:href="#CMSS17-33" transform="translate(119.711452 0) scale(0.996264)"/>
     <use xlink:href="#SFSS3583-b0" transform="translate(166.555075 0) scale(0.356961)"/>
    </g>
   </g>
   <g id="text_6">
    <!-- 67.4° -->
    <g transform="translate(124.155646 29.458208) scale(0.2 -0.2)">
     <defs>
      <path id="CMSS17-37" d="M 1389 3776 
C 1466 3776 1542 3776 1619 3776 
L 2355 3776 
C 1440 2711 915 1365 915 -32 
L 1427 -32 
C 1427 1323 1875 2696 2752 3795 
L 2752 4209 
L 250 4209 
L 250 3776 
L 1389 3776 
z
" transform="scale(0.015625)"/>
     </defs>
     <use xlink:href="#CMSS17-36" transform="scale(0.996264)"/>
     <use xlink:href="#CMSS17-37" transform="translate(46.843624 0) scale(0.996264)"/>
     <use xlink:href="#CMSS17-2e" transform="translate(93.687247 0) scale(0.996264)"/>
     <use xlink:href="#CMSS17-34" transform="translate(119.711452 0) scale(0.996264)"/>
     <use xlink:href="#SFSS3583-b0" transform="translate(166.555075 0) scale(0.356961)"/>
    </g>
   </g>
  </g>
 </g>
 <defs>
  <clipPath id="p95a982d54f">
   <rect x="14.515982" y="10.8" width="258.968036" height="188.177576"/>
  </clipPath>
 </defs>
</svg>
