<?xml version="1.0" encoding="utf-8" standalone="no"?>
<!DOCTYPE svg PUBLIC "-//W3C//DTD SVG 1.1//EN"
  "http://www.w3.org/Graphics/SVG/1.1/DTD/svg11.dtd">
<svg xmlns:xlink="http://www.w3.org/1999/xlink" width="453.6pt" height="336.061868pt" viewBox="0 0 453.6 336.061868" xmlns="http://www.w3.org/2000/svg" version="1.1">
 <metadata>
  <rdf:RDF xmlns:dc="http://purl.org/dc/elements/1.1/" xmlns:cc="http://creativecommons.org/ns#" xmlns:rdf="http://www.w3.org/1999/02/22-rdf-syntax-ns#">
   <cc:Work>
    <dc:type rdf:resource="http://purl.org/dc/dcmitype/StillImage"/>
    <dc:date>2026-01-22T12:20:04.413083</dc:date>
    <dc:format>image/svg+xml</dc:format>
    <dc:creator>
     <cc:Agent>
      <dc:title>Matplotlib v3.9.1, https://matplotlib.org/</dc:title>
     </cc:Agent>
    </dc:creator>
   </cc:Work>
  </rdf:RDF>
 </metadata>
 <defs>
  <style type="text/css">*{stroke-linejoin: round; stroke-linecap: butt}</style>
 </defs>
 <g id="frame0060_a1ba68_figure_1">
  <g id="frame0060_a1ba68_patch_1">
   <path d="M 0 336.061868 
L 453.6 336.061868 
L 453.6 0 
L 0 0 
L 0 336.061868 
z
" style="fill: none; opacity: 0"/>
  </g>
  <g id="frame0060_a1ba68_axes_1">
   <g id="frame0060_a1ba68_patch_2">
    <path d="M 7.2 328.861868 
L 443.4 328.861868 
L 443.4 16.556315 
L 7.2 16.556315 
L 7.2 328.861868 
z
" style="fill: none; opacity: 0"/>
   </g>
   <g id="frame0060_a1ba68_matplotlib.axis_1">
    <g id="frame0060_a1ba68_xtick_1">
     <g id="frame0060_a1ba68_line2d_1">
      <defs>
       <path id="frame0060_a1ba68_m2aae2bacc2" d="M 0 0 
L 0 3.5 
" style="stroke: #000000; stroke-width: 0.8"/>
      </defs>
      <g>
       <use xlink:href="#frame0060_a1ba68_m2aae2bacc2" x="43.55" y="172.709092" style="stroke: #000000; stroke-width: 0.8"/>
      </g>
     </g>
     <g id="frame0060_a1ba68_text_1">
      <!-- $\mathdefault{−5}$ -->
      <g transform="translate(31.232209 193.546088) scale(0.2 -0.2)">
       <defs>
        <path id="frame0060_a1ba68_CMSY10-0" d="M 4218 1472 
C 4326 1472 4442 1472 4442 1600 
C 4442 1728 4326 1728 4218 1728 
L 755 1728 
C 646 1728 531 1728 531 1600 
C 531 1472 646 1472 755 1472 
L 4218 1472 
z
" transform="scale(0.015625)"/>
        <path id="frame0060_a1ba68_CMR17-35" d="M 730 3692 
C 794 3666 1056 3584 1325 3584 
C 1920 3584 2246 3911 2432 4100 
C 2432 4157 2432 4192 2394 4192 
C 2387 4192 2374 4192 2323 4163 
C 2099 4058 1837 3973 1517 3973 
C 1325 3973 1037 3999 723 4139 
C 653 4171 640 4171 634 4171 
C 602 4171 595 4164 595 4037 
L 595 2203 
C 595 2089 595 2057 659 2057 
C 691 2057 704 2070 736 2114 
C 941 2401 1222 2522 1542 2522 
C 1766 2522 2246 2382 2246 1289 
C 2246 1085 2246 715 2054 421 
C 1894 159 1645 25 1370 25 
C 947 25 518 320 403 814 
C 429 807 480 795 506 795 
C 589 795 749 840 749 1038 
C 749 1210 627 1280 506 1280 
C 358 1280 262 1190 262 1011 
C 262 454 704 -128 1382 -128 
C 2042 -128 2669 440 2669 1264 
C 2669 2030 2170 2624 1549 2624 
C 1222 2624 947 2503 730 2274 
L 730 3692 
z
" transform="scale(0.015625)"/>
       </defs>
       <use xlink:href="#frame0060_a1ba68_CMSY10-0" transform="scale(0.996264)"/>
       <use xlink:href="#frame0060_a1ba68_CMR17-35" transform="translate(77.487468 0) scale(0.996264)"/>
      </g>
     </g>
    </g>
    <g id="frame0060_a1ba68_xtick_2">
     <g id="frame0060_a1ba68_line2d_2">
      <g>
       <use xlink:href="#frame0060_a1ba68_m2aae2bacc2" x="79.9" y="172.709092" style="stroke: #000000; stroke-width: 0.8"/>
      </g>
     </g>
     <g id="frame0060_a1ba68_text_2">
      <!-- $\mathdefault{−4}$ -->
      <g transform="translate(67.582209 193.546088) scale(0.2 -0.2)">
       <defs>
        <path id="frame0060_a1ba68_CMR17-34" d="M 2150 4122 
C 2150 4256 2144 4256 2029 4256 
L 128 1254 
L 128 1088 
L 1779 1088 
L 1779 457 
C 1779 224 1766 160 1318 160 
L 1197 160 
L 1197 0 
C 1402 0 1747 0 1965 0 
C 2182 0 2528 0 2733 0 
L 2733 160 
L 2611 160 
C 2163 160 2150 224 2150 457 
L 2150 1088 
L 2803 1088 
L 2803 1254 
L 2150 1254 
L 2150 4122 
z
M 1798 3703 
L 1798 1254 
L 256 1254 
L 1798 3703 
z
" transform="scale(0.015625)"/>
       </defs>
       <use xlink:href="#frame0060_a1ba68_CMSY10-0" transform="scale(0.996264)"/>
       <use xlink:href="#frame0060_a1ba68_CMR17-34" transform="translate(77.487468 0) scale(0.996264)"/>
      </g>
     </g>
    </g>
    <g id="frame0060_a1ba68_xtick_3">
     <g id="frame0060_a1ba68_line2d_3">
      <g>
       <use xlink:href="#frame0060_a1ba68_m2aae2bacc2" x="116.25" y="172.709092" style="stroke: #000000; stroke-width: 0.8"/>
      </g>
     </g>
     <g id="frame0060_a1ba68_text_3">
      <!-- $\mathdefault{−3}$ -->
      <g transform="translate(103.932209 193.546088) scale(0.2 -0.2)">
       <defs>
        <path id="frame0060_a1ba68_CMR17-33" d="M 1414 2157 
C 1984 2157 2234 1662 2234 1090 
C 2234 320 1824 25 1453 25 
C 1114 25 563 194 390 693 
C 422 680 454 680 486 680 
C 640 680 755 782 755 948 
C 755 1133 614 1216 486 1216 
C 378 1216 211 1165 211 926 
C 211 335 787 -128 1466 -128 
C 2176 -128 2720 430 2720 1085 
C 2720 1707 2208 2157 1600 2227 
C 2086 2328 2554 2756 2554 3329 
C 2554 3820 2048 4179 1472 4179 
C 890 4179 378 3829 378 3329 
C 378 3110 544 3072 627 3072 
C 762 3072 877 3155 877 3321 
C 877 3486 762 3569 627 3569 
C 602 3569 570 3569 544 3557 
C 730 3959 1235 4032 1459 4032 
C 1683 4032 2106 3925 2106 3320 
C 2106 3143 2080 2828 1862 2550 
C 1670 2304 1453 2304 1242 2284 
C 1210 2284 1062 2269 1037 2269 
C 992 2263 966 2257 966 2208 
C 966 2163 973 2157 1101 2157 
L 1414 2157 
z
" transform="scale(0.015625)"/>
       </defs>
       <use xlink:href="#frame0060_a1ba68_CMSY10-0" transform="scale(0.996264)"/>
       <use xlink:href="#frame0060_a1ba68_CMR17-33" transform="translate(77.487468 0) scale(0.996264)"/>
      </g>
     </g>
    </g>
    <g id="frame0060_a1ba68_xtick_4">
     <g id="frame0060_a1ba68_line2d_4">
      <g>
       <use xlink:href="#frame0060_a1ba68_m2aae2bacc2" x="152.6" y="172.709092" style="stroke: #000000; stroke-width: 0.8"/>
      </g>
     </g>
     <g id="frame0060_a1ba68_text_4">
      <!-- $\mathdefault{−2}$ -->
      <g transform="translate(140.282209 193.546088) scale(0.2 -0.2)">
       <defs>
        <path id="frame0060_a1ba68_CMR17-32" d="M 2669 989 
L 2554 989 
C 2490 536 2438 459 2413 420 
C 2381 369 1920 369 1830 369 
L 602 369 
C 832 619 1280 1072 1824 1597 
C 2214 1967 2669 2402 2669 3035 
C 2669 3790 2067 4224 1395 4224 
C 691 4224 262 3604 262 3030 
C 262 2780 448 2748 525 2748 
C 589 2748 781 2787 781 3010 
C 781 3207 614 3264 525 3264 
C 486 3264 448 3258 422 3245 
C 544 3790 915 4058 1306 4058 
C 1862 4058 2227 3617 2227 3035 
C 2227 2479 1901 2000 1536 1584 
L 262 146 
L 262 0 
L 2515 0 
L 2669 989 
z
" transform="scale(0.015625)"/>
       </defs>
       <use xlink:href="#frame0060_a1ba68_CMSY10-0" transform="scale(0.996264)"/>
       <use xlink:href="#frame0060_a1ba68_CMR17-32" transform="translate(77.487468 0) scale(0.996264)"/>
      </g>
     </g>
    </g>
    <g id="frame0060_a1ba68_xtick_5">
     <g id="frame0060_a1ba68_line2d_5">
      <g>
       <use xlink:href="#frame0060_a1ba68_m2aae2bacc2" x="188.95" y="172.709092" style="stroke: #000000; stroke-width: 0.8"/>
      </g>
     </g>
     <g id="frame0060_a1ba68_text_5">
      <!-- $\mathdefault{−1}$ -->
      <g transform="translate(176.632209 193.546088) scale(0.2 -0.2)">
       <defs>
        <path id="frame0060_a1ba68_CMR17-31" d="M 1702 4058 
C 1702 4192 1696 4192 1606 4192 
C 1357 3916 979 3827 621 3827 
C 602 3827 570 3827 563 3808 
C 557 3795 557 3782 557 3648 
C 755 3648 1088 3686 1344 3839 
L 1344 461 
C 1344 236 1331 160 781 160 
L 589 160 
L 589 0 
C 896 0 1216 0 1523 0 
C 1830 0 2150 0 2458 0 
L 2458 160 
L 2266 160 
C 1715 160 1702 230 1702 458 
L 1702 4058 
z
" transform="scale(0.015625)"/>
       </defs>
       <use xlink:href="#frame0060_a1ba68_CMSY10-0" transform="scale(0.996264)"/>
       <use xlink:href="#frame0060_a1ba68_CMR17-31" transform="translate(77.487468 0) scale(0.996264)"/>
      </g>
     </g>
    </g>
    <g id="frame0060_a1ba68_xtick_6">
     <g id="frame0060_a1ba68_line2d_6">
      <g>
       <use xlink:href="#frame0060_a1ba68_m2aae2bacc2" x="261.65" y="172.709092" style="stroke: #000000; stroke-width: 0.8"/>
      </g>
     </g>
     <g id="frame0060_a1ba68_text_6">
      <!-- $\mathdefault{1}$ -->
      <g transform="translate(257.080952 193.546088) scale(0.2 -0.2)">
       <use xlink:href="#frame0060_a1ba68_CMR17-31" transform="scale(0.996264)"/>
      </g>
     </g>
    </g>
    <g id="frame0060_a1ba68_xtick_7">
     <g id="frame0060_a1ba68_line2d_7">
      <g>
       <use xlink:href="#frame0060_a1ba68_m2aae2bacc2" x="298" y="172.709092" style="stroke: #000000; stroke-width: 0.8"/>
      </g>
     </g>
     <g id="frame0060_a1ba68_text_7">
      <!-- $\mathdefault{2}$ -->
      <g transform="translate(293.430952 193.546088) scale(0.2 -0.2)">
       <use xlink:href="#frame0060_a1ba68_CMR17-32" transform="scale(0.996264)"/>
      </g>
     </g>
    </g>
    <g id="frame0060_a1ba68_xtick_8">
     <g id="frame0060_a1ba68_line2d_8">
      <g>
       <use xlink:href="#frame0060_a1ba68_m2aae2bacc2" x="334.35" y="172.709092" style="stroke: #000000; stroke-width: 0.8"/>
      </g>
     </g>
     <g id="frame0060_a1ba68_text_8">
      <!-- $\mathdefault{3}$ -->
      <g transform="translate(329.780952 193.546088) scale(0.2 -0.2)">
       <use xlink:href="#frame0060_a1ba68_CMR17-33" transform="scale(0.996264)"/>
      </g>
     </g>
    </g>
    <g id="frame0060_a1ba68_xtick_9">
     <g id="frame0060_a1ba68_line2d_9">
      <g>
       <use xlink:href="#frame0060_a1ba68_m2aae2bacc2" x="370.7" y="172.709092" style="stroke: #000000; stroke-width: 0.8"/>
      </g>
     </g>
     <g id="frame0060_a1ba68_text_9">
      <!-- $\mathdefault{4}$ -->
      <g transform="translate(366.130952 193.546088) scale(0.2 -0.2)">
       <use xlink:href="#frame0060_a1ba68_CMR17-34" transform="scale(0.996264)"/>
      </g>
     </g>
    </g>
    <g id="frame0060_a1ba68_xtick_10">
     <g id="frame0060_a1ba68_line2d_10">
      <g>
       <use xlink:href="#frame0060_a1ba68_m2aae2bacc2" x="407.05" y="172.709092" style="stroke: #000000; stroke-width: 0.8"/>
      </g>
     </g>
     <g id="frame0060_a1ba68_text_10">
      <!-- $\mathdefault{5}$ -->
      <g transform="translate(402.480952 193.546088) scale(0.2 -0.2)">
       <use xlink:href="#frame0060_a1ba68_CMR17-35" transform="scale(0.996264)"/>
      </g>
     </g>
    </g>
    <g id="frame0060_a1ba68_text_11">
     <!-- $x$ -->
     <g transform="translate(432.313188 215.258719) scale(0.2 -0.2)">
      <defs>
       <path id="frame0060_a1ba68_CMMI12-78" d="M 3034 2606 
C 2829 2567 2752 2414 2752 2293 
C 2752 2139 2874 2088 2963 2088 
C 3155 2088 3290 2254 3290 2427 
C 3290 2695 2982 2816 2714 2816 
C 2323 2816 2106 2433 2048 2312 
C 1901 2816 1504 2816 1389 2816 
C 736 2816 390 1980 390 1839 
C 390 1814 416 1782 461 1782 
C 512 1782 525 1820 538 1846 
C 755 2555 1184 2689 1370 2689 
C 1658 2689 1715 2420 1715 2267 
C 1715 2127 1677 1980 1600 1673 
L 1382 798 
C 1286 415 1101 64 762 64 
C 730 64 570 64 435 147 
C 666 192 717 383 717 460 
C 717 588 621 664 499 664 
C 346 664 179 530 179 326 
C 179 57 480 -64 755 -64 
C 1062 -64 1280 179 1414 441 
C 1517 64 1837 -64 2074 -64 
C 2726 -64 3072 773 3072 913 
C 3072 945 3046 971 3008 971 
C 2950 971 2944 939 2925 888 
C 2752 326 2381 64 2093 64 
C 1869 64 1747 230 1747 492 
C 1747 632 1773 734 1875 1156 
L 2099 2024 
C 2195 2408 2413 2689 2707 2689 
C 2720 2689 2899 2689 3034 2606 
z
" transform="scale(0.015625)"/>
      </defs>
      <use xlink:href="#frame0060_a1ba68_CMMI12-78" transform="scale(0.996264)"/>
     </g>
    </g>
   </g>
   <g id="frame0060_a1ba68_matplotlib.axis_2">
    <g id="frame0060_a1ba68_text_12">
     <!-- $y$ -->
     <g transform="translate(211.787165 12.680682) scale(0.2 -0.2)">
      <defs>
       <path id="frame0060_a1ba68_CMMI12-79" d="M 1683 -700 
C 1510 -939 1261 -1152 947 -1152 
C 870 -1152 563 -1152 467 -889 
C 486 -895 518 -895 531 -895 
C 723 -895 851 -729 851 -582 
C 851 -435 730 -384 634 -384 
C 531 -384 307 -458 307 -759 
C 307 -1071 582 -1286 947 -1286 
C 1587 -1286 2234 -700 2413 6 
L 3040 2485 
C 3046 2517 3059 2556 3059 2594 
C 3059 2689 2982 2753 2886 2753 
C 2829 2753 2694 2727 2643 2535 
L 2170 658 
C 2138 543 2138 530 2086 460 
C 1958 281 1747 64 1440 64 
C 1082 64 1050 415 1050 588 
C 1050 952 1222 1443 1395 1903 
C 1466 2088 1504 2178 1504 2305 
C 1504 2574 1312 2816 998 2816 
C 410 2816 173 1890 173 1839 
C 173 1814 198 1782 243 1782 
C 301 1782 307 1807 333 1897 
C 486 2433 730 2689 979 2689 
C 1037 2689 1146 2689 1146 2478 
C 1146 2312 1075 2127 979 1884 
C 666 1047 666 837 666 683 
C 666 77 1101 -64 1421 -64 
C 1606 -64 1837 -6 2061 230 
L 2067 224 
C 1971 -147 1907 -392 1683 -700 
z
" transform="scale(0.015625)"/>
      </defs>
      <use xlink:href="#frame0060_a1ba68_CMMI12-79" transform="scale(0.996264)"/>
     </g>
    </g>
   </g>
   <g id="frame0060_a1ba68_line2d_11">
    <defs>
     <path id="frame0060_a1ba68_ma850b832c0" d="M 3 0 
L -3 -3 
L -3 3 
z
" style="stroke: #000000; stroke-linejoin: miter"/>
    </defs>
    <g>
     <use xlink:href="#frame0060_a1ba68_ma850b832c0" x="443.4" y="172.709092" style="stroke: #000000; stroke-linejoin: miter"/>
    </g>
   </g>
   <g id="frame0060_a1ba68_line2d_12">
    <defs>
     <path id="frame0060_a1ba68_mf26adf7537" d="M 0 -3 
L -3 3 
L 3 3 
z
" style="stroke: #000000; stroke-linejoin: miter"/>
    </defs>
    <g>
     <use xlink:href="#frame0060_a1ba68_mf26adf7537" x="225.3" y="16.556315" style="stroke: #000000; stroke-linejoin: miter"/>
    </g>
   </g>
   <g id="frame0060_a1ba68_line2d_13">
    <path d="M 130.083807 337.061868 
L 136.234632 322.3983 
L 142.529004 307.971412 
L 148.403752 295.034359 
L 154.278499 282.607141 
L 160.153247 270.689757 
L 166.027994 259.282208 
L 171.902742 248.384494 
L 177.357864 238.721698 
L 182.812987 229.498504 
L 188.26811 220.714912 
L 193.723232 212.370923 
L 198.75873 205.058958 
L 203.794228 198.121566 
L 208.829726 191.558746 
L 213.865224 185.370499 
L 218.900722 179.556824 
L 223.516595 174.556673 
L 228.132468 169.871267 
L 232.748341 165.500606 
L 237.364214 161.44469 
L 241.980087 157.703518 
L 246.176335 154.575579 
L 250.372583 151.707759 
L 254.568831 149.100059 
L 258.765079 146.752479 
L 262.961328 144.665019 
L 267.157576 142.837678 
L 271.353824 141.270457 
L 275.550072 139.963355 
L 279.326696 139.009366 
L 283.103319 138.266074 
L 286.879942 137.733479 
L 290.656566 137.411581 
L 291.07619 137.388821 
L 291.07619 137.388821 
" clip-path="url(#frame0060_a1ba68_pc32ec0d63e)" style="fill: none; stroke: #0072b2; stroke-width: 2.5; stroke-linecap: square"/>
   </g>
   <g id="frame0060_a1ba68_line2d_14">
    <path d="M 291.07619 137.388821 
L 295.732672 132.46596 
L 300.389154 127.222791 
L 305.336666 121.300963 
L 310.284178 115.017538 
L 315.23169 108.372516 
L 320.179202 101.365898 
L 325.417744 93.552997 
L 330.656286 85.334708 
L 335.894828 76.711029 
L 341.424401 67.168461 
L 346.953973 57.17421 
L 352.483545 46.728275 
L 358.304147 35.244586 
L 364.12475 23.260417 
L 369.945352 10.775768 
L 375.233145 -1 
L 375.233145 -1 
" clip-path="url(#frame0060_a1ba68_pc32ec0d63e)" style="fill: none; stroke: #dc5e8b; stroke-width: 2.5; stroke-linecap: square"/>
   </g>
   <g id="frame0060_a1ba68_patch_3">
    <path d="M 225.3 328.861868 
L 225.3 16.556315 
" style="fill: none; stroke: #000000; stroke-width: 0.8; stroke-linejoin: miter; stroke-linecap: square"/>
   </g>
   <g id="frame0060_a1ba68_patch_4">
    <path d="M 443.4 328.861868 
L 443.4 16.556315 
" style="fill: none"/>
   </g>
   <g id="frame0060_a1ba68_patch_5">
    <path d="M 7.2 172.709092 
L 443.4 172.709092 
" style="fill: none; stroke: #000000; stroke-width: 0.8; stroke-linejoin: miter; stroke-linecap: square"/>
   </g>
   <g id="frame0060_a1ba68_patch_6">
    <path d="M 7.2 16.556315 
L 443.4 16.556315 
" style="fill: none"/>
   </g>
   <g id="frame0060_a1ba68_line2d_15">
    <path clip-path="url(#frame0060_a1ba68_pc32ec0d63e)" style="fill: none; stroke: #0072b2; stroke-width: 2"/>
   </g>
   <g id="frame0060_a1ba68_line2d_16">
    <path clip-path="url(#frame0060_a1ba68_pc32ec0d63e)" style="fill: none; stroke: #0072b2; stroke-width: 2"/>
   </g>
   <g id="frame0060_a1ba68_line2d_17">
    <path d="M 291.07619 137.388821 
L 284.837201 128.713995 
" clip-path="url(#frame0060_a1ba68_pc32ec0d63e)" style="fill: none; stroke: #0072b2; stroke-width: 2"/>
   </g>
   <g id="frame0060_a1ba68_line2d_18">
    <path d="M 291.07619 137.388821 
L 285.812089 146.687575 
" clip-path="url(#frame0060_a1ba68_pc32ec0d63e)" style="fill: none; stroke: #0072b2; stroke-width: 2"/>
   </g>
   <g id="frame0060_a1ba68_line2d_19">
    <path d="M 297.518112 143.673855 
L 284.634269 131.103787 
" clip-path="url(#frame0060_a1ba68_pc32ec0d63e)" style="fill: none; stroke: #dc5e8b; stroke-width: 2"/>
   </g>
   <g id="frame0060_a1ba68_line2d_20">
    <path d="M 284.634269 131.103787 
L 288.656691 126.980957 
" clip-path="url(#frame0060_a1ba68_pc32ec0d63e)" style="fill: none; stroke: #dc5e8b; stroke-width: 2"/>
   </g>
   <g id="frame0060_a1ba68_line2d_21">
    <path d="M 297.518112 143.673855 
L 301.540533 139.551025 
" clip-path="url(#frame0060_a1ba68_pc32ec0d63e)" style="fill: none; stroke: #dc5e8b; stroke-width: 2"/>
   </g>
   <g id="frame0060_a1ba68_line2d_22">
    <path clip-path="url(#frame0060_a1ba68_pc32ec0d63e)" style="fill: none; stroke: #dc5e8b; stroke-width: 2"/>
   </g>
   <g id="frame0060_a1ba68_line2d_23">
    <path clip-path="url(#frame0060_a1ba68_pc32ec0d63e)" style="fill: none; stroke: #dc5e8b; stroke-width: 2"/>
   </g>
  </g>
 </g>
 <defs>
  <clipPath id="frame0060_a1ba68_pc32ec0d63e">
   <rect x="7.2" y="16.556315" width="436.2" height="312.305553"/>
  </clipPath>
 </defs>
</svg>
