<?xml version="1.0" encoding="utf-8" standalone="no"?>
<!DOCTYPE svg PUBLIC "-//W3C//DTD SVG 1.1//EN"
  "http://www.w3.org/Graphics/SVG/1.1/DTD/svg11.dtd">
<svg xmlns:xlink="http://www.w3.org/1999/xlink" width="164.04919pt" height="208.8pt" viewBox="0 0 164.04919 208.8" xmlns="http://www.w3.org/2000/svg" version="1.1">
 <metadata>
  <rdf:RDF xmlns:dc="http://purl.org/dc/elements/1.1/" xmlns:cc="http://creativecommons.org/ns#" xmlns:rdf="http://www.w3.org/1999/02/22-rdf-syntax-ns#">
   <cc:Work>
    <dc:type rdf:resource="http://purl.org/dc/dcmitype/StillImage"/>
    <dc:date>2025-08-31T21:15:55.680366</dc:date>
    <dc:format>image/svg+xml</dc:format>
    <dc:creator>
     <cc:Agent>
      <dc:title>Matplotlib v3.9.1, https://matplotlib.org/</dc:title>
     </cc:Agent>
    </dc:creator>
   </cc:Work>
  </rdf:RDF>
 </metadata>
 <defs>
  <style type="text/css">*{stroke-linejoin: round; stroke-linecap: butt}</style>
 </defs>
 <g id="figure_1">
  <g id="patch_1">
   <path d="M 0 208.8 
L 164.04919 208.8 
L 164.04919 0 
L 0 0 
L 0 208.8 
z
" style="fill: none"/>
  </g>
  <g id="axes_1">
   <g id="line2d_1">
    <path d="M 66.436138 50.4 
L 35.259223 104.4 
" clip-path="url(#pe547119388)" style="fill: none; stroke: #455a64; stroke-width: 1.2; stroke-linecap: square"/>
   </g>
   <g id="line2d_2">
    <path d="M 66.436138 50.4 
L 97.613052 104.4 
" clip-path="url(#pe547119388)" style="fill: none; stroke: #455a64; stroke-width: 1.2; stroke-linecap: square"/>
   </g>
   <g id="line2d_3">
    <path d="M 97.613052 104.4 
L 66.436138 158.4 
" clip-path="url(#pe547119388)" style="fill: none; stroke: #455a64; stroke-width: 1.2; stroke-linecap: square"/>
   </g>
   <g id="line2d_4">
    <path d="M 97.613052 104.4 
L 128.789967 158.4 
" clip-path="url(#pe547119388)" style="fill: none; stroke: #455a64; stroke-width: 1.2; stroke-linecap: square"/>
   </g>
   <g id="text_1">
    <g id="patch_2">
     <path d="M 66.436138 72.99 
C 72.427076 72.99 78.173447 70.609775 82.40968 66.373542 
C 86.645913 62.137309 89.026138 56.390938 89.026138 50.4 
C 89.026138 44.409062 86.645913 38.662691 82.40968 34.426458 
C 78.173447 30.190225 72.427076 27.81 66.436138 27.81 
C 60.4452 27.81 54.698828 30.190225 50.462595 34.426458 
C 46.226363 38.662691 43.846138 44.409062 43.846138 50.4 
C 43.846138 56.390938 46.226363 62.137309 50.462595 66.373542 
C 54.698828 70.609775 60.4452 72.99 66.436138 72.99 
z
" style="fill: #e0f7fa; stroke: #0072b2; stroke-width: 1.5; stroke-linejoin: miter"/>
    </g>
    <!-- $102$ -->
    <g transform="translate(49.246138 55.366875) scale(0.18 -0.18)">
     <defs>
      <path id="DejaVuSans-31" d="M 794 531 
L 1825 531 
L 1825 4091 
L 703 3866 
L 703 4441 
L 1819 4666 
L 2450 4666 
L 2450 531 
L 3481 531 
L 3481 0 
L 794 0 
L 794 531 
z
" transform="scale(0.015625)"/>
      <path id="DejaVuSans-30" d="M 2034 4250 
Q 1547 4250 1301 3770 
Q 1056 3291 1056 2328 
Q 1056 1369 1301 889 
Q 1547 409 2034 409 
Q 2525 409 2770 889 
Q 3016 1369 3016 2328 
Q 3016 3291 2770 3770 
Q 2525 4250 2034 4250 
z
M 2034 4750 
Q 2819 4750 3233 4129 
Q 3647 3509 3647 2328 
Q 3647 1150 3233 529 
Q 2819 -91 2034 -91 
Q 1250 -91 836 529 
Q 422 1150 422 2328 
Q 422 3509 836 4129 
Q 1250 4750 2034 4750 
z
" transform="scale(0.015625)"/>
      <path id="DejaVuSans-32" d="M 1228 531 
L 3431 531 
L 3431 0 
L 469 0 
L 469 531 
Q 828 903 1448 1529 
Q 2069 2156 2228 2338 
Q 2531 2678 2651 2914 
Q 2772 3150 2772 3378 
Q 2772 3750 2511 3984 
Q 2250 4219 1831 4219 
Q 1534 4219 1204 4116 
Q 875 4013 500 3803 
L 500 4441 
Q 881 4594 1212 4672 
Q 1544 4750 1819 4750 
Q 2544 4750 2975 4387 
Q 3406 4025 3406 3419 
Q 3406 3131 3298 2873 
Q 3191 2616 2906 2266 
Q 2828 2175 2409 1742 
Q 1991 1309 1228 531 
z
" transform="scale(0.015625)"/>
     </defs>
     <use xlink:href="#DejaVuSans-31" transform="translate(0 0.78125)"/>
     <use xlink:href="#DejaVuSans-30" transform="translate(63.623047 0.78125)"/>
     <use xlink:href="#DejaVuSans-32" transform="translate(127.246094 0.78125)"/>
    </g>
   </g>
   <g id="text_2">
    <g id="patch_3">
     <path d="M 35.259223 118.510312 
C 39.001322 118.510312 42.590657 117.023561 45.236721 114.377498 
C 47.882784 111.731434 49.369536 108.142099 49.369536 104.4 
C 49.369536 100.657901 47.882784 97.068566 45.236721 94.422502 
C 42.590657 91.776439 39.001322 90.289687 35.259223 90.289687 
C 31.517124 90.289687 27.927789 91.776439 25.281725 94.422502 
C 22.635662 97.068566 21.148911 100.657901 21.148911 104.4 
C 21.148911 108.142099 22.635662 111.731434 25.281725 114.377498 
C 27.927789 117.023561 31.517124 118.510312 35.259223 118.510312 
z
" style="fill: #e0f7fa; stroke: #0072b2; stroke-width: 1.5; stroke-linejoin: miter"/>
    </g>
    <!-- $2$ -->
    <g transform="translate(29.499223 109.366875) scale(0.18 -0.18)">
     <use xlink:href="#DejaVuSans-32" transform="translate(0 0.78125)"/>
    </g>
   </g>
   <g id="text_3">
    <g id="patch_4">
     <path d="M 97.613052 121.32 
C 102.100289 121.32 106.404344 119.537202 109.577299 116.364247 
C 112.750254 113.191291 114.533052 108.887236 114.533052 104.4 
C 114.533052 99.912764 112.750254 95.608709 109.577299 92.435753 
C 106.404344 89.262798 102.100289 87.48 97.613052 87.48 
C 93.125816 87.48 88.821761 89.262798 85.648805 92.435753 
C 82.47585 95.608709 80.693052 99.912764 80.693052 104.4 
C 80.693052 108.887236 82.47585 113.191291 85.648805 116.364247 
C 88.821761 119.537202 93.125816 121.32 97.613052 121.32 
z
" style="fill: #e0f7fa; stroke: #0072b2; stroke-width: 1.5; stroke-linejoin: miter"/>
    </g>
    <!-- $51$ -->
    <g transform="translate(86.093052 109.366875) scale(0.18 -0.18)">
     <defs>
      <path id="DejaVuSans-35" d="M 691 4666 
L 3169 4666 
L 3169 4134 
L 1269 4134 
L 1269 2991 
Q 1406 3038 1543 3061 
Q 1681 3084 1819 3084 
Q 2600 3084 3056 2656 
Q 3513 2228 3513 1497 
Q 3513 744 3044 326 
Q 2575 -91 1722 -91 
Q 1428 -91 1123 -41 
Q 819 9 494 109 
L 494 744 
Q 775 591 1075 516 
Q 1375 441 1709 441 
Q 2250 441 2565 725 
Q 2881 1009 2881 1497 
Q 2881 1984 2565 2268 
Q 2250 2553 1709 2553 
Q 1456 2553 1204 2497 
Q 953 2441 691 2322 
L 691 4666 
z
" transform="scale(0.015625)"/>
     </defs>
     <use xlink:href="#DejaVuSans-35" transform="translate(0 0.09375)"/>
     <use xlink:href="#DejaVuSans-31" transform="translate(63.623047 0.09375)"/>
    </g>
   </g>
   <g id="text_4">
    <g id="patch_5">
     <path d="M 66.436138 172.510312 
C 70.178236 172.510312 73.767572 171.023561 76.413635 168.377498 
C 79.059699 165.731434 80.54645 162.142099 80.54645 158.4 
C 80.54645 154.657901 79.059699 151.068566 76.413635 148.422502 
C 73.767572 145.776439 70.178236 144.289687 66.436138 144.289687 
C 62.694039 144.289687 59.104703 145.776439 56.45864 148.422502 
C 53.812577 151.068566 52.325825 154.657901 52.325825 158.4 
C 52.325825 162.142099 53.812577 165.731434 56.45864 168.377498 
C 59.104703 171.023561 62.694039 172.510312 66.436138 172.510312 
z
" style="fill: #e0f7fa; stroke: #0072b2; stroke-width: 1.5; stroke-linejoin: miter"/>
    </g>
    <!-- $3$ -->
    <g transform="translate(60.676138 163.366875) scale(0.18 -0.18)">
     <defs>
      <path id="DejaVuSans-33" d="M 2597 2516 
Q 3050 2419 3304 2112 
Q 3559 1806 3559 1356 
Q 3559 666 3084 287 
Q 2609 -91 1734 -91 
Q 1441 -91 1130 -33 
Q 819 25 488 141 
L 488 750 
Q 750 597 1062 519 
Q 1375 441 1716 441 
Q 2309 441 2620 675 
Q 2931 909 2931 1356 
Q 2931 1769 2642 2001 
Q 2353 2234 1838 2234 
L 1294 2234 
L 1294 2753 
L 1863 2753 
Q 2328 2753 2575 2939 
Q 2822 3125 2822 3475 
Q 2822 3834 2567 4026 
Q 2313 4219 1838 4219 
Q 1578 4219 1281 4162 
Q 984 4106 628 3988 
L 628 4550 
Q 988 4650 1302 4700 
Q 1616 4750 1894 4750 
Q 2613 4750 3031 4423 
Q 3450 4097 3450 3541 
Q 3450 3153 3228 2886 
Q 3006 2619 2597 2516 
z
" transform="scale(0.015625)"/>
     </defs>
     <use xlink:href="#DejaVuSans-33" transform="translate(0 0.78125)"/>
    </g>
   </g>
   <g id="text_5">
    <g id="patch_6">
     <path d="M 128.789967 175.32 
C 133.277203 175.32 137.581258 173.537202 140.754213 170.364247 
C 143.927169 167.191291 145.709967 162.887236 145.709967 158.4 
C 145.709967 153.912764 143.927169 149.608709 140.754213 146.435753 
C 137.581258 143.262798 133.277203 141.48 128.789967 141.48 
C 124.30273 141.48 119.998675 143.262798 116.82572 146.435753 
C 113.652765 149.608709 111.869967 153.912764 111.869967 158.4 
C 111.869967 162.887236 113.652765 167.191291 116.82572 170.364247 
C 119.998675 173.537202 124.30273 175.32 128.789967 175.32 
z
" style="fill: #e0f7fa; stroke: #0072b2; stroke-width: 1.5; stroke-linejoin: miter"/>
    </g>
    <!-- $17$ -->
    <g transform="translate(117.269967 163.366875) scale(0.18 -0.18)">
     <defs>
      <path id="DejaVuSans-37" d="M 525 4666 
L 3525 4666 
L 3525 4397 
L 1831 0 
L 1172 0 
L 2766 4134 
L 525 4134 
L 525 4666 
z
" transform="scale(0.015625)"/>
     </defs>
     <use xlink:href="#DejaVuSans-31" transform="translate(0 0.09375)"/>
     <use xlink:href="#DejaVuSans-37" transform="translate(63.623047 0.09375)"/>
    </g>
   </g>
  </g>
 </g>
 <defs>
  <clipPath id="pe547119388">
   <rect x="7.2" y="7.2" width="149.64919" height="194.4"/>
  </clipPath>
 </defs>
</svg>
