<?xml version="1.0" encoding="utf-8" standalone="no"?>
<!DOCTYPE svg PUBLIC "-//W3C//DTD SVG 1.1//EN"
  "http://www.w3.org/Graphics/SVG/1.1/DTD/svg11.dtd">
<svg xmlns:xlink="http://www.w3.org/1999/xlink" width="208.8pt" height="203.799756pt" viewBox="0 0 208.8 203.799756" xmlns="http://www.w3.org/2000/svg" version="1.1">
 <metadata>
  <rdf:RDF xmlns:dc="http://purl.org/dc/elements/1.1/" xmlns:cc="http://creativecommons.org/ns#" xmlns:rdf="http://www.w3.org/1999/02/22-rdf-syntax-ns#">
   <cc:Work>
    <dc:type rdf:resource="http://purl.org/dc/dcmitype/StillImage"/>
    <dc:date>2025-08-30T23:14:07.094528</dc:date>
    <dc:format>image/svg+xml</dc:format>
    <dc:creator>
     <cc:Agent>
      <dc:title>Matplotlib v3.9.1, https://matplotlib.org/</dc:title>
     </cc:Agent>
    </dc:creator>
   </cc:Work>
  </rdf:RDF>
 </metadata>
 <defs>
  <style type="text/css">*{stroke-linejoin: round; stroke-linecap: butt}</style>
 </defs>
 <g id="figure_1">
  <g id="patch_1">
   <path d="M 0 203.799756 
L 208.8 203.799756 
L 208.8 0 
L 0 0 
L 0 203.799756 
z
" style="fill: none"/>
  </g>
  <g id="axes_1">
   <g id="line2d_1">
    <path d="M 104.4 49.288835 
L 43.65 154.510921 
" clip-path="url(#p72406d113d)" style="fill: none; stroke: #455a64; stroke-width: 1.2; stroke-linecap: square"/>
   </g>
   <g id="line2d_2">
    <path d="M 104.4 49.288835 
L 165.15 154.510921 
" clip-path="url(#p72406d113d)" style="fill: none; stroke: #455a64; stroke-width: 1.2; stroke-linecap: square"/>
   </g>
   <g id="text_1">
    <g id="patch_2">
     <path d="M 104.4 66.208835 
C 108.887236 66.208835 113.191291 64.426037 116.364247 61.253081 
C 119.537202 58.080126 121.32 53.776071 121.32 49.288835 
C 121.32 44.801598 119.537202 40.497543 116.364247 37.324588 
C 113.191291 34.151633 108.887236 32.368835 104.4 32.368835 
C 99.912764 32.368835 95.608709 34.151633 92.435753 37.324588 
C 89.262798 40.497543 87.48 44.801598 87.48 49.288835 
C 87.48 53.776071 89.262798 58.080126 92.435753 61.253081 
C 95.608709 64.426037 99.912764 66.208835 104.4 66.208835 
z
" style="fill: #e0f7fa; stroke: #0072b2; stroke-width: 1.5; stroke-linejoin: miter"/>
    </g>
    <!-- $25$ -->
    <g transform="translate(92.88 54.25571) scale(0.18 -0.18)">
     <defs>
      <path id="DejaVuSans-32" d="M 1228 531 
L 3431 531 
L 3431 0 
L 469 0 
L 469 531 
Q 828 903 1448 1529 
Q 2069 2156 2228 2338 
Q 2531 2678 2651 2914 
Q 2772 3150 2772 3378 
Q 2772 3750 2511 3984 
Q 2250 4219 1831 4219 
Q 1534 4219 1204 4116 
Q 875 4013 500 3803 
L 500 4441 
Q 881 4594 1212 4672 
Q 1544 4750 1819 4750 
Q 2544 4750 2975 4387 
Q 3406 4025 3406 3419 
Q 3406 3131 3298 2873 
Q 3191 2616 2906 2266 
Q 2828 2175 2409 1742 
Q 1991 1309 1228 531 
z
" transform="scale(0.015625)"/>
      <path id="DejaVuSans-35" d="M 691 4666 
L 3169 4666 
L 3169 4134 
L 1269 4134 
L 1269 2991 
Q 1406 3038 1543 3061 
Q 1681 3084 1819 3084 
Q 2600 3084 3056 2656 
Q 3513 2228 3513 1497 
Q 3513 744 3044 326 
Q 2575 -91 1722 -91 
Q 1428 -91 1123 -41 
Q 819 9 494 109 
L 494 744 
Q 775 591 1075 516 
Q 1375 441 1709 441 
Q 2250 441 2565 725 
Q 2881 1009 2881 1497 
Q 2881 1984 2565 2268 
Q 2250 2553 1709 2553 
Q 1456 2553 1204 2497 
Q 953 2441 691 2322 
L 691 4666 
z
" transform="scale(0.015625)"/>
     </defs>
     <use xlink:href="#DejaVuSans-32" transform="translate(0 0.78125)"/>
     <use xlink:href="#DejaVuSans-35" transform="translate(63.623047 0.78125)"/>
    </g>
   </g>
   <g id="text_2">
    <g id="patch_3">
     <path d="M 43.65 168.621234 
C 47.392099 168.621234 50.981434 167.134482 53.627498 164.488419 
C 56.273561 161.842356 57.760312 158.25302 57.760312 154.510921 
C 57.760312 150.768823 56.273561 147.179487 53.627498 144.533424 
C 50.981434 141.88736 47.392099 140.400609 43.65 140.400609 
C 39.907901 140.400609 36.318566 141.88736 33.672502 144.533424 
C 31.026439 147.179487 29.539688 150.768823 29.539688 154.510921 
C 29.539688 158.25302 31.026439 161.842356 33.672502 164.488419 
C 36.318566 167.134482 39.907901 168.621234 43.65 168.621234 
z
" style="fill: #e0f7fa; stroke: #0072b2; stroke-width: 1.5; stroke-linejoin: miter"/>
    </g>
    <!-- $5$ -->
    <g transform="translate(37.89 159.477796) scale(0.18 -0.18)">
     <use xlink:href="#DejaVuSans-35" transform="translate(0 0.09375)"/>
    </g>
   </g>
   <g id="text_3">
    <g id="patch_4">
     <path d="M 165.15 168.621234 
C 168.892099 168.621234 172.481434 167.134482 175.127498 164.488419 
C 177.773561 161.842356 179.260312 158.25302 179.260312 154.510921 
C 179.260312 150.768823 177.773561 147.179487 175.127498 144.533424 
C 172.481434 141.88736 168.892099 140.400609 165.15 140.400609 
C 161.407901 140.400609 157.818566 141.88736 155.172502 144.533424 
C 152.526439 147.179487 151.039687 150.768823 151.039687 154.510921 
C 151.039687 158.25302 152.526439 161.842356 155.172502 164.488419 
C 157.818566 167.134482 161.407901 168.621234 165.15 168.621234 
z
" style="fill: #e0f7fa; stroke: #0072b2; stroke-width: 1.5; stroke-linejoin: miter"/>
    </g>
    <!-- $5$ -->
    <g transform="translate(159.39 159.477796) scale(0.18 -0.18)">
     <use xlink:href="#DejaVuSans-35" transform="translate(0 0.09375)"/>
    </g>
   </g>
  </g>
 </g>
 <defs>
  <clipPath id="p72406d113d">
   <rect x="7.2" y="7.2" width="194.4" height="189.399756"/>
  </clipPath>
 </defs>
</svg>
