<?xml version="1.0" encoding="utf-8" standalone="no"?>
<!DOCTYPE svg PUBLIC "-//W3C//DTD SVG 1.1//EN"
  "http://www.w3.org/Graphics/SVG/1.1/DTD/svg11.dtd">
<svg xmlns:xlink="http://www.w3.org/1999/xlink" width="453.6pt" height="338.138125pt" viewBox="0 0 453.6 338.138125" xmlns="http://www.w3.org/2000/svg" version="1.1">
 <metadata>
  <rdf:RDF xmlns:dc="http://purl.org/dc/elements/1.1/" xmlns:cc="http://creativecommons.org/ns#" xmlns:rdf="http://www.w3.org/1999/02/22-rdf-syntax-ns#">
   <cc:Work>
    <dc:type rdf:resource="http://purl.org/dc/dcmitype/StillImage"/>
    <dc:date>2026-01-22T01:05:28.217340</dc:date>
    <dc:format>image/svg+xml</dc:format>
    <dc:creator>
     <cc:Agent>
      <dc:title>Matplotlib v3.9.1, https://matplotlib.org/</dc:title>
     </cc:Agent>
    </dc:creator>
   </cc:Work>
  </rdf:RDF>
 </metadata>
 <defs>
  <style type="text/css">*{stroke-linejoin: round; stroke-linecap: butt}</style>
 </defs>
 <g id="frame0069_3abd62_figure_1">
  <g id="frame0069_3abd62_patch_1">
   <path d="M 0 338.138125 
L 453.6 338.138125 
L 453.6 0 
L 0 0 
L 0 338.138125 
z
" style="fill: none; opacity: 0"/>
  </g>
  <g id="frame0069_3abd62_axes_1">
   <g id="frame0069_3abd62_patch_2">
    <path d="M 7.2 330.938125 
L 443.4 330.938125 
L 443.4 17.378125 
L 7.2 17.378125 
L 7.2 330.938125 
z
" style="fill: none; opacity: 0"/>
   </g>
   <g id="frame0069_3abd62_matplotlib.axis_1">
    <g id="frame0069_3abd62_xtick_1">
     <g id="frame0069_3abd62_line2d_1">
      <path d="M 79.9 330.938125 
L 79.9 17.378125 
" clip-path="url(#frame0069_3abd62_p036d528e36)" style="fill: none; stroke-dasharray: 2.96,1.28; stroke-dashoffset: 0; stroke: #b0b0b0; stroke-opacity: 0.6; stroke-width: 0.8"/>
     </g>
     <g id="frame0069_3abd62_line2d_2">
      <defs>
       <path id="frame0069_3abd62_m6d03ebc2ce" d="M 0 0 
L 0 3.5 
" style="stroke: #000000; stroke-width: 0.8"/>
      </defs>
      <g>
       <use xlink:href="#frame0069_3abd62_m6d03ebc2ce" x="79.9" y="174.158125" style="stroke: #000000; stroke-width: 0.8"/>
      </g>
     </g>
     <g id="frame0069_3abd62_text_1">
      <!-- −1 -->
      <g transform="translate(65.157813 196.355) scale(0.2 -0.2)">
       <defs>
        <path id="frame0069_3abd62_DejaVuSans-2212" d="M 678 2272 
L 4684 2272 
L 4684 1741 
L 678 1741 
L 678 2272 
z
" transform="scale(0.015625)"/>
        <path id="frame0069_3abd62_DejaVuSans-31" d="M 794 531 
L 1825 531 
L 1825 4091 
L 703 3866 
L 703 4441 
L 1819 4666 
L 2450 4666 
L 2450 531 
L 3481 531 
L 3481 0 
L 794 0 
L 794 531 
z
" transform="scale(0.015625)"/>
       </defs>
       <use xlink:href="#frame0069_3abd62_DejaVuSans-2212"/>
       <use xlink:href="#frame0069_3abd62_DejaVuSans-31" x="83.789062"/>
      </g>
     </g>
    </g>
    <g id="frame0069_3abd62_xtick_2">
     <g id="frame0069_3abd62_line2d_3">
      <path d="M 370.7 330.938125 
L 370.7 17.378125 
" clip-path="url(#frame0069_3abd62_p036d528e36)" style="fill: none; stroke-dasharray: 2.96,1.28; stroke-dashoffset: 0; stroke: #b0b0b0; stroke-opacity: 0.6; stroke-width: 0.8"/>
     </g>
     <g id="frame0069_3abd62_line2d_4">
      <g>
       <use xlink:href="#frame0069_3abd62_m6d03ebc2ce" x="370.7" y="174.158125" style="stroke: #000000; stroke-width: 0.8"/>
      </g>
     </g>
     <g id="frame0069_3abd62_text_2">
      <!-- 1 -->
      <g transform="translate(364.3375 196.355) scale(0.2 -0.2)">
       <use xlink:href="#frame0069_3abd62_DejaVuSans-31"/>
      </g>
     </g>
    </g>
    <g id="frame0069_3abd62_text_3">
     <!-- $x$ -->
     <g transform="translate(431.4 219.71125) scale(0.2 -0.2)">
      <defs>
       <path id="frame0069_3abd62_DejaVuSans-Oblique-78" d="M 3841 3500 
L 2234 1784 
L 3219 0 
L 2559 0 
L 1819 1388 
L 531 0 
L -166 0 
L 1556 1844 
L 641 3500 
L 1300 3500 
L 1972 2234 
L 3144 3500 
L 3841 3500 
z
" transform="scale(0.015625)"/>
      </defs>
      <use xlink:href="#frame0069_3abd62_DejaVuSans-Oblique-78" transform="translate(0 0.3125)"/>
     </g>
    </g>
   </g>
   <g id="frame0069_3abd62_matplotlib.axis_2">
    <g id="frame0069_3abd62_ytick_1">
     <g id="frame0069_3abd62_line2d_5">
      <path d="M 7.2 278.678125 
L 443.4 278.678125 
" clip-path="url(#frame0069_3abd62_p036d528e36)" style="fill: none; stroke-dasharray: 2.96,1.28; stroke-dashoffset: 0; stroke: #b0b0b0; stroke-opacity: 0.6; stroke-width: 0.8"/>
     </g>
     <g id="frame0069_3abd62_line2d_6">
      <defs>
       <path id="frame0069_3abd62_m1d5e0e1ad4" d="M 0 0 
L -3.5 0 
" style="stroke: #000000; stroke-width: 0.8"/>
      </defs>
      <g>
       <use xlink:href="#frame0069_3abd62_m1d5e0e1ad4" x="225.3" y="278.678125" style="stroke: #000000; stroke-width: 0.8"/>
      </g>
     </g>
     <g id="frame0069_3abd62_text_4">
      <!-- −1 -->
      <g transform="translate(188.815625 286.276562) scale(0.2 -0.2)">
       <use xlink:href="#frame0069_3abd62_DejaVuSans-2212"/>
       <use xlink:href="#frame0069_3abd62_DejaVuSans-31" x="83.789062"/>
      </g>
     </g>
    </g>
    <g id="frame0069_3abd62_ytick_2">
     <g id="frame0069_3abd62_line2d_7">
      <path d="M 7.2 69.638125 
L 443.4 69.638125 
" clip-path="url(#frame0069_3abd62_p036d528e36)" style="fill: none; stroke-dasharray: 2.96,1.28; stroke-dashoffset: 0; stroke: #b0b0b0; stroke-opacity: 0.6; stroke-width: 0.8"/>
     </g>
     <g id="frame0069_3abd62_line2d_8">
      <g>
       <use xlink:href="#frame0069_3abd62_m1d5e0e1ad4" x="225.3" y="69.638125" style="stroke: #000000; stroke-width: 0.8"/>
      </g>
     </g>
     <g id="frame0069_3abd62_text_5">
      <!-- 1 -->
      <g transform="translate(205.575 77.236562) scale(0.2 -0.2)">
       <use xlink:href="#frame0069_3abd62_DejaVuSans-31"/>
      </g>
     </g>
    </g>
    <g id="frame0069_3abd62_text_6">
     <!-- $y$ -->
     <g transform="translate(172.815625 13.178125) scale(0.2 -0.2)">
      <defs>
       <path id="frame0069_3abd62_DejaVuSans-Oblique-79" d="M 1588 -325 
Q 1188 -997 936 -1164 
Q 684 -1331 294 -1331 
L -159 -1331 
L -63 -850 
L 269 -850 
Q 509 -850 678 -719 
Q 847 -588 1056 -206 
L 1234 128 
L 459 3500 
L 1069 3500 
L 1650 819 
L 3256 3500 
L 3859 3500 
L 1588 -325 
z
" transform="scale(0.015625)"/>
      </defs>
      <use xlink:href="#frame0069_3abd62_DejaVuSans-Oblique-79" transform="translate(0 0.3125)"/>
     </g>
    </g>
   </g>
   <g id="frame0069_3abd62_line2d_9">
    <defs>
     <path id="frame0069_3abd62_m497395d199" d="M 3 0 
L -3 -3 
L -3 3 
z
" style="stroke: #000000; stroke-linejoin: miter"/>
    </defs>
    <g>
     <use xlink:href="#frame0069_3abd62_m497395d199" x="443.4" y="174.158125" style="stroke: #000000; stroke-linejoin: miter"/>
    </g>
   </g>
   <g id="frame0069_3abd62_line2d_10">
    <defs>
     <path id="frame0069_3abd62_mb6cb72f095" d="M 0 -3 
L -3 3 
L 3 3 
z
" style="stroke: #000000; stroke-linejoin: miter"/>
    </defs>
    <g>
     <use xlink:href="#frame0069_3abd62_mb6cb72f095" x="225.3" y="17.378125" style="stroke: #000000; stroke-linejoin: miter"/>
    </g>
   </g>
   <g id="frame0069_3abd62_line2d_11">
    <defs>
     <path id="frame0069_3abd62_m76035b0e8b" d="M 0 5 
C 1.326016 5 2.597899 4.473168 3.535534 3.535534 
C 4.473168 2.597899 5 1.326016 5 0 
C 5 -1.326016 4.473168 -2.597899 3.535534 -3.535534 
C 2.597899 -4.473168 1.326016 -5 0 -5 
C -1.326016 -5 -2.597899 -4.473168 -3.535534 -3.535534 
C -4.473168 -2.597899 -5 -1.326016 -5 0 
C -5 1.326016 -4.473168 2.597899 -3.535534 3.535534 
C -2.597899 4.473168 -1.326016 5 0 5 
z
" style="stroke: #000000; stroke-opacity: 0.8"/>
    </defs>
    <g clip-path="url(#frame0069_3abd62_p036d528e36)">
     <use xlink:href="#frame0069_3abd62_m76035b0e8b" x="85.249716" y="202.249023" style="fill-opacity: 0.8; stroke: #000000; stroke-opacity: 0.8"/>
    </g>
   </g>
   <g id="frame0069_3abd62_line2d_12">
    <path d="M 370.7 174.158125 
L 370.614435 170.572901 
L 370.357841 166.991896 
L 369.930519 163.419325 
L 369.332973 159.859394 
L 368.565906 156.316292 
L 367.630221 152.794188 
L 366.527019 149.29723 
L 365.257598 145.829531 
L 363.823453 142.395175 
L 362.226271 138.998202 
L 360.467933 135.64261 
L 358.550507 132.33235 
L 356.476251 129.071318 
L 354.247605 125.86335 
L 351.867193 122.712224 
L 349.337817 119.621647 
L 346.662453 116.595258 
L 343.844251 113.636618 
L 340.886526 110.749209 
L 336.195995 106.559065 
L 331.21183 102.547912 
L 325.947227 98.726371 
L 320.416127 95.104561 
L 314.633175 91.692071 
L 308.613684 88.497939 
L 302.373592 85.53062 
L 295.929421 82.797972 
L 289.298236 80.307231 
L 282.497594 78.064992 
L 275.545502 76.077192 
L 268.460368 74.349093 
L 261.260952 72.885273 
L 253.966318 71.689606 
L 246.59578 70.765259 
L 239.168855 70.11468 
L 231.705207 69.73959 
L 224.224599 69.640984 
L 216.746838 69.819121 
L 209.291725 70.273532 
L 201.879 71.003011 
L 194.528289 72.005628 
L 187.259056 73.278729 
L 180.09055 74.818941 
L 173.041751 76.622187 
L 166.131323 78.683692 
L 159.377564 80.997998 
L 152.798357 83.558976 
L 146.411122 86.359846 
L 140.232772 89.393192 
L 134.279666 92.650981 
L 128.567567 96.124587 
L 123.1116 99.804814 
L 117.92621 103.681916 
L 113.025129 107.745627 
L 108.421333 111.985188 
L 105.523347 114.90373 
L 102.766334 117.892013 
L 100.153538 120.946518 
L 97.688034 124.063652 
L 95.372725 127.239745 
L 93.210334 130.471058 
L 91.203408 133.75379 
L 89.354309 137.084076 
L 87.665212 140.457997 
L 86.138105 143.871581 
L 84.774787 147.320811 
L 83.576861 150.801628 
L 82.545738 154.309935 
L 81.68263 157.841602 
L 80.988555 161.392473 
L 80.464328 164.958368 
L 80.110568 168.535092 
L 79.927689 172.118433 
L 79.915908 175.704175 
L 80.075238 179.288098 
L 80.405491 182.865982 
L 80.90628 186.433618 
L 81.577015 189.986806 
L 82.416905 193.521365 
L 83.424964 197.033133 
L 84.600003 200.517979 
L 85.249716 202.249023 
L 85.249716 202.249023 
" clip-path="url(#frame0069_3abd62_p036d528e36)" style="fill: none; stroke: #0072b2; stroke-width: 2.5; stroke-linecap: square"/>
   </g>
   <g id="frame0069_3abd62_patch_3">
    <path d="M 225.3 330.938125 
L 225.3 17.378125 
" style="fill: none; stroke: #000000; stroke-width: 0.8; stroke-linejoin: miter; stroke-linecap: square"/>
   </g>
   <g id="frame0069_3abd62_patch_4">
    <path d="M 443.4 330.938125 
L 443.4 17.378125 
" style="fill: none"/>
   </g>
   <g id="frame0069_3abd62_patch_5">
    <path d="M 7.2 174.158125 
L 443.4 174.158125 
" style="fill: none; stroke: #000000; stroke-width: 0.8; stroke-linejoin: miter; stroke-linecap: square"/>
   </g>
   <g id="frame0069_3abd62_patch_6">
    <path d="M 7.2 17.378125 
L 443.4 17.378125 
" style="fill: none"/>
   </g>
  </g>
 </g>
 <defs>
  <clipPath id="frame0069_3abd62_p036d528e36">
   <rect x="7.2" y="17.378125" width="436.2" height="313.56"/>
  </clipPath>
 </defs>
</svg>
