<?xml version="1.0" encoding="utf-8" standalone="no"?>
<!DOCTYPE svg PUBLIC "-//W3C//DTD SVG 1.1//EN"
  "http://www.w3.org/Graphics/SVG/1.1/DTD/svg11.dtd">
<svg xmlns:xlink="http://www.w3.org/1999/xlink" width="453.6pt" height="338.138125pt" viewBox="0 0 453.6 338.138125" xmlns="http://www.w3.org/2000/svg" version="1.1">
 <metadata>
  <rdf:RDF xmlns:dc="http://purl.org/dc/elements/1.1/" xmlns:cc="http://creativecommons.org/ns#" xmlns:rdf="http://www.w3.org/1999/02/22-rdf-syntax-ns#">
   <cc:Work>
    <dc:type rdf:resource="http://purl.org/dc/dcmitype/StillImage"/>
    <dc:date>2026-01-22T01:05:30.722410</dc:date>
    <dc:format>image/svg+xml</dc:format>
    <dc:creator>
     <cc:Agent>
      <dc:title>Matplotlib v3.9.1, https://matplotlib.org/</dc:title>
     </cc:Agent>
    </dc:creator>
   </cc:Work>
  </rdf:RDF>
 </metadata>
 <defs>
  <style type="text/css">*{stroke-linejoin: round; stroke-linecap: butt}</style>
 </defs>
 <g id="frame0101_606a78_figure_1">
  <g id="frame0101_606a78_patch_1">
   <path d="M 0 338.138125 
L 453.6 338.138125 
L 453.6 0 
L 0 0 
L 0 338.138125 
z
" style="fill: none; opacity: 0"/>
  </g>
  <g id="frame0101_606a78_axes_1">
   <g id="frame0101_606a78_patch_2">
    <path d="M 7.2 330.938125 
L 443.4 330.938125 
L 443.4 17.378125 
L 7.2 17.378125 
L 7.2 330.938125 
z
" style="fill: none; opacity: 0"/>
   </g>
   <g id="frame0101_606a78_matplotlib.axis_1">
    <g id="frame0101_606a78_xtick_1">
     <g id="frame0101_606a78_line2d_1">
      <path d="M 79.9 330.938125 
L 79.9 17.378125 
" clip-path="url(#frame0101_606a78_p4ce5f47297)" style="fill: none; stroke-dasharray: 2.96,1.28; stroke-dashoffset: 0; stroke: #b0b0b0; stroke-opacity: 0.6; stroke-width: 0.8"/>
     </g>
     <g id="frame0101_606a78_line2d_2">
      <defs>
       <path id="frame0101_606a78_md81ee25eb7" d="M 0 0 
L 0 3.5 
" style="stroke: #000000; stroke-width: 0.8"/>
      </defs>
      <g>
       <use xlink:href="#frame0101_606a78_md81ee25eb7" x="79.9" y="174.158125" style="stroke: #000000; stroke-width: 0.8"/>
      </g>
     </g>
     <g id="frame0101_606a78_text_1">
      <!-- −1 -->
      <g transform="translate(65.157813 196.355) scale(0.2 -0.2)">
       <defs>
        <path id="frame0101_606a78_DejaVuSans-2212" d="M 678 2272 
L 4684 2272 
L 4684 1741 
L 678 1741 
L 678 2272 
z
" transform="scale(0.015625)"/>
        <path id="frame0101_606a78_DejaVuSans-31" d="M 794 531 
L 1825 531 
L 1825 4091 
L 703 3866 
L 703 4441 
L 1819 4666 
L 2450 4666 
L 2450 531 
L 3481 531 
L 3481 0 
L 794 0 
L 794 531 
z
" transform="scale(0.015625)"/>
       </defs>
       <use xlink:href="#frame0101_606a78_DejaVuSans-2212"/>
       <use xlink:href="#frame0101_606a78_DejaVuSans-31" x="83.789062"/>
      </g>
     </g>
    </g>
    <g id="frame0101_606a78_xtick_2">
     <g id="frame0101_606a78_line2d_3">
      <path d="M 370.7 330.938125 
L 370.7 17.378125 
" clip-path="url(#frame0101_606a78_p4ce5f47297)" style="fill: none; stroke-dasharray: 2.96,1.28; stroke-dashoffset: 0; stroke: #b0b0b0; stroke-opacity: 0.6; stroke-width: 0.8"/>
     </g>
     <g id="frame0101_606a78_line2d_4">
      <g>
       <use xlink:href="#frame0101_606a78_md81ee25eb7" x="370.7" y="174.158125" style="stroke: #000000; stroke-width: 0.8"/>
      </g>
     </g>
     <g id="frame0101_606a78_text_2">
      <!-- 1 -->
      <g transform="translate(364.3375 196.355) scale(0.2 -0.2)">
       <use xlink:href="#frame0101_606a78_DejaVuSans-31"/>
      </g>
     </g>
    </g>
    <g id="frame0101_606a78_text_3">
     <!-- $x$ -->
     <g transform="translate(431.4 219.71125) scale(0.2 -0.2)">
      <defs>
       <path id="frame0101_606a78_DejaVuSans-Oblique-78" d="M 3841 3500 
L 2234 1784 
L 3219 0 
L 2559 0 
L 1819 1388 
L 531 0 
L -166 0 
L 1556 1844 
L 641 3500 
L 1300 3500 
L 1972 2234 
L 3144 3500 
L 3841 3500 
z
" transform="scale(0.015625)"/>
      </defs>
      <use xlink:href="#frame0101_606a78_DejaVuSans-Oblique-78" transform="translate(0 0.3125)"/>
     </g>
    </g>
   </g>
   <g id="frame0101_606a78_matplotlib.axis_2">
    <g id="frame0101_606a78_ytick_1">
     <g id="frame0101_606a78_line2d_5">
      <path d="M 7.2 278.678125 
L 443.4 278.678125 
" clip-path="url(#frame0101_606a78_p4ce5f47297)" style="fill: none; stroke-dasharray: 2.96,1.28; stroke-dashoffset: 0; stroke: #b0b0b0; stroke-opacity: 0.6; stroke-width: 0.8"/>
     </g>
     <g id="frame0101_606a78_line2d_6">
      <defs>
       <path id="frame0101_606a78_m75aa070973" d="M 0 0 
L -3.5 0 
" style="stroke: #000000; stroke-width: 0.8"/>
      </defs>
      <g>
       <use xlink:href="#frame0101_606a78_m75aa070973" x="225.3" y="278.678125" style="stroke: #000000; stroke-width: 0.8"/>
      </g>
     </g>
     <g id="frame0101_606a78_text_4">
      <!-- −1 -->
      <g transform="translate(188.815625 286.276562) scale(0.2 -0.2)">
       <use xlink:href="#frame0101_606a78_DejaVuSans-2212"/>
       <use xlink:href="#frame0101_606a78_DejaVuSans-31" x="83.789062"/>
      </g>
     </g>
    </g>
    <g id="frame0101_606a78_ytick_2">
     <g id="frame0101_606a78_line2d_7">
      <path d="M 7.2 69.638125 
L 443.4 69.638125 
" clip-path="url(#frame0101_606a78_p4ce5f47297)" style="fill: none; stroke-dasharray: 2.96,1.28; stroke-dashoffset: 0; stroke: #b0b0b0; stroke-opacity: 0.6; stroke-width: 0.8"/>
     </g>
     <g id="frame0101_606a78_line2d_8">
      <g>
       <use xlink:href="#frame0101_606a78_m75aa070973" x="225.3" y="69.638125" style="stroke: #000000; stroke-width: 0.8"/>
      </g>
     </g>
     <g id="frame0101_606a78_text_5">
      <!-- 1 -->
      <g transform="translate(205.575 77.236562) scale(0.2 -0.2)">
       <use xlink:href="#frame0101_606a78_DejaVuSans-31"/>
      </g>
     </g>
    </g>
    <g id="frame0101_606a78_text_6">
     <!-- $y$ -->
     <g transform="translate(172.815625 13.178125) scale(0.2 -0.2)">
      <defs>
       <path id="frame0101_606a78_DejaVuSans-Oblique-79" d="M 1588 -325 
Q 1188 -997 936 -1164 
Q 684 -1331 294 -1331 
L -159 -1331 
L -63 -850 
L 269 -850 
Q 509 -850 678 -719 
Q 847 -588 1056 -206 
L 1234 128 
L 459 3500 
L 1069 3500 
L 1650 819 
L 3256 3500 
L 3859 3500 
L 1588 -325 
z
" transform="scale(0.015625)"/>
      </defs>
      <use xlink:href="#frame0101_606a78_DejaVuSans-Oblique-79" transform="translate(0 0.3125)"/>
     </g>
    </g>
   </g>
   <g id="frame0101_606a78_line2d_9">
    <defs>
     <path id="frame0101_606a78_m602017118b" d="M 3 0 
L -3 -3 
L -3 3 
z
" style="stroke: #000000; stroke-linejoin: miter"/>
    </defs>
    <g>
     <use xlink:href="#frame0101_606a78_m602017118b" x="443.4" y="174.158125" style="stroke: #000000; stroke-linejoin: miter"/>
    </g>
   </g>
   <g id="frame0101_606a78_line2d_10">
    <defs>
     <path id="frame0101_606a78_m88cdb77a52" d="M 0 -3 
L -3 3 
L 3 3 
z
" style="stroke: #000000; stroke-linejoin: miter"/>
    </defs>
    <g>
     <use xlink:href="#frame0101_606a78_m88cdb77a52" x="225.3" y="17.378125" style="stroke: #000000; stroke-linejoin: miter"/>
    </g>
   </g>
   <g id="frame0101_606a78_line2d_11">
    <defs>
     <path id="frame0101_606a78_me86728c4bb" d="M 0 5 
C 1.326016 5 2.597899 4.473168 3.535534 3.535534 
C 4.473168 2.597899 5 1.326016 5 0 
C 5 -1.326016 4.473168 -2.597899 3.535534 -3.535534 
C 2.597899 -4.473168 1.326016 -5 0 -5 
C -1.326016 -5 -2.597899 -4.473168 -3.535534 -3.535534 
C -4.473168 -2.597899 -5 -1.326016 -5 0 
C -5 1.326016 -4.473168 2.597899 -3.535534 3.535534 
C -2.597899 4.473168 -1.326016 5 0 5 
z
" style="stroke: #000000; stroke-opacity: 0.8"/>
    </defs>
    <g clip-path="url(#frame0101_606a78_p4ce5f47297)">
     <use xlink:href="#frame0101_606a78_me86728c4bb" x="266.107022" y="274.477377" style="fill-opacity: 0.8; stroke: #000000; stroke-opacity: 0.8"/>
    </g>
   </g>
   <g id="frame0101_606a78_line2d_12">
    <path d="M 370.7 174.158125 
L 370.516688 168.911364 
L 369.967212 163.677833 
L 369.05296 158.470728 
L 367.776236 153.303178 
L 366.140258 148.188214 
L 364.149154 143.138733 
L 361.807942 138.167467 
L 359.122527 133.286951 
L 356.099679 128.509491 
L 352.747021 123.847135 
L 349.073006 119.311636 
L 345.086898 114.914433 
L 340.798749 110.666613 
L 336.219371 106.578886 
L 331.36031 102.661559 
L 326.233819 98.92451 
L 320.852825 95.377162 
L 315.230894 92.02846 
L 309.382204 88.886847 
L 303.321501 85.960245 
L 297.064067 83.256034 
L 290.625681 80.781031 
L 284.022576 78.541478 
L 277.271404 76.543021 
L 270.389185 74.7907 
L 263.393275 73.288933 
L 256.301313 72.041507 
L 249.131181 71.051568 
L 241.900959 70.32161 
L 234.628878 69.853476 
L 227.333274 69.648345 
L 220.032543 69.706735 
L 212.745094 70.028498 
L 205.489302 70.612823 
L 198.283463 71.458236 
L 191.145746 72.562607 
L 184.094148 73.92315 
L 177.146451 75.536434 
L 170.320172 77.398393 
L 163.632525 79.50433 
L 157.100372 81.848936 
L 150.740183 84.426299 
L 144.567997 87.22992 
L 138.599375 90.25273 
L 132.849369 93.487106 
L 127.332476 96.924894 
L 122.062607 100.557425 
L 117.053051 104.37554 
L 112.316438 108.36961 
L 107.864713 112.529566 
L 103.7091 116.844918 
L 99.860077 121.304785 
L 96.32735 125.897921 
L 93.119826 130.612744 
L 90.245594 135.437367 
L 87.711901 140.359624 
L 85.525134 145.367104 
L 83.690809 150.44718 
L 82.213551 155.587043 
L 81.097083 160.773733 
L 80.344223 165.994171 
L 79.956867 171.235195 
L 79.935992 176.483589 
L 80.281652 181.72612 
L 80.992974 186.949567 
L 82.068166 192.140761 
L 83.504515 197.286613 
L 85.298401 202.374145 
L 87.445299 207.390532 
L 89.939797 212.323123 
L 92.775605 217.159481 
L 95.945572 221.887412 
L 99.441705 226.494994 
L 103.255189 230.970608 
L 107.376408 235.302971 
L 111.79497 239.481157 
L 116.499734 243.494632 
L 121.478837 247.333275 
L 126.719725 250.987408 
L 132.209181 254.447816 
L 137.933366 257.705775 
L 143.877845 260.753069 
L 150.027629 263.582014 
L 156.367212 266.185478 
L 162.880608 268.556895 
L 169.551395 270.690287 
L 176.362751 272.580273 
L 183.297502 274.222089 
L 190.338161 275.611595 
L 197.466977 276.745286 
L 204.665974 277.620305 
L 211.916999 278.234444 
L 219.201769 278.586156 
L 226.501916 278.674554 
L 233.799032 278.499414 
L 241.074719 278.061179 
L 248.310629 277.360952 
L 255.488518 276.400501 
L 262.590287 275.182246 
L 266.107022 274.477377 
L 266.107022 274.477377 
" clip-path="url(#frame0101_606a78_p4ce5f47297)" style="fill: none; stroke: #0072b2; stroke-width: 2.5; stroke-linecap: square"/>
   </g>
   <g id="frame0101_606a78_patch_3">
    <path d="M 225.3 330.938125 
L 225.3 17.378125 
" style="fill: none; stroke: #000000; stroke-width: 0.8; stroke-linejoin: miter; stroke-linecap: square"/>
   </g>
   <g id="frame0101_606a78_patch_4">
    <path d="M 443.4 330.938125 
L 443.4 17.378125 
" style="fill: none"/>
   </g>
   <g id="frame0101_606a78_patch_5">
    <path d="M 7.2 174.158125 
L 443.4 174.158125 
" style="fill: none; stroke: #000000; stroke-width: 0.8; stroke-linejoin: miter; stroke-linecap: square"/>
   </g>
   <g id="frame0101_606a78_patch_6">
    <path d="M 7.2 17.378125 
L 443.4 17.378125 
" style="fill: none"/>
   </g>
  </g>
 </g>
 <defs>
  <clipPath id="frame0101_606a78_p4ce5f47297">
   <rect x="7.2" y="17.378125" width="436.2" height="313.56"/>
  </clipPath>
 </defs>
</svg>
