<?xml version="1.0" encoding="utf-8" standalone="no"?>
<!DOCTYPE svg PUBLIC "-//W3C//DTD SVG 1.1//EN"
  "http://www.w3.org/Graphics/SVG/1.1/DTD/svg11.dtd">
<svg xmlns:xlink="http://www.w3.org/1999/xlink" width="453.6pt" height="338.138125pt" viewBox="0 0 453.6 338.138125" xmlns="http://www.w3.org/2000/svg" version="1.1">
 <metadata>
  <rdf:RDF xmlns:dc="http://purl.org/dc/elements/1.1/" xmlns:cc="http://creativecommons.org/ns#" xmlns:rdf="http://www.w3.org/1999/02/22-rdf-syntax-ns#">
   <cc:Work>
    <dc:type rdf:resource="http://purl.org/dc/dcmitype/StillImage"/>
    <dc:date>2026-01-22T01:05:31.798669</dc:date>
    <dc:format>image/svg+xml</dc:format>
    <dc:creator>
     <cc:Agent>
      <dc:title>Matplotlib v3.9.1, https://matplotlib.org/</dc:title>
     </cc:Agent>
    </dc:creator>
   </cc:Work>
  </rdf:RDF>
 </metadata>
 <defs>
  <style type="text/css">*{stroke-linejoin: round; stroke-linecap: butt}</style>
 </defs>
 <g id="frame0113_f96b8d_figure_1">
  <g id="frame0113_f96b8d_patch_1">
   <path d="M 0 338.138125 
L 453.6 338.138125 
L 453.6 0 
L 0 0 
L 0 338.138125 
z
" style="fill: none; opacity: 0"/>
  </g>
  <g id="frame0113_f96b8d_axes_1">
   <g id="frame0113_f96b8d_patch_2">
    <path d="M 7.2 330.938125 
L 443.4 330.938125 
L 443.4 17.378125 
L 7.2 17.378125 
L 7.2 330.938125 
z
" style="fill: none; opacity: 0"/>
   </g>
   <g id="frame0113_f96b8d_matplotlib.axis_1">
    <g id="frame0113_f96b8d_xtick_1">
     <g id="frame0113_f96b8d_line2d_1">
      <path d="M 79.9 330.938125 
L 79.9 17.378125 
" clip-path="url(#frame0113_f96b8d_pf4b6eb7523)" style="fill: none; stroke-dasharray: 2.96,1.28; stroke-dashoffset: 0; stroke: #b0b0b0; stroke-opacity: 0.6; stroke-width: 0.8"/>
     </g>
     <g id="frame0113_f96b8d_line2d_2">
      <defs>
       <path id="frame0113_f96b8d_ma7d60a5978" d="M 0 0 
L 0 3.5 
" style="stroke: #000000; stroke-width: 0.8"/>
      </defs>
      <g>
       <use xlink:href="#frame0113_f96b8d_ma7d60a5978" x="79.9" y="174.158125" style="stroke: #000000; stroke-width: 0.8"/>
      </g>
     </g>
     <g id="frame0113_f96b8d_text_1">
      <!-- −1 -->
      <g transform="translate(65.157813 196.355) scale(0.2 -0.2)">
       <defs>
        <path id="frame0113_f96b8d_DejaVuSans-2212" d="M 678 2272 
L 4684 2272 
L 4684 1741 
L 678 1741 
L 678 2272 
z
" transform="scale(0.015625)"/>
        <path id="frame0113_f96b8d_DejaVuSans-31" d="M 794 531 
L 1825 531 
L 1825 4091 
L 703 3866 
L 703 4441 
L 1819 4666 
L 2450 4666 
L 2450 531 
L 3481 531 
L 3481 0 
L 794 0 
L 794 531 
z
" transform="scale(0.015625)"/>
       </defs>
       <use xlink:href="#frame0113_f96b8d_DejaVuSans-2212"/>
       <use xlink:href="#frame0113_f96b8d_DejaVuSans-31" x="83.789062"/>
      </g>
     </g>
    </g>
    <g id="frame0113_f96b8d_xtick_2">
     <g id="frame0113_f96b8d_line2d_3">
      <path d="M 370.7 330.938125 
L 370.7 17.378125 
" clip-path="url(#frame0113_f96b8d_pf4b6eb7523)" style="fill: none; stroke-dasharray: 2.96,1.28; stroke-dashoffset: 0; stroke: #b0b0b0; stroke-opacity: 0.6; stroke-width: 0.8"/>
     </g>
     <g id="frame0113_f96b8d_line2d_4">
      <g>
       <use xlink:href="#frame0113_f96b8d_ma7d60a5978" x="370.7" y="174.158125" style="stroke: #000000; stroke-width: 0.8"/>
      </g>
     </g>
     <g id="frame0113_f96b8d_text_2">
      <!-- 1 -->
      <g transform="translate(364.3375 196.355) scale(0.2 -0.2)">
       <use xlink:href="#frame0113_f96b8d_DejaVuSans-31"/>
      </g>
     </g>
    </g>
    <g id="frame0113_f96b8d_text_3">
     <!-- $x$ -->
     <g transform="translate(431.4 219.71125) scale(0.2 -0.2)">
      <defs>
       <path id="frame0113_f96b8d_DejaVuSans-Oblique-78" d="M 3841 3500 
L 2234 1784 
L 3219 0 
L 2559 0 
L 1819 1388 
L 531 0 
L -166 0 
L 1556 1844 
L 641 3500 
L 1300 3500 
L 1972 2234 
L 3144 3500 
L 3841 3500 
z
" transform="scale(0.015625)"/>
      </defs>
      <use xlink:href="#frame0113_f96b8d_DejaVuSans-Oblique-78" transform="translate(0 0.3125)"/>
     </g>
    </g>
   </g>
   <g id="frame0113_f96b8d_matplotlib.axis_2">
    <g id="frame0113_f96b8d_ytick_1">
     <g id="frame0113_f96b8d_line2d_5">
      <path d="M 7.2 278.678125 
L 443.4 278.678125 
" clip-path="url(#frame0113_f96b8d_pf4b6eb7523)" style="fill: none; stroke-dasharray: 2.96,1.28; stroke-dashoffset: 0; stroke: #b0b0b0; stroke-opacity: 0.6; stroke-width: 0.8"/>
     </g>
     <g id="frame0113_f96b8d_line2d_6">
      <defs>
       <path id="frame0113_f96b8d_m70efa9da75" d="M 0 0 
L -3.5 0 
" style="stroke: #000000; stroke-width: 0.8"/>
      </defs>
      <g>
       <use xlink:href="#frame0113_f96b8d_m70efa9da75" x="225.3" y="278.678125" style="stroke: #000000; stroke-width: 0.8"/>
      </g>
     </g>
     <g id="frame0113_f96b8d_text_4">
      <!-- −1 -->
      <g transform="translate(188.815625 286.276562) scale(0.2 -0.2)">
       <use xlink:href="#frame0113_f96b8d_DejaVuSans-2212"/>
       <use xlink:href="#frame0113_f96b8d_DejaVuSans-31" x="83.789062"/>
      </g>
     </g>
    </g>
    <g id="frame0113_f96b8d_ytick_2">
     <g id="frame0113_f96b8d_line2d_7">
      <path d="M 7.2 69.638125 
L 443.4 69.638125 
" clip-path="url(#frame0113_f96b8d_pf4b6eb7523)" style="fill: none; stroke-dasharray: 2.96,1.28; stroke-dashoffset: 0; stroke: #b0b0b0; stroke-opacity: 0.6; stroke-width: 0.8"/>
     </g>
     <g id="frame0113_f96b8d_line2d_8">
      <g>
       <use xlink:href="#frame0113_f96b8d_m70efa9da75" x="225.3" y="69.638125" style="stroke: #000000; stroke-width: 0.8"/>
      </g>
     </g>
     <g id="frame0113_f96b8d_text_5">
      <!-- 1 -->
      <g transform="translate(205.575 77.236562) scale(0.2 -0.2)">
       <use xlink:href="#frame0113_f96b8d_DejaVuSans-31"/>
      </g>
     </g>
    </g>
    <g id="frame0113_f96b8d_text_6">
     <!-- $y$ -->
     <g transform="translate(172.815625 13.178125) scale(0.2 -0.2)">
      <defs>
       <path id="frame0113_f96b8d_DejaVuSans-Oblique-79" d="M 1588 -325 
Q 1188 -997 936 -1164 
Q 684 -1331 294 -1331 
L -159 -1331 
L -63 -850 
L 269 -850 
Q 509 -850 678 -719 
Q 847 -588 1056 -206 
L 1234 128 
L 459 3500 
L 1069 3500 
L 1650 819 
L 3256 3500 
L 3859 3500 
L 1588 -325 
z
" transform="scale(0.015625)"/>
      </defs>
      <use xlink:href="#frame0113_f96b8d_DejaVuSans-Oblique-79" transform="translate(0 0.3125)"/>
     </g>
    </g>
   </g>
   <g id="frame0113_f96b8d_line2d_9">
    <defs>
     <path id="frame0113_f96b8d_md7a6a61206" d="M 3 0 
L -3 -3 
L -3 3 
z
" style="stroke: #000000; stroke-linejoin: miter"/>
    </defs>
    <g>
     <use xlink:href="#frame0113_f96b8d_md7a6a61206" x="443.4" y="174.158125" style="stroke: #000000; stroke-linejoin: miter"/>
    </g>
   </g>
   <g id="frame0113_f96b8d_line2d_10">
    <defs>
     <path id="frame0113_f96b8d_m0377dedf9d" d="M 0 -3 
L -3 3 
L 3 3 
z
" style="stroke: #000000; stroke-linejoin: miter"/>
    </defs>
    <g>
     <use xlink:href="#frame0113_f96b8d_m0377dedf9d" x="225.3" y="17.378125" style="stroke: #000000; stroke-linejoin: miter"/>
    </g>
   </g>
   <g id="frame0113_f96b8d_line2d_11">
    <defs>
     <path id="frame0113_f96b8d_m8dc6250de7" d="M 0 5 
C 1.326016 5 2.597899 4.473168 3.535534 3.535534 
C 4.473168 2.597899 5 1.326016 5 0 
C 5 -1.326016 4.473168 -2.597899 3.535534 -3.535534 
C 2.597899 -4.473168 1.326016 -5 0 -5 
C -1.326016 -5 -2.597899 -4.473168 -3.535534 -3.535534 
C -4.473168 -2.597899 -5 -1.326016 -5 0 
C -5 1.326016 -4.473168 2.597899 -3.535534 3.535534 
C -2.597899 4.473168 -1.326016 5 0 5 
z
" style="stroke: #000000; stroke-opacity: 0.8"/>
    </defs>
    <g clip-path="url(#frame0113_f96b8d_pf4b6eb7523)">
     <use xlink:href="#frame0113_f96b8d_m8dc6250de7" x="337.194943" y="240.901137" style="fill-opacity: 0.8; stroke: #000000; stroke-opacity: 0.8"/>
    </g>
   </g>
   <g id="frame0113_f96b8d_line2d_12">
    <path d="M 370.7 174.158125 
L 370.642627 171.222208 
L 370.470553 168.288608 
L 370.183913 165.35964 
L 369.782934 162.437615 
L 369.267933 159.52484 
L 368.639316 156.623614 
L 367.897578 153.736225 
L 367.043306 150.864952 
L 366.077173 148.012063 
L 364.999942 145.179807 
L 362.515674 139.586119 
L 359.598341 134.101543 
L 356.25715 128.743389 
L 352.502648 123.528568 
L 348.346684 118.473539 
L 343.802373 113.594254 
L 338.884059 108.906115 
L 333.607264 104.423916 
L 327.988642 100.161805 
L 322.045926 96.133232 
L 315.797871 92.350912 
L 309.264198 88.826783 
L 302.465526 85.571967 
L 295.423313 82.596736 
L 288.159785 79.910482 
L 280.697866 77.52168 
L 273.061107 75.437872 
L 265.27361 73.665633 
L 257.359952 72.210557 
L 249.345111 71.077236 
L 241.254381 70.269248 
L 233.113297 69.789141 
L 224.947555 69.638432 
L 216.782924 69.817596 
L 208.645175 70.326068 
L 200.559989 71.162242 
L 192.552885 72.323481 
L 184.649133 73.806118 
L 176.87368 75.605475 
L 169.251063 77.715872 
L 161.805342 80.130649 
L 154.560016 82.842186 
L 147.537951 85.841923 
L 140.76131 89.120393 
L 134.25148 92.66725 
L 128.029007 96.471299 
L 122.113529 100.520534 
L 116.523717 104.802176 
L 111.277212 109.302711 
L 106.390573 114.007936 
L 101.879222 118.902999 
L 97.757398 123.972453 
L 94.038109 129.200296 
L 90.733094 134.570031 
L 87.852783 140.064709 
L 85.406268 145.666988 
L 84.348151 148.502965 
L 83.401269 151.359188 
L 82.566371 154.233404 
L 81.844115 157.123344 
L 81.235071 160.026727 
L 80.73972 162.941262 
L 80.358452 165.86465 
L 80.091569 168.794582 
L 79.939281 171.728748 
L 79.901709 174.66483 
L 79.978881 177.600513 
L 80.170738 180.533479 
L 80.477127 183.461414 
L 80.897807 186.382006 
L 81.432446 189.292952 
L 82.080622 192.191954 
L 82.841824 195.076724 
L 83.71545 197.944986 
L 84.700811 200.794475 
L 87.003542 206.42816 
L 89.742748 211.959997 
L 92.909785 217.372529 
L 96.494656 222.648672 
L 100.486048 227.771775 
L 104.871364 232.725668 
L 109.636762 237.494718 
L 114.767204 242.063871 
L 120.246497 246.418709 
L 126.057347 250.545486 
L 132.181416 254.431177 
L 138.599375 258.06352 
L 145.290969 261.431051 
L 152.235078 264.523141 
L 159.409786 267.330031 
L 166.792449 269.842862 
L 174.359767 272.053704 
L 182.087857 273.95558 
L 189.952328 275.542486 
L 197.928359 276.809414 
L 205.990778 277.752366 
L 214.114138 278.368366 
L 222.272801 278.65547 
L 230.441019 278.612771 
L 238.593011 278.240404 
L 246.70305 277.539544 
L 254.745538 276.512404 
L 262.695094 275.162225 
L 270.526628 273.493269 
L 278.215422 271.510802 
L 285.737212 269.221082 
L 293.068256 266.631335 
L 300.185417 263.749735 
L 307.066234 260.585375 
L 313.68899 257.148245 
L 320.032782 253.44919 
L 326.07759 249.499886 
L 331.804335 245.312796 
L 337.194943 240.901137 
L 337.194943 240.901137 
" clip-path="url(#frame0113_f96b8d_pf4b6eb7523)" style="fill: none; stroke: #0072b2; stroke-width: 2.5; stroke-linecap: square"/>
   </g>
   <g id="frame0113_f96b8d_patch_3">
    <path d="M 225.3 330.938125 
L 225.3 17.378125 
" style="fill: none; stroke: #000000; stroke-width: 0.8; stroke-linejoin: miter; stroke-linecap: square"/>
   </g>
   <g id="frame0113_f96b8d_patch_4">
    <path d="M 443.4 330.938125 
L 443.4 17.378125 
" style="fill: none"/>
   </g>
   <g id="frame0113_f96b8d_patch_5">
    <path d="M 7.2 174.158125 
L 443.4 174.158125 
" style="fill: none; stroke: #000000; stroke-width: 0.8; stroke-linejoin: miter; stroke-linecap: square"/>
   </g>
   <g id="frame0113_f96b8d_patch_6">
    <path d="M 7.2 17.378125 
L 443.4 17.378125 
" style="fill: none"/>
   </g>
  </g>
 </g>
 <defs>
  <clipPath id="frame0113_f96b8d_pf4b6eb7523">
   <rect x="7.2" y="17.378125" width="436.2" height="313.56"/>
  </clipPath>
 </defs>
</svg>
