<?xml version="1.0" encoding="utf-8" standalone="no"?>
<!DOCTYPE svg PUBLIC "-//W3C//DTD SVG 1.1//EN"
  "http://www.w3.org/Graphics/SVG/1.1/DTD/svg11.dtd">
<svg xmlns:xlink="http://www.w3.org/1999/xlink" width="453.6pt" height="338.138125pt" viewBox="0 0 453.6 338.138125" xmlns="http://www.w3.org/2000/svg" version="1.1">
 <metadata>
  <rdf:RDF xmlns:dc="http://purl.org/dc/elements/1.1/" xmlns:cc="http://creativecommons.org/ns#" xmlns:rdf="http://www.w3.org/1999/02/22-rdf-syntax-ns#">
   <cc:Work>
    <dc:type rdf:resource="http://purl.org/dc/dcmitype/StillImage"/>
    <dc:date>2026-01-22T01:05:28.842531</dc:date>
    <dc:format>image/svg+xml</dc:format>
    <dc:creator>
     <cc:Agent>
      <dc:title>Matplotlib v3.9.1, https://matplotlib.org/</dc:title>
     </cc:Agent>
    </dc:creator>
   </cc:Work>
  </rdf:RDF>
 </metadata>
 <defs>
  <style type="text/css">*{stroke-linejoin: round; stroke-linecap: butt}</style>
 </defs>
 <g id="frame0077_2f621d_figure_1">
  <g id="frame0077_2f621d_patch_1">
   <path d="M 0 338.138125 
L 453.6 338.138125 
L 453.6 0 
L 0 0 
L 0 338.138125 
z
" style="fill: none; opacity: 0"/>
  </g>
  <g id="frame0077_2f621d_axes_1">
   <g id="frame0077_2f621d_patch_2">
    <path d="M 7.2 330.938125 
L 443.4 330.938125 
L 443.4 17.378125 
L 7.2 17.378125 
L 7.2 330.938125 
z
" style="fill: none; opacity: 0"/>
   </g>
   <g id="frame0077_2f621d_matplotlib.axis_1">
    <g id="frame0077_2f621d_xtick_1">
     <g id="frame0077_2f621d_line2d_1">
      <path d="M 79.9 330.938125 
L 79.9 17.378125 
" clip-path="url(#frame0077_2f621d_p442bbdb9a0)" style="fill: none; stroke-dasharray: 2.96,1.28; stroke-dashoffset: 0; stroke: #b0b0b0; stroke-opacity: 0.6; stroke-width: 0.8"/>
     </g>
     <g id="frame0077_2f621d_line2d_2">
      <defs>
       <path id="frame0077_2f621d_m51da04a908" d="M 0 0 
L 0 3.5 
" style="stroke: #000000; stroke-width: 0.8"/>
      </defs>
      <g>
       <use xlink:href="#frame0077_2f621d_m51da04a908" x="79.9" y="174.158125" style="stroke: #000000; stroke-width: 0.8"/>
      </g>
     </g>
     <g id="frame0077_2f621d_text_1">
      <!-- −1 -->
      <g transform="translate(65.157813 196.355) scale(0.2 -0.2)">
       <defs>
        <path id="frame0077_2f621d_DejaVuSans-2212" d="M 678 2272 
L 4684 2272 
L 4684 1741 
L 678 1741 
L 678 2272 
z
" transform="scale(0.015625)"/>
        <path id="frame0077_2f621d_DejaVuSans-31" d="M 794 531 
L 1825 531 
L 1825 4091 
L 703 3866 
L 703 4441 
L 1819 4666 
L 2450 4666 
L 2450 531 
L 3481 531 
L 3481 0 
L 794 0 
L 794 531 
z
" transform="scale(0.015625)"/>
       </defs>
       <use xlink:href="#frame0077_2f621d_DejaVuSans-2212"/>
       <use xlink:href="#frame0077_2f621d_DejaVuSans-31" x="83.789062"/>
      </g>
     </g>
    </g>
    <g id="frame0077_2f621d_xtick_2">
     <g id="frame0077_2f621d_line2d_3">
      <path d="M 370.7 330.938125 
L 370.7 17.378125 
" clip-path="url(#frame0077_2f621d_p442bbdb9a0)" style="fill: none; stroke-dasharray: 2.96,1.28; stroke-dashoffset: 0; stroke: #b0b0b0; stroke-opacity: 0.6; stroke-width: 0.8"/>
     </g>
     <g id="frame0077_2f621d_line2d_4">
      <g>
       <use xlink:href="#frame0077_2f621d_m51da04a908" x="370.7" y="174.158125" style="stroke: #000000; stroke-width: 0.8"/>
      </g>
     </g>
     <g id="frame0077_2f621d_text_2">
      <!-- 1 -->
      <g transform="translate(364.3375 196.355) scale(0.2 -0.2)">
       <use xlink:href="#frame0077_2f621d_DejaVuSans-31"/>
      </g>
     </g>
    </g>
    <g id="frame0077_2f621d_text_3">
     <!-- $x$ -->
     <g transform="translate(431.4 219.71125) scale(0.2 -0.2)">
      <defs>
       <path id="frame0077_2f621d_DejaVuSans-Oblique-78" d="M 3841 3500 
L 2234 1784 
L 3219 0 
L 2559 0 
L 1819 1388 
L 531 0 
L -166 0 
L 1556 1844 
L 641 3500 
L 1300 3500 
L 1972 2234 
L 3144 3500 
L 3841 3500 
z
" transform="scale(0.015625)"/>
      </defs>
      <use xlink:href="#frame0077_2f621d_DejaVuSans-Oblique-78" transform="translate(0 0.3125)"/>
     </g>
    </g>
   </g>
   <g id="frame0077_2f621d_matplotlib.axis_2">
    <g id="frame0077_2f621d_ytick_1">
     <g id="frame0077_2f621d_line2d_5">
      <path d="M 7.2 278.678125 
L 443.4 278.678125 
" clip-path="url(#frame0077_2f621d_p442bbdb9a0)" style="fill: none; stroke-dasharray: 2.96,1.28; stroke-dashoffset: 0; stroke: #b0b0b0; stroke-opacity: 0.6; stroke-width: 0.8"/>
     </g>
     <g id="frame0077_2f621d_line2d_6">
      <defs>
       <path id="frame0077_2f621d_m768f12bd8f" d="M 0 0 
L -3.5 0 
" style="stroke: #000000; stroke-width: 0.8"/>
      </defs>
      <g>
       <use xlink:href="#frame0077_2f621d_m768f12bd8f" x="225.3" y="278.678125" style="stroke: #000000; stroke-width: 0.8"/>
      </g>
     </g>
     <g id="frame0077_2f621d_text_4">
      <!-- −1 -->
      <g transform="translate(188.815625 286.276562) scale(0.2 -0.2)">
       <use xlink:href="#frame0077_2f621d_DejaVuSans-2212"/>
       <use xlink:href="#frame0077_2f621d_DejaVuSans-31" x="83.789062"/>
      </g>
     </g>
    </g>
    <g id="frame0077_2f621d_ytick_2">
     <g id="frame0077_2f621d_line2d_7">
      <path d="M 7.2 69.638125 
L 443.4 69.638125 
" clip-path="url(#frame0077_2f621d_p442bbdb9a0)" style="fill: none; stroke-dasharray: 2.96,1.28; stroke-dashoffset: 0; stroke: #b0b0b0; stroke-opacity: 0.6; stroke-width: 0.8"/>
     </g>
     <g id="frame0077_2f621d_line2d_8">
      <g>
       <use xlink:href="#frame0077_2f621d_m768f12bd8f" x="225.3" y="69.638125" style="stroke: #000000; stroke-width: 0.8"/>
      </g>
     </g>
     <g id="frame0077_2f621d_text_5">
      <!-- 1 -->
      <g transform="translate(205.575 77.236562) scale(0.2 -0.2)">
       <use xlink:href="#frame0077_2f621d_DejaVuSans-31"/>
      </g>
     </g>
    </g>
    <g id="frame0077_2f621d_text_6">
     <!-- $y$ -->
     <g transform="translate(172.815625 13.178125) scale(0.2 -0.2)">
      <defs>
       <path id="frame0077_2f621d_DejaVuSans-Oblique-79" d="M 1588 -325 
Q 1188 -997 936 -1164 
Q 684 -1331 294 -1331 
L -159 -1331 
L -63 -850 
L 269 -850 
Q 509 -850 678 -719 
Q 847 -588 1056 -206 
L 1234 128 
L 459 3500 
L 1069 3500 
L 1650 819 
L 3256 3500 
L 3859 3500 
L 1588 -325 
z
" transform="scale(0.015625)"/>
      </defs>
      <use xlink:href="#frame0077_2f621d_DejaVuSans-Oblique-79" transform="translate(0 0.3125)"/>
     </g>
    </g>
   </g>
   <g id="frame0077_2f621d_line2d_9">
    <defs>
     <path id="frame0077_2f621d_m07987d94ec" d="M 3 0 
L -3 -3 
L -3 3 
z
" style="stroke: #000000; stroke-linejoin: miter"/>
    </defs>
    <g>
     <use xlink:href="#frame0077_2f621d_m07987d94ec" x="443.4" y="174.158125" style="stroke: #000000; stroke-linejoin: miter"/>
    </g>
   </g>
   <g id="frame0077_2f621d_line2d_10">
    <defs>
     <path id="frame0077_2f621d_mfef6aac383" d="M 0 -3 
L -3 3 
L 3 3 
z
" style="stroke: #000000; stroke-linejoin: miter"/>
    </defs>
    <g>
     <use xlink:href="#frame0077_2f621d_mfef6aac383" x="225.3" y="17.378125" style="stroke: #000000; stroke-linejoin: miter"/>
    </g>
   </g>
   <g id="frame0077_2f621d_line2d_11">
    <defs>
     <path id="frame0077_2f621d_mf16d7d064d" d="M 0 5 
C 1.326016 5 2.597899 4.473168 3.535534 3.535534 
C 4.473168 2.597899 5 1.326016 5 0 
C 5 -1.326016 4.473168 -2.597899 3.535534 -3.535534 
C 2.597899 -4.473168 1.326016 -5 0 -5 
C -1.326016 -5 -2.597899 -4.473168 -3.535534 -3.535534 
C -4.473168 -2.597899 -5 -1.326016 -5 0 
C -5 1.326016 -4.473168 2.597899 -3.535534 3.535534 
C -2.597899 4.473168 -1.326016 5 0 5 
z
" style="stroke: #000000; stroke-opacity: 0.8"/>
    </defs>
    <g clip-path="url(#frame0077_2f621d_p442bbdb9a0)">
     <use xlink:href="#frame0077_2f621d_mf16d7d064d" x="111.142758" y="238.891202" style="fill-opacity: 0.8; stroke: #000000; stroke-opacity: 0.8"/>
    </g>
   </g>
   <g id="frame0077_2f621d_line2d_12">
    <path d="M 370.7 174.158125 
L 370.593446 170.157415 
L 370.273941 166.162568 
L 369.741953 162.179441 
L 368.998261 158.21387 
L 368.043956 154.271668 
L 366.880436 150.358613 
L 365.509406 146.48044 
L 363.932877 142.642833 
L 362.153158 138.851417 
L 360.172859 135.111749 
L 357.994881 131.42931 
L 355.622418 127.809496 
L 353.058945 124.257615 
L 350.30822 120.77887 
L 347.374276 117.378362 
L 344.261411 114.061074 
L 340.974189 110.831868 
L 337.517428 107.695477 
L 333.896193 104.656498 
L 330.115793 101.719385 
L 326.181768 98.888443 
L 322.099884 96.167821 
L 317.876124 93.561507 
L 313.516678 91.07332 
L 309.027937 88.706907 
L 304.416478 86.465738 
L 299.689062 84.353096 
L 294.852615 82.372078 
L 289.914228 80.525588 
L 284.881139 78.816331 
L 279.760723 77.246814 
L 274.560486 75.819336 
L 269.28805 74.535989 
L 263.951142 73.398656 
L 258.557585 72.409002 
L 253.115283 71.568477 
L 247.632213 70.878315 
L 242.116411 70.339527 
L 236.575963 69.952902 
L 231.018988 69.719006 
L 225.45363 69.638183 
L 219.888047 69.710552 
L 214.330397 69.936005 
L 208.788824 70.314213 
L 203.271451 70.844622 
L 197.786365 71.526453 
L 192.341604 72.358708 
L 186.945149 73.340167 
L 181.60491 74.469391 
L 176.328713 75.744725 
L 171.124291 77.164301 
L 165.999273 78.726036 
L 160.96117 80.427643 
L 156.017366 82.266628 
L 151.175107 84.240295 
L 146.44149 86.345751 
L 141.823453 88.57991 
L 137.327765 90.939498 
L 132.961015 93.421057 
L 128.729602 96.02095 
L 124.63973 98.735365 
L 120.697391 101.560325 
L 116.908365 104.491688 
L 113.278205 107.52516 
L 109.812231 110.656293 
L 106.515523 113.880498 
L 103.392914 117.19305 
L 100.448979 120.589094 
L 97.688034 124.063652 
L 95.114126 127.611631 
L 92.731026 131.227833 
L 90.542228 134.906955 
L 88.550939 138.643607 
L 86.760079 142.432311 
L 85.172272 146.267514 
L 83.789844 150.143596 
L 82.614824 154.054875 
L 81.648932 157.995618 
L 80.893584 161.960051 
L 80.349887 165.942361 
L 80.018639 169.936713 
L 79.900325 173.937253 
L 79.995117 177.938116 
L 80.302878 181.933439 
L 80.823156 185.917366 
L 81.555188 189.884057 
L 82.497902 193.8277 
L 83.649916 197.742514 
L 85.009542 201.622761 
L 86.574786 205.462754 
L 88.343355 209.256865 
L 90.312656 212.999533 
L 92.479804 216.685273 
L 94.841621 220.308682 
L 97.394647 223.86445 
L 100.135139 227.347365 
L 103.05908 230.752322 
L 106.162186 234.074331 
L 109.439907 237.308524 
L 111.142758 238.891202 
L 111.142758 238.891202 
" clip-path="url(#frame0077_2f621d_p442bbdb9a0)" style="fill: none; stroke: #0072b2; stroke-width: 2.5; stroke-linecap: square"/>
   </g>
   <g id="frame0077_2f621d_patch_3">
    <path d="M 225.3 330.938125 
L 225.3 17.378125 
" style="fill: none; stroke: #000000; stroke-width: 0.8; stroke-linejoin: miter; stroke-linecap: square"/>
   </g>
   <g id="frame0077_2f621d_patch_4">
    <path d="M 443.4 330.938125 
L 443.4 17.378125 
" style="fill: none"/>
   </g>
   <g id="frame0077_2f621d_patch_5">
    <path d="M 7.2 174.158125 
L 443.4 174.158125 
" style="fill: none; stroke: #000000; stroke-width: 0.8; stroke-linejoin: miter; stroke-linecap: square"/>
   </g>
   <g id="frame0077_2f621d_patch_6">
    <path d="M 7.2 17.378125 
L 443.4 17.378125 
" style="fill: none"/>
   </g>
  </g>
 </g>
 <defs>
  <clipPath id="frame0077_2f621d_p442bbdb9a0">
   <rect x="7.2" y="17.378125" width="436.2" height="313.56"/>
  </clipPath>
 </defs>
</svg>
