<?xml version="1.0" encoding="utf-8" standalone="no"?>
<!DOCTYPE svg PUBLIC "-//W3C//DTD SVG 1.1//EN"
  "http://www.w3.org/Graphics/SVG/1.1/DTD/svg11.dtd">
<svg xmlns:xlink="http://www.w3.org/1999/xlink" width="453.6pt" height="338.138125pt" viewBox="0 0 453.6 338.138125" xmlns="http://www.w3.org/2000/svg" version="1.1">
 <metadata>
  <rdf:RDF xmlns:dc="http://purl.org/dc/elements/1.1/" xmlns:cc="http://creativecommons.org/ns#" xmlns:rdf="http://www.w3.org/1999/02/22-rdf-syntax-ns#">
   <cc:Work>
    <dc:type rdf:resource="http://purl.org/dc/dcmitype/StillImage"/>
    <dc:date>2026-01-22T01:05:27.303435</dc:date>
    <dc:format>image/svg+xml</dc:format>
    <dc:creator>
     <cc:Agent>
      <dc:title>Matplotlib v3.9.1, https://matplotlib.org/</dc:title>
     </cc:Agent>
    </dc:creator>
   </cc:Work>
  </rdf:RDF>
 </metadata>
 <defs>
  <style type="text/css">*{stroke-linejoin: round; stroke-linecap: butt}</style>
 </defs>
 <g id="frame0059_5d0aac_figure_1">
  <g id="frame0059_5d0aac_patch_1">
   <path d="M 0 338.138125 
L 453.6 338.138125 
L 453.6 0 
L 0 0 
L 0 338.138125 
z
" style="fill: none; opacity: 0"/>
  </g>
  <g id="frame0059_5d0aac_axes_1">
   <g id="frame0059_5d0aac_patch_2">
    <path d="M 7.2 330.938125 
L 443.4 330.938125 
L 443.4 17.378125 
L 7.2 17.378125 
L 7.2 330.938125 
z
" style="fill: none; opacity: 0"/>
   </g>
   <g id="frame0059_5d0aac_matplotlib.axis_1">
    <g id="frame0059_5d0aac_xtick_1">
     <g id="frame0059_5d0aac_line2d_1">
      <path d="M 79.9 330.938125 
L 79.9 17.378125 
" clip-path="url(#frame0059_5d0aac_p9f2ce91797)" style="fill: none; stroke-dasharray: 2.96,1.28; stroke-dashoffset: 0; stroke: #b0b0b0; stroke-opacity: 0.6; stroke-width: 0.8"/>
     </g>
     <g id="frame0059_5d0aac_line2d_2">
      <defs>
       <path id="frame0059_5d0aac_mb45bb2e547" d="M 0 0 
L 0 3.5 
" style="stroke: #000000; stroke-width: 0.8"/>
      </defs>
      <g>
       <use xlink:href="#frame0059_5d0aac_mb45bb2e547" x="79.9" y="174.158125" style="stroke: #000000; stroke-width: 0.8"/>
      </g>
     </g>
     <g id="frame0059_5d0aac_text_1">
      <!-- −1 -->
      <g transform="translate(65.157813 196.355) scale(0.2 -0.2)">
       <defs>
        <path id="frame0059_5d0aac_DejaVuSans-2212" d="M 678 2272 
L 4684 2272 
L 4684 1741 
L 678 1741 
L 678 2272 
z
" transform="scale(0.015625)"/>
        <path id="frame0059_5d0aac_DejaVuSans-31" d="M 794 531 
L 1825 531 
L 1825 4091 
L 703 3866 
L 703 4441 
L 1819 4666 
L 2450 4666 
L 2450 531 
L 3481 531 
L 3481 0 
L 794 0 
L 794 531 
z
" transform="scale(0.015625)"/>
       </defs>
       <use xlink:href="#frame0059_5d0aac_DejaVuSans-2212"/>
       <use xlink:href="#frame0059_5d0aac_DejaVuSans-31" x="83.789062"/>
      </g>
     </g>
    </g>
    <g id="frame0059_5d0aac_xtick_2">
     <g id="frame0059_5d0aac_line2d_3">
      <path d="M 370.7 330.938125 
L 370.7 17.378125 
" clip-path="url(#frame0059_5d0aac_p9f2ce91797)" style="fill: none; stroke-dasharray: 2.96,1.28; stroke-dashoffset: 0; stroke: #b0b0b0; stroke-opacity: 0.6; stroke-width: 0.8"/>
     </g>
     <g id="frame0059_5d0aac_line2d_4">
      <g>
       <use xlink:href="#frame0059_5d0aac_mb45bb2e547" x="370.7" y="174.158125" style="stroke: #000000; stroke-width: 0.8"/>
      </g>
     </g>
     <g id="frame0059_5d0aac_text_2">
      <!-- 1 -->
      <g transform="translate(364.3375 196.355) scale(0.2 -0.2)">
       <use xlink:href="#frame0059_5d0aac_DejaVuSans-31"/>
      </g>
     </g>
    </g>
    <g id="frame0059_5d0aac_text_3">
     <!-- $x$ -->
     <g transform="translate(431.4 219.71125) scale(0.2 -0.2)">
      <defs>
       <path id="frame0059_5d0aac_DejaVuSans-Oblique-78" d="M 3841 3500 
L 2234 1784 
L 3219 0 
L 2559 0 
L 1819 1388 
L 531 0 
L -166 0 
L 1556 1844 
L 641 3500 
L 1300 3500 
L 1972 2234 
L 3144 3500 
L 3841 3500 
z
" transform="scale(0.015625)"/>
      </defs>
      <use xlink:href="#frame0059_5d0aac_DejaVuSans-Oblique-78" transform="translate(0 0.3125)"/>
     </g>
    </g>
   </g>
   <g id="frame0059_5d0aac_matplotlib.axis_2">
    <g id="frame0059_5d0aac_ytick_1">
     <g id="frame0059_5d0aac_line2d_5">
      <path d="M 7.2 278.678125 
L 443.4 278.678125 
" clip-path="url(#frame0059_5d0aac_p9f2ce91797)" style="fill: none; stroke-dasharray: 2.96,1.28; stroke-dashoffset: 0; stroke: #b0b0b0; stroke-opacity: 0.6; stroke-width: 0.8"/>
     </g>
     <g id="frame0059_5d0aac_line2d_6">
      <defs>
       <path id="frame0059_5d0aac_md7e173fd12" d="M 0 0 
L -3.5 0 
" style="stroke: #000000; stroke-width: 0.8"/>
      </defs>
      <g>
       <use xlink:href="#frame0059_5d0aac_md7e173fd12" x="225.3" y="278.678125" style="stroke: #000000; stroke-width: 0.8"/>
      </g>
     </g>
     <g id="frame0059_5d0aac_text_4">
      <!-- −1 -->
      <g transform="translate(188.815625 286.276562) scale(0.2 -0.2)">
       <use xlink:href="#frame0059_5d0aac_DejaVuSans-2212"/>
       <use xlink:href="#frame0059_5d0aac_DejaVuSans-31" x="83.789062"/>
      </g>
     </g>
    </g>
    <g id="frame0059_5d0aac_ytick_2">
     <g id="frame0059_5d0aac_line2d_7">
      <path d="M 7.2 69.638125 
L 443.4 69.638125 
" clip-path="url(#frame0059_5d0aac_p9f2ce91797)" style="fill: none; stroke-dasharray: 2.96,1.28; stroke-dashoffset: 0; stroke: #b0b0b0; stroke-opacity: 0.6; stroke-width: 0.8"/>
     </g>
     <g id="frame0059_5d0aac_line2d_8">
      <g>
       <use xlink:href="#frame0059_5d0aac_md7e173fd12" x="225.3" y="69.638125" style="stroke: #000000; stroke-width: 0.8"/>
      </g>
     </g>
     <g id="frame0059_5d0aac_text_5">
      <!-- 1 -->
      <g transform="translate(205.575 77.236562) scale(0.2 -0.2)">
       <use xlink:href="#frame0059_5d0aac_DejaVuSans-31"/>
      </g>
     </g>
    </g>
    <g id="frame0059_5d0aac_text_6">
     <!-- $y$ -->
     <g transform="translate(172.815625 13.178125) scale(0.2 -0.2)">
      <defs>
       <path id="frame0059_5d0aac_DejaVuSans-Oblique-79" d="M 1588 -325 
Q 1188 -997 936 -1164 
Q 684 -1331 294 -1331 
L -159 -1331 
L -63 -850 
L 269 -850 
Q 509 -850 678 -719 
Q 847 -588 1056 -206 
L 1234 128 
L 459 3500 
L 1069 3500 
L 1650 819 
L 3256 3500 
L 3859 3500 
L 1588 -325 
z
" transform="scale(0.015625)"/>
      </defs>
      <use xlink:href="#frame0059_5d0aac_DejaVuSans-Oblique-79" transform="translate(0 0.3125)"/>
     </g>
    </g>
   </g>
   <g id="frame0059_5d0aac_line2d_9">
    <defs>
     <path id="frame0059_5d0aac_m9eb0a3c259" d="M 3 0 
L -3 -3 
L -3 3 
z
" style="stroke: #000000; stroke-linejoin: miter"/>
    </defs>
    <g>
     <use xlink:href="#frame0059_5d0aac_m9eb0a3c259" x="443.4" y="174.158125" style="stroke: #000000; stroke-linejoin: miter"/>
    </g>
   </g>
   <g id="frame0059_5d0aac_line2d_10">
    <defs>
     <path id="frame0059_5d0aac_m375c8ff4a2" d="M 0 -3 
L -3 3 
L 3 3 
z
" style="stroke: #000000; stroke-linejoin: miter"/>
    </defs>
    <g>
     <use xlink:href="#frame0059_5d0aac_m375c8ff4a2" x="225.3" y="17.378125" style="stroke: #000000; stroke-linejoin: miter"/>
    </g>
   </g>
   <g id="frame0059_5d0aac_line2d_11">
    <defs>
     <path id="frame0059_5d0aac_mff30edad09" d="M 0 5 
C 1.326016 5 2.597899 4.473168 3.535534 3.535534 
C 4.473168 2.597899 5 1.326016 5 0 
C 5 -1.326016 4.473168 -2.597899 3.535534 -3.535534 
C 2.597899 -4.473168 1.326016 -5 0 -5 
C -1.326016 -5 -2.597899 -4.473168 -3.535534 -3.535534 
C -4.473168 -2.597899 -5 -1.326016 -5 0 
C -5 1.326016 -4.473168 2.597899 -3.535534 3.535534 
C -2.597899 4.473168 -1.326016 5 0 5 
z
" style="stroke: #000000; stroke-opacity: 0.8"/>
    </defs>
    <g clip-path="url(#frame0059_5d0aac_p9f2ce91797)">
     <use xlink:href="#frame0059_5d0aac_mff30edad09" x="83.488535" y="151.080322" style="fill-opacity: 0.8; stroke: #000000; stroke-opacity: 0.8"/>
    </g>
   </g>
   <g id="frame0059_5d0aac_line2d_12">
    <path d="M 370.7 174.158125 
L 370.559247 169.560267 
L 370.137261 164.971311 
L 369.434859 160.400141 
L 368.453401 155.855607 
L 367.194787 151.346509 
L 365.661454 146.881575 
L 363.85637 142.469452 
L 361.78303 138.118679 
L 359.445449 133.837682 
L 356.848152 129.634749 
L 353.996168 125.518016 
L 350.895017 121.495454 
L 347.550706 117.574851 
L 343.969707 113.763798 
L 340.158955 110.069673 
L 336.125827 106.499628 
L 331.878132 103.060575 
L 327.424093 99.759172 
L 322.772334 96.601811 
L 317.931861 93.594606 
L 312.912046 90.743377 
L 307.722607 88.053646 
L 302.373592 85.53062 
L 296.875356 83.179183 
L 291.238545 81.003889 
L 285.474072 79.008949 
L 279.593097 77.198224 
L 273.607007 75.575222 
L 267.52739 74.143083 
L 261.366018 72.904581 
L 255.134819 71.862114 
L 248.845858 71.0177 
L 242.511311 70.372974 
L 236.143441 69.929183 
L 229.754577 69.687188 
L 223.357088 69.647457 
L 216.963362 69.810066 
L 210.585776 70.174701 
L 204.236677 70.740656 
L 197.928359 71.506836 
L 191.673035 72.471756 
L 185.482814 73.633549 
L 179.369683 74.989965 
L 173.345477 76.538378 
L 167.421859 78.27579 
L 161.610297 80.198838 
L 155.922043 82.303799 
L 150.36811 84.586596 
L 144.959251 87.042811 
L 139.705938 89.667688 
L 134.618342 92.456145 
L 129.706312 95.402783 
L 124.97936 98.501897 
L 120.446635 101.747488 
L 116.116915 105.133271 
L 111.998582 108.652692 
L 108.099608 112.298937 
L 104.427544 116.064945 
L 100.989498 119.943426 
L 97.792127 123.926871 
L 94.841621 128.007568 
L 92.143693 132.177616 
L 89.703565 136.428941 
L 87.525962 140.753313 
L 85.615101 145.142359 
L 83.97468 149.587582 
L 83.488535 151.080322 
L 83.488535 151.080322 
" clip-path="url(#frame0059_5d0aac_p9f2ce91797)" style="fill: none; stroke: #0072b2; stroke-width: 2.5; stroke-linecap: square"/>
   </g>
   <g id="frame0059_5d0aac_patch_3">
    <path d="M 225.3 330.938125 
L 225.3 17.378125 
" style="fill: none; stroke: #000000; stroke-width: 0.8; stroke-linejoin: miter; stroke-linecap: square"/>
   </g>
   <g id="frame0059_5d0aac_patch_4">
    <path d="M 443.4 330.938125 
L 443.4 17.378125 
" style="fill: none"/>
   </g>
   <g id="frame0059_5d0aac_patch_5">
    <path d="M 7.2 174.158125 
L 443.4 174.158125 
" style="fill: none; stroke: #000000; stroke-width: 0.8; stroke-linejoin: miter; stroke-linecap: square"/>
   </g>
   <g id="frame0059_5d0aac_patch_6">
    <path d="M 7.2 17.378125 
L 443.4 17.378125 
" style="fill: none"/>
   </g>
  </g>
 </g>
 <defs>
  <clipPath id="frame0059_5d0aac_p9f2ce91797">
   <rect x="7.2" y="17.378125" width="436.2" height="313.56"/>
  </clipPath>
 </defs>
</svg>
