<?xml version="1.0" encoding="utf-8" standalone="no"?>
<!DOCTYPE svg PUBLIC "-//W3C//DTD SVG 1.1//EN"
  "http://www.w3.org/Graphics/SVG/1.1/DTD/svg11.dtd">
<svg xmlns:xlink="http://www.w3.org/1999/xlink" width="453.6pt" height="338.138125pt" viewBox="0 0 453.6 338.138125" xmlns="http://www.w3.org/2000/svg" version="1.1">
 <metadata>
  <rdf:RDF xmlns:dc="http://purl.org/dc/elements/1.1/" xmlns:cc="http://creativecommons.org/ns#" xmlns:rdf="http://www.w3.org/1999/02/22-rdf-syntax-ns#">
   <cc:Work>
    <dc:type rdf:resource="http://purl.org/dc/dcmitype/StillImage"/>
    <dc:date>2026-01-22T01:05:31.641939</dc:date>
    <dc:format>image/svg+xml</dc:format>
    <dc:creator>
     <cc:Agent>
      <dc:title>Matplotlib v3.9.1, https://matplotlib.org/</dc:title>
     </cc:Agent>
    </dc:creator>
   </cc:Work>
  </rdf:RDF>
 </metadata>
 <defs>
  <style type="text/css">*{stroke-linejoin: round; stroke-linecap: butt}</style>
 </defs>
 <g id="frame0111_1dc5ea_figure_1">
  <g id="frame0111_1dc5ea_patch_1">
   <path d="M 0 338.138125 
L 453.6 338.138125 
L 453.6 0 
L 0 0 
L 0 338.138125 
z
" style="fill: none; opacity: 0"/>
  </g>
  <g id="frame0111_1dc5ea_axes_1">
   <g id="frame0111_1dc5ea_patch_2">
    <path d="M 7.2 330.938125 
L 443.4 330.938125 
L 443.4 17.378125 
L 7.2 17.378125 
L 7.2 330.938125 
z
" style="fill: none; opacity: 0"/>
   </g>
   <g id="frame0111_1dc5ea_matplotlib.axis_1">
    <g id="frame0111_1dc5ea_xtick_1">
     <g id="frame0111_1dc5ea_line2d_1">
      <path d="M 79.9 330.938125 
L 79.9 17.378125 
" clip-path="url(#frame0111_1dc5ea_p3d6f6d6f52)" style="fill: none; stroke-dasharray: 2.96,1.28; stroke-dashoffset: 0; stroke: #b0b0b0; stroke-opacity: 0.6; stroke-width: 0.8"/>
     </g>
     <g id="frame0111_1dc5ea_line2d_2">
      <defs>
       <path id="frame0111_1dc5ea_m9f09f8cc35" d="M 0 0 
L 0 3.5 
" style="stroke: #000000; stroke-width: 0.8"/>
      </defs>
      <g>
       <use xlink:href="#frame0111_1dc5ea_m9f09f8cc35" x="79.9" y="174.158125" style="stroke: #000000; stroke-width: 0.8"/>
      </g>
     </g>
     <g id="frame0111_1dc5ea_text_1">
      <!-- −1 -->
      <g transform="translate(65.157813 196.355) scale(0.2 -0.2)">
       <defs>
        <path id="frame0111_1dc5ea_DejaVuSans-2212" d="M 678 2272 
L 4684 2272 
L 4684 1741 
L 678 1741 
L 678 2272 
z
" transform="scale(0.015625)"/>
        <path id="frame0111_1dc5ea_DejaVuSans-31" d="M 794 531 
L 1825 531 
L 1825 4091 
L 703 3866 
L 703 4441 
L 1819 4666 
L 2450 4666 
L 2450 531 
L 3481 531 
L 3481 0 
L 794 0 
L 794 531 
z
" transform="scale(0.015625)"/>
       </defs>
       <use xlink:href="#frame0111_1dc5ea_DejaVuSans-2212"/>
       <use xlink:href="#frame0111_1dc5ea_DejaVuSans-31" x="83.789062"/>
      </g>
     </g>
    </g>
    <g id="frame0111_1dc5ea_xtick_2">
     <g id="frame0111_1dc5ea_line2d_3">
      <path d="M 370.7 330.938125 
L 370.7 17.378125 
" clip-path="url(#frame0111_1dc5ea_p3d6f6d6f52)" style="fill: none; stroke-dasharray: 2.96,1.28; stroke-dashoffset: 0; stroke: #b0b0b0; stroke-opacity: 0.6; stroke-width: 0.8"/>
     </g>
     <g id="frame0111_1dc5ea_line2d_4">
      <g>
       <use xlink:href="#frame0111_1dc5ea_m9f09f8cc35" x="370.7" y="174.158125" style="stroke: #000000; stroke-width: 0.8"/>
      </g>
     </g>
     <g id="frame0111_1dc5ea_text_2">
      <!-- 1 -->
      <g transform="translate(364.3375 196.355) scale(0.2 -0.2)">
       <use xlink:href="#frame0111_1dc5ea_DejaVuSans-31"/>
      </g>
     </g>
    </g>
    <g id="frame0111_1dc5ea_text_3">
     <!-- $x$ -->
     <g transform="translate(431.4 219.71125) scale(0.2 -0.2)">
      <defs>
       <path id="frame0111_1dc5ea_DejaVuSans-Oblique-78" d="M 3841 3500 
L 2234 1784 
L 3219 0 
L 2559 0 
L 1819 1388 
L 531 0 
L -166 0 
L 1556 1844 
L 641 3500 
L 1300 3500 
L 1972 2234 
L 3144 3500 
L 3841 3500 
z
" transform="scale(0.015625)"/>
      </defs>
      <use xlink:href="#frame0111_1dc5ea_DejaVuSans-Oblique-78" transform="translate(0 0.3125)"/>
     </g>
    </g>
   </g>
   <g id="frame0111_1dc5ea_matplotlib.axis_2">
    <g id="frame0111_1dc5ea_ytick_1">
     <g id="frame0111_1dc5ea_line2d_5">
      <path d="M 7.2 278.678125 
L 443.4 278.678125 
" clip-path="url(#frame0111_1dc5ea_p3d6f6d6f52)" style="fill: none; stroke-dasharray: 2.96,1.28; stroke-dashoffset: 0; stroke: #b0b0b0; stroke-opacity: 0.6; stroke-width: 0.8"/>
     </g>
     <g id="frame0111_1dc5ea_line2d_6">
      <defs>
       <path id="frame0111_1dc5ea_m1238c82e6d" d="M 0 0 
L -3.5 0 
" style="stroke: #000000; stroke-width: 0.8"/>
      </defs>
      <g>
       <use xlink:href="#frame0111_1dc5ea_m1238c82e6d" x="225.3" y="278.678125" style="stroke: #000000; stroke-width: 0.8"/>
      </g>
     </g>
     <g id="frame0111_1dc5ea_text_4">
      <!-- −1 -->
      <g transform="translate(188.815625 286.276562) scale(0.2 -0.2)">
       <use xlink:href="#frame0111_1dc5ea_DejaVuSans-2212"/>
       <use xlink:href="#frame0111_1dc5ea_DejaVuSans-31" x="83.789062"/>
      </g>
     </g>
    </g>
    <g id="frame0111_1dc5ea_ytick_2">
     <g id="frame0111_1dc5ea_line2d_7">
      <path d="M 7.2 69.638125 
L 443.4 69.638125 
" clip-path="url(#frame0111_1dc5ea_p3d6f6d6f52)" style="fill: none; stroke-dasharray: 2.96,1.28; stroke-dashoffset: 0; stroke: #b0b0b0; stroke-opacity: 0.6; stroke-width: 0.8"/>
     </g>
     <g id="frame0111_1dc5ea_line2d_8">
      <g>
       <use xlink:href="#frame0111_1dc5ea_m1238c82e6d" x="225.3" y="69.638125" style="stroke: #000000; stroke-width: 0.8"/>
      </g>
     </g>
     <g id="frame0111_1dc5ea_text_5">
      <!-- 1 -->
      <g transform="translate(205.575 77.236562) scale(0.2 -0.2)">
       <use xlink:href="#frame0111_1dc5ea_DejaVuSans-31"/>
      </g>
     </g>
    </g>
    <g id="frame0111_1dc5ea_text_6">
     <!-- $y$ -->
     <g transform="translate(172.815625 13.178125) scale(0.2 -0.2)">
      <defs>
       <path id="frame0111_1dc5ea_DejaVuSans-Oblique-79" d="M 1588 -325 
Q 1188 -997 936 -1164 
Q 684 -1331 294 -1331 
L -159 -1331 
L -63 -850 
L 269 -850 
Q 509 -850 678 -719 
Q 847 -588 1056 -206 
L 1234 128 
L 459 3500 
L 1069 3500 
L 1650 819 
L 3256 3500 
L 3859 3500 
L 1588 -325 
z
" transform="scale(0.015625)"/>
      </defs>
      <use xlink:href="#frame0111_1dc5ea_DejaVuSans-Oblique-79" transform="translate(0 0.3125)"/>
     </g>
    </g>
   </g>
   <g id="frame0111_1dc5ea_line2d_9">
    <defs>
     <path id="frame0111_1dc5ea_m07a8be7bb8" d="M 3 0 
L -3 -3 
L -3 3 
z
" style="stroke: #000000; stroke-linejoin: miter"/>
    </defs>
    <g>
     <use xlink:href="#frame0111_1dc5ea_m07a8be7bb8" x="443.4" y="174.158125" style="stroke: #000000; stroke-linejoin: miter"/>
    </g>
   </g>
   <g id="frame0111_1dc5ea_line2d_10">
    <defs>
     <path id="frame0111_1dc5ea_m33ce721c69" d="M 0 -3 
L -3 3 
L 3 3 
z
" style="stroke: #000000; stroke-linejoin: miter"/>
    </defs>
    <g>
     <use xlink:href="#frame0111_1dc5ea_m33ce721c69" x="225.3" y="17.378125" style="stroke: #000000; stroke-linejoin: miter"/>
    </g>
   </g>
   <g id="frame0111_1dc5ea_line2d_11">
    <defs>
     <path id="frame0111_1dc5ea_m9c2547ea83" d="M 0 5 
C 1.326016 5 2.597899 4.473168 3.535534 3.535534 
C 4.473168 2.597899 5 1.326016 5 0 
C 5 -1.326016 4.473168 -2.597899 3.535534 -3.535534 
C 2.597899 -4.473168 1.326016 -5 0 -5 
C -1.326016 -5 -2.597899 -4.473168 -3.535534 -3.535534 
C -4.473168 -2.597899 -5 -1.326016 -5 0 
C -5 1.326016 -4.473168 2.597899 -3.535534 3.535534 
C -2.597899 4.473168 -1.326016 5 0 5 
z
" style="stroke: #000000; stroke-opacity: 0.8"/>
    </defs>
    <g clip-path="url(#frame0111_1dc5ea_p3d6f6d6f52)">
     <use xlink:href="#frame0111_1dc5ea_m9c2547ea83" x="327.475542" y="248.520567" style="fill-opacity: 0.8; stroke: #000000; stroke-opacity: 0.8"/>
    </g>
   </g>
   <g id="frame0111_1dc5ea_line2d_12">
    <path d="M 370.7 174.158125 
L 370.478601 168.392387 
L 369.815077 162.644207 
L 368.71145 156.931092 
L 367.17108 151.270439 
L 365.198658 145.679489 
L 362.800191 140.175267 
L 359.982984 134.774535 
L 356.755615 129.493742 
L 353.127914 124.348968 
L 349.110928 119.355883 
L 344.71689 114.529692 
L 339.959182 109.885092 
L 334.852294 105.436227 
L 329.411776 101.196648 
L 323.654198 97.179264 
L 317.597095 93.39631 
L 311.258911 89.859306 
L 304.658949 86.579025 
L 297.817309 83.565455 
L 290.754826 80.827775 
L 283.493009 78.374322 
L 276.053971 76.212567 
L 268.460368 74.349093 
L 260.735325 72.789577 
L 252.902368 71.538766 
L 244.985351 70.60047 
L 237.008385 69.977547 
L 228.995762 69.671894 
L 220.971884 69.684441 
L 212.961188 70.015151 
L 204.988067 70.663016 
L 197.076804 71.626063 
L 189.251492 72.901359 
L 181.535961 74.485021 
L 173.953708 76.372226 
L 166.527824 78.557226 
L 159.280924 81.033367 
L 152.235078 83.793109 
L 145.411742 86.828047 
L 138.831696 90.128939 
L 132.514979 93.685731 
L 126.480829 97.487593 
L 120.74762 101.522946 
L 115.332814 105.779501 
L 110.252899 110.244294 
L 105.523347 114.90373 
L 101.158561 119.743618 
L 97.171833 124.749219 
L 93.575304 129.905289 
L 90.379927 135.196126 
L 87.595434 140.605617 
L 85.230303 146.117289 
L 83.291739 151.714355 
L 81.785643 157.379771 
L 80.716604 163.096284 
L 80.087877 168.846485 
L 79.901376 174.612861 
L 80.15767 180.377852 
L 80.855977 186.123902 
L 81.994172 191.833512 
L 83.568788 197.489293 
L 85.575029 203.074022 
L 88.006787 208.570691 
L 90.856655 213.962561 
L 94.115954 219.233211 
L 97.774759 224.36659 
L 101.821927 229.347065 
L 106.245133 234.159468 
L 111.030906 238.789145 
L 116.164673 243.221995 
L 121.630798 247.444519 
L 127.412636 251.443859 
L 133.492579 255.207834 
L 139.85211 258.724981 
L 146.471862 261.98459 
L 153.331677 264.976734 
L 160.410662 267.6923 
L 167.68726 270.123019 
L 175.139311 272.261488 
L 182.744121 274.101195 
L 190.478529 275.636537 
L 198.318983 276.862839 
L 206.241603 277.776365 
L 214.222264 278.374334 
L 222.236661 278.654925 
L 230.260387 278.617284 
L 238.269006 278.261524 
L 246.23813 277.588729 
L 254.14349 276.600949 
L 261.96101 275.301191 
L 269.666883 273.693414 
L 277.237642 271.782514 
L 284.650231 269.57431 
L 291.882076 267.075528 
L 298.911152 264.293776 
L 305.716055 261.237527 
L 312.276061 257.916088 
L 318.57119 254.339574 
L 324.582274 250.518876 
L 327.475542 248.520567 
L 327.475542 248.520567 
" clip-path="url(#frame0111_1dc5ea_p3d6f6d6f52)" style="fill: none; stroke: #0072b2; stroke-width: 2.5; stroke-linecap: square"/>
   </g>
   <g id="frame0111_1dc5ea_patch_3">
    <path d="M 225.3 330.938125 
L 225.3 17.378125 
" style="fill: none; stroke: #000000; stroke-width: 0.8; stroke-linejoin: miter; stroke-linecap: square"/>
   </g>
   <g id="frame0111_1dc5ea_patch_4">
    <path d="M 443.4 330.938125 
L 443.4 17.378125 
" style="fill: none"/>
   </g>
   <g id="frame0111_1dc5ea_patch_5">
    <path d="M 7.2 174.158125 
L 443.4 174.158125 
" style="fill: none; stroke: #000000; stroke-width: 0.8; stroke-linejoin: miter; stroke-linecap: square"/>
   </g>
   <g id="frame0111_1dc5ea_patch_6">
    <path d="M 7.2 17.378125 
L 443.4 17.378125 
" style="fill: none"/>
   </g>
  </g>
 </g>
 <defs>
  <clipPath id="frame0111_1dc5ea_p3d6f6d6f52">
   <rect x="7.2" y="17.378125" width="436.2" height="313.56"/>
  </clipPath>
 </defs>
</svg>
