<?xml version="1.0" encoding="utf-8" standalone="no"?>
<!DOCTYPE svg PUBLIC "-//W3C//DTD SVG 1.1//EN"
  "http://www.w3.org/Graphics/SVG/1.1/DTD/svg11.dtd">
<svg xmlns:xlink="http://www.w3.org/1999/xlink" width="453.6pt" height="338.138125pt" viewBox="0 0 453.6 338.138125" xmlns="http://www.w3.org/2000/svg" version="1.1">
 <metadata>
  <rdf:RDF xmlns:dc="http://purl.org/dc/elements/1.1/" xmlns:cc="http://creativecommons.org/ns#" xmlns:rdf="http://www.w3.org/1999/02/22-rdf-syntax-ns#">
   <cc:Work>
    <dc:type rdf:resource="http://purl.org/dc/dcmitype/StillImage"/>
    <dc:date>2026-01-22T01:05:32.351127</dc:date>
    <dc:format>image/svg+xml</dc:format>
    <dc:creator>
     <cc:Agent>
      <dc:title>Matplotlib v3.9.1, https://matplotlib.org/</dc:title>
     </cc:Agent>
    </dc:creator>
   </cc:Work>
  </rdf:RDF>
 </metadata>
 <defs>
  <style type="text/css">*{stroke-linejoin: round; stroke-linecap: butt}</style>
 </defs>
 <g id="frame0120_8f38dc_figure_1">
  <g id="frame0120_8f38dc_patch_1">
   <path d="M 0 338.138125 
L 453.6 338.138125 
L 453.6 0 
L 0 0 
L 0 338.138125 
z
" style="fill: none; opacity: 0"/>
  </g>
  <g id="frame0120_8f38dc_axes_1">
   <g id="frame0120_8f38dc_patch_2">
    <path d="M 7.2 330.938125 
L 443.4 330.938125 
L 443.4 17.378125 
L 7.2 17.378125 
L 7.2 330.938125 
z
" style="fill: none; opacity: 0"/>
   </g>
   <g id="frame0120_8f38dc_matplotlib.axis_1">
    <g id="frame0120_8f38dc_xtick_1">
     <g id="frame0120_8f38dc_line2d_1">
      <path d="M 79.9 330.938125 
L 79.9 17.378125 
" clip-path="url(#frame0120_8f38dc_p20c4ffe755)" style="fill: none; stroke-dasharray: 2.96,1.28; stroke-dashoffset: 0; stroke: #b0b0b0; stroke-opacity: 0.6; stroke-width: 0.8"/>
     </g>
     <g id="frame0120_8f38dc_line2d_2">
      <defs>
       <path id="frame0120_8f38dc_mf7f609b3dd" d="M 0 0 
L 0 3.5 
" style="stroke: #000000; stroke-width: 0.8"/>
      </defs>
      <g>
       <use xlink:href="#frame0120_8f38dc_mf7f609b3dd" x="79.9" y="174.158125" style="stroke: #000000; stroke-width: 0.8"/>
      </g>
     </g>
     <g id="frame0120_8f38dc_text_1">
      <!-- −1 -->
      <g transform="translate(65.157813 196.355) scale(0.2 -0.2)">
       <defs>
        <path id="frame0120_8f38dc_DejaVuSans-2212" d="M 678 2272 
L 4684 2272 
L 4684 1741 
L 678 1741 
L 678 2272 
z
" transform="scale(0.015625)"/>
        <path id="frame0120_8f38dc_DejaVuSans-31" d="M 794 531 
L 1825 531 
L 1825 4091 
L 703 3866 
L 703 4441 
L 1819 4666 
L 2450 4666 
L 2450 531 
L 3481 531 
L 3481 0 
L 794 0 
L 794 531 
z
" transform="scale(0.015625)"/>
       </defs>
       <use xlink:href="#frame0120_8f38dc_DejaVuSans-2212"/>
       <use xlink:href="#frame0120_8f38dc_DejaVuSans-31" x="83.789062"/>
      </g>
     </g>
    </g>
    <g id="frame0120_8f38dc_xtick_2">
     <g id="frame0120_8f38dc_line2d_3">
      <path d="M 370.7 330.938125 
L 370.7 17.378125 
" clip-path="url(#frame0120_8f38dc_p20c4ffe755)" style="fill: none; stroke-dasharray: 2.96,1.28; stroke-dashoffset: 0; stroke: #b0b0b0; stroke-opacity: 0.6; stroke-width: 0.8"/>
     </g>
     <g id="frame0120_8f38dc_line2d_4">
      <g>
       <use xlink:href="#frame0120_8f38dc_mf7f609b3dd" x="370.7" y="174.158125" style="stroke: #000000; stroke-width: 0.8"/>
      </g>
     </g>
     <g id="frame0120_8f38dc_text_2">
      <!-- 1 -->
      <g transform="translate(364.3375 196.355) scale(0.2 -0.2)">
       <use xlink:href="#frame0120_8f38dc_DejaVuSans-31"/>
      </g>
     </g>
    </g>
    <g id="frame0120_8f38dc_text_3">
     <!-- $x$ -->
     <g transform="translate(431.4 219.71125) scale(0.2 -0.2)">
      <defs>
       <path id="frame0120_8f38dc_DejaVuSans-Oblique-78" d="M 3841 3500 
L 2234 1784 
L 3219 0 
L 2559 0 
L 1819 1388 
L 531 0 
L -166 0 
L 1556 1844 
L 641 3500 
L 1300 3500 
L 1972 2234 
L 3144 3500 
L 3841 3500 
z
" transform="scale(0.015625)"/>
      </defs>
      <use xlink:href="#frame0120_8f38dc_DejaVuSans-Oblique-78" transform="translate(0 0.3125)"/>
     </g>
    </g>
   </g>
   <g id="frame0120_8f38dc_matplotlib.axis_2">
    <g id="frame0120_8f38dc_ytick_1">
     <g id="frame0120_8f38dc_line2d_5">
      <path d="M 7.2 278.678125 
L 443.4 278.678125 
" clip-path="url(#frame0120_8f38dc_p20c4ffe755)" style="fill: none; stroke-dasharray: 2.96,1.28; stroke-dashoffset: 0; stroke: #b0b0b0; stroke-opacity: 0.6; stroke-width: 0.8"/>
     </g>
     <g id="frame0120_8f38dc_line2d_6">
      <defs>
       <path id="frame0120_8f38dc_m86d08654cd" d="M 0 0 
L -3.5 0 
" style="stroke: #000000; stroke-width: 0.8"/>
      </defs>
      <g>
       <use xlink:href="#frame0120_8f38dc_m86d08654cd" x="225.3" y="278.678125" style="stroke: #000000; stroke-width: 0.8"/>
      </g>
     </g>
     <g id="frame0120_8f38dc_text_4">
      <!-- −1 -->
      <g transform="translate(188.815625 286.276562) scale(0.2 -0.2)">
       <use xlink:href="#frame0120_8f38dc_DejaVuSans-2212"/>
       <use xlink:href="#frame0120_8f38dc_DejaVuSans-31" x="83.789062"/>
      </g>
     </g>
    </g>
    <g id="frame0120_8f38dc_ytick_2">
     <g id="frame0120_8f38dc_line2d_7">
      <path d="M 7.2 69.638125 
L 443.4 69.638125 
" clip-path="url(#frame0120_8f38dc_p20c4ffe755)" style="fill: none; stroke-dasharray: 2.96,1.28; stroke-dashoffset: 0; stroke: #b0b0b0; stroke-opacity: 0.6; stroke-width: 0.8"/>
     </g>
     <g id="frame0120_8f38dc_line2d_8">
      <g>
       <use xlink:href="#frame0120_8f38dc_m86d08654cd" x="225.3" y="69.638125" style="stroke: #000000; stroke-width: 0.8"/>
      </g>
     </g>
     <g id="frame0120_8f38dc_text_5">
      <!-- 1 -->
      <g transform="translate(205.575 77.236562) scale(0.2 -0.2)">
       <use xlink:href="#frame0120_8f38dc_DejaVuSans-31"/>
      </g>
     </g>
    </g>
    <g id="frame0120_8f38dc_text_6">
     <!-- $y$ -->
     <g transform="translate(172.815625 13.178125) scale(0.2 -0.2)">
      <defs>
       <path id="frame0120_8f38dc_DejaVuSans-Oblique-79" d="M 1588 -325 
Q 1188 -997 936 -1164 
Q 684 -1331 294 -1331 
L -159 -1331 
L -63 -850 
L 269 -850 
Q 509 -850 678 -719 
Q 847 -588 1056 -206 
L 1234 128 
L 459 3500 
L 1069 3500 
L 1650 819 
L 3256 3500 
L 3859 3500 
L 1588 -325 
z
" transform="scale(0.015625)"/>
      </defs>
      <use xlink:href="#frame0120_8f38dc_DejaVuSans-Oblique-79" transform="translate(0 0.3125)"/>
     </g>
    </g>
   </g>
   <g id="frame0120_8f38dc_line2d_9">
    <defs>
     <path id="frame0120_8f38dc_m052dd621f7" d="M 3 0 
L -3 -3 
L -3 3 
z
" style="stroke: #000000; stroke-linejoin: miter"/>
    </defs>
    <g>
     <use xlink:href="#frame0120_8f38dc_m052dd621f7" x="443.4" y="174.158125" style="stroke: #000000; stroke-linejoin: miter"/>
    </g>
   </g>
   <g id="frame0120_8f38dc_line2d_10">
    <defs>
     <path id="frame0120_8f38dc_m5333e59bf1" d="M 0 -3 
L -3 3 
L 3 3 
z
" style="stroke: #000000; stroke-linejoin: miter"/>
    </defs>
    <g>
     <use xlink:href="#frame0120_8f38dc_m5333e59bf1" x="225.3" y="17.378125" style="stroke: #000000; stroke-linejoin: miter"/>
    </g>
   </g>
   <g id="frame0120_8f38dc_line2d_11">
    <defs>
     <path id="frame0120_8f38dc_ma78f634c01" d="M 0 5 
C 1.326016 5 2.597899 4.473168 3.535534 3.535534 
C 4.473168 2.597899 5 1.326016 5 0 
C 5 -1.326016 4.473168 -2.597899 3.535534 -3.535534 
C 2.597899 -4.473168 1.326016 -5 0 -5 
C -1.326016 -5 -2.597899 -4.473168 -3.535534 -3.535534 
C -4.473168 -2.597899 -5 -1.326016 -5 0 
C -5 1.326016 -4.473168 2.597899 -3.535534 3.535534 
C -2.597899 4.473168 -1.326016 5 0 5 
z
" style="stroke: #000000; stroke-opacity: 0.8"/>
    </defs>
    <g clip-path="url(#frame0120_8f38dc_p20c4ffe755)">
     <use xlink:href="#frame0120_8f38dc_ma78f634c01" x="362.067475" y="209.635982" style="fill-opacity: 0.8; stroke: #000000; stroke-opacity: 0.8"/>
    </g>
   </g>
   <g id="frame0120_8f38dc_line2d_12">
    <path d="M 370.7 174.158125 
L 370.635299 171.040389 
L 370.441254 167.925428 
L 370.118037 164.816014 
L 369.665936 161.714914 
L 369.085353 158.624889 
L 368.376805 155.548687 
L 367.540923 152.489047 
L 366.578451 149.448693 
L 365.490244 146.430329 
L 364.277272 143.436641 
L 362.940615 140.470295 
L 361.481461 137.533931 
L 359.901109 134.630161 
L 358.200966 131.761569 
L 356.382545 128.93071 
L 354.447464 126.140101 
L 352.397445 123.392228 
L 350.234314 120.689534 
L 347.959994 118.034426 
L 345.57651 115.429267 
L 343.085983 112.876374 
L 340.490631 110.378021 
L 334.994777 105.553775 
L 329.108508 100.973698 
L 322.852775 96.654092 
L 316.249843 92.61033 
L 309.323211 88.856805 
L 302.097533 85.406875 
L 294.598524 82.272819 
L 286.852876 79.465793 
L 278.888155 76.995785 
L 270.732708 74.871588 
L 262.415562 73.10076 
L 253.966318 71.689606 
L 245.415048 70.643147 
L 236.792187 69.965108 
L 228.128423 69.657902 
L 219.454594 69.722623 
L 210.801568 70.159039 
L 202.200144 70.965598 
L 193.680934 72.13943 
L 185.27426 73.676356 
L 177.010041 75.570906 
L 168.917691 77.816337 
L 161.026011 80.404659 
L 153.363088 83.326657 
L 145.956196 86.571934 
L 138.831696 90.128939 
L 132.014945 93.985011 
L 125.530205 98.126428 
L 119.400554 102.538448 
L 113.647811 107.20537 
L 108.292448 112.110584 
L 105.769798 114.647125 
L 103.353526 117.23663 
L 101.045783 119.876793 
L 98.848624 122.565266 
L 96.764002 125.299654 
L 94.793774 128.077525 
L 92.939693 130.896407 
L 91.203408 133.75379 
L 89.586466 136.647132 
L 88.090306 139.573858 
L 86.716258 142.531363 
L 85.465546 145.517014 
L 84.339282 148.528156 
L 83.33847 151.562107 
L 82.463999 154.616169 
L 81.716649 157.687622 
L 81.097083 160.773733 
L 80.605855 163.871756 
L 80.2434 166.978934 
L 80.010041 170.092501 
L 79.905986 173.209686 
L 79.931328 176.327715 
L 80.086044 179.443814 
L 80.369997 182.555208 
L 80.782933 185.659129 
L 81.324485 188.752815 
L 81.994172 191.833512 
L 82.791397 194.898478 
L 83.71545 197.944986 
L 84.76551 200.970324 
L 85.940641 203.9718 
L 87.239799 206.946743 
L 88.661826 209.892505 
L 90.205457 212.806464 
L 91.869319 215.686027 
L 93.65193 218.528631 
L 95.551704 221.331747 
L 97.566951 224.09288 
L 99.695877 226.809573 
L 101.936587 229.479407 
L 104.287087 232.100006 
L 106.745285 234.669039 
L 109.308993 237.184219 
L 111.97593 239.643307 
L 117.609907 244.384507 
L 123.627163 248.875765 
L 130.006283 253.101095 
L 136.724562 257.04546 
L 143.75809 260.694821 
L 151.081833 264.036189 
L 158.669726 267.057673 
L 166.494762 269.748518 
L 174.529092 272.099147 
L 182.744121 274.101195 
L 191.11061 275.747536 
L 199.598782 277.032311 
L 208.178428 277.950946 
L 216.819011 278.500173 
L 225.489778 278.678036 
L 234.15987 278.483903 
L 242.798429 277.918464 
L 251.37471 276.983732 
L 259.858188 275.683034 
L 268.21867 274.020999 
L 276.4264 272.003542 
L 284.452166 269.637844 
L 292.267405 266.932325 
L 299.8443 263.896613 
L 307.155884 260.541513 
L 314.176135 256.878967 
L 320.880068 252.922008 
L 327.243822 248.684722 
L 333.244748 244.182188 
L 338.861488 239.430432 
L 341.519486 236.966348 
L 344.074052 234.446366 
L 346.522913 231.872729 
L 348.863888 229.247727 
L 351.094895 226.573698 
L 353.213948 223.85302 
L 355.219161 221.088115 
L 357.10875 218.281444 
L 358.881032 215.435504 
L 360.534431 212.552828 
L 362.067475 209.635982 
L 362.067475 209.635982 
" clip-path="url(#frame0120_8f38dc_p20c4ffe755)" style="fill: none; stroke: #0072b2; stroke-width: 2.5; stroke-linecap: square"/>
   </g>
   <g id="frame0120_8f38dc_patch_3">
    <path d="M 225.3 330.938125 
L 225.3 17.378125 
" style="fill: none; stroke: #000000; stroke-width: 0.8; stroke-linejoin: miter; stroke-linecap: square"/>
   </g>
   <g id="frame0120_8f38dc_patch_4">
    <path d="M 443.4 330.938125 
L 443.4 17.378125 
" style="fill: none"/>
   </g>
   <g id="frame0120_8f38dc_patch_5">
    <path d="M 7.2 174.158125 
L 443.4 174.158125 
" style="fill: none; stroke: #000000; stroke-width: 0.8; stroke-linejoin: miter; stroke-linecap: square"/>
   </g>
   <g id="frame0120_8f38dc_patch_6">
    <path d="M 7.2 17.378125 
L 443.4 17.378125 
" style="fill: none"/>
   </g>
  </g>
 </g>
 <defs>
  <clipPath id="frame0120_8f38dc_p20c4ffe755">
   <rect x="7.2" y="17.378125" width="436.2" height="313.56"/>
  </clipPath>
 </defs>
</svg>
