<?xml version="1.0" encoding="utf-8" standalone="no"?>
<!DOCTYPE svg PUBLIC "-//W3C//DTD SVG 1.1//EN"
  "http://www.w3.org/Graphics/SVG/1.1/DTD/svg11.dtd">
<svg xmlns:xlink="http://www.w3.org/1999/xlink" width="453.6pt" height="338.138125pt" viewBox="0 0 453.6 338.138125" xmlns="http://www.w3.org/2000/svg" version="1.1">
 <metadata>
  <rdf:RDF xmlns:dc="http://purl.org/dc/elements/1.1/" xmlns:cc="http://creativecommons.org/ns#" xmlns:rdf="http://www.w3.org/1999/02/22-rdf-syntax-ns#">
   <cc:Work>
    <dc:type rdf:resource="http://purl.org/dc/dcmitype/StillImage"/>
    <dc:date>2026-01-22T01:05:28.295732</dc:date>
    <dc:format>image/svg+xml</dc:format>
    <dc:creator>
     <cc:Agent>
      <dc:title>Matplotlib v3.9.1, https://matplotlib.org/</dc:title>
     </cc:Agent>
    </dc:creator>
   </cc:Work>
  </rdf:RDF>
 </metadata>
 <defs>
  <style type="text/css">*{stroke-linejoin: round; stroke-linecap: butt}</style>
 </defs>
 <g id="frame0070_0de4e4_figure_1">
  <g id="frame0070_0de4e4_patch_1">
   <path d="M 0 338.138125 
L 453.6 338.138125 
L 453.6 0 
L 0 0 
L 0 338.138125 
z
" style="fill: none; opacity: 0"/>
  </g>
  <g id="frame0070_0de4e4_axes_1">
   <g id="frame0070_0de4e4_patch_2">
    <path d="M 7.2 330.938125 
L 443.4 330.938125 
L 443.4 17.378125 
L 7.2 17.378125 
L 7.2 330.938125 
z
" style="fill: none; opacity: 0"/>
   </g>
   <g id="frame0070_0de4e4_matplotlib.axis_1">
    <g id="frame0070_0de4e4_xtick_1">
     <g id="frame0070_0de4e4_line2d_1">
      <path d="M 79.9 330.938125 
L 79.9 17.378125 
" clip-path="url(#frame0070_0de4e4_pad3a403bfa)" style="fill: none; stroke-dasharray: 2.96,1.28; stroke-dashoffset: 0; stroke: #b0b0b0; stroke-opacity: 0.6; stroke-width: 0.8"/>
     </g>
     <g id="frame0070_0de4e4_line2d_2">
      <defs>
       <path id="frame0070_0de4e4_mcd7d850eb2" d="M 0 0 
L 0 3.5 
" style="stroke: #000000; stroke-width: 0.8"/>
      </defs>
      <g>
       <use xlink:href="#frame0070_0de4e4_mcd7d850eb2" x="79.9" y="174.158125" style="stroke: #000000; stroke-width: 0.8"/>
      </g>
     </g>
     <g id="frame0070_0de4e4_text_1">
      <!-- −1 -->
      <g transform="translate(65.157813 196.355) scale(0.2 -0.2)">
       <defs>
        <path id="frame0070_0de4e4_DejaVuSans-2212" d="M 678 2272 
L 4684 2272 
L 4684 1741 
L 678 1741 
L 678 2272 
z
" transform="scale(0.015625)"/>
        <path id="frame0070_0de4e4_DejaVuSans-31" d="M 794 531 
L 1825 531 
L 1825 4091 
L 703 3866 
L 703 4441 
L 1819 4666 
L 2450 4666 
L 2450 531 
L 3481 531 
L 3481 0 
L 794 0 
L 794 531 
z
" transform="scale(0.015625)"/>
       </defs>
       <use xlink:href="#frame0070_0de4e4_DejaVuSans-2212"/>
       <use xlink:href="#frame0070_0de4e4_DejaVuSans-31" x="83.789062"/>
      </g>
     </g>
    </g>
    <g id="frame0070_0de4e4_xtick_2">
     <g id="frame0070_0de4e4_line2d_3">
      <path d="M 370.7 330.938125 
L 370.7 17.378125 
" clip-path="url(#frame0070_0de4e4_pad3a403bfa)" style="fill: none; stroke-dasharray: 2.96,1.28; stroke-dashoffset: 0; stroke: #b0b0b0; stroke-opacity: 0.6; stroke-width: 0.8"/>
     </g>
     <g id="frame0070_0de4e4_line2d_4">
      <g>
       <use xlink:href="#frame0070_0de4e4_mcd7d850eb2" x="370.7" y="174.158125" style="stroke: #000000; stroke-width: 0.8"/>
      </g>
     </g>
     <g id="frame0070_0de4e4_text_2">
      <!-- 1 -->
      <g transform="translate(364.3375 196.355) scale(0.2 -0.2)">
       <use xlink:href="#frame0070_0de4e4_DejaVuSans-31"/>
      </g>
     </g>
    </g>
    <g id="frame0070_0de4e4_text_3">
     <!-- $x$ -->
     <g transform="translate(431.4 219.71125) scale(0.2 -0.2)">
      <defs>
       <path id="frame0070_0de4e4_DejaVuSans-Oblique-78" d="M 3841 3500 
L 2234 1784 
L 3219 0 
L 2559 0 
L 1819 1388 
L 531 0 
L -166 0 
L 1556 1844 
L 641 3500 
L 1300 3500 
L 1972 2234 
L 3144 3500 
L 3841 3500 
z
" transform="scale(0.015625)"/>
      </defs>
      <use xlink:href="#frame0070_0de4e4_DejaVuSans-Oblique-78" transform="translate(0 0.3125)"/>
     </g>
    </g>
   </g>
   <g id="frame0070_0de4e4_matplotlib.axis_2">
    <g id="frame0070_0de4e4_ytick_1">
     <g id="frame0070_0de4e4_line2d_5">
      <path d="M 7.2 278.678125 
L 443.4 278.678125 
" clip-path="url(#frame0070_0de4e4_pad3a403bfa)" style="fill: none; stroke-dasharray: 2.96,1.28; stroke-dashoffset: 0; stroke: #b0b0b0; stroke-opacity: 0.6; stroke-width: 0.8"/>
     </g>
     <g id="frame0070_0de4e4_line2d_6">
      <defs>
       <path id="frame0070_0de4e4_m91913587a2" d="M 0 0 
L -3.5 0 
" style="stroke: #000000; stroke-width: 0.8"/>
      </defs>
      <g>
       <use xlink:href="#frame0070_0de4e4_m91913587a2" x="225.3" y="278.678125" style="stroke: #000000; stroke-width: 0.8"/>
      </g>
     </g>
     <g id="frame0070_0de4e4_text_4">
      <!-- −1 -->
      <g transform="translate(188.815625 286.276562) scale(0.2 -0.2)">
       <use xlink:href="#frame0070_0de4e4_DejaVuSans-2212"/>
       <use xlink:href="#frame0070_0de4e4_DejaVuSans-31" x="83.789062"/>
      </g>
     </g>
    </g>
    <g id="frame0070_0de4e4_ytick_2">
     <g id="frame0070_0de4e4_line2d_7">
      <path d="M 7.2 69.638125 
L 443.4 69.638125 
" clip-path="url(#frame0070_0de4e4_pad3a403bfa)" style="fill: none; stroke-dasharray: 2.96,1.28; stroke-dashoffset: 0; stroke: #b0b0b0; stroke-opacity: 0.6; stroke-width: 0.8"/>
     </g>
     <g id="frame0070_0de4e4_line2d_8">
      <g>
       <use xlink:href="#frame0070_0de4e4_m91913587a2" x="225.3" y="69.638125" style="stroke: #000000; stroke-width: 0.8"/>
      </g>
     </g>
     <g id="frame0070_0de4e4_text_5">
      <!-- 1 -->
      <g transform="translate(205.575 77.236562) scale(0.2 -0.2)">
       <use xlink:href="#frame0070_0de4e4_DejaVuSans-31"/>
      </g>
     </g>
    </g>
    <g id="frame0070_0de4e4_text_6">
     <!-- $y$ -->
     <g transform="translate(172.815625 13.178125) scale(0.2 -0.2)">
      <defs>
       <path id="frame0070_0de4e4_DejaVuSans-Oblique-79" d="M 1588 -325 
Q 1188 -997 936 -1164 
Q 684 -1331 294 -1331 
L -159 -1331 
L -63 -850 
L 269 -850 
Q 509 -850 678 -719 
Q 847 -588 1056 -206 
L 1234 128 
L 459 3500 
L 1069 3500 
L 1650 819 
L 3256 3500 
L 3859 3500 
L 1588 -325 
z
" transform="scale(0.015625)"/>
      </defs>
      <use xlink:href="#frame0070_0de4e4_DejaVuSans-Oblique-79" transform="translate(0 0.3125)"/>
     </g>
    </g>
   </g>
   <g id="frame0070_0de4e4_line2d_9">
    <defs>
     <path id="frame0070_0de4e4_maad640ada4" d="M 3 0 
L -3 -3 
L -3 3 
z
" style="stroke: #000000; stroke-linejoin: miter"/>
    </defs>
    <g>
     <use xlink:href="#frame0070_0de4e4_maad640ada4" x="443.4" y="174.158125" style="stroke: #000000; stroke-linejoin: miter"/>
    </g>
   </g>
   <g id="frame0070_0de4e4_line2d_10">
    <defs>
     <path id="frame0070_0de4e4_m242d67b313" d="M 0 -3 
L -3 3 
L 3 3 
z
" style="stroke: #000000; stroke-linejoin: miter"/>
    </defs>
    <g>
     <use xlink:href="#frame0070_0de4e4_m242d67b313" x="225.3" y="17.378125" style="stroke: #000000; stroke-linejoin: miter"/>
    </g>
   </g>
   <g id="frame0070_0de4e4_line2d_11">
    <defs>
     <path id="frame0070_0de4e4_m5ee18ede03" d="M 0 5 
C 1.326016 5 2.597899 4.473168 3.535534 3.535534 
C 4.473168 2.597899 5 1.326016 5 0 
C 5 -1.326016 4.473168 -2.597899 3.535534 -3.535534 
C 2.597899 -4.473168 1.326016 -5 0 -5 
C -1.326016 -5 -2.597899 -4.473168 -3.535534 -3.535534 
C -4.473168 -2.597899 -5 -1.326016 -5 0 
C -5 1.326016 -4.473168 2.597899 -3.535534 3.535534 
C -2.597899 4.473168 -1.326016 5 0 5 
z
" style="stroke: #000000; stroke-opacity: 0.8"/>
    </defs>
    <g clip-path="url(#frame0070_0de4e4_pad3a403bfa)">
     <use xlink:href="#frame0070_0de4e4_m5ee18ede03" x="87.353625" y="207.193374" style="fill-opacity: 0.8; stroke: #000000; stroke-opacity: 0.8"/>
    </g>
   </g>
   <g id="frame0070_0de4e4_line2d_12">
    <path d="M 370.7 174.158125 
L 370.611937 170.520962 
L 370.347855 166.888204 
L 369.908074 163.264252 
L 369.293127 159.653497 
L 368.503758 156.060311 
L 367.540923 152.489047 
L 366.40579 148.944032 
L 365.099732 145.429559 
L 363.624333 141.949885 
L 361.981378 138.509226 
L 360.172859 135.111749 
L 358.200966 131.761569 
L 356.068088 128.462746 
L 353.776807 125.219274 
L 351.329901 122.035082 
L 348.730332 118.914028 
L 345.981249 115.859892 
L 343.085983 112.876374 
L 340.048041 109.967088 
L 336.871102 107.135557 
L 333.559016 104.385213 
L 328.346302 100.419178 
L 322.852775 96.654092 
L 317.093405 93.100213 
L 311.083887 89.767228 
L 304.840596 86.664218 
L 298.380548 83.799639 
L 291.721347 81.181298 
L 284.881139 78.816331 
L 277.878565 76.711182 
L 270.732708 74.871588 
L 263.463041 73.302561 
L 256.089376 72.008379 
L 248.631805 70.992567 
L 241.110653 70.257894 
L 233.546415 69.806362 
L 225.959704 69.639201 
L 218.371195 69.756867 
L 210.801568 70.159039 
L 203.271451 70.844622 
L 195.801365 71.811746 
L 188.411666 73.057778 
L 181.122492 74.579319 
L 173.953708 76.372226 
L 166.924848 78.431611 
L 160.055068 80.751862 
L 153.363088 83.326657 
L 146.867146 86.148979 
L 140.584942 89.211137 
L 134.533597 92.504786 
L 128.729602 96.02095 
L 123.188773 99.750047 
L 117.92621 103.681916 
L 112.956254 107.805841 
L 109.812231 110.656293 
L 106.808101 113.583666 
L 103.947502 116.584414 
L 101.233899 119.654902 
L 98.670581 122.791411 
L 96.26065 125.990141 
L 94.007028 129.247218 
L 91.912443 132.558697 
L 89.979433 135.920566 
L 88.210339 139.328752 
L 86.607305 142.779128 
L 85.172272 146.267514 
L 83.906977 149.789685 
L 82.812955 153.341373 
L 81.89153 156.918277 
L 81.143819 160.516064 
L 80.570726 164.130376 
L 80.172947 167.756835 
L 79.950963 171.391047 
L 79.905043 175.028612 
L 80.035242 178.665122 
L 80.341404 182.296173 
L 80.823156 185.917366 
L 81.479916 189.524314 
L 82.310888 193.11265 
L 83.315065 196.678025 
L 84.491231 200.216122 
L 85.837961 203.722654 
L 87.353625 207.193374 
L 87.353625 207.193374 
" clip-path="url(#frame0070_0de4e4_pad3a403bfa)" style="fill: none; stroke: #0072b2; stroke-width: 2.5; stroke-linecap: square"/>
   </g>
   <g id="frame0070_0de4e4_patch_3">
    <path d="M 225.3 330.938125 
L 225.3 17.378125 
" style="fill: none; stroke: #000000; stroke-width: 0.8; stroke-linejoin: miter; stroke-linecap: square"/>
   </g>
   <g id="frame0070_0de4e4_patch_4">
    <path d="M 443.4 330.938125 
L 443.4 17.378125 
" style="fill: none"/>
   </g>
   <g id="frame0070_0de4e4_patch_5">
    <path d="M 7.2 174.158125 
L 443.4 174.158125 
" style="fill: none; stroke: #000000; stroke-width: 0.8; stroke-linejoin: miter; stroke-linecap: square"/>
   </g>
   <g id="frame0070_0de4e4_patch_6">
    <path d="M 7.2 17.378125 
L 443.4 17.378125 
" style="fill: none"/>
   </g>
  </g>
 </g>
 <defs>
  <clipPath id="frame0070_0de4e4_pad3a403bfa">
   <rect x="7.2" y="17.378125" width="436.2" height="313.56"/>
  </clipPath>
 </defs>
</svg>
