<?xml version="1.0" encoding="utf-8" standalone="no"?>
<!DOCTYPE svg PUBLIC "-//W3C//DTD SVG 1.1//EN"
  "http://www.w3.org/Graphics/SVG/1.1/DTD/svg11.dtd">
<svg xmlns:xlink="http://www.w3.org/1999/xlink" width="453.6pt" height="338.138125pt" viewBox="0 0 453.6 338.138125" xmlns="http://www.w3.org/2000/svg" version="1.1">
 <metadata>
  <rdf:RDF xmlns:dc="http://purl.org/dc/elements/1.1/" xmlns:cc="http://creativecommons.org/ns#" xmlns:rdf="http://www.w3.org/1999/02/22-rdf-syntax-ns#">
   <cc:Work>
    <dc:type rdf:resource="http://purl.org/dc/dcmitype/StillImage"/>
    <dc:date>2026-01-22T01:05:32.115213</dc:date>
    <dc:format>image/svg+xml</dc:format>
    <dc:creator>
     <cc:Agent>
      <dc:title>Matplotlib v3.9.1, https://matplotlib.org/</dc:title>
     </cc:Agent>
    </dc:creator>
   </cc:Work>
  </rdf:RDF>
 </metadata>
 <defs>
  <style type="text/css">*{stroke-linejoin: round; stroke-linecap: butt}</style>
 </defs>
 <g id="frame0117_99cef2_figure_1">
  <g id="frame0117_99cef2_patch_1">
   <path d="M 0 338.138125 
L 453.6 338.138125 
L 453.6 0 
L 0 0 
L 0 338.138125 
z
" style="fill: none; opacity: 0"/>
  </g>
  <g id="frame0117_99cef2_axes_1">
   <g id="frame0117_99cef2_patch_2">
    <path d="M 7.2 330.938125 
L 443.4 330.938125 
L 443.4 17.378125 
L 7.2 17.378125 
L 7.2 330.938125 
z
" style="fill: none; opacity: 0"/>
   </g>
   <g id="frame0117_99cef2_matplotlib.axis_1">
    <g id="frame0117_99cef2_xtick_1">
     <g id="frame0117_99cef2_line2d_1">
      <path d="M 79.9 330.938125 
L 79.9 17.378125 
" clip-path="url(#frame0117_99cef2_p2745261e2f)" style="fill: none; stroke-dasharray: 2.96,1.28; stroke-dashoffset: 0; stroke: #b0b0b0; stroke-opacity: 0.6; stroke-width: 0.8"/>
     </g>
     <g id="frame0117_99cef2_line2d_2">
      <defs>
       <path id="frame0117_99cef2_m796bba44c3" d="M 0 0 
L 0 3.5 
" style="stroke: #000000; stroke-width: 0.8"/>
      </defs>
      <g>
       <use xlink:href="#frame0117_99cef2_m796bba44c3" x="79.9" y="174.158125" style="stroke: #000000; stroke-width: 0.8"/>
      </g>
     </g>
     <g id="frame0117_99cef2_text_1">
      <!-- −1 -->
      <g transform="translate(65.157813 196.355) scale(0.2 -0.2)">
       <defs>
        <path id="frame0117_99cef2_DejaVuSans-2212" d="M 678 2272 
L 4684 2272 
L 4684 1741 
L 678 1741 
L 678 2272 
z
" transform="scale(0.015625)"/>
        <path id="frame0117_99cef2_DejaVuSans-31" d="M 794 531 
L 1825 531 
L 1825 4091 
L 703 3866 
L 703 4441 
L 1819 4666 
L 2450 4666 
L 2450 531 
L 3481 531 
L 3481 0 
L 794 0 
L 794 531 
z
" transform="scale(0.015625)"/>
       </defs>
       <use xlink:href="#frame0117_99cef2_DejaVuSans-2212"/>
       <use xlink:href="#frame0117_99cef2_DejaVuSans-31" x="83.789062"/>
      </g>
     </g>
    </g>
    <g id="frame0117_99cef2_xtick_2">
     <g id="frame0117_99cef2_line2d_3">
      <path d="M 370.7 330.938125 
L 370.7 17.378125 
" clip-path="url(#frame0117_99cef2_p2745261e2f)" style="fill: none; stroke-dasharray: 2.96,1.28; stroke-dashoffset: 0; stroke: #b0b0b0; stroke-opacity: 0.6; stroke-width: 0.8"/>
     </g>
     <g id="frame0117_99cef2_line2d_4">
      <g>
       <use xlink:href="#frame0117_99cef2_m796bba44c3" x="370.7" y="174.158125" style="stroke: #000000; stroke-width: 0.8"/>
      </g>
     </g>
     <g id="frame0117_99cef2_text_2">
      <!-- 1 -->
      <g transform="translate(364.3375 196.355) scale(0.2 -0.2)">
       <use xlink:href="#frame0117_99cef2_DejaVuSans-31"/>
      </g>
     </g>
    </g>
    <g id="frame0117_99cef2_text_3">
     <!-- $x$ -->
     <g transform="translate(431.4 219.71125) scale(0.2 -0.2)">
      <defs>
       <path id="frame0117_99cef2_DejaVuSans-Oblique-78" d="M 3841 3500 
L 2234 1784 
L 3219 0 
L 2559 0 
L 1819 1388 
L 531 0 
L -166 0 
L 1556 1844 
L 641 3500 
L 1300 3500 
L 1972 2234 
L 3144 3500 
L 3841 3500 
z
" transform="scale(0.015625)"/>
      </defs>
      <use xlink:href="#frame0117_99cef2_DejaVuSans-Oblique-78" transform="translate(0 0.3125)"/>
     </g>
    </g>
   </g>
   <g id="frame0117_99cef2_matplotlib.axis_2">
    <g id="frame0117_99cef2_ytick_1">
     <g id="frame0117_99cef2_line2d_5">
      <path d="M 7.2 278.678125 
L 443.4 278.678125 
" clip-path="url(#frame0117_99cef2_p2745261e2f)" style="fill: none; stroke-dasharray: 2.96,1.28; stroke-dashoffset: 0; stroke: #b0b0b0; stroke-opacity: 0.6; stroke-width: 0.8"/>
     </g>
     <g id="frame0117_99cef2_line2d_6">
      <defs>
       <path id="frame0117_99cef2_mec4c5da01b" d="M 0 0 
L -3.5 0 
" style="stroke: #000000; stroke-width: 0.8"/>
      </defs>
      <g>
       <use xlink:href="#frame0117_99cef2_mec4c5da01b" x="225.3" y="278.678125" style="stroke: #000000; stroke-width: 0.8"/>
      </g>
     </g>
     <g id="frame0117_99cef2_text_4">
      <!-- −1 -->
      <g transform="translate(188.815625 286.276562) scale(0.2 -0.2)">
       <use xlink:href="#frame0117_99cef2_DejaVuSans-2212"/>
       <use xlink:href="#frame0117_99cef2_DejaVuSans-31" x="83.789062"/>
      </g>
     </g>
    </g>
    <g id="frame0117_99cef2_ytick_2">
     <g id="frame0117_99cef2_line2d_7">
      <path d="M 7.2 69.638125 
L 443.4 69.638125 
" clip-path="url(#frame0117_99cef2_p2745261e2f)" style="fill: none; stroke-dasharray: 2.96,1.28; stroke-dashoffset: 0; stroke: #b0b0b0; stroke-opacity: 0.6; stroke-width: 0.8"/>
     </g>
     <g id="frame0117_99cef2_line2d_8">
      <g>
       <use xlink:href="#frame0117_99cef2_mec4c5da01b" x="225.3" y="69.638125" style="stroke: #000000; stroke-width: 0.8"/>
      </g>
     </g>
     <g id="frame0117_99cef2_text_5">
      <!-- 1 -->
      <g transform="translate(205.575 77.236562) scale(0.2 -0.2)">
       <use xlink:href="#frame0117_99cef2_DejaVuSans-31"/>
      </g>
     </g>
    </g>
    <g id="frame0117_99cef2_text_6">
     <!-- $y$ -->
     <g transform="translate(172.815625 13.178125) scale(0.2 -0.2)">
      <defs>
       <path id="frame0117_99cef2_DejaVuSans-Oblique-79" d="M 1588 -325 
Q 1188 -997 936 -1164 
Q 684 -1331 294 -1331 
L -159 -1331 
L -63 -850 
L 269 -850 
Q 509 -850 678 -719 
Q 847 -588 1056 -206 
L 1234 128 
L 459 3500 
L 1069 3500 
L 1650 819 
L 3256 3500 
L 3859 3500 
L 1588 -325 
z
" transform="scale(0.015625)"/>
      </defs>
      <use xlink:href="#frame0117_99cef2_DejaVuSans-Oblique-79" transform="translate(0 0.3125)"/>
     </g>
    </g>
   </g>
   <g id="frame0117_99cef2_line2d_9">
    <defs>
     <path id="frame0117_99cef2_m523df2854c" d="M 3 0 
L -3 -3 
L -3 3 
z
" style="stroke: #000000; stroke-linejoin: miter"/>
    </defs>
    <g>
     <use xlink:href="#frame0117_99cef2_m523df2854c" x="443.4" y="174.158125" style="stroke: #000000; stroke-linejoin: miter"/>
    </g>
   </g>
   <g id="frame0117_99cef2_line2d_10">
    <defs>
     <path id="frame0117_99cef2_ma051950004" d="M 0 -3 
L -3 3 
L 3 3 
z
" style="stroke: #000000; stroke-linejoin: miter"/>
    </defs>
    <g>
     <use xlink:href="#frame0117_99cef2_ma051950004" x="225.3" y="17.378125" style="stroke: #000000; stroke-linejoin: miter"/>
    </g>
   </g>
   <g id="frame0117_99cef2_line2d_11">
    <defs>
     <path id="frame0117_99cef2_m901896a8de" d="M 0 5 
C 1.326016 5 2.597899 4.473168 3.535534 3.535534 
C 4.473168 2.597899 5 1.326016 5 0 
C 5 -1.326016 4.473168 -2.597899 3.535534 -3.535534 
C 2.597899 -4.473168 1.326016 -5 0 -5 
C -1.326016 -5 -2.597899 -4.473168 -3.535534 -3.535534 
C -4.473168 -2.597899 -5 -1.326016 -5 0 
C -5 1.326016 -4.473168 2.597899 -3.535534 3.535534 
C -2.597899 4.473168 -1.326016 5 0 5 
z
" style="stroke: #000000; stroke-opacity: 0.8"/>
    </defs>
    <g clip-path="url(#frame0117_99cef2_p2745261e2f)">
     <use xlink:href="#frame0117_99cef2_m901896a8de" x="353.265473" y="223.784426" style="fill-opacity: 0.8; stroke: #000000; stroke-opacity: 0.8"/>
    </g>
   </g>
   <g id="frame0117_99cef2_line2d_12">
    <path d="M 370.7 174.158125 
L 370.638493 171.11831 
L 370.454026 168.081068 
L 370.146753 165.048966 
L 369.716935 162.024572 
L 369.164936 159.010442 
L 368.491222 156.009128 
L 367.696363 153.023169 
L 366.781033 150.055091 
L 365.746005 147.107404 
L 364.592155 144.182604 
L 363.320459 141.283163 
L 361.931994 138.411536 
L 360.427933 135.570152 
L 358.80955 132.761414 
L 357.078213 129.9877 
L 355.235388 127.251355 
L 353.282632 124.554694 
L 351.2216 121.9 
L 346.781767 116.725457 
L 341.930911 111.745232 
L 336.685444 106.976176 
L 331.063113 102.434424 
L 325.082942 98.135344 
L 318.765164 94.09348 
L 312.131155 90.322508 
L 305.203359 86.835187 
L 298.005217 83.643315 
L 290.561084 80.757693 
L 282.896145 78.188084 
L 275.036334 75.94318 
L 267.008244 74.030579 
L 258.839038 72.456751 
L 250.556356 71.227022 
L 242.188221 70.34555 
L 233.762946 69.81532 
L 225.309037 69.638125 
L 216.855098 69.814565 
L 208.429731 70.344042 
L 200.061444 71.224765 
L 191.778549 72.453755 
L 183.609071 74.026853 
L 175.58065 75.938737 
L 167.720452 78.182938 
L 160.055068 80.751862 
L 152.610435 83.636819 
L 145.411742 86.828047 
L 138.483343 90.314749 
L 131.848682 94.085129 
L 125.530205 98.126428 
L 119.54929 102.424974 
L 113.926175 106.966223 
L 108.679883 111.734811 
L 103.828166 116.714602 
L 99.387438 121.888749 
L 97.325946 124.543259 
L 95.372725 127.239745 
L 93.529426 129.975925 
L 91.79761 132.749485 
L 90.178741 135.558078 
L 88.674189 138.399327 
L 87.285227 141.27083 
L 86.01303 144.170157 
L 84.858674 147.094855 
L 83.823136 150.042449 
L 82.907293 153.010445 
L 82.111918 155.996333 
L 81.437685 158.997587 
L 80.885164 162.011667 
L 80.454823 165.036023 
L 80.147026 168.068097 
L 79.962033 171.105323 
L 79.900001 174.145133 
L 79.960982 177.184953 
L 80.144925 180.222212 
L 80.451673 183.254341 
L 80.880968 186.278774 
L 81.432446 189.292952 
L 82.105641 192.294326 
L 82.899983 195.280357 
L 83.8148 198.248517 
L 84.849318 201.196296 
L 86.002662 204.121199 
L 87.273857 207.020753 
L 88.661826 209.892505 
L 90.165395 212.734023 
L 91.783293 215.542905 
L 93.51415 218.316775 
L 95.356502 221.053284 
L 97.308791 223.750119 
L 99.369364 226.404997 
L 103.808302 231.579937 
L 108.658297 236.560596 
L 113.90294 241.330121 
L 119.524485 245.872375 
L 125.503912 250.17199 
L 131.820991 254.214418 
L 138.454349 257.985983 
L 145.381541 261.473923 
L 152.579131 264.666437 
L 160.022766 267.552725 
L 167.68726 270.123019 
L 175.546683 272.368624 
L 183.574442 274.281943 
L 191.743375 275.856501 
L 200.025845 277.086971 
L 208.393828 277.96919 
L 216.819011 278.500173 
L 225.272889 278.678123 
L 233.726858 278.502439 
L 242.152317 277.973715 
L 250.520756 277.093739 
L 258.803864 275.865489 
L 266.973614 274.293121 
L 275.002365 272.381955 
L 282.862952 270.138457 
L 290.528779 267.570217 
L 297.973911 264.685925 
L 305.173156 261.49534 
L 312.102158 258.009258 
L 318.737471 254.239471 
L 325.056647 250.198737 
L 331.038304 245.900725 
L 336.662205 241.359978 
L 341.909322 236.59186 
L 346.7619 231.612502 
L 351.203522 226.438752 
L 353.265473 223.784426 
L 353.265473 223.784426 
" clip-path="url(#frame0117_99cef2_p2745261e2f)" style="fill: none; stroke: #0072b2; stroke-width: 2.5; stroke-linecap: square"/>
   </g>
   <g id="frame0117_99cef2_patch_3">
    <path d="M 225.3 330.938125 
L 225.3 17.378125 
" style="fill: none; stroke: #000000; stroke-width: 0.8; stroke-linejoin: miter; stroke-linecap: square"/>
   </g>
   <g id="frame0117_99cef2_patch_4">
    <path d="M 443.4 330.938125 
L 443.4 17.378125 
" style="fill: none"/>
   </g>
   <g id="frame0117_99cef2_patch_5">
    <path d="M 7.2 174.158125 
L 443.4 174.158125 
" style="fill: none; stroke: #000000; stroke-width: 0.8; stroke-linejoin: miter; stroke-linecap: square"/>
   </g>
   <g id="frame0117_99cef2_patch_6">
    <path d="M 7.2 17.378125 
L 443.4 17.378125 
" style="fill: none"/>
   </g>
  </g>
 </g>
 <defs>
  <clipPath id="frame0117_99cef2_p2745261e2f">
   <rect x="7.2" y="17.378125" width="436.2" height="313.56"/>
  </clipPath>
 </defs>
</svg>
