<?xml version="1.0" encoding="utf-8" standalone="no"?>
<!DOCTYPE svg PUBLIC "-//W3C//DTD SVG 1.1//EN"
  "http://www.w3.org/Graphics/SVG/1.1/DTD/svg11.dtd">
<svg xmlns:xlink="http://www.w3.org/1999/xlink" width="453.6pt" height="338.138125pt" viewBox="0 0 453.6 338.138125" xmlns="http://www.w3.org/2000/svg" version="1.1">
 <metadata>
  <rdf:RDF xmlns:dc="http://purl.org/dc/elements/1.1/" xmlns:cc="http://creativecommons.org/ns#" xmlns:rdf="http://www.w3.org/1999/02/22-rdf-syntax-ns#">
   <cc:Work>
    <dc:type rdf:resource="http://purl.org/dc/dcmitype/StillImage"/>
    <dc:date>2026-01-22T01:05:26.833659</dc:date>
    <dc:format>image/svg+xml</dc:format>
    <dc:creator>
     <cc:Agent>
      <dc:title>Matplotlib v3.9.1, https://matplotlib.org/</dc:title>
     </cc:Agent>
    </dc:creator>
   </cc:Work>
  </rdf:RDF>
 </metadata>
 <defs>
  <style type="text/css">*{stroke-linejoin: round; stroke-linecap: butt}</style>
 </defs>
 <g id="frame0053_032f78_figure_1">
  <g id="frame0053_032f78_patch_1">
   <path d="M 0 338.138125 
L 453.6 338.138125 
L 453.6 0 
L 0 0 
L 0 338.138125 
z
" style="fill: none; opacity: 0"/>
  </g>
  <g id="frame0053_032f78_axes_1">
   <g id="frame0053_032f78_patch_2">
    <path d="M 7.2 330.938125 
L 443.4 330.938125 
L 443.4 17.378125 
L 7.2 17.378125 
L 7.2 330.938125 
z
" style="fill: none; opacity: 0"/>
   </g>
   <g id="frame0053_032f78_matplotlib.axis_1">
    <g id="frame0053_032f78_xtick_1">
     <g id="frame0053_032f78_line2d_1">
      <path d="M 79.9 330.938125 
L 79.9 17.378125 
" clip-path="url(#frame0053_032f78_p0b9ae3ac6d)" style="fill: none; stroke-dasharray: 2.96,1.28; stroke-dashoffset: 0; stroke: #b0b0b0; stroke-opacity: 0.6; stroke-width: 0.8"/>
     </g>
     <g id="frame0053_032f78_line2d_2">
      <defs>
       <path id="frame0053_032f78_m4f14f09f86" d="M 0 0 
L 0 3.5 
" style="stroke: #000000; stroke-width: 0.8"/>
      </defs>
      <g>
       <use xlink:href="#frame0053_032f78_m4f14f09f86" x="79.9" y="174.158125" style="stroke: #000000; stroke-width: 0.8"/>
      </g>
     </g>
     <g id="frame0053_032f78_text_1">
      <!-- −1 -->
      <g transform="translate(65.157813 196.355) scale(0.2 -0.2)">
       <defs>
        <path id="frame0053_032f78_DejaVuSans-2212" d="M 678 2272 
L 4684 2272 
L 4684 1741 
L 678 1741 
L 678 2272 
z
" transform="scale(0.015625)"/>
        <path id="frame0053_032f78_DejaVuSans-31" d="M 794 531 
L 1825 531 
L 1825 4091 
L 703 3866 
L 703 4441 
L 1819 4666 
L 2450 4666 
L 2450 531 
L 3481 531 
L 3481 0 
L 794 0 
L 794 531 
z
" transform="scale(0.015625)"/>
       </defs>
       <use xlink:href="#frame0053_032f78_DejaVuSans-2212"/>
       <use xlink:href="#frame0053_032f78_DejaVuSans-31" x="83.789062"/>
      </g>
     </g>
    </g>
    <g id="frame0053_032f78_xtick_2">
     <g id="frame0053_032f78_line2d_3">
      <path d="M 370.7 330.938125 
L 370.7 17.378125 
" clip-path="url(#frame0053_032f78_p0b9ae3ac6d)" style="fill: none; stroke-dasharray: 2.96,1.28; stroke-dashoffset: 0; stroke: #b0b0b0; stroke-opacity: 0.6; stroke-width: 0.8"/>
     </g>
     <g id="frame0053_032f78_line2d_4">
      <g>
       <use xlink:href="#frame0053_032f78_m4f14f09f86" x="370.7" y="174.158125" style="stroke: #000000; stroke-width: 0.8"/>
      </g>
     </g>
     <g id="frame0053_032f78_text_2">
      <!-- 1 -->
      <g transform="translate(364.3375 196.355) scale(0.2 -0.2)">
       <use xlink:href="#frame0053_032f78_DejaVuSans-31"/>
      </g>
     </g>
    </g>
    <g id="frame0053_032f78_text_3">
     <!-- $x$ -->
     <g transform="translate(431.4 219.71125) scale(0.2 -0.2)">
      <defs>
       <path id="frame0053_032f78_DejaVuSans-Oblique-78" d="M 3841 3500 
L 2234 1784 
L 3219 0 
L 2559 0 
L 1819 1388 
L 531 0 
L -166 0 
L 1556 1844 
L 641 3500 
L 1300 3500 
L 1972 2234 
L 3144 3500 
L 3841 3500 
z
" transform="scale(0.015625)"/>
      </defs>
      <use xlink:href="#frame0053_032f78_DejaVuSans-Oblique-78" transform="translate(0 0.3125)"/>
     </g>
    </g>
   </g>
   <g id="frame0053_032f78_matplotlib.axis_2">
    <g id="frame0053_032f78_ytick_1">
     <g id="frame0053_032f78_line2d_5">
      <path d="M 7.2 278.678125 
L 443.4 278.678125 
" clip-path="url(#frame0053_032f78_p0b9ae3ac6d)" style="fill: none; stroke-dasharray: 2.96,1.28; stroke-dashoffset: 0; stroke: #b0b0b0; stroke-opacity: 0.6; stroke-width: 0.8"/>
     </g>
     <g id="frame0053_032f78_line2d_6">
      <defs>
       <path id="frame0053_032f78_m2c9e5c1165" d="M 0 0 
L -3.5 0 
" style="stroke: #000000; stroke-width: 0.8"/>
      </defs>
      <g>
       <use xlink:href="#frame0053_032f78_m2c9e5c1165" x="225.3" y="278.678125" style="stroke: #000000; stroke-width: 0.8"/>
      </g>
     </g>
     <g id="frame0053_032f78_text_4">
      <!-- −1 -->
      <g transform="translate(188.815625 286.276562) scale(0.2 -0.2)">
       <use xlink:href="#frame0053_032f78_DejaVuSans-2212"/>
       <use xlink:href="#frame0053_032f78_DejaVuSans-31" x="83.789062"/>
      </g>
     </g>
    </g>
    <g id="frame0053_032f78_ytick_2">
     <g id="frame0053_032f78_line2d_7">
      <path d="M 7.2 69.638125 
L 443.4 69.638125 
" clip-path="url(#frame0053_032f78_p0b9ae3ac6d)" style="fill: none; stroke-dasharray: 2.96,1.28; stroke-dashoffset: 0; stroke: #b0b0b0; stroke-opacity: 0.6; stroke-width: 0.8"/>
     </g>
     <g id="frame0053_032f78_line2d_8">
      <g>
       <use xlink:href="#frame0053_032f78_m2c9e5c1165" x="225.3" y="69.638125" style="stroke: #000000; stroke-width: 0.8"/>
      </g>
     </g>
     <g id="frame0053_032f78_text_5">
      <!-- 1 -->
      <g transform="translate(205.575 77.236562) scale(0.2 -0.2)">
       <use xlink:href="#frame0053_032f78_DejaVuSans-31"/>
      </g>
     </g>
    </g>
    <g id="frame0053_032f78_text_6">
     <!-- $y$ -->
     <g transform="translate(172.815625 13.178125) scale(0.2 -0.2)">
      <defs>
       <path id="frame0053_032f78_DejaVuSans-Oblique-79" d="M 1588 -325 
Q 1188 -997 936 -1164 
Q 684 -1331 294 -1331 
L -159 -1331 
L -63 -850 
L 269 -850 
Q 509 -850 678 -719 
Q 847 -588 1056 -206 
L 1234 128 
L 459 3500 
L 1069 3500 
L 1650 819 
L 3256 3500 
L 3859 3500 
L 1588 -325 
z
" transform="scale(0.015625)"/>
      </defs>
      <use xlink:href="#frame0053_032f78_DejaVuSans-Oblique-79" transform="translate(0 0.3125)"/>
     </g>
    </g>
   </g>
   <g id="frame0053_032f78_line2d_9">
    <defs>
     <path id="frame0053_032f78_mc4cea4b213" d="M 3 0 
L -3 -3 
L -3 3 
z
" style="stroke: #000000; stroke-linejoin: miter"/>
    </defs>
    <g>
     <use xlink:href="#frame0053_032f78_mc4cea4b213" x="443.4" y="174.158125" style="stroke: #000000; stroke-linejoin: miter"/>
    </g>
   </g>
   <g id="frame0053_032f78_line2d_10">
    <defs>
     <path id="frame0053_032f78_m53336448b1" d="M 0 -3 
L -3 3 
L 3 3 
z
" style="stroke: #000000; stroke-linejoin: miter"/>
    </defs>
    <g>
     <use xlink:href="#frame0053_032f78_m53336448b1" x="225.3" y="17.378125" style="stroke: #000000; stroke-linejoin: miter"/>
    </g>
   </g>
   <g id="frame0053_032f78_line2d_11">
    <defs>
     <path id="frame0053_032f78_m885939e9cb" d="M 0 5 
C 1.326016 5 2.597899 4.473168 3.535534 3.535534 
C 4.473168 2.597899 5 1.326016 5 0 
C 5 -1.326016 4.473168 -2.597899 3.535534 -3.535534 
C 2.597899 -4.473168 1.326016 -5 0 -5 
C -1.326016 -5 -2.597899 -4.473168 -3.535534 -3.535534 
C -4.473168 -2.597899 -5 -1.326016 -5 0 
C -5 1.326016 -4.473168 2.597899 -3.535534 3.535534 
C -2.597899 4.473168 -1.326016 5 0 5 
z
" style="stroke: #000000; stroke-opacity: 0.8"/>
    </defs>
    <g clip-path="url(#frame0053_032f78_p0b9ae3ac6d)">
     <use xlink:href="#frame0053_032f78_m885939e9cb" x="99.081248" y="122.271754" style="fill-opacity: 0.8; stroke: #000000; stroke-opacity: 0.8"/>
    </g>
   </g>
   <g id="frame0053_032f78_line2d_12">
    <path d="M 370.7 174.158125 
L 370.586416 170.027588 
L 370.24584 165.903505 
L 369.678806 161.792318 
L 368.886198 157.700452 
L 367.869256 153.634298 
L 366.629568 149.600211 
L 365.169071 145.604491 
L 363.490046 141.653383 
L 361.595118 137.75306 
L 359.487246 133.909615 
L 357.169725 130.129052 
L 354.646173 126.41728 
L 351.920536 122.780096 
L 348.99707 119.223184 
L 345.880344 115.7521 
L 342.575226 112.372269 
L 339.086882 109.088969 
L 335.42076 105.907332 
L 331.582588 102.832328 
L 327.578365 99.868761 
L 323.414344 97.021261 
L 319.097032 94.294278 
L 314.633175 91.692071 
L 310.029747 89.218708 
L 305.293939 86.87805 
L 300.433151 84.673757 
L 295.454977 82.609271 
L 290.367196 80.687819 
L 285.177755 78.912401 
L 279.894763 77.285793 
L 274.526474 75.810535 
L 269.081275 74.488933 
L 263.567673 73.32305 
L 256.124703 72.013884 
L 248.596125 70.9884 
L 241.002847 70.249446 
L 233.365958 69.799074 
L 225.706667 69.638534 
L 218.046248 69.768273 
L 210.405974 70.18793 
L 202.807064 70.89634 
L 195.270623 71.891535 
L 187.817582 73.170752 
L 180.46864 74.730437 
L 175.037538 76.081682 
L 169.684965 77.586159 
L 164.419283 79.241516 
L 159.248719 81.045169 
L 154.181352 82.994298 
L 149.225098 85.085859 
L 144.387702 87.316584 
L 139.67672 89.682987 
L 135.099514 92.181372 
L 130.663234 94.807835 
L 126.374812 97.558272 
L 122.240947 100.428387 
L 118.268099 103.413695 
L 114.462474 106.509531 
L 110.830019 109.71106 
L 107.376408 113.013279 
L 104.107037 116.411029 
L 101.027014 119.899001 
L 99.081248 122.271754 
L 99.081248 122.271754 
" clip-path="url(#frame0053_032f78_p0b9ae3ac6d)" style="fill: none; stroke: #0072b2; stroke-width: 2.5; stroke-linecap: square"/>
   </g>
   <g id="frame0053_032f78_patch_3">
    <path d="M 225.3 330.938125 
L 225.3 17.378125 
" style="fill: none; stroke: #000000; stroke-width: 0.8; stroke-linejoin: miter; stroke-linecap: square"/>
   </g>
   <g id="frame0053_032f78_patch_4">
    <path d="M 443.4 330.938125 
L 443.4 17.378125 
" style="fill: none"/>
   </g>
   <g id="frame0053_032f78_patch_5">
    <path d="M 7.2 174.158125 
L 443.4 174.158125 
" style="fill: none; stroke: #000000; stroke-width: 0.8; stroke-linejoin: miter; stroke-linecap: square"/>
   </g>
   <g id="frame0053_032f78_patch_6">
    <path d="M 7.2 17.378125 
L 443.4 17.378125 
" style="fill: none"/>
   </g>
  </g>
 </g>
 <defs>
  <clipPath id="frame0053_032f78_p0b9ae3ac6d">
   <rect x="7.2" y="17.378125" width="436.2" height="313.56"/>
  </clipPath>
 </defs>
</svg>
