<?xml version="1.0" encoding="utf-8" standalone="no"?>
<!DOCTYPE svg PUBLIC "-//W3C//DTD SVG 1.1//EN"
  "http://www.w3.org/Graphics/SVG/1.1/DTD/svg11.dtd">
<svg xmlns:xlink="http://www.w3.org/1999/xlink" width="453.6pt" height="338.138125pt" viewBox="0 0 453.6 338.138125" xmlns="http://www.w3.org/2000/svg" version="1.1">
 <metadata>
  <rdf:RDF xmlns:dc="http://purl.org/dc/elements/1.1/" xmlns:cc="http://creativecommons.org/ns#" xmlns:rdf="http://www.w3.org/1999/02/22-rdf-syntax-ns#">
   <cc:Work>
    <dc:type rdf:resource="http://purl.org/dc/dcmitype/StillImage"/>
    <dc:date>2026-01-22T01:05:30.880793</dc:date>
    <dc:format>image/svg+xml</dc:format>
    <dc:creator>
     <cc:Agent>
      <dc:title>Matplotlib v3.9.1, https://matplotlib.org/</dc:title>
     </cc:Agent>
    </dc:creator>
   </cc:Work>
  </rdf:RDF>
 </metadata>
 <defs>
  <style type="text/css">*{stroke-linejoin: round; stroke-linecap: butt}</style>
 </defs>
 <g id="frame0103_151d27_figure_1">
  <g id="frame0103_151d27_patch_1">
   <path d="M 0 338.138125 
L 453.6 338.138125 
L 453.6 0 
L 0 0 
L 0 338.138125 
z
" style="fill: none; opacity: 0"/>
  </g>
  <g id="frame0103_151d27_axes_1">
   <g id="frame0103_151d27_patch_2">
    <path d="M 7.2 330.938125 
L 443.4 330.938125 
L 443.4 17.378125 
L 7.2 17.378125 
L 7.2 330.938125 
z
" style="fill: none; opacity: 0"/>
   </g>
   <g id="frame0103_151d27_matplotlib.axis_1">
    <g id="frame0103_151d27_xtick_1">
     <g id="frame0103_151d27_line2d_1">
      <path d="M 79.9 330.938125 
L 79.9 17.378125 
" clip-path="url(#frame0103_151d27_p8b8b397e69)" style="fill: none; stroke-dasharray: 2.96,1.28; stroke-dashoffset: 0; stroke: #b0b0b0; stroke-opacity: 0.6; stroke-width: 0.8"/>
     </g>
     <g id="frame0103_151d27_line2d_2">
      <defs>
       <path id="frame0103_151d27_mb6e40ddaa2" d="M 0 0 
L 0 3.5 
" style="stroke: #000000; stroke-width: 0.8"/>
      </defs>
      <g>
       <use xlink:href="#frame0103_151d27_mb6e40ddaa2" x="79.9" y="174.158125" style="stroke: #000000; stroke-width: 0.8"/>
      </g>
     </g>
     <g id="frame0103_151d27_text_1">
      <!-- −1 -->
      <g transform="translate(65.157813 196.355) scale(0.2 -0.2)">
       <defs>
        <path id="frame0103_151d27_DejaVuSans-2212" d="M 678 2272 
L 4684 2272 
L 4684 1741 
L 678 1741 
L 678 2272 
z
" transform="scale(0.015625)"/>
        <path id="frame0103_151d27_DejaVuSans-31" d="M 794 531 
L 1825 531 
L 1825 4091 
L 703 3866 
L 703 4441 
L 1819 4666 
L 2450 4666 
L 2450 531 
L 3481 531 
L 3481 0 
L 794 0 
L 794 531 
z
" transform="scale(0.015625)"/>
       </defs>
       <use xlink:href="#frame0103_151d27_DejaVuSans-2212"/>
       <use xlink:href="#frame0103_151d27_DejaVuSans-31" x="83.789062"/>
      </g>
     </g>
    </g>
    <g id="frame0103_151d27_xtick_2">
     <g id="frame0103_151d27_line2d_3">
      <path d="M 370.7 330.938125 
L 370.7 17.378125 
" clip-path="url(#frame0103_151d27_p8b8b397e69)" style="fill: none; stroke-dasharray: 2.96,1.28; stroke-dashoffset: 0; stroke: #b0b0b0; stroke-opacity: 0.6; stroke-width: 0.8"/>
     </g>
     <g id="frame0103_151d27_line2d_4">
      <g>
       <use xlink:href="#frame0103_151d27_mb6e40ddaa2" x="370.7" y="174.158125" style="stroke: #000000; stroke-width: 0.8"/>
      </g>
     </g>
     <g id="frame0103_151d27_text_2">
      <!-- 1 -->
      <g transform="translate(364.3375 196.355) scale(0.2 -0.2)">
       <use xlink:href="#frame0103_151d27_DejaVuSans-31"/>
      </g>
     </g>
    </g>
    <g id="frame0103_151d27_text_3">
     <!-- $x$ -->
     <g transform="translate(431.4 219.71125) scale(0.2 -0.2)">
      <defs>
       <path id="frame0103_151d27_DejaVuSans-Oblique-78" d="M 3841 3500 
L 2234 1784 
L 3219 0 
L 2559 0 
L 1819 1388 
L 531 0 
L -166 0 
L 1556 1844 
L 641 3500 
L 1300 3500 
L 1972 2234 
L 3144 3500 
L 3841 3500 
z
" transform="scale(0.015625)"/>
      </defs>
      <use xlink:href="#frame0103_151d27_DejaVuSans-Oblique-78" transform="translate(0 0.3125)"/>
     </g>
    </g>
   </g>
   <g id="frame0103_151d27_matplotlib.axis_2">
    <g id="frame0103_151d27_ytick_1">
     <g id="frame0103_151d27_line2d_5">
      <path d="M 7.2 278.678125 
L 443.4 278.678125 
" clip-path="url(#frame0103_151d27_p8b8b397e69)" style="fill: none; stroke-dasharray: 2.96,1.28; stroke-dashoffset: 0; stroke: #b0b0b0; stroke-opacity: 0.6; stroke-width: 0.8"/>
     </g>
     <g id="frame0103_151d27_line2d_6">
      <defs>
       <path id="frame0103_151d27_mb595b01018" d="M 0 0 
L -3.5 0 
" style="stroke: #000000; stroke-width: 0.8"/>
      </defs>
      <g>
       <use xlink:href="#frame0103_151d27_mb595b01018" x="225.3" y="278.678125" style="stroke: #000000; stroke-width: 0.8"/>
      </g>
     </g>
     <g id="frame0103_151d27_text_4">
      <!-- −1 -->
      <g transform="translate(188.815625 286.276562) scale(0.2 -0.2)">
       <use xlink:href="#frame0103_151d27_DejaVuSans-2212"/>
       <use xlink:href="#frame0103_151d27_DejaVuSans-31" x="83.789062"/>
      </g>
     </g>
    </g>
    <g id="frame0103_151d27_ytick_2">
     <g id="frame0103_151d27_line2d_7">
      <path d="M 7.2 69.638125 
L 443.4 69.638125 
" clip-path="url(#frame0103_151d27_p8b8b397e69)" style="fill: none; stroke-dasharray: 2.96,1.28; stroke-dashoffset: 0; stroke: #b0b0b0; stroke-opacity: 0.6; stroke-width: 0.8"/>
     </g>
     <g id="frame0103_151d27_line2d_8">
      <g>
       <use xlink:href="#frame0103_151d27_mb595b01018" x="225.3" y="69.638125" style="stroke: #000000; stroke-width: 0.8"/>
      </g>
     </g>
     <g id="frame0103_151d27_text_5">
      <!-- 1 -->
      <g transform="translate(205.575 77.236562) scale(0.2 -0.2)">
       <use xlink:href="#frame0103_151d27_DejaVuSans-31"/>
      </g>
     </g>
    </g>
    <g id="frame0103_151d27_text_6">
     <!-- $y$ -->
     <g transform="translate(172.815625 13.178125) scale(0.2 -0.2)">
      <defs>
       <path id="frame0103_151d27_DejaVuSans-Oblique-79" d="M 1588 -325 
Q 1188 -997 936 -1164 
Q 684 -1331 294 -1331 
L -159 -1331 
L -63 -850 
L 269 -850 
Q 509 -850 678 -719 
Q 847 -588 1056 -206 
L 1234 128 
L 459 3500 
L 1069 3500 
L 1650 819 
L 3256 3500 
L 3859 3500 
L 1588 -325 
z
" transform="scale(0.015625)"/>
      </defs>
      <use xlink:href="#frame0103_151d27_DejaVuSans-Oblique-79" transform="translate(0 0.3125)"/>
     </g>
    </g>
   </g>
   <g id="frame0103_151d27_line2d_9">
    <defs>
     <path id="frame0103_151d27_m42287a954e" d="M 3 0 
L -3 -3 
L -3 3 
z
" style="stroke: #000000; stroke-linejoin: miter"/>
    </defs>
    <g>
     <use xlink:href="#frame0103_151d27_m42287a954e" x="443.4" y="174.158125" style="stroke: #000000; stroke-linejoin: miter"/>
    </g>
   </g>
   <g id="frame0103_151d27_line2d_10">
    <defs>
     <path id="frame0103_151d27_m813ca923ea" d="M 0 -3 
L -3 3 
L 3 3 
z
" style="stroke: #000000; stroke-linejoin: miter"/>
    </defs>
    <g>
     <use xlink:href="#frame0103_151d27_m813ca923ea" x="225.3" y="17.378125" style="stroke: #000000; stroke-linejoin: miter"/>
    </g>
   </g>
   <g id="frame0103_151d27_line2d_11">
    <defs>
     <path id="frame0103_151d27_m80707a5e9a" d="M 0 5 
C 1.326016 5 2.597899 4.473168 3.535534 3.535534 
C 4.473168 2.597899 5 1.326016 5 0 
C 5 -1.326016 4.473168 -2.597899 3.535534 -3.535534 
C 2.597899 -4.473168 1.326016 -5 0 -5 
C -1.326016 -5 -2.597899 -4.473168 -3.535534 -3.535534 
C -4.473168 -2.597899 -5 -1.326016 -5 0 
C -5 1.326016 -4.473168 2.597899 -3.535534 3.535534 
C -2.597899 4.473168 -1.326016 5 0 5 
z
" style="stroke: #000000; stroke-opacity: 0.8"/>
    </defs>
    <g clip-path="url(#frame0103_151d27_p8b8b397e69)">
     <use xlink:href="#frame0103_151d27_m80707a5e9a" x="279.693683" y="271.08889" style="fill-opacity: 0.8; stroke: #000000; stroke-opacity: 0.8"/>
    </g>
   </g>
   <g id="frame0103_151d27_line2d_12">
    <path d="M 370.7 174.158125 
L 370.509357 168.807558 
L 369.937929 163.471021 
L 368.987214 158.16251 
L 367.659706 152.895944 
L 365.958884 147.685135 
L 363.88921 142.543746 
L 361.456111 137.48526 
L 358.665967 132.522943 
L 355.526095 127.669805 
L 352.044728 122.938576 
L 348.230996 118.34166 
L 344.094899 113.891113 
L 339.647285 109.598605 
L 334.899815 105.475393 
L 329.864939 101.532289 
L 324.555861 97.779633 
L 318.986502 94.227266 
L 313.171468 90.884503 
L 307.126006 87.760111 
L 300.86597 84.862281 
L 294.407776 82.198614 
L 287.768359 79.776094 
L 280.96513 77.601074 
L 274.01593 75.679258 
L 266.938981 74.015684 
L 259.752841 72.614716 
L 252.476354 71.480027 
L 245.128603 70.614594 
L 237.728855 70.020684 
L 230.296514 69.699856 
L 222.851071 69.652951 
L 215.412049 69.880092 
L 207.998957 70.380683 
L 200.631234 71.153412 
L 193.328201 72.196253 
L 186.109007 73.50647 
L 178.992585 75.080627 
L 171.997596 76.914598 
L 165.142382 79.003572 
L 158.444922 81.342072 
L 151.922776 83.923966 
L 145.593049 86.742482 
L 139.472339 89.79023 
L 133.576697 93.059217 
L 127.921583 96.540872 
L 122.521826 100.226064 
L 117.391586 104.10513 
L 112.544317 108.167897 
L 107.992729 112.403711 
L 103.748758 116.801465 
L 99.823534 121.349627 
L 96.227349 126.036269 
L 92.969633 130.849103 
L 90.05893 135.775506 
L 87.502873 140.802561 
L 85.308164 145.917085 
L 83.480558 151.105666 
L 82.024848 156.354698 
L 80.944851 161.650416 
L 80.2434 166.978934 
L 79.922333 172.326277 
L 79.982493 177.678425 
L 80.423722 183.02134 
L 81.244863 188.341014 
L 82.443763 193.623496 
L 84.017278 198.854933 
L 85.96128 204.021607 
L 88.270674 209.10997 
L 90.939402 214.106678 
L 93.960467 218.998628 
L 97.325946 223.772991 
L 101.027014 228.417249 
L 105.053966 232.919222 
L 109.396241 237.267104 
L 114.042452 241.449495 
L 118.980417 245.455426 
L 124.197185 249.274393 
L 129.679078 252.896381 
L 135.411719 256.311892 
L 141.380076 259.511969 
L 147.568498 262.488222 
L 153.960756 265.232845 
L 160.540089 267.73864 
L 167.289243 269.999038 
L 174.19052 272.00811 
L 181.225823 273.760588 
L 188.376702 275.251877 
L 195.624405 276.478065 
L 202.949928 277.435938 
L 210.334059 278.122984 
L 217.757436 278.5374 
L 225.200592 278.678101 
L 232.644009 278.544716 
L 240.068167 278.137597 
L 247.453599 277.45781 
L 254.780937 276.507139 
L 262.030966 275.288075 
L 269.184675 273.803817 
L 276.223304 272.058255 
L 279.693683 271.08889 
L 279.693683 271.08889 
" clip-path="url(#frame0103_151d27_p8b8b397e69)" style="fill: none; stroke: #0072b2; stroke-width: 2.5; stroke-linecap: square"/>
   </g>
   <g id="frame0103_151d27_patch_3">
    <path d="M 225.3 330.938125 
L 225.3 17.378125 
" style="fill: none; stroke: #000000; stroke-width: 0.8; stroke-linejoin: miter; stroke-linecap: square"/>
   </g>
   <g id="frame0103_151d27_patch_4">
    <path d="M 443.4 330.938125 
L 443.4 17.378125 
" style="fill: none"/>
   </g>
   <g id="frame0103_151d27_patch_5">
    <path d="M 7.2 174.158125 
L 443.4 174.158125 
" style="fill: none; stroke: #000000; stroke-width: 0.8; stroke-linejoin: miter; stroke-linecap: square"/>
   </g>
   <g id="frame0103_151d27_patch_6">
    <path d="M 7.2 17.378125 
L 443.4 17.378125 
" style="fill: none"/>
   </g>
  </g>
 </g>
 <defs>
  <clipPath id="frame0103_151d27_p8b8b397e69">
   <rect x="7.2" y="17.378125" width="436.2" height="313.56"/>
  </clipPath>
 </defs>
</svg>
