<?xml version="1.0" encoding="utf-8" standalone="no"?>
<!DOCTYPE svg PUBLIC "-//W3C//DTD SVG 1.1//EN"
  "http://www.w3.org/Graphics/SVG/1.1/DTD/svg11.dtd">
<svg xmlns:xlink="http://www.w3.org/1999/xlink" width="453.6pt" height="338.138125pt" viewBox="0 0 453.6 338.138125" xmlns="http://www.w3.org/2000/svg" version="1.1">
 <metadata>
  <rdf:RDF xmlns:dc="http://purl.org/dc/elements/1.1/" xmlns:cc="http://creativecommons.org/ns#" xmlns:rdf="http://www.w3.org/1999/02/22-rdf-syntax-ns#">
   <cc:Work>
    <dc:type rdf:resource="http://purl.org/dc/dcmitype/StillImage"/>
    <dc:date>2026-01-22T01:05:31.877846</dc:date>
    <dc:format>image/svg+xml</dc:format>
    <dc:creator>
     <cc:Agent>
      <dc:title>Matplotlib v3.9.1, https://matplotlib.org/</dc:title>
     </cc:Agent>
    </dc:creator>
   </cc:Work>
  </rdf:RDF>
 </metadata>
 <defs>
  <style type="text/css">*{stroke-linejoin: round; stroke-linecap: butt}</style>
 </defs>
 <g id="frame0114_3fd6bf_figure_1">
  <g id="frame0114_3fd6bf_patch_1">
   <path d="M 0 338.138125 
L 453.6 338.138125 
L 453.6 0 
L 0 0 
L 0 338.138125 
z
" style="fill: none; opacity: 0"/>
  </g>
  <g id="frame0114_3fd6bf_axes_1">
   <g id="frame0114_3fd6bf_patch_2">
    <path d="M 7.2 330.938125 
L 443.4 330.938125 
L 443.4 17.378125 
L 7.2 17.378125 
L 7.2 330.938125 
z
" style="fill: none; opacity: 0"/>
   </g>
   <g id="frame0114_3fd6bf_matplotlib.axis_1">
    <g id="frame0114_3fd6bf_xtick_1">
     <g id="frame0114_3fd6bf_line2d_1">
      <path d="M 79.9 330.938125 
L 79.9 17.378125 
" clip-path="url(#frame0114_3fd6bf_pa0572cf9ee)" style="fill: none; stroke-dasharray: 2.96,1.28; stroke-dashoffset: 0; stroke: #b0b0b0; stroke-opacity: 0.6; stroke-width: 0.8"/>
     </g>
     <g id="frame0114_3fd6bf_line2d_2">
      <defs>
       <path id="frame0114_3fd6bf_m390865c869" d="M 0 0 
L 0 3.5 
" style="stroke: #000000; stroke-width: 0.8"/>
      </defs>
      <g>
       <use xlink:href="#frame0114_3fd6bf_m390865c869" x="79.9" y="174.158125" style="stroke: #000000; stroke-width: 0.8"/>
      </g>
     </g>
     <g id="frame0114_3fd6bf_text_1">
      <!-- −1 -->
      <g transform="translate(65.157813 196.355) scale(0.2 -0.2)">
       <defs>
        <path id="frame0114_3fd6bf_DejaVuSans-2212" d="M 678 2272 
L 4684 2272 
L 4684 1741 
L 678 1741 
L 678 2272 
z
" transform="scale(0.015625)"/>
        <path id="frame0114_3fd6bf_DejaVuSans-31" d="M 794 531 
L 1825 531 
L 1825 4091 
L 703 3866 
L 703 4441 
L 1819 4666 
L 2450 4666 
L 2450 531 
L 3481 531 
L 3481 0 
L 794 0 
L 794 531 
z
" transform="scale(0.015625)"/>
       </defs>
       <use xlink:href="#frame0114_3fd6bf_DejaVuSans-2212"/>
       <use xlink:href="#frame0114_3fd6bf_DejaVuSans-31" x="83.789062"/>
      </g>
     </g>
    </g>
    <g id="frame0114_3fd6bf_xtick_2">
     <g id="frame0114_3fd6bf_line2d_3">
      <path d="M 370.7 330.938125 
L 370.7 17.378125 
" clip-path="url(#frame0114_3fd6bf_pa0572cf9ee)" style="fill: none; stroke-dasharray: 2.96,1.28; stroke-dashoffset: 0; stroke: #b0b0b0; stroke-opacity: 0.6; stroke-width: 0.8"/>
     </g>
     <g id="frame0114_3fd6bf_line2d_4">
      <g>
       <use xlink:href="#frame0114_3fd6bf_m390865c869" x="370.7" y="174.158125" style="stroke: #000000; stroke-width: 0.8"/>
      </g>
     </g>
     <g id="frame0114_3fd6bf_text_2">
      <!-- 1 -->
      <g transform="translate(364.3375 196.355) scale(0.2 -0.2)">
       <use xlink:href="#frame0114_3fd6bf_DejaVuSans-31"/>
      </g>
     </g>
    </g>
    <g id="frame0114_3fd6bf_text_3">
     <!-- $x$ -->
     <g transform="translate(431.4 219.71125) scale(0.2 -0.2)">
      <defs>
       <path id="frame0114_3fd6bf_DejaVuSans-Oblique-78" d="M 3841 3500 
L 2234 1784 
L 3219 0 
L 2559 0 
L 1819 1388 
L 531 0 
L -166 0 
L 1556 1844 
L 641 3500 
L 1300 3500 
L 1972 2234 
L 3144 3500 
L 3841 3500 
z
" transform="scale(0.015625)"/>
      </defs>
      <use xlink:href="#frame0114_3fd6bf_DejaVuSans-Oblique-78" transform="translate(0 0.3125)"/>
     </g>
    </g>
   </g>
   <g id="frame0114_3fd6bf_matplotlib.axis_2">
    <g id="frame0114_3fd6bf_ytick_1">
     <g id="frame0114_3fd6bf_line2d_5">
      <path d="M 7.2 278.678125 
L 443.4 278.678125 
" clip-path="url(#frame0114_3fd6bf_pa0572cf9ee)" style="fill: none; stroke-dasharray: 2.96,1.28; stroke-dashoffset: 0; stroke: #b0b0b0; stroke-opacity: 0.6; stroke-width: 0.8"/>
     </g>
     <g id="frame0114_3fd6bf_line2d_6">
      <defs>
       <path id="frame0114_3fd6bf_m4211181c15" d="M 0 0 
L -3.5 0 
" style="stroke: #000000; stroke-width: 0.8"/>
      </defs>
      <g>
       <use xlink:href="#frame0114_3fd6bf_m4211181c15" x="225.3" y="278.678125" style="stroke: #000000; stroke-width: 0.8"/>
      </g>
     </g>
     <g id="frame0114_3fd6bf_text_4">
      <!-- −1 -->
      <g transform="translate(188.815625 286.276562) scale(0.2 -0.2)">
       <use xlink:href="#frame0114_3fd6bf_DejaVuSans-2212"/>
       <use xlink:href="#frame0114_3fd6bf_DejaVuSans-31" x="83.789062"/>
      </g>
     </g>
    </g>
    <g id="frame0114_3fd6bf_ytick_2">
     <g id="frame0114_3fd6bf_line2d_7">
      <path d="M 7.2 69.638125 
L 443.4 69.638125 
" clip-path="url(#frame0114_3fd6bf_pa0572cf9ee)" style="fill: none; stroke-dasharray: 2.96,1.28; stroke-dashoffset: 0; stroke: #b0b0b0; stroke-opacity: 0.6; stroke-width: 0.8"/>
     </g>
     <g id="frame0114_3fd6bf_line2d_8">
      <g>
       <use xlink:href="#frame0114_3fd6bf_m4211181c15" x="225.3" y="69.638125" style="stroke: #000000; stroke-width: 0.8"/>
      </g>
     </g>
     <g id="frame0114_3fd6bf_text_5">
      <!-- 1 -->
      <g transform="translate(205.575 77.236562) scale(0.2 -0.2)">
       <use xlink:href="#frame0114_3fd6bf_DejaVuSans-31"/>
      </g>
     </g>
    </g>
    <g id="frame0114_3fd6bf_text_6">
     <!-- $y$ -->
     <g transform="translate(172.815625 13.178125) scale(0.2 -0.2)">
      <defs>
       <path id="frame0114_3fd6bf_DejaVuSans-Oblique-79" d="M 1588 -325 
Q 1188 -997 936 -1164 
Q 684 -1331 294 -1331 
L -159 -1331 
L -63 -850 
L 269 -850 
Q 509 -850 678 -719 
Q 847 -588 1056 -206 
L 1234 128 
L 459 3500 
L 1069 3500 
L 1650 819 
L 3256 3500 
L 3859 3500 
L 1588 -325 
z
" transform="scale(0.015625)"/>
      </defs>
      <use xlink:href="#frame0114_3fd6bf_DejaVuSans-Oblique-79" transform="translate(0 0.3125)"/>
     </g>
    </g>
   </g>
   <g id="frame0114_3fd6bf_line2d_9">
    <defs>
     <path id="frame0114_3fd6bf_mad936f81e4" d="M 3 0 
L -3 -3 
L -3 3 
z
" style="stroke: #000000; stroke-linejoin: miter"/>
    </defs>
    <g>
     <use xlink:href="#frame0114_3fd6bf_mad936f81e4" x="443.4" y="174.158125" style="stroke: #000000; stroke-linejoin: miter"/>
    </g>
   </g>
   <g id="frame0114_3fd6bf_line2d_10">
    <defs>
     <path id="frame0114_3fd6bf_m8343c3da5e" d="M 0 -3 
L -3 3 
L 3 3 
z
" style="stroke: #000000; stroke-linejoin: miter"/>
    </defs>
    <g>
     <use xlink:href="#frame0114_3fd6bf_m8343c3da5e" x="225.3" y="17.378125" style="stroke: #000000; stroke-linejoin: miter"/>
    </g>
   </g>
   <g id="frame0114_3fd6bf_line2d_11">
    <defs>
     <path id="frame0114_3fd6bf_me84ec063b4" d="M 0 5 
C 1.326016 5 2.597899 4.473168 3.535534 3.535534 
C 4.473168 2.597899 5 1.326016 5 0 
C 5 -1.326016 4.473168 -2.597899 3.535534 -3.535534 
C 2.597899 -4.473168 1.326016 -5 0 -5 
C -1.326016 -5 -2.597899 -4.473168 -3.535534 -3.535534 
C -4.473168 -2.597899 -5 -1.326016 -5 0 
C -5 1.326016 -4.473168 2.597899 -3.535534 3.535534 
C -2.597899 4.473168 -1.326016 5 0 5 
z
" style="stroke: #000000; stroke-opacity: 0.8"/>
    </defs>
    <g clip-path="url(#frame0114_3fd6bf_pa0572cf9ee)">
     <use xlink:href="#frame0114_3fd6bf_me84ec063b4" x="341.64969" y="236.841658" style="fill-opacity: 0.8; stroke: #000000; stroke-opacity: 0.8"/>
    </g>
   </g>
   <g id="frame0114_3fd6bf_line2d_12">
    <path d="M 370.7 174.158125 
L 370.641607 171.196233 
L 370.466475 168.236721 
L 370.174744 165.281964 
L 369.766649 162.334337 
L 369.242517 159.396206 
L 368.602771 156.469933 
L 367.847922 153.557867 
L 366.978578 150.662347 
L 365.995437 147.785699 
L 364.899289 144.930233 
L 363.691014 142.098244 
L 362.371582 139.292005 
L 359.403577 133.765773 
L 356.004808 128.369288 
L 352.186191 123.119885 
L 347.959994 118.034426 
L 343.33979 113.129246 
L 338.340422 108.420102 
L 332.977949 103.92212 
L 327.269594 99.649749 
L 321.233695 95.616712 
L 314.88964 91.835963 
L 308.257807 88.319649 
L 301.359499 85.079062 
L 294.216874 82.124613 
L 286.852876 79.465793 
L 279.291159 77.111141 
L 271.556013 75.068221 
L 263.672284 73.343595 
L 255.665297 71.942804 
L 247.560771 70.870346 
L 239.38474 70.129667 
L 231.163466 69.723146 
L 222.923357 69.652089 
L 214.690883 69.916723 
L 206.492487 70.5162 
L 198.354504 71.448592 
L 190.303075 72.710906 
L 182.364062 74.299087 
L 174.562967 76.208032 
L 166.924848 78.431611 
L 159.474241 80.96268 
L 152.235078 83.793109 
L 145.230612 86.913807 
L 138.483343 90.314749 
L 132.014945 93.985011 
L 125.846195 97.912804 
L 119.996908 102.085509 
L 114.485874 106.489725 
L 109.330794 111.111304 
L 104.548228 115.9354 
L 100.153538 120.946518 
L 96.160841 126.128561 
L 92.582961 131.464884 
L 89.431392 136.938345 
L 86.716258 142.531363 
L 85.525134 145.367104 
L 84.446279 148.225971 
L 83.480558 151.105666 
L 82.628747 154.003878 
L 81.89153 156.918277 
L 81.2695 159.846524 
L 80.763157 162.786265 
L 80.372906 165.735141 
L 80.099061 168.690782 
L 79.941842 171.650814 
L 79.901376 174.612861 
L 79.977695 177.574542 
L 80.170738 180.533479 
L 80.480349 183.487295 
L 80.90628 186.433618 
L 81.448189 189.370081 
L 82.105641 192.294326 
L 82.878107 195.204004 
L 83.764968 198.096778 
L 84.76551 200.970324 
L 85.87893 203.822334 
L 87.104334 206.650518 
L 88.440737 209.452604 
L 91.442161 214.969501 
L 94.87356 220.355306 
L 98.723911 225.592716 
L 102.980848 230.66491 
L 107.630695 235.555593 
L 112.658518 240.249057 
L 118.048164 244.730226 
L 123.782323 248.984704 
L 129.842574 252.998826 
L 136.209452 256.759697 
L 142.862504 260.255238 
L 149.78036 263.47422 
L 156.940798 266.406302 
L 164.320819 269.042067 
L 171.896715 271.373047 
L 179.644153 273.391756 
L 187.538245 275.091709 
L 195.553634 276.467446 
L 203.664574 277.514547 
L 211.845011 278.229648 
L 220.068668 278.610453 
L 228.309128 278.655739 
L 236.539923 278.36536 
L 244.734613 277.740249 
L 252.866876 276.782414 
L 260.910589 275.494931 
L 268.839915 273.881937 
L 276.629382 271.948612 
L 284.253971 269.701166 
L 291.689188 267.146819 
L 298.911152 264.293776 
L 305.896664 261.151201 
L 312.623285 257.72919 
L 319.069409 254.038732 
L 325.214328 250.091685 
L 331.038304 245.900725 
L 336.522631 241.479315 
L 341.64969 236.841658 
L 341.64969 236.841658 
" clip-path="url(#frame0114_3fd6bf_pa0572cf9ee)" style="fill: none; stroke: #0072b2; stroke-width: 2.5; stroke-linecap: square"/>
   </g>
   <g id="frame0114_3fd6bf_patch_3">
    <path d="M 225.3 330.938125 
L 225.3 17.378125 
" style="fill: none; stroke: #000000; stroke-width: 0.8; stroke-linejoin: miter; stroke-linecap: square"/>
   </g>
   <g id="frame0114_3fd6bf_patch_4">
    <path d="M 443.4 330.938125 
L 443.4 17.378125 
" style="fill: none"/>
   </g>
   <g id="frame0114_3fd6bf_patch_5">
    <path d="M 7.2 174.158125 
L 443.4 174.158125 
" style="fill: none; stroke: #000000; stroke-width: 0.8; stroke-linejoin: miter; stroke-linecap: square"/>
   </g>
   <g id="frame0114_3fd6bf_patch_6">
    <path d="M 7.2 17.378125 
L 443.4 17.378125 
" style="fill: none"/>
   </g>
  </g>
 </g>
 <defs>
  <clipPath id="frame0114_3fd6bf_pa0572cf9ee">
   <rect x="7.2" y="17.378125" width="436.2" height="313.56"/>
  </clipPath>
 </defs>
</svg>
