<?xml version="1.0" encoding="utf-8" standalone="no"?>
<!DOCTYPE svg PUBLIC "-//W3C//DTD SVG 1.1//EN"
  "http://www.w3.org/Graphics/SVG/1.1/DTD/svg11.dtd">
<svg xmlns:xlink="http://www.w3.org/1999/xlink" width="453.6pt" height="338.138125pt" viewBox="0 0 453.6 338.138125" xmlns="http://www.w3.org/2000/svg" version="1.1">
 <metadata>
  <rdf:RDF xmlns:dc="http://purl.org/dc/elements/1.1/" xmlns:cc="http://creativecommons.org/ns#" xmlns:rdf="http://www.w3.org/1999/02/22-rdf-syntax-ns#">
   <cc:Work>
    <dc:type rdf:resource="http://purl.org/dc/dcmitype/StillImage"/>
    <dc:date>2026-01-22T01:05:32.820953</dc:date>
    <dc:format>image/svg+xml</dc:format>
    <dc:creator>
     <cc:Agent>
      <dc:title>Matplotlib v3.9.1, https://matplotlib.org/</dc:title>
     </cc:Agent>
    </dc:creator>
   </cc:Work>
  </rdf:RDF>
 </metadata>
 <defs>
  <style type="text/css">*{stroke-linejoin: round; stroke-linecap: butt}</style>
 </defs>
 <g id="frame0126_02cbf5_figure_1">
  <g id="frame0126_02cbf5_patch_1">
   <path d="M 0 338.138125 
L 453.6 338.138125 
L 453.6 0 
L 0 0 
L 0 338.138125 
z
" style="fill: none; opacity: 0"/>
  </g>
  <g id="frame0126_02cbf5_axes_1">
   <g id="frame0126_02cbf5_patch_2">
    <path d="M 7.2 330.938125 
L 443.4 330.938125 
L 443.4 17.378125 
L 7.2 17.378125 
L 7.2 330.938125 
z
" style="fill: none; opacity: 0"/>
   </g>
   <g id="frame0126_02cbf5_matplotlib.axis_1">
    <g id="frame0126_02cbf5_xtick_1">
     <g id="frame0126_02cbf5_line2d_1">
      <path d="M 79.9 330.938125 
L 79.9 17.378125 
" clip-path="url(#frame0126_02cbf5_p397f5eb2a7)" style="fill: none; stroke-dasharray: 2.96,1.28; stroke-dashoffset: 0; stroke: #b0b0b0; stroke-opacity: 0.6; stroke-width: 0.8"/>
     </g>
     <g id="frame0126_02cbf5_line2d_2">
      <defs>
       <path id="frame0126_02cbf5_m8908ba2190" d="M 0 0 
L 0 3.5 
" style="stroke: #000000; stroke-width: 0.8"/>
      </defs>
      <g>
       <use xlink:href="#frame0126_02cbf5_m8908ba2190" x="79.9" y="174.158125" style="stroke: #000000; stroke-width: 0.8"/>
      </g>
     </g>
     <g id="frame0126_02cbf5_text_1">
      <!-- −1 -->
      <g transform="translate(65.157813 196.355) scale(0.2 -0.2)">
       <defs>
        <path id="frame0126_02cbf5_DejaVuSans-2212" d="M 678 2272 
L 4684 2272 
L 4684 1741 
L 678 1741 
L 678 2272 
z
" transform="scale(0.015625)"/>
        <path id="frame0126_02cbf5_DejaVuSans-31" d="M 794 531 
L 1825 531 
L 1825 4091 
L 703 3866 
L 703 4441 
L 1819 4666 
L 2450 4666 
L 2450 531 
L 3481 531 
L 3481 0 
L 794 0 
L 794 531 
z
" transform="scale(0.015625)"/>
       </defs>
       <use xlink:href="#frame0126_02cbf5_DejaVuSans-2212"/>
       <use xlink:href="#frame0126_02cbf5_DejaVuSans-31" x="83.789062"/>
      </g>
     </g>
    </g>
    <g id="frame0126_02cbf5_xtick_2">
     <g id="frame0126_02cbf5_line2d_3">
      <path d="M 370.7 330.938125 
L 370.7 17.378125 
" clip-path="url(#frame0126_02cbf5_p397f5eb2a7)" style="fill: none; stroke-dasharray: 2.96,1.28; stroke-dashoffset: 0; stroke: #b0b0b0; stroke-opacity: 0.6; stroke-width: 0.8"/>
     </g>
     <g id="frame0126_02cbf5_line2d_4">
      <g>
       <use xlink:href="#frame0126_02cbf5_m8908ba2190" x="370.7" y="174.158125" style="stroke: #000000; stroke-width: 0.8"/>
      </g>
     </g>
     <g id="frame0126_02cbf5_text_2">
      <!-- 1 -->
      <g transform="translate(364.3375 196.355) scale(0.2 -0.2)">
       <use xlink:href="#frame0126_02cbf5_DejaVuSans-31"/>
      </g>
     </g>
    </g>
    <g id="frame0126_02cbf5_text_3">
     <!-- $x$ -->
     <g transform="translate(431.4 219.71125) scale(0.2 -0.2)">
      <defs>
       <path id="frame0126_02cbf5_DejaVuSans-Oblique-78" d="M 3841 3500 
L 2234 1784 
L 3219 0 
L 2559 0 
L 1819 1388 
L 531 0 
L -166 0 
L 1556 1844 
L 641 3500 
L 1300 3500 
L 1972 2234 
L 3144 3500 
L 3841 3500 
z
" transform="scale(0.015625)"/>
      </defs>
      <use xlink:href="#frame0126_02cbf5_DejaVuSans-Oblique-78" transform="translate(0 0.3125)"/>
     </g>
    </g>
   </g>
   <g id="frame0126_02cbf5_matplotlib.axis_2">
    <g id="frame0126_02cbf5_ytick_1">
     <g id="frame0126_02cbf5_line2d_5">
      <path d="M 7.2 278.678125 
L 443.4 278.678125 
" clip-path="url(#frame0126_02cbf5_p397f5eb2a7)" style="fill: none; stroke-dasharray: 2.96,1.28; stroke-dashoffset: 0; stroke: #b0b0b0; stroke-opacity: 0.6; stroke-width: 0.8"/>
     </g>
     <g id="frame0126_02cbf5_line2d_6">
      <defs>
       <path id="frame0126_02cbf5_mbe224a9684" d="M 0 0 
L -3.5 0 
" style="stroke: #000000; stroke-width: 0.8"/>
      </defs>
      <g>
       <use xlink:href="#frame0126_02cbf5_mbe224a9684" x="225.3" y="278.678125" style="stroke: #000000; stroke-width: 0.8"/>
      </g>
     </g>
     <g id="frame0126_02cbf5_text_4">
      <!-- −1 -->
      <g transform="translate(188.815625 286.276562) scale(0.2 -0.2)">
       <use xlink:href="#frame0126_02cbf5_DejaVuSans-2212"/>
       <use xlink:href="#frame0126_02cbf5_DejaVuSans-31" x="83.789062"/>
      </g>
     </g>
    </g>
    <g id="frame0126_02cbf5_ytick_2">
     <g id="frame0126_02cbf5_line2d_7">
      <path d="M 7.2 69.638125 
L 443.4 69.638125 
" clip-path="url(#frame0126_02cbf5_p397f5eb2a7)" style="fill: none; stroke-dasharray: 2.96,1.28; stroke-dashoffset: 0; stroke: #b0b0b0; stroke-opacity: 0.6; stroke-width: 0.8"/>
     </g>
     <g id="frame0126_02cbf5_line2d_8">
      <g>
       <use xlink:href="#frame0126_02cbf5_mbe224a9684" x="225.3" y="69.638125" style="stroke: #000000; stroke-width: 0.8"/>
      </g>
     </g>
     <g id="frame0126_02cbf5_text_5">
      <!-- 1 -->
      <g transform="translate(205.575 77.236562) scale(0.2 -0.2)">
       <use xlink:href="#frame0126_02cbf5_DejaVuSans-31"/>
      </g>
     </g>
    </g>
    <g id="frame0126_02cbf5_text_6">
     <!-- $y$ -->
     <g transform="translate(172.815625 13.178125) scale(0.2 -0.2)">
      <defs>
       <path id="frame0126_02cbf5_DejaVuSans-Oblique-79" d="M 1588 -325 
Q 1188 -997 936 -1164 
Q 684 -1331 294 -1331 
L -159 -1331 
L -63 -850 
L 269 -850 
Q 509 -850 678 -719 
Q 847 -588 1056 -206 
L 1234 128 
L 459 3500 
L 1069 3500 
L 1650 819 
L 3256 3500 
L 3859 3500 
L 1588 -325 
z
" transform="scale(0.015625)"/>
      </defs>
      <use xlink:href="#frame0126_02cbf5_DejaVuSans-Oblique-79" transform="translate(0 0.3125)"/>
     </g>
    </g>
   </g>
   <g id="frame0126_02cbf5_line2d_9">
    <defs>
     <path id="frame0126_02cbf5_m34c6f88de2" d="M 3 0 
L -3 -3 
L -3 3 
z
" style="stroke: #000000; stroke-linejoin: miter"/>
    </defs>
    <g>
     <use xlink:href="#frame0126_02cbf5_m34c6f88de2" x="443.4" y="174.158125" style="stroke: #000000; stroke-linejoin: miter"/>
    </g>
   </g>
   <g id="frame0126_02cbf5_line2d_10">
    <defs>
     <path id="frame0126_02cbf5_m1b68770f1d" d="M 0 -3 
L -3 3 
L 3 3 
z
" style="stroke: #000000; stroke-linejoin: miter"/>
    </defs>
    <g>
     <use xlink:href="#frame0126_02cbf5_m1b68770f1d" x="225.3" y="17.378125" style="stroke: #000000; stroke-linejoin: miter"/>
    </g>
   </g>
   <g id="frame0126_02cbf5_line2d_11">
    <defs>
     <path id="frame0126_02cbf5_m8c37fc3795" d="M 0 5 
C 1.326016 5 2.597899 4.473168 3.535534 3.535534 
C 4.473168 2.597899 5 1.326016 5 0 
C 5 -1.326016 4.473168 -2.597899 3.535534 -3.535534 
C 2.597899 -4.473168 1.326016 -5 0 -5 
C -1.326016 -5 -2.597899 -4.473168 -3.535534 -3.535534 
C -4.473168 -2.597899 -5 -1.326016 -5 0 
C -5 1.326016 -4.473168 2.597899 -3.535534 3.535534 
C -2.597899 4.473168 -1.326016 5 0 5 
z
" style="stroke: #000000; stroke-opacity: 0.8"/>
    </defs>
    <g clip-path="url(#frame0126_02cbf5_p397f5eb2a7)">
     <use xlink:href="#frame0126_02cbf5_m8c37fc3795" x="370.522091" y="179.327028" style="fill-opacity: 0.8; stroke: #000000; stroke-opacity: 0.8"/>
    </g>
   </g>
   <g id="frame0126_02cbf5_line2d_12">
    <path d="M 370.7 174.158125 
L 370.628668 170.884552 
L 370.414741 167.614192 
L 370.058429 164.350252 
L 369.560083 161.095935 
L 368.92019 157.854435 
L 368.139379 154.628932 
L 367.218416 151.422591 
L 366.158204 148.238557 
L 364.959785 145.079956 
L 363.624333 141.949885 
L 362.153158 138.851417 
L 360.547706 135.787591 
L 358.80955 132.761414 
L 356.940396 129.775855 
L 354.942079 126.833843 
L 352.816558 123.938266 
L 350.56592 121.091963 
L 348.192372 118.297728 
L 345.698244 115.558302 
L 343.085983 112.876374 
L 340.358152 110.254575 
L 337.517428 107.695477 
L 334.566597 105.201591 
L 331.508555 102.775365 
L 328.346302 100.419178 
L 325.082942 98.135344 
L 321.721677 95.926101 
L 318.265803 93.793619 
L 314.718713 91.73999 
L 311.083887 89.767228 
L 307.36489 87.877269 
L 299.689062 84.353096 
L 291.721347 81.181298 
L 283.493009 78.374322 
L 275.036334 75.94318 
L 266.384504 73.897413 
L 257.571468 72.245048 
L 248.631805 70.992567 
L 239.600594 70.144886 
L 230.51327 69.70533 
L 221.40549 69.675624 
L 212.312992 70.055886 
L 203.271451 70.844622 
L 194.316346 72.038738 
L 185.482814 73.633549 
L 176.805517 75.622796 
L 168.318501 77.998675 
L 160.055068 80.751862 
L 152.047642 83.871556 
L 144.327643 87.345515 
L 140.584942 89.211137 
L 136.925362 91.160108 
L 133.352494 93.190515 
L 129.869844 95.300367 
L 126.480829 97.487593 
L 123.188773 99.750047 
L 119.996908 102.085509 
L 116.908365 104.491688 
L 113.926175 106.966223 
L 111.053262 109.506686 
L 108.292448 112.110584 
L 105.646439 114.775362 
L 103.117833 117.498405 
L 100.709111 120.277043 
L 98.422635 123.108547 
L 96.26065 125.990141 
L 94.225277 128.918997 
L 92.318512 131.892241 
L 90.542228 134.906955 
L 88.898165 137.960182 
L 87.387939 141.048927 
L 86.01303 144.170157 
L 84.774787 147.320811 
L 83.674426 150.497798 
L 82.713026 153.698 
L 81.89153 156.918277 
L 81.210745 160.15547 
L 80.671339 163.406402 
L 80.27384 166.667883 
L 80.018639 169.936713 
L 79.905986 173.209686 
L 79.935992 176.483589 
L 80.108627 179.755211 
L 80.423722 183.02134 
L 80.880968 186.278774 
L 81.479916 189.524314 
L 82.219978 192.754778 
L 83.100428 195.966995 
L 84.120403 199.157813 
L 85.278901 202.324101 
L 86.574786 205.462754 
L 88.006787 208.570691 
L 89.573497 211.644863 
L 91.273381 214.682253 
L 93.10477 217.679882 
L 95.065867 220.634808 
L 97.154749 223.544131 
L 99.369364 226.404997 
L 101.707542 229.2146 
L 104.166986 231.970182 
L 106.745285 234.669039 
L 109.439907 237.308524 
L 112.248211 239.886046 
L 115.167439 242.399077 
L 118.194728 244.845151 
L 121.327107 247.221868 
L 124.561503 249.526896 
L 127.894742 251.757973 
L 131.323554 253.91291 
L 134.844574 255.989592 
L 138.454349 257.985983 
L 142.149335 259.900122 
L 145.925907 261.730133 
L 153.708912 265.13067 
L 161.772825 268.17425 
L 170.086005 270.848931 
L 178.615833 273.144219 
L 187.328839 275.051106 
L 196.190836 276.562111 
L 205.167052 277.671304 
L 214.222264 278.374334 
L 223.320944 278.668443 
L 232.427388 278.552475 
L 241.505866 278.026886 
L 250.520756 277.093739 
L 259.436686 275.756694 
L 268.21867 274.020999 
L 276.83225 271.893463 
L 285.243629 269.382435 
L 293.419802 266.497767 
L 301.328688 263.250778 
L 308.939254 259.654209 
L 312.623285 257.72919 
L 316.221637 255.722171 
L 319.730777 253.635124 
L 323.147263 251.470094 
L 326.467743 249.229207 
L 329.688958 246.914661 
L 332.807748 244.528728 
L 335.821052 242.073748 
L 338.725915 239.55213 
L 341.519486 236.966348 
L 344.199024 234.318939 
L 346.7619 231.612502 
L 349.205599 228.849691 
L 351.527724 226.033217 
L 353.725995 223.165845 
L 355.798257 220.250386 
L 357.742475 217.289703 
L 359.556743 214.286699 
L 361.239279 211.244321 
L 362.788434 208.165556 
L 364.202687 205.053422 
L 365.48065 201.910975 
L 366.62107 198.741296 
L 367.622828 195.547497 
L 368.48494 192.332711 
L 369.206562 189.100093 
L 369.786984 185.852813 
L 370.225637 182.594059 
L 370.522091 179.327028 
L 370.522091 179.327028 
" clip-path="url(#frame0126_02cbf5_p397f5eb2a7)" style="fill: none; stroke: #0072b2; stroke-width: 2.5; stroke-linecap: square"/>
   </g>
   <g id="frame0126_02cbf5_patch_3">
    <path d="M 225.3 330.938125 
L 225.3 17.378125 
" style="fill: none; stroke: #000000; stroke-width: 0.8; stroke-linejoin: miter; stroke-linecap: square"/>
   </g>
   <g id="frame0126_02cbf5_patch_4">
    <path d="M 443.4 330.938125 
L 443.4 17.378125 
" style="fill: none"/>
   </g>
   <g id="frame0126_02cbf5_patch_5">
    <path d="M 7.2 174.158125 
L 443.4 174.158125 
" style="fill: none; stroke: #000000; stroke-width: 0.8; stroke-linejoin: miter; stroke-linecap: square"/>
   </g>
   <g id="frame0126_02cbf5_patch_6">
    <path d="M 7.2 17.378125 
L 443.4 17.378125 
" style="fill: none"/>
   </g>
  </g>
 </g>
 <defs>
  <clipPath id="frame0126_02cbf5_p397f5eb2a7">
   <rect x="7.2" y="17.378125" width="436.2" height="313.56"/>
  </clipPath>
 </defs>
</svg>
