<?xml version="1.0" encoding="utf-8" standalone="no"?>
<!DOCTYPE svg PUBLIC "-//W3C//DTD SVG 1.1//EN"
  "http://www.w3.org/Graphics/SVG/1.1/DTD/svg11.dtd">
<svg xmlns:xlink="http://www.w3.org/1999/xlink" width="453.6pt" height="338.138125pt" viewBox="0 0 453.6 338.138125" xmlns="http://www.w3.org/2000/svg" version="1.1">
 <metadata>
  <rdf:RDF xmlns:dc="http://purl.org/dc/elements/1.1/" xmlns:cc="http://creativecommons.org/ns#" xmlns:rdf="http://www.w3.org/1999/02/22-rdf-syntax-ns#">
   <cc:Work>
    <dc:type rdf:resource="http://purl.org/dc/dcmitype/StillImage"/>
    <dc:date>2026-01-22T01:05:32.430490</dc:date>
    <dc:format>image/svg+xml</dc:format>
    <dc:creator>
     <cc:Agent>
      <dc:title>Matplotlib v3.9.1, https://matplotlib.org/</dc:title>
     </cc:Agent>
    </dc:creator>
   </cc:Work>
  </rdf:RDF>
 </metadata>
 <defs>
  <style type="text/css">*{stroke-linejoin: round; stroke-linecap: butt}</style>
 </defs>
 <g id="frame0121_c82411_figure_1">
  <g id="frame0121_c82411_patch_1">
   <path d="M 0 338.138125 
L 453.6 338.138125 
L 453.6 0 
L 0 0 
L 0 338.138125 
z
" style="fill: none; opacity: 0"/>
  </g>
  <g id="frame0121_c82411_axes_1">
   <g id="frame0121_c82411_patch_2">
    <path d="M 7.2 330.938125 
L 443.4 330.938125 
L 443.4 17.378125 
L 7.2 17.378125 
L 7.2 330.938125 
z
" style="fill: none; opacity: 0"/>
   </g>
   <g id="frame0121_c82411_matplotlib.axis_1">
    <g id="frame0121_c82411_xtick_1">
     <g id="frame0121_c82411_line2d_1">
      <path d="M 79.9 330.938125 
L 79.9 17.378125 
" clip-path="url(#frame0121_c82411_p206fdac382)" style="fill: none; stroke-dasharray: 2.96,1.28; stroke-dashoffset: 0; stroke: #b0b0b0; stroke-opacity: 0.6; stroke-width: 0.8"/>
     </g>
     <g id="frame0121_c82411_line2d_2">
      <defs>
       <path id="frame0121_c82411_mc5f12ca63b" d="M 0 0 
L 0 3.5 
" style="stroke: #000000; stroke-width: 0.8"/>
      </defs>
      <g>
       <use xlink:href="#frame0121_c82411_mc5f12ca63b" x="79.9" y="174.158125" style="stroke: #000000; stroke-width: 0.8"/>
      </g>
     </g>
     <g id="frame0121_c82411_text_1">
      <!-- −1 -->
      <g transform="translate(65.157813 196.355) scale(0.2 -0.2)">
       <defs>
        <path id="frame0121_c82411_DejaVuSans-2212" d="M 678 2272 
L 4684 2272 
L 4684 1741 
L 678 1741 
L 678 2272 
z
" transform="scale(0.015625)"/>
        <path id="frame0121_c82411_DejaVuSans-31" d="M 794 531 
L 1825 531 
L 1825 4091 
L 703 3866 
L 703 4441 
L 1819 4666 
L 2450 4666 
L 2450 531 
L 3481 531 
L 3481 0 
L 794 0 
L 794 531 
z
" transform="scale(0.015625)"/>
       </defs>
       <use xlink:href="#frame0121_c82411_DejaVuSans-2212"/>
       <use xlink:href="#frame0121_c82411_DejaVuSans-31" x="83.789062"/>
      </g>
     </g>
    </g>
    <g id="frame0121_c82411_xtick_2">
     <g id="frame0121_c82411_line2d_3">
      <path d="M 370.7 330.938125 
L 370.7 17.378125 
" clip-path="url(#frame0121_c82411_p206fdac382)" style="fill: none; stroke-dasharray: 2.96,1.28; stroke-dashoffset: 0; stroke: #b0b0b0; stroke-opacity: 0.6; stroke-width: 0.8"/>
     </g>
     <g id="frame0121_c82411_line2d_4">
      <g>
       <use xlink:href="#frame0121_c82411_mc5f12ca63b" x="370.7" y="174.158125" style="stroke: #000000; stroke-width: 0.8"/>
      </g>
     </g>
     <g id="frame0121_c82411_text_2">
      <!-- 1 -->
      <g transform="translate(364.3375 196.355) scale(0.2 -0.2)">
       <use xlink:href="#frame0121_c82411_DejaVuSans-31"/>
      </g>
     </g>
    </g>
    <g id="frame0121_c82411_text_3">
     <!-- $x$ -->
     <g transform="translate(431.4 219.71125) scale(0.2 -0.2)">
      <defs>
       <path id="frame0121_c82411_DejaVuSans-Oblique-78" d="M 3841 3500 
L 2234 1784 
L 3219 0 
L 2559 0 
L 1819 1388 
L 531 0 
L -166 0 
L 1556 1844 
L 641 3500 
L 1300 3500 
L 1972 2234 
L 3144 3500 
L 3841 3500 
z
" transform="scale(0.015625)"/>
      </defs>
      <use xlink:href="#frame0121_c82411_DejaVuSans-Oblique-78" transform="translate(0 0.3125)"/>
     </g>
    </g>
   </g>
   <g id="frame0121_c82411_matplotlib.axis_2">
    <g id="frame0121_c82411_ytick_1">
     <g id="frame0121_c82411_line2d_5">
      <path d="M 7.2 278.678125 
L 443.4 278.678125 
" clip-path="url(#frame0121_c82411_p206fdac382)" style="fill: none; stroke-dasharray: 2.96,1.28; stroke-dashoffset: 0; stroke: #b0b0b0; stroke-opacity: 0.6; stroke-width: 0.8"/>
     </g>
     <g id="frame0121_c82411_line2d_6">
      <defs>
       <path id="frame0121_c82411_mfab9a8bfa2" d="M 0 0 
L -3.5 0 
" style="stroke: #000000; stroke-width: 0.8"/>
      </defs>
      <g>
       <use xlink:href="#frame0121_c82411_mfab9a8bfa2" x="225.3" y="278.678125" style="stroke: #000000; stroke-width: 0.8"/>
      </g>
     </g>
     <g id="frame0121_c82411_text_4">
      <!-- −1 -->
      <g transform="translate(188.815625 286.276562) scale(0.2 -0.2)">
       <use xlink:href="#frame0121_c82411_DejaVuSans-2212"/>
       <use xlink:href="#frame0121_c82411_DejaVuSans-31" x="83.789062"/>
      </g>
     </g>
    </g>
    <g id="frame0121_c82411_ytick_2">
     <g id="frame0121_c82411_line2d_7">
      <path d="M 7.2 69.638125 
L 443.4 69.638125 
" clip-path="url(#frame0121_c82411_p206fdac382)" style="fill: none; stroke-dasharray: 2.96,1.28; stroke-dashoffset: 0; stroke: #b0b0b0; stroke-opacity: 0.6; stroke-width: 0.8"/>
     </g>
     <g id="frame0121_c82411_line2d_8">
      <g>
       <use xlink:href="#frame0121_c82411_mfab9a8bfa2" x="225.3" y="69.638125" style="stroke: #000000; stroke-width: 0.8"/>
      </g>
     </g>
     <g id="frame0121_c82411_text_5">
      <!-- 1 -->
      <g transform="translate(205.575 77.236562) scale(0.2 -0.2)">
       <use xlink:href="#frame0121_c82411_DejaVuSans-31"/>
      </g>
     </g>
    </g>
    <g id="frame0121_c82411_text_6">
     <!-- $y$ -->
     <g transform="translate(172.815625 13.178125) scale(0.2 -0.2)">
      <defs>
       <path id="frame0121_c82411_DejaVuSans-Oblique-79" d="M 1588 -325 
Q 1188 -997 936 -1164 
Q 684 -1331 294 -1331 
L -159 -1331 
L -63 -850 
L 269 -850 
Q 509 -850 678 -719 
Q 847 -588 1056 -206 
L 1234 128 
L 459 3500 
L 1069 3500 
L 1650 819 
L 3256 3500 
L 3859 3500 
L 1588 -325 
z
" transform="scale(0.015625)"/>
      </defs>
      <use xlink:href="#frame0121_c82411_DejaVuSans-Oblique-79" transform="translate(0 0.3125)"/>
     </g>
    </g>
   </g>
   <g id="frame0121_c82411_line2d_9">
    <defs>
     <path id="frame0121_c82411_m008fedf5b1" d="M 3 0 
L -3 -3 
L -3 3 
z
" style="stroke: #000000; stroke-linejoin: miter"/>
    </defs>
    <g>
     <use xlink:href="#frame0121_c82411_m008fedf5b1" x="443.4" y="174.158125" style="stroke: #000000; stroke-linejoin: miter"/>
    </g>
   </g>
   <g id="frame0121_c82411_line2d_10">
    <defs>
     <path id="frame0121_c82411_m516f513529" d="M 0 -3 
L -3 3 
L 3 3 
z
" style="stroke: #000000; stroke-linejoin: miter"/>
    </defs>
    <g>
     <use xlink:href="#frame0121_c82411_m516f513529" x="225.3" y="17.378125" style="stroke: #000000; stroke-linejoin: miter"/>
    </g>
   </g>
   <g id="frame0121_c82411_line2d_11">
    <defs>
     <path id="frame0121_c82411_m307e21d8e5" d="M 0 5 
C 1.326016 5 2.597899 4.473168 3.535534 3.535534 
C 4.473168 2.597899 5 1.326016 5 0 
C 5 -1.326016 4.473168 -2.597899 3.535534 -3.535534 
C 2.597899 -4.473168 1.326016 -5 0 -5 
C -1.326016 -5 -2.597899 -4.473168 -3.535534 -3.535534 
C -4.473168 -2.597899 -5 -1.326016 -5 0 
C -5 1.326016 -4.473168 2.597899 -3.535534 3.535534 
C -2.597899 4.473168 -1.326016 5 0 5 
z
" style="stroke: #000000; stroke-opacity: 0.8"/>
    </defs>
    <g clip-path="url(#frame0121_c82411_p206fdac382)">
     <use xlink:href="#frame0121_c82411_m307e21d8e5" x="364.340868" y="204.730552" style="fill-opacity: 0.8; stroke: #000000; stroke-opacity: 0.8"/>
    </g>
   </g>
   <g id="frame0121_c82411_line2d_12">
    <path d="M 370.7 174.158125 
L 370.634216 171.014416 
L 370.436925 167.873552 
L 370.108303 164.738374 
L 369.64865 161.61172 
L 369.058381 158.496419 
L 368.33803 155.395289 
L 367.488248 152.311137 
L 366.509805 149.246754 
L 365.403586 146.204913 
L 364.170593 143.188365 
L 362.81194 140.199841 
L 361.328857 137.242044 
L 359.722687 134.317652 
L 357.994881 131.42931 
L 356.147005 128.579631 
L 354.18073 125.771195 
L 352.097835 123.006543 
L 349.900205 120.288176 
L 347.589829 117.618554 
L 345.168797 115.000093 
L 342.6393 112.435162 
L 340.003626 109.926082 
L 337.264161 107.475123 
L 334.423383 105.084504 
L 328.448262 100.492878 
L 322.099884 96.167821 
L 315.401221 92.124983 
L 308.376515 88.378994 
L 301.051184 84.943409 
L 293.451736 81.83066 
L 285.605671 79.052011 
L 277.541382 76.617518 
L 269.28805 74.535989 
L 260.875541 72.814958 
L 252.334296 71.460651 
L 243.695224 70.47797 
L 234.989586 69.87047 
L 226.248885 69.640351 
L 217.504751 69.788444 
L 208.788824 70.314213 
L 200.132646 71.215757 
L 191.567539 72.489813 
L 183.124498 74.13177 
L 174.834076 76.135687 
L 166.726271 78.494312 
L 158.830424 81.19911 
L 151.175107 84.240295 
L 143.788021 87.606859 
L 136.695898 91.286622 
L 129.924402 95.266267 
L 123.498036 99.531394 
L 117.440055 104.066569 
L 111.772381 108.85538 
L 109.091376 111.339518 
L 106.515523 113.880498 
L 104.047155 116.476022 
L 101.688504 119.12374 
L 99.441705 121.821256 
L 97.308791 124.566131 
L 95.291691 127.35588 
L 93.392232 130.187978 
L 91.612132 133.059864 
L 89.953001 135.968938 
L 88.416341 138.912568 
L 87.003542 141.88809 
L 85.715883 144.892813 
L 84.554529 147.924017 
L 83.520531 150.978959 
L 82.614824 154.054875 
L 81.838228 157.148982 
L 81.191445 160.25848 
L 80.675062 163.380555 
L 80.289545 166.512382 
L 80.035242 169.651128 
L 79.912385 172.793952 
L 79.921084 175.93801 
L 80.061331 179.080458 
L 80.333 182.218452 
L 80.735845 185.349152 
L 81.2695 188.469726 
L 81.933484 191.57735 
L 82.727196 194.669212 
L 83.649916 197.742514 
L 84.700811 200.794475 
L 85.87893 203.822334 
L 87.183205 206.823351 
L 88.612458 209.79481 
L 90.165395 212.734023 
L 91.84061 215.63833 
L 93.636589 218.505103 
L 95.551704 221.331747 
L 97.584225 224.115706 
L 99.732311 226.85446 
L 101.99402 229.545531 
L 104.367303 232.186484 
L 106.850015 234.774929 
L 109.439907 237.308524 
L 112.134638 239.784976 
L 114.931768 242.202045 
L 120.823012 246.849339 
L 127.092321 251.233589 
L 133.717009 255.338931 
L 140.673102 259.150509 
L 147.935431 262.654529 
L 155.477714 265.838312 
L 163.27266 268.690337 
L 171.29206 271.200284 
L 179.506895 273.35907 
L 187.88744 275.158883 
L 196.403367 276.59321 
L 205.023861 277.656861 
L 213.717728 278.345987 
L 222.453506 278.658094 
L 231.199585 278.592053 
L 239.924315 278.148103 
L 248.596125 277.32785 
L 257.183634 276.134262 
L 265.655769 274.571659 
L 273.98187 272.645696 
L 282.131808 270.36334 
L 290.076093 267.732853 
L 297.785976 264.763752 
L 305.233557 261.466781 
L 312.391888 257.853871 
L 319.235065 253.938096 
L 325.738323 249.733626 
L 331.878132 245.255675 
L 337.632271 240.520448 
L 340.358152 238.061675 
L 342.979921 235.545078 
L 345.495205 232.972935 
L 347.901728 230.347571 
L 350.197314 227.671364 
L 352.379884 224.946735 
L 354.447464 222.176149 
L 356.398183 219.362113 
L 358.230275 216.507173 
L 359.942084 213.613913 
L 361.532059 210.684951 
L 362.998763 207.722937 
L 364.340868 204.730552 
L 364.340868 204.730552 
" clip-path="url(#frame0121_c82411_p206fdac382)" style="fill: none; stroke: #0072b2; stroke-width: 2.5; stroke-linecap: square"/>
   </g>
   <g id="frame0121_c82411_patch_3">
    <path d="M 225.3 330.938125 
L 225.3 17.378125 
" style="fill: none; stroke: #000000; stroke-width: 0.8; stroke-linejoin: miter; stroke-linecap: square"/>
   </g>
   <g id="frame0121_c82411_patch_4">
    <path d="M 443.4 330.938125 
L 443.4 17.378125 
" style="fill: none"/>
   </g>
   <g id="frame0121_c82411_patch_5">
    <path d="M 7.2 174.158125 
L 443.4 174.158125 
" style="fill: none; stroke: #000000; stroke-width: 0.8; stroke-linejoin: miter; stroke-linecap: square"/>
   </g>
   <g id="frame0121_c82411_patch_6">
    <path d="M 7.2 17.378125 
L 443.4 17.378125 
" style="fill: none"/>
   </g>
  </g>
 </g>
 <defs>
  <clipPath id="frame0121_c82411_p206fdac382">
   <rect x="7.2" y="17.378125" width="436.2" height="313.56"/>
  </clipPath>
 </defs>
</svg>
