<?xml version="1.0" encoding="utf-8" standalone="no"?>
<!DOCTYPE svg PUBLIC "-//W3C//DTD SVG 1.1//EN"
  "http://www.w3.org/Graphics/SVG/1.1/DTD/svg11.dtd">
<svg xmlns:xlink="http://www.w3.org/1999/xlink" width="453.6pt" height="338.54pt" viewBox="0 0 453.6 338.54" xmlns="http://www.w3.org/2000/svg" version="1.1">
 <metadata>
  <rdf:RDF xmlns:dc="http://purl.org/dc/elements/1.1/" xmlns:cc="http://creativecommons.org/ns#" xmlns:rdf="http://www.w3.org/1999/02/22-rdf-syntax-ns#">
   <cc:Work>
    <dc:type rdf:resource="http://purl.org/dc/dcmitype/StillImage"/>
    <dc:date>2026-01-22T12:19:52.810514</dc:date>
    <dc:format>image/svg+xml</dc:format>
    <dc:creator>
     <cc:Agent>
      <dc:title>Matplotlib v3.9.1, https://matplotlib.org/</dc:title>
     </cc:Agent>
    </dc:creator>
   </cc:Work>
  </rdf:RDF>
 </metadata>
 <defs>
  <style type="text/css">*{stroke-linejoin: round; stroke-linecap: butt}</style>
 </defs>
 <g id="frame0092_21caa3_figure_1">
  <g id="frame0092_21caa3_patch_1">
   <path d="M 0 338.54 
L 453.6 338.54 
L 453.6 0 
L 0 0 
L 0 338.54 
z
" style="fill: none; opacity: 0"/>
  </g>
  <g id="frame0092_21caa3_axes_1">
   <g id="frame0092_21caa3_patch_2">
    <path d="M 7.2 331.34 
L 443.4 331.34 
L 443.4 16.556315 
L 7.2 16.556315 
L 7.2 331.34 
z
" style="fill: none; opacity: 0"/>
   </g>
   <g id="frame0092_21caa3_matplotlib.axis_1">
    <g id="frame0092_21caa3_xtick_1">
     <g id="frame0092_21caa3_line2d_1">
      <path d="M 79.9 331.34 
L 79.9 16.556315 
" clip-path="url(#frame0092_21caa3_p18416f6a5a)" style="fill: none; stroke-dasharray: 2.96,1.28; stroke-dashoffset: 0; stroke: #b0b0b0; stroke-opacity: 0.6; stroke-width: 0.8"/>
     </g>
     <g id="frame0092_21caa3_line2d_2">
      <defs>
       <path id="frame0092_21caa3_m6d70f15bce" d="M 0 0 
L 0 3.5 
" style="stroke: #000000; stroke-width: 0.8"/>
      </defs>
      <g>
       <use xlink:href="#frame0092_21caa3_m6d70f15bce" x="79.9" y="173.948158" style="stroke: #000000; stroke-width: 0.8"/>
      </g>
     </g>
     <g id="frame0092_21caa3_text_1">
      <!-- $\mathdefault{−1}$ -->
      <g transform="translate(67.582209 194.785154) scale(0.2 -0.2)">
       <defs>
        <path id="frame0092_21caa3_CMSY10-0" d="M 4218 1472 
C 4326 1472 4442 1472 4442 1600 
C 4442 1728 4326 1728 4218 1728 
L 755 1728 
C 646 1728 531 1728 531 1600 
C 531 1472 646 1472 755 1472 
L 4218 1472 
z
" transform="scale(0.015625)"/>
        <path id="frame0092_21caa3_CMR17-31" d="M 1702 4058 
C 1702 4192 1696 4192 1606 4192 
C 1357 3916 979 3827 621 3827 
C 602 3827 570 3827 563 3808 
C 557 3795 557 3782 557 3648 
C 755 3648 1088 3686 1344 3839 
L 1344 461 
C 1344 236 1331 160 781 160 
L 589 160 
L 589 0 
C 896 0 1216 0 1523 0 
C 1830 0 2150 0 2458 0 
L 2458 160 
L 2266 160 
C 1715 160 1702 230 1702 458 
L 1702 4058 
z
" transform="scale(0.015625)"/>
       </defs>
       <use xlink:href="#frame0092_21caa3_CMSY10-0" transform="scale(0.996264)"/>
       <use xlink:href="#frame0092_21caa3_CMR17-31" transform="translate(77.487468 0) scale(0.996264)"/>
      </g>
     </g>
    </g>
    <g id="frame0092_21caa3_xtick_2">
     <g id="frame0092_21caa3_line2d_3">
      <path d="M 370.7 331.34 
L 370.7 16.556315 
" clip-path="url(#frame0092_21caa3_p18416f6a5a)" style="fill: none; stroke-dasharray: 2.96,1.28; stroke-dashoffset: 0; stroke: #b0b0b0; stroke-opacity: 0.6; stroke-width: 0.8"/>
     </g>
     <g id="frame0092_21caa3_line2d_4">
      <g>
       <use xlink:href="#frame0092_21caa3_m6d70f15bce" x="370.7" y="173.948158" style="stroke: #000000; stroke-width: 0.8"/>
      </g>
     </g>
     <g id="frame0092_21caa3_text_2">
      <!-- $\mathdefault{1}$ -->
      <g transform="translate(366.130952 194.785154) scale(0.2 -0.2)">
       <use xlink:href="#frame0092_21caa3_CMR17-31" transform="scale(0.996264)"/>
      </g>
     </g>
    </g>
    <g id="frame0092_21caa3_text_3">
     <!-- $x$ -->
     <g transform="translate(432.313188 216.497785) scale(0.2 -0.2)">
      <defs>
       <path id="frame0092_21caa3_CMMI12-78" d="M 3034 2606 
C 2829 2567 2752 2414 2752 2293 
C 2752 2139 2874 2088 2963 2088 
C 3155 2088 3290 2254 3290 2427 
C 3290 2695 2982 2816 2714 2816 
C 2323 2816 2106 2433 2048 2312 
C 1901 2816 1504 2816 1389 2816 
C 736 2816 390 1980 390 1839 
C 390 1814 416 1782 461 1782 
C 512 1782 525 1820 538 1846 
C 755 2555 1184 2689 1370 2689 
C 1658 2689 1715 2420 1715 2267 
C 1715 2127 1677 1980 1600 1673 
L 1382 798 
C 1286 415 1101 64 762 64 
C 730 64 570 64 435 147 
C 666 192 717 383 717 460 
C 717 588 621 664 499 664 
C 346 664 179 530 179 326 
C 179 57 480 -64 755 -64 
C 1062 -64 1280 179 1414 441 
C 1517 64 1837 -64 2074 -64 
C 2726 -64 3072 773 3072 913 
C 3072 945 3046 971 3008 971 
C 2950 971 2944 939 2925 888 
C 2752 326 2381 64 2093 64 
C 1869 64 1747 230 1747 492 
C 1747 632 1773 734 1875 1156 
L 2099 2024 
C 2195 2408 2413 2689 2707 2689 
C 2720 2689 2899 2689 3034 2606 
z
" transform="scale(0.015625)"/>
      </defs>
      <use xlink:href="#frame0092_21caa3_CMMI12-78" transform="scale(0.996264)"/>
     </g>
    </g>
   </g>
   <g id="frame0092_21caa3_matplotlib.axis_2">
    <g id="frame0092_21caa3_ytick_1">
     <g id="frame0092_21caa3_line2d_5">
      <path d="M 7.2 278.876053 
L 443.4 278.876053 
" clip-path="url(#frame0092_21caa3_p18416f6a5a)" style="fill: none; stroke-dasharray: 2.96,1.28; stroke-dashoffset: 0; stroke: #b0b0b0; stroke-opacity: 0.6; stroke-width: 0.8"/>
     </g>
     <g id="frame0092_21caa3_line2d_6">
      <defs>
       <path id="frame0092_21caa3_m478c6cd71d" d="M 0 0 
L -3.5 0 
" style="stroke: #000000; stroke-width: 0.8"/>
      </defs>
      <g>
       <use xlink:href="#frame0092_21caa3_m478c6cd71d" x="225.3" y="278.876053" style="stroke: #000000; stroke-width: 0.8"/>
      </g>
     </g>
     <g id="frame0092_21caa3_text_4">
      <!-- $\mathdefault{−1}$ -->
      <g transform="translate(193.664417 285.794551) scale(0.2 -0.2)">
       <use xlink:href="#frame0092_21caa3_CMSY10-0" transform="scale(0.996264)"/>
       <use xlink:href="#frame0092_21caa3_CMR17-31" transform="translate(77.487468 0) scale(0.996264)"/>
      </g>
     </g>
    </g>
    <g id="frame0092_21caa3_ytick_2">
     <g id="frame0092_21caa3_line2d_7">
      <path d="M 7.2 69.020263 
L 443.4 69.020263 
" clip-path="url(#frame0092_21caa3_p18416f6a5a)" style="fill: none; stroke-dasharray: 2.96,1.28; stroke-dashoffset: 0; stroke: #b0b0b0; stroke-opacity: 0.6; stroke-width: 0.8"/>
     </g>
     <g id="frame0092_21caa3_line2d_8">
      <g>
       <use xlink:href="#frame0092_21caa3_m478c6cd71d" x="225.3" y="69.020263" style="stroke: #000000; stroke-width: 0.8"/>
      </g>
     </g>
     <g id="frame0092_21caa3_text_5">
      <!-- $\mathdefault{1}$ -->
      <g transform="translate(209.161905 75.938761) scale(0.2 -0.2)">
       <use xlink:href="#frame0092_21caa3_CMR17-31" transform="scale(0.996264)"/>
      </g>
     </g>
    </g>
    <g id="frame0092_21caa3_text_6">
     <!-- $y$ -->
     <g transform="translate(180.151583 12.680682) scale(0.2 -0.2)">
      <defs>
       <path id="frame0092_21caa3_CMMI12-79" d="M 1683 -700 
C 1510 -939 1261 -1152 947 -1152 
C 870 -1152 563 -1152 467 -889 
C 486 -895 518 -895 531 -895 
C 723 -895 851 -729 851 -582 
C 851 -435 730 -384 634 -384 
C 531 -384 307 -458 307 -759 
C 307 -1071 582 -1286 947 -1286 
C 1587 -1286 2234 -700 2413 6 
L 3040 2485 
C 3046 2517 3059 2556 3059 2594 
C 3059 2689 2982 2753 2886 2753 
C 2829 2753 2694 2727 2643 2535 
L 2170 658 
C 2138 543 2138 530 2086 460 
C 1958 281 1747 64 1440 64 
C 1082 64 1050 415 1050 588 
C 1050 952 1222 1443 1395 1903 
C 1466 2088 1504 2178 1504 2305 
C 1504 2574 1312 2816 998 2816 
C 410 2816 173 1890 173 1839 
C 173 1814 198 1782 243 1782 
C 301 1782 307 1807 333 1897 
C 486 2433 730 2689 979 2689 
C 1037 2689 1146 2689 1146 2478 
C 1146 2312 1075 2127 979 1884 
C 666 1047 666 837 666 683 
C 666 77 1101 -64 1421 -64 
C 1606 -64 1837 -6 2061 230 
L 2067 224 
C 1971 -147 1907 -392 1683 -700 
z
" transform="scale(0.015625)"/>
      </defs>
      <use xlink:href="#frame0092_21caa3_CMMI12-79" transform="scale(0.996264)"/>
     </g>
    </g>
   </g>
   <g id="frame0092_21caa3_line2d_9">
    <defs>
     <path id="frame0092_21caa3_m48f063898f" d="M 3 0 
L -3 -3 
L -3 3 
z
" style="stroke: #000000; stroke-linejoin: miter"/>
    </defs>
    <g>
     <use xlink:href="#frame0092_21caa3_m48f063898f" x="443.4" y="173.948158" style="stroke: #000000; stroke-linejoin: miter"/>
    </g>
   </g>
   <g id="frame0092_21caa3_line2d_10">
    <defs>
     <path id="frame0092_21caa3_m863cbb0360" d="M 0 -3 
L -3 3 
L 3 3 
z
" style="stroke: #000000; stroke-linejoin: miter"/>
    </defs>
    <g>
     <use xlink:href="#frame0092_21caa3_m863cbb0360" x="225.3" y="16.556315" style="stroke: #000000; stroke-linejoin: miter"/>
    </g>
   </g>
   <g id="frame0092_21caa3_line2d_11">
    <defs>
     <path id="frame0092_21caa3_mdb68454ee8" d="M 0 5 
C 1.326016 5 2.597899 4.473168 3.535534 3.535534 
C 4.473168 2.597899 5 1.326016 5 0 
C 5 -1.326016 4.473168 -2.597899 3.535534 -3.535534 
C 2.597899 -4.473168 1.326016 -5 0 -5 
C -1.326016 -5 -2.597899 -4.473168 -3.535534 -3.535534 
C -4.473168 -2.597899 -5 -1.326016 -5 0 
C -5 1.326016 -4.473168 2.597899 -3.535534 3.535534 
C -2.597899 4.473168 -1.326016 5 0 5 
z
" style="stroke: #000000; stroke-opacity: 0.8"/>
    </defs>
    <g clip-path="url(#frame0092_21caa3_p18416f6a5a)">
     <use xlink:href="#frame0092_21caa3_mdb68454ee8" x="202.021716" y="277.522597" style="fill-opacity: 0.8; stroke: #000000; stroke-opacity: 0.8"/>
    </g>
   </g>
   <g id="frame0092_21caa3_line2d_12">
    <path d="M 370.7 173.948158 
L 370.547896 169.149935 
L 370.091902 164.361752 
L 369.332973 159.593625 
L 368.272696 154.855531 
L 366.91329 150.157383 
L 365.257598 145.50901 
L 363.309085 140.920138 
L 361.071828 136.400368 
L 358.550507 131.959156 
L 355.750397 127.605793 
L 352.677357 123.349389 
L 349.337817 119.198848 
L 345.738763 115.162855 
L 341.887725 111.249853 
L 337.792761 107.468029 
L 333.462438 103.825296 
L 328.905816 100.329275 
L 324.132429 96.98728 
L 319.152263 93.806304 
L 313.975738 90.793002 
L 308.613684 87.953678 
L 303.07732 85.294273 
L 297.37823 82.820351 
L 291.528336 80.537087 
L 285.539879 78.44926 
L 279.425387 76.561237 
L 273.197653 74.876968 
L 266.869707 73.399977 
L 260.454788 72.133354 
L 253.966318 71.07975 
L 247.417872 70.241368 
L 240.82315 69.619964 
L 234.195951 69.216836 
L 227.55014 69.032828 
L 220.899621 69.068326 
L 214.258308 69.323254 
L 207.640097 69.797081 
L 201.058834 70.488814 
L 194.528289 71.397005 
L 188.062125 72.519756 
L 181.67387 73.854717 
L 175.376891 75.399094 
L 169.184361 77.149657 
L 163.109238 79.102744 
L 157.16423 81.254267 
L 151.361778 83.599725 
L 145.71402 86.134212 
L 140.232772 88.852425 
L 134.929504 91.748676 
L 129.81531 94.816905 
L 124.90089 98.050695 
L 120.196527 101.443278 
L 115.712063 104.987556 
L 111.45688 108.676115 
L 107.439881 112.501237 
L 103.669471 116.454919 
L 100.153538 120.52889 
L 96.899438 124.714625 
L 93.913979 129.003366 
L 91.203408 133.386142 
L 88.773396 137.853783 
L 86.629027 142.39694 
L 84.774787 147.00611 
L 83.214556 151.671648 
L 81.951598 156.383793 
L 80.988555 161.132687 
L 80.327443 165.908393 
L 79.969644 170.70092 
L 79.915908 175.500241 
L 80.166346 180.296315 
L 80.720435 185.079107 
L 81.577015 189.838611 
L 82.734294 194.564869 
L 84.189851 199.247992 
L 85.940641 203.878182 
L 87.983 208.445752 
L 90.312656 212.941146 
L 92.924735 217.354959 
L 95.81377 221.677955 
L 98.973719 225.90109 
L 102.397969 230.015528 
L 106.079356 234.012662 
L 110.010179 237.884128 
L 114.182212 241.621826 
L 118.586728 245.217936 
L 123.214511 248.664935 
L 128.055878 251.95561 
L 133.100701 255.083077 
L 138.338424 258.040792 
L 143.75809 260.822568 
L 149.348358 263.422583 
L 155.097534 265.835399 
L 160.993588 268.055968 
L 167.024186 270.079642 
L 173.176708 271.902189 
L 179.438284 273.519796 
L 185.795812 274.929077 
L 192.235991 276.127084 
L 198.745348 277.111312 
L 202.021716 277.522597 
L 202.021716 277.522597 
" clip-path="url(#frame0092_21caa3_p18416f6a5a)" style="fill: none; stroke: #0072b2; stroke-width: 2.5; stroke-linecap: square"/>
   </g>
   <g id="frame0092_21caa3_patch_3">
    <path d="M 225.3 331.34 
L 225.3 16.556315 
" style="fill: none; stroke: #000000; stroke-width: 0.8; stroke-linejoin: miter; stroke-linecap: square"/>
   </g>
   <g id="frame0092_21caa3_patch_4">
    <path d="M 443.4 331.34 
L 443.4 16.556315 
" style="fill: none"/>
   </g>
   <g id="frame0092_21caa3_patch_5">
    <path d="M 7.2 173.948158 
L 443.4 173.948158 
" style="fill: none; stroke: #000000; stroke-width: 0.8; stroke-linejoin: miter; stroke-linecap: square"/>
   </g>
   <g id="frame0092_21caa3_patch_6">
    <path d="M 7.2 16.556315 
L 443.4 16.556315 
" style="fill: none"/>
   </g>
   <g id="frame0092_21caa3_text_7">
    <!-- a = {a*180/pi:.2f}° -->
    <g transform="translate(301.781937 283.856742) scale(0.2 -0.2)">
     <defs>
      <path id="frame0092_21caa3_CMSS17-61" d="M 2406 1791 
C 2406 2392 1978 2808 1402 2808 
C 1120 2808 813 2757 461 2553 
L 499 2135 
C 659 2248 934 2432 1395 2432 
C 1722 2432 1920 2180 1920 1782 
L 1920 1536 
C 896 1536 256 1238 256 726 
C 256 461 416 -64 947 -64 
C 1043 -64 1562 -64 1933 217 
L 1933 -19 
L 2406 -19 
L 2406 1791 
z
M 1920 816 
C 1920 701 1920 548 1728 434 
C 1562 325 1350 325 1261 325 
C 941 325 723 511 723 744 
C 723 1211 1722 1211 1920 1211 
L 1920 816 
z
" transform="scale(0.015625)"/>
      <path id="frame0092_21caa3_CMSS17-3d" d="M 4147 2017 
C 4243 2017 4339 2017 4339 2125 
C 4339 2240 4230 2240 4122 2240 
L 550 2240 
C 442 2240 333 2240 333 2125 
C 333 2017 429 2017 525 2017 
L 4147 2017 
z
M 4122 896 
C 4230 896 4339 896 4339 1011 
C 4339 1119 4243 1119 4147 1119 
L 525 1119 
C 429 1119 333 1119 333 1011 
C 333 896 442 896 550 896 
L 4122 896 
z
" transform="scale(0.015625)"/>
      <path id="frame0092_21caa3_CMSS17-2a" d="M 1664 3121 
L 2253 2694 
C 2330 2637 2349 2624 2406 2624 
C 2509 2624 2624 2720 2624 2847 
C 2624 2968 2534 3019 2483 3044 
L 1798 3414 
L 2490 3783 
C 2566 3828 2624 3892 2624 3981 
C 2624 4108 2509 4204 2406 4204 
C 2349 4204 2304 4178 2253 4140 
L 1664 3707 
L 1715 4570 
C 1715 4717 1606 4788 1498 4788 
C 1408 4788 1286 4724 1286 4570 
L 1338 3707 
L 749 4134 
C 672 4191 653 4204 595 4204 
C 493 4204 378 4108 378 3981 
C 378 3860 467 3809 518 3783 
L 1203 3414 
L 512 3044 
C 435 3000 378 2936 378 2847 
C 378 2720 493 2624 595 2624 
C 653 2624 698 2649 749 2688 
L 1338 3121 
L 1286 2264 
C 1286 2118 1395 2048 1504 2048 
C 1594 2048 1715 2111 1715 2263 
L 1709 2320 
L 1664 3121 
z
" transform="scale(0.015625)"/>
      <path id="frame0092_21caa3_CMSS17-31" d="M 1818 4288 
L 1696 4288 
C 1350 3940 947 3890 538 3890 
L 538 3520 
C 723 3520 1024 3520 1325 3667 
L 1325 369 
L 570 369 
L 570 0 
L 2573 0 
L 2573 369 
L 1818 369 
L 1818 4288 
z
" transform="scale(0.015625)"/>
      <path id="frame0092_21caa3_CMSS17-38" d="M 1933 2222 
C 2419 2380 2669 2760 2669 3134 
C 2669 3722 2157 4229 1504 4229 
C 826 4229 333 3708 333 3144 
C 333 2780 576 2403 1069 2241 
C 442 1997 250 1512 250 1149 
C 250 446 819 -128 1498 -128 
C 2202 -128 2752 455 2752 1138 
C 2752 1557 2502 2000 1933 2222 
z
M 1504 2432 
C 1075 2432 787 2712 787 3136 
C 787 3566 1075 3840 1504 3840 
C 1901 3840 2214 3591 2214 3136 
C 2214 2687 1907 2432 1504 2432 
z
M 1504 267 
C 1139 267 749 517 749 1156 
C 749 1813 1184 2043 1498 2043 
C 1843 2043 2253 1800 2253 1156 
C 2253 491 1830 267 1504 267 
z
" transform="scale(0.015625)"/>
      <path id="frame0092_21caa3_CMSS17-30" d="M 2758 2044 
C 2758 2405 2752 3077 2490 3596 
C 2227 4096 1805 4229 1504 4229 
C 1069 4229 698 3975 506 3570 
C 301 3146 243 2709 243 2044 
C 243 1589 262 1031 493 543 
C 755 5 1197 -128 1498 -128 
C 1894 -128 2278 81 2496 518 
C 2720 974 2758 1474 2758 2044 
z
M 1498 261 
C 1011 261 864 811 819 995 
C 742 1310 730 1614 730 2114 
C 730 2506 730 2948 851 3297 
C 998 3701 1254 3840 1498 3840 
C 1971 3840 2125 3372 2176 3208 
C 2272 2873 2272 2481 2272 2114 
C 2272 1526 2272 261 1498 261 
z
" transform="scale(0.015625)"/>
      <path id="frame0092_21caa3_CMSS17-2f" d="M 2637 4545 
C 2669 4627 2669 4640 2669 4653 
C 2669 4729 2611 4768 2560 4768 
C 2483 4768 2458 4717 2432 4640 
L 365 -1377 
C 333 -1460 333 -1473 333 -1486 
C 333 -1562 390 -1600 442 -1600 
C 518 -1600 544 -1549 570 -1473 
L 2637 4545 
z
" transform="scale(0.015625)"/>
      <path id="frame0092_21caa3_CMSS17-70" d="M 966 333 
C 1178 129 1466 -5 1773 -5 
C 2368 -5 2880 603 2880 1412 
C 2880 2159 2496 2816 1946 2816 
C 1626 2816 1242 2702 954 2472 
L 954 2765 
L 480 2765 
L 480 -1216 
L 966 -1216 
L 966 333 
z
M 966 2100 
C 1018 2176 1235 2415 1587 2415 
C 2035 2415 2394 1960 2394 1412 
C 2394 787 1958 384 1530 384 
C 1402 384 1267 415 1139 523 
C 966 674 966 768 966 857 
L 966 2100 
z
" transform="scale(0.015625)"/>
      <path id="frame0092_21caa3_CMSS17-69" d="M 979 4183 
L 442 4183 
L 442 3648 
L 979 3648 
L 979 4183 
z
M 947 2739 
L 474 2739 
L 474 0 
L 947 0 
L 947 2739 
z
" transform="scale(0.015625)"/>
      <path id="frame0092_21caa3_CMSS17-3a" d="M 1088 2749 
L 576 2749 
L 576 2240 
L 1088 2240 
L 1088 2749 
z
M 576 510 
L 576 0 
L 1088 0 
L 1088 510 
L 576 510 
z
" transform="scale(0.015625)"/>
      <path id="frame0092_21caa3_CMSS17-2e" d="M 1088 510 
L 576 510 
L 576 0 
L 1088 0 
L 1088 510 
z
" transform="scale(0.015625)"/>
      <path id="frame0092_21caa3_CMSS17-32" d="M 1651 1357 
C 1830 1541 2099 1764 2285 1987 
C 2464 2204 2701 2511 2701 2957 
C 2701 3657 2227 4288 1421 4288 
C 787 4288 422 3893 250 3274 
L 499 2929 
C 640 3510 838 3880 1338 3880 
C 1888 3880 2195 3433 2195 2942 
C 2195 2355 1747 1901 1408 1563 
C 1030 1187 659 804 301 408 
L 301 0 
L 2701 0 
L 2701 433 
L 1613 433 
C 1536 433 1459 433 1382 433 
L 742 433 
L 742 439 
L 1651 1357 
z
" transform="scale(0.015625)"/>
      <path id="frame0092_21caa3_CMSS17-66" d="M 1075 2368 
L 1722 2368 
L 1722 2737 
L 1062 2737 
L 1062 3559 
C 1062 4014 1408 4092 1606 4092 
C 1670 4092 1850 4092 2080 4009 
L 2080 4429 
C 1933 4461 1754 4480 1613 4480 
C 1018 4480 602 3993 602 3359 
L 602 2737 
L 160 2737 
L 160 2368 
L 602 2368 
L 602 0 
L 1075 0 
L 1075 2368 
z
" transform="scale(0.015625)"/>
      <path id="frame0092_21caa3_SFSS3583-b0" d="M 890 4352 
C 544 4307 326 4016 326 3712 
C 326 3389 576 3072 960 3072 
L 1018 3072 
C 1357 3117 1587 3408 1587 3712 
C 1587 4042 1312 4352 947 4352 
L 890 4352 
z
M 525 3673 
L 525 3712 
C 525 3939 723 4139 947 4139 
C 1178 4139 1338 3960 1382 3751 
L 1382 3711 
C 1382 3482 1184 3278 960 3278 
C 730 3278 570 3460 525 3673 
z
" transform="scale(0.015625)"/>
     </defs>
     <use xlink:href="#frame0092_21caa3_CMSS17-61" transform="scale(0.996264)"/>
     <use xlink:href="#frame0092_21caa3_CMSS17-3d" transform="translate(76.151033 0) scale(0.996264)"/>
     <use xlink:href="#frame0092_21caa3_CMSS17-61" transform="translate(180.248081 0) scale(0.996264)"/>
     <use xlink:href="#frame0092_21caa3_CMSS17-2a" transform="translate(225.170002 0) scale(0.996264)"/>
     <use xlink:href="#frame0092_21caa3_CMSS17-31" transform="translate(272.013625 0) scale(0.996264)"/>
     <use xlink:href="#frame0092_21caa3_CMSS17-38" transform="translate(318.857249 0) scale(0.996264)"/>
     <use xlink:href="#frame0092_21caa3_CMSS17-30" transform="translate(365.700872 0) scale(0.996264)"/>
     <use xlink:href="#frame0092_21caa3_CMSS17-2f" transform="translate(412.544496 0) scale(0.996264)"/>
     <use xlink:href="#frame0092_21caa3_CMSS17-70" transform="translate(459.388119 0) scale(0.996264)"/>
     <use xlink:href="#frame0092_21caa3_CMSS17-69" transform="translate(507.593062 0) scale(0.996264)"/>
     <use xlink:href="#frame0092_21caa3_CMSS17-3a" transform="translate(529.773785 0) scale(0.996264)"/>
     <use xlink:href="#frame0092_21caa3_CMSS17-2e" transform="translate(555.79799 0) scale(0.996264)"/>
     <use xlink:href="#frame0092_21caa3_CMSS17-32" transform="translate(581.822195 0) scale(0.996264)"/>
     <use xlink:href="#frame0092_21caa3_CMSS17-66" transform="translate(628.665819 0) scale(0.996264)"/>
     <use xlink:href="#frame0092_21caa3_SFSS3583-b0" transform="translate(657.292477 0) scale(0.356961)"/>
    </g>
   </g>
  </g>
 </g>
 <defs>
  <clipPath id="frame0092_21caa3_p18416f6a5a">
   <rect x="7.2" y="16.556315" width="436.2" height="314.783685"/>
  </clipPath>
 </defs>
</svg>
