<?xml version="1.0" encoding="utf-8" standalone="no"?>
<!DOCTYPE svg PUBLIC "-//W3C//DTD SVG 1.1//EN"
  "http://www.w3.org/Graphics/SVG/1.1/DTD/svg11.dtd">
<svg xmlns:xlink="http://www.w3.org/1999/xlink" width="453.6pt" height="338.138125pt" viewBox="0 0 453.6 338.138125" xmlns="http://www.w3.org/2000/svg" version="1.1">
 <metadata>
  <rdf:RDF xmlns:dc="http://purl.org/dc/elements/1.1/" xmlns:cc="http://creativecommons.org/ns#" xmlns:rdf="http://www.w3.org/1999/02/22-rdf-syntax-ns#">
   <cc:Work>
    <dc:type rdf:resource="http://purl.org/dc/dcmitype/StillImage"/>
    <dc:date>2026-01-22T01:05:27.983544</dc:date>
    <dc:format>image/svg+xml</dc:format>
    <dc:creator>
     <cc:Agent>
      <dc:title>Matplotlib v3.9.1, https://matplotlib.org/</dc:title>
     </cc:Agent>
    </dc:creator>
   </cc:Work>
  </rdf:RDF>
 </metadata>
 <defs>
  <style type="text/css">*{stroke-linejoin: round; stroke-linecap: butt}</style>
 </defs>
 <g id="frame0066_21089a_figure_1">
  <g id="frame0066_21089a_patch_1">
   <path d="M 0 338.138125 
L 453.6 338.138125 
L 453.6 0 
L 0 0 
L 0 338.138125 
z
" style="fill: none; opacity: 0"/>
  </g>
  <g id="frame0066_21089a_axes_1">
   <g id="frame0066_21089a_patch_2">
    <path d="M 7.2 330.938125 
L 443.4 330.938125 
L 443.4 17.378125 
L 7.2 17.378125 
L 7.2 330.938125 
z
" style="fill: none; opacity: 0"/>
   </g>
   <g id="frame0066_21089a_matplotlib.axis_1">
    <g id="frame0066_21089a_xtick_1">
     <g id="frame0066_21089a_line2d_1">
      <path d="M 79.9 330.938125 
L 79.9 17.378125 
" clip-path="url(#frame0066_21089a_p5bf12c25cc)" style="fill: none; stroke-dasharray: 2.96,1.28; stroke-dashoffset: 0; stroke: #b0b0b0; stroke-opacity: 0.6; stroke-width: 0.8"/>
     </g>
     <g id="frame0066_21089a_line2d_2">
      <defs>
       <path id="frame0066_21089a_mc407ef0bee" d="M 0 0 
L 0 3.5 
" style="stroke: #000000; stroke-width: 0.8"/>
      </defs>
      <g>
       <use xlink:href="#frame0066_21089a_mc407ef0bee" x="79.9" y="174.158125" style="stroke: #000000; stroke-width: 0.8"/>
      </g>
     </g>
     <g id="frame0066_21089a_text_1">
      <!-- −1 -->
      <g transform="translate(65.157813 196.355) scale(0.2 -0.2)">
       <defs>
        <path id="frame0066_21089a_DejaVuSans-2212" d="M 678 2272 
L 4684 2272 
L 4684 1741 
L 678 1741 
L 678 2272 
z
" transform="scale(0.015625)"/>
        <path id="frame0066_21089a_DejaVuSans-31" d="M 794 531 
L 1825 531 
L 1825 4091 
L 703 3866 
L 703 4441 
L 1819 4666 
L 2450 4666 
L 2450 531 
L 3481 531 
L 3481 0 
L 794 0 
L 794 531 
z
" transform="scale(0.015625)"/>
       </defs>
       <use xlink:href="#frame0066_21089a_DejaVuSans-2212"/>
       <use xlink:href="#frame0066_21089a_DejaVuSans-31" x="83.789062"/>
      </g>
     </g>
    </g>
    <g id="frame0066_21089a_xtick_2">
     <g id="frame0066_21089a_line2d_3">
      <path d="M 370.7 330.938125 
L 370.7 17.378125 
" clip-path="url(#frame0066_21089a_p5bf12c25cc)" style="fill: none; stroke-dasharray: 2.96,1.28; stroke-dashoffset: 0; stroke: #b0b0b0; stroke-opacity: 0.6; stroke-width: 0.8"/>
     </g>
     <g id="frame0066_21089a_line2d_4">
      <g>
       <use xlink:href="#frame0066_21089a_mc407ef0bee" x="370.7" y="174.158125" style="stroke: #000000; stroke-width: 0.8"/>
      </g>
     </g>
     <g id="frame0066_21089a_text_2">
      <!-- 1 -->
      <g transform="translate(364.3375 196.355) scale(0.2 -0.2)">
       <use xlink:href="#frame0066_21089a_DejaVuSans-31"/>
      </g>
     </g>
    </g>
    <g id="frame0066_21089a_text_3">
     <!-- $x$ -->
     <g transform="translate(431.4 219.71125) scale(0.2 -0.2)">
      <defs>
       <path id="frame0066_21089a_DejaVuSans-Oblique-78" d="M 3841 3500 
L 2234 1784 
L 3219 0 
L 2559 0 
L 1819 1388 
L 531 0 
L -166 0 
L 1556 1844 
L 641 3500 
L 1300 3500 
L 1972 2234 
L 3144 3500 
L 3841 3500 
z
" transform="scale(0.015625)"/>
      </defs>
      <use xlink:href="#frame0066_21089a_DejaVuSans-Oblique-78" transform="translate(0 0.3125)"/>
     </g>
    </g>
   </g>
   <g id="frame0066_21089a_matplotlib.axis_2">
    <g id="frame0066_21089a_ytick_1">
     <g id="frame0066_21089a_line2d_5">
      <path d="M 7.2 278.678125 
L 443.4 278.678125 
" clip-path="url(#frame0066_21089a_p5bf12c25cc)" style="fill: none; stroke-dasharray: 2.96,1.28; stroke-dashoffset: 0; stroke: #b0b0b0; stroke-opacity: 0.6; stroke-width: 0.8"/>
     </g>
     <g id="frame0066_21089a_line2d_6">
      <defs>
       <path id="frame0066_21089a_ma6b208aeda" d="M 0 0 
L -3.5 0 
" style="stroke: #000000; stroke-width: 0.8"/>
      </defs>
      <g>
       <use xlink:href="#frame0066_21089a_ma6b208aeda" x="225.3" y="278.678125" style="stroke: #000000; stroke-width: 0.8"/>
      </g>
     </g>
     <g id="frame0066_21089a_text_4">
      <!-- −1 -->
      <g transform="translate(188.815625 286.276562) scale(0.2 -0.2)">
       <use xlink:href="#frame0066_21089a_DejaVuSans-2212"/>
       <use xlink:href="#frame0066_21089a_DejaVuSans-31" x="83.789062"/>
      </g>
     </g>
    </g>
    <g id="frame0066_21089a_ytick_2">
     <g id="frame0066_21089a_line2d_7">
      <path d="M 7.2 69.638125 
L 443.4 69.638125 
" clip-path="url(#frame0066_21089a_p5bf12c25cc)" style="fill: none; stroke-dasharray: 2.96,1.28; stroke-dashoffset: 0; stroke: #b0b0b0; stroke-opacity: 0.6; stroke-width: 0.8"/>
     </g>
     <g id="frame0066_21089a_line2d_8">
      <g>
       <use xlink:href="#frame0066_21089a_ma6b208aeda" x="225.3" y="69.638125" style="stroke: #000000; stroke-width: 0.8"/>
      </g>
     </g>
     <g id="frame0066_21089a_text_5">
      <!-- 1 -->
      <g transform="translate(205.575 77.236562) scale(0.2 -0.2)">
       <use xlink:href="#frame0066_21089a_DejaVuSans-31"/>
      </g>
     </g>
    </g>
    <g id="frame0066_21089a_text_6">
     <!-- $y$ -->
     <g transform="translate(172.815625 13.178125) scale(0.2 -0.2)">
      <defs>
       <path id="frame0066_21089a_DejaVuSans-Oblique-79" d="M 1588 -325 
Q 1188 -997 936 -1164 
Q 684 -1331 294 -1331 
L -159 -1331 
L -63 -850 
L 269 -850 
Q 509 -850 678 -719 
Q 847 -588 1056 -206 
L 1234 128 
L 459 3500 
L 1069 3500 
L 1650 819 
L 3256 3500 
L 3859 3500 
L 1588 -325 
z
" transform="scale(0.015625)"/>
      </defs>
      <use xlink:href="#frame0066_21089a_DejaVuSans-Oblique-79" transform="translate(0 0.3125)"/>
     </g>
    </g>
   </g>
   <g id="frame0066_21089a_line2d_9">
    <defs>
     <path id="frame0066_21089a_m29952fdc2a" d="M 3 0 
L -3 -3 
L -3 3 
z
" style="stroke: #000000; stroke-linejoin: miter"/>
    </defs>
    <g>
     <use xlink:href="#frame0066_21089a_m29952fdc2a" x="443.4" y="174.158125" style="stroke: #000000; stroke-linejoin: miter"/>
    </g>
   </g>
   <g id="frame0066_21089a_line2d_10">
    <defs>
     <path id="frame0066_21089a_m317f4f4793" d="M 0 -3 
L -3 3 
L 3 3 
z
" style="stroke: #000000; stroke-linejoin: miter"/>
    </defs>
    <g>
     <use xlink:href="#frame0066_21089a_m317f4f4793" x="225.3" y="17.378125" style="stroke: #000000; stroke-linejoin: miter"/>
    </g>
   </g>
   <g id="frame0066_21089a_line2d_11">
    <defs>
     <path id="frame0066_21089a_m9a03129072" d="M 0 5 
C 1.326016 5 2.597899 4.473168 3.535534 3.535534 
C 4.473168 2.597899 5 1.326016 5 0 
C 5 -1.326016 4.473168 -2.597899 3.535534 -3.535534 
C 2.597899 -4.473168 1.326016 -5 0 -5 
C -1.326016 -5 -2.597899 -4.473168 -3.535534 -3.535534 
C -4.473168 -2.597899 -5 -1.326016 -5 0 
C -5 1.326016 -4.473168 2.597899 -3.535534 3.535534 
C -2.597899 4.473168 -1.326016 5 0 5 
z
" style="stroke: #000000; stroke-opacity: 0.8"/>
    </defs>
    <g clip-path="url(#frame0066_21089a_p5bf12c25cc)">
     <use xlink:href="#frame0066_21089a_m9a03129072" x="81.010742" y="187.05272" style="fill-opacity: 0.8; stroke: #000000; stroke-opacity: 0.8"/>
    </g>
   </g>
   <g id="frame0066_21089a_line2d_12">
    <path d="M 370.7 174.158125 
L 370.621713 170.728723 
L 370.386936 167.303013 
L 369.995923 163.884686 
L 369.449094 160.477421 
L 368.747038 157.084888 
L 367.890511 153.710741 
L 366.880436 150.358613 
L 365.717899 147.032113 
L 364.404154 143.734824 
L 362.940615 140.470295 
L 361.328857 137.242044 
L 358.637151 132.475279 
L 355.622418 127.809496 
L 352.29196 123.256 
L 348.653846 118.825821 
L 344.71689 114.529692 
L 340.490631 110.378021 
L 335.985305 106.380866 
L 331.21183 102.547912 
L 326.181768 98.888443 
L 320.907306 95.411325 
L 315.401221 92.124983 
L 309.676854 89.037377 
L 303.748073 86.155989 
L 297.62924 83.487797 
L 291.335179 81.039267 
L 284.881139 78.816331 
L 278.282755 76.824374 
L 271.556013 75.068221 
L 264.717209 73.552127 
L 257.782912 72.279765 
L 250.76992 71.254218 
L 243.695224 70.47797 
L 236.575963 69.952902 
L 229.429384 69.680285 
L 222.272801 69.66078 
L 215.123552 69.894435 
L 207.998957 70.380683 
L 200.916277 71.118347 
L 193.892669 72.105639 
L 186.945149 73.340167 
L 180.09055 74.818941 
L 173.345477 76.538378 
L 166.726271 78.494312 
L 160.248968 80.682005 
L 153.92926 83.096158 
L 147.782458 85.73092 
L 141.823453 88.57991 
L 136.066682 91.636225 
L 130.52609 94.892461 
L 125.215102 98.340729 
L 120.146583 101.972675 
L 115.332814 105.779501 
L 110.785455 109.751983 
L 106.515523 113.880498 
L 102.533364 118.155044 
L 98.848624 122.565266 
L 95.47023 127.100478 
L 92.406366 131.749694 
L 89.664457 136.50165 
L 88.018693 139.721024 
L 86.52076 142.977481 
L 85.172272 146.267514 
L 83.97468 149.587582 
L 82.929274 152.934108 
L 82.03718 156.30349 
L 81.299359 159.692098 
L 80.716604 163.096284 
L 80.289545 166.512382 
L 80.018639 169.936713 
L 79.90418 173.365591 
L 79.94629 176.795321 
L 80.144925 180.222212 
L 80.499869 183.642572 
L 81.010742 187.05272 
L 81.010742 187.05272 
" clip-path="url(#frame0066_21089a_p5bf12c25cc)" style="fill: none; stroke: #0072b2; stroke-width: 2.5; stroke-linecap: square"/>
   </g>
   <g id="frame0066_21089a_patch_3">
    <path d="M 225.3 330.938125 
L 225.3 17.378125 
" style="fill: none; stroke: #000000; stroke-width: 0.8; stroke-linejoin: miter; stroke-linecap: square"/>
   </g>
   <g id="frame0066_21089a_patch_4">
    <path d="M 443.4 330.938125 
L 443.4 17.378125 
" style="fill: none"/>
   </g>
   <g id="frame0066_21089a_patch_5">
    <path d="M 7.2 174.158125 
L 443.4 174.158125 
" style="fill: none; stroke: #000000; stroke-width: 0.8; stroke-linejoin: miter; stroke-linecap: square"/>
   </g>
   <g id="frame0066_21089a_patch_6">
    <path d="M 7.2 17.378125 
L 443.4 17.378125 
" style="fill: none"/>
   </g>
  </g>
 </g>
 <defs>
  <clipPath id="frame0066_21089a_p5bf12c25cc">
   <rect x="7.2" y="17.378125" width="436.2" height="313.56"/>
  </clipPath>
 </defs>
</svg>
