<?xml version="1.0" encoding="utf-8" standalone="no"?>
<!DOCTYPE svg PUBLIC "-//W3C//DTD SVG 1.1//EN"
  "http://www.w3.org/Graphics/SVG/1.1/DTD/svg11.dtd">
<svg xmlns:xlink="http://www.w3.org/1999/xlink" width="453.6pt" height="338.138125pt" viewBox="0 0 453.6 338.138125" xmlns="http://www.w3.org/2000/svg" version="1.1">
 <metadata>
  <rdf:RDF xmlns:dc="http://purl.org/dc/elements/1.1/" xmlns:cc="http://creativecommons.org/ns#" xmlns:rdf="http://www.w3.org/1999/02/22-rdf-syntax-ns#">
   <cc:Work>
    <dc:type rdf:resource="http://purl.org/dc/dcmitype/StillImage"/>
    <dc:date>2026-01-22T01:05:30.487536</dc:date>
    <dc:format>image/svg+xml</dc:format>
    <dc:creator>
     <cc:Agent>
      <dc:title>Matplotlib v3.9.1, https://matplotlib.org/</dc:title>
     </cc:Agent>
    </dc:creator>
   </cc:Work>
  </rdf:RDF>
 </metadata>
 <defs>
  <style type="text/css">*{stroke-linejoin: round; stroke-linecap: butt}</style>
 </defs>
 <g id="frame0098_1fb157_figure_1">
  <g id="frame0098_1fb157_patch_1">
   <path d="M 0 338.138125 
L 453.6 338.138125 
L 453.6 0 
L 0 0 
L 0 338.138125 
z
" style="fill: none; opacity: 0"/>
  </g>
  <g id="frame0098_1fb157_axes_1">
   <g id="frame0098_1fb157_patch_2">
    <path d="M 7.2 330.938125 
L 443.4 330.938125 
L 443.4 17.378125 
L 7.2 17.378125 
L 7.2 330.938125 
z
" style="fill: none; opacity: 0"/>
   </g>
   <g id="frame0098_1fb157_matplotlib.axis_1">
    <g id="frame0098_1fb157_xtick_1">
     <g id="frame0098_1fb157_line2d_1">
      <path d="M 79.9 330.938125 
L 79.9 17.378125 
" clip-path="url(#frame0098_1fb157_p124a81a646)" style="fill: none; stroke-dasharray: 2.96,1.28; stroke-dashoffset: 0; stroke: #b0b0b0; stroke-opacity: 0.6; stroke-width: 0.8"/>
     </g>
     <g id="frame0098_1fb157_line2d_2">
      <defs>
       <path id="frame0098_1fb157_m0e2c6dee03" d="M 0 0 
L 0 3.5 
" style="stroke: #000000; stroke-width: 0.8"/>
      </defs>
      <g>
       <use xlink:href="#frame0098_1fb157_m0e2c6dee03" x="79.9" y="174.158125" style="stroke: #000000; stroke-width: 0.8"/>
      </g>
     </g>
     <g id="frame0098_1fb157_text_1">
      <!-- −1 -->
      <g transform="translate(65.157813 196.355) scale(0.2 -0.2)">
       <defs>
        <path id="frame0098_1fb157_DejaVuSans-2212" d="M 678 2272 
L 4684 2272 
L 4684 1741 
L 678 1741 
L 678 2272 
z
" transform="scale(0.015625)"/>
        <path id="frame0098_1fb157_DejaVuSans-31" d="M 794 531 
L 1825 531 
L 1825 4091 
L 703 3866 
L 703 4441 
L 1819 4666 
L 2450 4666 
L 2450 531 
L 3481 531 
L 3481 0 
L 794 0 
L 794 531 
z
" transform="scale(0.015625)"/>
       </defs>
       <use xlink:href="#frame0098_1fb157_DejaVuSans-2212"/>
       <use xlink:href="#frame0098_1fb157_DejaVuSans-31" x="83.789062"/>
      </g>
     </g>
    </g>
    <g id="frame0098_1fb157_xtick_2">
     <g id="frame0098_1fb157_line2d_3">
      <path d="M 370.7 330.938125 
L 370.7 17.378125 
" clip-path="url(#frame0098_1fb157_p124a81a646)" style="fill: none; stroke-dasharray: 2.96,1.28; stroke-dashoffset: 0; stroke: #b0b0b0; stroke-opacity: 0.6; stroke-width: 0.8"/>
     </g>
     <g id="frame0098_1fb157_line2d_4">
      <g>
       <use xlink:href="#frame0098_1fb157_m0e2c6dee03" x="370.7" y="174.158125" style="stroke: #000000; stroke-width: 0.8"/>
      </g>
     </g>
     <g id="frame0098_1fb157_text_2">
      <!-- 1 -->
      <g transform="translate(364.3375 196.355) scale(0.2 -0.2)">
       <use xlink:href="#frame0098_1fb157_DejaVuSans-31"/>
      </g>
     </g>
    </g>
    <g id="frame0098_1fb157_text_3">
     <!-- $x$ -->
     <g transform="translate(431.4 219.71125) scale(0.2 -0.2)">
      <defs>
       <path id="frame0098_1fb157_DejaVuSans-Oblique-78" d="M 3841 3500 
L 2234 1784 
L 3219 0 
L 2559 0 
L 1819 1388 
L 531 0 
L -166 0 
L 1556 1844 
L 641 3500 
L 1300 3500 
L 1972 2234 
L 3144 3500 
L 3841 3500 
z
" transform="scale(0.015625)"/>
      </defs>
      <use xlink:href="#frame0098_1fb157_DejaVuSans-Oblique-78" transform="translate(0 0.3125)"/>
     </g>
    </g>
   </g>
   <g id="frame0098_1fb157_matplotlib.axis_2">
    <g id="frame0098_1fb157_ytick_1">
     <g id="frame0098_1fb157_line2d_5">
      <path d="M 7.2 278.678125 
L 443.4 278.678125 
" clip-path="url(#frame0098_1fb157_p124a81a646)" style="fill: none; stroke-dasharray: 2.96,1.28; stroke-dashoffset: 0; stroke: #b0b0b0; stroke-opacity: 0.6; stroke-width: 0.8"/>
     </g>
     <g id="frame0098_1fb157_line2d_6">
      <defs>
       <path id="frame0098_1fb157_m285668ca70" d="M 0 0 
L -3.5 0 
" style="stroke: #000000; stroke-width: 0.8"/>
      </defs>
      <g>
       <use xlink:href="#frame0098_1fb157_m285668ca70" x="225.3" y="278.678125" style="stroke: #000000; stroke-width: 0.8"/>
      </g>
     </g>
     <g id="frame0098_1fb157_text_4">
      <!-- −1 -->
      <g transform="translate(188.815625 286.276562) scale(0.2 -0.2)">
       <use xlink:href="#frame0098_1fb157_DejaVuSans-2212"/>
       <use xlink:href="#frame0098_1fb157_DejaVuSans-31" x="83.789062"/>
      </g>
     </g>
    </g>
    <g id="frame0098_1fb157_ytick_2">
     <g id="frame0098_1fb157_line2d_7">
      <path d="M 7.2 69.638125 
L 443.4 69.638125 
" clip-path="url(#frame0098_1fb157_p124a81a646)" style="fill: none; stroke-dasharray: 2.96,1.28; stroke-dashoffset: 0; stroke: #b0b0b0; stroke-opacity: 0.6; stroke-width: 0.8"/>
     </g>
     <g id="frame0098_1fb157_line2d_8">
      <g>
       <use xlink:href="#frame0098_1fb157_m285668ca70" x="225.3" y="69.638125" style="stroke: #000000; stroke-width: 0.8"/>
      </g>
     </g>
     <g id="frame0098_1fb157_text_5">
      <!-- 1 -->
      <g transform="translate(205.575 77.236562) scale(0.2 -0.2)">
       <use xlink:href="#frame0098_1fb157_DejaVuSans-31"/>
      </g>
     </g>
    </g>
    <g id="frame0098_1fb157_text_6">
     <!-- $y$ -->
     <g transform="translate(172.815625 13.178125) scale(0.2 -0.2)">
      <defs>
       <path id="frame0098_1fb157_DejaVuSans-Oblique-79" d="M 1588 -325 
Q 1188 -997 936 -1164 
Q 684 -1331 294 -1331 
L -159 -1331 
L -63 -850 
L 269 -850 
Q 509 -850 678 -719 
Q 847 -588 1056 -206 
L 1234 128 
L 459 3500 
L 1069 3500 
L 1650 819 
L 3256 3500 
L 3859 3500 
L 1588 -325 
z
" transform="scale(0.015625)"/>
      </defs>
      <use xlink:href="#frame0098_1fb157_DejaVuSans-Oblique-79" transform="translate(0 0.3125)"/>
     </g>
    </g>
   </g>
   <g id="frame0098_1fb157_line2d_9">
    <defs>
     <path id="frame0098_1fb157_m95c364aeda" d="M 3 0 
L -3 -3 
L -3 3 
z
" style="stroke: #000000; stroke-linejoin: miter"/>
    </defs>
    <g>
     <use xlink:href="#frame0098_1fb157_m95c364aeda" x="443.4" y="174.158125" style="stroke: #000000; stroke-linejoin: miter"/>
    </g>
   </g>
   <g id="frame0098_1fb157_line2d_10">
    <defs>
     <path id="frame0098_1fb157_maa3816e8e5" d="M 0 -3 
L -3 3 
L 3 3 
z
" style="stroke: #000000; stroke-linejoin: miter"/>
    </defs>
    <g>
     <use xlink:href="#frame0098_1fb157_maa3816e8e5" x="225.3" y="17.378125" style="stroke: #000000; stroke-linejoin: miter"/>
    </g>
   </g>
   <g id="frame0098_1fb157_line2d_11">
    <defs>
     <path id="frame0098_1fb157_m6de1beb215" d="M 0 5 
C 1.326016 5 2.597899 4.473168 3.535534 3.535534 
C 4.473168 2.597899 5 1.326016 5 0 
C 5 -1.326016 4.473168 -2.597899 3.535534 -3.535534 
C 2.597899 -4.473168 1.326016 -5 0 -5 
C -1.326016 -5 -2.597899 -4.473168 -3.535534 -3.535534 
C -4.473168 -2.597899 -5 -1.326016 -5 0 
C -5 1.326016 -4.473168 2.597899 -3.535534 3.535534 
C -2.597899 4.473168 -1.326016 5 0 5 
z
" style="stroke: #000000; stroke-opacity: 0.8"/>
    </defs>
    <g clip-path="url(#frame0098_1fb157_p124a81a646)">
     <use xlink:href="#frame0098_1fb157_m6de1beb215" x="245.021166" y="277.712259" style="fill-opacity: 0.8; stroke: #000000; stroke-opacity: 0.8"/>
    </g>
   </g>
   <g id="frame0098_1fb157_line2d_12">
    <path d="M 370.7 174.158125 
L 370.527414 169.067083 
L 370.010064 163.988127 
L 369.149179 158.933314 
L 367.946803 153.914645 
L 366.40579 148.944032 
L 364.529798 144.033276 
L 362.323281 139.194036 
L 359.791477 134.437798 
L 356.940396 129.775855 
L 353.776807 125.219274 
L 350.30822 120.77887 
L 346.54287 116.465187 
L 342.489694 112.288464 
L 338.158315 108.258617 
L 333.559016 104.385213 
L 328.702714 100.677446 
L 323.60094 97.144119 
L 318.265803 93.793619 
L 312.70997 90.633901 
L 306.94663 87.672466 
L 300.989464 84.916344 
L 294.852615 82.372078 
L 288.550652 80.045708 
L 282.098534 77.942756 
L 275.511579 76.068215 
L 268.805424 74.426535 
L 261.995989 73.021614 
L 255.099439 71.856785 
L 248.132147 70.934816 
L 241.110653 70.257894 
L 234.051625 69.827626 
L 226.97182 69.645034 
L 219.888047 69.710552 
L 212.817122 70.024023 
L 205.775831 70.584704 
L 198.780889 71.391263 
L 191.848902 72.441786 
L 184.996326 73.73378 
L 178.23943 75.264175 
L 171.594253 77.029341 
L 165.076571 79.025086 
L 158.701857 81.246673 
L 152.485244 83.688827 
L 146.44149 86.34575 
L 140.584942 89.211137 
L 134.929504 92.278184 
L 129.488601 95.53961 
L 124.27515 98.987673 
L 119.301528 102.614187 
L 114.579541 106.410543 
L 110.1204 110.367728 
L 105.934689 114.47635 
L 102.032346 118.726653 
L 98.422635 123.108547 
L 95.114126 127.611631 
L 92.114671 132.225215 
L 89.431392 136.938345 
L 87.07066 141.739833 
L 85.038077 146.618281 
L 83.33847 151.562107 
L 81.975873 156.559575 
L 80.95352 161.598821 
L 80.27384 166.667883 
L 79.938445 171.754726 
L 79.948132 176.847274 
L 80.302878 181.933439 
L 81.00184 187.001145 
L 82.04336 192.038363 
L 83.424964 197.033133 
L 85.143373 201.9736 
L 87.194507 206.848034 
L 89.573497 211.644863 
L 92.274696 216.352701 
L 95.291691 220.96037 
L 98.61732 225.456934 
L 102.243688 229.831716 
L 106.162186 234.074331 
L 110.363511 238.174709 
L 114.837691 242.123114 
L 119.574102 245.910173 
L 124.561503 249.526896 
L 129.788052 252.964697 
L 135.241342 256.215415 
L 140.908427 259.271332 
L 146.775853 262.125195 
L 152.829693 264.770228 
L 159.055574 267.200152 
L 165.438716 269.409198 
L 171.963966 271.392123 
L 178.615833 273.144219 
L 185.378526 274.661326 
L 192.235991 275.939843 
L 199.171949 276.976735 
L 206.169933 277.76954 
L 213.213331 278.316377 
L 220.285423 278.615947 
L 227.369418 278.667538 
L 234.448501 278.471029 
L 241.505866 278.026886 
L 245.021166 277.712259 
L 245.021166 277.712259 
" clip-path="url(#frame0098_1fb157_p124a81a646)" style="fill: none; stroke: #0072b2; stroke-width: 2.5; stroke-linecap: square"/>
   </g>
   <g id="frame0098_1fb157_patch_3">
    <path d="M 225.3 330.938125 
L 225.3 17.378125 
" style="fill: none; stroke: #000000; stroke-width: 0.8; stroke-linejoin: miter; stroke-linecap: square"/>
   </g>
   <g id="frame0098_1fb157_patch_4">
    <path d="M 443.4 330.938125 
L 443.4 17.378125 
" style="fill: none"/>
   </g>
   <g id="frame0098_1fb157_patch_5">
    <path d="M 7.2 174.158125 
L 443.4 174.158125 
" style="fill: none; stroke: #000000; stroke-width: 0.8; stroke-linejoin: miter; stroke-linecap: square"/>
   </g>
   <g id="frame0098_1fb157_patch_6">
    <path d="M 7.2 17.378125 
L 443.4 17.378125 
" style="fill: none"/>
   </g>
  </g>
 </g>
 <defs>
  <clipPath id="frame0098_1fb157_p124a81a646">
   <rect x="7.2" y="17.378125" width="436.2" height="313.56"/>
  </clipPath>
 </defs>
</svg>
