<?xml version="1.0" encoding="utf-8" standalone="no"?>
<!DOCTYPE svg PUBLIC "-//W3C//DTD SVG 1.1//EN"
  "http://www.w3.org/Graphics/SVG/1.1/DTD/svg11.dtd">
<svg xmlns:xlink="http://www.w3.org/1999/xlink" width="453.6pt" height="338.138125pt" viewBox="0 0 453.6 338.138125" xmlns="http://www.w3.org/2000/svg" version="1.1">
 <metadata>
  <rdf:RDF xmlns:dc="http://purl.org/dc/elements/1.1/" xmlns:cc="http://creativecommons.org/ns#" xmlns:rdf="http://www.w3.org/1999/02/22-rdf-syntax-ns#">
   <cc:Work>
    <dc:type rdf:resource="http://purl.org/dc/dcmitype/StillImage"/>
    <dc:date>2026-01-22T01:05:32.509547</dc:date>
    <dc:format>image/svg+xml</dc:format>
    <dc:creator>
     <cc:Agent>
      <dc:title>Matplotlib v3.9.1, https://matplotlib.org/</dc:title>
     </cc:Agent>
    </dc:creator>
   </cc:Work>
  </rdf:RDF>
 </metadata>
 <defs>
  <style type="text/css">*{stroke-linejoin: round; stroke-linecap: butt}</style>
 </defs>
 <g id="frame0122_f9e5df_figure_1">
  <g id="frame0122_f9e5df_patch_1">
   <path d="M 0 338.138125 
L 453.6 338.138125 
L 453.6 0 
L 0 0 
L 0 338.138125 
z
" style="fill: none; opacity: 0"/>
  </g>
  <g id="frame0122_f9e5df_axes_1">
   <g id="frame0122_f9e5df_patch_2">
    <path d="M 7.2 330.938125 
L 443.4 330.938125 
L 443.4 17.378125 
L 7.2 17.378125 
L 7.2 330.938125 
z
" style="fill: none; opacity: 0"/>
   </g>
   <g id="frame0122_f9e5df_matplotlib.axis_1">
    <g id="frame0122_f9e5df_xtick_1">
     <g id="frame0122_f9e5df_line2d_1">
      <path d="M 79.9 330.938125 
L 79.9 17.378125 
" clip-path="url(#frame0122_f9e5df_pbd85c73227)" style="fill: none; stroke-dasharray: 2.96,1.28; stroke-dashoffset: 0; stroke: #b0b0b0; stroke-opacity: 0.6; stroke-width: 0.8"/>
     </g>
     <g id="frame0122_f9e5df_line2d_2">
      <defs>
       <path id="frame0122_f9e5df_m88072b643b" d="M 0 0 
L 0 3.5 
" style="stroke: #000000; stroke-width: 0.8"/>
      </defs>
      <g>
       <use xlink:href="#frame0122_f9e5df_m88072b643b" x="79.9" y="174.158125" style="stroke: #000000; stroke-width: 0.8"/>
      </g>
     </g>
     <g id="frame0122_f9e5df_text_1">
      <!-- −1 -->
      <g transform="translate(65.157813 196.355) scale(0.2 -0.2)">
       <defs>
        <path id="frame0122_f9e5df_DejaVuSans-2212" d="M 678 2272 
L 4684 2272 
L 4684 1741 
L 678 1741 
L 678 2272 
z
" transform="scale(0.015625)"/>
        <path id="frame0122_f9e5df_DejaVuSans-31" d="M 794 531 
L 1825 531 
L 1825 4091 
L 703 3866 
L 703 4441 
L 1819 4666 
L 2450 4666 
L 2450 531 
L 3481 531 
L 3481 0 
L 794 0 
L 794 531 
z
" transform="scale(0.015625)"/>
       </defs>
       <use xlink:href="#frame0122_f9e5df_DejaVuSans-2212"/>
       <use xlink:href="#frame0122_f9e5df_DejaVuSans-31" x="83.789062"/>
      </g>
     </g>
    </g>
    <g id="frame0122_f9e5df_xtick_2">
     <g id="frame0122_f9e5df_line2d_3">
      <path d="M 370.7 330.938125 
L 370.7 17.378125 
" clip-path="url(#frame0122_f9e5df_pbd85c73227)" style="fill: none; stroke-dasharray: 2.96,1.28; stroke-dashoffset: 0; stroke: #b0b0b0; stroke-opacity: 0.6; stroke-width: 0.8"/>
     </g>
     <g id="frame0122_f9e5df_line2d_4">
      <g>
       <use xlink:href="#frame0122_f9e5df_m88072b643b" x="370.7" y="174.158125" style="stroke: #000000; stroke-width: 0.8"/>
      </g>
     </g>
     <g id="frame0122_f9e5df_text_2">
      <!-- 1 -->
      <g transform="translate(364.3375 196.355) scale(0.2 -0.2)">
       <use xlink:href="#frame0122_f9e5df_DejaVuSans-31"/>
      </g>
     </g>
    </g>
    <g id="frame0122_f9e5df_text_3">
     <!-- $x$ -->
     <g transform="translate(431.4 219.71125) scale(0.2 -0.2)">
      <defs>
       <path id="frame0122_f9e5df_DejaVuSans-Oblique-78" d="M 3841 3500 
L 2234 1784 
L 3219 0 
L 2559 0 
L 1819 1388 
L 531 0 
L -166 0 
L 1556 1844 
L 641 3500 
L 1300 3500 
L 1972 2234 
L 3144 3500 
L 3841 3500 
z
" transform="scale(0.015625)"/>
      </defs>
      <use xlink:href="#frame0122_f9e5df_DejaVuSans-Oblique-78" transform="translate(0 0.3125)"/>
     </g>
    </g>
   </g>
   <g id="frame0122_f9e5df_matplotlib.axis_2">
    <g id="frame0122_f9e5df_ytick_1">
     <g id="frame0122_f9e5df_line2d_5">
      <path d="M 7.2 278.678125 
L 443.4 278.678125 
" clip-path="url(#frame0122_f9e5df_pbd85c73227)" style="fill: none; stroke-dasharray: 2.96,1.28; stroke-dashoffset: 0; stroke: #b0b0b0; stroke-opacity: 0.6; stroke-width: 0.8"/>
     </g>
     <g id="frame0122_f9e5df_line2d_6">
      <defs>
       <path id="frame0122_f9e5df_mc85e6d7fca" d="M 0 0 
L -3.5 0 
" style="stroke: #000000; stroke-width: 0.8"/>
      </defs>
      <g>
       <use xlink:href="#frame0122_f9e5df_mc85e6d7fca" x="225.3" y="278.678125" style="stroke: #000000; stroke-width: 0.8"/>
      </g>
     </g>
     <g id="frame0122_f9e5df_text_4">
      <!-- −1 -->
      <g transform="translate(188.815625 286.276562) scale(0.2 -0.2)">
       <use xlink:href="#frame0122_f9e5df_DejaVuSans-2212"/>
       <use xlink:href="#frame0122_f9e5df_DejaVuSans-31" x="83.789062"/>
      </g>
     </g>
    </g>
    <g id="frame0122_f9e5df_ytick_2">
     <g id="frame0122_f9e5df_line2d_7">
      <path d="M 7.2 69.638125 
L 443.4 69.638125 
" clip-path="url(#frame0122_f9e5df_pbd85c73227)" style="fill: none; stroke-dasharray: 2.96,1.28; stroke-dashoffset: 0; stroke: #b0b0b0; stroke-opacity: 0.6; stroke-width: 0.8"/>
     </g>
     <g id="frame0122_f9e5df_line2d_8">
      <g>
       <use xlink:href="#frame0122_f9e5df_mc85e6d7fca" x="225.3" y="69.638125" style="stroke: #000000; stroke-width: 0.8"/>
      </g>
     </g>
     <g id="frame0122_f9e5df_text_5">
      <!-- 1 -->
      <g transform="translate(205.575 77.236562) scale(0.2 -0.2)">
       <use xlink:href="#frame0122_f9e5df_DejaVuSans-31"/>
      </g>
     </g>
    </g>
    <g id="frame0122_f9e5df_text_6">
     <!-- $y$ -->
     <g transform="translate(172.815625 13.178125) scale(0.2 -0.2)">
      <defs>
       <path id="frame0122_f9e5df_DejaVuSans-Oblique-79" d="M 1588 -325 
Q 1188 -997 936 -1164 
Q 684 -1331 294 -1331 
L -159 -1331 
L -63 -850 
L 269 -850 
Q 509 -850 678 -719 
Q 847 -588 1056 -206 
L 1234 128 
L 459 3500 
L 1069 3500 
L 1650 819 
L 3256 3500 
L 3859 3500 
L 1588 -325 
z
" transform="scale(0.015625)"/>
      </defs>
      <use xlink:href="#frame0122_f9e5df_DejaVuSans-Oblique-79" transform="translate(0 0.3125)"/>
     </g>
    </g>
   </g>
   <g id="frame0122_f9e5df_line2d_9">
    <defs>
     <path id="frame0122_f9e5df_m8c09813670" d="M 3 0 
L -3 -3 
L -3 3 
z
" style="stroke: #000000; stroke-linejoin: miter"/>
    </defs>
    <g>
     <use xlink:href="#frame0122_f9e5df_m8c09813670" x="443.4" y="174.158125" style="stroke: #000000; stroke-linejoin: miter"/>
    </g>
   </g>
   <g id="frame0122_f9e5df_line2d_10">
    <defs>
     <path id="frame0122_f9e5df_m7e744f1c0e" d="M 0 -3 
L -3 3 
L 3 3 
z
" style="stroke: #000000; stroke-linejoin: miter"/>
    </defs>
    <g>
     <use xlink:href="#frame0122_f9e5df_m7e744f1c0e" x="225.3" y="17.378125" style="stroke: #000000; stroke-linejoin: miter"/>
    </g>
   </g>
   <g id="frame0122_f9e5df_line2d_11">
    <defs>
     <path id="frame0122_f9e5df_m61505d1908" d="M 0 5 
C 1.326016 5 2.597899 4.473168 3.535534 3.535534 
C 4.473168 2.597899 5 1.326016 5 0 
C 5 -1.326016 4.473168 -2.597899 3.535534 -3.535534 
C 2.597899 -4.473168 1.326016 -5 0 -5 
C -1.326016 -5 -2.597899 -4.473168 -3.535534 -3.535534 
C -4.473168 -2.597899 -5 -1.326016 -5 0 
C -5 1.326016 -4.473168 2.597899 -3.535534 3.535534 
C -2.597899 4.473168 -1.326016 5 0 5 
z
" style="stroke: #000000; stroke-opacity: 0.8"/>
    </defs>
    <g clip-path="url(#frame0122_f9e5df_pbd85c73227)">
     <use xlink:href="#frame0122_f9e5df_m61505d1908" x="366.274004" y="199.750305" style="fill-opacity: 0.8; stroke: #000000; stroke-opacity: 0.8"/>
    </g>
   </g>
   <g id="frame0122_f9e5df_line2d_12">
    <path d="M 370.7 174.158125 
L 370.633125 170.988443 
L 370.43256 167.821676 
L 370.09849 164.660739 
L 369.631222 161.508538 
L 369.031187 158.367973 
L 368.298936 155.241933 
L 367.435142 152.133294 
L 366.440601 149.044915 
L 365.316227 145.979637 
L 364.063055 142.94028 
L 362.682237 139.92964 
L 361.175043 136.950486 
L 359.54286 134.005559 
L 357.787189 131.097567 
L 355.909646 128.229186 
L 353.911957 125.403055 
L 351.79596 122.621772 
L 349.563602 119.887897 
L 347.216936 117.203944 
L 344.75812 114.572382 
L 342.189418 111.995632 
L 339.51319 109.476064 
L 336.7319 107.015996 
L 333.848105 104.617691 
L 330.864459 102.283355 
L 324.60868 97.815119 
L 317.987576 93.627725 
L 311.025503 89.736577 
L 303.748073 86.155989 
L 296.182057 82.899133 
L 288.355289 79.97799 
L 280.29656 77.403306 
L 272.035515 75.184553 
L 263.602546 73.329892 
L 255.028674 71.846147 
L 246.345439 70.738775 
L 237.584785 70.011851 
L 228.778939 69.668047 
L 219.960295 69.70863 
L 211.161294 70.13345 
L 202.414304 70.940944 
L 193.751505 72.128141 
L 185.204762 73.690674 
L 176.805517 75.622796 
L 168.584667 77.917398 
L 160.572456 80.566039 
L 152.798357 83.558976 
L 145.290969 86.885199 
L 138.077908 90.532472 
L 131.185711 94.487376 
L 124.63973 98.735365 
L 118.464046 103.26081 
L 115.522221 105.622415 
L 112.681379 108.047064 
L 109.944132 110.532528 
L 107.312999 113.07652 
L 104.790401 115.6767 
L 102.378657 118.330676 
L 100.079987 121.036006 
L 97.896504 123.790203 
L 95.830218 126.590732 
L 93.883028 129.435018 
L 92.056727 132.320444 
L 90.352994 135.244355 
L 88.773396 138.204063 
L 87.319387 141.196844 
L 85.992304 144.219946 
L 84.793368 147.270587 
L 83.723681 150.345962 
L 82.784228 153.443241 
L 81.975873 156.559575 
L 81.299359 159.692098 
L 80.755309 162.837928 
L 80.344223 165.994171 
L 80.066479 169.157925 
L 79.922333 172.326277 
L 79.911918 175.496315 
L 80.035242 178.665122 
L 80.292193 181.829783 
L 80.682535 184.987387 
L 81.205907 188.135029 
L 81.861829 191.269814 
L 82.649698 194.388859 
L 83.568788 197.489293 
L 84.618254 200.568266 
L 85.797131 203.622944 
L 87.104334 206.650518 
L 88.538661 209.648203 
L 90.098792 212.613241 
L 91.783293 215.542905 
L 93.590613 218.4345 
L 95.51909 221.285366 
L 97.566951 224.09288 
L 99.732311 226.85446 
L 102.013179 229.567566 
L 104.407456 232.229702 
L 106.912941 234.838418 
L 109.527327 237.391316 
L 112.248211 239.886046 
L 115.073089 242.320315 
L 117.999363 244.691882 
L 121.024341 246.998567 
L 127.35919 251.408862 
L 134.054332 255.534975 
L 141.085139 259.361729 
L 148.425746 262.875046 
L 156.049148 266.062001 
L 163.927303 268.910871 
L 172.031229 271.411175 
L 180.331114 273.553716 
L 188.796425 275.330611 
L 197.396021 276.735325 
L 206.098267 277.76269 
L 214.871151 278.408926 
L 223.682398 278.671657 
L 232.499597 278.549915 
L 241.29031 278.044148 
L 250.0222 277.156217 
L 258.663145 275.889389 
L 267.181358 274.248324 
L 275.545502 272.239058 
L 283.724808 269.868984 
L 291.689188 267.146819 
L 299.409344 264.082578 
L 306.856874 260.687534 
L 314.004382 256.974175 
L 320.825575 252.956162 
L 327.295359 248.648275 
L 333.389935 244.066363 
L 336.289457 241.677877 
L 339.086882 239.227281 
L 341.779636 236.716828 
L 344.365242 234.148829 
L 346.841322 231.525646 
L 349.205599 228.849691 
L 351.455897 226.123426 
L 353.590146 223.34936 
L 355.606384 220.530043 
L 357.502755 217.668069 
L 359.277514 214.766071 
L 360.929031 211.826719 
L 362.455784 208.852716 
L 363.85637 205.846798 
L 365.129501 202.811731 
L 366.274004 199.750305 
L 366.274004 199.750305 
" clip-path="url(#frame0122_f9e5df_pbd85c73227)" style="fill: none; stroke: #0072b2; stroke-width: 2.5; stroke-linecap: square"/>
   </g>
   <g id="frame0122_f9e5df_patch_3">
    <path d="M 225.3 330.938125 
L 225.3 17.378125 
" style="fill: none; stroke: #000000; stroke-width: 0.8; stroke-linejoin: miter; stroke-linecap: square"/>
   </g>
   <g id="frame0122_f9e5df_patch_4">
    <path d="M 443.4 330.938125 
L 443.4 17.378125 
" style="fill: none"/>
   </g>
   <g id="frame0122_f9e5df_patch_5">
    <path d="M 7.2 174.158125 
L 443.4 174.158125 
" style="fill: none; stroke: #000000; stroke-width: 0.8; stroke-linejoin: miter; stroke-linecap: square"/>
   </g>
   <g id="frame0122_f9e5df_patch_6">
    <path d="M 7.2 17.378125 
L 443.4 17.378125 
" style="fill: none"/>
   </g>
  </g>
 </g>
 <defs>
  <clipPath id="frame0122_f9e5df_pbd85c73227">
   <rect x="7.2" y="17.378125" width="436.2" height="313.56"/>
  </clipPath>
 </defs>
</svg>
