<?xml version="1.0" encoding="utf-8" standalone="no"?>
<!DOCTYPE svg PUBLIC "-//W3C//DTD SVG 1.1//EN"
  "http://www.w3.org/Graphics/SVG/1.1/DTD/svg11.dtd">
<svg xmlns:xlink="http://www.w3.org/1999/xlink" width="453.6pt" height="338.138125pt" viewBox="0 0 453.6 338.138125" xmlns="http://www.w3.org/2000/svg" version="1.1">
 <metadata>
  <rdf:RDF xmlns:dc="http://purl.org/dc/elements/1.1/" xmlns:cc="http://creativecommons.org/ns#" xmlns:rdf="http://www.w3.org/1999/02/22-rdf-syntax-ns#">
   <cc:Work>
    <dc:type rdf:resource="http://purl.org/dc/dcmitype/StillImage"/>
    <dc:date>2026-01-22T01:05:30.644997</dc:date>
    <dc:format>image/svg+xml</dc:format>
    <dc:creator>
     <cc:Agent>
      <dc:title>Matplotlib v3.9.1, https://matplotlib.org/</dc:title>
     </cc:Agent>
    </dc:creator>
   </cc:Work>
  </rdf:RDF>
 </metadata>
 <defs>
  <style type="text/css">*{stroke-linejoin: round; stroke-linecap: butt}</style>
 </defs>
 <g id="frame0100_d58546_figure_1">
  <g id="frame0100_d58546_patch_1">
   <path d="M 0 338.138125 
L 453.6 338.138125 
L 453.6 0 
L 0 0 
L 0 338.138125 
z
" style="fill: none; opacity: 0"/>
  </g>
  <g id="frame0100_d58546_axes_1">
   <g id="frame0100_d58546_patch_2">
    <path d="M 7.2 330.938125 
L 443.4 330.938125 
L 443.4 17.378125 
L 7.2 17.378125 
L 7.2 330.938125 
z
" style="fill: none; opacity: 0"/>
   </g>
   <g id="frame0100_d58546_matplotlib.axis_1">
    <g id="frame0100_d58546_xtick_1">
     <g id="frame0100_d58546_line2d_1">
      <path d="M 79.9 330.938125 
L 79.9 17.378125 
" clip-path="url(#frame0100_d58546_p9a481776d6)" style="fill: none; stroke-dasharray: 2.96,1.28; stroke-dashoffset: 0; stroke: #b0b0b0; stroke-opacity: 0.6; stroke-width: 0.8"/>
     </g>
     <g id="frame0100_d58546_line2d_2">
      <defs>
       <path id="frame0100_d58546_mffbd1ca861" d="M 0 0 
L 0 3.5 
" style="stroke: #000000; stroke-width: 0.8"/>
      </defs>
      <g>
       <use xlink:href="#frame0100_d58546_mffbd1ca861" x="79.9" y="174.158125" style="stroke: #000000; stroke-width: 0.8"/>
      </g>
     </g>
     <g id="frame0100_d58546_text_1">
      <!-- −1 -->
      <g transform="translate(65.157813 196.355) scale(0.2 -0.2)">
       <defs>
        <path id="frame0100_d58546_DejaVuSans-2212" d="M 678 2272 
L 4684 2272 
L 4684 1741 
L 678 1741 
L 678 2272 
z
" transform="scale(0.015625)"/>
        <path id="frame0100_d58546_DejaVuSans-31" d="M 794 531 
L 1825 531 
L 1825 4091 
L 703 3866 
L 703 4441 
L 1819 4666 
L 2450 4666 
L 2450 531 
L 3481 531 
L 3481 0 
L 794 0 
L 794 531 
z
" transform="scale(0.015625)"/>
       </defs>
       <use xlink:href="#frame0100_d58546_DejaVuSans-2212"/>
       <use xlink:href="#frame0100_d58546_DejaVuSans-31" x="83.789062"/>
      </g>
     </g>
    </g>
    <g id="frame0100_d58546_xtick_2">
     <g id="frame0100_d58546_line2d_3">
      <path d="M 370.7 330.938125 
L 370.7 17.378125 
" clip-path="url(#frame0100_d58546_p9a481776d6)" style="fill: none; stroke-dasharray: 2.96,1.28; stroke-dashoffset: 0; stroke: #b0b0b0; stroke-opacity: 0.6; stroke-width: 0.8"/>
     </g>
     <g id="frame0100_d58546_line2d_4">
      <g>
       <use xlink:href="#frame0100_d58546_mffbd1ca861" x="370.7" y="174.158125" style="stroke: #000000; stroke-width: 0.8"/>
      </g>
     </g>
     <g id="frame0100_d58546_text_2">
      <!-- 1 -->
      <g transform="translate(364.3375 196.355) scale(0.2 -0.2)">
       <use xlink:href="#frame0100_d58546_DejaVuSans-31"/>
      </g>
     </g>
    </g>
    <g id="frame0100_d58546_text_3">
     <!-- $x$ -->
     <g transform="translate(431.4 219.71125) scale(0.2 -0.2)">
      <defs>
       <path id="frame0100_d58546_DejaVuSans-Oblique-78" d="M 3841 3500 
L 2234 1784 
L 3219 0 
L 2559 0 
L 1819 1388 
L 531 0 
L -166 0 
L 1556 1844 
L 641 3500 
L 1300 3500 
L 1972 2234 
L 3144 3500 
L 3841 3500 
z
" transform="scale(0.015625)"/>
      </defs>
      <use xlink:href="#frame0100_d58546_DejaVuSans-Oblique-78" transform="translate(0 0.3125)"/>
     </g>
    </g>
   </g>
   <g id="frame0100_d58546_matplotlib.axis_2">
    <g id="frame0100_d58546_ytick_1">
     <g id="frame0100_d58546_line2d_5">
      <path d="M 7.2 278.678125 
L 443.4 278.678125 
" clip-path="url(#frame0100_d58546_p9a481776d6)" style="fill: none; stroke-dasharray: 2.96,1.28; stroke-dashoffset: 0; stroke: #b0b0b0; stroke-opacity: 0.6; stroke-width: 0.8"/>
     </g>
     <g id="frame0100_d58546_line2d_6">
      <defs>
       <path id="frame0100_d58546_m7522bdf5aa" d="M 0 0 
L -3.5 0 
" style="stroke: #000000; stroke-width: 0.8"/>
      </defs>
      <g>
       <use xlink:href="#frame0100_d58546_m7522bdf5aa" x="225.3" y="278.678125" style="stroke: #000000; stroke-width: 0.8"/>
      </g>
     </g>
     <g id="frame0100_d58546_text_4">
      <!-- −1 -->
      <g transform="translate(188.815625 286.276562) scale(0.2 -0.2)">
       <use xlink:href="#frame0100_d58546_DejaVuSans-2212"/>
       <use xlink:href="#frame0100_d58546_DejaVuSans-31" x="83.789062"/>
      </g>
     </g>
    </g>
    <g id="frame0100_d58546_ytick_2">
     <g id="frame0100_d58546_line2d_7">
      <path d="M 7.2 69.638125 
L 443.4 69.638125 
" clip-path="url(#frame0100_d58546_p9a481776d6)" style="fill: none; stroke-dasharray: 2.96,1.28; stroke-dashoffset: 0; stroke: #b0b0b0; stroke-opacity: 0.6; stroke-width: 0.8"/>
     </g>
     <g id="frame0100_d58546_line2d_8">
      <g>
       <use xlink:href="#frame0100_d58546_m7522bdf5aa" x="225.3" y="69.638125" style="stroke: #000000; stroke-width: 0.8"/>
      </g>
     </g>
     <g id="frame0100_d58546_text_5">
      <!-- 1 -->
      <g transform="translate(205.575 77.236562) scale(0.2 -0.2)">
       <use xlink:href="#frame0100_d58546_DejaVuSans-31"/>
      </g>
     </g>
    </g>
    <g id="frame0100_d58546_text_6">
     <!-- $y$ -->
     <g transform="translate(172.815625 13.178125) scale(0.2 -0.2)">
      <defs>
       <path id="frame0100_d58546_DejaVuSans-Oblique-79" d="M 1588 -325 
Q 1188 -997 936 -1164 
Q 684 -1331 294 -1331 
L -159 -1331 
L -63 -850 
L 269 -850 
Q 509 -850 678 -719 
Q 847 -588 1056 -206 
L 1234 128 
L 459 3500 
L 1069 3500 
L 1650 819 
L 3256 3500 
L 3859 3500 
L 1588 -325 
z
" transform="scale(0.015625)"/>
      </defs>
      <use xlink:href="#frame0100_d58546_DejaVuSans-Oblique-79" transform="translate(0 0.3125)"/>
     </g>
    </g>
   </g>
   <g id="frame0100_d58546_line2d_9">
    <defs>
     <path id="frame0100_d58546_me3a3642772" d="M 3 0 
L -3 -3 
L -3 3 
z
" style="stroke: #000000; stroke-linejoin: miter"/>
    </defs>
    <g>
     <use xlink:href="#frame0100_d58546_me3a3642772" x="443.4" y="174.158125" style="stroke: #000000; stroke-linejoin: miter"/>
    </g>
   </g>
   <g id="frame0100_d58546_line2d_10">
    <defs>
     <path id="frame0100_d58546_m9529fb783e" d="M 0 -3 
L -3 3 
L 3 3 
z
" style="stroke: #000000; stroke-linejoin: miter"/>
    </defs>
    <g>
     <use xlink:href="#frame0100_d58546_m9529fb783e" x="225.3" y="17.378125" style="stroke: #000000; stroke-linejoin: miter"/>
    </g>
   </g>
   <g id="frame0100_d58546_line2d_11">
    <defs>
     <path id="frame0100_d58546_m3000dd31c0" d="M 0 5 
C 1.326016 5 2.597899 4.473168 3.535534 3.535534 
C 4.473168 2.597899 5 1.326016 5 0 
C 5 -1.326016 4.473168 -2.597899 3.535534 -3.535534 
C 2.597899 -4.473168 1.326016 -5 0 -5 
C -1.326016 -5 -2.597899 -4.473168 -3.535534 -3.535534 
C -4.473168 -2.597899 -5 -1.326016 -5 0 
C -5 1.326016 -4.473168 2.597899 -3.535534 3.535534 
C -2.597899 4.473168 -1.326016 5 0 5 
z
" style="stroke: #000000; stroke-opacity: 0.8"/>
    </defs>
    <g clip-path="url(#frame0100_d58546_p9a481776d6)">
     <use xlink:href="#frame0100_d58546_m3000dd31c0" x="259.155515" y="275.805299" style="fill-opacity: 0.8; stroke: #000000; stroke-opacity: 0.8"/>
    </g>
   </g>
   <g id="frame0100_d58546_line2d_12">
    <path d="M 370.7 174.158125 
L 370.520299 168.963269 
L 369.981639 163.781254 
L 369.085353 158.624889 
L 367.833655 153.506919 
L 366.22964 148.439995 
L 364.277272 143.436641 
L 361.981378 138.509226 
L 359.347632 133.669928 
L 356.382545 128.93071 
L 353.093445 124.303285 
L 349.488463 119.799093 
L 345.57651 115.429267 
L 341.367255 111.204607 
L 336.871102 107.135557 
L 332.099167 103.232175 
L 327.063242 99.504109 
L 321.775778 95.960575 
L 316.249843 92.61033 
L 310.499096 89.461657 
L 304.537753 86.522338 
L 298.380548 83.799639 
L 292.042702 81.30029 
L 285.539879 79.030468 
L 278.888155 76.995785 
L 272.10397 75.20127 
L 265.204094 73.651358 
L 258.205583 72.34988 
L 251.125735 71.300054 
L 243.98205 70.504475 
L 236.792187 69.965108 
L 229.573917 69.683288 
L 222.345083 69.659711 
L 215.123552 69.894435 
L 207.927177 70.38688 
L 200.773743 71.135829 
L 193.680934 72.13943 
L 186.666282 73.395203 
L 179.747125 74.900043 
L 172.940567 76.650232 
L 166.263432 78.641442 
L 159.732224 80.868753 
L 153.363088 83.326657 
L 147.171768 86.009081 
L 141.173566 88.909393 
L 135.383309 92.020425 
L 129.81531 95.334486 
L 124.483332 98.843385 
L 119.400554 102.538448 
L 114.579541 106.410543 
L 110.032209 110.450097 
L 105.769798 114.647125 
L 101.802843 118.991254 
L 98.141152 123.471746 
L 94.793774 128.077525 
L 91.768984 132.797207 
L 89.074258 137.619126 
L 86.716258 142.531363 
L 84.700811 147.521775 
L 83.032901 152.578027 
L 81.716649 157.687622 
L 80.755309 162.837928 
L 80.151257 168.016216 
L 79.905986 173.209686 
L 80.020104 178.4055 
L 80.493327 183.590816 
L 81.324485 188.752815 
L 82.511526 193.878739 
L 84.051513 198.955917 
L 85.940641 203.9718 
L 88.17424 208.913989 
L 90.74679 213.770267 
L 93.65193 218.528631 
L 96.882481 223.17732 
L 100.430456 227.704842 
L 104.287087 232.100006 
L 108.442839 236.351948 
L 112.887441 240.450159 
L 117.609907 244.384507 
L 122.598563 248.145269 
L 127.841078 251.723148 
L 133.324494 255.1093 
L 139.035257 258.295355 
L 144.959251 261.273439 
L 151.081833 264.036189 
L 157.387868 266.576777 
L 163.86177 268.888923 
L 170.487537 270.966911 
L 177.248789 272.805606 
L 184.128816 274.400461 
L 191.11061 275.747536 
L 198.176914 276.843501 
L 205.310262 277.685645 
L 212.49302 278.271889 
L 219.707436 278.600782 
L 226.935675 278.671511 
L 234.15987 278.483903 
L 241.362166 278.03842 
L 248.524759 277.336164 
L 255.629945 276.37887 
L 259.155515 275.805299 
L 259.155515 275.805299 
" clip-path="url(#frame0100_d58546_p9a481776d6)" style="fill: none; stroke: #0072b2; stroke-width: 2.5; stroke-linecap: square"/>
   </g>
   <g id="frame0100_d58546_patch_3">
    <path d="M 225.3 330.938125 
L 225.3 17.378125 
" style="fill: none; stroke: #000000; stroke-width: 0.8; stroke-linejoin: miter; stroke-linecap: square"/>
   </g>
   <g id="frame0100_d58546_patch_4">
    <path d="M 443.4 330.938125 
L 443.4 17.378125 
" style="fill: none"/>
   </g>
   <g id="frame0100_d58546_patch_5">
    <path d="M 7.2 174.158125 
L 443.4 174.158125 
" style="fill: none; stroke: #000000; stroke-width: 0.8; stroke-linejoin: miter; stroke-linecap: square"/>
   </g>
   <g id="frame0100_d58546_patch_6">
    <path d="M 7.2 17.378125 
L 443.4 17.378125 
" style="fill: none"/>
   </g>
  </g>
 </g>
 <defs>
  <clipPath id="frame0100_d58546_p9a481776d6">
   <rect x="7.2" y="17.378125" width="436.2" height="313.56"/>
  </clipPath>
 </defs>
</svg>
