<?xml version="1.0" encoding="utf-8" standalone="no"?>
<!DOCTYPE svg PUBLIC "-//W3C//DTD SVG 1.1//EN"
  "http://www.w3.org/Graphics/SVG/1.1/DTD/svg11.dtd">
<svg xmlns:xlink="http://www.w3.org/1999/xlink" width="453.6pt" height="338.138125pt" viewBox="0 0 453.6 338.138125" xmlns="http://www.w3.org/2000/svg" version="1.1">
 <metadata>
  <rdf:RDF xmlns:dc="http://purl.org/dc/elements/1.1/" xmlns:cc="http://creativecommons.org/ns#" xmlns:rdf="http://www.w3.org/1999/02/22-rdf-syntax-ns#">
   <cc:Work>
    <dc:type rdf:resource="http://purl.org/dc/dcmitype/StillImage"/>
    <dc:date>2026-01-22T01:05:28.607351</dc:date>
    <dc:format>image/svg+xml</dc:format>
    <dc:creator>
     <cc:Agent>
      <dc:title>Matplotlib v3.9.1, https://matplotlib.org/</dc:title>
     </cc:Agent>
    </dc:creator>
   </cc:Work>
  </rdf:RDF>
 </metadata>
 <defs>
  <style type="text/css">*{stroke-linejoin: round; stroke-linecap: butt}</style>
 </defs>
 <g id="frame0074_0be26a_figure_1">
  <g id="frame0074_0be26a_patch_1">
   <path d="M 0 338.138125 
L 453.6 338.138125 
L 453.6 0 
L 0 0 
L 0 338.138125 
z
" style="fill: none; opacity: 0"/>
  </g>
  <g id="frame0074_0be26a_axes_1">
   <g id="frame0074_0be26a_patch_2">
    <path d="M 7.2 330.938125 
L 443.4 330.938125 
L 443.4 17.378125 
L 7.2 17.378125 
L 7.2 330.938125 
z
" style="fill: none; opacity: 0"/>
   </g>
   <g id="frame0074_0be26a_matplotlib.axis_1">
    <g id="frame0074_0be26a_xtick_1">
     <g id="frame0074_0be26a_line2d_1">
      <path d="M 79.9 330.938125 
L 79.9 17.378125 
" clip-path="url(#frame0074_0be26a_p95b3ad316c)" style="fill: none; stroke-dasharray: 2.96,1.28; stroke-dashoffset: 0; stroke: #b0b0b0; stroke-opacity: 0.6; stroke-width: 0.8"/>
     </g>
     <g id="frame0074_0be26a_line2d_2">
      <defs>
       <path id="frame0074_0be26a_m30e5e93bfd" d="M 0 0 
L 0 3.5 
" style="stroke: #000000; stroke-width: 0.8"/>
      </defs>
      <g>
       <use xlink:href="#frame0074_0be26a_m30e5e93bfd" x="79.9" y="174.158125" style="stroke: #000000; stroke-width: 0.8"/>
      </g>
     </g>
     <g id="frame0074_0be26a_text_1">
      <!-- −1 -->
      <g transform="translate(65.157813 196.355) scale(0.2 -0.2)">
       <defs>
        <path id="frame0074_0be26a_DejaVuSans-2212" d="M 678 2272 
L 4684 2272 
L 4684 1741 
L 678 1741 
L 678 2272 
z
" transform="scale(0.015625)"/>
        <path id="frame0074_0be26a_DejaVuSans-31" d="M 794 531 
L 1825 531 
L 1825 4091 
L 703 3866 
L 703 4441 
L 1819 4666 
L 2450 4666 
L 2450 531 
L 3481 531 
L 3481 0 
L 794 0 
L 794 531 
z
" transform="scale(0.015625)"/>
       </defs>
       <use xlink:href="#frame0074_0be26a_DejaVuSans-2212"/>
       <use xlink:href="#frame0074_0be26a_DejaVuSans-31" x="83.789062"/>
      </g>
     </g>
    </g>
    <g id="frame0074_0be26a_xtick_2">
     <g id="frame0074_0be26a_line2d_3">
      <path d="M 370.7 330.938125 
L 370.7 17.378125 
" clip-path="url(#frame0074_0be26a_p95b3ad316c)" style="fill: none; stroke-dasharray: 2.96,1.28; stroke-dashoffset: 0; stroke: #b0b0b0; stroke-opacity: 0.6; stroke-width: 0.8"/>
     </g>
     <g id="frame0074_0be26a_line2d_4">
      <g>
       <use xlink:href="#frame0074_0be26a_m30e5e93bfd" x="370.7" y="174.158125" style="stroke: #000000; stroke-width: 0.8"/>
      </g>
     </g>
     <g id="frame0074_0be26a_text_2">
      <!-- 1 -->
      <g transform="translate(364.3375 196.355) scale(0.2 -0.2)">
       <use xlink:href="#frame0074_0be26a_DejaVuSans-31"/>
      </g>
     </g>
    </g>
    <g id="frame0074_0be26a_text_3">
     <!-- $x$ -->
     <g transform="translate(431.4 219.71125) scale(0.2 -0.2)">
      <defs>
       <path id="frame0074_0be26a_DejaVuSans-Oblique-78" d="M 3841 3500 
L 2234 1784 
L 3219 0 
L 2559 0 
L 1819 1388 
L 531 0 
L -166 0 
L 1556 1844 
L 641 3500 
L 1300 3500 
L 1972 2234 
L 3144 3500 
L 3841 3500 
z
" transform="scale(0.015625)"/>
      </defs>
      <use xlink:href="#frame0074_0be26a_DejaVuSans-Oblique-78" transform="translate(0 0.3125)"/>
     </g>
    </g>
   </g>
   <g id="frame0074_0be26a_matplotlib.axis_2">
    <g id="frame0074_0be26a_ytick_1">
     <g id="frame0074_0be26a_line2d_5">
      <path d="M 7.2 278.678125 
L 443.4 278.678125 
" clip-path="url(#frame0074_0be26a_p95b3ad316c)" style="fill: none; stroke-dasharray: 2.96,1.28; stroke-dashoffset: 0; stroke: #b0b0b0; stroke-opacity: 0.6; stroke-width: 0.8"/>
     </g>
     <g id="frame0074_0be26a_line2d_6">
      <defs>
       <path id="frame0074_0be26a_mb3eae9f3bc" d="M 0 0 
L -3.5 0 
" style="stroke: #000000; stroke-width: 0.8"/>
      </defs>
      <g>
       <use xlink:href="#frame0074_0be26a_mb3eae9f3bc" x="225.3" y="278.678125" style="stroke: #000000; stroke-width: 0.8"/>
      </g>
     </g>
     <g id="frame0074_0be26a_text_4">
      <!-- −1 -->
      <g transform="translate(188.815625 286.276562) scale(0.2 -0.2)">
       <use xlink:href="#frame0074_0be26a_DejaVuSans-2212"/>
       <use xlink:href="#frame0074_0be26a_DejaVuSans-31" x="83.789062"/>
      </g>
     </g>
    </g>
    <g id="frame0074_0be26a_ytick_2">
     <g id="frame0074_0be26a_line2d_7">
      <path d="M 7.2 69.638125 
L 443.4 69.638125 
" clip-path="url(#frame0074_0be26a_p95b3ad316c)" style="fill: none; stroke-dasharray: 2.96,1.28; stroke-dashoffset: 0; stroke: #b0b0b0; stroke-opacity: 0.6; stroke-width: 0.8"/>
     </g>
     <g id="frame0074_0be26a_line2d_8">
      <g>
       <use xlink:href="#frame0074_0be26a_mb3eae9f3bc" x="225.3" y="69.638125" style="stroke: #000000; stroke-width: 0.8"/>
      </g>
     </g>
     <g id="frame0074_0be26a_text_5">
      <!-- 1 -->
      <g transform="translate(205.575 77.236562) scale(0.2 -0.2)">
       <use xlink:href="#frame0074_0be26a_DejaVuSans-31"/>
      </g>
     </g>
    </g>
    <g id="frame0074_0be26a_text_6">
     <!-- $y$ -->
     <g transform="translate(172.815625 13.178125) scale(0.2 -0.2)">
      <defs>
       <path id="frame0074_0be26a_DejaVuSans-Oblique-79" d="M 1588 -325 
Q 1188 -997 936 -1164 
Q 684 -1331 294 -1331 
L -159 -1331 
L -63 -850 
L 269 -850 
Q 509 -850 678 -719 
Q 847 -588 1056 -206 
L 1234 128 
L 459 3500 
L 1069 3500 
L 1650 819 
L 3256 3500 
L 3859 3500 
L 1588 -325 
z
" transform="scale(0.015625)"/>
      </defs>
      <use xlink:href="#frame0074_0be26a_DejaVuSans-Oblique-79" transform="translate(0 0.3125)"/>
     </g>
    </g>
   </g>
   <g id="frame0074_0be26a_line2d_9">
    <defs>
     <path id="frame0074_0be26a_mc6c93fc49a" d="M 3 0 
L -3 -3 
L -3 3 
z
" style="stroke: #000000; stroke-linejoin: miter"/>
    </defs>
    <g>
     <use xlink:href="#frame0074_0be26a_mc6c93fc49a" x="443.4" y="174.158125" style="stroke: #000000; stroke-linejoin: miter"/>
    </g>
   </g>
   <g id="frame0074_0be26a_line2d_10">
    <defs>
     <path id="frame0074_0be26a_md6e01bbaa3" d="M 0 -3 
L -3 3 
L 3 3 
z
" style="stroke: #000000; stroke-linejoin: miter"/>
    </defs>
    <g>
     <use xlink:href="#frame0074_0be26a_md6e01bbaa3" x="225.3" y="17.378125" style="stroke: #000000; stroke-linejoin: miter"/>
    </g>
   </g>
   <g id="frame0074_0be26a_line2d_11">
    <defs>
     <path id="frame0074_0be26a_md50367f6d0" d="M 0 5 
C 1.326016 5 2.597899 4.473168 3.535534 3.535534 
C 4.473168 2.597899 5 1.326016 5 0 
C 5 -1.326016 4.473168 -2.597899 3.535534 -3.535534 
C 2.597899 -4.473168 1.326016 -5 0 -5 
C -1.326016 -5 -2.597899 -4.473168 -3.535534 -3.535534 
C -4.473168 -2.597899 -5 -1.326016 -5 0 
C -5 1.326016 -4.473168 2.597899 -3.535534 3.535534 
C -2.597899 4.473168 -1.326016 5 0 5 
z
" style="stroke: #000000; stroke-opacity: 0.8"/>
    </defs>
    <g clip-path="url(#frame0074_0be26a_p95b3ad316c)">
     <use xlink:href="#frame0074_0be26a_md50367f6d0" x="99.081248" y="226.044496" style="fill-opacity: 0.8; stroke: #000000; stroke-opacity: 0.8"/>
    </g>
   </g>
   <g id="frame0074_0be26a_line2d_12">
    <path d="M 370.7 174.158125 
L 370.601586 170.313215 
L 370.306479 166.47351 
L 369.815077 162.644207 
L 369.128046 158.830491 
L 368.246316 155.037523 
L 367.17108 151.270439 
L 365.903794 147.534338 
L 364.446173 143.834278 
L 362.800191 140.175267 
L 360.968076 136.562258 
L 358.952308 133.000142 
L 356.755615 129.493742 
L 354.380972 126.047803 
L 351.831592 122.666992 
L 349.110928 119.355883 
L 346.222661 116.11896 
L 343.170702 112.960604 
L 339.959182 109.885092 
L 336.592449 106.896585 
L 333.07506 103.999129 
L 329.411776 101.196648 
L 325.607557 98.492934 
L 321.667552 95.891647 
L 317.597095 93.39631 
L 313.401695 91.010299 
L 309.087033 88.736845 
L 304.658949 86.579025 
L 300.123437 84.53976 
L 295.486638 82.621812 
L 290.754826 80.827775 
L 285.934409 79.16008 
L 278.551953 76.900316 
L 271.007324 74.93674 
L 263.323499 73.27533 
L 255.523877 71.921147 
L 247.632213 70.878315 
L 239.672538 70.15001 
L 231.669093 69.738449 
L 223.646252 69.644886 
L 215.628448 69.869605 
L 207.640097 70.411923 
L 199.705527 71.270188 
L 191.848902 72.441786 
L 184.094148 73.92315 
L 176.464882 75.709767 
L 168.984338 77.796197 
L 161.675296 80.176085 
L 156.908897 81.922168 
L 152.235078 83.793109 
L 147.660166 85.786378 
L 143.190355 87.899274 
L 138.831696 90.128939 
L 134.590088 92.472353 
L 130.471274 94.926345 
L 126.480829 97.487593 
L 122.624154 100.152629 
L 118.906472 102.917846 
L 115.332814 105.779501 
L 111.908017 108.733719 
L 108.636719 111.776502 
L 105.523347 114.90373 
L 102.572116 118.111171 
L 99.787021 121.394482 
L 97.171833 124.749219 
L 94.730091 128.170841 
L 92.4651 131.654715 
L 90.379927 135.196126 
L 88.477395 138.79028 
L 86.760079 142.432311 
L 85.230303 146.117289 
L 83.890139 149.840225 
L 82.741401 153.596081 
L 81.785643 157.379771 
L 81.02416 161.186175 
L 80.457983 165.010138 
L 80.087877 168.846485 
L 79.914344 172.690022 
L 79.937619 176.535546 
L 80.15767 180.377852 
L 80.574199 184.211739 
L 81.186643 188.032016 
L 81.994172 191.833512 
L 82.995693 195.611081 
L 84.189851 199.359609 
L 85.575029 203.074022 
L 87.149352 206.749292 
L 88.910689 210.380443 
L 90.856655 213.962561 
L 92.984616 217.490795 
L 95.291691 220.96037 
L 97.774759 224.36659 
L 99.081248 226.044496 
L 99.081248 226.044496 
" clip-path="url(#frame0074_0be26a_p95b3ad316c)" style="fill: none; stroke: #0072b2; stroke-width: 2.5; stroke-linecap: square"/>
   </g>
   <g id="frame0074_0be26a_patch_3">
    <path d="M 225.3 330.938125 
L 225.3 17.378125 
" style="fill: none; stroke: #000000; stroke-width: 0.8; stroke-linejoin: miter; stroke-linecap: square"/>
   </g>
   <g id="frame0074_0be26a_patch_4">
    <path d="M 443.4 330.938125 
L 443.4 17.378125 
" style="fill: none"/>
   </g>
   <g id="frame0074_0be26a_patch_5">
    <path d="M 7.2 174.158125 
L 443.4 174.158125 
" style="fill: none; stroke: #000000; stroke-width: 0.8; stroke-linejoin: miter; stroke-linecap: square"/>
   </g>
   <g id="frame0074_0be26a_patch_6">
    <path d="M 7.2 17.378125 
L 443.4 17.378125 
" style="fill: none"/>
   </g>
  </g>
 </g>
 <defs>
  <clipPath id="frame0074_0be26a_p95b3ad316c">
   <rect x="7.2" y="17.378125" width="436.2" height="313.56"/>
  </clipPath>
 </defs>
</svg>
