<?xml version="1.0" encoding="utf-8" standalone="no"?>
<!DOCTYPE svg PUBLIC "-//W3C//DTD SVG 1.1//EN"
  "http://www.w3.org/Graphics/SVG/1.1/DTD/svg11.dtd">
<svg xmlns:xlink="http://www.w3.org/1999/xlink" width="453.6pt" height="338.138125pt" viewBox="0 0 453.6 338.138125" xmlns="http://www.w3.org/2000/svg" version="1.1">
 <metadata>
  <rdf:RDF xmlns:dc="http://purl.org/dc/elements/1.1/" xmlns:cc="http://creativecommons.org/ns#" xmlns:rdf="http://www.w3.org/1999/02/22-rdf-syntax-ns#">
   <cc:Work>
    <dc:type rdf:resource="http://purl.org/dc/dcmitype/StillImage"/>
    <dc:date>2026-01-22T01:05:31.327994</dc:date>
    <dc:format>image/svg+xml</dc:format>
    <dc:creator>
     <cc:Agent>
      <dc:title>Matplotlib v3.9.1, https://matplotlib.org/</dc:title>
     </cc:Agent>
    </dc:creator>
   </cc:Work>
  </rdf:RDF>
 </metadata>
 <defs>
  <style type="text/css">*{stroke-linejoin: round; stroke-linecap: butt}</style>
 </defs>
 <g id="frame0107_69170f_figure_1">
  <g id="frame0107_69170f_patch_1">
   <path d="M 0 338.138125 
L 453.6 338.138125 
L 453.6 0 
L 0 0 
L 0 338.138125 
z
" style="fill: none; opacity: 0"/>
  </g>
  <g id="frame0107_69170f_axes_1">
   <g id="frame0107_69170f_patch_2">
    <path d="M 7.2 330.938125 
L 443.4 330.938125 
L 443.4 17.378125 
L 7.2 17.378125 
L 7.2 330.938125 
z
" style="fill: none; opacity: 0"/>
   </g>
   <g id="frame0107_69170f_matplotlib.axis_1">
    <g id="frame0107_69170f_xtick_1">
     <g id="frame0107_69170f_line2d_1">
      <path d="M 79.9 330.938125 
L 79.9 17.378125 
" clip-path="url(#frame0107_69170f_pa9f46743cd)" style="fill: none; stroke-dasharray: 2.96,1.28; stroke-dashoffset: 0; stroke: #b0b0b0; stroke-opacity: 0.6; stroke-width: 0.8"/>
     </g>
     <g id="frame0107_69170f_line2d_2">
      <defs>
       <path id="frame0107_69170f_m697956a880" d="M 0 0 
L 0 3.5 
" style="stroke: #000000; stroke-width: 0.8"/>
      </defs>
      <g>
       <use xlink:href="#frame0107_69170f_m697956a880" x="79.9" y="174.158125" style="stroke: #000000; stroke-width: 0.8"/>
      </g>
     </g>
     <g id="frame0107_69170f_text_1">
      <!-- −1 -->
      <g transform="translate(65.157813 196.355) scale(0.2 -0.2)">
       <defs>
        <path id="frame0107_69170f_DejaVuSans-2212" d="M 678 2272 
L 4684 2272 
L 4684 1741 
L 678 1741 
L 678 2272 
z
" transform="scale(0.015625)"/>
        <path id="frame0107_69170f_DejaVuSans-31" d="M 794 531 
L 1825 531 
L 1825 4091 
L 703 3866 
L 703 4441 
L 1819 4666 
L 2450 4666 
L 2450 531 
L 3481 531 
L 3481 0 
L 794 0 
L 794 531 
z
" transform="scale(0.015625)"/>
       </defs>
       <use xlink:href="#frame0107_69170f_DejaVuSans-2212"/>
       <use xlink:href="#frame0107_69170f_DejaVuSans-31" x="83.789062"/>
      </g>
     </g>
    </g>
    <g id="frame0107_69170f_xtick_2">
     <g id="frame0107_69170f_line2d_3">
      <path d="M 370.7 330.938125 
L 370.7 17.378125 
" clip-path="url(#frame0107_69170f_pa9f46743cd)" style="fill: none; stroke-dasharray: 2.96,1.28; stroke-dashoffset: 0; stroke: #b0b0b0; stroke-opacity: 0.6; stroke-width: 0.8"/>
     </g>
     <g id="frame0107_69170f_line2d_4">
      <g>
       <use xlink:href="#frame0107_69170f_m697956a880" x="370.7" y="174.158125" style="stroke: #000000; stroke-width: 0.8"/>
      </g>
     </g>
     <g id="frame0107_69170f_text_2">
      <!-- 1 -->
      <g transform="translate(364.3375 196.355) scale(0.2 -0.2)">
       <use xlink:href="#frame0107_69170f_DejaVuSans-31"/>
      </g>
     </g>
    </g>
    <g id="frame0107_69170f_text_3">
     <!-- $x$ -->
     <g transform="translate(431.4 219.71125) scale(0.2 -0.2)">
      <defs>
       <path id="frame0107_69170f_DejaVuSans-Oblique-78" d="M 3841 3500 
L 2234 1784 
L 3219 0 
L 2559 0 
L 1819 1388 
L 531 0 
L -166 0 
L 1556 1844 
L 641 3500 
L 1300 3500 
L 1972 2234 
L 3144 3500 
L 3841 3500 
z
" transform="scale(0.015625)"/>
      </defs>
      <use xlink:href="#frame0107_69170f_DejaVuSans-Oblique-78" transform="translate(0 0.3125)"/>
     </g>
    </g>
   </g>
   <g id="frame0107_69170f_matplotlib.axis_2">
    <g id="frame0107_69170f_ytick_1">
     <g id="frame0107_69170f_line2d_5">
      <path d="M 7.2 278.678125 
L 443.4 278.678125 
" clip-path="url(#frame0107_69170f_pa9f46743cd)" style="fill: none; stroke-dasharray: 2.96,1.28; stroke-dashoffset: 0; stroke: #b0b0b0; stroke-opacity: 0.6; stroke-width: 0.8"/>
     </g>
     <g id="frame0107_69170f_line2d_6">
      <defs>
       <path id="frame0107_69170f_m1c026a9c2c" d="M 0 0 
L -3.5 0 
" style="stroke: #000000; stroke-width: 0.8"/>
      </defs>
      <g>
       <use xlink:href="#frame0107_69170f_m1c026a9c2c" x="225.3" y="278.678125" style="stroke: #000000; stroke-width: 0.8"/>
      </g>
     </g>
     <g id="frame0107_69170f_text_4">
      <!-- −1 -->
      <g transform="translate(188.815625 286.276562) scale(0.2 -0.2)">
       <use xlink:href="#frame0107_69170f_DejaVuSans-2212"/>
       <use xlink:href="#frame0107_69170f_DejaVuSans-31" x="83.789062"/>
      </g>
     </g>
    </g>
    <g id="frame0107_69170f_ytick_2">
     <g id="frame0107_69170f_line2d_7">
      <path d="M 7.2 69.638125 
L 443.4 69.638125 
" clip-path="url(#frame0107_69170f_pa9f46743cd)" style="fill: none; stroke-dasharray: 2.96,1.28; stroke-dashoffset: 0; stroke: #b0b0b0; stroke-opacity: 0.6; stroke-width: 0.8"/>
     </g>
     <g id="frame0107_69170f_line2d_8">
      <g>
       <use xlink:href="#frame0107_69170f_m1c026a9c2c" x="225.3" y="69.638125" style="stroke: #000000; stroke-width: 0.8"/>
      </g>
     </g>
     <g id="frame0107_69170f_text_5">
      <!-- 1 -->
      <g transform="translate(205.575 77.236562) scale(0.2 -0.2)">
       <use xlink:href="#frame0107_69170f_DejaVuSans-31"/>
      </g>
     </g>
    </g>
    <g id="frame0107_69170f_text_6">
     <!-- $y$ -->
     <g transform="translate(172.815625 13.178125) scale(0.2 -0.2)">
      <defs>
       <path id="frame0107_69170f_DejaVuSans-Oblique-79" d="M 1588 -325 
Q 1188 -997 936 -1164 
Q 684 -1331 294 -1331 
L -159 -1331 
L -63 -850 
L 269 -850 
Q 509 -850 678 -719 
Q 847 -588 1056 -206 
L 1234 128 
L 459 3500 
L 1069 3500 
L 1650 819 
L 3256 3500 
L 3859 3500 
L 1588 -325 
z
" transform="scale(0.015625)"/>
      </defs>
      <use xlink:href="#frame0107_69170f_DejaVuSans-Oblique-79" transform="translate(0 0.3125)"/>
     </g>
    </g>
   </g>
   <g id="frame0107_69170f_line2d_9">
    <defs>
     <path id="frame0107_69170f_ma6bc2ffe97" d="M 3 0 
L -3 -3 
L -3 3 
z
" style="stroke: #000000; stroke-linejoin: miter"/>
    </defs>
    <g>
     <use xlink:href="#frame0107_69170f_ma6bc2ffe97" x="443.4" y="174.158125" style="stroke: #000000; stroke-linejoin: miter"/>
    </g>
   </g>
   <g id="frame0107_69170f_line2d_10">
    <defs>
     <path id="frame0107_69170f_m7735d27d13" d="M 0 -3 
L -3 3 
L 3 3 
z
" style="stroke: #000000; stroke-linejoin: miter"/>
    </defs>
    <g>
     <use xlink:href="#frame0107_69170f_m7735d27d13" x="225.3" y="17.378125" style="stroke: #000000; stroke-linejoin: miter"/>
    </g>
   </g>
   <g id="frame0107_69170f_line2d_11">
    <defs>
     <path id="frame0107_69170f_m5721459076" d="M 0 5 
C 1.326016 5 2.597899 4.473168 3.535534 3.535534 
C 4.473168 2.597899 5 1.326016 5 0 
C 5 -1.326016 4.473168 -2.597899 3.535534 -3.535534 
C 2.597899 -4.473168 1.326016 -5 0 -5 
C -1.326016 -5 -2.597899 -4.473168 -3.535534 -3.535534 
C -4.473168 -2.597899 -5 -1.326016 -5 0 
C -5 1.326016 -4.473168 2.597899 -3.535534 3.535534 
C -2.597899 4.473168 -1.326016 5 0 5 
z
" style="stroke: #000000; stroke-opacity: 0.8"/>
    </defs>
    <g clip-path="url(#frame0107_69170f_pa9f46743cd)">
     <use xlink:href="#frame0107_69170f_m5721459076" x="305.142948" y="261.509612" style="fill-opacity: 0.8; stroke: #000000; stroke-opacity: 0.8"/>
    </g>
   </g>
   <g id="frame0107_69170f_line2d_12">
    <path d="M 370.7 174.158125 
L 370.494266 168.599961 
L 369.877647 163.057526 
L 368.851887 157.546505 
L 367.41989 152.082493 
L 365.585708 146.680953 
L 363.35453 141.357171 
L 360.732673 136.126212 
L 357.727554 131.00288 
L 354.347678 126.001672 
L 350.60261 121.136743 
L 346.502948 116.421859 
L 342.060294 111.870363 
L 337.28722 107.495135 
L 332.197233 103.308556 
L 326.804737 99.322475 
L 321.124993 95.548172 
L 315.174074 91.996327 
L 308.96882 88.676991 
L 302.526791 85.599559 
L 295.866219 82.772739 
L 289.005951 80.20453 
L 281.965401 77.902201 
L 274.764494 75.872266 
L 267.423608 74.120471 
L 259.963515 72.651772 
L 252.405329 71.470327 
L 244.770437 70.579477 
L 237.080445 69.981745 
L 229.357116 69.678822 
L 221.622306 69.671565 
L 213.897903 69.959994 
L 206.205768 70.543294 
L 198.567667 71.419813 
L 191.005215 72.587072 
L 183.539815 74.041767 
L 176.192592 75.779781 
L 168.984338 77.796197 
L 161.935451 80.085306 
L 155.065881 82.640633 
L 148.395065 85.454945 
L 141.941883 88.520279 
L 135.724597 91.827959 
L 129.760799 95.368625 
L 124.067369 99.132257 
L 118.660416 103.108206 
L 113.555243 107.285219 
L 108.766297 111.651475 
L 104.30713 116.194619 
L 100.19036 120.901794 
L 96.427638 125.759679 
L 93.029612 130.754527 
L 90.005899 135.872203 
L 87.365054 141.098224 
L 85.114552 146.417802 
L 83.26076 151.815882 
L 81.808926 157.277188 
L 80.763157 162.786265 
L 80.126413 168.327524 
L 79.900495 173.885283 
L 80.086044 179.443814 
L 80.682535 184.987387 
L 81.688278 190.500314 
L 83.100428 195.966995 
L 84.914989 201.371958 
L 87.126826 206.699909 
L 89.729679 211.93577 
L 92.716182 217.064724 
L 96.077885 222.072257 
L 99.805274 226.944197 
L 103.8878 231.666758 
L 108.313911 236.226575 
L 113.07108 240.610745 
L 118.145847 244.80686 
L 123.523849 248.803047 
L 129.189867 252.587995 
L 135.127868 256.150995 
L 141.321047 259.481964 
L 147.751878 262.571474 
L 154.402163 265.410783 
L 161.253081 267.991856 
L 168.285246 270.307389 
L 175.478757 272.350829 
L 182.813257 274.116394 
L 190.26799 275.599086 
L 197.821861 276.794711 
L 205.453492 277.699884 
L 213.141286 278.312044 
L 220.863489 278.629459 
L 228.598246 278.651231 
L 236.32367 278.377297 
L 244.017898 277.808433 
L 251.659156 276.94625 
L 259.22582 275.793186 
L 266.696478 274.352504 
L 274.049987 272.628283 
L 281.265539 270.625401 
L 288.322714 268.349526 
L 295.201541 265.807099 
L 301.882554 263.005314 
L 305.142948 261.509612 
L 305.142948 261.509612 
" clip-path="url(#frame0107_69170f_pa9f46743cd)" style="fill: none; stroke: #0072b2; stroke-width: 2.5; stroke-linecap: square"/>
   </g>
   <g id="frame0107_69170f_patch_3">
    <path d="M 225.3 330.938125 
L 225.3 17.378125 
" style="fill: none; stroke: #000000; stroke-width: 0.8; stroke-linejoin: miter; stroke-linecap: square"/>
   </g>
   <g id="frame0107_69170f_patch_4">
    <path d="M 443.4 330.938125 
L 443.4 17.378125 
" style="fill: none"/>
   </g>
   <g id="frame0107_69170f_patch_5">
    <path d="M 7.2 174.158125 
L 443.4 174.158125 
" style="fill: none; stroke: #000000; stroke-width: 0.8; stroke-linejoin: miter; stroke-linecap: square"/>
   </g>
   <g id="frame0107_69170f_patch_6">
    <path d="M 7.2 17.378125 
L 443.4 17.378125 
" style="fill: none"/>
   </g>
  </g>
 </g>
 <defs>
  <clipPath id="frame0107_69170f_pa9f46743cd">
   <rect x="7.2" y="17.378125" width="436.2" height="313.56"/>
  </clipPath>
 </defs>
</svg>
