<?xml version="1.0" encoding="utf-8" standalone="no"?>
<!DOCTYPE svg PUBLIC "-//W3C//DTD SVG 1.1//EN"
  "http://www.w3.org/Graphics/SVG/1.1/DTD/svg11.dtd">
<svg xmlns:xlink="http://www.w3.org/1999/xlink" width="453.6pt" height="338.138125pt" viewBox="0 0 453.6 338.138125" xmlns="http://www.w3.org/2000/svg" version="1.1">
 <metadata>
  <rdf:RDF xmlns:dc="http://purl.org/dc/elements/1.1/" xmlns:cc="http://creativecommons.org/ns#" xmlns:rdf="http://www.w3.org/1999/02/22-rdf-syntax-ns#">
   <cc:Work>
    <dc:type rdf:resource="http://purl.org/dc/dcmitype/StillImage"/>
    <dc:date>2026-01-22T01:05:28.529731</dc:date>
    <dc:format>image/svg+xml</dc:format>
    <dc:creator>
     <cc:Agent>
      <dc:title>Matplotlib v3.9.1, https://matplotlib.org/</dc:title>
     </cc:Agent>
    </dc:creator>
   </cc:Work>
  </rdf:RDF>
 </metadata>
 <defs>
  <style type="text/css">*{stroke-linejoin: round; stroke-linecap: butt}</style>
 </defs>
 <g id="frame0073_390e56_figure_1">
  <g id="frame0073_390e56_patch_1">
   <path d="M 0 338.138125 
L 453.6 338.138125 
L 453.6 0 
L 0 0 
L 0 338.138125 
z
" style="fill: none; opacity: 0"/>
  </g>
  <g id="frame0073_390e56_axes_1">
   <g id="frame0073_390e56_patch_2">
    <path d="M 7.2 330.938125 
L 443.4 330.938125 
L 443.4 17.378125 
L 7.2 17.378125 
L 7.2 330.938125 
z
" style="fill: none; opacity: 0"/>
   </g>
   <g id="frame0073_390e56_matplotlib.axis_1">
    <g id="frame0073_390e56_xtick_1">
     <g id="frame0073_390e56_line2d_1">
      <path d="M 79.9 330.938125 
L 79.9 17.378125 
" clip-path="url(#frame0073_390e56_pe7f12e16be)" style="fill: none; stroke-dasharray: 2.96,1.28; stroke-dashoffset: 0; stroke: #b0b0b0; stroke-opacity: 0.6; stroke-width: 0.8"/>
     </g>
     <g id="frame0073_390e56_line2d_2">
      <defs>
       <path id="frame0073_390e56_m3761bd4a3a" d="M 0 0 
L 0 3.5 
" style="stroke: #000000; stroke-width: 0.8"/>
      </defs>
      <g>
       <use xlink:href="#frame0073_390e56_m3761bd4a3a" x="79.9" y="174.158125" style="stroke: #000000; stroke-width: 0.8"/>
      </g>
     </g>
     <g id="frame0073_390e56_text_1">
      <!-- −1 -->
      <g transform="translate(65.157813 196.355) scale(0.2 -0.2)">
       <defs>
        <path id="frame0073_390e56_DejaVuSans-2212" d="M 678 2272 
L 4684 2272 
L 4684 1741 
L 678 1741 
L 678 2272 
z
" transform="scale(0.015625)"/>
        <path id="frame0073_390e56_DejaVuSans-31" d="M 794 531 
L 1825 531 
L 1825 4091 
L 703 3866 
L 703 4441 
L 1819 4666 
L 2450 4666 
L 2450 531 
L 3481 531 
L 3481 0 
L 794 0 
L 794 531 
z
" transform="scale(0.015625)"/>
       </defs>
       <use xlink:href="#frame0073_390e56_DejaVuSans-2212"/>
       <use xlink:href="#frame0073_390e56_DejaVuSans-31" x="83.789062"/>
      </g>
     </g>
    </g>
    <g id="frame0073_390e56_xtick_2">
     <g id="frame0073_390e56_line2d_3">
      <path d="M 370.7 330.938125 
L 370.7 17.378125 
" clip-path="url(#frame0073_390e56_pe7f12e16be)" style="fill: none; stroke-dasharray: 2.96,1.28; stroke-dashoffset: 0; stroke: #b0b0b0; stroke-opacity: 0.6; stroke-width: 0.8"/>
     </g>
     <g id="frame0073_390e56_line2d_4">
      <g>
       <use xlink:href="#frame0073_390e56_m3761bd4a3a" x="370.7" y="174.158125" style="stroke: #000000; stroke-width: 0.8"/>
      </g>
     </g>
     <g id="frame0073_390e56_text_2">
      <!-- 1 -->
      <g transform="translate(364.3375 196.355) scale(0.2 -0.2)">
       <use xlink:href="#frame0073_390e56_DejaVuSans-31"/>
      </g>
     </g>
    </g>
    <g id="frame0073_390e56_text_3">
     <!-- $x$ -->
     <g transform="translate(431.4 219.71125) scale(0.2 -0.2)">
      <defs>
       <path id="frame0073_390e56_DejaVuSans-Oblique-78" d="M 3841 3500 
L 2234 1784 
L 3219 0 
L 2559 0 
L 1819 1388 
L 531 0 
L -166 0 
L 1556 1844 
L 641 3500 
L 1300 3500 
L 1972 2234 
L 3144 3500 
L 3841 3500 
z
" transform="scale(0.015625)"/>
      </defs>
      <use xlink:href="#frame0073_390e56_DejaVuSans-Oblique-78" transform="translate(0 0.3125)"/>
     </g>
    </g>
   </g>
   <g id="frame0073_390e56_matplotlib.axis_2">
    <g id="frame0073_390e56_ytick_1">
     <g id="frame0073_390e56_line2d_5">
      <path d="M 7.2 278.678125 
L 443.4 278.678125 
" clip-path="url(#frame0073_390e56_pe7f12e16be)" style="fill: none; stroke-dasharray: 2.96,1.28; stroke-dashoffset: 0; stroke: #b0b0b0; stroke-opacity: 0.6; stroke-width: 0.8"/>
     </g>
     <g id="frame0073_390e56_line2d_6">
      <defs>
       <path id="frame0073_390e56_m8d177a3786" d="M 0 0 
L -3.5 0 
" style="stroke: #000000; stroke-width: 0.8"/>
      </defs>
      <g>
       <use xlink:href="#frame0073_390e56_m8d177a3786" x="225.3" y="278.678125" style="stroke: #000000; stroke-width: 0.8"/>
      </g>
     </g>
     <g id="frame0073_390e56_text_4">
      <!-- −1 -->
      <g transform="translate(188.815625 286.276562) scale(0.2 -0.2)">
       <use xlink:href="#frame0073_390e56_DejaVuSans-2212"/>
       <use xlink:href="#frame0073_390e56_DejaVuSans-31" x="83.789062"/>
      </g>
     </g>
    </g>
    <g id="frame0073_390e56_ytick_2">
     <g id="frame0073_390e56_line2d_7">
      <path d="M 7.2 69.638125 
L 443.4 69.638125 
" clip-path="url(#frame0073_390e56_pe7f12e16be)" style="fill: none; stroke-dasharray: 2.96,1.28; stroke-dashoffset: 0; stroke: #b0b0b0; stroke-opacity: 0.6; stroke-width: 0.8"/>
     </g>
     <g id="frame0073_390e56_line2d_8">
      <g>
       <use xlink:href="#frame0073_390e56_m8d177a3786" x="225.3" y="69.638125" style="stroke: #000000; stroke-width: 0.8"/>
      </g>
     </g>
     <g id="frame0073_390e56_text_5">
      <!-- 1 -->
      <g transform="translate(205.575 77.236562) scale(0.2 -0.2)">
       <use xlink:href="#frame0073_390e56_DejaVuSans-31"/>
      </g>
     </g>
    </g>
    <g id="frame0073_390e56_text_6">
     <!-- $y$ -->
     <g transform="translate(172.815625 13.178125) scale(0.2 -0.2)">
      <defs>
       <path id="frame0073_390e56_DejaVuSans-Oblique-79" d="M 1588 -325 
Q 1188 -997 936 -1164 
Q 684 -1331 294 -1331 
L -159 -1331 
L -63 -850 
L 269 -850 
Q 509 -850 678 -719 
Q 847 -588 1056 -206 
L 1234 128 
L 459 3500 
L 1069 3500 
L 1650 819 
L 3256 3500 
L 3859 3500 
L 1588 -325 
z
" transform="scale(0.015625)"/>
      </defs>
      <use xlink:href="#frame0073_390e56_DejaVuSans-Oblique-79" transform="translate(0 0.3125)"/>
     </g>
    </g>
   </g>
   <g id="frame0073_390e56_line2d_9">
    <defs>
     <path id="frame0073_390e56_mc661106e87" d="M 3 0 
L -3 -3 
L -3 3 
z
" style="stroke: #000000; stroke-linejoin: miter"/>
    </defs>
    <g>
     <use xlink:href="#frame0073_390e56_mc661106e87" x="443.4" y="174.158125" style="stroke: #000000; stroke-linejoin: miter"/>
    </g>
   </g>
   <g id="frame0073_390e56_line2d_10">
    <defs>
     <path id="frame0073_390e56_mf32f18dc6a" d="M 0 -3 
L -3 3 
L 3 3 
z
" style="stroke: #000000; stroke-linejoin: miter"/>
    </defs>
    <g>
     <use xlink:href="#frame0073_390e56_mf32f18dc6a" x="225.3" y="17.378125" style="stroke: #000000; stroke-linejoin: miter"/>
    </g>
   </g>
   <g id="frame0073_390e56_line2d_11">
    <defs>
     <path id="frame0073_390e56_m1822b8b608" d="M 0 5 
C 1.326016 5 2.597899 4.473168 3.535534 3.535534 
C 4.473168 2.597899 5 1.326016 5 0 
C 5 -1.326016 4.473168 -2.597899 3.535534 -3.535534 
C 2.597899 -4.473168 1.326016 -5 0 -5 
C -1.326016 -5 -2.597899 -4.473168 -3.535534 -3.535534 
C -4.473168 -2.597899 -5 -1.326016 -5 0 
C -5 1.326016 -4.473168 2.597899 -3.535534 3.535534 
C -2.597899 4.473168 -1.326016 5 0 5 
z
" style="stroke: #000000; stroke-opacity: 0.8"/>
    </defs>
    <g clip-path="url(#frame0073_390e56_pe7f12e16be)">
     <use xlink:href="#frame0073_390e56_m1822b8b608" x="95.666106" y="221.493991" style="fill-opacity: 0.8; stroke: #000000; stroke-opacity: 0.8"/>
    </g>
   </g>
   <g id="frame0073_390e56_line2d_12">
    <path d="M 370.7 174.158125 
L 370.604228 170.36515 
L 370.317038 166.577172 
L 369.838809 162.799181 
L 369.17017 159.036153 
L 368.312002 155.293047 
L 367.265437 151.574793 
L 366.031851 147.886289 
L 364.612872 144.232394 
L 363.010367 140.617923 
L 361.226449 137.047635 
L 359.263466 133.526236 
L 357.124006 130.058364 
L 354.810885 126.648587 
L 352.327153 123.301396 
L 349.67608 120.021203 
L 346.861159 116.812327 
L 343.886099 113.678996 
L 340.754818 110.625338 
L 337.471441 107.655376 
L 334.040295 104.773021 
L 330.465898 101.982072 
L 326.752961 99.286204 
L 322.906373 96.68897 
L 318.931203 94.19379 
L 314.832686 91.803952 
L 310.616223 89.522604 
L 306.287368 87.352751 
L 301.851824 85.297252 
L 295.011283 82.434299 
L 287.964142 79.843183 
L 280.731286 77.531584 
L 273.334152 75.506352 
L 265.794661 73.773489 
L 258.135158 72.338131 
L 250.378343 71.204533 
L 242.547204 70.376053 
L 234.664951 69.855146 
L 226.754943 69.643358 
L 218.840624 69.741315 
L 210.945448 70.148726 
L 203.092813 70.864386 
L 195.305993 71.886172 
L 187.608065 73.211056 
L 180.021843 74.835112 
L 172.569809 76.753527 
L 165.274049 78.960615 
L 158.156185 81.449836 
L 151.237312 84.213811 
L 144.537935 87.24435 
L 140.203459 89.408397 
L 135.981086 91.68409 
L 131.876378 94.06843 
L 127.894742 96.558277 
L 124.041424 99.150351 
L 120.3215 101.841238 
L 116.73987 104.627391 
L 113.301253 107.505142 
L 110.010179 110.470699 
L 106.870983 113.520154 
L 103.8878 116.649492 
L 101.064561 119.854589 
L 98.404984 123.131224 
L 95.912574 126.475079 
L 93.590613 129.88175 
L 91.442161 133.346749 
L 89.470048 136.865511 
L 87.676871 140.4334 
L 86.064994 144.045718 
L 84.636539 147.697704 
L 83.393388 151.384548 
L 82.33718 155.101393 
L 81.469305 158.843343 
L 80.790906 162.605468 
L 80.302878 166.382811 
L 80.005863 170.170398 
L 79.900253 173.963238 
L 79.986186 177.756334 
L 80.26355 181.544691 
L 80.731979 185.323316 
L 81.390856 189.087234 
L 82.239313 192.831484 
L 83.276232 196.551134 
L 84.500247 200.241285 
L 85.909747 203.897075 
L 87.502873 207.513689 
L 89.277528 211.086361 
L 91.231373 214.610385 
L 93.361834 218.081119 
L 95.666106 221.493991 
L 95.666106 221.493991 
" clip-path="url(#frame0073_390e56_pe7f12e16be)" style="fill: none; stroke: #0072b2; stroke-width: 2.5; stroke-linecap: square"/>
   </g>
   <g id="frame0073_390e56_patch_3">
    <path d="M 225.3 330.938125 
L 225.3 17.378125 
" style="fill: none; stroke: #000000; stroke-width: 0.8; stroke-linejoin: miter; stroke-linecap: square"/>
   </g>
   <g id="frame0073_390e56_patch_4">
    <path d="M 443.4 330.938125 
L 443.4 17.378125 
" style="fill: none"/>
   </g>
   <g id="frame0073_390e56_patch_5">
    <path d="M 7.2 174.158125 
L 443.4 174.158125 
" style="fill: none; stroke: #000000; stroke-width: 0.8; stroke-linejoin: miter; stroke-linecap: square"/>
   </g>
   <g id="frame0073_390e56_patch_6">
    <path d="M 7.2 17.378125 
L 443.4 17.378125 
" style="fill: none"/>
   </g>
  </g>
 </g>
 <defs>
  <clipPath id="frame0073_390e56_pe7f12e16be">
   <rect x="7.2" y="17.378125" width="436.2" height="313.56"/>
  </clipPath>
 </defs>
</svg>
