<?xml version="1.0" encoding="utf-8" standalone="no"?>
<!DOCTYPE svg PUBLIC "-//W3C//DTD SVG 1.1//EN"
  "http://www.w3.org/Graphics/SVG/1.1/DTD/svg11.dtd">
<svg xmlns:xlink="http://www.w3.org/1999/xlink" width="453.6pt" height="338.138125pt" viewBox="0 0 453.6 338.138125" xmlns="http://www.w3.org/2000/svg" version="1.1">
 <metadata>
  <rdf:RDF xmlns:dc="http://purl.org/dc/elements/1.1/" xmlns:cc="http://creativecommons.org/ns#" xmlns:rdf="http://www.w3.org/1999/02/22-rdf-syntax-ns#">
   <cc:Work>
    <dc:type rdf:resource="http://purl.org/dc/dcmitype/StillImage"/>
    <dc:date>2026-01-22T01:05:30.173901</dc:date>
    <dc:format>image/svg+xml</dc:format>
    <dc:creator>
     <cc:Agent>
      <dc:title>Matplotlib v3.9.1, https://matplotlib.org/</dc:title>
     </cc:Agent>
    </dc:creator>
   </cc:Work>
  </rdf:RDF>
 </metadata>
 <defs>
  <style type="text/css">*{stroke-linejoin: round; stroke-linecap: butt}</style>
 </defs>
 <g id="frame0094_ee9132_figure_1">
  <g id="frame0094_ee9132_patch_1">
   <path d="M 0 338.138125 
L 453.6 338.138125 
L 453.6 0 
L 0 0 
L 0 338.138125 
z
" style="fill: none; opacity: 0"/>
  </g>
  <g id="frame0094_ee9132_axes_1">
   <g id="frame0094_ee9132_patch_2">
    <path d="M 7.2 330.938125 
L 443.4 330.938125 
L 443.4 17.378125 
L 7.2 17.378125 
L 7.2 330.938125 
z
" style="fill: none; opacity: 0"/>
   </g>
   <g id="frame0094_ee9132_matplotlib.axis_1">
    <g id="frame0094_ee9132_xtick_1">
     <g id="frame0094_ee9132_line2d_1">
      <path d="M 79.9 330.938125 
L 79.9 17.378125 
" clip-path="url(#frame0094_ee9132_pbc0dca7d92)" style="fill: none; stroke-dasharray: 2.96,1.28; stroke-dashoffset: 0; stroke: #b0b0b0; stroke-opacity: 0.6; stroke-width: 0.8"/>
     </g>
     <g id="frame0094_ee9132_line2d_2">
      <defs>
       <path id="frame0094_ee9132_mc8ee7454dc" d="M 0 0 
L 0 3.5 
" style="stroke: #000000; stroke-width: 0.8"/>
      </defs>
      <g>
       <use xlink:href="#frame0094_ee9132_mc8ee7454dc" x="79.9" y="174.158125" style="stroke: #000000; stroke-width: 0.8"/>
      </g>
     </g>
     <g id="frame0094_ee9132_text_1">
      <!-- −1 -->
      <g transform="translate(65.157813 196.355) scale(0.2 -0.2)">
       <defs>
        <path id="frame0094_ee9132_DejaVuSans-2212" d="M 678 2272 
L 4684 2272 
L 4684 1741 
L 678 1741 
L 678 2272 
z
" transform="scale(0.015625)"/>
        <path id="frame0094_ee9132_DejaVuSans-31" d="M 794 531 
L 1825 531 
L 1825 4091 
L 703 3866 
L 703 4441 
L 1819 4666 
L 2450 4666 
L 2450 531 
L 3481 531 
L 3481 0 
L 794 0 
L 794 531 
z
" transform="scale(0.015625)"/>
       </defs>
       <use xlink:href="#frame0094_ee9132_DejaVuSans-2212"/>
       <use xlink:href="#frame0094_ee9132_DejaVuSans-31" x="83.789062"/>
      </g>
     </g>
    </g>
    <g id="frame0094_ee9132_xtick_2">
     <g id="frame0094_ee9132_line2d_3">
      <path d="M 370.7 330.938125 
L 370.7 17.378125 
" clip-path="url(#frame0094_ee9132_pbc0dca7d92)" style="fill: none; stroke-dasharray: 2.96,1.28; stroke-dashoffset: 0; stroke: #b0b0b0; stroke-opacity: 0.6; stroke-width: 0.8"/>
     </g>
     <g id="frame0094_ee9132_line2d_4">
      <g>
       <use xlink:href="#frame0094_ee9132_mc8ee7454dc" x="370.7" y="174.158125" style="stroke: #000000; stroke-width: 0.8"/>
      </g>
     </g>
     <g id="frame0094_ee9132_text_2">
      <!-- 1 -->
      <g transform="translate(364.3375 196.355) scale(0.2 -0.2)">
       <use xlink:href="#frame0094_ee9132_DejaVuSans-31"/>
      </g>
     </g>
    </g>
    <g id="frame0094_ee9132_text_3">
     <!-- $x$ -->
     <g transform="translate(431.4 219.71125) scale(0.2 -0.2)">
      <defs>
       <path id="frame0094_ee9132_DejaVuSans-Oblique-78" d="M 3841 3500 
L 2234 1784 
L 3219 0 
L 2559 0 
L 1819 1388 
L 531 0 
L -166 0 
L 1556 1844 
L 641 3500 
L 1300 3500 
L 1972 2234 
L 3144 3500 
L 3841 3500 
z
" transform="scale(0.015625)"/>
      </defs>
      <use xlink:href="#frame0094_ee9132_DejaVuSans-Oblique-78" transform="translate(0 0.3125)"/>
     </g>
    </g>
   </g>
   <g id="frame0094_ee9132_matplotlib.axis_2">
    <g id="frame0094_ee9132_ytick_1">
     <g id="frame0094_ee9132_line2d_5">
      <path d="M 7.2 278.678125 
L 443.4 278.678125 
" clip-path="url(#frame0094_ee9132_pbc0dca7d92)" style="fill: none; stroke-dasharray: 2.96,1.28; stroke-dashoffset: 0; stroke: #b0b0b0; stroke-opacity: 0.6; stroke-width: 0.8"/>
     </g>
     <g id="frame0094_ee9132_line2d_6">
      <defs>
       <path id="frame0094_ee9132_md9b5a34b06" d="M 0 0 
L -3.5 0 
" style="stroke: #000000; stroke-width: 0.8"/>
      </defs>
      <g>
       <use xlink:href="#frame0094_ee9132_md9b5a34b06" x="225.3" y="278.678125" style="stroke: #000000; stroke-width: 0.8"/>
      </g>
     </g>
     <g id="frame0094_ee9132_text_4">
      <!-- −1 -->
      <g transform="translate(188.815625 286.276562) scale(0.2 -0.2)">
       <use xlink:href="#frame0094_ee9132_DejaVuSans-2212"/>
       <use xlink:href="#frame0094_ee9132_DejaVuSans-31" x="83.789062"/>
      </g>
     </g>
    </g>
    <g id="frame0094_ee9132_ytick_2">
     <g id="frame0094_ee9132_line2d_7">
      <path d="M 7.2 69.638125 
L 443.4 69.638125 
" clip-path="url(#frame0094_ee9132_pbc0dca7d92)" style="fill: none; stroke-dasharray: 2.96,1.28; stroke-dashoffset: 0; stroke: #b0b0b0; stroke-opacity: 0.6; stroke-width: 0.8"/>
     </g>
     <g id="frame0094_ee9132_line2d_8">
      <g>
       <use xlink:href="#frame0094_ee9132_md9b5a34b06" x="225.3" y="69.638125" style="stroke: #000000; stroke-width: 0.8"/>
      </g>
     </g>
     <g id="frame0094_ee9132_text_5">
      <!-- 1 -->
      <g transform="translate(205.575 77.236562) scale(0.2 -0.2)">
       <use xlink:href="#frame0094_ee9132_DejaVuSans-31"/>
      </g>
     </g>
    </g>
    <g id="frame0094_ee9132_text_6">
     <!-- $y$ -->
     <g transform="translate(172.815625 13.178125) scale(0.2 -0.2)">
      <defs>
       <path id="frame0094_ee9132_DejaVuSans-Oblique-79" d="M 1588 -325 
Q 1188 -997 936 -1164 
Q 684 -1331 294 -1331 
L -159 -1331 
L -63 -850 
L 269 -850 
Q 509 -850 678 -719 
Q 847 -588 1056 -206 
L 1234 128 
L 459 3500 
L 1069 3500 
L 1650 819 
L 3256 3500 
L 3859 3500 
L 1588 -325 
z
" transform="scale(0.015625)"/>
      </defs>
      <use xlink:href="#frame0094_ee9132_DejaVuSans-Oblique-79" transform="translate(0 0.3125)"/>
     </g>
    </g>
   </g>
   <g id="frame0094_ee9132_line2d_9">
    <defs>
     <path id="frame0094_ee9132_mc94a26263f" d="M 3 0 
L -3 -3 
L -3 3 
z
" style="stroke: #000000; stroke-linejoin: miter"/>
    </defs>
    <g>
     <use xlink:href="#frame0094_ee9132_mc94a26263f" x="443.4" y="174.158125" style="stroke: #000000; stroke-linejoin: miter"/>
    </g>
   </g>
   <g id="frame0094_ee9132_line2d_10">
    <defs>
     <path id="frame0094_ee9132_m7354e27d67" d="M 0 -3 
L -3 3 
L 3 3 
z
" style="stroke: #000000; stroke-linejoin: miter"/>
    </defs>
    <g>
     <use xlink:href="#frame0094_ee9132_m7354e27d67" x="225.3" y="17.378125" style="stroke: #000000; stroke-linejoin: miter"/>
    </g>
   </g>
   <g id="frame0094_ee9132_line2d_11">
    <defs>
     <path id="frame0094_ee9132_m62e72b2831" d="M 0 5 
C 1.326016 5 2.597899 4.473168 3.535534 3.535534 
C 4.473168 2.597899 5 1.326016 5 0 
C 5 -1.326016 4.473168 -2.597899 3.535534 -3.535534 
C 2.597899 -4.473168 1.326016 -5 0 -5 
C -1.326016 -5 -2.597899 -4.473168 -3.535534 -3.535534 
C -4.473168 -2.597899 -5 -1.326016 -5 0 
C -5 1.326016 -4.473168 2.597899 -3.535534 3.535534 
C -2.597899 4.473168 -1.326016 5 0 5 
z
" style="stroke: #000000; stroke-opacity: 0.8"/>
    </defs>
    <g clip-path="url(#frame0094_ee9132_pbc0dca7d92)">
     <use xlink:href="#frame0094_ee9132_m62e72b2831" x="216.313849" y="278.478321" style="fill-opacity: 0.8; stroke: #000000; stroke-opacity: 0.8"/>
    </g>
   </g>
   <g id="frame0094_ee9132_line2d_12">
    <path d="M 370.7 174.158125 
L 370.541212 169.274726 
L 370.065196 164.401994 
L 369.27299 159.55057 
L 368.166325 154.731051 
L 366.747619 149.953964 
L 365.019969 145.229743 
L 362.98715 140.568705 
L 360.653602 135.981032 
L 358.024421 131.476744 
L 355.105349 127.065678 
L 351.902763 122.757469 
L 348.423657 118.561527 
L 344.67563 114.487016 
L 340.666869 110.542836 
L 336.40613 106.737602 
L 331.902717 103.079624 
L 327.166469 99.576892 
L 322.207728 96.237057 
L 317.037326 93.067414 
L 311.666556 90.074885 
L 306.107148 87.266006 
L 300.371245 84.646913 
L 294.471376 82.223327 
L 288.420425 80.000539 
L 282.23161 77.983406 
L 275.918448 76.176333 
L 269.494727 74.583268 
L 262.974478 73.207689 
L 256.371943 72.052601 
L 249.701541 71.120527 
L 242.977843 70.413502 
L 236.215534 69.933072 
L 229.429384 69.680285 
L 222.634215 69.655693 
L 215.844868 69.859351 
L 209.076172 70.290813 
L 202.342912 70.949136 
L 195.659793 71.832884 
L 189.041414 72.940126 
L 182.502228 74.268443 
L 176.056519 75.814935 
L 169.718366 77.576223 
L 163.501611 79.54846 
L 157.419834 81.727339 
L 151.486316 84.108101 
L 145.71402 86.685546 
L 140.115551 89.454044 
L 134.703137 92.407549 
L 129.488601 95.53961 
L 124.483332 98.843385 
L 119.698261 102.311659 
L 115.143841 105.936857 
L 110.830019 109.71106 
L 106.766216 113.626026 
L 102.961309 117.673202 
L 99.423608 121.843751 
L 96.160841 126.128561 
L 93.180132 130.518276 
L 90.487994 135.003307 
L 88.090306 139.573858 
L 85.992304 144.219946 
L 84.198572 148.931423 
L 82.713026 153.698 
L 81.538912 158.509265 
L 80.678794 163.354709 
L 80.13455 168.223749 
L 79.90737 173.105751 
L 79.99775 177.990051 
L 80.405491 182.865982 
L 81.129705 187.722894 
L 82.168808 192.550178 
L 83.520531 197.337291 
L 85.181922 202.073778 
L 87.149352 206.749292 
L 89.418524 211.353622 
L 91.984482 215.876712 
L 94.841621 220.308682 
L 97.983701 224.639852 
L 101.403859 228.860762 
L 105.094625 232.962194 
L 109.047938 236.935188 
L 113.255163 240.771068 
L 117.707111 244.461455 
L 122.394058 247.998289 
L 127.305768 251.373845 
L 132.431511 254.58075 
L 137.760093 257.612 
L 143.279876 260.460974 
L 148.978803 263.12145 
L 154.844428 265.587616 
L 160.863938 267.854086 
L 167.024186 269.91591 
L 173.311717 271.768584 
L 179.712798 273.408063 
L 186.213449 274.830764 
L 192.799471 276.033581 
L 199.456479 277.013887 
L 206.169933 277.76954 
L 212.92517 278.298891 
L 216.313849 278.478321 
L 216.313849 278.478321 
" clip-path="url(#frame0094_ee9132_pbc0dca7d92)" style="fill: none; stroke: #0072b2; stroke-width: 2.5; stroke-linecap: square"/>
   </g>
   <g id="frame0094_ee9132_patch_3">
    <path d="M 225.3 330.938125 
L 225.3 17.378125 
" style="fill: none; stroke: #000000; stroke-width: 0.8; stroke-linejoin: miter; stroke-linecap: square"/>
   </g>
   <g id="frame0094_ee9132_patch_4">
    <path d="M 443.4 330.938125 
L 443.4 17.378125 
" style="fill: none"/>
   </g>
   <g id="frame0094_ee9132_patch_5">
    <path d="M 7.2 174.158125 
L 443.4 174.158125 
" style="fill: none; stroke: #000000; stroke-width: 0.8; stroke-linejoin: miter; stroke-linecap: square"/>
   </g>
   <g id="frame0094_ee9132_patch_6">
    <path d="M 7.2 17.378125 
L 443.4 17.378125 
" style="fill: none"/>
   </g>
  </g>
 </g>
 <defs>
  <clipPath id="frame0094_ee9132_pbc0dca7d92">
   <rect x="7.2" y="17.378125" width="436.2" height="313.56"/>
  </clipPath>
 </defs>
</svg>
