<?xml version="1.0" encoding="utf-8" standalone="no"?>
<!DOCTYPE svg PUBLIC "-//W3C//DTD SVG 1.1//EN"
  "http://www.w3.org/Graphics/SVG/1.1/DTD/svg11.dtd">
<svg xmlns:xlink="http://www.w3.org/1999/xlink" width="453.6pt" height="338.138125pt" viewBox="0 0 453.6 338.138125" xmlns="http://www.w3.org/2000/svg" version="1.1">
 <metadata>
  <rdf:RDF xmlns:dc="http://purl.org/dc/elements/1.1/" xmlns:cc="http://creativecommons.org/ns#" xmlns:rdf="http://www.w3.org/1999/02/22-rdf-syntax-ns#">
   <cc:Work>
    <dc:type rdf:resource="http://purl.org/dc/dcmitype/StillImage"/>
    <dc:date>2026-01-22T01:05:32.194567</dc:date>
    <dc:format>image/svg+xml</dc:format>
    <dc:creator>
     <cc:Agent>
      <dc:title>Matplotlib v3.9.1, https://matplotlib.org/</dc:title>
     </cc:Agent>
    </dc:creator>
   </cc:Work>
  </rdf:RDF>
 </metadata>
 <defs>
  <style type="text/css">*{stroke-linejoin: round; stroke-linecap: butt}</style>
 </defs>
 <g id="frame0118_3fb211_figure_1">
  <g id="frame0118_3fb211_patch_1">
   <path d="M 0 338.138125 
L 453.6 338.138125 
L 453.6 0 
L 0 0 
L 0 338.138125 
z
" style="fill: none; opacity: 0"/>
  </g>
  <g id="frame0118_3fb211_axes_1">
   <g id="frame0118_3fb211_patch_2">
    <path d="M 7.2 330.938125 
L 443.4 330.938125 
L 443.4 17.378125 
L 7.2 17.378125 
L 7.2 330.938125 
z
" style="fill: none; opacity: 0"/>
   </g>
   <g id="frame0118_3fb211_matplotlib.axis_1">
    <g id="frame0118_3fb211_xtick_1">
     <g id="frame0118_3fb211_line2d_1">
      <path d="M 79.9 330.938125 
L 79.9 17.378125 
" clip-path="url(#frame0118_3fb211_pec0d9cf6e7)" style="fill: none; stroke-dasharray: 2.96,1.28; stroke-dashoffset: 0; stroke: #b0b0b0; stroke-opacity: 0.6; stroke-width: 0.8"/>
     </g>
     <g id="frame0118_3fb211_line2d_2">
      <defs>
       <path id="frame0118_3fb211_m91fefe6c4b" d="M 0 0 
L 0 3.5 
" style="stroke: #000000; stroke-width: 0.8"/>
      </defs>
      <g>
       <use xlink:href="#frame0118_3fb211_m91fefe6c4b" x="79.9" y="174.158125" style="stroke: #000000; stroke-width: 0.8"/>
      </g>
     </g>
     <g id="frame0118_3fb211_text_1">
      <!-- −1 -->
      <g transform="translate(65.157813 196.355) scale(0.2 -0.2)">
       <defs>
        <path id="frame0118_3fb211_DejaVuSans-2212" d="M 678 2272 
L 4684 2272 
L 4684 1741 
L 678 1741 
L 678 2272 
z
" transform="scale(0.015625)"/>
        <path id="frame0118_3fb211_DejaVuSans-31" d="M 794 531 
L 1825 531 
L 1825 4091 
L 703 3866 
L 703 4441 
L 1819 4666 
L 2450 4666 
L 2450 531 
L 3481 531 
L 3481 0 
L 794 0 
L 794 531 
z
" transform="scale(0.015625)"/>
       </defs>
       <use xlink:href="#frame0118_3fb211_DejaVuSans-2212"/>
       <use xlink:href="#frame0118_3fb211_DejaVuSans-31" x="83.789062"/>
      </g>
     </g>
    </g>
    <g id="frame0118_3fb211_xtick_2">
     <g id="frame0118_3fb211_line2d_3">
      <path d="M 370.7 330.938125 
L 370.7 17.378125 
" clip-path="url(#frame0118_3fb211_pec0d9cf6e7)" style="fill: none; stroke-dasharray: 2.96,1.28; stroke-dashoffset: 0; stroke: #b0b0b0; stroke-opacity: 0.6; stroke-width: 0.8"/>
     </g>
     <g id="frame0118_3fb211_line2d_4">
      <g>
       <use xlink:href="#frame0118_3fb211_m91fefe6c4b" x="370.7" y="174.158125" style="stroke: #000000; stroke-width: 0.8"/>
      </g>
     </g>
     <g id="frame0118_3fb211_text_2">
      <!-- 1 -->
      <g transform="translate(364.3375 196.355) scale(0.2 -0.2)">
       <use xlink:href="#frame0118_3fb211_DejaVuSans-31"/>
      </g>
     </g>
    </g>
    <g id="frame0118_3fb211_text_3">
     <!-- $x$ -->
     <g transform="translate(431.4 219.71125) scale(0.2 -0.2)">
      <defs>
       <path id="frame0118_3fb211_DejaVuSans-Oblique-78" d="M 3841 3500 
L 2234 1784 
L 3219 0 
L 2559 0 
L 1819 1388 
L 531 0 
L -166 0 
L 1556 1844 
L 641 3500 
L 1300 3500 
L 1972 2234 
L 3144 3500 
L 3841 3500 
z
" transform="scale(0.015625)"/>
      </defs>
      <use xlink:href="#frame0118_3fb211_DejaVuSans-Oblique-78" transform="translate(0 0.3125)"/>
     </g>
    </g>
   </g>
   <g id="frame0118_3fb211_matplotlib.axis_2">
    <g id="frame0118_3fb211_ytick_1">
     <g id="frame0118_3fb211_line2d_5">
      <path d="M 7.2 278.678125 
L 443.4 278.678125 
" clip-path="url(#frame0118_3fb211_pec0d9cf6e7)" style="fill: none; stroke-dasharray: 2.96,1.28; stroke-dashoffset: 0; stroke: #b0b0b0; stroke-opacity: 0.6; stroke-width: 0.8"/>
     </g>
     <g id="frame0118_3fb211_line2d_6">
      <defs>
       <path id="frame0118_3fb211_m50915aac71" d="M 0 0 
L -3.5 0 
" style="stroke: #000000; stroke-width: 0.8"/>
      </defs>
      <g>
       <use xlink:href="#frame0118_3fb211_m50915aac71" x="225.3" y="278.678125" style="stroke: #000000; stroke-width: 0.8"/>
      </g>
     </g>
     <g id="frame0118_3fb211_text_4">
      <!-- −1 -->
      <g transform="translate(188.815625 286.276562) scale(0.2 -0.2)">
       <use xlink:href="#frame0118_3fb211_DejaVuSans-2212"/>
       <use xlink:href="#frame0118_3fb211_DejaVuSans-31" x="83.789062"/>
      </g>
     </g>
    </g>
    <g id="frame0118_3fb211_ytick_2">
     <g id="frame0118_3fb211_line2d_7">
      <path d="M 7.2 69.638125 
L 443.4 69.638125 
" clip-path="url(#frame0118_3fb211_pec0d9cf6e7)" style="fill: none; stroke-dasharray: 2.96,1.28; stroke-dashoffset: 0; stroke: #b0b0b0; stroke-opacity: 0.6; stroke-width: 0.8"/>
     </g>
     <g id="frame0118_3fb211_line2d_8">
      <g>
       <use xlink:href="#frame0118_3fb211_m50915aac71" x="225.3" y="69.638125" style="stroke: #000000; stroke-width: 0.8"/>
      </g>
     </g>
     <g id="frame0118_3fb211_text_5">
      <!-- 1 -->
      <g transform="translate(205.575 77.236562) scale(0.2 -0.2)">
       <use xlink:href="#frame0118_3fb211_DejaVuSans-31"/>
      </g>
     </g>
    </g>
    <g id="frame0118_3fb211_text_6">
     <!-- $y$ -->
     <g transform="translate(172.815625 13.178125) scale(0.2 -0.2)">
      <defs>
       <path id="frame0118_3fb211_DejaVuSans-Oblique-79" d="M 1588 -325 
Q 1188 -997 936 -1164 
Q 684 -1331 294 -1331 
L -159 -1331 
L -63 -850 
L 269 -850 
Q 509 -850 678 -719 
Q 847 -588 1056 -206 
L 1234 128 
L 459 3500 
L 1069 3500 
L 1650 819 
L 3256 3500 
L 3859 3500 
L 1588 -325 
z
" transform="scale(0.015625)"/>
      </defs>
      <use xlink:href="#frame0118_3fb211_DejaVuSans-Oblique-79" transform="translate(0 0.3125)"/>
     </g>
    </g>
   </g>
   <g id="frame0118_3fb211_line2d_9">
    <defs>
     <path id="frame0118_3fb211_m689d8c7f3b" d="M 3 0 
L -3 -3 
L -3 3 
z
" style="stroke: #000000; stroke-linejoin: miter"/>
    </defs>
    <g>
     <use xlink:href="#frame0118_3fb211_m689d8c7f3b" x="443.4" y="174.158125" style="stroke: #000000; stroke-linejoin: miter"/>
    </g>
   </g>
   <g id="frame0118_3fb211_line2d_10">
    <defs>
     <path id="frame0118_3fb211_m3f3ad660be" d="M 0 -3 
L -3 3 
L 3 3 
z
" style="stroke: #000000; stroke-linejoin: miter"/>
    </defs>
    <g>
     <use xlink:href="#frame0118_3fb211_m3f3ad660be" x="225.3" y="17.378125" style="stroke: #000000; stroke-linejoin: miter"/>
    </g>
   </g>
   <g id="frame0118_3fb211_line2d_11">
    <defs>
     <path id="frame0118_3fb211_m45a169a044" d="M 0 5 
C 1.326016 5 2.597899 4.473168 3.535534 3.535534 
C 4.473168 2.597899 5 1.326016 5 0 
C 5 -1.326016 4.473168 -2.597899 3.535534 -3.535534 
C 2.597899 -4.473168 1.326016 -5 0 -5 
C -1.326016 -5 -2.597899 -4.473168 -3.535534 -3.535534 
C -4.473168 -2.597899 -5 -1.326016 -5 0 
C -5 1.326016 -4.473168 2.597899 -3.535534 3.535534 
C -2.597899 4.473168 -1.326016 5 0 5 
z
" style="stroke: #000000; stroke-opacity: 0.8"/>
    </defs>
    <g clip-path="url(#frame0118_3fb211_pec0d9cf6e7)">
     <use xlink:href="#frame0118_3fb211_m45a169a044" x="356.522994" y="219.174591" style="fill-opacity: 0.8; stroke: #000000; stroke-opacity: 0.8"/>
    </g>
   </g>
   <g id="frame0118_3fb211_line2d_12">
    <path d="M 370.7 174.158125 
L 370.637438 171.092337 
L 370.449804 168.029186 
L 370.137261 164.971311 
L 369.700078 161.92134 
L 369.13863 158.881901 
L 368.453401 155.855607 
L 367.644981 152.845064 
L 366.714065 149.852862 
L 365.661454 146.881575 
L 364.488054 143.933762 
L 363.194876 141.011959 
L 361.78303 138.118679 
L 360.253734 135.256414 
L 358.608303 132.427626 
L 356.848152 129.634749 
L 354.974797 126.880187 
L 352.989849 124.16631 
L 350.895017 121.495454 
L 348.692104 118.869917 
L 343.969707 113.763798 
L 338.83891 108.865525 
L 333.317372 104.191955 
L 327.424093 99.759172 
L 321.179356 95.582432 
L 314.604652 91.676109 
L 307.722607 88.053646 
L 300.556907 84.727511 
L 293.132211 81.709149 
L 285.474072 79.008949 
L 277.608845 76.636203 
L 269.563598 74.599077 
L 261.366018 72.904581 
L 253.044318 71.558548 
L 244.627136 70.56561 
L 236.143441 69.929183 
L 227.622427 69.651459 
L 219.093422 69.733392 
L 210.585776 70.174701 
L 202.128768 70.973868 
L 193.751505 72.128141 
L 185.482814 73.633549 
L 177.351154 75.48491 
L 169.384509 77.675853 
L 161.610297 80.198838 
L 154.055271 83.045183 
L 146.745432 86.205091 
L 139.705938 89.667688 
L 132.961015 93.421057 
L 126.533874 97.452282 
L 120.446635 101.747488 
L 114.720247 106.291894 
L 109.374418 111.069861 
L 104.427544 116.064945 
L 99.896651 121.259956 
L 97.792127 123.926871 
L 95.797331 126.637014 
L 93.913979 129.388051 
L 92.143693 132.177616 
L 90.487994 135.003307 
L 88.948309 137.862693 
L 87.525962 140.753313 
L 86.222177 143.67268 
L 85.038077 146.618281 
L 83.97468 149.587582 
L 83.032901 152.578027 
L 82.213551 155.587043 
L 81.517334 158.612041 
L 80.944851 161.650416 
L 80.496593 164.699556 
L 80.172947 167.756835 
L 79.974191 170.819622 
L 79.900495 173.885283 
L 79.951924 176.951178 
L 80.128434 180.01467 
L 80.429871 183.073122 
L 80.855977 186.123902 
L 81.406385 189.164385 
L 82.080622 192.191954 
L 82.878107 195.204004 
L 83.798154 198.197943 
L 84.839972 201.171194 
L 86.002663 204.121199 
L 87.285227 207.04542 
L 88.68656 209.941338 
L 90.205457 212.806464 
L 91.84061 215.63833 
L 93.590613 218.4345 
L 95.453959 221.192568 
L 97.429044 223.91016 
L 99.51417 226.584938 
L 101.707542 229.2146 
L 106.41138 234.329563 
L 111.524371 239.237448 
L 117.02892 243.921363 
L 122.906081 248.365189 
L 129.135629 252.553633 
L 135.696125 256.47228 
L 142.564992 260.107645 
L 149.718589 263.447216 
L 157.132299 266.4795 
L 164.780606 269.194061 
L 172.63719 271.581558 
L 180.675012 273.633774 
L 188.86641 275.343646 
L 197.183194 276.70529 
L 205.596741 277.71402 
L 214.078097 278.366364 
L 222.598073 278.660077 
L 231.127347 278.594149 
L 239.636566 278.168805 
L 248.096447 277.385511 
L 256.477874 276.246962 
L 264.752003 274.757076 
L 272.890358 272.92098 
L 280.864932 270.744993 
L 288.64828 268.236605 
L 296.213617 265.404447 
L 303.534905 262.258266 
L 310.586949 258.808891 
L 317.34548 255.068191 
L 323.787238 251.049041 
L 329.890054 246.765272 
L 335.632925 242.231626 
L 340.996087 237.463707 
L 345.961083 232.477923 
L 350.510826 227.291433 
L 352.625027 224.628475 
L 354.629658 221.922085 
L 356.522994 219.174591 
L 356.522994 219.174591 
" clip-path="url(#frame0118_3fb211_pec0d9cf6e7)" style="fill: none; stroke: #0072b2; stroke-width: 2.5; stroke-linecap: square"/>
   </g>
   <g id="frame0118_3fb211_patch_3">
    <path d="M 225.3 330.938125 
L 225.3 17.378125 
" style="fill: none; stroke: #000000; stroke-width: 0.8; stroke-linejoin: miter; stroke-linecap: square"/>
   </g>
   <g id="frame0118_3fb211_patch_4">
    <path d="M 443.4 330.938125 
L 443.4 17.378125 
" style="fill: none"/>
   </g>
   <g id="frame0118_3fb211_patch_5">
    <path d="M 7.2 174.158125 
L 443.4 174.158125 
" style="fill: none; stroke: #000000; stroke-width: 0.8; stroke-linejoin: miter; stroke-linecap: square"/>
   </g>
   <g id="frame0118_3fb211_patch_6">
    <path d="M 7.2 17.378125 
L 443.4 17.378125 
" style="fill: none"/>
   </g>
  </g>
 </g>
 <defs>
  <clipPath id="frame0118_3fb211_pec0d9cf6e7">
   <rect x="7.2" y="17.378125" width="436.2" height="313.56"/>
  </clipPath>
 </defs>
</svg>
