<?xml version="1.0" encoding="utf-8" standalone="no"?>
<!DOCTYPE svg PUBLIC "-//W3C//DTD SVG 1.1//EN"
  "http://www.w3.org/Graphics/SVG/1.1/DTD/svg11.dtd">
<svg xmlns:xlink="http://www.w3.org/1999/xlink" width="453.6pt" height="338.138125pt" viewBox="0 0 453.6 338.138125" xmlns="http://www.w3.org/2000/svg" version="1.1">
 <metadata>
  <rdf:RDF xmlns:dc="http://purl.org/dc/elements/1.1/" xmlns:cc="http://creativecommons.org/ns#" xmlns:rdf="http://www.w3.org/1999/02/22-rdf-syntax-ns#">
   <cc:Work>
    <dc:type rdf:resource="http://purl.org/dc/dcmitype/StillImage"/>
    <dc:date>2026-01-22T01:05:29.781757</dc:date>
    <dc:format>image/svg+xml</dc:format>
    <dc:creator>
     <cc:Agent>
      <dc:title>Matplotlib v3.9.1, https://matplotlib.org/</dc:title>
     </cc:Agent>
    </dc:creator>
   </cc:Work>
  </rdf:RDF>
 </metadata>
 <defs>
  <style type="text/css">*{stroke-linejoin: round; stroke-linecap: butt}</style>
 </defs>
 <g id="frame0089_9ba12c_figure_1">
  <g id="frame0089_9ba12c_patch_1">
   <path d="M 0 338.138125 
L 453.6 338.138125 
L 453.6 0 
L 0 0 
L 0 338.138125 
z
" style="fill: none; opacity: 0"/>
  </g>
  <g id="frame0089_9ba12c_axes_1">
   <g id="frame0089_9ba12c_patch_2">
    <path d="M 7.2 330.938125 
L 443.4 330.938125 
L 443.4 17.378125 
L 7.2 17.378125 
L 7.2 330.938125 
z
" style="fill: none; opacity: 0"/>
   </g>
   <g id="frame0089_9ba12c_matplotlib.axis_1">
    <g id="frame0089_9ba12c_xtick_1">
     <g id="frame0089_9ba12c_line2d_1">
      <path d="M 79.9 330.938125 
L 79.9 17.378125 
" clip-path="url(#frame0089_9ba12c_p0e361cfabb)" style="fill: none; stroke-dasharray: 2.96,1.28; stroke-dashoffset: 0; stroke: #b0b0b0; stroke-opacity: 0.6; stroke-width: 0.8"/>
     </g>
     <g id="frame0089_9ba12c_line2d_2">
      <defs>
       <path id="frame0089_9ba12c_m5d1dab7fd9" d="M 0 0 
L 0 3.5 
" style="stroke: #000000; stroke-width: 0.8"/>
      </defs>
      <g>
       <use xlink:href="#frame0089_9ba12c_m5d1dab7fd9" x="79.9" y="174.158125" style="stroke: #000000; stroke-width: 0.8"/>
      </g>
     </g>
     <g id="frame0089_9ba12c_text_1">
      <!-- −1 -->
      <g transform="translate(65.157813 196.355) scale(0.2 -0.2)">
       <defs>
        <path id="frame0089_9ba12c_DejaVuSans-2212" d="M 678 2272 
L 4684 2272 
L 4684 1741 
L 678 1741 
L 678 2272 
z
" transform="scale(0.015625)"/>
        <path id="frame0089_9ba12c_DejaVuSans-31" d="M 794 531 
L 1825 531 
L 1825 4091 
L 703 3866 
L 703 4441 
L 1819 4666 
L 2450 4666 
L 2450 531 
L 3481 531 
L 3481 0 
L 794 0 
L 794 531 
z
" transform="scale(0.015625)"/>
       </defs>
       <use xlink:href="#frame0089_9ba12c_DejaVuSans-2212"/>
       <use xlink:href="#frame0089_9ba12c_DejaVuSans-31" x="83.789062"/>
      </g>
     </g>
    </g>
    <g id="frame0089_9ba12c_xtick_2">
     <g id="frame0089_9ba12c_line2d_3">
      <path d="M 370.7 330.938125 
L 370.7 17.378125 
" clip-path="url(#frame0089_9ba12c_p0e361cfabb)" style="fill: none; stroke-dasharray: 2.96,1.28; stroke-dashoffset: 0; stroke: #b0b0b0; stroke-opacity: 0.6; stroke-width: 0.8"/>
     </g>
     <g id="frame0089_9ba12c_line2d_4">
      <g>
       <use xlink:href="#frame0089_9ba12c_m5d1dab7fd9" x="370.7" y="174.158125" style="stroke: #000000; stroke-width: 0.8"/>
      </g>
     </g>
     <g id="frame0089_9ba12c_text_2">
      <!-- 1 -->
      <g transform="translate(364.3375 196.355) scale(0.2 -0.2)">
       <use xlink:href="#frame0089_9ba12c_DejaVuSans-31"/>
      </g>
     </g>
    </g>
    <g id="frame0089_9ba12c_text_3">
     <!-- $x$ -->
     <g transform="translate(431.4 219.71125) scale(0.2 -0.2)">
      <defs>
       <path id="frame0089_9ba12c_DejaVuSans-Oblique-78" d="M 3841 3500 
L 2234 1784 
L 3219 0 
L 2559 0 
L 1819 1388 
L 531 0 
L -166 0 
L 1556 1844 
L 641 3500 
L 1300 3500 
L 1972 2234 
L 3144 3500 
L 3841 3500 
z
" transform="scale(0.015625)"/>
      </defs>
      <use xlink:href="#frame0089_9ba12c_DejaVuSans-Oblique-78" transform="translate(0 0.3125)"/>
     </g>
    </g>
   </g>
   <g id="frame0089_9ba12c_matplotlib.axis_2">
    <g id="frame0089_9ba12c_ytick_1">
     <g id="frame0089_9ba12c_line2d_5">
      <path d="M 7.2 278.678125 
L 443.4 278.678125 
" clip-path="url(#frame0089_9ba12c_p0e361cfabb)" style="fill: none; stroke-dasharray: 2.96,1.28; stroke-dashoffset: 0; stroke: #b0b0b0; stroke-opacity: 0.6; stroke-width: 0.8"/>
     </g>
     <g id="frame0089_9ba12c_line2d_6">
      <defs>
       <path id="frame0089_9ba12c_m1a125faffa" d="M 0 0 
L -3.5 0 
" style="stroke: #000000; stroke-width: 0.8"/>
      </defs>
      <g>
       <use xlink:href="#frame0089_9ba12c_m1a125faffa" x="225.3" y="278.678125" style="stroke: #000000; stroke-width: 0.8"/>
      </g>
     </g>
     <g id="frame0089_9ba12c_text_4">
      <!-- −1 -->
      <g transform="translate(188.815625 286.276562) scale(0.2 -0.2)">
       <use xlink:href="#frame0089_9ba12c_DejaVuSans-2212"/>
       <use xlink:href="#frame0089_9ba12c_DejaVuSans-31" x="83.789062"/>
      </g>
     </g>
    </g>
    <g id="frame0089_9ba12c_ytick_2">
     <g id="frame0089_9ba12c_line2d_7">
      <path d="M 7.2 69.638125 
L 443.4 69.638125 
" clip-path="url(#frame0089_9ba12c_p0e361cfabb)" style="fill: none; stroke-dasharray: 2.96,1.28; stroke-dashoffset: 0; stroke: #b0b0b0; stroke-opacity: 0.6; stroke-width: 0.8"/>
     </g>
     <g id="frame0089_9ba12c_line2d_8">
      <g>
       <use xlink:href="#frame0089_9ba12c_m1a125faffa" x="225.3" y="69.638125" style="stroke: #000000; stroke-width: 0.8"/>
      </g>
     </g>
     <g id="frame0089_9ba12c_text_5">
      <!-- 1 -->
      <g transform="translate(205.575 77.236562) scale(0.2 -0.2)">
       <use xlink:href="#frame0089_9ba12c_DejaVuSans-31"/>
      </g>
     </g>
    </g>
    <g id="frame0089_9ba12c_text_6">
     <!-- $y$ -->
     <g transform="translate(172.815625 13.178125) scale(0.2 -0.2)">
      <defs>
       <path id="frame0089_9ba12c_DejaVuSans-Oblique-79" d="M 1588 -325 
Q 1188 -997 936 -1164 
Q 684 -1331 294 -1331 
L -159 -1331 
L -63 -850 
L 269 -850 
Q 509 -850 678 -719 
Q 847 -588 1056 -206 
L 1234 128 
L 459 3500 
L 1069 3500 
L 1650 819 
L 3256 3500 
L 3859 3500 
L 1588 -325 
z
" transform="scale(0.015625)"/>
      </defs>
      <use xlink:href="#frame0089_9ba12c_DejaVuSans-Oblique-79" transform="translate(0 0.3125)"/>
     </g>
    </g>
   </g>
   <g id="frame0089_9ba12c_line2d_9">
    <defs>
     <path id="frame0089_9ba12c_m56b7f7160f" d="M 3 0 
L -3 -3 
L -3 3 
z
" style="stroke: #000000; stroke-linejoin: miter"/>
    </defs>
    <g>
     <use xlink:href="#frame0089_9ba12c_m56b7f7160f" x="443.4" y="174.158125" style="stroke: #000000; stroke-linejoin: miter"/>
    </g>
   </g>
   <g id="frame0089_9ba12c_line2d_10">
    <defs>
     <path id="frame0089_9ba12c_ma91ba2aa30" d="M 0 -3 
L -3 3 
L 3 3 
z
" style="stroke: #000000; stroke-linejoin: miter"/>
    </defs>
    <g>
     <use xlink:href="#frame0089_9ba12c_ma91ba2aa30" x="225.3" y="17.378125" style="stroke: #000000; stroke-linejoin: miter"/>
    </g>
   </g>
   <g id="frame0089_9ba12c_line2d_11">
    <defs>
     <path id="frame0089_9ba12c_m1bcc924c29" d="M 0 5 
C 1.326016 5 2.597899 4.473168 3.535534 3.535534 
C 4.473168 2.597899 5 1.326016 5 0 
C 5 -1.326016 4.473168 -2.597899 3.535534 -3.535534 
C 2.597899 -4.473168 1.326016 -5 0 -5 
C -1.326016 -5 -2.597899 -4.473168 -3.535534 -3.535534 
C -4.473168 -2.597899 -5 -1.326016 -5 0 
C -5 1.326016 -4.473168 2.597899 -3.535534 3.535534 
C -2.597899 4.473168 -1.326016 5 0 5 
z
" style="stroke: #000000; stroke-opacity: 0.8"/>
    </defs>
    <g clip-path="url(#frame0089_9ba12c_p0e361cfabb)">
     <use xlink:href="#frame0089_9ba12c_m1bcc924c29" x="181.053619" y="273.721128" style="fill-opacity: 0.8; stroke: #000000; stroke-opacity: 0.8"/>
    </g>
   </g>
   <g id="frame0089_9ba12c_line2d_12">
    <path d="M 370.7 174.158125 
L 370.557653 169.534307 
L 370.130889 164.919543 
L 369.420545 160.322868 
L 368.428011 155.753282 
L 367.155231 151.219734 
L 365.604696 146.731099 
L 363.779444 142.296166 
L 361.683047 137.92362 
L 359.31961 133.622021 
L 356.693761 129.399792 
L 353.810642 125.265201 
L 350.675898 121.226342 
L 347.295666 117.291125 
L 343.676565 113.467254 
L 339.825682 109.762216 
L 335.750556 106.183266 
L 331.459166 102.737412 
L 326.959916 99.4314 
L 322.261614 96.271705 
L 317.37346 93.264511 
L 312.305026 90.415709 
L 307.066234 87.730875 
L 301.667343 85.215266 
L 296.118924 82.873809 
L 290.431841 80.711087 
L 284.617229 78.731336 
L 278.686473 76.938432 
L 272.651186 75.335884 
L 266.523185 73.926832 
L 260.314468 72.714034 
L 254.037192 71.699865 
L 247.703649 70.88631 
L 241.326239 70.274963 
L 234.917449 69.86702 
L 228.489829 69.66328 
L 222.055962 69.664143 
L 215.628448 69.869605 
L 209.21987 70.279266 
L 202.842778 70.892323 
L 196.509657 71.707576 
L 190.232908 72.723428 
L 184.024821 73.93789 
L 177.897551 75.348585 
L 171.863095 76.95275 
L 165.93327 78.747244 
L 160.119685 80.728554 
L 154.433724 82.8928 
L 148.886521 85.235744 
L 143.488935 87.7528 
L 138.251537 90.439038 
L 133.184581 93.289199 
L 128.297987 96.297703 
L 123.601325 99.458658 
L 119.10379 102.765875 
L 114.814188 106.21288 
L 110.740919 109.792921 
L 106.891958 113.498991 
L 103.274841 117.323832 
L 99.896651 121.259956 
L 96.764002 125.299654 
L 93.883028 129.435018 
L 91.25937 133.65795 
L 88.898165 137.960182 
L 86.804037 142.333291 
L 84.981085 146.768712 
L 83.432879 151.257762 
L 82.162451 155.791652 
L 81.172288 160.361503 
L 80.464328 164.958368 
L 80.039959 169.573247 
L 79.90001 174.197102 
L 80.044756 178.820882 
L 80.473914 183.435531 
L 81.186643 188.032016 
L 82.181547 192.601335 
L 83.456679 197.134542 
L 85.009542 201.622761 
L 86.837095 206.057204 
L 88.93576 210.429188 
L 91.301428 214.730153 
L 93.929467 218.951678 
L 96.814731 223.085496 
L 99.95157 227.123514 
L 103.333844 231.057825 
L 106.954928 234.880725 
L 110.807733 238.58473 
L 114.884716 242.162588 
L 119.177893 245.607291 
L 123.678858 248.912096 
L 128.378798 252.070533 
L 133.268512 255.076415 
L 138.338424 257.923859 
L 143.578608 260.607289 
L 148.978803 263.12145 
L 154.528437 265.461419 
L 160.216641 267.622616 
L 166.03228 269.600809 
L 171.963966 271.392123 
L 178.000084 272.993052 
L 181.053619 273.721128 
L 181.053619 273.721128 
" clip-path="url(#frame0089_9ba12c_p0e361cfabb)" style="fill: none; stroke: #0072b2; stroke-width: 2.5; stroke-linecap: square"/>
   </g>
   <g id="frame0089_9ba12c_patch_3">
    <path d="M 225.3 330.938125 
L 225.3 17.378125 
" style="fill: none; stroke: #000000; stroke-width: 0.8; stroke-linejoin: miter; stroke-linecap: square"/>
   </g>
   <g id="frame0089_9ba12c_patch_4">
    <path d="M 443.4 330.938125 
L 443.4 17.378125 
" style="fill: none"/>
   </g>
   <g id="frame0089_9ba12c_patch_5">
    <path d="M 7.2 174.158125 
L 443.4 174.158125 
" style="fill: none; stroke: #000000; stroke-width: 0.8; stroke-linejoin: miter; stroke-linecap: square"/>
   </g>
   <g id="frame0089_9ba12c_patch_6">
    <path d="M 7.2 17.378125 
L 443.4 17.378125 
" style="fill: none"/>
   </g>
  </g>
 </g>
 <defs>
  <clipPath id="frame0089_9ba12c_p0e361cfabb">
   <rect x="7.2" y="17.378125" width="436.2" height="313.56"/>
  </clipPath>
 </defs>
</svg>
