<?xml version="1.0" encoding="utf-8" standalone="no"?>
<!DOCTYPE svg PUBLIC "-//W3C//DTD SVG 1.1//EN"
  "http://www.w3.org/Graphics/SVG/1.1/DTD/svg11.dtd">
<svg xmlns:xlink="http://www.w3.org/1999/xlink" width="453.6pt" height="338.138125pt" viewBox="0 0 453.6 338.138125" xmlns="http://www.w3.org/2000/svg" version="1.1">
 <metadata>
  <rdf:RDF xmlns:dc="http://purl.org/dc/elements/1.1/" xmlns:cc="http://creativecommons.org/ns#" xmlns:rdf="http://www.w3.org/1999/02/22-rdf-syntax-ns#">
   <cc:Work>
    <dc:type rdf:resource="http://purl.org/dc/dcmitype/StillImage"/>
    <dc:date>2026-01-22T01:05:28.061525</dc:date>
    <dc:format>image/svg+xml</dc:format>
    <dc:creator>
     <cc:Agent>
      <dc:title>Matplotlib v3.9.1, https://matplotlib.org/</dc:title>
     </cc:Agent>
    </dc:creator>
   </cc:Work>
  </rdf:RDF>
 </metadata>
 <defs>
  <style type="text/css">*{stroke-linejoin: round; stroke-linecap: butt}</style>
 </defs>
 <g id="frame0067_feeeac_figure_1">
  <g id="frame0067_feeeac_patch_1">
   <path d="M 0 338.138125 
L 453.6 338.138125 
L 453.6 0 
L 0 0 
L 0 338.138125 
z
" style="fill: none; opacity: 0"/>
  </g>
  <g id="frame0067_feeeac_axes_1">
   <g id="frame0067_feeeac_patch_2">
    <path d="M 7.2 330.938125 
L 443.4 330.938125 
L 443.4 17.378125 
L 7.2 17.378125 
L 7.2 330.938125 
z
" style="fill: none; opacity: 0"/>
   </g>
   <g id="frame0067_feeeac_matplotlib.axis_1">
    <g id="frame0067_feeeac_xtick_1">
     <g id="frame0067_feeeac_line2d_1">
      <path d="M 79.9 330.938125 
L 79.9 17.378125 
" clip-path="url(#frame0067_feeeac_p1cb987a133)" style="fill: none; stroke-dasharray: 2.96,1.28; stroke-dashoffset: 0; stroke: #b0b0b0; stroke-opacity: 0.6; stroke-width: 0.8"/>
     </g>
     <g id="frame0067_feeeac_line2d_2">
      <defs>
       <path id="frame0067_feeeac_m4a9444fe94" d="M 0 0 
L 0 3.5 
" style="stroke: #000000; stroke-width: 0.8"/>
      </defs>
      <g>
       <use xlink:href="#frame0067_feeeac_m4a9444fe94" x="79.9" y="174.158125" style="stroke: #000000; stroke-width: 0.8"/>
      </g>
     </g>
     <g id="frame0067_feeeac_text_1">
      <!-- −1 -->
      <g transform="translate(65.157813 196.355) scale(0.2 -0.2)">
       <defs>
        <path id="frame0067_feeeac_DejaVuSans-2212" d="M 678 2272 
L 4684 2272 
L 4684 1741 
L 678 1741 
L 678 2272 
z
" transform="scale(0.015625)"/>
        <path id="frame0067_feeeac_DejaVuSans-31" d="M 794 531 
L 1825 531 
L 1825 4091 
L 703 3866 
L 703 4441 
L 1819 4666 
L 2450 4666 
L 2450 531 
L 3481 531 
L 3481 0 
L 794 0 
L 794 531 
z
" transform="scale(0.015625)"/>
       </defs>
       <use xlink:href="#frame0067_feeeac_DejaVuSans-2212"/>
       <use xlink:href="#frame0067_feeeac_DejaVuSans-31" x="83.789062"/>
      </g>
     </g>
    </g>
    <g id="frame0067_feeeac_xtick_2">
     <g id="frame0067_feeeac_line2d_3">
      <path d="M 370.7 330.938125 
L 370.7 17.378125 
" clip-path="url(#frame0067_feeeac_p1cb987a133)" style="fill: none; stroke-dasharray: 2.96,1.28; stroke-dashoffset: 0; stroke: #b0b0b0; stroke-opacity: 0.6; stroke-width: 0.8"/>
     </g>
     <g id="frame0067_feeeac_line2d_4">
      <g>
       <use xlink:href="#frame0067_feeeac_m4a9444fe94" x="370.7" y="174.158125" style="stroke: #000000; stroke-width: 0.8"/>
      </g>
     </g>
     <g id="frame0067_feeeac_text_2">
      <!-- 1 -->
      <g transform="translate(364.3375 196.355) scale(0.2 -0.2)">
       <use xlink:href="#frame0067_feeeac_DejaVuSans-31"/>
      </g>
     </g>
    </g>
    <g id="frame0067_feeeac_text_3">
     <!-- $x$ -->
     <g transform="translate(431.4 219.71125) scale(0.2 -0.2)">
      <defs>
       <path id="frame0067_feeeac_DejaVuSans-Oblique-78" d="M 3841 3500 
L 2234 1784 
L 3219 0 
L 2559 0 
L 1819 1388 
L 531 0 
L -166 0 
L 1556 1844 
L 641 3500 
L 1300 3500 
L 1972 2234 
L 3144 3500 
L 3841 3500 
z
" transform="scale(0.015625)"/>
      </defs>
      <use xlink:href="#frame0067_feeeac_DejaVuSans-Oblique-78" transform="translate(0 0.3125)"/>
     </g>
    </g>
   </g>
   <g id="frame0067_feeeac_matplotlib.axis_2">
    <g id="frame0067_feeeac_ytick_1">
     <g id="frame0067_feeeac_line2d_5">
      <path d="M 7.2 278.678125 
L 443.4 278.678125 
" clip-path="url(#frame0067_feeeac_p1cb987a133)" style="fill: none; stroke-dasharray: 2.96,1.28; stroke-dashoffset: 0; stroke: #b0b0b0; stroke-opacity: 0.6; stroke-width: 0.8"/>
     </g>
     <g id="frame0067_feeeac_line2d_6">
      <defs>
       <path id="frame0067_feeeac_m9920a20319" d="M 0 0 
L -3.5 0 
" style="stroke: #000000; stroke-width: 0.8"/>
      </defs>
      <g>
       <use xlink:href="#frame0067_feeeac_m9920a20319" x="225.3" y="278.678125" style="stroke: #000000; stroke-width: 0.8"/>
      </g>
     </g>
     <g id="frame0067_feeeac_text_4">
      <!-- −1 -->
      <g transform="translate(188.815625 286.276562) scale(0.2 -0.2)">
       <use xlink:href="#frame0067_feeeac_DejaVuSans-2212"/>
       <use xlink:href="#frame0067_feeeac_DejaVuSans-31" x="83.789062"/>
      </g>
     </g>
    </g>
    <g id="frame0067_feeeac_ytick_2">
     <g id="frame0067_feeeac_line2d_7">
      <path d="M 7.2 69.638125 
L 443.4 69.638125 
" clip-path="url(#frame0067_feeeac_p1cb987a133)" style="fill: none; stroke-dasharray: 2.96,1.28; stroke-dashoffset: 0; stroke: #b0b0b0; stroke-opacity: 0.6; stroke-width: 0.8"/>
     </g>
     <g id="frame0067_feeeac_line2d_8">
      <g>
       <use xlink:href="#frame0067_feeeac_m9920a20319" x="225.3" y="69.638125" style="stroke: #000000; stroke-width: 0.8"/>
      </g>
     </g>
     <g id="frame0067_feeeac_text_5">
      <!-- 1 -->
      <g transform="translate(205.575 77.236562) scale(0.2 -0.2)">
       <use xlink:href="#frame0067_feeeac_DejaVuSans-31"/>
      </g>
     </g>
    </g>
    <g id="frame0067_feeeac_text_6">
     <!-- $y$ -->
     <g transform="translate(172.815625 13.178125) scale(0.2 -0.2)">
      <defs>
       <path id="frame0067_feeeac_DejaVuSans-Oblique-79" d="M 1588 -325 
Q 1188 -997 936 -1164 
Q 684 -1331 294 -1331 
L -159 -1331 
L -63 -850 
L 269 -850 
Q 509 -850 678 -719 
Q 847 -588 1056 -206 
L 1234 128 
L 459 3500 
L 1069 3500 
L 1650 819 
L 3256 3500 
L 3859 3500 
L 1588 -325 
z
" transform="scale(0.015625)"/>
      </defs>
      <use xlink:href="#frame0067_feeeac_DejaVuSans-Oblique-79" transform="translate(0 0.3125)"/>
     </g>
    </g>
   </g>
   <g id="frame0067_feeeac_line2d_9">
    <defs>
     <path id="frame0067_feeeac_mc88ca8133e" d="M 3 0 
L -3 -3 
L -3 3 
z
" style="stroke: #000000; stroke-linejoin: miter"/>
    </defs>
    <g>
     <use xlink:href="#frame0067_feeeac_mc88ca8133e" x="443.4" y="174.158125" style="stroke: #000000; stroke-linejoin: miter"/>
    </g>
   </g>
   <g id="frame0067_feeeac_line2d_10">
    <defs>
     <path id="frame0067_feeeac_mbe4fc714c2" d="M 0 -3 
L -3 3 
L 3 3 
z
" style="stroke: #000000; stroke-linejoin: miter"/>
    </defs>
    <g>
     <use xlink:href="#frame0067_feeeac_mbe4fc714c2" x="225.3" y="17.378125" style="stroke: #000000; stroke-linejoin: miter"/>
    </g>
   </g>
   <g id="frame0067_feeeac_line2d_11">
    <defs>
     <path id="frame0067_feeeac_mae31ffffb1" d="M 0 5 
C 1.326016 5 2.597899 4.473168 3.535534 3.535534 
C 4.473168 2.597899 5 1.326016 5 0 
C 5 -1.326016 4.473168 -2.597899 3.535534 -3.535534 
C 2.597899 -4.473168 1.326016 -5 0 -5 
C -1.326016 -5 -2.597899 -4.473168 -3.535534 -3.535534 
C -4.473168 -2.597899 -5 -1.326016 -5 0 
C -5 1.326016 -4.473168 2.597899 -3.535534 3.535534 
C -2.597899 4.473168 -1.326016 5 0 5 
z
" style="stroke: #000000; stroke-opacity: 0.8"/>
    </defs>
    <g clip-path="url(#frame0067_feeeac_p1cb987a133)">
     <use xlink:href="#frame0067_feeeac_mae31ffffb1" x="82.07439" y="192.166358" style="fill-opacity: 0.8; stroke: #000000; stroke-opacity: 0.8"/>
    </g>
   </g>
   <g id="frame0067_feeeac_line2d_12">
    <path d="M 370.7 174.158125 
L 370.619323 170.676781 
L 370.377381 167.1993 
L 369.974444 163.729542 
L 369.410957 160.271357 
L 368.687547 156.828582 
L 367.805016 153.405038 
L 366.764343 150.004524 
L 365.566684 146.630815 
L 364.213368 143.287653 
L 362.705895 139.978748 
L 361.04594 136.707774 
L 359.235344 133.478359 
L 357.276117 130.294087 
L 355.170432 127.158493 
L 351.742454 122.553967 
L 347.998799 118.078275 
L 343.948816 113.742592 
L 339.602615 109.557742 
L 334.971046 105.534173 
L 330.065674 101.68193 
L 324.898744 98.010631 
L 319.483157 94.529441 
L 313.832432 91.247051 
L 307.960678 88.171657 
L 301.882554 85.310936 
L 295.613234 82.67203 
L 289.168371 80.261528 
L 282.564054 78.085448 
L 275.816773 76.149222 
L 268.943371 74.457685 
L 261.96101 73.015059 
L 254.887121 71.824946 
L 247.739365 70.890317 
L 240.535587 70.213507 
L 233.293772 69.796203 
L 226.031999 69.63945 
L 218.7684 69.743636 
L 211.521107 70.108504 
L 204.308214 70.733141 
L 197.147729 71.615988 
L 190.057529 72.754841 
L 183.055315 74.146857 
L 176.158569 75.788561 
L 169.384509 77.675853 
L 162.750048 79.804022 
L 156.271748 82.167756 
L 149.965784 84.761151 
L 143.847899 87.577735 
L 137.933366 90.610475 
L 132.236952 93.851799 
L 126.77288 97.293616 
L 121.554789 100.927332 
L 116.595708 104.743876 
L 111.908017 108.733719 
L 107.50342 112.8869 
L 103.392914 117.19305 
L 99.58676 121.641419 
L 96.09446 126.220901 
L 92.924735 130.920063 
L 90.994734 134.113544 
L 89.213775 137.351463 
L 87.583834 140.630228 
L 86.10672 143.9462 
L 84.784073 147.295698 
L 83.61736 150.675007 
L 82.607876 154.080375 
L 81.75674 157.508024 
L 81.064899 160.954151 
L 80.533119 164.414929 
L 80.16199 167.886521 
L 79.951924 171.365072 
L 79.903156 174.846722 
L 80.015737 178.327608 
L 80.289545 181.803868 
L 80.724274 185.271643 
L 81.319442 188.727084 
L 82.07439 192.166358 
L 82.07439 192.166358 
" clip-path="url(#frame0067_feeeac_p1cb987a133)" style="fill: none; stroke: #0072b2; stroke-width: 2.5; stroke-linecap: square"/>
   </g>
   <g id="frame0067_feeeac_patch_3">
    <path d="M 225.3 330.938125 
L 225.3 17.378125 
" style="fill: none; stroke: #000000; stroke-width: 0.8; stroke-linejoin: miter; stroke-linecap: square"/>
   </g>
   <g id="frame0067_feeeac_patch_4">
    <path d="M 443.4 330.938125 
L 443.4 17.378125 
" style="fill: none"/>
   </g>
   <g id="frame0067_feeeac_patch_5">
    <path d="M 7.2 174.158125 
L 443.4 174.158125 
" style="fill: none; stroke: #000000; stroke-width: 0.8; stroke-linejoin: miter; stroke-linecap: square"/>
   </g>
   <g id="frame0067_feeeac_patch_6">
    <path d="M 7.2 17.378125 
L 443.4 17.378125 
" style="fill: none"/>
   </g>
  </g>
 </g>
 <defs>
  <clipPath id="frame0067_feeeac_p1cb987a133">
   <rect x="7.2" y="17.378125" width="436.2" height="313.56"/>
  </clipPath>
 </defs>
</svg>
