<?xml version="1.0" encoding="utf-8" standalone="no"?>
<!DOCTYPE svg PUBLIC "-//W3C//DTD SVG 1.1//EN"
  "http://www.w3.org/Graphics/SVG/1.1/DTD/svg11.dtd">
<svg xmlns:xlink="http://www.w3.org/1999/xlink" width="453.6pt" height="338.138125pt" viewBox="0 0 453.6 338.138125" xmlns="http://www.w3.org/2000/svg" version="1.1">
 <metadata>
  <rdf:RDF xmlns:dc="http://purl.org/dc/elements/1.1/" xmlns:cc="http://creativecommons.org/ns#" xmlns:rdf="http://www.w3.org/1999/02/22-rdf-syntax-ns#">
   <cc:Work>
    <dc:type rdf:resource="http://purl.org/dc/dcmitype/StillImage"/>
    <dc:date>2026-01-22T01:05:31.171561</dc:date>
    <dc:format>image/svg+xml</dc:format>
    <dc:creator>
     <cc:Agent>
      <dc:title>Matplotlib v3.9.1, https://matplotlib.org/</dc:title>
     </cc:Agent>
    </dc:creator>
   </cc:Work>
  </rdf:RDF>
 </metadata>
 <defs>
  <style type="text/css">*{stroke-linejoin: round; stroke-linecap: butt}</style>
 </defs>
 <g id="frame0105_22666f_figure_1">
  <g id="frame0105_22666f_patch_1">
   <path d="M 0 338.138125 
L 453.6 338.138125 
L 453.6 0 
L 0 0 
L 0 338.138125 
z
" style="fill: none; opacity: 0"/>
  </g>
  <g id="frame0105_22666f_axes_1">
   <g id="frame0105_22666f_patch_2">
    <path d="M 7.2 330.938125 
L 443.4 330.938125 
L 443.4 17.378125 
L 7.2 17.378125 
L 7.2 330.938125 
z
" style="fill: none; opacity: 0"/>
   </g>
   <g id="frame0105_22666f_matplotlib.axis_1">
    <g id="frame0105_22666f_xtick_1">
     <g id="frame0105_22666f_line2d_1">
      <path d="M 79.9 330.938125 
L 79.9 17.378125 
" clip-path="url(#frame0105_22666f_p08238a0410)" style="fill: none; stroke-dasharray: 2.96,1.28; stroke-dashoffset: 0; stroke: #b0b0b0; stroke-opacity: 0.6; stroke-width: 0.8"/>
     </g>
     <g id="frame0105_22666f_line2d_2">
      <defs>
       <path id="frame0105_22666f_m3ae27be1a8" d="M 0 0 
L 0 3.5 
" style="stroke: #000000; stroke-width: 0.8"/>
      </defs>
      <g>
       <use xlink:href="#frame0105_22666f_m3ae27be1a8" x="79.9" y="174.158125" style="stroke: #000000; stroke-width: 0.8"/>
      </g>
     </g>
     <g id="frame0105_22666f_text_1">
      <!-- −1 -->
      <g transform="translate(65.157813 196.355) scale(0.2 -0.2)">
       <defs>
        <path id="frame0105_22666f_DejaVuSans-2212" d="M 678 2272 
L 4684 2272 
L 4684 1741 
L 678 1741 
L 678 2272 
z
" transform="scale(0.015625)"/>
        <path id="frame0105_22666f_DejaVuSans-31" d="M 794 531 
L 1825 531 
L 1825 4091 
L 703 3866 
L 703 4441 
L 1819 4666 
L 2450 4666 
L 2450 531 
L 3481 531 
L 3481 0 
L 794 0 
L 794 531 
z
" transform="scale(0.015625)"/>
       </defs>
       <use xlink:href="#frame0105_22666f_DejaVuSans-2212"/>
       <use xlink:href="#frame0105_22666f_DejaVuSans-31" x="83.789062"/>
      </g>
     </g>
    </g>
    <g id="frame0105_22666f_xtick_2">
     <g id="frame0105_22666f_line2d_3">
      <path d="M 370.7 330.938125 
L 370.7 17.378125 
" clip-path="url(#frame0105_22666f_p08238a0410)" style="fill: none; stroke-dasharray: 2.96,1.28; stroke-dashoffset: 0; stroke: #b0b0b0; stroke-opacity: 0.6; stroke-width: 0.8"/>
     </g>
     <g id="frame0105_22666f_line2d_4">
      <g>
       <use xlink:href="#frame0105_22666f_m3ae27be1a8" x="370.7" y="174.158125" style="stroke: #000000; stroke-width: 0.8"/>
      </g>
     </g>
     <g id="frame0105_22666f_text_2">
      <!-- 1 -->
      <g transform="translate(364.3375 196.355) scale(0.2 -0.2)">
       <use xlink:href="#frame0105_22666f_DejaVuSans-31"/>
      </g>
     </g>
    </g>
    <g id="frame0105_22666f_text_3">
     <!-- $x$ -->
     <g transform="translate(431.4 219.71125) scale(0.2 -0.2)">
      <defs>
       <path id="frame0105_22666f_DejaVuSans-Oblique-78" d="M 3841 3500 
L 2234 1784 
L 3219 0 
L 2559 0 
L 1819 1388 
L 531 0 
L -166 0 
L 1556 1844 
L 641 3500 
L 1300 3500 
L 1972 2234 
L 3144 3500 
L 3841 3500 
z
" transform="scale(0.015625)"/>
      </defs>
      <use xlink:href="#frame0105_22666f_DejaVuSans-Oblique-78" transform="translate(0 0.3125)"/>
     </g>
    </g>
   </g>
   <g id="frame0105_22666f_matplotlib.axis_2">
    <g id="frame0105_22666f_ytick_1">
     <g id="frame0105_22666f_line2d_5">
      <path d="M 7.2 278.678125 
L 443.4 278.678125 
" clip-path="url(#frame0105_22666f_p08238a0410)" style="fill: none; stroke-dasharray: 2.96,1.28; stroke-dashoffset: 0; stroke: #b0b0b0; stroke-opacity: 0.6; stroke-width: 0.8"/>
     </g>
     <g id="frame0105_22666f_line2d_6">
      <defs>
       <path id="frame0105_22666f_m1f2fe6858e" d="M 0 0 
L -3.5 0 
" style="stroke: #000000; stroke-width: 0.8"/>
      </defs>
      <g>
       <use xlink:href="#frame0105_22666f_m1f2fe6858e" x="225.3" y="278.678125" style="stroke: #000000; stroke-width: 0.8"/>
      </g>
     </g>
     <g id="frame0105_22666f_text_4">
      <!-- −1 -->
      <g transform="translate(188.815625 286.276562) scale(0.2 -0.2)">
       <use xlink:href="#frame0105_22666f_DejaVuSans-2212"/>
       <use xlink:href="#frame0105_22666f_DejaVuSans-31" x="83.789062"/>
      </g>
     </g>
    </g>
    <g id="frame0105_22666f_ytick_2">
     <g id="frame0105_22666f_line2d_7">
      <path d="M 7.2 69.638125 
L 443.4 69.638125 
" clip-path="url(#frame0105_22666f_p08238a0410)" style="fill: none; stroke-dasharray: 2.96,1.28; stroke-dashoffset: 0; stroke: #b0b0b0; stroke-opacity: 0.6; stroke-width: 0.8"/>
     </g>
     <g id="frame0105_22666f_line2d_8">
      <g>
       <use xlink:href="#frame0105_22666f_m1f2fe6858e" x="225.3" y="69.638125" style="stroke: #000000; stroke-width: 0.8"/>
      </g>
     </g>
     <g id="frame0105_22666f_text_5">
      <!-- 1 -->
      <g transform="translate(205.575 77.236562) scale(0.2 -0.2)">
       <use xlink:href="#frame0105_22666f_DejaVuSans-31"/>
      </g>
     </g>
    </g>
    <g id="frame0105_22666f_text_6">
     <!-- $y$ -->
     <g transform="translate(172.815625 13.178125) scale(0.2 -0.2)">
      <defs>
       <path id="frame0105_22666f_DejaVuSans-Oblique-79" d="M 1588 -325 
Q 1188 -997 936 -1164 
Q 684 -1331 294 -1331 
L -159 -1331 
L -63 -850 
L 269 -850 
Q 509 -850 678 -719 
Q 847 -588 1056 -206 
L 1234 128 
L 459 3500 
L 1069 3500 
L 1650 819 
L 3256 3500 
L 3859 3500 
L 1588 -325 
z
" transform="scale(0.015625)"/>
      </defs>
      <use xlink:href="#frame0105_22666f_DejaVuSans-Oblique-79" transform="translate(0 0.3125)"/>
     </g>
    </g>
   </g>
   <g id="frame0105_22666f_line2d_9">
    <defs>
     <path id="frame0105_22666f_m250dbbe9ea" d="M 3 0 
L -3 -3 
L -3 3 
z
" style="stroke: #000000; stroke-linejoin: miter"/>
    </defs>
    <g>
     <use xlink:href="#frame0105_22666f_m250dbbe9ea" x="443.4" y="174.158125" style="stroke: #000000; stroke-linejoin: miter"/>
    </g>
   </g>
   <g id="frame0105_22666f_line2d_10">
    <defs>
     <path id="frame0105_22666f_m9d2d3bdd3d" d="M 0 -3 
L -3 3 
L 3 3 
z
" style="stroke: #000000; stroke-linejoin: miter"/>
    </defs>
    <g>
     <use xlink:href="#frame0105_22666f_m9d2d3bdd3d" x="225.3" y="17.378125" style="stroke: #000000; stroke-linejoin: miter"/>
    </g>
   </g>
   <g id="frame0105_22666f_line2d_11">
    <defs>
     <path id="frame0105_22666f_mf40ded0735" d="M 0 5 
C 1.326016 5 2.597899 4.473168 3.535534 3.535534 
C 4.473168 2.597899 5 1.326016 5 0 
C 5 -1.326016 4.473168 -2.597899 3.535534 -3.535534 
C 2.597899 -4.473168 1.326016 -5 0 -5 
C -1.326016 -5 -2.597899 -4.473168 -3.535534 -3.535534 
C -4.473168 -2.597899 -5 -1.326016 -5 0 
C -5 1.326016 -4.473168 2.597899 -3.535534 3.535534 
C -2.597899 4.473168 -1.326016 5 0 5 
z
" style="stroke: #000000; stroke-opacity: 0.8"/>
    </defs>
    <g clip-path="url(#frame0105_22666f_p08238a0410)">
     <use xlink:href="#frame0105_22666f_mf40ded0735" x="292.748228" y="266.75216" style="fill-opacity: 0.8; stroke: #000000; stroke-opacity: 0.8"/>
    </g>
   </g>
   <g id="frame0105_22666f_line2d_12">
    <path d="M 370.7 174.158125 
L 370.501884 168.703757 
L 369.908074 163.264252 
L 368.92019 157.854435 
L 367.540923 152.489047 
L 365.774032 147.182711 
L 363.624333 141.949885 
L 361.097682 136.804831 
L 358.200966 131.761569 
L 354.942079 126.833843 
L 351.329901 122.035082 
L 347.374276 117.378362 
L 343.085983 112.876374 
L 338.47671 108.541387 
L 333.559016 104.385213 
L 328.346302 100.419178 
L 322.852775 96.654092 
L 317.093405 93.100213 
L 311.083887 89.767228 
L 304.840596 86.664218 
L 298.380548 83.799639 
L 291.721347 81.181298 
L 284.881139 78.816331 
L 277.878565 76.711182 
L 270.732708 74.871588 
L 263.463041 73.302561 
L 256.089376 72.008379 
L 248.631805 70.992567 
L 241.110653 70.257894 
L 233.546415 69.806362 
L 225.959704 69.639201 
L 218.371195 69.756867 
L 210.801568 70.159039 
L 203.271451 70.844622 
L 195.801365 71.811746 
L 188.411666 73.057778 
L 181.122492 74.579319 
L 173.953708 76.372226 
L 166.924848 78.431611 
L 160.055068 80.751862 
L 153.363088 83.326657 
L 146.867146 86.148979 
L 140.584942 89.211137 
L 134.533597 92.504786 
L 128.729602 96.02095 
L 123.188773 99.750047 
L 117.92621 103.681916 
L 112.956254 107.805841 
L 108.292448 112.110584 
L 103.947502 116.584414 
L 99.933256 121.215139 
L 96.26065 125.990141 
L 92.939693 130.896407 
L 89.979433 135.920566 
L 87.387939 141.048927 
L 85.172272 146.267514 
L 83.33847 151.562107 
L 81.89153 156.918277 
L 80.835397 162.321428 
L 80.172947 167.756835 
L 79.905986 173.209686 
L 80.035242 178.665122 
L 80.560362 184.108276 
L 81.479916 189.524314 
L 82.791397 194.898478 
L 84.491231 200.216122 
L 86.574786 205.462754 
L 89.036385 210.624078 
L 91.869319 215.686027 
L 95.065867 220.634808 
L 98.61732 225.456934 
L 102.513999 230.139264 
L 106.745284 234.669039 
L 111.299646 239.033914 
L 116.164673 243.221995 
L 121.327107 247.221868 
L 126.77288 251.022634 
L 132.487151 254.613934 
L 138.454349 257.985983 
L 144.658211 261.12959 
L 151.081833 264.036189 
L 157.707708 266.69786 
L 164.517781 269.107348 
L 171.493492 271.258088 
L 178.615833 273.144219 
L 185.865394 274.7606 
L 193.222419 276.102828 
L 200.666859 277.167243 
L 208.178428 277.950946 
L 215.736655 278.451801 
L 223.320944 278.668443 
L 230.910625 278.600281 
L 238.485017 278.247502 
L 246.023478 277.611066 
L 253.505465 276.692708 
L 260.910589 275.494931 
L 268.21867 274.020999 
L 275.409792 272.274928 
L 282.464358 270.261477 
L 289.363145 267.986132 
L 292.748228 266.75216 
L 292.748228 266.75216 
" clip-path="url(#frame0105_22666f_p08238a0410)" style="fill: none; stroke: #0072b2; stroke-width: 2.5; stroke-linecap: square"/>
   </g>
   <g id="frame0105_22666f_patch_3">
    <path d="M 225.3 330.938125 
L 225.3 17.378125 
" style="fill: none; stroke: #000000; stroke-width: 0.8; stroke-linejoin: miter; stroke-linecap: square"/>
   </g>
   <g id="frame0105_22666f_patch_4">
    <path d="M 443.4 330.938125 
L 443.4 17.378125 
" style="fill: none"/>
   </g>
   <g id="frame0105_22666f_patch_5">
    <path d="M 7.2 174.158125 
L 443.4 174.158125 
" style="fill: none; stroke: #000000; stroke-width: 0.8; stroke-linejoin: miter; stroke-linecap: square"/>
   </g>
   <g id="frame0105_22666f_patch_6">
    <path d="M 7.2 17.378125 
L 443.4 17.378125 
" style="fill: none"/>
   </g>
  </g>
 </g>
 <defs>
  <clipPath id="frame0105_22666f_p08238a0410">
   <rect x="7.2" y="17.378125" width="436.2" height="313.56"/>
  </clipPath>
 </defs>
</svg>
