<?xml version="1.0" encoding="utf-8" standalone="no"?>
<!DOCTYPE svg PUBLIC "-//W3C//DTD SVG 1.1//EN"
  "http://www.w3.org/Graphics/SVG/1.1/DTD/svg11.dtd">
<svg xmlns:xlink="http://www.w3.org/1999/xlink" width="453.6pt" height="338.138125pt" viewBox="0 0 453.6 338.138125" xmlns="http://www.w3.org/2000/svg" version="1.1">
 <metadata>
  <rdf:RDF xmlns:dc="http://purl.org/dc/elements/1.1/" xmlns:cc="http://creativecommons.org/ns#" xmlns:rdf="http://www.w3.org/1999/02/22-rdf-syntax-ns#">
   <cc:Work>
    <dc:type rdf:resource="http://purl.org/dc/dcmitype/StillImage"/>
    <dc:date>2026-01-22T01:05:29.312900</dc:date>
    <dc:format>image/svg+xml</dc:format>
    <dc:creator>
     <cc:Agent>
      <dc:title>Matplotlib v3.9.1, https://matplotlib.org/</dc:title>
     </cc:Agent>
    </dc:creator>
   </cc:Work>
  </rdf:RDF>
 </metadata>
 <defs>
  <style type="text/css">*{stroke-linejoin: round; stroke-linecap: butt}</style>
 </defs>
 <g id="frame0083_cb6b4f_figure_1">
  <g id="frame0083_cb6b4f_patch_1">
   <path d="M 0 338.138125 
L 453.6 338.138125 
L 453.6 0 
L 0 0 
L 0 338.138125 
z
" style="fill: none; opacity: 0"/>
  </g>
  <g id="frame0083_cb6b4f_axes_1">
   <g id="frame0083_cb6b4f_patch_2">
    <path d="M 7.2 330.938125 
L 443.4 330.938125 
L 443.4 17.378125 
L 7.2 17.378125 
L 7.2 330.938125 
z
" style="fill: none; opacity: 0"/>
   </g>
   <g id="frame0083_cb6b4f_matplotlib.axis_1">
    <g id="frame0083_cb6b4f_xtick_1">
     <g id="frame0083_cb6b4f_line2d_1">
      <path d="M 79.9 330.938125 
L 79.9 17.378125 
" clip-path="url(#frame0083_cb6b4f_p50a297c3d1)" style="fill: none; stroke-dasharray: 2.96,1.28; stroke-dashoffset: 0; stroke: #b0b0b0; stroke-opacity: 0.6; stroke-width: 0.8"/>
     </g>
     <g id="frame0083_cb6b4f_line2d_2">
      <defs>
       <path id="frame0083_cb6b4f_mccac448ad1" d="M 0 0 
L 0 3.5 
" style="stroke: #000000; stroke-width: 0.8"/>
      </defs>
      <g>
       <use xlink:href="#frame0083_cb6b4f_mccac448ad1" x="79.9" y="174.158125" style="stroke: #000000; stroke-width: 0.8"/>
      </g>
     </g>
     <g id="frame0083_cb6b4f_text_1">
      <!-- −1 -->
      <g transform="translate(65.157813 196.355) scale(0.2 -0.2)">
       <defs>
        <path id="frame0083_cb6b4f_DejaVuSans-2212" d="M 678 2272 
L 4684 2272 
L 4684 1741 
L 678 1741 
L 678 2272 
z
" transform="scale(0.015625)"/>
        <path id="frame0083_cb6b4f_DejaVuSans-31" d="M 794 531 
L 1825 531 
L 1825 4091 
L 703 3866 
L 703 4441 
L 1819 4666 
L 2450 4666 
L 2450 531 
L 3481 531 
L 3481 0 
L 794 0 
L 794 531 
z
" transform="scale(0.015625)"/>
       </defs>
       <use xlink:href="#frame0083_cb6b4f_DejaVuSans-2212"/>
       <use xlink:href="#frame0083_cb6b4f_DejaVuSans-31" x="83.789062"/>
      </g>
     </g>
    </g>
    <g id="frame0083_cb6b4f_xtick_2">
     <g id="frame0083_cb6b4f_line2d_3">
      <path d="M 370.7 330.938125 
L 370.7 17.378125 
" clip-path="url(#frame0083_cb6b4f_p50a297c3d1)" style="fill: none; stroke-dasharray: 2.96,1.28; stroke-dashoffset: 0; stroke: #b0b0b0; stroke-opacity: 0.6; stroke-width: 0.8"/>
     </g>
     <g id="frame0083_cb6b4f_line2d_4">
      <g>
       <use xlink:href="#frame0083_cb6b4f_mccac448ad1" x="370.7" y="174.158125" style="stroke: #000000; stroke-width: 0.8"/>
      </g>
     </g>
     <g id="frame0083_cb6b4f_text_2">
      <!-- 1 -->
      <g transform="translate(364.3375 196.355) scale(0.2 -0.2)">
       <use xlink:href="#frame0083_cb6b4f_DejaVuSans-31"/>
      </g>
     </g>
    </g>
    <g id="frame0083_cb6b4f_text_3">
     <!-- $x$ -->
     <g transform="translate(431.4 219.71125) scale(0.2 -0.2)">
      <defs>
       <path id="frame0083_cb6b4f_DejaVuSans-Oblique-78" d="M 3841 3500 
L 2234 1784 
L 3219 0 
L 2559 0 
L 1819 1388 
L 531 0 
L -166 0 
L 1556 1844 
L 641 3500 
L 1300 3500 
L 1972 2234 
L 3144 3500 
L 3841 3500 
z
" transform="scale(0.015625)"/>
      </defs>
      <use xlink:href="#frame0083_cb6b4f_DejaVuSans-Oblique-78" transform="translate(0 0.3125)"/>
     </g>
    </g>
   </g>
   <g id="frame0083_cb6b4f_matplotlib.axis_2">
    <g id="frame0083_cb6b4f_ytick_1">
     <g id="frame0083_cb6b4f_line2d_5">
      <path d="M 7.2 278.678125 
L 443.4 278.678125 
" clip-path="url(#frame0083_cb6b4f_p50a297c3d1)" style="fill: none; stroke-dasharray: 2.96,1.28; stroke-dashoffset: 0; stroke: #b0b0b0; stroke-opacity: 0.6; stroke-width: 0.8"/>
     </g>
     <g id="frame0083_cb6b4f_line2d_6">
      <defs>
       <path id="frame0083_cb6b4f_m9197fe244a" d="M 0 0 
L -3.5 0 
" style="stroke: #000000; stroke-width: 0.8"/>
      </defs>
      <g>
       <use xlink:href="#frame0083_cb6b4f_m9197fe244a" x="225.3" y="278.678125" style="stroke: #000000; stroke-width: 0.8"/>
      </g>
     </g>
     <g id="frame0083_cb6b4f_text_4">
      <!-- −1 -->
      <g transform="translate(188.815625 286.276562) scale(0.2 -0.2)">
       <use xlink:href="#frame0083_cb6b4f_DejaVuSans-2212"/>
       <use xlink:href="#frame0083_cb6b4f_DejaVuSans-31" x="83.789062"/>
      </g>
     </g>
    </g>
    <g id="frame0083_cb6b4f_ytick_2">
     <g id="frame0083_cb6b4f_line2d_7">
      <path d="M 7.2 69.638125 
L 443.4 69.638125 
" clip-path="url(#frame0083_cb6b4f_p50a297c3d1)" style="fill: none; stroke-dasharray: 2.96,1.28; stroke-dashoffset: 0; stroke: #b0b0b0; stroke-opacity: 0.6; stroke-width: 0.8"/>
     </g>
     <g id="frame0083_cb6b4f_line2d_8">
      <g>
       <use xlink:href="#frame0083_cb6b4f_m9197fe244a" x="225.3" y="69.638125" style="stroke: #000000; stroke-width: 0.8"/>
      </g>
     </g>
     <g id="frame0083_cb6b4f_text_5">
      <!-- 1 -->
      <g transform="translate(205.575 77.236562) scale(0.2 -0.2)">
       <use xlink:href="#frame0083_cb6b4f_DejaVuSans-31"/>
      </g>
     </g>
    </g>
    <g id="frame0083_cb6b4f_text_6">
     <!-- $y$ -->
     <g transform="translate(172.815625 13.178125) scale(0.2 -0.2)">
      <defs>
       <path id="frame0083_cb6b4f_DejaVuSans-Oblique-79" d="M 1588 -325 
Q 1188 -997 936 -1164 
Q 684 -1331 294 -1331 
L -159 -1331 
L -63 -850 
L 269 -850 
Q 509 -850 678 -719 
Q 847 -588 1056 -206 
L 1234 128 
L 459 3500 
L 1069 3500 
L 1650 819 
L 3256 3500 
L 3859 3500 
L 1588 -325 
z
" transform="scale(0.015625)"/>
      </defs>
      <use xlink:href="#frame0083_cb6b4f_DejaVuSans-Oblique-79" transform="translate(0 0.3125)"/>
     </g>
    </g>
   </g>
   <g id="frame0083_cb6b4f_line2d_9">
    <defs>
     <path id="frame0083_cb6b4f_m8a6faae34f" d="M 3 0 
L -3 -3 
L -3 3 
z
" style="stroke: #000000; stroke-linejoin: miter"/>
    </defs>
    <g>
     <use xlink:href="#frame0083_cb6b4f_m8a6faae34f" x="443.4" y="174.158125" style="stroke: #000000; stroke-linejoin: miter"/>
    </g>
   </g>
   <g id="frame0083_cb6b4f_line2d_10">
    <defs>
     <path id="frame0083_cb6b4f_m24113f4b11" d="M 0 -3 
L -3 3 
L 3 3 
z
" style="stroke: #000000; stroke-linejoin: miter"/>
    </defs>
    <g>
     <use xlink:href="#frame0083_cb6b4f_m24113f4b11" x="225.3" y="17.378125" style="stroke: #000000; stroke-linejoin: miter"/>
    </g>
   </g>
   <g id="frame0083_cb6b4f_line2d_11">
    <defs>
     <path id="frame0083_cb6b4f_mac81655b41" d="M 0 5 
C 1.326016 5 2.597899 4.473168 3.535534 3.535534 
C 4.473168 2.597899 5 1.326016 5 0 
C 5 -1.326016 4.473168 -2.597899 3.535534 -3.535534 
C 2.597899 -4.473168 1.326016 -5 0 -5 
C -1.326016 -5 -2.597899 -4.473168 -3.535534 -3.535534 
C -4.473168 -2.597899 -5 -1.326016 -5 0 
C -5 1.326016 -4.473168 2.597899 -3.535534 3.535534 
C -2.597899 4.473168 -1.326016 5 0 5 
z
" style="stroke: #000000; stroke-opacity: 0.8"/>
    </defs>
    <g clip-path="url(#frame0083_cb6b4f_p50a297c3d1)">
     <use xlink:href="#frame0083_cb6b4f_mac81655b41" x="142.475838" y="260.063263" style="fill-opacity: 0.8; stroke: #000000; stroke-opacity: 0.8"/>
    </g>
   </g>
   <g id="frame0083_cb6b4f_line2d_12">
    <path d="M 370.7 174.158125 
L 370.576196 169.845842 
L 370.204994 165.540902 
L 369.587028 161.250637 
L 368.723348 156.982353 
L 367.615426 152.743318 
L 366.265149 148.540752 
L 364.674816 144.38181 
L 362.847135 140.273576 
L 360.785219 136.223045 
L 358.492579 132.237116 
L 355.97312 128.322576 
L 353.231131 124.486091 
L 350.271282 120.734196 
L 347.098615 117.073278 
L 343.718531 113.509572 
L 340.136786 110.049148 
L 336.359481 106.697898 
L 332.393048 103.461529 
L 328.244241 100.345552 
L 323.920126 97.355274 
L 319.428066 94.495787 
L 314.775711 91.771961 
L 309.970984 89.188433 
L 305.022066 86.749605 
L 299.937387 84.459628 
L 294.725604 82.322403 
L 289.395593 80.34157 
L 283.956431 78.5205 
L 278.41738 76.862297 
L 272.787873 75.369783 
L 267.077497 74.045499 
L 261.295976 72.891703 
L 255.453156 71.910357 
L 249.558987 71.103134 
L 243.623506 70.471408 
L 237.656821 70.016254 
L 231.669093 69.738449 
L 225.670519 69.638464 
L 219.671314 69.716471 
L 213.681695 69.972336 
L 207.71186 70.405624 
L 201.771977 71.015597 
L 195.872162 71.801216 
L 190.02246 72.761142 
L 184.232834 73.893743 
L 178.513143 75.197088 
L 172.873127 76.668959 
L 167.322392 78.306848 
L 161.870389 80.107966 
L 156.526404 82.069247 
L 151.299536 84.18735 
L 146.198686 86.458669 
L 141.232543 88.879335 
L 136.409561 91.445226 
L 131.737955 94.151972 
L 127.22568 96.994965 
L 122.88042 99.969362 
L 118.709575 103.070099 
L 114.720247 106.291894 
L 110.919231 109.629263 
L 107.312999 113.07652 
L 103.907693 116.627796 
L 100.709111 120.277043 
L 97.7227 124.018046 
L 94.953547 127.844435 
L 92.406366 131.749694 
L 90.085496 135.727172 
L 87.994889 139.770096 
L 86.138105 143.871581 
L 84.518306 148.024642 
L 83.138251 152.222207 
L 82.000289 156.457128 
L 81.106359 160.722193 
L 80.457983 165.010138 
L 80.056265 169.313662 
L 79.901888 173.625435 
L 79.995117 177.938116 
L 80.335792 182.244359 
L 80.923334 186.536833 
L 81.75674 190.808226 
L 82.834593 195.051264 
L 84.155057 199.258723 
L 85.715883 203.423437 
L 87.514413 207.538314 
L 89.547585 211.596346 
L 91.811935 215.590623 
L 94.303608 219.514342 
L 97.018361 223.360823 
L 99.95157 227.123514 
L 103.098241 230.796007 
L 106.453015 234.37205 
L 110.010179 237.845551 
L 113.763675 241.210597 
L 117.707111 244.461455 
L 121.833772 247.592591 
L 126.136631 250.598672 
L 130.608359 253.474579 
L 135.241342 256.215415 
L 140.027689 258.816511 
L 142.475838 260.063263 
L 142.475838 260.063263 
" clip-path="url(#frame0083_cb6b4f_p50a297c3d1)" style="fill: none; stroke: #0072b2; stroke-width: 2.5; stroke-linecap: square"/>
   </g>
   <g id="frame0083_cb6b4f_patch_3">
    <path d="M 225.3 330.938125 
L 225.3 17.378125 
" style="fill: none; stroke: #000000; stroke-width: 0.8; stroke-linejoin: miter; stroke-linecap: square"/>
   </g>
   <g id="frame0083_cb6b4f_patch_4">
    <path d="M 443.4 330.938125 
L 443.4 17.378125 
" style="fill: none"/>
   </g>
   <g id="frame0083_cb6b4f_patch_5">
    <path d="M 7.2 174.158125 
L 443.4 174.158125 
" style="fill: none; stroke: #000000; stroke-width: 0.8; stroke-linejoin: miter; stroke-linecap: square"/>
   </g>
   <g id="frame0083_cb6b4f_patch_6">
    <path d="M 7.2 17.378125 
L 443.4 17.378125 
" style="fill: none"/>
   </g>
  </g>
 </g>
 <defs>
  <clipPath id="frame0083_cb6b4f_p50a297c3d1">
   <rect x="7.2" y="17.378125" width="436.2" height="313.56"/>
  </clipPath>
 </defs>
</svg>
