<?xml version="1.0" encoding="utf-8" standalone="no"?>
<!DOCTYPE svg PUBLIC "-//W3C//DTD SVG 1.1//EN"
  "http://www.w3.org/Graphics/SVG/1.1/DTD/svg11.dtd">
<svg xmlns:xlink="http://www.w3.org/1999/xlink" width="453.6pt" height="338.138125pt" viewBox="0 0 453.6 338.138125" xmlns="http://www.w3.org/2000/svg" version="1.1">
 <metadata>
  <rdf:RDF xmlns:dc="http://purl.org/dc/elements/1.1/" xmlns:cc="http://creativecommons.org/ns#" xmlns:rdf="http://www.w3.org/1999/02/22-rdf-syntax-ns#">
   <cc:Work>
    <dc:type rdf:resource="http://purl.org/dc/dcmitype/StillImage"/>
    <dc:date>2026-01-22T01:05:30.094062</dc:date>
    <dc:format>image/svg+xml</dc:format>
    <dc:creator>
     <cc:Agent>
      <dc:title>Matplotlib v3.9.1, https://matplotlib.org/</dc:title>
     </cc:Agent>
    </dc:creator>
   </cc:Work>
  </rdf:RDF>
 </metadata>
 <defs>
  <style type="text/css">*{stroke-linejoin: round; stroke-linecap: butt}</style>
 </defs>
 <g id="frame0093_91253b_figure_1">
  <g id="frame0093_91253b_patch_1">
   <path d="M 0 338.138125 
L 453.6 338.138125 
L 453.6 0 
L 0 0 
L 0 338.138125 
z
" style="fill: none; opacity: 0"/>
  </g>
  <g id="frame0093_91253b_axes_1">
   <g id="frame0093_91253b_patch_2">
    <path d="M 7.2 330.938125 
L 443.4 330.938125 
L 443.4 17.378125 
L 7.2 17.378125 
L 7.2 330.938125 
z
" style="fill: none; opacity: 0"/>
   </g>
   <g id="frame0093_91253b_matplotlib.axis_1">
    <g id="frame0093_91253b_xtick_1">
     <g id="frame0093_91253b_line2d_1">
      <path d="M 79.9 330.938125 
L 79.9 17.378125 
" clip-path="url(#frame0093_91253b_p9099b5aff1)" style="fill: none; stroke-dasharray: 2.96,1.28; stroke-dashoffset: 0; stroke: #b0b0b0; stroke-opacity: 0.6; stroke-width: 0.8"/>
     </g>
     <g id="frame0093_91253b_line2d_2">
      <defs>
       <path id="frame0093_91253b_meb7f059f09" d="M 0 0 
L 0 3.5 
" style="stroke: #000000; stroke-width: 0.8"/>
      </defs>
      <g>
       <use xlink:href="#frame0093_91253b_meb7f059f09" x="79.9" y="174.158125" style="stroke: #000000; stroke-width: 0.8"/>
      </g>
     </g>
     <g id="frame0093_91253b_text_1">
      <!-- −1 -->
      <g transform="translate(65.157813 196.355) scale(0.2 -0.2)">
       <defs>
        <path id="frame0093_91253b_DejaVuSans-2212" d="M 678 2272 
L 4684 2272 
L 4684 1741 
L 678 1741 
L 678 2272 
z
" transform="scale(0.015625)"/>
        <path id="frame0093_91253b_DejaVuSans-31" d="M 794 531 
L 1825 531 
L 1825 4091 
L 703 3866 
L 703 4441 
L 1819 4666 
L 2450 4666 
L 2450 531 
L 3481 531 
L 3481 0 
L 794 0 
L 794 531 
z
" transform="scale(0.015625)"/>
       </defs>
       <use xlink:href="#frame0093_91253b_DejaVuSans-2212"/>
       <use xlink:href="#frame0093_91253b_DejaVuSans-31" x="83.789062"/>
      </g>
     </g>
    </g>
    <g id="frame0093_91253b_xtick_2">
     <g id="frame0093_91253b_line2d_3">
      <path d="M 370.7 330.938125 
L 370.7 17.378125 
" clip-path="url(#frame0093_91253b_p9099b5aff1)" style="fill: none; stroke-dasharray: 2.96,1.28; stroke-dashoffset: 0; stroke: #b0b0b0; stroke-opacity: 0.6; stroke-width: 0.8"/>
     </g>
     <g id="frame0093_91253b_line2d_4">
      <g>
       <use xlink:href="#frame0093_91253b_meb7f059f09" x="370.7" y="174.158125" style="stroke: #000000; stroke-width: 0.8"/>
      </g>
     </g>
     <g id="frame0093_91253b_text_2">
      <!-- 1 -->
      <g transform="translate(364.3375 196.355) scale(0.2 -0.2)">
       <use xlink:href="#frame0093_91253b_DejaVuSans-31"/>
      </g>
     </g>
    </g>
    <g id="frame0093_91253b_text_3">
     <!-- $x$ -->
     <g transform="translate(431.4 219.71125) scale(0.2 -0.2)">
      <defs>
       <path id="frame0093_91253b_DejaVuSans-Oblique-78" d="M 3841 3500 
L 2234 1784 
L 3219 0 
L 2559 0 
L 1819 1388 
L 531 0 
L -166 0 
L 1556 1844 
L 641 3500 
L 1300 3500 
L 1972 2234 
L 3144 3500 
L 3841 3500 
z
" transform="scale(0.015625)"/>
      </defs>
      <use xlink:href="#frame0093_91253b_DejaVuSans-Oblique-78" transform="translate(0 0.3125)"/>
     </g>
    </g>
   </g>
   <g id="frame0093_91253b_matplotlib.axis_2">
    <g id="frame0093_91253b_ytick_1">
     <g id="frame0093_91253b_line2d_5">
      <path d="M 7.2 278.678125 
L 443.4 278.678125 
" clip-path="url(#frame0093_91253b_p9099b5aff1)" style="fill: none; stroke-dasharray: 2.96,1.28; stroke-dashoffset: 0; stroke: #b0b0b0; stroke-opacity: 0.6; stroke-width: 0.8"/>
     </g>
     <g id="frame0093_91253b_line2d_6">
      <defs>
       <path id="frame0093_91253b_m60c2573658" d="M 0 0 
L -3.5 0 
" style="stroke: #000000; stroke-width: 0.8"/>
      </defs>
      <g>
       <use xlink:href="#frame0093_91253b_m60c2573658" x="225.3" y="278.678125" style="stroke: #000000; stroke-width: 0.8"/>
      </g>
     </g>
     <g id="frame0093_91253b_text_4">
      <!-- −1 -->
      <g transform="translate(188.815625 286.276562) scale(0.2 -0.2)">
       <use xlink:href="#frame0093_91253b_DejaVuSans-2212"/>
       <use xlink:href="#frame0093_91253b_DejaVuSans-31" x="83.789062"/>
      </g>
     </g>
    </g>
    <g id="frame0093_91253b_ytick_2">
     <g id="frame0093_91253b_line2d_7">
      <path d="M 7.2 69.638125 
L 443.4 69.638125 
" clip-path="url(#frame0093_91253b_p9099b5aff1)" style="fill: none; stroke-dasharray: 2.96,1.28; stroke-dashoffset: 0; stroke: #b0b0b0; stroke-opacity: 0.6; stroke-width: 0.8"/>
     </g>
     <g id="frame0093_91253b_line2d_8">
      <g>
       <use xlink:href="#frame0093_91253b_m60c2573658" x="225.3" y="69.638125" style="stroke: #000000; stroke-width: 0.8"/>
      </g>
     </g>
     <g id="frame0093_91253b_text_5">
      <!-- 1 -->
      <g transform="translate(205.575 77.236562) scale(0.2 -0.2)">
       <use xlink:href="#frame0093_91253b_DejaVuSans-31"/>
      </g>
     </g>
    </g>
    <g id="frame0093_91253b_text_6">
     <!-- $y$ -->
     <g transform="translate(172.815625 13.178125) scale(0.2 -0.2)">
      <defs>
       <path id="frame0093_91253b_DejaVuSans-Oblique-79" d="M 1588 -325 
Q 1188 -997 936 -1164 
Q 684 -1331 294 -1331 
L -159 -1331 
L -63 -850 
L 269 -850 
Q 509 -850 678 -719 
Q 847 -588 1056 -206 
L 1234 128 
L 459 3500 
L 1069 3500 
L 1650 819 
L 3256 3500 
L 3859 3500 
L 1588 -325 
z
" transform="scale(0.015625)"/>
      </defs>
      <use xlink:href="#frame0093_91253b_DejaVuSans-Oblique-79" transform="translate(0 0.3125)"/>
     </g>
    </g>
   </g>
   <g id="frame0093_91253b_line2d_9">
    <defs>
     <path id="frame0093_91253b_mb46e709d0d" d="M 3 0 
L -3 -3 
L -3 3 
z
" style="stroke: #000000; stroke-linejoin: miter"/>
    </defs>
    <g>
     <use xlink:href="#frame0093_91253b_mb46e709d0d" x="443.4" y="174.158125" style="stroke: #000000; stroke-linejoin: miter"/>
    </g>
   </g>
   <g id="frame0093_91253b_line2d_10">
    <defs>
     <path id="frame0093_91253b_mf3bedc7121" d="M 0 -3 
L -3 3 
L 3 3 
z
" style="stroke: #000000; stroke-linejoin: miter"/>
    </defs>
    <g>
     <use xlink:href="#frame0093_91253b_mf3bedc7121" x="225.3" y="17.378125" style="stroke: #000000; stroke-linejoin: miter"/>
    </g>
   </g>
   <g id="frame0093_91253b_line2d_11">
    <defs>
     <path id="frame0093_91253b_m6999a5fbd5" d="M 0 5 
C 1.326016 5 2.597899 4.473168 3.535534 3.535534 
C 4.473168 2.597899 5 1.326016 5 0 
C 5 -1.326016 4.473168 -2.597899 3.535534 -3.535534 
C 2.597899 -4.473168 1.326016 -5 0 -5 
C -1.326016 -5 -2.597899 -4.473168 -3.535534 -3.535534 
C -4.473168 -2.597899 -5 -1.326016 -5 0 
C -5 1.326016 -4.473168 2.597899 -3.535534 3.535534 
C -2.597899 4.473168 -1.326016 5 0 5 
z
" style="stroke: #000000; stroke-opacity: 0.8"/>
    </defs>
    <g clip-path="url(#frame0093_91253b_p9099b5aff1)">
     <use xlink:href="#frame0093_91253b_m6999a5fbd5" x="209.148019" y="278.031223" style="fill-opacity: 0.8; stroke: #000000; stroke-opacity: 0.8"/>
    </g>
   </g>
   <g id="frame0093_91253b_line2d_12">
    <path d="M 370.7 174.158125 
L 370.544572 169.32664 
L 370.078621 164.505485 
L 369.303142 159.704966 
L 368.219793 154.935347 
L 366.830892 150.206825 
L 365.139406 145.52951 
L 363.148953 140.9134 
L 360.863787 136.368366 
L 358.288795 131.904124 
L 355.429482 127.530218 
L 352.29196 123.256 
L 348.882937 119.090607 
L 345.209702 115.042945 
L 341.280107 111.121667 
L 337.102555 107.335157 
L 332.685976 103.691511 
L 328.039813 100.198517 
L 323.173998 96.863645 
L 318.098936 93.694023 
L 312.825475 90.696428 
L 307.36489 87.877269 
L 301.728856 85.242573 
L 295.929421 82.797972 
L 289.978986 80.548694 
L 283.890271 78.499547 
L 277.676294 76.654911 
L 271.35034 75.018731 
L 264.925933 73.594505 
L 258.416808 72.385277 
L 251.836882 71.393634 
L 245.200222 70.621694 
L 238.521016 70.071108 
L 231.813545 69.743053 
L 225.092148 69.638232 
L 218.371195 69.756867 
L 211.665056 70.098705 
L 204.988067 70.663016 
L 198.354504 71.448592 
L 191.778549 72.453755 
L 185.27426 73.676356 
L 178.855544 75.113779 
L 172.536123 76.762954 
L 166.329508 78.620353 
L 160.248968 80.682005 
L 154.307503 82.943504 
L 148.517815 85.400013 
L 142.892283 88.046282 
L 137.442933 90.876652 
L 132.181416 93.885073 
L 127.118981 97.065112 
L 122.26645 100.409971 
L 117.634198 103.912499 
L 113.232129 107.565208 
L 109.069653 111.360288 
L 105.155671 115.289625 
L 101.49855 119.34482 
L 98.106108 123.517202 
L 94.985598 127.797851 
L 92.143693 132.177616 
L 89.586466 136.647132 
L 87.319387 141.196844 
L 85.347302 145.817025 
L 83.674426 150.497798 
L 82.304336 155.229155 
L 81.239963 160.000981 
L 80.48358 164.803074 
L 80.036805 169.625167 
L 79.900594 174.456952 
L 80.075238 179.288098 
L 80.560362 184.108276 
L 81.354931 188.907181 
L 82.457245 193.674554 
L 83.864948 198.400202 
L 85.575029 203.074022 
L 87.583834 207.686022 
L 89.887067 212.226341 
L 92.479804 216.685273 
L 95.356502 221.053284 
L 98.511011 225.321037 
L 101.936587 229.479407 
L 105.625905 233.519503 
L 109.57108 237.432688 
L 113.763675 241.210597 
L 118.194728 244.845151 
L 122.854765 248.328582 
L 127.733823 251.65344 
L 132.821471 254.812619 
L 138.106833 257.799364 
L 143.578608 260.607289 
L 149.225098 263.230391 
L 155.034231 265.663062 
L 160.993588 267.900102 
L 167.090428 269.936727 
L 173.311717 271.768584 
L 179.644153 273.391756 
L 186.074198 274.802773 
L 192.588105 275.998618 
L 199.171949 276.976735 
L 205.811652 277.735032 
L 209.148019 278.031223 
L 209.148019 278.031223 
" clip-path="url(#frame0093_91253b_p9099b5aff1)" style="fill: none; stroke: #0072b2; stroke-width: 2.5; stroke-linecap: square"/>
   </g>
   <g id="frame0093_91253b_patch_3">
    <path d="M 225.3 330.938125 
L 225.3 17.378125 
" style="fill: none; stroke: #000000; stroke-width: 0.8; stroke-linejoin: miter; stroke-linecap: square"/>
   </g>
   <g id="frame0093_91253b_patch_4">
    <path d="M 443.4 330.938125 
L 443.4 17.378125 
" style="fill: none"/>
   </g>
   <g id="frame0093_91253b_patch_5">
    <path d="M 7.2 174.158125 
L 443.4 174.158125 
" style="fill: none; stroke: #000000; stroke-width: 0.8; stroke-linejoin: miter; stroke-linecap: square"/>
   </g>
   <g id="frame0093_91253b_patch_6">
    <path d="M 7.2 17.378125 
L 443.4 17.378125 
" style="fill: none"/>
   </g>
  </g>
 </g>
 <defs>
  <clipPath id="frame0093_91253b_p9099b5aff1">
   <rect x="7.2" y="17.378125" width="436.2" height="313.56"/>
  </clipPath>
 </defs>
</svg>
