<?xml version="1.0" encoding="utf-8" standalone="no"?>
<!DOCTYPE svg PUBLIC "-//W3C//DTD SVG 1.1//EN"
  "http://www.w3.org/Graphics/SVG/1.1/DTD/svg11.dtd">
<svg xmlns:xlink="http://www.w3.org/1999/xlink" width="453.6pt" height="338.138125pt" viewBox="0 0 453.6 338.138125" xmlns="http://www.w3.org/2000/svg" version="1.1">
 <metadata>
  <rdf:RDF xmlns:dc="http://purl.org/dc/elements/1.1/" xmlns:cc="http://creativecommons.org/ns#" xmlns:rdf="http://www.w3.org/1999/02/22-rdf-syntax-ns#">
   <cc:Work>
    <dc:type rdf:resource="http://purl.org/dc/dcmitype/StillImage"/>
    <dc:date>2026-01-22T01:05:31.484477</dc:date>
    <dc:format>image/svg+xml</dc:format>
    <dc:creator>
     <cc:Agent>
      <dc:title>Matplotlib v3.9.1, https://matplotlib.org/</dc:title>
     </cc:Agent>
    </dc:creator>
   </cc:Work>
  </rdf:RDF>
 </metadata>
 <defs>
  <style type="text/css">*{stroke-linejoin: round; stroke-linecap: butt}</style>
 </defs>
 <g id="frame0109_72ed9b_figure_1">
  <g id="frame0109_72ed9b_patch_1">
   <path d="M 0 338.138125 
L 453.6 338.138125 
L 453.6 0 
L 0 0 
L 0 338.138125 
z
" style="fill: none; opacity: 0"/>
  </g>
  <g id="frame0109_72ed9b_axes_1">
   <g id="frame0109_72ed9b_patch_2">
    <path d="M 7.2 330.938125 
L 443.4 330.938125 
L 443.4 17.378125 
L 7.2 17.378125 
L 7.2 330.938125 
z
" style="fill: none; opacity: 0"/>
   </g>
   <g id="frame0109_72ed9b_matplotlib.axis_1">
    <g id="frame0109_72ed9b_xtick_1">
     <g id="frame0109_72ed9b_line2d_1">
      <path d="M 79.9 330.938125 
L 79.9 17.378125 
" clip-path="url(#frame0109_72ed9b_p14c460e489)" style="fill: none; stroke-dasharray: 2.96,1.28; stroke-dashoffset: 0; stroke: #b0b0b0; stroke-opacity: 0.6; stroke-width: 0.8"/>
     </g>
     <g id="frame0109_72ed9b_line2d_2">
      <defs>
       <path id="frame0109_72ed9b_m83d9dba577" d="M 0 0 
L 0 3.5 
" style="stroke: #000000; stroke-width: 0.8"/>
      </defs>
      <g>
       <use xlink:href="#frame0109_72ed9b_m83d9dba577" x="79.9" y="174.158125" style="stroke: #000000; stroke-width: 0.8"/>
      </g>
     </g>
     <g id="frame0109_72ed9b_text_1">
      <!-- −1 -->
      <g transform="translate(65.157813 196.355) scale(0.2 -0.2)">
       <defs>
        <path id="frame0109_72ed9b_DejaVuSans-2212" d="M 678 2272 
L 4684 2272 
L 4684 1741 
L 678 1741 
L 678 2272 
z
" transform="scale(0.015625)"/>
        <path id="frame0109_72ed9b_DejaVuSans-31" d="M 794 531 
L 1825 531 
L 1825 4091 
L 703 3866 
L 703 4441 
L 1819 4666 
L 2450 4666 
L 2450 531 
L 3481 531 
L 3481 0 
L 794 0 
L 794 531 
z
" transform="scale(0.015625)"/>
       </defs>
       <use xlink:href="#frame0109_72ed9b_DejaVuSans-2212"/>
       <use xlink:href="#frame0109_72ed9b_DejaVuSans-31" x="83.789062"/>
      </g>
     </g>
    </g>
    <g id="frame0109_72ed9b_xtick_2">
     <g id="frame0109_72ed9b_line2d_3">
      <path d="M 370.7 330.938125 
L 370.7 17.378125 
" clip-path="url(#frame0109_72ed9b_p14c460e489)" style="fill: none; stroke-dasharray: 2.96,1.28; stroke-dashoffset: 0; stroke: #b0b0b0; stroke-opacity: 0.6; stroke-width: 0.8"/>
     </g>
     <g id="frame0109_72ed9b_line2d_4">
      <g>
       <use xlink:href="#frame0109_72ed9b_m83d9dba577" x="370.7" y="174.158125" style="stroke: #000000; stroke-width: 0.8"/>
      </g>
     </g>
     <g id="frame0109_72ed9b_text_2">
      <!-- 1 -->
      <g transform="translate(364.3375 196.355) scale(0.2 -0.2)">
       <use xlink:href="#frame0109_72ed9b_DejaVuSans-31"/>
      </g>
     </g>
    </g>
    <g id="frame0109_72ed9b_text_3">
     <!-- $x$ -->
     <g transform="translate(431.4 219.71125) scale(0.2 -0.2)">
      <defs>
       <path id="frame0109_72ed9b_DejaVuSans-Oblique-78" d="M 3841 3500 
L 2234 1784 
L 3219 0 
L 2559 0 
L 1819 1388 
L 531 0 
L -166 0 
L 1556 1844 
L 641 3500 
L 1300 3500 
L 1972 2234 
L 3144 3500 
L 3841 3500 
z
" transform="scale(0.015625)"/>
      </defs>
      <use xlink:href="#frame0109_72ed9b_DejaVuSans-Oblique-78" transform="translate(0 0.3125)"/>
     </g>
    </g>
   </g>
   <g id="frame0109_72ed9b_matplotlib.axis_2">
    <g id="frame0109_72ed9b_ytick_1">
     <g id="frame0109_72ed9b_line2d_5">
      <path d="M 7.2 278.678125 
L 443.4 278.678125 
" clip-path="url(#frame0109_72ed9b_p14c460e489)" style="fill: none; stroke-dasharray: 2.96,1.28; stroke-dashoffset: 0; stroke: #b0b0b0; stroke-opacity: 0.6; stroke-width: 0.8"/>
     </g>
     <g id="frame0109_72ed9b_line2d_6">
      <defs>
       <path id="frame0109_72ed9b_m8c89e96e96" d="M 0 0 
L -3.5 0 
" style="stroke: #000000; stroke-width: 0.8"/>
      </defs>
      <g>
       <use xlink:href="#frame0109_72ed9b_m8c89e96e96" x="225.3" y="278.678125" style="stroke: #000000; stroke-width: 0.8"/>
      </g>
     </g>
     <g id="frame0109_72ed9b_text_4">
      <!-- −1 -->
      <g transform="translate(188.815625 286.276562) scale(0.2 -0.2)">
       <use xlink:href="#frame0109_72ed9b_DejaVuSans-2212"/>
       <use xlink:href="#frame0109_72ed9b_DejaVuSans-31" x="83.789062"/>
      </g>
     </g>
    </g>
    <g id="frame0109_72ed9b_ytick_2">
     <g id="frame0109_72ed9b_line2d_7">
      <path d="M 7.2 69.638125 
L 443.4 69.638125 
" clip-path="url(#frame0109_72ed9b_p14c460e489)" style="fill: none; stroke-dasharray: 2.96,1.28; stroke-dashoffset: 0; stroke: #b0b0b0; stroke-opacity: 0.6; stroke-width: 0.8"/>
     </g>
     <g id="frame0109_72ed9b_line2d_8">
      <g>
       <use xlink:href="#frame0109_72ed9b_m8c89e96e96" x="225.3" y="69.638125" style="stroke: #000000; stroke-width: 0.8"/>
      </g>
     </g>
     <g id="frame0109_72ed9b_text_5">
      <!-- 1 -->
      <g transform="translate(205.575 77.236562) scale(0.2 -0.2)">
       <use xlink:href="#frame0109_72ed9b_DejaVuSans-31"/>
      </g>
     </g>
    </g>
    <g id="frame0109_72ed9b_text_6">
     <!-- $y$ -->
     <g transform="translate(172.815625 13.178125) scale(0.2 -0.2)">
      <defs>
       <path id="frame0109_72ed9b_DejaVuSans-Oblique-79" d="M 1588 -325 
Q 1188 -997 936 -1164 
Q 684 -1331 294 -1331 
L -159 -1331 
L -63 -850 
L 269 -850 
Q 509 -850 678 -719 
Q 847 -588 1056 -206 
L 1234 128 
L 459 3500 
L 1069 3500 
L 1650 819 
L 3256 3500 
L 3859 3500 
L 1588 -325 
z
" transform="scale(0.015625)"/>
      </defs>
      <use xlink:href="#frame0109_72ed9b_DejaVuSans-Oblique-79" transform="translate(0 0.3125)"/>
     </g>
    </g>
   </g>
   <g id="frame0109_72ed9b_line2d_9">
    <defs>
     <path id="frame0109_72ed9b_m00374391a7" d="M 3 0 
L -3 -3 
L -3 3 
z
" style="stroke: #000000; stroke-linejoin: miter"/>
    </defs>
    <g>
     <use xlink:href="#frame0109_72ed9b_m00374391a7" x="443.4" y="174.158125" style="stroke: #000000; stroke-linejoin: miter"/>
    </g>
   </g>
   <g id="frame0109_72ed9b_line2d_10">
    <defs>
     <path id="frame0109_72ed9b_m8186ba9753" d="M 0 -3 
L -3 3 
L 3 3 
z
" style="stroke: #000000; stroke-linejoin: miter"/>
    </defs>
    <g>
     <use xlink:href="#frame0109_72ed9b_m8186ba9753" x="225.3" y="17.378125" style="stroke: #000000; stroke-linejoin: miter"/>
    </g>
   </g>
   <g id="frame0109_72ed9b_line2d_11">
    <defs>
     <path id="frame0109_72ed9b_m4954696a10" d="M 0 5 
C 1.326016 5 2.597899 4.473168 3.535534 3.535534 
C 4.473168 2.597899 5 1.326016 5 0 
C 5 -1.326016 4.473168 -2.597899 3.535534 -3.535534 
C 2.597899 -4.473168 1.326016 -5 0 -5 
C -1.326016 -5 -2.597899 -4.473168 -3.535534 -3.535534 
C -4.473168 -2.597899 -5 -1.326016 -5 0 
C -5 1.326016 -4.473168 2.597899 -3.535534 3.535534 
C -2.597899 4.473168 -1.326016 5 0 5 
z
" style="stroke: #000000; stroke-opacity: 0.8"/>
    </defs>
    <g clip-path="url(#frame0109_72ed9b_p14c460e489)">
     <use xlink:href="#frame0109_72ed9b_m4954696a10" x="316.75659" y="255.412533" style="fill-opacity: 0.8; stroke: #000000; stroke-opacity: 0.8"/>
    </g>
   </g>
   <g id="frame0109_72ed9b_line2d_12">
    <path d="M 370.7 174.158125 
L 370.486505 168.496171 
L 369.846648 162.850844 
L 368.782307 157.238723 
L 367.296608 151.676288 
L 365.393915 146.179875 
L 363.079813 140.765624 
L 360.361101 135.449436 
L 357.24576 130.246921 
L 353.74294 125.173358 
L 349.862928 120.243647 
L 345.617118 115.472264 
L 341.017978 110.873221 
L 336.079014 106.460024 
L 330.81473 102.245633 
L 325.240586 98.242424 
L 319.372952 94.462153 
L 313.229057 90.915921 
L 306.826945 87.614144 
L 300.185417 84.566515 
L 293.323976 81.781987 
L 286.262773 79.268735 
L 279.022542 77.034141 
L 271.624548 75.084766 
L 264.090514 73.426335 
L 256.442565 72.063719 
L 248.703162 71.000919 
L 240.895032 70.241056 
L 233.041104 69.786361 
L 225.164444 69.63817 
L 217.288182 69.796919 
L 209.435447 70.262139 
L 201.629302 71.032467 
L 193.892669 72.105639 
L 186.248268 73.478504 
L 178.718549 75.14703 
L 171.325623 77.106317 
L 164.091202 79.350612 
L 157.03653 81.873324 
L 150.182324 84.667044 
L 143.548712 87.723569 
L 137.155176 91.033922 
L 131.02049 94.588382 
L 125.162671 98.376511 
L 119.598921 102.387185 
L 114.345578 106.608625 
L 109.41807 111.028434 
L 104.830868 115.633633 
L 100.597441 120.410699 
L 96.730223 125.345602 
L 93.240569 130.423851 
L 90.138729 135.630532 
L 87.43381 140.950356 
L 85.133757 146.367699 
L 83.245324 151.866653 
L 81.774056 157.43107 
L 80.724274 163.044607 
L 80.099061 168.690782 
L 79.900253 174.353012 
L 80.128434 180.01467 
L 80.782933 185.659129 
L 81.861829 191.269814 
L 83.361954 196.830248 
L 85.278901 202.324101 
L 87.607042 207.735241 
L 90.33954 213.047777 
L 93.46837 218.246107 
L 96.984343 223.314965 
L 100.877136 228.239467 
L 105.135315 233.005151 
L 109.746377 237.598022 
L 114.696779 242.004591 
L 119.971985 246.211919 
L 125.556503 250.20765 
L 131.433933 253.98005 
L 137.587016 257.51804 
L 143.997681 260.811231 
L 150.647102 263.849952 
L 157.515754 266.625279 
L 164.583464 269.129061 
L 171.829478 271.353947 
L 179.232517 273.293403 
L 186.770839 274.941732 
L 194.422309 276.294095 
L 202.164455 277.34652 
L 209.974543 278.095916 
L 217.829636 278.540083 
L 225.706667 278.677716 
L 233.582504 278.508411 
L 241.434018 278.032666 
L 249.238152 277.251877 
L 256.971988 276.168337 
L 264.612814 274.785228 
L 272.138193 273.106613 
L 279.526023 271.13742 
L 286.75461 268.883432 
L 293.802727 266.351269 
L 300.649675 263.548366 
L 307.275346 260.482955 
L 313.660285 257.164038 
L 316.75659 255.412533 
L 316.75659 255.412533 
" clip-path="url(#frame0109_72ed9b_p14c460e489)" style="fill: none; stroke: #0072b2; stroke-width: 2.5; stroke-linecap: square"/>
   </g>
   <g id="frame0109_72ed9b_patch_3">
    <path d="M 225.3 330.938125 
L 225.3 17.378125 
" style="fill: none; stroke: #000000; stroke-width: 0.8; stroke-linejoin: miter; stroke-linecap: square"/>
   </g>
   <g id="frame0109_72ed9b_patch_4">
    <path d="M 443.4 330.938125 
L 443.4 17.378125 
" style="fill: none"/>
   </g>
   <g id="frame0109_72ed9b_patch_5">
    <path d="M 7.2 174.158125 
L 443.4 174.158125 
" style="fill: none; stroke: #000000; stroke-width: 0.8; stroke-linejoin: miter; stroke-linecap: square"/>
   </g>
   <g id="frame0109_72ed9b_patch_6">
    <path d="M 7.2 17.378125 
L 443.4 17.378125 
" style="fill: none"/>
   </g>
  </g>
 </g>
 <defs>
  <clipPath id="frame0109_72ed9b_p14c460e489">
   <rect x="7.2" y="17.378125" width="436.2" height="313.56"/>
  </clipPath>
 </defs>
</svg>
