<?xml version="1.0" encoding="utf-8" standalone="no"?>
<!DOCTYPE svg PUBLIC "-//W3C//DTD SVG 1.1//EN"
  "http://www.w3.org/Graphics/SVG/1.1/DTD/svg11.dtd">
<svg xmlns:xlink="http://www.w3.org/1999/xlink" width="453.6pt" height="338.138125pt" viewBox="0 0 453.6 338.138125" xmlns="http://www.w3.org/2000/svg" version="1.1">
 <metadata>
  <rdf:RDF xmlns:dc="http://purl.org/dc/elements/1.1/" xmlns:cc="http://creativecommons.org/ns#" xmlns:rdf="http://www.w3.org/1999/02/22-rdf-syntax-ns#">
   <cc:Work>
    <dc:type rdf:resource="http://purl.org/dc/dcmitype/StillImage"/>
    <dc:date>2026-01-22T01:05:28.921207</dc:date>
    <dc:format>image/svg+xml</dc:format>
    <dc:creator>
     <cc:Agent>
      <dc:title>Matplotlib v3.9.1, https://matplotlib.org/</dc:title>
     </cc:Agent>
    </dc:creator>
   </cc:Work>
  </rdf:RDF>
 </metadata>
 <defs>
  <style type="text/css">*{stroke-linejoin: round; stroke-linecap: butt}</style>
 </defs>
 <g id="frame0078_6e1026_figure_1">
  <g id="frame0078_6e1026_patch_1">
   <path d="M 0 338.138125 
L 453.6 338.138125 
L 453.6 0 
L 0 0 
L 0 338.138125 
z
" style="fill: none; opacity: 0"/>
  </g>
  <g id="frame0078_6e1026_axes_1">
   <g id="frame0078_6e1026_patch_2">
    <path d="M 7.2 330.938125 
L 443.4 330.938125 
L 443.4 17.378125 
L 7.2 17.378125 
L 7.2 330.938125 
z
" style="fill: none; opacity: 0"/>
   </g>
   <g id="frame0078_6e1026_matplotlib.axis_1">
    <g id="frame0078_6e1026_xtick_1">
     <g id="frame0078_6e1026_line2d_1">
      <path d="M 79.9 330.938125 
L 79.9 17.378125 
" clip-path="url(#frame0078_6e1026_p022904eb54)" style="fill: none; stroke-dasharray: 2.96,1.28; stroke-dashoffset: 0; stroke: #b0b0b0; stroke-opacity: 0.6; stroke-width: 0.8"/>
     </g>
     <g id="frame0078_6e1026_line2d_2">
      <defs>
       <path id="frame0078_6e1026_m6b68329392" d="M 0 0 
L 0 3.5 
" style="stroke: #000000; stroke-width: 0.8"/>
      </defs>
      <g>
       <use xlink:href="#frame0078_6e1026_m6b68329392" x="79.9" y="174.158125" style="stroke: #000000; stroke-width: 0.8"/>
      </g>
     </g>
     <g id="frame0078_6e1026_text_1">
      <!-- −1 -->
      <g transform="translate(65.157813 196.355) scale(0.2 -0.2)">
       <defs>
        <path id="frame0078_6e1026_DejaVuSans-2212" d="M 678 2272 
L 4684 2272 
L 4684 1741 
L 678 1741 
L 678 2272 
z
" transform="scale(0.015625)"/>
        <path id="frame0078_6e1026_DejaVuSans-31" d="M 794 531 
L 1825 531 
L 1825 4091 
L 703 3866 
L 703 4441 
L 1819 4666 
L 2450 4666 
L 2450 531 
L 3481 531 
L 3481 0 
L 794 0 
L 794 531 
z
" transform="scale(0.015625)"/>
       </defs>
       <use xlink:href="#frame0078_6e1026_DejaVuSans-2212"/>
       <use xlink:href="#frame0078_6e1026_DejaVuSans-31" x="83.789062"/>
      </g>
     </g>
    </g>
    <g id="frame0078_6e1026_xtick_2">
     <g id="frame0078_6e1026_line2d_3">
      <path d="M 370.7 330.938125 
L 370.7 17.378125 
" clip-path="url(#frame0078_6e1026_p022904eb54)" style="fill: none; stroke-dasharray: 2.96,1.28; stroke-dashoffset: 0; stroke: #b0b0b0; stroke-opacity: 0.6; stroke-width: 0.8"/>
     </g>
     <g id="frame0078_6e1026_line2d_4">
      <g>
       <use xlink:href="#frame0078_6e1026_m6b68329392" x="370.7" y="174.158125" style="stroke: #000000; stroke-width: 0.8"/>
      </g>
     </g>
     <g id="frame0078_6e1026_text_2">
      <!-- 1 -->
      <g transform="translate(364.3375 196.355) scale(0.2 -0.2)">
       <use xlink:href="#frame0078_6e1026_DejaVuSans-31"/>
      </g>
     </g>
    </g>
    <g id="frame0078_6e1026_text_3">
     <!-- $x$ -->
     <g transform="translate(431.4 219.71125) scale(0.2 -0.2)">
      <defs>
       <path id="frame0078_6e1026_DejaVuSans-Oblique-78" d="M 3841 3500 
L 2234 1784 
L 3219 0 
L 2559 0 
L 1819 1388 
L 531 0 
L -166 0 
L 1556 1844 
L 641 3500 
L 1300 3500 
L 1972 2234 
L 3144 3500 
L 3841 3500 
z
" transform="scale(0.015625)"/>
      </defs>
      <use xlink:href="#frame0078_6e1026_DejaVuSans-Oblique-78" transform="translate(0 0.3125)"/>
     </g>
    </g>
   </g>
   <g id="frame0078_6e1026_matplotlib.axis_2">
    <g id="frame0078_6e1026_ytick_1">
     <g id="frame0078_6e1026_line2d_5">
      <path d="M 7.2 278.678125 
L 443.4 278.678125 
" clip-path="url(#frame0078_6e1026_p022904eb54)" style="fill: none; stroke-dasharray: 2.96,1.28; stroke-dashoffset: 0; stroke: #b0b0b0; stroke-opacity: 0.6; stroke-width: 0.8"/>
     </g>
     <g id="frame0078_6e1026_line2d_6">
      <defs>
       <path id="frame0078_6e1026_m33ea815494" d="M 0 0 
L -3.5 0 
" style="stroke: #000000; stroke-width: 0.8"/>
      </defs>
      <g>
       <use xlink:href="#frame0078_6e1026_m33ea815494" x="225.3" y="278.678125" style="stroke: #000000; stroke-width: 0.8"/>
      </g>
     </g>
     <g id="frame0078_6e1026_text_4">
      <!-- −1 -->
      <g transform="translate(188.815625 286.276562) scale(0.2 -0.2)">
       <use xlink:href="#frame0078_6e1026_DejaVuSans-2212"/>
       <use xlink:href="#frame0078_6e1026_DejaVuSans-31" x="83.789062"/>
      </g>
     </g>
    </g>
    <g id="frame0078_6e1026_ytick_2">
     <g id="frame0078_6e1026_line2d_7">
      <path d="M 7.2 69.638125 
L 443.4 69.638125 
" clip-path="url(#frame0078_6e1026_p022904eb54)" style="fill: none; stroke-dasharray: 2.96,1.28; stroke-dashoffset: 0; stroke: #b0b0b0; stroke-opacity: 0.6; stroke-width: 0.8"/>
     </g>
     <g id="frame0078_6e1026_line2d_8">
      <g>
       <use xlink:href="#frame0078_6e1026_m33ea815494" x="225.3" y="69.638125" style="stroke: #000000; stroke-width: 0.8"/>
      </g>
     </g>
     <g id="frame0078_6e1026_text_5">
      <!-- 1 -->
      <g transform="translate(205.575 77.236562) scale(0.2 -0.2)">
       <use xlink:href="#frame0078_6e1026_DejaVuSans-31"/>
      </g>
     </g>
    </g>
    <g id="frame0078_6e1026_text_6">
     <!-- $y$ -->
     <g transform="translate(172.815625 13.178125) scale(0.2 -0.2)">
      <defs>
       <path id="frame0078_6e1026_DejaVuSans-Oblique-79" d="M 1588 -325 
Q 1188 -997 936 -1164 
Q 684 -1331 294 -1331 
L -159 -1331 
L -63 -850 
L 269 -850 
Q 509 -850 678 -719 
Q 847 -588 1056 -206 
L 1234 128 
L 459 3500 
L 1069 3500 
L 1650 819 
L 3256 3500 
L 3859 3500 
L 1588 -325 
z
" transform="scale(0.015625)"/>
      </defs>
      <use xlink:href="#frame0078_6e1026_DejaVuSans-Oblique-79" transform="translate(0 0.3125)"/>
     </g>
    </g>
   </g>
   <g id="frame0078_6e1026_line2d_9">
    <defs>
     <path id="frame0078_6e1026_m46299c0393" d="M 3 0 
L -3 -3 
L -3 3 
z
" style="stroke: #000000; stroke-linejoin: miter"/>
    </defs>
    <g>
     <use xlink:href="#frame0078_6e1026_m46299c0393" x="443.4" y="174.158125" style="stroke: #000000; stroke-linejoin: miter"/>
    </g>
   </g>
   <g id="frame0078_6e1026_line2d_10">
    <defs>
     <path id="frame0078_6e1026_mfd68dca665" d="M 0 -3 
L -3 3 
L 3 3 
z
" style="stroke: #000000; stroke-linejoin: miter"/>
    </defs>
    <g>
     <use xlink:href="#frame0078_6e1026_mfd68dca665" x="225.3" y="17.378125" style="stroke: #000000; stroke-linejoin: miter"/>
    </g>
   </g>
   <g id="frame0078_6e1026_line2d_11">
    <defs>
     <path id="frame0078_6e1026_m95f2dd0fda" d="M 0 5 
C 1.326016 5 2.597899 4.473168 3.535534 3.535534 
C 4.473168 2.597899 5 1.326016 5 0 
C 5 -1.326016 4.473168 -2.597899 3.535534 -3.535534 
C 2.597899 -4.473168 1.326016 -5 0 -5 
C -1.326016 -5 -2.597899 -4.473168 -3.535534 -3.535534 
C -4.473168 -2.597899 -5 -1.326016 -5 0 
C -5 1.326016 -4.473168 2.597899 -3.535534 3.535534 
C -2.597899 4.473168 -1.326016 5 0 5 
z
" style="stroke: #000000; stroke-opacity: 0.8"/>
    </defs>
    <g clip-path="url(#frame0078_6e1026_p022904eb54)">
     <use xlink:href="#frame0078_6e1026_m95f2dd0fda" x="115.735824" y="242.870233" style="fill-opacity: 0.8; stroke: #000000; stroke-opacity: 0.8"/>
    </g>
   </g>
   <g id="frame0078_6e1026_line2d_12">
    <path d="M 370.7 174.158125 
L 370.590661 170.105483 
L 370.262808 166.058937 
L 369.716935 162.024572 
L 368.953862 158.008455 
L 367.974737 154.016627 
L 366.781033 150.055091 
L 365.374545 146.129805 
L 363.757388 142.246674 
L 361.931994 138.411536 
L 359.901109 134.630161 
L 357.667787 130.908234 
L 355.235388 127.251355 
L 352.607568 123.665022 
L 349.788281 120.154629 
L 346.781767 116.725457 
L 343.592547 113.382662 
L 340.225418 110.131271 
L 336.685444 106.976176 
L 332.977949 103.92212 
L 329.108508 100.973698 
L 325.082942 98.135344 
L 320.907306 95.411325 
L 316.587878 92.805741 
L 312.131155 90.322508 
L 307.54384 87.965362 
L 302.832833 85.737848 
L 298.005217 83.643315 
L 293.068256 81.684915 
L 288.029372 79.865593 
L 282.896145 78.188084 
L 277.676294 76.654911 
L 272.377671 75.268381 
L 267.008244 74.030579 
L 261.576089 72.943367 
L 256.089376 72.008379 
L 250.556356 71.227022 
L 244.985351 70.60047 
L 239.38474 70.129667 
L 233.762946 69.81532 
L 228.128423 69.657902 
L 222.489647 69.657651 
L 216.855098 69.814565 
L 211.233249 70.128409 
L 205.632557 70.598712 
L 200.061444 71.224765 
L 194.528289 72.005628 
L 189.041414 72.940126 
L 183.609071 74.026853 
L 178.23943 75.264175 
L 172.940567 76.650232 
L 167.720452 78.182938 
L 162.586934 79.859988 
L 157.547736 81.67886 
L 152.610435 83.636819 
L 147.782458 85.73092 
L 143.071065 87.958013 
L 138.483343 90.314749 
L 134.026191 92.797584 
L 129.706312 95.402783 
L 125.530205 98.126428 
L 121.504148 100.964423 
L 117.634198 103.912499 
L 113.926175 106.966223 
L 110.385655 110.121002 
L 107.017963 113.372092 
L 103.828166 116.714602 
L 100.821058 120.143506 
L 98.001164 123.653646 
L 95.372725 127.239745 
L 92.939693 130.896407 
L 90.705727 134.618133 
L 88.674189 138.399327 
L 86.848132 142.234302 
L 85.230303 146.117289 
L 83.823136 150.042449 
L 82.628747 154.003878 
L 81.648932 157.995618 
L 80.885164 162.011667 
L 80.338593 166.045984 
L 80.010041 170.092501 
L 79.900001 174.145133 
L 80.008639 178.197784 
L 80.335792 182.244359 
L 80.880968 186.278774 
L 81.643346 190.294959 
L 82.621781 194.286874 
L 83.8148 198.248517 
L 85.22061 202.173928 
L 86.837095 206.057204 
L 88.661826 209.892505 
L 90.692057 213.674061 
L 92.924735 217.396187 
L 95.356502 221.053284 
L 97.983701 224.639852 
L 100.802381 228.150496 
L 103.808302 231.579937 
L 106.996944 234.923018 
L 110.363511 238.174709 
L 113.90294 241.330121 
L 115.735824 242.870233 
L 115.735824 242.870233 
" clip-path="url(#frame0078_6e1026_p022904eb54)" style="fill: none; stroke: #0072b2; stroke-width: 2.5; stroke-linecap: square"/>
   </g>
   <g id="frame0078_6e1026_patch_3">
    <path d="M 225.3 330.938125 
L 225.3 17.378125 
" style="fill: none; stroke: #000000; stroke-width: 0.8; stroke-linejoin: miter; stroke-linecap: square"/>
   </g>
   <g id="frame0078_6e1026_patch_4">
    <path d="M 443.4 330.938125 
L 443.4 17.378125 
" style="fill: none"/>
   </g>
   <g id="frame0078_6e1026_patch_5">
    <path d="M 7.2 174.158125 
L 443.4 174.158125 
" style="fill: none; stroke: #000000; stroke-width: 0.8; stroke-linejoin: miter; stroke-linecap: square"/>
   </g>
   <g id="frame0078_6e1026_patch_6">
    <path d="M 7.2 17.378125 
L 443.4 17.378125 
" style="fill: none"/>
   </g>
  </g>
 </g>
 <defs>
  <clipPath id="frame0078_6e1026_p022904eb54">
   <rect x="7.2" y="17.378125" width="436.2" height="313.56"/>
  </clipPath>
 </defs>
</svg>
