<?xml version="1.0" encoding="utf-8" standalone="no"?>
<!DOCTYPE svg PUBLIC "-//W3C//DTD SVG 1.1//EN"
  "http://www.w3.org/Graphics/SVG/1.1/DTD/svg11.dtd">
<svg xmlns:xlink="http://www.w3.org/1999/xlink" width="453.6pt" height="338.54pt" viewBox="0 0 453.6 338.54" xmlns="http://www.w3.org/2000/svg" version="1.1">
 <metadata>
  <rdf:RDF xmlns:dc="http://purl.org/dc/elements/1.1/" xmlns:cc="http://creativecommons.org/ns#" xmlns:rdf="http://www.w3.org/1999/02/22-rdf-syntax-ns#">
   <cc:Work>
    <dc:type rdf:resource="http://purl.org/dc/dcmitype/StillImage"/>
    <dc:date>2026-01-22T01:58:28.421058</dc:date>
    <dc:format>image/svg+xml</dc:format>
    <dc:creator>
     <cc:Agent>
      <dc:title>Matplotlib v3.9.1, https://matplotlib.org/</dc:title>
     </cc:Agent>
    </dc:creator>
   </cc:Work>
  </rdf:RDF>
 </metadata>
 <defs>
  <style type="text/css">*{stroke-linejoin: round; stroke-linecap: butt}</style>
 </defs>
 <g id="frame0098_27fe37_figure_1">
  <g id="frame0098_27fe37_patch_1">
   <path d="M 0 338.54 
L 453.6 338.54 
L 453.6 0 
L 0 0 
L 0 338.54 
z
" style="fill: none; opacity: 0"/>
  </g>
  <g id="frame0098_27fe37_axes_1">
   <g id="frame0098_27fe37_patch_2">
    <path d="M 7.2 331.34 
L 443.4 331.34 
L 443.4 16.556315 
L 7.2 16.556315 
L 7.2 331.34 
z
" style="fill: none; opacity: 0"/>
   </g>
   <g id="frame0098_27fe37_matplotlib.axis_1">
    <g id="frame0098_27fe37_xtick_1">
     <g id="frame0098_27fe37_line2d_1">
      <path d="M 79.9 331.34 
L 79.9 16.556315 
" clip-path="url(#frame0098_27fe37_p74d662424f)" style="fill: none; stroke-dasharray: 2.96,1.28; stroke-dashoffset: 0; stroke: #b0b0b0; stroke-opacity: 0.6; stroke-width: 0.8"/>
     </g>
     <g id="frame0098_27fe37_line2d_2">
      <defs>
       <path id="frame0098_27fe37_m71fa88414f" d="M 0 0 
L 0 3.5 
" style="stroke: #000000; stroke-width: 0.8"/>
      </defs>
      <g>
       <use xlink:href="#frame0098_27fe37_m71fa88414f" x="79.9" y="173.948158" style="stroke: #000000; stroke-width: 0.8"/>
      </g>
     </g>
     <g id="frame0098_27fe37_text_1">
      <!-- $\mathdefault{−1}$ -->
      <g transform="translate(67.582209 194.785154) scale(0.2 -0.2)">
       <defs>
        <path id="frame0098_27fe37_CMSY10-0" d="M 4218 1472 
C 4326 1472 4442 1472 4442 1600 
C 4442 1728 4326 1728 4218 1728 
L 755 1728 
C 646 1728 531 1728 531 1600 
C 531 1472 646 1472 755 1472 
L 4218 1472 
z
" transform="scale(0.015625)"/>
        <path id="frame0098_27fe37_CMR17-31" d="M 1702 4058 
C 1702 4192 1696 4192 1606 4192 
C 1357 3916 979 3827 621 3827 
C 602 3827 570 3827 563 3808 
C 557 3795 557 3782 557 3648 
C 755 3648 1088 3686 1344 3839 
L 1344 461 
C 1344 236 1331 160 781 160 
L 589 160 
L 589 0 
C 896 0 1216 0 1523 0 
C 1830 0 2150 0 2458 0 
L 2458 160 
L 2266 160 
C 1715 160 1702 230 1702 458 
L 1702 4058 
z
" transform="scale(0.015625)"/>
       </defs>
       <use xlink:href="#frame0098_27fe37_CMSY10-0" transform="scale(0.996264)"/>
       <use xlink:href="#frame0098_27fe37_CMR17-31" transform="translate(77.487468 0) scale(0.996264)"/>
      </g>
     </g>
    </g>
    <g id="frame0098_27fe37_xtick_2">
     <g id="frame0098_27fe37_line2d_3">
      <path d="M 370.7 331.34 
L 370.7 16.556315 
" clip-path="url(#frame0098_27fe37_p74d662424f)" style="fill: none; stroke-dasharray: 2.96,1.28; stroke-dashoffset: 0; stroke: #b0b0b0; stroke-opacity: 0.6; stroke-width: 0.8"/>
     </g>
     <g id="frame0098_27fe37_line2d_4">
      <g>
       <use xlink:href="#frame0098_27fe37_m71fa88414f" x="370.7" y="173.948158" style="stroke: #000000; stroke-width: 0.8"/>
      </g>
     </g>
     <g id="frame0098_27fe37_text_2">
      <!-- $\mathdefault{1}$ -->
      <g transform="translate(366.130952 194.785154) scale(0.2 -0.2)">
       <use xlink:href="#frame0098_27fe37_CMR17-31" transform="scale(0.996264)"/>
      </g>
     </g>
    </g>
    <g id="frame0098_27fe37_text_3">
     <!-- $x$ -->
     <g transform="translate(432.313188 216.497785) scale(0.2 -0.2)">
      <defs>
       <path id="frame0098_27fe37_CMMI12-78" d="M 3034 2606 
C 2829 2567 2752 2414 2752 2293 
C 2752 2139 2874 2088 2963 2088 
C 3155 2088 3290 2254 3290 2427 
C 3290 2695 2982 2816 2714 2816 
C 2323 2816 2106 2433 2048 2312 
C 1901 2816 1504 2816 1389 2816 
C 736 2816 390 1980 390 1839 
C 390 1814 416 1782 461 1782 
C 512 1782 525 1820 538 1846 
C 755 2555 1184 2689 1370 2689 
C 1658 2689 1715 2420 1715 2267 
C 1715 2127 1677 1980 1600 1673 
L 1382 798 
C 1286 415 1101 64 762 64 
C 730 64 570 64 435 147 
C 666 192 717 383 717 460 
C 717 588 621 664 499 664 
C 346 664 179 530 179 326 
C 179 57 480 -64 755 -64 
C 1062 -64 1280 179 1414 441 
C 1517 64 1837 -64 2074 -64 
C 2726 -64 3072 773 3072 913 
C 3072 945 3046 971 3008 971 
C 2950 971 2944 939 2925 888 
C 2752 326 2381 64 2093 64 
C 1869 64 1747 230 1747 492 
C 1747 632 1773 734 1875 1156 
L 2099 2024 
C 2195 2408 2413 2689 2707 2689 
C 2720 2689 2899 2689 3034 2606 
z
" transform="scale(0.015625)"/>
      </defs>
      <use xlink:href="#frame0098_27fe37_CMMI12-78" transform="scale(0.996264)"/>
     </g>
    </g>
   </g>
   <g id="frame0098_27fe37_matplotlib.axis_2">
    <g id="frame0098_27fe37_ytick_1">
     <g id="frame0098_27fe37_line2d_5">
      <path d="M 7.2 278.876053 
L 443.4 278.876053 
" clip-path="url(#frame0098_27fe37_p74d662424f)" style="fill: none; stroke-dasharray: 2.96,1.28; stroke-dashoffset: 0; stroke: #b0b0b0; stroke-opacity: 0.6; stroke-width: 0.8"/>
     </g>
     <g id="frame0098_27fe37_line2d_6">
      <defs>
       <path id="frame0098_27fe37_m43b52b0004" d="M 0 0 
L -3.5 0 
" style="stroke: #000000; stroke-width: 0.8"/>
      </defs>
      <g>
       <use xlink:href="#frame0098_27fe37_m43b52b0004" x="225.3" y="278.876053" style="stroke: #000000; stroke-width: 0.8"/>
      </g>
     </g>
     <g id="frame0098_27fe37_text_4">
      <!-- $\mathdefault{−1}$ -->
      <g transform="translate(193.664417 285.794551) scale(0.2 -0.2)">
       <use xlink:href="#frame0098_27fe37_CMSY10-0" transform="scale(0.996264)"/>
       <use xlink:href="#frame0098_27fe37_CMR17-31" transform="translate(77.487468 0) scale(0.996264)"/>
      </g>
     </g>
    </g>
    <g id="frame0098_27fe37_ytick_2">
     <g id="frame0098_27fe37_line2d_7">
      <path d="M 7.2 69.020263 
L 443.4 69.020263 
" clip-path="url(#frame0098_27fe37_p74d662424f)" style="fill: none; stroke-dasharray: 2.96,1.28; stroke-dashoffset: 0; stroke: #b0b0b0; stroke-opacity: 0.6; stroke-width: 0.8"/>
     </g>
     <g id="frame0098_27fe37_line2d_8">
      <g>
       <use xlink:href="#frame0098_27fe37_m43b52b0004" x="225.3" y="69.020263" style="stroke: #000000; stroke-width: 0.8"/>
      </g>
     </g>
     <g id="frame0098_27fe37_text_5">
      <!-- $\mathdefault{1}$ -->
      <g transform="translate(209.161905 75.938761) scale(0.2 -0.2)">
       <use xlink:href="#frame0098_27fe37_CMR17-31" transform="scale(0.996264)"/>
      </g>
     </g>
    </g>
    <g id="frame0098_27fe37_text_6">
     <!-- $y$ -->
     <g transform="translate(180.151583 12.680682) scale(0.2 -0.2)">
      <defs>
       <path id="frame0098_27fe37_CMMI12-79" d="M 1683 -700 
C 1510 -939 1261 -1152 947 -1152 
C 870 -1152 563 -1152 467 -889 
C 486 -895 518 -895 531 -895 
C 723 -895 851 -729 851 -582 
C 851 -435 730 -384 634 -384 
C 531 -384 307 -458 307 -759 
C 307 -1071 582 -1286 947 -1286 
C 1587 -1286 2234 -700 2413 6 
L 3040 2485 
C 3046 2517 3059 2556 3059 2594 
C 3059 2689 2982 2753 2886 2753 
C 2829 2753 2694 2727 2643 2535 
L 2170 658 
C 2138 543 2138 530 2086 460 
C 1958 281 1747 64 1440 64 
C 1082 64 1050 415 1050 588 
C 1050 952 1222 1443 1395 1903 
C 1466 2088 1504 2178 1504 2305 
C 1504 2574 1312 2816 998 2816 
C 410 2816 173 1890 173 1839 
C 173 1814 198 1782 243 1782 
C 301 1782 307 1807 333 1897 
C 486 2433 730 2689 979 2689 
C 1037 2689 1146 2689 1146 2478 
C 1146 2312 1075 2127 979 1884 
C 666 1047 666 837 666 683 
C 666 77 1101 -64 1421 -64 
C 1606 -64 1837 -6 2061 230 
L 2067 224 
C 1971 -147 1907 -392 1683 -700 
z
" transform="scale(0.015625)"/>
      </defs>
      <use xlink:href="#frame0098_27fe37_CMMI12-79" transform="scale(0.996264)"/>
     </g>
    </g>
   </g>
   <g id="frame0098_27fe37_line2d_9">
    <defs>
     <path id="frame0098_27fe37_m6d4e947c9f" d="M 3 0 
L -3 -3 
L -3 3 
z
" style="stroke: #000000; stroke-linejoin: miter"/>
    </defs>
    <g>
     <use xlink:href="#frame0098_27fe37_m6d4e947c9f" x="443.4" y="173.948158" style="stroke: #000000; stroke-linejoin: miter"/>
    </g>
   </g>
   <g id="frame0098_27fe37_line2d_10">
    <defs>
     <path id="frame0098_27fe37_mae0089cdb7" d="M 0 -3 
L -3 3 
L 3 3 
z
" style="stroke: #000000; stroke-linejoin: miter"/>
    </defs>
    <g>
     <use xlink:href="#frame0098_27fe37_mae0089cdb7" x="225.3" y="16.556315" style="stroke: #000000; stroke-linejoin: miter"/>
    </g>
   </g>
   <g id="frame0098_27fe37_line2d_11">
    <defs>
     <path id="frame0098_27fe37_m6a4f4bcac6" d="M 0 5 
C 1.326016 5 2.597899 4.473168 3.535534 3.535534 
C 4.473168 2.597899 5 1.326016 5 0 
C 5 -1.326016 4.473168 -2.597899 3.535534 -3.535534 
C 2.597899 -4.473168 1.326016 -5 0 -5 
C -1.326016 -5 -2.597899 -4.473168 -3.535534 -3.535534 
C -4.473168 -2.597899 -5 -1.326016 -5 0 
C -5 1.326016 -4.473168 2.597899 -3.535534 3.535534 
C -2.597899 4.473168 -1.326016 5 0 5 
z
" style="stroke: #000000; stroke-opacity: 0.8"/>
    </defs>
    <g clip-path="url(#frame0098_27fe37_p74d662424f)">
     <use xlink:href="#frame0098_27fe37_m6a4f4bcac6" x="245.021166" y="277.906417" style="fill-opacity: 0.8; stroke: #000000; stroke-opacity: 0.8"/>
    </g>
   </g>
   <g id="frame0098_27fe37_line2d_12">
    <path d="M 370.7 173.948158 
L 370.527414 168.837248 
L 370.010064 163.738471 
L 369.149179 158.663931 
L 367.946803 153.625676 
L 366.40579 148.635665 
L 364.529798 143.705745 
L 362.323281 138.847619 
L 359.791477 134.07282 
L 356.940396 129.392684 
L 353.776807 124.81832 
L 350.30822 120.360588 
L 346.54287 116.03007 
L 342.489694 111.837047 
L 338.158315 107.791474 
L 333.559016 103.902953 
L 328.702714 100.180716 
L 323.60094 96.6336 
L 318.265803 93.270025 
L 312.70997 90.097976 
L 306.94663 87.124984 
L 300.989464 84.358106 
L 294.852615 81.803911 
L 288.550652 79.468461 
L 282.098534 77.357303 
L 275.511579 75.475447 
L 268.805424 73.82736 
L 261.995989 72.416955 
L 255.099439 71.247581 
L 248.132147 70.322014 
L 241.110653 69.64245 
L 234.051625 69.210503 
L 226.97182 69.027199 
L 219.888047 69.092972 
L 212.817122 69.407667 
L 205.775831 69.970536 
L 198.780889 70.780243 
L 191.848902 71.834865 
L 184.996326 73.131901 
L 178.23943 74.668269 
L 171.594253 76.440323 
L 165.076571 78.443857 
L 158.701857 80.674113 
L 152.485244 83.125798 
L 146.44149 85.793091 
L 140.584942 88.669659 
L 134.929504 91.748676 
L 129.488601 95.022829 
L 124.27515 98.484348 
L 119.301528 102.125015 
L 114.579541 105.936187 
L 110.1204 109.908815 
L 105.934689 114.033471 
L 102.032346 118.300361 
L 98.422635 122.699356 
L 95.114126 127.220014 
L 92.114671 131.851602 
L 89.431392 136.583125 
L 87.07066 141.403352 
L 85.038077 146.300838 
L 83.33847 151.263958 
L 81.975873 156.280929 
L 80.95352 161.339841 
L 80.27384 166.428684 
L 79.938445 171.535379 
L 79.948132 176.647801 
L 80.302878 181.753815 
L 81.00184 186.841298 
L 82.04336 191.898174 
L 83.424964 196.912437 
L 85.143373 201.872184 
L 87.194507 206.76564 
L 89.573497 211.58119 
L 92.274696 216.3074 
L 95.291691 220.933051 
L 98.61732 225.447163 
L 102.243688 229.839018 
L 106.162186 234.09819 
L 110.363511 238.21457 
L 114.837691 242.178383 
L 119.574102 245.980222 
L 124.561503 249.611059 
L 129.788052 253.062276 
L 135.241342 256.32568 
L 140.908427 259.393524 
L 146.775853 262.258524 
L 152.829693 264.913879 
L 159.055574 267.353286 
L 165.438716 269.570953 
L 171.963966 271.561617 
L 178.615833 273.32055 
L 185.378526 274.843578 
L 192.235991 276.127084 
L 199.171949 277.168023 
L 206.169933 277.963922 
L 213.213331 278.512893 
L 220.285423 278.813632 
L 227.369418 278.865425 
L 234.448501 278.668149 
L 241.505866 278.222272 
L 245.021166 277.906417 
L 245.021166 277.906417 
" clip-path="url(#frame0098_27fe37_p74d662424f)" style="fill: none; stroke: #0072b2; stroke-width: 2.5; stroke-linecap: square"/>
   </g>
   <g id="frame0098_27fe37_patch_3">
    <path d="M 225.3 331.34 
L 225.3 16.556315 
" style="fill: none; stroke: #000000; stroke-width: 0.8; stroke-linejoin: miter; stroke-linecap: square"/>
   </g>
   <g id="frame0098_27fe37_patch_4">
    <path d="M 443.4 331.34 
L 443.4 16.556315 
" style="fill: none"/>
   </g>
   <g id="frame0098_27fe37_patch_5">
    <path d="M 7.2 173.948158 
L 443.4 173.948158 
" style="fill: none; stroke: #000000; stroke-width: 0.8; stroke-linejoin: miter; stroke-linecap: square"/>
   </g>
   <g id="frame0098_27fe37_patch_6">
    <path d="M 7.2 16.556315 
L 443.4 16.556315 
" style="fill: none"/>
   </g>
  </g>
 </g>
 <defs>
  <clipPath id="frame0098_27fe37_p74d662424f">
   <rect x="7.2" y="16.556315" width="436.2" height="314.783685"/>
  </clipPath>
 </defs>
</svg>
