<?xml version="1.0" encoding="utf-8" standalone="no"?>
<!DOCTYPE svg PUBLIC "-//W3C//DTD SVG 1.1//EN"
  "http://www.w3.org/Graphics/SVG/1.1/DTD/svg11.dtd">
<svg xmlns:xlink="http://www.w3.org/1999/xlink" width="453.6pt" height="338.54pt" viewBox="0 0 453.6 338.54" xmlns="http://www.w3.org/2000/svg" version="1.1">
 <metadata>
  <rdf:RDF xmlns:dc="http://purl.org/dc/elements/1.1/" xmlns:cc="http://creativecommons.org/ns#" xmlns:rdf="http://www.w3.org/1999/02/22-rdf-syntax-ns#">
   <cc:Work>
    <dc:type rdf:resource="http://purl.org/dc/dcmitype/StillImage"/>
    <dc:date>2026-01-22T01:58:28.852709</dc:date>
    <dc:format>image/svg+xml</dc:format>
    <dc:creator>
     <cc:Agent>
      <dc:title>Matplotlib v3.9.1, https://matplotlib.org/</dc:title>
     </cc:Agent>
    </dc:creator>
   </cc:Work>
  </rdf:RDF>
 </metadata>
 <defs>
  <style type="text/css">*{stroke-linejoin: round; stroke-linecap: butt}</style>
 </defs>
 <g id="frame0115_957a20_figure_1">
  <g id="frame0115_957a20_patch_1">
   <path d="M 0 338.54 
L 453.6 338.54 
L 453.6 0 
L 0 0 
L 0 338.54 
z
" style="fill: none; opacity: 0"/>
  </g>
  <g id="frame0115_957a20_axes_1">
   <g id="frame0115_957a20_patch_2">
    <path d="M 7.2 331.34 
L 443.4 331.34 
L 443.4 16.556315 
L 7.2 16.556315 
L 7.2 331.34 
z
" style="fill: none; opacity: 0"/>
   </g>
   <g id="frame0115_957a20_matplotlib.axis_1">
    <g id="frame0115_957a20_xtick_1">
     <g id="frame0115_957a20_line2d_1">
      <path d="M 79.9 331.34 
L 79.9 16.556315 
" clip-path="url(#frame0115_957a20_p95cd897701)" style="fill: none; stroke-dasharray: 2.96,1.28; stroke-dashoffset: 0; stroke: #b0b0b0; stroke-opacity: 0.6; stroke-width: 0.8"/>
     </g>
     <g id="frame0115_957a20_line2d_2">
      <defs>
       <path id="frame0115_957a20_m6c5c640af3" d="M 0 0 
L 0 3.5 
" style="stroke: #000000; stroke-width: 0.8"/>
      </defs>
      <g>
       <use xlink:href="#frame0115_957a20_m6c5c640af3" x="79.9" y="173.948158" style="stroke: #000000; stroke-width: 0.8"/>
      </g>
     </g>
     <g id="frame0115_957a20_text_1">
      <!-- $\mathdefault{−1}$ -->
      <g transform="translate(67.582209 194.785154) scale(0.2 -0.2)">
       <defs>
        <path id="frame0115_957a20_CMSY10-0" d="M 4218 1472 
C 4326 1472 4442 1472 4442 1600 
C 4442 1728 4326 1728 4218 1728 
L 755 1728 
C 646 1728 531 1728 531 1600 
C 531 1472 646 1472 755 1472 
L 4218 1472 
z
" transform="scale(0.015625)"/>
        <path id="frame0115_957a20_CMR17-31" d="M 1702 4058 
C 1702 4192 1696 4192 1606 4192 
C 1357 3916 979 3827 621 3827 
C 602 3827 570 3827 563 3808 
C 557 3795 557 3782 557 3648 
C 755 3648 1088 3686 1344 3839 
L 1344 461 
C 1344 236 1331 160 781 160 
L 589 160 
L 589 0 
C 896 0 1216 0 1523 0 
C 1830 0 2150 0 2458 0 
L 2458 160 
L 2266 160 
C 1715 160 1702 230 1702 458 
L 1702 4058 
z
" transform="scale(0.015625)"/>
       </defs>
       <use xlink:href="#frame0115_957a20_CMSY10-0" transform="scale(0.996264)"/>
       <use xlink:href="#frame0115_957a20_CMR17-31" transform="translate(77.487468 0) scale(0.996264)"/>
      </g>
     </g>
    </g>
    <g id="frame0115_957a20_xtick_2">
     <g id="frame0115_957a20_line2d_3">
      <path d="M 370.7 331.34 
L 370.7 16.556315 
" clip-path="url(#frame0115_957a20_p95cd897701)" style="fill: none; stroke-dasharray: 2.96,1.28; stroke-dashoffset: 0; stroke: #b0b0b0; stroke-opacity: 0.6; stroke-width: 0.8"/>
     </g>
     <g id="frame0115_957a20_line2d_4">
      <g>
       <use xlink:href="#frame0115_957a20_m6c5c640af3" x="370.7" y="173.948158" style="stroke: #000000; stroke-width: 0.8"/>
      </g>
     </g>
     <g id="frame0115_957a20_text_2">
      <!-- $\mathdefault{1}$ -->
      <g transform="translate(366.130952 194.785154) scale(0.2 -0.2)">
       <use xlink:href="#frame0115_957a20_CMR17-31" transform="scale(0.996264)"/>
      </g>
     </g>
    </g>
    <g id="frame0115_957a20_text_3">
     <!-- $x$ -->
     <g transform="translate(432.313188 216.497785) scale(0.2 -0.2)">
      <defs>
       <path id="frame0115_957a20_CMMI12-78" d="M 3034 2606 
C 2829 2567 2752 2414 2752 2293 
C 2752 2139 2874 2088 2963 2088 
C 3155 2088 3290 2254 3290 2427 
C 3290 2695 2982 2816 2714 2816 
C 2323 2816 2106 2433 2048 2312 
C 1901 2816 1504 2816 1389 2816 
C 736 2816 390 1980 390 1839 
C 390 1814 416 1782 461 1782 
C 512 1782 525 1820 538 1846 
C 755 2555 1184 2689 1370 2689 
C 1658 2689 1715 2420 1715 2267 
C 1715 2127 1677 1980 1600 1673 
L 1382 798 
C 1286 415 1101 64 762 64 
C 730 64 570 64 435 147 
C 666 192 717 383 717 460 
C 717 588 621 664 499 664 
C 346 664 179 530 179 326 
C 179 57 480 -64 755 -64 
C 1062 -64 1280 179 1414 441 
C 1517 64 1837 -64 2074 -64 
C 2726 -64 3072 773 3072 913 
C 3072 945 3046 971 3008 971 
C 2950 971 2944 939 2925 888 
C 2752 326 2381 64 2093 64 
C 1869 64 1747 230 1747 492 
C 1747 632 1773 734 1875 1156 
L 2099 2024 
C 2195 2408 2413 2689 2707 2689 
C 2720 2689 2899 2689 3034 2606 
z
" transform="scale(0.015625)"/>
      </defs>
      <use xlink:href="#frame0115_957a20_CMMI12-78" transform="scale(0.996264)"/>
     </g>
    </g>
   </g>
   <g id="frame0115_957a20_matplotlib.axis_2">
    <g id="frame0115_957a20_ytick_1">
     <g id="frame0115_957a20_line2d_5">
      <path d="M 7.2 278.876053 
L 443.4 278.876053 
" clip-path="url(#frame0115_957a20_p95cd897701)" style="fill: none; stroke-dasharray: 2.96,1.28; stroke-dashoffset: 0; stroke: #b0b0b0; stroke-opacity: 0.6; stroke-width: 0.8"/>
     </g>
     <g id="frame0115_957a20_line2d_6">
      <defs>
       <path id="frame0115_957a20_mf18f17789f" d="M 0 0 
L -3.5 0 
" style="stroke: #000000; stroke-width: 0.8"/>
      </defs>
      <g>
       <use xlink:href="#frame0115_957a20_mf18f17789f" x="225.3" y="278.876053" style="stroke: #000000; stroke-width: 0.8"/>
      </g>
     </g>
     <g id="frame0115_957a20_text_4">
      <!-- $\mathdefault{−1}$ -->
      <g transform="translate(193.664417 285.794551) scale(0.2 -0.2)">
       <use xlink:href="#frame0115_957a20_CMSY10-0" transform="scale(0.996264)"/>
       <use xlink:href="#frame0115_957a20_CMR17-31" transform="translate(77.487468 0) scale(0.996264)"/>
      </g>
     </g>
    </g>
    <g id="frame0115_957a20_ytick_2">
     <g id="frame0115_957a20_line2d_7">
      <path d="M 7.2 69.020263 
L 443.4 69.020263 
" clip-path="url(#frame0115_957a20_p95cd897701)" style="fill: none; stroke-dasharray: 2.96,1.28; stroke-dashoffset: 0; stroke: #b0b0b0; stroke-opacity: 0.6; stroke-width: 0.8"/>
     </g>
     <g id="frame0115_957a20_line2d_8">
      <g>
       <use xlink:href="#frame0115_957a20_mf18f17789f" x="225.3" y="69.020263" style="stroke: #000000; stroke-width: 0.8"/>
      </g>
     </g>
     <g id="frame0115_957a20_text_5">
      <!-- $\mathdefault{1}$ -->
      <g transform="translate(209.161905 75.938761) scale(0.2 -0.2)">
       <use xlink:href="#frame0115_957a20_CMR17-31" transform="scale(0.996264)"/>
      </g>
     </g>
    </g>
    <g id="frame0115_957a20_text_6">
     <!-- $y$ -->
     <g transform="translate(180.151583 12.680682) scale(0.2 -0.2)">
      <defs>
       <path id="frame0115_957a20_CMMI12-79" d="M 1683 -700 
C 1510 -939 1261 -1152 947 -1152 
C 870 -1152 563 -1152 467 -889 
C 486 -895 518 -895 531 -895 
C 723 -895 851 -729 851 -582 
C 851 -435 730 -384 634 -384 
C 531 -384 307 -458 307 -759 
C 307 -1071 582 -1286 947 -1286 
C 1587 -1286 2234 -700 2413 6 
L 3040 2485 
C 3046 2517 3059 2556 3059 2594 
C 3059 2689 2982 2753 2886 2753 
C 2829 2753 2694 2727 2643 2535 
L 2170 658 
C 2138 543 2138 530 2086 460 
C 1958 281 1747 64 1440 64 
C 1082 64 1050 415 1050 588 
C 1050 952 1222 1443 1395 1903 
C 1466 2088 1504 2178 1504 2305 
C 1504 2574 1312 2816 998 2816 
C 410 2816 173 1890 173 1839 
C 173 1814 198 1782 243 1782 
C 301 1782 307 1807 333 1897 
C 486 2433 730 2689 979 2689 
C 1037 2689 1146 2689 1146 2478 
C 1146 2312 1075 2127 979 1884 
C 666 1047 666 837 666 683 
C 666 77 1101 -64 1421 -64 
C 1606 -64 1837 -6 2061 230 
L 2067 224 
C 1971 -147 1907 -392 1683 -700 
z
" transform="scale(0.015625)"/>
      </defs>
      <use xlink:href="#frame0115_957a20_CMMI12-79" transform="scale(0.996264)"/>
     </g>
    </g>
   </g>
   <g id="frame0115_957a20_line2d_9">
    <defs>
     <path id="frame0115_957a20_m06796463d5" d="M 3 0 
L -3 -3 
L -3 3 
z
" style="stroke: #000000; stroke-linejoin: miter"/>
    </defs>
    <g>
     <use xlink:href="#frame0115_957a20_m06796463d5" x="443.4" y="173.948158" style="stroke: #000000; stroke-linejoin: miter"/>
    </g>
   </g>
   <g id="frame0115_957a20_line2d_10">
    <defs>
     <path id="frame0115_957a20_md312d13ccb" d="M 0 -3 
L -3 3 
L 3 3 
z
" style="stroke: #000000; stroke-linejoin: miter"/>
    </defs>
    <g>
     <use xlink:href="#frame0115_957a20_md312d13ccb" x="225.3" y="16.556315" style="stroke: #000000; stroke-linejoin: miter"/>
    </g>
   </g>
   <g id="frame0115_957a20_line2d_11">
    <defs>
     <path id="frame0115_957a20_m5e64c09a13" d="M 0 5 
C 1.326016 5 2.597899 4.473168 3.535534 3.535534 
C 4.473168 2.597899 5 1.326016 5 0 
C 5 -1.326016 4.473168 -2.597899 3.535534 -3.535534 
C 2.597899 -4.473168 1.326016 -5 0 -5 
C -1.326016 -5 -2.597899 -4.473168 -3.535534 -3.535534 
C -4.473168 -2.597899 -5 -1.326016 -5 0 
C -5 1.326016 -4.473168 2.597899 -3.535534 3.535534 
C -2.597899 4.473168 -1.326016 5 0 5 
z
" style="stroke: #000000; stroke-opacity: 0.8"/>
    </defs>
    <g clip-path="url(#frame0115_957a20_p95cd897701)">
     <use xlink:href="#frame0115_957a20_m5e64c09a13" x="345.819711" y="232.646999" style="fill-opacity: 0.8; stroke: #000000; stroke-opacity: 0.8"/>
    </g>
   </g>
   <g id="frame0115_957a20_line2d_12">
    <path d="M 370.7 173.948158 
L 370.640578 170.948631 
L 370.462361 167.951556 
L 370.165494 164.959383 
L 369.75022 161.974556 
L 369.216879 158.999517 
L 368.565906 156.036695 
L 367.797834 153.088514 
L 366.91329 150.157383 
L 365.912997 147.245697 
L 364.797773 144.355837 
L 363.56853 141.490164 
L 362.226271 138.651021 
L 360.772095 135.840728 
L 359.20719 133.061583 
L 355.750397 127.605793 
L 351.867193 122.301486 
L 347.570271 117.166 
L 342.873676 112.216121 
L 337.792761 107.468029 
L 332.344134 102.937245 
L 326.545604 98.638579 
L 320.416127 94.586083 
L 313.975738 90.793002 
L 307.245488 87.271735 
L 300.247378 84.033794 
L 293.004283 81.089761 
L 285.539879 78.44926 
L 277.878565 76.120923 
L 270.045384 74.112359 
L 262.065941 72.430135 
L 253.966318 71.07975 
L 245.772992 70.065617 
L 237.512745 69.391052 
L 229.212578 69.058259 
L 220.899621 69.068326 
L 212.601047 69.42122 
L 204.343984 70.115789 
L 196.155421 71.149761 
L 188.062125 72.519756 
L 180.09055 74.221297 
L 172.266755 76.248821 
L 164.616312 78.595702 
L 157.16423 81.254267 
L 149.934868 84.215826 
L 142.951857 87.470699 
L 136.238022 91.008247 
L 129.81531 94.816905 
L 123.704715 98.884225 
L 117.92621 103.196911 
L 112.498685 107.740866 
L 107.439881 112.501237 
L 102.766334 117.462464 
L 98.49332 122.608329 
L 94.634808 127.922011 
L 91.203408 133.386142 
L 89.651437 136.169062 
L 88.210339 138.982861 
L 86.881293 141.825239 
L 85.665384 144.693873 
L 84.563607 147.586419 
L 83.576861 150.500511 
L 82.705954 153.433768 
L 81.951598 156.383793 
L 81.314408 159.348174 
L 80.794906 162.324489 
L 80.393517 165.310304 
L 80.110568 168.30318 
L 79.94629 171.30067 
L 79.900819 174.300323 
L 79.974191 177.299689 
L 80.166346 180.296315 
L 80.477127 183.287753 
L 80.90628 186.271557 
L 81.453455 189.245288 
L 82.118204 192.206516 
L 82.899983 195.15282 
L 83.798154 198.081792 
L 84.811983 200.991039 
L 85.940641 203.878182 
L 87.183205 206.740862 
L 88.538661 209.576738 
L 90.005899 212.383492 
L 91.583721 215.158832 
L 95.065867 220.606218 
L 98.973719 225.90109 
L 103.294501 231.02614 
L 108.01409 235.964616 
L 113.117059 240.700375 
L 118.586728 245.217936 
L 124.405217 249.502533 
L 130.553507 253.540161 
L 137.011501 257.317622 
L 143.75809 260.822568 
L 150.771219 264.043541 
L 158.027966 266.970014 
L 165.504608 269.592421 
L 173.176708 271.902189 
L 181.019187 273.891769 
L 189.006409 275.554657 
L 197.112266 276.885417 
L 205.310262 277.8797 
L 213.5736 278.534255 
L 221.875268 278.846942 
L 230.188132 278.816741 
L 238.485017 278.443749 
L 246.738804 277.729185 
L 254.922512 276.675386 
L 263.009391 275.285796 
L 270.973007 273.564957 
L 278.787329 271.518495 
L 286.426813 269.153098 
L 293.866489 266.476498 
L 301.082036 263.497446 
L 308.04987 260.225678 
L 314.747215 256.671889 
L 321.152177 252.847696 
L 327.243822 248.765599 
L 333.002236 244.438941 
L 338.408598 239.881866 
L 343.445234 235.109269 
L 345.819711 232.646999 
L 345.819711 232.646999 
" clip-path="url(#frame0115_957a20_p95cd897701)" style="fill: none; stroke: #0072b2; stroke-width: 2.5; stroke-linecap: square"/>
   </g>
   <g id="frame0115_957a20_patch_3">
    <path d="M 225.3 331.34 
L 225.3 16.556315 
" style="fill: none; stroke: #000000; stroke-width: 0.8; stroke-linejoin: miter; stroke-linecap: square"/>
   </g>
   <g id="frame0115_957a20_patch_4">
    <path d="M 443.4 331.34 
L 443.4 16.556315 
" style="fill: none"/>
   </g>
   <g id="frame0115_957a20_patch_5">
    <path d="M 7.2 173.948158 
L 443.4 173.948158 
" style="fill: none; stroke: #000000; stroke-width: 0.8; stroke-linejoin: miter; stroke-linecap: square"/>
   </g>
   <g id="frame0115_957a20_patch_6">
    <path d="M 7.2 16.556315 
L 443.4 16.556315 
" style="fill: none"/>
   </g>
  </g>
 </g>
 <defs>
  <clipPath id="frame0115_957a20_p95cd897701">
   <rect x="7.2" y="16.556315" width="436.2" height="314.783685"/>
  </clipPath>
 </defs>
</svg>
