<?xml version="1.0" encoding="utf-8" standalone="no"?>
<!DOCTYPE svg PUBLIC "-//W3C//DTD SVG 1.1//EN"
  "http://www.w3.org/Graphics/SVG/1.1/DTD/svg11.dtd">
<svg xmlns:xlink="http://www.w3.org/1999/xlink" width="453.6pt" height="338.54pt" viewBox="0 0 453.6 338.54" xmlns="http://www.w3.org/2000/svg" version="1.1">
 <metadata>
  <rdf:RDF xmlns:dc="http://purl.org/dc/elements/1.1/" xmlns:cc="http://creativecommons.org/ns#" xmlns:rdf="http://www.w3.org/1999/02/22-rdf-syntax-ns#">
   <cc:Work>
    <dc:type rdf:resource="http://purl.org/dc/dcmitype/StillImage"/>
    <dc:date>2026-01-22T01:58:27.882721</dc:date>
    <dc:format>image/svg+xml</dc:format>
    <dc:creator>
     <cc:Agent>
      <dc:title>Matplotlib v3.9.1, https://matplotlib.org/</dc:title>
     </cc:Agent>
    </dc:creator>
   </cc:Work>
  </rdf:RDF>
 </metadata>
 <defs>
  <style type="text/css">*{stroke-linejoin: round; stroke-linecap: butt}</style>
 </defs>
 <g id="frame0082_fbd264_figure_1">
  <g id="frame0082_fbd264_patch_1">
   <path d="M 0 338.54 
L 453.6 338.54 
L 453.6 0 
L 0 0 
L 0 338.54 
z
" style="fill: none; opacity: 0"/>
  </g>
  <g id="frame0082_fbd264_axes_1">
   <g id="frame0082_fbd264_patch_2">
    <path d="M 7.2 331.34 
L 443.4 331.34 
L 443.4 16.556315 
L 7.2 16.556315 
L 7.2 331.34 
z
" style="fill: none; opacity: 0"/>
   </g>
   <g id="frame0082_fbd264_matplotlib.axis_1">
    <g id="frame0082_fbd264_xtick_1">
     <g id="frame0082_fbd264_line2d_1">
      <path d="M 79.9 331.34 
L 79.9 16.556315 
" clip-path="url(#frame0082_fbd264_p632c7ce9fd)" style="fill: none; stroke-dasharray: 2.96,1.28; stroke-dashoffset: 0; stroke: #b0b0b0; stroke-opacity: 0.6; stroke-width: 0.8"/>
     </g>
     <g id="frame0082_fbd264_line2d_2">
      <defs>
       <path id="frame0082_fbd264_m6b25ffb6a1" d="M 0 0 
L 0 3.5 
" style="stroke: #000000; stroke-width: 0.8"/>
      </defs>
      <g>
       <use xlink:href="#frame0082_fbd264_m6b25ffb6a1" x="79.9" y="173.948158" style="stroke: #000000; stroke-width: 0.8"/>
      </g>
     </g>
     <g id="frame0082_fbd264_text_1">
      <!-- $\mathdefault{−1}$ -->
      <g transform="translate(67.582209 194.785154) scale(0.2 -0.2)">
       <defs>
        <path id="frame0082_fbd264_CMSY10-0" d="M 4218 1472 
C 4326 1472 4442 1472 4442 1600 
C 4442 1728 4326 1728 4218 1728 
L 755 1728 
C 646 1728 531 1728 531 1600 
C 531 1472 646 1472 755 1472 
L 4218 1472 
z
" transform="scale(0.015625)"/>
        <path id="frame0082_fbd264_CMR17-31" d="M 1702 4058 
C 1702 4192 1696 4192 1606 4192 
C 1357 3916 979 3827 621 3827 
C 602 3827 570 3827 563 3808 
C 557 3795 557 3782 557 3648 
C 755 3648 1088 3686 1344 3839 
L 1344 461 
C 1344 236 1331 160 781 160 
L 589 160 
L 589 0 
C 896 0 1216 0 1523 0 
C 1830 0 2150 0 2458 0 
L 2458 160 
L 2266 160 
C 1715 160 1702 230 1702 458 
L 1702 4058 
z
" transform="scale(0.015625)"/>
       </defs>
       <use xlink:href="#frame0082_fbd264_CMSY10-0" transform="scale(0.996264)"/>
       <use xlink:href="#frame0082_fbd264_CMR17-31" transform="translate(77.487468 0) scale(0.996264)"/>
      </g>
     </g>
    </g>
    <g id="frame0082_fbd264_xtick_2">
     <g id="frame0082_fbd264_line2d_3">
      <path d="M 370.7 331.34 
L 370.7 16.556315 
" clip-path="url(#frame0082_fbd264_p632c7ce9fd)" style="fill: none; stroke-dasharray: 2.96,1.28; stroke-dashoffset: 0; stroke: #b0b0b0; stroke-opacity: 0.6; stroke-width: 0.8"/>
     </g>
     <g id="frame0082_fbd264_line2d_4">
      <g>
       <use xlink:href="#frame0082_fbd264_m6b25ffb6a1" x="370.7" y="173.948158" style="stroke: #000000; stroke-width: 0.8"/>
      </g>
     </g>
     <g id="frame0082_fbd264_text_2">
      <!-- $\mathdefault{1}$ -->
      <g transform="translate(366.130952 194.785154) scale(0.2 -0.2)">
       <use xlink:href="#frame0082_fbd264_CMR17-31" transform="scale(0.996264)"/>
      </g>
     </g>
    </g>
    <g id="frame0082_fbd264_text_3">
     <!-- $x$ -->
     <g transform="translate(432.313188 216.497785) scale(0.2 -0.2)">
      <defs>
       <path id="frame0082_fbd264_CMMI12-78" d="M 3034 2606 
C 2829 2567 2752 2414 2752 2293 
C 2752 2139 2874 2088 2963 2088 
C 3155 2088 3290 2254 3290 2427 
C 3290 2695 2982 2816 2714 2816 
C 2323 2816 2106 2433 2048 2312 
C 1901 2816 1504 2816 1389 2816 
C 736 2816 390 1980 390 1839 
C 390 1814 416 1782 461 1782 
C 512 1782 525 1820 538 1846 
C 755 2555 1184 2689 1370 2689 
C 1658 2689 1715 2420 1715 2267 
C 1715 2127 1677 1980 1600 1673 
L 1382 798 
C 1286 415 1101 64 762 64 
C 730 64 570 64 435 147 
C 666 192 717 383 717 460 
C 717 588 621 664 499 664 
C 346 664 179 530 179 326 
C 179 57 480 -64 755 -64 
C 1062 -64 1280 179 1414 441 
C 1517 64 1837 -64 2074 -64 
C 2726 -64 3072 773 3072 913 
C 3072 945 3046 971 3008 971 
C 2950 971 2944 939 2925 888 
C 2752 326 2381 64 2093 64 
C 1869 64 1747 230 1747 492 
C 1747 632 1773 734 1875 1156 
L 2099 2024 
C 2195 2408 2413 2689 2707 2689 
C 2720 2689 2899 2689 3034 2606 
z
" transform="scale(0.015625)"/>
      </defs>
      <use xlink:href="#frame0082_fbd264_CMMI12-78" transform="scale(0.996264)"/>
     </g>
    </g>
   </g>
   <g id="frame0082_fbd264_matplotlib.axis_2">
    <g id="frame0082_fbd264_ytick_1">
     <g id="frame0082_fbd264_line2d_5">
      <path d="M 7.2 278.876053 
L 443.4 278.876053 
" clip-path="url(#frame0082_fbd264_p632c7ce9fd)" style="fill: none; stroke-dasharray: 2.96,1.28; stroke-dashoffset: 0; stroke: #b0b0b0; stroke-opacity: 0.6; stroke-width: 0.8"/>
     </g>
     <g id="frame0082_fbd264_line2d_6">
      <defs>
       <path id="frame0082_fbd264_m394e85514f" d="M 0 0 
L -3.5 0 
" style="stroke: #000000; stroke-width: 0.8"/>
      </defs>
      <g>
       <use xlink:href="#frame0082_fbd264_m394e85514f" x="225.3" y="278.876053" style="stroke: #000000; stroke-width: 0.8"/>
      </g>
     </g>
     <g id="frame0082_fbd264_text_4">
      <!-- $\mathdefault{−1}$ -->
      <g transform="translate(193.664417 285.794551) scale(0.2 -0.2)">
       <use xlink:href="#frame0082_fbd264_CMSY10-0" transform="scale(0.996264)"/>
       <use xlink:href="#frame0082_fbd264_CMR17-31" transform="translate(77.487468 0) scale(0.996264)"/>
      </g>
     </g>
    </g>
    <g id="frame0082_fbd264_ytick_2">
     <g id="frame0082_fbd264_line2d_7">
      <path d="M 7.2 69.020263 
L 443.4 69.020263 
" clip-path="url(#frame0082_fbd264_p632c7ce9fd)" style="fill: none; stroke-dasharray: 2.96,1.28; stroke-dashoffset: 0; stroke: #b0b0b0; stroke-opacity: 0.6; stroke-width: 0.8"/>
     </g>
     <g id="frame0082_fbd264_line2d_8">
      <g>
       <use xlink:href="#frame0082_fbd264_m394e85514f" x="225.3" y="69.020263" style="stroke: #000000; stroke-width: 0.8"/>
      </g>
     </g>
     <g id="frame0082_fbd264_text_5">
      <!-- $\mathdefault{1}$ -->
      <g transform="translate(209.161905 75.938761) scale(0.2 -0.2)">
       <use xlink:href="#frame0082_fbd264_CMR17-31" transform="scale(0.996264)"/>
      </g>
     </g>
    </g>
    <g id="frame0082_fbd264_text_6">
     <!-- $y$ -->
     <g transform="translate(180.151583 12.680682) scale(0.2 -0.2)">
      <defs>
       <path id="frame0082_fbd264_CMMI12-79" d="M 1683 -700 
C 1510 -939 1261 -1152 947 -1152 
C 870 -1152 563 -1152 467 -889 
C 486 -895 518 -895 531 -895 
C 723 -895 851 -729 851 -582 
C 851 -435 730 -384 634 -384 
C 531 -384 307 -458 307 -759 
C 307 -1071 582 -1286 947 -1286 
C 1587 -1286 2234 -700 2413 6 
L 3040 2485 
C 3046 2517 3059 2556 3059 2594 
C 3059 2689 2982 2753 2886 2753 
C 2829 2753 2694 2727 2643 2535 
L 2170 658 
C 2138 543 2138 530 2086 460 
C 1958 281 1747 64 1440 64 
C 1082 64 1050 415 1050 588 
C 1050 952 1222 1443 1395 1903 
C 1466 2088 1504 2178 1504 2305 
C 1504 2574 1312 2816 998 2816 
C 410 2816 173 1890 173 1839 
C 173 1814 198 1782 243 1782 
C 301 1782 307 1807 333 1897 
C 486 2433 730 2689 979 2689 
C 1037 2689 1146 2689 1146 2478 
C 1146 2312 1075 2127 979 1884 
C 666 1047 666 837 666 683 
C 666 77 1101 -64 1421 -64 
C 1606 -64 1837 -6 2061 230 
L 2067 224 
C 1971 -147 1907 -392 1683 -700 
z
" transform="scale(0.015625)"/>
      </defs>
      <use xlink:href="#frame0082_fbd264_CMMI12-79" transform="scale(0.996264)"/>
     </g>
    </g>
   </g>
   <g id="frame0082_fbd264_line2d_9">
    <defs>
     <path id="frame0082_fbd264_m66c5885df8" d="M 3 0 
L -3 -3 
L -3 3 
z
" style="stroke: #000000; stroke-linejoin: miter"/>
    </defs>
    <g>
     <use xlink:href="#frame0082_fbd264_m66c5885df8" x="443.4" y="173.948158" style="stroke: #000000; stroke-linejoin: miter"/>
    </g>
   </g>
   <g id="frame0082_fbd264_line2d_10">
    <defs>
     <path id="frame0082_fbd264_m08b97c4919" d="M 0 -3 
L -3 3 
L 3 3 
z
" style="stroke: #000000; stroke-linejoin: miter"/>
    </defs>
    <g>
     <use xlink:href="#frame0082_fbd264_m08b97c4919" x="225.3" y="16.556315" style="stroke: #000000; stroke-linejoin: miter"/>
    </g>
   </g>
   <g id="frame0082_fbd264_line2d_11">
    <defs>
     <path id="frame0082_fbd264_mdb47491369" d="M 0 5 
C 1.326016 5 2.597899 4.473168 3.535534 3.535534 
C 4.473168 2.597899 5 1.326016 5 0 
C 5 -1.326016 4.473168 -2.597899 3.535534 -3.535534 
C 2.597899 -4.473168 1.326016 -5 0 -5 
C -1.326016 -5 -2.597899 -4.473168 -3.535534 -3.535534 
C -4.473168 -2.597899 -5 -1.326016 -5 0 
C -5 1.326016 -4.473168 2.597899 -3.535534 3.535534 
C -2.597899 4.473168 -1.326016 5 0 5 
z
" style="stroke: #000000; stroke-opacity: 0.8"/>
    </defs>
    <g clip-path="url(#frame0082_fbd264_p632c7ce9fd)">
     <use xlink:href="#frame0082_fbd264_mdb47491369" x="136.66724" y="257.127172" style="fill-opacity: 0.8; stroke: #000000; stroke-opacity: 0.8"/>
    </g>
   </g>
   <g id="frame0082_fbd264_line2d_12">
    <path d="M 370.7 173.948158 
L 370.579161 169.671174 
L 370.216844 165.4013 
L 369.613651 161.145632 
L 368.770586 156.911244 
L 367.689049 152.705174 
L 366.370839 148.534414 
L 364.818145 144.405895 
L 363.03355 140.32648 
L 361.020019 136.30295 
L 358.780899 132.341993 
L 356.319912 128.450192 
L 353.641149 124.634015 
L 350.749062 120.899807 
L 347.648458 117.253774 
L 344.344491 113.701977 
L 340.842652 110.250318 
L 337.148763 106.904535 
L 333.268963 103.67019 
L 329.2097 100.552659 
L 324.977723 97.557122 
L 320.580065 94.68856 
L 316.024037 91.951741 
L 311.31721 89.351212 
L 306.467408 86.891298 
L 301.482693 84.576087 
L 296.37135 82.409426 
L 291.141874 80.394918 
L 285.802959 78.535911 
L 280.363478 76.835494 
L 274.832472 75.296494 
L 269.219136 73.92147 
L 263.532798 72.712706 
L 257.782912 71.672212 
L 251.979033 70.801717 
L 246.13081 70.102669 
L 240.247963 69.576229 
L 234.340269 69.223272 
L 228.417549 69.044384 
L 222.489647 69.039864 
L 216.566417 69.209719 
L 210.657703 69.553666 
L 204.773327 70.071134 
L 198.92307 70.761262 
L 193.116655 71.622904 
L 187.363734 72.654627 
L 181.67387 73.854717 
L 176.056519 75.221178 
L 170.52102 76.751739 
L 165.076571 78.443857 
L 159.732224 80.294718 
L 154.496862 82.301247 
L 149.379185 84.460108 
L 144.387702 86.767713 
L 139.530707 89.220226 
L 134.816276 91.81357 
L 130.252243 94.543436 
L 125.846195 97.405285 
L 121.605456 100.394361 
L 117.537073 103.505695 
L 113.647811 106.734116 
L 109.944132 110.074258 
L 106.432194 113.520569 
L 103.117833 117.06732 
L 100.00656 120.708617 
L 97.103544 124.438406 
L 94.413612 128.250489 
L 91.941234 132.138528 
L 89.69052 136.096062 
L 87.665212 140.116513 
L 85.868675 144.193197 
L 84.303895 148.319338 
L 82.973474 152.488079 
L 81.879623 156.692491 
L 81.02416 160.925583 
L 80.408508 165.180322 
L 80.033688 169.449634 
L 79.900325 173.726423 
L 80.008639 178.003581 
L 80.358452 182.273998 
L 80.949181 186.530577 
L 81.779845 190.766241 
L 82.849063 194.973951 
L 84.155057 199.146712 
L 85.695658 203.27759 
L 87.468303 207.359717 
L 89.470048 211.386308 
L 91.697564 215.350672 
L 94.147149 219.246217 
L 96.814731 223.06647 
L 99.695877 226.80508 
L 102.785797 230.455834 
L 106.079356 234.012662 
L 109.57108 237.469653 
L 113.255163 240.821061 
L 117.125484 244.061316 
L 121.175608 247.185031 
L 125.398804 250.187014 
L 129.788052 253.062276 
L 134.336056 255.806038 
L 136.66724 257.127172 
L 136.66724 257.127172 
" clip-path="url(#frame0082_fbd264_p632c7ce9fd)" style="fill: none; stroke: #0072b2; stroke-width: 2.5; stroke-linecap: square"/>
   </g>
   <g id="frame0082_fbd264_patch_3">
    <path d="M 225.3 331.34 
L 225.3 16.556315 
" style="fill: none; stroke: #000000; stroke-width: 0.8; stroke-linejoin: miter; stroke-linecap: square"/>
   </g>
   <g id="frame0082_fbd264_patch_4">
    <path d="M 443.4 331.34 
L 443.4 16.556315 
" style="fill: none"/>
   </g>
   <g id="frame0082_fbd264_patch_5">
    <path d="M 7.2 173.948158 
L 443.4 173.948158 
" style="fill: none; stroke: #000000; stroke-width: 0.8; stroke-linejoin: miter; stroke-linecap: square"/>
   </g>
   <g id="frame0082_fbd264_patch_6">
    <path d="M 7.2 16.556315 
L 443.4 16.556315 
" style="fill: none"/>
   </g>
  </g>
 </g>
 <defs>
  <clipPath id="frame0082_fbd264_p632c7ce9fd">
   <rect x="7.2" y="16.556315" width="436.2" height="314.783685"/>
  </clipPath>
 </defs>
</svg>
