<?xml version="1.0" encoding="utf-8" standalone="no"?>
<!DOCTYPE svg PUBLIC "-//W3C//DTD SVG 1.1//EN"
  "http://www.w3.org/Graphics/SVG/1.1/DTD/svg11.dtd">
<svg xmlns:xlink="http://www.w3.org/1999/xlink" width="453.6pt" height="338.54pt" viewBox="0 0 453.6 338.54" xmlns="http://www.w3.org/2000/svg" version="1.1">
 <metadata>
  <rdf:RDF xmlns:dc="http://purl.org/dc/elements/1.1/" xmlns:cc="http://creativecommons.org/ns#" xmlns:rdf="http://www.w3.org/1999/02/22-rdf-syntax-ns#">
   <cc:Work>
    <dc:type rdf:resource="http://purl.org/dc/dcmitype/StillImage"/>
    <dc:date>2026-01-22T01:58:29.059022</dc:date>
    <dc:format>image/svg+xml</dc:format>
    <dc:creator>
     <cc:Agent>
      <dc:title>Matplotlib v3.9.1, https://matplotlib.org/</dc:title>
     </cc:Agent>
    </dc:creator>
   </cc:Work>
  </rdf:RDF>
 </metadata>
 <defs>
  <style type="text/css">*{stroke-linejoin: round; stroke-linecap: butt}</style>
 </defs>
 <g id="frame0123_4ecda4_figure_1">
  <g id="frame0123_4ecda4_patch_1">
   <path d="M 0 338.54 
L 453.6 338.54 
L 453.6 0 
L 0 0 
L 0 338.54 
z
" style="fill: none; opacity: 0"/>
  </g>
  <g id="frame0123_4ecda4_axes_1">
   <g id="frame0123_4ecda4_patch_2">
    <path d="M 7.2 331.34 
L 443.4 331.34 
L 443.4 16.556315 
L 7.2 16.556315 
L 7.2 331.34 
z
" style="fill: none; opacity: 0"/>
   </g>
   <g id="frame0123_4ecda4_matplotlib.axis_1">
    <g id="frame0123_4ecda4_xtick_1">
     <g id="frame0123_4ecda4_line2d_1">
      <path d="M 79.9 331.34 
L 79.9 16.556315 
" clip-path="url(#frame0123_4ecda4_p7f9f519555)" style="fill: none; stroke-dasharray: 2.96,1.28; stroke-dashoffset: 0; stroke: #b0b0b0; stroke-opacity: 0.6; stroke-width: 0.8"/>
     </g>
     <g id="frame0123_4ecda4_line2d_2">
      <defs>
       <path id="frame0123_4ecda4_ma0669a793f" d="M 0 0 
L 0 3.5 
" style="stroke: #000000; stroke-width: 0.8"/>
      </defs>
      <g>
       <use xlink:href="#frame0123_4ecda4_ma0669a793f" x="79.9" y="173.948158" style="stroke: #000000; stroke-width: 0.8"/>
      </g>
     </g>
     <g id="frame0123_4ecda4_text_1">
      <!-- $\mathdefault{−1}$ -->
      <g transform="translate(67.582209 194.785154) scale(0.2 -0.2)">
       <defs>
        <path id="frame0123_4ecda4_CMSY10-0" d="M 4218 1472 
C 4326 1472 4442 1472 4442 1600 
C 4442 1728 4326 1728 4218 1728 
L 755 1728 
C 646 1728 531 1728 531 1600 
C 531 1472 646 1472 755 1472 
L 4218 1472 
z
" transform="scale(0.015625)"/>
        <path id="frame0123_4ecda4_CMR17-31" d="M 1702 4058 
C 1702 4192 1696 4192 1606 4192 
C 1357 3916 979 3827 621 3827 
C 602 3827 570 3827 563 3808 
C 557 3795 557 3782 557 3648 
C 755 3648 1088 3686 1344 3839 
L 1344 461 
C 1344 236 1331 160 781 160 
L 589 160 
L 589 0 
C 896 0 1216 0 1523 0 
C 1830 0 2150 0 2458 0 
L 2458 160 
L 2266 160 
C 1715 160 1702 230 1702 458 
L 1702 4058 
z
" transform="scale(0.015625)"/>
       </defs>
       <use xlink:href="#frame0123_4ecda4_CMSY10-0" transform="scale(0.996264)"/>
       <use xlink:href="#frame0123_4ecda4_CMR17-31" transform="translate(77.487468 0) scale(0.996264)"/>
      </g>
     </g>
    </g>
    <g id="frame0123_4ecda4_xtick_2">
     <g id="frame0123_4ecda4_line2d_3">
      <path d="M 370.7 331.34 
L 370.7 16.556315 
" clip-path="url(#frame0123_4ecda4_p7f9f519555)" style="fill: none; stroke-dasharray: 2.96,1.28; stroke-dashoffset: 0; stroke: #b0b0b0; stroke-opacity: 0.6; stroke-width: 0.8"/>
     </g>
     <g id="frame0123_4ecda4_line2d_4">
      <g>
       <use xlink:href="#frame0123_4ecda4_ma0669a793f" x="370.7" y="173.948158" style="stroke: #000000; stroke-width: 0.8"/>
      </g>
     </g>
     <g id="frame0123_4ecda4_text_2">
      <!-- $\mathdefault{1}$ -->
      <g transform="translate(366.130952 194.785154) scale(0.2 -0.2)">
       <use xlink:href="#frame0123_4ecda4_CMR17-31" transform="scale(0.996264)"/>
      </g>
     </g>
    </g>
    <g id="frame0123_4ecda4_text_3">
     <!-- $x$ -->
     <g transform="translate(432.313188 216.497785) scale(0.2 -0.2)">
      <defs>
       <path id="frame0123_4ecda4_CMMI12-78" d="M 3034 2606 
C 2829 2567 2752 2414 2752 2293 
C 2752 2139 2874 2088 2963 2088 
C 3155 2088 3290 2254 3290 2427 
C 3290 2695 2982 2816 2714 2816 
C 2323 2816 2106 2433 2048 2312 
C 1901 2816 1504 2816 1389 2816 
C 736 2816 390 1980 390 1839 
C 390 1814 416 1782 461 1782 
C 512 1782 525 1820 538 1846 
C 755 2555 1184 2689 1370 2689 
C 1658 2689 1715 2420 1715 2267 
C 1715 2127 1677 1980 1600 1673 
L 1382 798 
C 1286 415 1101 64 762 64 
C 730 64 570 64 435 147 
C 666 192 717 383 717 460 
C 717 588 621 664 499 664 
C 346 664 179 530 179 326 
C 179 57 480 -64 755 -64 
C 1062 -64 1280 179 1414 441 
C 1517 64 1837 -64 2074 -64 
C 2726 -64 3072 773 3072 913 
C 3072 945 3046 971 3008 971 
C 2950 971 2944 939 2925 888 
C 2752 326 2381 64 2093 64 
C 1869 64 1747 230 1747 492 
C 1747 632 1773 734 1875 1156 
L 2099 2024 
C 2195 2408 2413 2689 2707 2689 
C 2720 2689 2899 2689 3034 2606 
z
" transform="scale(0.015625)"/>
      </defs>
      <use xlink:href="#frame0123_4ecda4_CMMI12-78" transform="scale(0.996264)"/>
     </g>
    </g>
   </g>
   <g id="frame0123_4ecda4_matplotlib.axis_2">
    <g id="frame0123_4ecda4_ytick_1">
     <g id="frame0123_4ecda4_line2d_5">
      <path d="M 7.2 278.876053 
L 443.4 278.876053 
" clip-path="url(#frame0123_4ecda4_p7f9f519555)" style="fill: none; stroke-dasharray: 2.96,1.28; stroke-dashoffset: 0; stroke: #b0b0b0; stroke-opacity: 0.6; stroke-width: 0.8"/>
     </g>
     <g id="frame0123_4ecda4_line2d_6">
      <defs>
       <path id="frame0123_4ecda4_m4e7b761ddb" d="M 0 0 
L -3.5 0 
" style="stroke: #000000; stroke-width: 0.8"/>
      </defs>
      <g>
       <use xlink:href="#frame0123_4ecda4_m4e7b761ddb" x="225.3" y="278.876053" style="stroke: #000000; stroke-width: 0.8"/>
      </g>
     </g>
     <g id="frame0123_4ecda4_text_4">
      <!-- $\mathdefault{−1}$ -->
      <g transform="translate(193.664417 285.794551) scale(0.2 -0.2)">
       <use xlink:href="#frame0123_4ecda4_CMSY10-0" transform="scale(0.996264)"/>
       <use xlink:href="#frame0123_4ecda4_CMR17-31" transform="translate(77.487468 0) scale(0.996264)"/>
      </g>
     </g>
    </g>
    <g id="frame0123_4ecda4_ytick_2">
     <g id="frame0123_4ecda4_line2d_7">
      <path d="M 7.2 69.020263 
L 443.4 69.020263 
" clip-path="url(#frame0123_4ecda4_p7f9f519555)" style="fill: none; stroke-dasharray: 2.96,1.28; stroke-dashoffset: 0; stroke: #b0b0b0; stroke-opacity: 0.6; stroke-width: 0.8"/>
     </g>
     <g id="frame0123_4ecda4_line2d_8">
      <g>
       <use xlink:href="#frame0123_4ecda4_m4e7b761ddb" x="225.3" y="69.020263" style="stroke: #000000; stroke-width: 0.8"/>
      </g>
     </g>
     <g id="frame0123_4ecda4_text_5">
      <!-- $\mathdefault{1}$ -->
      <g transform="translate(209.161905 75.938761) scale(0.2 -0.2)">
       <use xlink:href="#frame0123_4ecda4_CMR17-31" transform="scale(0.996264)"/>
      </g>
     </g>
    </g>
    <g id="frame0123_4ecda4_text_6">
     <!-- $y$ -->
     <g transform="translate(180.151583 12.680682) scale(0.2 -0.2)">
      <defs>
       <path id="frame0123_4ecda4_CMMI12-79" d="M 1683 -700 
C 1510 -939 1261 -1152 947 -1152 
C 870 -1152 563 -1152 467 -889 
C 486 -895 518 -895 531 -895 
C 723 -895 851 -729 851 -582 
C 851 -435 730 -384 634 -384 
C 531 -384 307 -458 307 -759 
C 307 -1071 582 -1286 947 -1286 
C 1587 -1286 2234 -700 2413 6 
L 3040 2485 
C 3046 2517 3059 2556 3059 2594 
C 3059 2689 2982 2753 2886 2753 
C 2829 2753 2694 2727 2643 2535 
L 2170 658 
C 2138 543 2138 530 2086 460 
C 1958 281 1747 64 1440 64 
C 1082 64 1050 415 1050 588 
C 1050 952 1222 1443 1395 1903 
C 1466 2088 1504 2178 1504 2305 
C 1504 2574 1312 2816 998 2816 
C 410 2816 173 1890 173 1839 
C 173 1814 198 1782 243 1782 
C 301 1782 307 1807 333 1897 
C 486 2433 730 2689 979 2689 
C 1037 2689 1146 2689 1146 2478 
C 1146 2312 1075 2127 979 1884 
C 666 1047 666 837 666 683 
C 666 77 1101 -64 1421 -64 
C 1606 -64 1837 -6 2061 230 
L 2067 224 
C 1971 -147 1907 -392 1683 -700 
z
" transform="scale(0.015625)"/>
      </defs>
      <use xlink:href="#frame0123_4ecda4_CMMI12-79" transform="scale(0.996264)"/>
     </g>
    </g>
   </g>
   <g id="frame0123_4ecda4_line2d_9">
    <defs>
     <path id="frame0123_4ecda4_m151acd2ffd" d="M 3 0 
L -3 -3 
L -3 3 
z
" style="stroke: #000000; stroke-linejoin: miter"/>
    </defs>
    <g>
     <use xlink:href="#frame0123_4ecda4_m151acd2ffd" x="443.4" y="173.948158" style="stroke: #000000; stroke-linejoin: miter"/>
    </g>
   </g>
   <g id="frame0123_4ecda4_line2d_10">
    <defs>
     <path id="frame0123_4ecda4_mbca2545555" d="M 0 -3 
L -3 3 
L 3 3 
z
" style="stroke: #000000; stroke-linejoin: miter"/>
    </defs>
    <g>
     <use xlink:href="#frame0123_4ecda4_mbca2545555" x="225.3" y="16.556315" style="stroke: #000000; stroke-linejoin: miter"/>
    </g>
   </g>
   <g id="frame0123_4ecda4_line2d_11">
    <defs>
     <path id="frame0123_4ecda4_m2d57a22ee7" d="M 0 5 
C 1.326016 5 2.597899 4.473168 3.535534 3.535534 
C 4.473168 2.597899 5 1.326016 5 0 
C 5 -1.326016 4.473168 -2.597899 3.535534 -3.535534 
C 2.597899 -4.473168 1.326016 -5 0 -5 
C -1.326016 -5 -2.597899 -4.473168 -3.535534 -3.535534 
C -4.473168 -2.597899 -5 -1.326016 -5 0 
C -5 1.326016 -4.473168 2.597899 -3.535534 3.535534 
C -2.597899 4.473168 -1.326016 5 0 5 
z
" style="stroke: #000000; stroke-opacity: 0.8"/>
    </defs>
    <g clip-path="url(#frame0123_4ecda4_p7f9f519555)">
     <use xlink:href="#frame0123_4ecda4_m2d57a22ee7" x="367.862154" y="194.577658" style="fill-opacity: 0.8; stroke: #000000; stroke-opacity: 0.8"/>
    </g>
   </g>
   <g id="frame0123_4ecda4_line2d_12">
    <path d="M 370.7 173.948158 
L 370.632024 170.740031 
L 370.428159 167.534905 
L 370.088595 164.335775 
L 369.613651 161.145632 
L 369.003771 157.967461 
L 368.259524 154.804231 
L 367.381606 151.658902 
L 366.370839 148.534414 
L 365.228167 145.433688 
L 363.954659 142.359624 
L 362.551506 139.315096 
L 361.020019 136.30295 
L 359.361631 133.326004 
L 357.577892 130.387041 
L 355.67047 127.488808 
L 353.641149 124.634015 
L 351.491826 121.825333 
L 349.22451 119.065387 
L 346.841322 116.356757 
L 344.344491 113.701977 
L 341.736349 111.103528 
L 339.019337 108.56384 
L 336.195995 106.085289 
L 333.268963 103.67019 
L 330.240976 101.320803 
L 327.114868 99.039325 
L 323.89356 96.827888 
L 317.177481 92.623342 
L 310.117852 88.722888 
L 302.74107 85.141109 
L 295.07472 81.8914 
L 287.147466 78.985911 
L 278.98895 76.435506 
L 270.629681 74.249723 
L 262.100913 72.436735 
L 253.434539 71.00332 
L 244.662963 69.954838 
L 235.818985 69.29521 
L 226.935675 69.026902 
L 218.046248 69.150918 
L 209.183944 69.666794 
L 200.381902 70.572601 
L 191.673035 71.864952 
L 183.089905 73.539014 
L 174.664609 75.588528 
L 166.42865 78.005831 
L 158.412823 80.781883 
L 150.647102 83.906304 
L 143.160525 87.367411 
L 135.981086 91.152263 
L 129.135629 95.246707 
L 122.649752 99.635432 
L 119.54929 101.935064 
L 116.547707 104.30203 
L 113.647811 106.734116 
L 110.852311 109.229049 
L 108.163823 111.784496 
L 105.58486 114.398068 
L 103.117833 117.06732 
L 100.76505 119.789757 
L 98.52871 122.562834 
L 96.410903 125.383957 
L 94.413612 128.250489 
L 92.538702 131.159749 
L 90.787927 134.109017 
L 89.162923 137.095536 
L 87.665212 140.116513 
L 86.296192 143.169123 
L 85.057144 146.250512 
L 83.949226 149.3578 
L 82.973474 152.488079 
L 82.130801 155.638425 
L 81.421995 158.805891 
L 80.847718 161.987515 
L 80.408508 165.180322 
L 80.104774 168.381328 
L 79.936801 171.587538 
L 79.904746 174.795956 
L 80.008639 178.003581 
L 80.248383 181.207415 
L 80.623754 184.40446 
L 81.1344 187.591729 
L 81.779845 190.766241 
L 82.559484 193.925027 
L 83.472589 197.065135 
L 84.518306 200.183628 
L 85.695658 203.27759 
L 87.003542 206.344128 
L 88.440737 209.380375 
L 90.005899 212.383492 
L 91.697564 215.350672 
L 93.51415 218.279139 
L 95.453959 221.166155 
L 97.515177 224.009022 
L 99.695877 226.80508 
L 101.99402 229.551716 
L 104.407456 232.246362 
L 106.933931 234.886497 
L 109.57108 237.469653 
L 112.316438 239.993416 
L 115.167439 242.455424 
L 118.121416 244.853377 
L 121.175608 247.185031 
L 124.327158 249.448207 
L 127.573121 251.640789 
L 134.336056 255.806038 
L 141.439126 259.665202 
L 148.855769 263.203851 
L 156.558255 266.408753 
L 164.517781 269.267925 
L 172.704585 271.770675 
L 181.088054 273.907646 
L 189.636842 275.670846 
L 198.318983 277.053682 
L 207.102011 278.050984 
L 215.953086 278.659023 
L 224.83911 278.875525 
L 233.726859 278.699681 
L 242.583097 278.132147 
L 251.37471 277.175047 
L 260.068824 275.831959 
L 268.632929 274.107905 
L 277.035004 272.009331 
L 285.243629 269.544085 
L 293.228113 266.721385 
L 300.958598 263.551786 
L 308.406179 260.047139 
L 315.543008 256.220549 
L 322.342398 252.086324 
L 325.607557 249.908636 
L 328.778926 247.659924 
L 331.853539 245.342289 
L 334.828523 242.957899 
L 337.701094 240.508983 
L 340.468569 237.997831 
L 343.128357 235.426792 
L 345.677974 232.798268 
L 348.115034 230.114718 
L 350.43726 227.378651 
L 352.642479 224.592626 
L 354.728629 221.759246 
L 356.693761 218.881162 
L 358.536037 215.961065 
L 360.253734 213.001685 
L 361.845246 210.005788 
L 363.309085 206.976177 
L 364.643883 203.915684 
L 365.84839 200.827171 
L 366.921482 197.713525 
L 367.862154 194.577658 
L 367.862154 194.577658 
" clip-path="url(#frame0123_4ecda4_p7f9f519555)" style="fill: none; stroke: #0072b2; stroke-width: 2.5; stroke-linecap: square"/>
   </g>
   <g id="frame0123_4ecda4_patch_3">
    <path d="M 225.3 331.34 
L 225.3 16.556315 
" style="fill: none; stroke: #000000; stroke-width: 0.8; stroke-linejoin: miter; stroke-linecap: square"/>
   </g>
   <g id="frame0123_4ecda4_patch_4">
    <path d="M 443.4 331.34 
L 443.4 16.556315 
" style="fill: none"/>
   </g>
   <g id="frame0123_4ecda4_patch_5">
    <path d="M 7.2 173.948158 
L 443.4 173.948158 
" style="fill: none; stroke: #000000; stroke-width: 0.8; stroke-linejoin: miter; stroke-linecap: square"/>
   </g>
   <g id="frame0123_4ecda4_patch_6">
    <path d="M 7.2 16.556315 
L 443.4 16.556315 
" style="fill: none"/>
   </g>
  </g>
 </g>
 <defs>
  <clipPath id="frame0123_4ecda4_p7f9f519555">
   <rect x="7.2" y="16.556315" width="436.2" height="314.783685"/>
  </clipPath>
 </defs>
</svg>
