<?xml version="1.0" encoding="utf-8" standalone="no"?>
<!DOCTYPE svg PUBLIC "-//W3C//DTD SVG 1.1//EN"
  "http://www.w3.org/Graphics/SVG/1.1/DTD/svg11.dtd">
<svg xmlns:xlink="http://www.w3.org/1999/xlink" width="453.6pt" height="338.54pt" viewBox="0 0 453.6 338.54" xmlns="http://www.w3.org/2000/svg" version="1.1">
 <metadata>
  <rdf:RDF xmlns:dc="http://purl.org/dc/elements/1.1/" xmlns:cc="http://creativecommons.org/ns#" xmlns:rdf="http://www.w3.org/1999/02/22-rdf-syntax-ns#">
   <cc:Work>
    <dc:type rdf:resource="http://purl.org/dc/dcmitype/StillImage"/>
    <dc:date>2026-01-22T01:58:27.910905</dc:date>
    <dc:format>image/svg+xml</dc:format>
    <dc:creator>
     <cc:Agent>
      <dc:title>Matplotlib v3.9.1, https://matplotlib.org/</dc:title>
     </cc:Agent>
    </dc:creator>
   </cc:Work>
  </rdf:RDF>
 </metadata>
 <defs>
  <style type="text/css">*{stroke-linejoin: round; stroke-linecap: butt}</style>
 </defs>
 <g id="frame0083_9781c2_figure_1">
  <g id="frame0083_9781c2_patch_1">
   <path d="M 0 338.54 
L 453.6 338.54 
L 453.6 0 
L 0 0 
L 0 338.54 
z
" style="fill: none; opacity: 0"/>
  </g>
  <g id="frame0083_9781c2_axes_1">
   <g id="frame0083_9781c2_patch_2">
    <path d="M 7.2 331.34 
L 443.4 331.34 
L 443.4 16.556315 
L 7.2 16.556315 
L 7.2 331.34 
z
" style="fill: none; opacity: 0"/>
   </g>
   <g id="frame0083_9781c2_matplotlib.axis_1">
    <g id="frame0083_9781c2_xtick_1">
     <g id="frame0083_9781c2_line2d_1">
      <path d="M 79.9 331.34 
L 79.9 16.556315 
" clip-path="url(#frame0083_9781c2_pc690bae086)" style="fill: none; stroke-dasharray: 2.96,1.28; stroke-dashoffset: 0; stroke: #b0b0b0; stroke-opacity: 0.6; stroke-width: 0.8"/>
     </g>
     <g id="frame0083_9781c2_line2d_2">
      <defs>
       <path id="frame0083_9781c2_m6374ccdb8f" d="M 0 0 
L 0 3.5 
" style="stroke: #000000; stroke-width: 0.8"/>
      </defs>
      <g>
       <use xlink:href="#frame0083_9781c2_m6374ccdb8f" x="79.9" y="173.948158" style="stroke: #000000; stroke-width: 0.8"/>
      </g>
     </g>
     <g id="frame0083_9781c2_text_1">
      <!-- $\mathdefault{−1}$ -->
      <g transform="translate(67.582209 194.785154) scale(0.2 -0.2)">
       <defs>
        <path id="frame0083_9781c2_CMSY10-0" d="M 4218 1472 
C 4326 1472 4442 1472 4442 1600 
C 4442 1728 4326 1728 4218 1728 
L 755 1728 
C 646 1728 531 1728 531 1600 
C 531 1472 646 1472 755 1472 
L 4218 1472 
z
" transform="scale(0.015625)"/>
        <path id="frame0083_9781c2_CMR17-31" d="M 1702 4058 
C 1702 4192 1696 4192 1606 4192 
C 1357 3916 979 3827 621 3827 
C 602 3827 570 3827 563 3808 
C 557 3795 557 3782 557 3648 
C 755 3648 1088 3686 1344 3839 
L 1344 461 
C 1344 236 1331 160 781 160 
L 589 160 
L 589 0 
C 896 0 1216 0 1523 0 
C 1830 0 2150 0 2458 0 
L 2458 160 
L 2266 160 
C 1715 160 1702 230 1702 458 
L 1702 4058 
z
" transform="scale(0.015625)"/>
       </defs>
       <use xlink:href="#frame0083_9781c2_CMSY10-0" transform="scale(0.996264)"/>
       <use xlink:href="#frame0083_9781c2_CMR17-31" transform="translate(77.487468 0) scale(0.996264)"/>
      </g>
     </g>
    </g>
    <g id="frame0083_9781c2_xtick_2">
     <g id="frame0083_9781c2_line2d_3">
      <path d="M 370.7 331.34 
L 370.7 16.556315 
" clip-path="url(#frame0083_9781c2_pc690bae086)" style="fill: none; stroke-dasharray: 2.96,1.28; stroke-dashoffset: 0; stroke: #b0b0b0; stroke-opacity: 0.6; stroke-width: 0.8"/>
     </g>
     <g id="frame0083_9781c2_line2d_4">
      <g>
       <use xlink:href="#frame0083_9781c2_m6374ccdb8f" x="370.7" y="173.948158" style="stroke: #000000; stroke-width: 0.8"/>
      </g>
     </g>
     <g id="frame0083_9781c2_text_2">
      <!-- $\mathdefault{1}$ -->
      <g transform="translate(366.130952 194.785154) scale(0.2 -0.2)">
       <use xlink:href="#frame0083_9781c2_CMR17-31" transform="scale(0.996264)"/>
      </g>
     </g>
    </g>
    <g id="frame0083_9781c2_text_3">
     <!-- $x$ -->
     <g transform="translate(432.313188 216.497785) scale(0.2 -0.2)">
      <defs>
       <path id="frame0083_9781c2_CMMI12-78" d="M 3034 2606 
C 2829 2567 2752 2414 2752 2293 
C 2752 2139 2874 2088 2963 2088 
C 3155 2088 3290 2254 3290 2427 
C 3290 2695 2982 2816 2714 2816 
C 2323 2816 2106 2433 2048 2312 
C 1901 2816 1504 2816 1389 2816 
C 736 2816 390 1980 390 1839 
C 390 1814 416 1782 461 1782 
C 512 1782 525 1820 538 1846 
C 755 2555 1184 2689 1370 2689 
C 1658 2689 1715 2420 1715 2267 
C 1715 2127 1677 1980 1600 1673 
L 1382 798 
C 1286 415 1101 64 762 64 
C 730 64 570 64 435 147 
C 666 192 717 383 717 460 
C 717 588 621 664 499 664 
C 346 664 179 530 179 326 
C 179 57 480 -64 755 -64 
C 1062 -64 1280 179 1414 441 
C 1517 64 1837 -64 2074 -64 
C 2726 -64 3072 773 3072 913 
C 3072 945 3046 971 3008 971 
C 2950 971 2944 939 2925 888 
C 2752 326 2381 64 2093 64 
C 1869 64 1747 230 1747 492 
C 1747 632 1773 734 1875 1156 
L 2099 2024 
C 2195 2408 2413 2689 2707 2689 
C 2720 2689 2899 2689 3034 2606 
z
" transform="scale(0.015625)"/>
      </defs>
      <use xlink:href="#frame0083_9781c2_CMMI12-78" transform="scale(0.996264)"/>
     </g>
    </g>
   </g>
   <g id="frame0083_9781c2_matplotlib.axis_2">
    <g id="frame0083_9781c2_ytick_1">
     <g id="frame0083_9781c2_line2d_5">
      <path d="M 7.2 278.876053 
L 443.4 278.876053 
" clip-path="url(#frame0083_9781c2_pc690bae086)" style="fill: none; stroke-dasharray: 2.96,1.28; stroke-dashoffset: 0; stroke: #b0b0b0; stroke-opacity: 0.6; stroke-width: 0.8"/>
     </g>
     <g id="frame0083_9781c2_line2d_6">
      <defs>
       <path id="frame0083_9781c2_mcd9cd5112a" d="M 0 0 
L -3.5 0 
" style="stroke: #000000; stroke-width: 0.8"/>
      </defs>
      <g>
       <use xlink:href="#frame0083_9781c2_mcd9cd5112a" x="225.3" y="278.876053" style="stroke: #000000; stroke-width: 0.8"/>
      </g>
     </g>
     <g id="frame0083_9781c2_text_4">
      <!-- $\mathdefault{−1}$ -->
      <g transform="translate(193.664417 285.794551) scale(0.2 -0.2)">
       <use xlink:href="#frame0083_9781c2_CMSY10-0" transform="scale(0.996264)"/>
       <use xlink:href="#frame0083_9781c2_CMR17-31" transform="translate(77.487468 0) scale(0.996264)"/>
      </g>
     </g>
    </g>
    <g id="frame0083_9781c2_ytick_2">
     <g id="frame0083_9781c2_line2d_7">
      <path d="M 7.2 69.020263 
L 443.4 69.020263 
" clip-path="url(#frame0083_9781c2_pc690bae086)" style="fill: none; stroke-dasharray: 2.96,1.28; stroke-dashoffset: 0; stroke: #b0b0b0; stroke-opacity: 0.6; stroke-width: 0.8"/>
     </g>
     <g id="frame0083_9781c2_line2d_8">
      <g>
       <use xlink:href="#frame0083_9781c2_mcd9cd5112a" x="225.3" y="69.020263" style="stroke: #000000; stroke-width: 0.8"/>
      </g>
     </g>
     <g id="frame0083_9781c2_text_5">
      <!-- $\mathdefault{1}$ -->
      <g transform="translate(209.161905 75.938761) scale(0.2 -0.2)">
       <use xlink:href="#frame0083_9781c2_CMR17-31" transform="scale(0.996264)"/>
      </g>
     </g>
    </g>
    <g id="frame0083_9781c2_text_6">
     <!-- $y$ -->
     <g transform="translate(180.151583 12.680682) scale(0.2 -0.2)">
      <defs>
       <path id="frame0083_9781c2_CMMI12-79" d="M 1683 -700 
C 1510 -939 1261 -1152 947 -1152 
C 870 -1152 563 -1152 467 -889 
C 486 -895 518 -895 531 -895 
C 723 -895 851 -729 851 -582 
C 851 -435 730 -384 634 -384 
C 531 -384 307 -458 307 -759 
C 307 -1071 582 -1286 947 -1286 
C 1587 -1286 2234 -700 2413 6 
L 3040 2485 
C 3046 2517 3059 2556 3059 2594 
C 3059 2689 2982 2753 2886 2753 
C 2829 2753 2694 2727 2643 2535 
L 2170 658 
C 2138 543 2138 530 2086 460 
C 1958 281 1747 64 1440 64 
C 1082 64 1050 415 1050 588 
C 1050 952 1222 1443 1395 1903 
C 1466 2088 1504 2178 1504 2305 
C 1504 2574 1312 2816 998 2816 
C 410 2816 173 1890 173 1839 
C 173 1814 198 1782 243 1782 
C 301 1782 307 1807 333 1897 
C 486 2433 730 2689 979 2689 
C 1037 2689 1146 2689 1146 2478 
C 1146 2312 1075 2127 979 1884 
C 666 1047 666 837 666 683 
C 666 77 1101 -64 1421 -64 
C 1606 -64 1837 -6 2061 230 
L 2067 224 
C 1971 -147 1907 -392 1683 -700 
z
" transform="scale(0.015625)"/>
      </defs>
      <use xlink:href="#frame0083_9781c2_CMMI12-79" transform="scale(0.996264)"/>
     </g>
    </g>
   </g>
   <g id="frame0083_9781c2_line2d_9">
    <defs>
     <path id="frame0083_9781c2_m565972732e" d="M 3 0 
L -3 -3 
L -3 3 
z
" style="stroke: #000000; stroke-linejoin: miter"/>
    </defs>
    <g>
     <use xlink:href="#frame0083_9781c2_m565972732e" x="443.4" y="173.948158" style="stroke: #000000; stroke-linejoin: miter"/>
    </g>
   </g>
   <g id="frame0083_9781c2_line2d_10">
    <defs>
     <path id="frame0083_9781c2_mdfea9f6eb5" d="M 0 -3 
L -3 3 
L 3 3 
z
" style="stroke: #000000; stroke-linejoin: miter"/>
    </defs>
    <g>
     <use xlink:href="#frame0083_9781c2_mdfea9f6eb5" x="225.3" y="16.556315" style="stroke: #000000; stroke-linejoin: miter"/>
    </g>
   </g>
   <g id="frame0083_9781c2_line2d_11">
    <defs>
     <path id="frame0083_9781c2_m6f440a36a6" d="M 0 5 
C 1.326016 5 2.597899 4.473168 3.535534 3.535534 
C 4.473168 2.597899 5 1.326016 5 0 
C 5 -1.326016 4.473168 -2.597899 3.535534 -3.535534 
C 2.597899 -4.473168 1.326016 -5 0 -5 
C -1.326016 -5 -2.597899 -4.473168 -3.535534 -3.535534 
C -4.473168 -2.597899 -5 -1.326016 -5 0 
C -5 1.326016 -4.473168 2.597899 -3.535534 3.535534 
C -2.597899 4.473168 -1.326016 5 0 5 
z
" style="stroke: #000000; stroke-opacity: 0.8"/>
    </defs>
    <g clip-path="url(#frame0083_9781c2_pc690bae086)">
     <use xlink:href="#frame0083_9781c2_m6f440a36a6" x="142.475838" y="260.188545" style="fill-opacity: 0.8; stroke: #000000; stroke-opacity: 0.8"/>
    </g>
   </g>
   <g id="frame0083_9781c2_line2d_12">
    <path d="M 370.7 173.948158 
L 370.576196 169.619045 
L 370.204994 165.297306 
L 369.587028 160.990298 
L 368.723348 156.705356 
L 367.615426 152.449778 
L 366.265149 148.230811 
L 364.674816 144.055639 
L 362.847135 139.931372 
L 360.785219 135.865034 
L 358.492579 131.86355 
L 355.97312 127.933733 
L 353.231131 124.082276 
L 350.271282 120.315738 
L 347.098615 116.640534 
L 343.718531 113.062921 
L 340.136786 109.588992 
L 336.359481 106.224663 
L 332.393048 102.975664 
L 328.244241 99.847527 
L 323.920126 96.845579 
L 319.428066 93.974933 
L 314.775711 91.240477 
L 309.970984 88.646867 
L 305.022066 86.198521 
L 299.937387 83.899608 
L 294.725604 81.754042 
L 289.395593 79.765478 
L 283.956431 77.937302 
L 278.41738 76.272627 
L 272.787873 74.774288 
L 267.077497 73.444837 
L 261.295976 72.286538 
L 255.453156 71.301362 
L 249.558987 70.490989 
L 243.623506 69.856797 
L 237.656821 69.399868 
L 231.669093 69.120978 
L 225.670519 69.020603 
L 219.671314 69.098915 
L 213.681695 69.355778 
L 207.71186 69.790757 
L 201.771977 70.40311 
L 195.872162 71.191795 
L 190.02246 72.155468 
L 184.232834 73.292488 
L 178.513143 74.60092 
L 172.873127 76.078534 
L 167.322392 77.722816 
L 161.870389 79.530963 
L 156.526404 81.499898 
L 151.299536 83.626267 
L 146.198686 85.90645 
L 141.232543 88.336562 
L 136.409561 90.912467 
L 131.737955 93.629777 
L 127.22568 96.483864 
L 122.88042 99.469869 
L 118.709575 102.582707 
L 114.720247 105.817075 
L 110.919231 109.167468 
L 107.312999 112.628178 
L 103.907693 116.193313 
L 100.709111 119.856801 
L 97.7227 123.612404 
L 94.953547 127.453726 
L 92.406366 131.374225 
L 90.085496 135.367226 
L 87.994889 139.425928 
L 86.138105 143.543419 
L 84.518306 147.712687 
L 83.138251 151.926634 
L 82.000289 156.178081 
L 81.106359 160.459791 
L 80.457983 164.76447 
L 80.056265 169.084788 
L 79.901888 173.413389 
L 79.995117 177.7429 
L 80.335792 182.065949 
L 80.923334 186.375174 
L 81.75674 190.663236 
L 82.834593 194.922834 
L 84.155057 199.146712 
L 85.715883 203.327679 
L 87.514413 207.458614 
L 89.547585 211.532483 
L 91.811935 215.542348 
L 94.303608 219.48138 
L 97.018361 223.342872 
L 99.95157 227.120247 
L 103.098241 230.807072 
L 106.453015 234.397071 
L 110.010179 237.884128 
L 113.763675 241.262305 
L 117.707111 244.525851 
L 121.833772 247.669206 
L 126.136631 250.687018 
L 130.608359 253.574149 
L 135.241342 256.32568 
L 140.027689 258.936928 
L 142.475838 260.188545 
L 142.475838 260.188545 
" clip-path="url(#frame0083_9781c2_pc690bae086)" style="fill: none; stroke: #0072b2; stroke-width: 2.5; stroke-linecap: square"/>
   </g>
   <g id="frame0083_9781c2_patch_3">
    <path d="M 225.3 331.34 
L 225.3 16.556315 
" style="fill: none; stroke: #000000; stroke-width: 0.8; stroke-linejoin: miter; stroke-linecap: square"/>
   </g>
   <g id="frame0083_9781c2_patch_4">
    <path d="M 443.4 331.34 
L 443.4 16.556315 
" style="fill: none"/>
   </g>
   <g id="frame0083_9781c2_patch_5">
    <path d="M 7.2 173.948158 
L 443.4 173.948158 
" style="fill: none; stroke: #000000; stroke-width: 0.8; stroke-linejoin: miter; stroke-linecap: square"/>
   </g>
   <g id="frame0083_9781c2_patch_6">
    <path d="M 7.2 16.556315 
L 443.4 16.556315 
" style="fill: none"/>
   </g>
  </g>
 </g>
 <defs>
  <clipPath id="frame0083_9781c2_pc690bae086">
   <rect x="7.2" y="16.556315" width="436.2" height="314.783685"/>
  </clipPath>
 </defs>
</svg>
