<?xml version="1.0" encoding="utf-8" standalone="no"?>
<!DOCTYPE svg PUBLIC "-//W3C//DTD SVG 1.1//EN"
  "http://www.w3.org/Graphics/SVG/1.1/DTD/svg11.dtd">
<svg xmlns:xlink="http://www.w3.org/1999/xlink" width="453.6pt" height="338.54pt" viewBox="0 0 453.6 338.54" xmlns="http://www.w3.org/2000/svg" version="1.1">
 <metadata>
  <rdf:RDF xmlns:dc="http://purl.org/dc/elements/1.1/" xmlns:cc="http://creativecommons.org/ns#" xmlns:rdf="http://www.w3.org/1999/02/22-rdf-syntax-ns#">
   <cc:Work>
    <dc:type rdf:resource="http://purl.org/dc/dcmitype/StillImage"/>
    <dc:date>2026-01-22T01:58:28.779026</dc:date>
    <dc:format>image/svg+xml</dc:format>
    <dc:creator>
     <cc:Agent>
      <dc:title>Matplotlib v3.9.1, https://matplotlib.org/</dc:title>
     </cc:Agent>
    </dc:creator>
   </cc:Work>
  </rdf:RDF>
 </metadata>
 <defs>
  <style type="text/css">*{stroke-linejoin: round; stroke-linecap: butt}</style>
 </defs>
 <g id="frame0112_976ae6_figure_1">
  <g id="frame0112_976ae6_patch_1">
   <path d="M 0 338.54 
L 453.6 338.54 
L 453.6 0 
L 0 0 
L 0 338.54 
z
" style="fill: none; opacity: 0"/>
  </g>
  <g id="frame0112_976ae6_axes_1">
   <g id="frame0112_976ae6_patch_2">
    <path d="M 7.2 331.34 
L 443.4 331.34 
L 443.4 16.556315 
L 7.2 16.556315 
L 7.2 331.34 
z
" style="fill: none; opacity: 0"/>
   </g>
   <g id="frame0112_976ae6_matplotlib.axis_1">
    <g id="frame0112_976ae6_xtick_1">
     <g id="frame0112_976ae6_line2d_1">
      <path d="M 79.9 331.34 
L 79.9 16.556315 
" clip-path="url(#frame0112_976ae6_pf4d3cdd9e3)" style="fill: none; stroke-dasharray: 2.96,1.28; stroke-dashoffset: 0; stroke: #b0b0b0; stroke-opacity: 0.6; stroke-width: 0.8"/>
     </g>
     <g id="frame0112_976ae6_line2d_2">
      <defs>
       <path id="frame0112_976ae6_m1839746972" d="M 0 0 
L 0 3.5 
" style="stroke: #000000; stroke-width: 0.8"/>
      </defs>
      <g>
       <use xlink:href="#frame0112_976ae6_m1839746972" x="79.9" y="173.948158" style="stroke: #000000; stroke-width: 0.8"/>
      </g>
     </g>
     <g id="frame0112_976ae6_text_1">
      <!-- $\mathdefault{−1}$ -->
      <g transform="translate(67.582209 194.785154) scale(0.2 -0.2)">
       <defs>
        <path id="frame0112_976ae6_CMSY10-0" d="M 4218 1472 
C 4326 1472 4442 1472 4442 1600 
C 4442 1728 4326 1728 4218 1728 
L 755 1728 
C 646 1728 531 1728 531 1600 
C 531 1472 646 1472 755 1472 
L 4218 1472 
z
" transform="scale(0.015625)"/>
        <path id="frame0112_976ae6_CMR17-31" d="M 1702 4058 
C 1702 4192 1696 4192 1606 4192 
C 1357 3916 979 3827 621 3827 
C 602 3827 570 3827 563 3808 
C 557 3795 557 3782 557 3648 
C 755 3648 1088 3686 1344 3839 
L 1344 461 
C 1344 236 1331 160 781 160 
L 589 160 
L 589 0 
C 896 0 1216 0 1523 0 
C 1830 0 2150 0 2458 0 
L 2458 160 
L 2266 160 
C 1715 160 1702 230 1702 458 
L 1702 4058 
z
" transform="scale(0.015625)"/>
       </defs>
       <use xlink:href="#frame0112_976ae6_CMSY10-0" transform="scale(0.996264)"/>
       <use xlink:href="#frame0112_976ae6_CMR17-31" transform="translate(77.487468 0) scale(0.996264)"/>
      </g>
     </g>
    </g>
    <g id="frame0112_976ae6_xtick_2">
     <g id="frame0112_976ae6_line2d_3">
      <path d="M 370.7 331.34 
L 370.7 16.556315 
" clip-path="url(#frame0112_976ae6_pf4d3cdd9e3)" style="fill: none; stroke-dasharray: 2.96,1.28; stroke-dashoffset: 0; stroke: #b0b0b0; stroke-opacity: 0.6; stroke-width: 0.8"/>
     </g>
     <g id="frame0112_976ae6_line2d_4">
      <g>
       <use xlink:href="#frame0112_976ae6_m1839746972" x="370.7" y="173.948158" style="stroke: #000000; stroke-width: 0.8"/>
      </g>
     </g>
     <g id="frame0112_976ae6_text_2">
      <!-- $\mathdefault{1}$ -->
      <g transform="translate(366.130952 194.785154) scale(0.2 -0.2)">
       <use xlink:href="#frame0112_976ae6_CMR17-31" transform="scale(0.996264)"/>
      </g>
     </g>
    </g>
    <g id="frame0112_976ae6_text_3">
     <!-- $x$ -->
     <g transform="translate(432.313188 216.497785) scale(0.2 -0.2)">
      <defs>
       <path id="frame0112_976ae6_CMMI12-78" d="M 3034 2606 
C 2829 2567 2752 2414 2752 2293 
C 2752 2139 2874 2088 2963 2088 
C 3155 2088 3290 2254 3290 2427 
C 3290 2695 2982 2816 2714 2816 
C 2323 2816 2106 2433 2048 2312 
C 1901 2816 1504 2816 1389 2816 
C 736 2816 390 1980 390 1839 
C 390 1814 416 1782 461 1782 
C 512 1782 525 1820 538 1846 
C 755 2555 1184 2689 1370 2689 
C 1658 2689 1715 2420 1715 2267 
C 1715 2127 1677 1980 1600 1673 
L 1382 798 
C 1286 415 1101 64 762 64 
C 730 64 570 64 435 147 
C 666 192 717 383 717 460 
C 717 588 621 664 499 664 
C 346 664 179 530 179 326 
C 179 57 480 -64 755 -64 
C 1062 -64 1280 179 1414 441 
C 1517 64 1837 -64 2074 -64 
C 2726 -64 3072 773 3072 913 
C 3072 945 3046 971 3008 971 
C 2950 971 2944 939 2925 888 
C 2752 326 2381 64 2093 64 
C 1869 64 1747 230 1747 492 
C 1747 632 1773 734 1875 1156 
L 2099 2024 
C 2195 2408 2413 2689 2707 2689 
C 2720 2689 2899 2689 3034 2606 
z
" transform="scale(0.015625)"/>
      </defs>
      <use xlink:href="#frame0112_976ae6_CMMI12-78" transform="scale(0.996264)"/>
     </g>
    </g>
   </g>
   <g id="frame0112_976ae6_matplotlib.axis_2">
    <g id="frame0112_976ae6_ytick_1">
     <g id="frame0112_976ae6_line2d_5">
      <path d="M 7.2 278.876053 
L 443.4 278.876053 
" clip-path="url(#frame0112_976ae6_pf4d3cdd9e3)" style="fill: none; stroke-dasharray: 2.96,1.28; stroke-dashoffset: 0; stroke: #b0b0b0; stroke-opacity: 0.6; stroke-width: 0.8"/>
     </g>
     <g id="frame0112_976ae6_line2d_6">
      <defs>
       <path id="frame0112_976ae6_m8c68e822cb" d="M 0 0 
L -3.5 0 
" style="stroke: #000000; stroke-width: 0.8"/>
      </defs>
      <g>
       <use xlink:href="#frame0112_976ae6_m8c68e822cb" x="225.3" y="278.876053" style="stroke: #000000; stroke-width: 0.8"/>
      </g>
     </g>
     <g id="frame0112_976ae6_text_4">
      <!-- $\mathdefault{−1}$ -->
      <g transform="translate(193.664417 285.794551) scale(0.2 -0.2)">
       <use xlink:href="#frame0112_976ae6_CMSY10-0" transform="scale(0.996264)"/>
       <use xlink:href="#frame0112_976ae6_CMR17-31" transform="translate(77.487468 0) scale(0.996264)"/>
      </g>
     </g>
    </g>
    <g id="frame0112_976ae6_ytick_2">
     <g id="frame0112_976ae6_line2d_7">
      <path d="M 7.2 69.020263 
L 443.4 69.020263 
" clip-path="url(#frame0112_976ae6_pf4d3cdd9e3)" style="fill: none; stroke-dasharray: 2.96,1.28; stroke-dashoffset: 0; stroke: #b0b0b0; stroke-opacity: 0.6; stroke-width: 0.8"/>
     </g>
     <g id="frame0112_976ae6_line2d_8">
      <g>
       <use xlink:href="#frame0112_976ae6_m8c68e822cb" x="225.3" y="69.020263" style="stroke: #000000; stroke-width: 0.8"/>
      </g>
     </g>
     <g id="frame0112_976ae6_text_5">
      <!-- $\mathdefault{1}$ -->
      <g transform="translate(209.161905 75.938761) scale(0.2 -0.2)">
       <use xlink:href="#frame0112_976ae6_CMR17-31" transform="scale(0.996264)"/>
      </g>
     </g>
    </g>
    <g id="frame0112_976ae6_text_6">
     <!-- $y$ -->
     <g transform="translate(180.151583 12.680682) scale(0.2 -0.2)">
      <defs>
       <path id="frame0112_976ae6_CMMI12-79" d="M 1683 -700 
C 1510 -939 1261 -1152 947 -1152 
C 870 -1152 563 -1152 467 -889 
C 486 -895 518 -895 531 -895 
C 723 -895 851 -729 851 -582 
C 851 -435 730 -384 634 -384 
C 531 -384 307 -458 307 -759 
C 307 -1071 582 -1286 947 -1286 
C 1587 -1286 2234 -700 2413 6 
L 3040 2485 
C 3046 2517 3059 2556 3059 2594 
C 3059 2689 2982 2753 2886 2753 
C 2829 2753 2694 2727 2643 2535 
L 2170 658 
C 2138 543 2138 530 2086 460 
C 1958 281 1747 64 1440 64 
C 1082 64 1050 415 1050 588 
C 1050 952 1222 1443 1395 1903 
C 1466 2088 1504 2178 1504 2305 
C 1504 2574 1312 2816 998 2816 
C 410 2816 173 1890 173 1839 
C 173 1814 198 1782 243 1782 
C 301 1782 307 1807 333 1897 
C 486 2433 730 2689 979 2689 
C 1037 2689 1146 2689 1146 2478 
C 1146 2312 1075 2127 979 1884 
C 666 1047 666 837 666 683 
C 666 77 1101 -64 1421 -64 
C 1606 -64 1837 -6 2061 230 
L 2067 224 
C 1971 -147 1907 -392 1683 -700 
z
" transform="scale(0.015625)"/>
      </defs>
      <use xlink:href="#frame0112_976ae6_CMMI12-79" transform="scale(0.996264)"/>
     </g>
    </g>
   </g>
   <g id="frame0112_976ae6_line2d_9">
    <defs>
     <path id="frame0112_976ae6_mce05f6b225" d="M 3 0 
L -3 -3 
L -3 3 
z
" style="stroke: #000000; stroke-linejoin: miter"/>
    </defs>
    <g>
     <use xlink:href="#frame0112_976ae6_mce05f6b225" x="443.4" y="173.948158" style="stroke: #000000; stroke-linejoin: miter"/>
    </g>
   </g>
   <g id="frame0112_976ae6_line2d_10">
    <defs>
     <path id="frame0112_976ae6_m57a88f4d3e" d="M 0 -3 
L -3 3 
L 3 3 
z
" style="stroke: #000000; stroke-linejoin: miter"/>
    </defs>
    <g>
     <use xlink:href="#frame0112_976ae6_m57a88f4d3e" x="225.3" y="16.556315" style="stroke: #000000; stroke-linejoin: miter"/>
    </g>
   </g>
   <g id="frame0112_976ae6_line2d_11">
    <defs>
     <path id="frame0112_976ae6_m4a22cdc1c2" d="M 0 5 
C 1.326016 5 2.597899 4.473168 3.535534 3.535534 
C 4.473168 2.597899 5 1.326016 5 0 
C 5 -1.326016 4.473168 -2.597899 3.535534 -3.535534 
C 2.597899 -4.473168 1.326016 -5 0 -5 
C -1.326016 -5 -2.597899 -4.473168 -3.535534 -3.535534 
C -4.473168 -2.597899 -5 -1.326016 -5 0 
C -5 1.326016 -4.473168 2.597899 -3.535534 3.535534 
C -2.597899 4.473168 -1.326016 5 0 5 
z
" style="stroke: #000000; stroke-opacity: 0.8"/>
    </defs>
    <g clip-path="url(#frame0112_976ae6_pf4d3cdd9e3)">
     <use xlink:href="#frame0112_976ae6_m4a22cdc1c2" x="332.466369" y="244.862991" style="fill-opacity: 0.8; stroke: #000000; stroke-opacity: 0.8"/>
    </g>
   </g>
   <g id="frame0112_976ae6_line2d_12">
    <path d="M 370.7 173.948158 
L 370.643638 171.026859 
L 370.474595 168.107825 
L 370.193002 165.19332 
L 369.799077 162.285601 
L 369.293127 159.386924 
L 368.675542 156.499536 
L 367.107473 150.767571 
L 365.099732 145.107477 
L 362.658544 139.536803 
L 359.791477 134.07282 
L 356.507421 128.732471 
L 352.816558 123.532312 
L 348.730332 118.488468 
L 344.261411 113.616575 
L 339.423652 108.931739 
L 334.232055 104.448486 
L 328.702714 100.180716 
L 322.852775 96.141661 
L 316.700375 92.343844 
L 310.26459 88.79904 
L 303.565372 85.51824 
L 296.623494 82.511615 
L 289.460478 79.788489 
L 282.098534 77.357303 
L 274.560486 75.225596 
L 266.869707 73.399977 
L 259.050042 71.886106 
L 251.125735 70.688678 
L 243.121355 69.811404 
L 235.061721 69.257005 
L 226.97182 69.027199 
L 218.876737 69.122699 
L 210.801568 69.54321 
L 202.771352 70.287426 
L 194.810985 71.353042 
L 186.945149 72.736752 
L 179.198232 74.434267 
L 171.594253 76.440323 
L 164.156788 78.748702 
L 156.908897 81.352245 
L 149.873051 84.24288 
L 143.071065 87.411645 
L 136.52403 90.848716 
L 130.252243 94.543436 
L 124.27515 98.484348 
L 118.611284 102.659236 
L 113.278205 107.055154 
L 108.292448 111.658472 
L 103.669471 116.454919 
L 99.423608 121.429624 
L 95.568023 126.567161 
L 92.114671 131.851602 
L 89.074258 137.266563 
L 86.456211 142.795255 
L 84.268648 148.420536 
L 82.51835 154.124965 
L 81.808926 157.001342 
L 81.210745 159.890856 
L 80.724274 162.791269 
L 80.349887 165.700331 
L 80.087877 168.615788 
L 79.938445 171.535379 
L 79.901709 174.45684 
L 79.977695 177.377907 
L 80.166346 180.296315 
L 80.467515 183.209802 
L 80.880968 186.116108 
L 81.406385 189.01298 
L 82.04336 191.898174 
L 83.649916 197.624586 
L 85.695658 203.27759 
L 88.17424 208.839658 
L 91.07798 214.293545 
L 94.397873 219.622343 
L 98.123626 224.809528 
L 102.243688 229.839018 
L 106.745285 234.695219 
L 111.614458 239.363074 
L 116.836113 243.828112 
L 122.394058 248.076487 
L 128.271062 252.095029 
L 134.448903 255.871277 
L 140.908427 259.393524 
L 147.629605 262.650848 
L 154.5916 265.633151 
L 161.772825 268.331186 
L 169.151015 270.736587 
L 176.703295 272.841897 
L 184.406248 274.640589 
L 192.235991 276.127084 
L 200.168249 277.296776 
L 208.178428 278.146036 
L 216.241692 278.672232 
L 224.333041 278.873732 
L 232.427388 278.749912 
L 240.499637 278.301156 
L 248.524759 277.528854 
L 256.477874 276.435402 
L 264.334322 275.024189 
L 272.069744 273.299592 
L 279.660157 271.266956 
L 287.082028 268.932585 
L 294.312344 266.303716 
L 301.328688 263.3885 
L 308.109306 260.195975 
L 314.633175 256.736039 
L 320.880068 253.019421 
L 326.830616 249.057644 
L 332.466369 244.862991 
L 332.466369 244.862991 
" clip-path="url(#frame0112_976ae6_pf4d3cdd9e3)" style="fill: none; stroke: #0072b2; stroke-width: 2.5; stroke-linecap: square"/>
   </g>
   <g id="frame0112_976ae6_patch_3">
    <path d="M 225.3 331.34 
L 225.3 16.556315 
" style="fill: none; stroke: #000000; stroke-width: 0.8; stroke-linejoin: miter; stroke-linecap: square"/>
   </g>
   <g id="frame0112_976ae6_patch_4">
    <path d="M 443.4 331.34 
L 443.4 16.556315 
" style="fill: none"/>
   </g>
   <g id="frame0112_976ae6_patch_5">
    <path d="M 7.2 173.948158 
L 443.4 173.948158 
" style="fill: none; stroke: #000000; stroke-width: 0.8; stroke-linejoin: miter; stroke-linecap: square"/>
   </g>
   <g id="frame0112_976ae6_patch_6">
    <path d="M 7.2 16.556315 
L 443.4 16.556315 
" style="fill: none"/>
   </g>
  </g>
 </g>
 <defs>
  <clipPath id="frame0112_976ae6_pf4d3cdd9e3">
   <rect x="7.2" y="16.556315" width="436.2" height="314.783685"/>
  </clipPath>
 </defs>
</svg>
