<?xml version="1.0" encoding="utf-8" standalone="no"?>
<!DOCTYPE svg PUBLIC "-//W3C//DTD SVG 1.1//EN"
  "http://www.w3.org/Graphics/SVG/1.1/DTD/svg11.dtd">
<svg xmlns:xlink="http://www.w3.org/1999/xlink" width="453.6pt" height="338.54pt" viewBox="0 0 453.6 338.54" xmlns="http://www.w3.org/2000/svg" version="1.1">
 <metadata>
  <rdf:RDF xmlns:dc="http://purl.org/dc/elements/1.1/" xmlns:cc="http://creativecommons.org/ns#" xmlns:rdf="http://www.w3.org/1999/02/22-rdf-syntax-ns#">
   <cc:Work>
    <dc:type rdf:resource="http://purl.org/dc/dcmitype/StillImage"/>
    <dc:date>2026-01-22T01:58:28.645726</dc:date>
    <dc:format>image/svg+xml</dc:format>
    <dc:creator>
     <cc:Agent>
      <dc:title>Matplotlib v3.9.1, https://matplotlib.org/</dc:title>
     </cc:Agent>
    </dc:creator>
   </cc:Work>
  </rdf:RDF>
 </metadata>
 <defs>
  <style type="text/css">*{stroke-linejoin: round; stroke-linecap: butt}</style>
 </defs>
 <g id="frame0107_b847d9_figure_1">
  <g id="frame0107_b847d9_patch_1">
   <path d="M 0 338.54 
L 453.6 338.54 
L 453.6 0 
L 0 0 
L 0 338.54 
z
" style="fill: none; opacity: 0"/>
  </g>
  <g id="frame0107_b847d9_axes_1">
   <g id="frame0107_b847d9_patch_2">
    <path d="M 7.2 331.34 
L 443.4 331.34 
L 443.4 16.556315 
L 7.2 16.556315 
L 7.2 331.34 
z
" style="fill: none; opacity: 0"/>
   </g>
   <g id="frame0107_b847d9_matplotlib.axis_1">
    <g id="frame0107_b847d9_xtick_1">
     <g id="frame0107_b847d9_line2d_1">
      <path d="M 79.9 331.34 
L 79.9 16.556315 
" clip-path="url(#frame0107_b847d9_pb261c05563)" style="fill: none; stroke-dasharray: 2.96,1.28; stroke-dashoffset: 0; stroke: #b0b0b0; stroke-opacity: 0.6; stroke-width: 0.8"/>
     </g>
     <g id="frame0107_b847d9_line2d_2">
      <defs>
       <path id="frame0107_b847d9_m660964196c" d="M 0 0 
L 0 3.5 
" style="stroke: #000000; stroke-width: 0.8"/>
      </defs>
      <g>
       <use xlink:href="#frame0107_b847d9_m660964196c" x="79.9" y="173.948158" style="stroke: #000000; stroke-width: 0.8"/>
      </g>
     </g>
     <g id="frame0107_b847d9_text_1">
      <!-- $\mathdefault{−1}$ -->
      <g transform="translate(67.582209 194.785154) scale(0.2 -0.2)">
       <defs>
        <path id="frame0107_b847d9_CMSY10-0" d="M 4218 1472 
C 4326 1472 4442 1472 4442 1600 
C 4442 1728 4326 1728 4218 1728 
L 755 1728 
C 646 1728 531 1728 531 1600 
C 531 1472 646 1472 755 1472 
L 4218 1472 
z
" transform="scale(0.015625)"/>
        <path id="frame0107_b847d9_CMR17-31" d="M 1702 4058 
C 1702 4192 1696 4192 1606 4192 
C 1357 3916 979 3827 621 3827 
C 602 3827 570 3827 563 3808 
C 557 3795 557 3782 557 3648 
C 755 3648 1088 3686 1344 3839 
L 1344 461 
C 1344 236 1331 160 781 160 
L 589 160 
L 589 0 
C 896 0 1216 0 1523 0 
C 1830 0 2150 0 2458 0 
L 2458 160 
L 2266 160 
C 1715 160 1702 230 1702 458 
L 1702 4058 
z
" transform="scale(0.015625)"/>
       </defs>
       <use xlink:href="#frame0107_b847d9_CMSY10-0" transform="scale(0.996264)"/>
       <use xlink:href="#frame0107_b847d9_CMR17-31" transform="translate(77.487468 0) scale(0.996264)"/>
      </g>
     </g>
    </g>
    <g id="frame0107_b847d9_xtick_2">
     <g id="frame0107_b847d9_line2d_3">
      <path d="M 370.7 331.34 
L 370.7 16.556315 
" clip-path="url(#frame0107_b847d9_pb261c05563)" style="fill: none; stroke-dasharray: 2.96,1.28; stroke-dashoffset: 0; stroke: #b0b0b0; stroke-opacity: 0.6; stroke-width: 0.8"/>
     </g>
     <g id="frame0107_b847d9_line2d_4">
      <g>
       <use xlink:href="#frame0107_b847d9_m660964196c" x="370.7" y="173.948158" style="stroke: #000000; stroke-width: 0.8"/>
      </g>
     </g>
     <g id="frame0107_b847d9_text_2">
      <!-- $\mathdefault{1}$ -->
      <g transform="translate(366.130952 194.785154) scale(0.2 -0.2)">
       <use xlink:href="#frame0107_b847d9_CMR17-31" transform="scale(0.996264)"/>
      </g>
     </g>
    </g>
    <g id="frame0107_b847d9_text_3">
     <!-- $x$ -->
     <g transform="translate(432.313188 216.497785) scale(0.2 -0.2)">
      <defs>
       <path id="frame0107_b847d9_CMMI12-78" d="M 3034 2606 
C 2829 2567 2752 2414 2752 2293 
C 2752 2139 2874 2088 2963 2088 
C 3155 2088 3290 2254 3290 2427 
C 3290 2695 2982 2816 2714 2816 
C 2323 2816 2106 2433 2048 2312 
C 1901 2816 1504 2816 1389 2816 
C 736 2816 390 1980 390 1839 
C 390 1814 416 1782 461 1782 
C 512 1782 525 1820 538 1846 
C 755 2555 1184 2689 1370 2689 
C 1658 2689 1715 2420 1715 2267 
C 1715 2127 1677 1980 1600 1673 
L 1382 798 
C 1286 415 1101 64 762 64 
C 730 64 570 64 435 147 
C 666 192 717 383 717 460 
C 717 588 621 664 499 664 
C 346 664 179 530 179 326 
C 179 57 480 -64 755 -64 
C 1062 -64 1280 179 1414 441 
C 1517 64 1837 -64 2074 -64 
C 2726 -64 3072 773 3072 913 
C 3072 945 3046 971 3008 971 
C 2950 971 2944 939 2925 888 
C 2752 326 2381 64 2093 64 
C 1869 64 1747 230 1747 492 
C 1747 632 1773 734 1875 1156 
L 2099 2024 
C 2195 2408 2413 2689 2707 2689 
C 2720 2689 2899 2689 3034 2606 
z
" transform="scale(0.015625)"/>
      </defs>
      <use xlink:href="#frame0107_b847d9_CMMI12-78" transform="scale(0.996264)"/>
     </g>
    </g>
   </g>
   <g id="frame0107_b847d9_matplotlib.axis_2">
    <g id="frame0107_b847d9_ytick_1">
     <g id="frame0107_b847d9_line2d_5">
      <path d="M 7.2 278.876053 
L 443.4 278.876053 
" clip-path="url(#frame0107_b847d9_pb261c05563)" style="fill: none; stroke-dasharray: 2.96,1.28; stroke-dashoffset: 0; stroke: #b0b0b0; stroke-opacity: 0.6; stroke-width: 0.8"/>
     </g>
     <g id="frame0107_b847d9_line2d_6">
      <defs>
       <path id="frame0107_b847d9_mcd533c7814" d="M 0 0 
L -3.5 0 
" style="stroke: #000000; stroke-width: 0.8"/>
      </defs>
      <g>
       <use xlink:href="#frame0107_b847d9_mcd533c7814" x="225.3" y="278.876053" style="stroke: #000000; stroke-width: 0.8"/>
      </g>
     </g>
     <g id="frame0107_b847d9_text_4">
      <!-- $\mathdefault{−1}$ -->
      <g transform="translate(193.664417 285.794551) scale(0.2 -0.2)">
       <use xlink:href="#frame0107_b847d9_CMSY10-0" transform="scale(0.996264)"/>
       <use xlink:href="#frame0107_b847d9_CMR17-31" transform="translate(77.487468 0) scale(0.996264)"/>
      </g>
     </g>
    </g>
    <g id="frame0107_b847d9_ytick_2">
     <g id="frame0107_b847d9_line2d_7">
      <path d="M 7.2 69.020263 
L 443.4 69.020263 
" clip-path="url(#frame0107_b847d9_pb261c05563)" style="fill: none; stroke-dasharray: 2.96,1.28; stroke-dashoffset: 0; stroke: #b0b0b0; stroke-opacity: 0.6; stroke-width: 0.8"/>
     </g>
     <g id="frame0107_b847d9_line2d_8">
      <g>
       <use xlink:href="#frame0107_b847d9_mcd533c7814" x="225.3" y="69.020263" style="stroke: #000000; stroke-width: 0.8"/>
      </g>
     </g>
     <g id="frame0107_b847d9_text_5">
      <!-- $\mathdefault{1}$ -->
      <g transform="translate(209.161905 75.938761) scale(0.2 -0.2)">
       <use xlink:href="#frame0107_b847d9_CMR17-31" transform="scale(0.996264)"/>
      </g>
     </g>
    </g>
    <g id="frame0107_b847d9_text_6">
     <!-- $y$ -->
     <g transform="translate(180.151583 12.680682) scale(0.2 -0.2)">
      <defs>
       <path id="frame0107_b847d9_CMMI12-79" d="M 1683 -700 
C 1510 -939 1261 -1152 947 -1152 
C 870 -1152 563 -1152 467 -889 
C 486 -895 518 -895 531 -895 
C 723 -895 851 -729 851 -582 
C 851 -435 730 -384 634 -384 
C 531 -384 307 -458 307 -759 
C 307 -1071 582 -1286 947 -1286 
C 1587 -1286 2234 -700 2413 6 
L 3040 2485 
C 3046 2517 3059 2556 3059 2594 
C 3059 2689 2982 2753 2886 2753 
C 2829 2753 2694 2727 2643 2535 
L 2170 658 
C 2138 543 2138 530 2086 460 
C 1958 281 1747 64 1440 64 
C 1082 64 1050 415 1050 588 
C 1050 952 1222 1443 1395 1903 
C 1466 2088 1504 2178 1504 2305 
C 1504 2574 1312 2816 998 2816 
C 410 2816 173 1890 173 1839 
C 173 1814 198 1782 243 1782 
C 301 1782 307 1807 333 1897 
C 486 2433 730 2689 979 2689 
C 1037 2689 1146 2689 1146 2478 
C 1146 2312 1075 2127 979 1884 
C 666 1047 666 837 666 683 
C 666 77 1101 -64 1421 -64 
C 1606 -64 1837 -6 2061 230 
L 2067 224 
C 1971 -147 1907 -392 1683 -700 
z
" transform="scale(0.015625)"/>
      </defs>
      <use xlink:href="#frame0107_b847d9_CMMI12-79" transform="scale(0.996264)"/>
     </g>
    </g>
   </g>
   <g id="frame0107_b847d9_line2d_9">
    <defs>
     <path id="frame0107_b847d9_m46c81b9719" d="M 3 0 
L -3 -3 
L -3 3 
z
" style="stroke: #000000; stroke-linejoin: miter"/>
    </defs>
    <g>
     <use xlink:href="#frame0107_b847d9_m46c81b9719" x="443.4" y="173.948158" style="stroke: #000000; stroke-linejoin: miter"/>
    </g>
   </g>
   <g id="frame0107_b847d9_line2d_10">
    <defs>
     <path id="frame0107_b847d9_m0fc5220363" d="M 0 -3 
L -3 3 
L 3 3 
z
" style="stroke: #000000; stroke-linejoin: miter"/>
    </defs>
    <g>
     <use xlink:href="#frame0107_b847d9_m0fc5220363" x="225.3" y="16.556315" style="stroke: #000000; stroke-linejoin: miter"/>
    </g>
   </g>
   <g id="frame0107_b847d9_line2d_11">
    <defs>
     <path id="frame0107_b847d9_m9d7fec6249" d="M 0 5 
C 1.326016 5 2.597899 4.473168 3.535534 3.535534 
C 4.473168 2.597899 5 1.326016 5 0 
C 5 -1.326016 4.473168 -2.597899 3.535534 -3.535534 
C 2.597899 -4.473168 1.326016 -5 0 -5 
C -1.326016 -5 -2.597899 -4.473168 -3.535534 -3.535534 
C -4.473168 -2.597899 -5 -1.326016 -5 0 
C -5 1.326016 -4.473168 2.597899 -3.535534 3.535534 
C -2.597899 4.473168 -1.326016 5 0 5 
z
" style="stroke: #000000; stroke-opacity: 0.8"/>
    </defs>
    <g clip-path="url(#frame0107_b847d9_pb261c05563)">
     <use xlink:href="#frame0107_b847d9_m9d7fec6249" x="305.142948" y="261.640539" style="fill-opacity: 0.8; stroke: #000000; stroke-opacity: 0.8"/>
    </g>
   </g>
   <g id="frame0107_b847d9_line2d_12">
    <path d="M 370.7 173.948158 
L 370.494266 168.368303 
L 369.877647 162.804238 
L 368.851887 157.27171 
L 367.41989 151.786375 
L 365.585708 146.363755 
L 363.35453 141.019196 
L 360.732673 135.767823 
L 357.727554 130.624496 
L 354.347678 125.603772 
L 350.60261 120.719857 
L 346.502948 115.986572 
L 342.060294 111.417314 
L 337.28722 107.025011 
L 332.197233 102.822095 
L 326.804737 98.820458 
L 321.124993 95.031425 
L 315.174074 91.465718 
L 308.96882 88.133429 
L 302.526791 85.043987 
L 295.866219 82.206135 
L 289.005951 79.627904 
L 281.965401 77.316589 
L 274.764494 75.278733 
L 267.423608 73.520101 
L 259.963515 72.045671 
L 252.405329 70.859614 
L 244.770437 69.965288 
L 237.080445 69.365224 
L 229.357116 69.061118 
L 221.622306 69.053833 
L 213.897903 69.343388 
L 206.205768 69.928964 
L 198.567667 70.808904 
L 191.005215 71.980718 
L 183.539815 73.44109 
L 176.192592 75.185887 
L 168.984338 77.210172 
L 161.935451 79.508215 
L 155.065881 82.073514 
L 148.395065 84.898809 
L 141.941883 87.976105 
L 135.724597 91.296693 
L 129.760799 94.851177 
L 124.067369 98.629498 
L 118.660416 102.620962 
L 113.555243 106.814276 
L 108.766297 111.197572 
L 104.30713 115.758446 
L 100.19036 120.483991 
L 96.427638 125.360834 
L 93.029612 130.375175 
L 90.005899 135.512823 
L 87.365054 140.759239 
L 85.114552 146.099576 
L 83.26076 151.518722 
L 81.808926 157.001342 
L 80.763157 162.531919 
L 80.126413 168.094803 
L 79.900495 173.674251 
L 80.086044 179.254474 
L 80.682535 184.819681 
L 81.688278 190.354123 
L 83.100428 195.842137 
L 84.914989 201.268194 
L 87.126826 206.616938 
L 89.729679 211.873232 
L 92.716182 217.022202 
L 96.077885 222.049277 
L 99.805274 226.94023 
L 103.8878 231.681221 
L 108.313911 236.258833 
L 113.07108 240.660113 
L 118.145847 244.872603 
L 123.523849 248.884385 
L 129.189867 252.684105 
L 135.127868 256.26101 
L 141.321047 259.604977 
L 147.751878 262.706544 
L 154.402163 265.556934 
L 161.253081 268.14808 
L 168.285246 270.472649 
L 175.478757 272.524064 
L 182.813257 274.296519 
L 190.26799 275.784997 
L 197.821861 276.985288 
L 205.453492 277.893994 
L 213.141286 278.508543 
L 220.863489 278.827197 
L 228.598246 278.849053 
L 236.32367 278.57405 
L 244.017898 278.002967 
L 251.659156 277.137418 
L 259.22582 275.979854 
L 266.696478 274.533551 
L 274.049987 272.802601 
L 281.265539 270.791902 
L 288.322714 268.507146 
L 295.201541 265.954796 
L 301.882554 263.142078 
L 305.142948 261.640539 
L 305.142948 261.640539 
" clip-path="url(#frame0107_b847d9_pb261c05563)" style="fill: none; stroke: #0072b2; stroke-width: 2.5; stroke-linecap: square"/>
   </g>
   <g id="frame0107_b847d9_patch_3">
    <path d="M 225.3 331.34 
L 225.3 16.556315 
" style="fill: none; stroke: #000000; stroke-width: 0.8; stroke-linejoin: miter; stroke-linecap: square"/>
   </g>
   <g id="frame0107_b847d9_patch_4">
    <path d="M 443.4 331.34 
L 443.4 16.556315 
" style="fill: none"/>
   </g>
   <g id="frame0107_b847d9_patch_5">
    <path d="M 7.2 173.948158 
L 443.4 173.948158 
" style="fill: none; stroke: #000000; stroke-width: 0.8; stroke-linejoin: miter; stroke-linecap: square"/>
   </g>
   <g id="frame0107_b847d9_patch_6">
    <path d="M 7.2 16.556315 
L 443.4 16.556315 
" style="fill: none"/>
   </g>
  </g>
 </g>
 <defs>
  <clipPath id="frame0107_b847d9_pb261c05563">
   <rect x="7.2" y="16.556315" width="436.2" height="314.783685"/>
  </clipPath>
 </defs>
</svg>
