<?xml version="1.0" encoding="utf-8" standalone="no"?>
<!DOCTYPE svg PUBLIC "-//W3C//DTD SVG 1.1//EN"
  "http://www.w3.org/Graphics/SVG/1.1/DTD/svg11.dtd">
<svg xmlns:xlink="http://www.w3.org/1999/xlink" width="453.6pt" height="338.54pt" viewBox="0 0 453.6 338.54" xmlns="http://www.w3.org/2000/svg" version="1.1">
 <metadata>
  <rdf:RDF xmlns:dc="http://purl.org/dc/elements/1.1/" xmlns:cc="http://creativecommons.org/ns#" xmlns:rdf="http://www.w3.org/1999/02/22-rdf-syntax-ns#">
   <cc:Work>
    <dc:type rdf:resource="http://purl.org/dc/dcmitype/StillImage"/>
    <dc:date>2026-01-22T01:58:28.752394</dc:date>
    <dc:format>image/svg+xml</dc:format>
    <dc:creator>
     <cc:Agent>
      <dc:title>Matplotlib v3.9.1, https://matplotlib.org/</dc:title>
     </cc:Agent>
    </dc:creator>
   </cc:Work>
  </rdf:RDF>
 </metadata>
 <defs>
  <style type="text/css">*{stroke-linejoin: round; stroke-linecap: butt}</style>
 </defs>
 <g id="frame0111_452a57_figure_1">
  <g id="frame0111_452a57_patch_1">
   <path d="M 0 338.54 
L 453.6 338.54 
L 453.6 0 
L 0 0 
L 0 338.54 
z
" style="fill: none; opacity: 0"/>
  </g>
  <g id="frame0111_452a57_axes_1">
   <g id="frame0111_452a57_patch_2">
    <path d="M 7.2 331.34 
L 443.4 331.34 
L 443.4 16.556315 
L 7.2 16.556315 
L 7.2 331.34 
z
" style="fill: none; opacity: 0"/>
   </g>
   <g id="frame0111_452a57_matplotlib.axis_1">
    <g id="frame0111_452a57_xtick_1">
     <g id="frame0111_452a57_line2d_1">
      <path d="M 79.9 331.34 
L 79.9 16.556315 
" clip-path="url(#frame0111_452a57_p3dfe666f23)" style="fill: none; stroke-dasharray: 2.96,1.28; stroke-dashoffset: 0; stroke: #b0b0b0; stroke-opacity: 0.6; stroke-width: 0.8"/>
     </g>
     <g id="frame0111_452a57_line2d_2">
      <defs>
       <path id="frame0111_452a57_m84cd8f3189" d="M 0 0 
L 0 3.5 
" style="stroke: #000000; stroke-width: 0.8"/>
      </defs>
      <g>
       <use xlink:href="#frame0111_452a57_m84cd8f3189" x="79.9" y="173.948158" style="stroke: #000000; stroke-width: 0.8"/>
      </g>
     </g>
     <g id="frame0111_452a57_text_1">
      <!-- $\mathdefault{−1}$ -->
      <g transform="translate(67.582209 194.785154) scale(0.2 -0.2)">
       <defs>
        <path id="frame0111_452a57_CMSY10-0" d="M 4218 1472 
C 4326 1472 4442 1472 4442 1600 
C 4442 1728 4326 1728 4218 1728 
L 755 1728 
C 646 1728 531 1728 531 1600 
C 531 1472 646 1472 755 1472 
L 4218 1472 
z
" transform="scale(0.015625)"/>
        <path id="frame0111_452a57_CMR17-31" d="M 1702 4058 
C 1702 4192 1696 4192 1606 4192 
C 1357 3916 979 3827 621 3827 
C 602 3827 570 3827 563 3808 
C 557 3795 557 3782 557 3648 
C 755 3648 1088 3686 1344 3839 
L 1344 461 
C 1344 236 1331 160 781 160 
L 589 160 
L 589 0 
C 896 0 1216 0 1523 0 
C 1830 0 2150 0 2458 0 
L 2458 160 
L 2266 160 
C 1715 160 1702 230 1702 458 
L 1702 4058 
z
" transform="scale(0.015625)"/>
       </defs>
       <use xlink:href="#frame0111_452a57_CMSY10-0" transform="scale(0.996264)"/>
       <use xlink:href="#frame0111_452a57_CMR17-31" transform="translate(77.487468 0) scale(0.996264)"/>
      </g>
     </g>
    </g>
    <g id="frame0111_452a57_xtick_2">
     <g id="frame0111_452a57_line2d_3">
      <path d="M 370.7 331.34 
L 370.7 16.556315 
" clip-path="url(#frame0111_452a57_p3dfe666f23)" style="fill: none; stroke-dasharray: 2.96,1.28; stroke-dashoffset: 0; stroke: #b0b0b0; stroke-opacity: 0.6; stroke-width: 0.8"/>
     </g>
     <g id="frame0111_452a57_line2d_4">
      <g>
       <use xlink:href="#frame0111_452a57_m84cd8f3189" x="370.7" y="173.948158" style="stroke: #000000; stroke-width: 0.8"/>
      </g>
     </g>
     <g id="frame0111_452a57_text_2">
      <!-- $\mathdefault{1}$ -->
      <g transform="translate(366.130952 194.785154) scale(0.2 -0.2)">
       <use xlink:href="#frame0111_452a57_CMR17-31" transform="scale(0.996264)"/>
      </g>
     </g>
    </g>
    <g id="frame0111_452a57_text_3">
     <!-- $x$ -->
     <g transform="translate(432.313188 216.497785) scale(0.2 -0.2)">
      <defs>
       <path id="frame0111_452a57_CMMI12-78" d="M 3034 2606 
C 2829 2567 2752 2414 2752 2293 
C 2752 2139 2874 2088 2963 2088 
C 3155 2088 3290 2254 3290 2427 
C 3290 2695 2982 2816 2714 2816 
C 2323 2816 2106 2433 2048 2312 
C 1901 2816 1504 2816 1389 2816 
C 736 2816 390 1980 390 1839 
C 390 1814 416 1782 461 1782 
C 512 1782 525 1820 538 1846 
C 755 2555 1184 2689 1370 2689 
C 1658 2689 1715 2420 1715 2267 
C 1715 2127 1677 1980 1600 1673 
L 1382 798 
C 1286 415 1101 64 762 64 
C 730 64 570 64 435 147 
C 666 192 717 383 717 460 
C 717 588 621 664 499 664 
C 346 664 179 530 179 326 
C 179 57 480 -64 755 -64 
C 1062 -64 1280 179 1414 441 
C 1517 64 1837 -64 2074 -64 
C 2726 -64 3072 773 3072 913 
C 3072 945 3046 971 3008 971 
C 2950 971 2944 939 2925 888 
C 2752 326 2381 64 2093 64 
C 1869 64 1747 230 1747 492 
C 1747 632 1773 734 1875 1156 
L 2099 2024 
C 2195 2408 2413 2689 2707 2689 
C 2720 2689 2899 2689 3034 2606 
z
" transform="scale(0.015625)"/>
      </defs>
      <use xlink:href="#frame0111_452a57_CMMI12-78" transform="scale(0.996264)"/>
     </g>
    </g>
   </g>
   <g id="frame0111_452a57_matplotlib.axis_2">
    <g id="frame0111_452a57_ytick_1">
     <g id="frame0111_452a57_line2d_5">
      <path d="M 7.2 278.876053 
L 443.4 278.876053 
" clip-path="url(#frame0111_452a57_p3dfe666f23)" style="fill: none; stroke-dasharray: 2.96,1.28; stroke-dashoffset: 0; stroke: #b0b0b0; stroke-opacity: 0.6; stroke-width: 0.8"/>
     </g>
     <g id="frame0111_452a57_line2d_6">
      <defs>
       <path id="frame0111_452a57_m8e0e1ca5ab" d="M 0 0 
L -3.5 0 
" style="stroke: #000000; stroke-width: 0.8"/>
      </defs>
      <g>
       <use xlink:href="#frame0111_452a57_m8e0e1ca5ab" x="225.3" y="278.876053" style="stroke: #000000; stroke-width: 0.8"/>
      </g>
     </g>
     <g id="frame0111_452a57_text_4">
      <!-- $\mathdefault{−1}$ -->
      <g transform="translate(193.664417 285.794551) scale(0.2 -0.2)">
       <use xlink:href="#frame0111_452a57_CMSY10-0" transform="scale(0.996264)"/>
       <use xlink:href="#frame0111_452a57_CMR17-31" transform="translate(77.487468 0) scale(0.996264)"/>
      </g>
     </g>
    </g>
    <g id="frame0111_452a57_ytick_2">
     <g id="frame0111_452a57_line2d_7">
      <path d="M 7.2 69.020263 
L 443.4 69.020263 
" clip-path="url(#frame0111_452a57_p3dfe666f23)" style="fill: none; stroke-dasharray: 2.96,1.28; stroke-dashoffset: 0; stroke: #b0b0b0; stroke-opacity: 0.6; stroke-width: 0.8"/>
     </g>
     <g id="frame0111_452a57_line2d_8">
      <g>
       <use xlink:href="#frame0111_452a57_m8e0e1ca5ab" x="225.3" y="69.020263" style="stroke: #000000; stroke-width: 0.8"/>
      </g>
     </g>
     <g id="frame0111_452a57_text_5">
      <!-- $\mathdefault{1}$ -->
      <g transform="translate(209.161905 75.938761) scale(0.2 -0.2)">
       <use xlink:href="#frame0111_452a57_CMR17-31" transform="scale(0.996264)"/>
      </g>
     </g>
    </g>
    <g id="frame0111_452a57_text_6">
     <!-- $y$ -->
     <g transform="translate(180.151583 12.680682) scale(0.2 -0.2)">
      <defs>
       <path id="frame0111_452a57_CMMI12-79" d="M 1683 -700 
C 1510 -939 1261 -1152 947 -1152 
C 870 -1152 563 -1152 467 -889 
C 486 -895 518 -895 531 -895 
C 723 -895 851 -729 851 -582 
C 851 -435 730 -384 634 -384 
C 531 -384 307 -458 307 -759 
C 307 -1071 582 -1286 947 -1286 
C 1587 -1286 2234 -700 2413 6 
L 3040 2485 
C 3046 2517 3059 2556 3059 2594 
C 3059 2689 2982 2753 2886 2753 
C 2829 2753 2694 2727 2643 2535 
L 2170 658 
C 2138 543 2138 530 2086 460 
C 1958 281 1747 64 1440 64 
C 1082 64 1050 415 1050 588 
C 1050 952 1222 1443 1395 1903 
C 1466 2088 1504 2178 1504 2305 
C 1504 2574 1312 2816 998 2816 
C 410 2816 173 1890 173 1839 
C 173 1814 198 1782 243 1782 
C 301 1782 307 1807 333 1897 
C 486 2433 730 2689 979 2689 
C 1037 2689 1146 2689 1146 2478 
C 1146 2312 1075 2127 979 1884 
C 666 1047 666 837 666 683 
C 666 77 1101 -64 1421 -64 
C 1606 -64 1837 -6 2061 230 
L 2067 224 
C 1971 -147 1907 -392 1683 -700 
z
" transform="scale(0.015625)"/>
      </defs>
      <use xlink:href="#frame0111_452a57_CMMI12-79" transform="scale(0.996264)"/>
     </g>
    </g>
   </g>
   <g id="frame0111_452a57_line2d_9">
    <defs>
     <path id="frame0111_452a57_mfcc0146e29" d="M 3 0 
L -3 -3 
L -3 3 
z
" style="stroke: #000000; stroke-linejoin: miter"/>
    </defs>
    <g>
     <use xlink:href="#frame0111_452a57_mfcc0146e29" x="443.4" y="173.948158" style="stroke: #000000; stroke-linejoin: miter"/>
    </g>
   </g>
   <g id="frame0111_452a57_line2d_10">
    <defs>
     <path id="frame0111_452a57_m951bd307a5" d="M 0 -3 
L -3 3 
L 3 3 
z
" style="stroke: #000000; stroke-linejoin: miter"/>
    </defs>
    <g>
     <use xlink:href="#frame0111_452a57_m951bd307a5" x="225.3" y="16.556315" style="stroke: #000000; stroke-linejoin: miter"/>
    </g>
   </g>
   <g id="frame0111_452a57_line2d_11">
    <defs>
     <path id="frame0111_452a57_m068c7915b7" d="M 0 5 
C 1.326016 5 2.597899 4.473168 3.535534 3.535534 
C 4.473168 2.597899 5 1.326016 5 0 
C 5 -1.326016 4.473168 -2.597899 3.535534 -3.535534 
C 2.597899 -4.473168 1.326016 -5 0 -5 
C -1.326016 -5 -2.597899 -4.473168 -3.535534 -3.535534 
C -4.473168 -2.597899 -5 -1.326016 -5 0 
C -5 1.326016 -4.473168 2.597899 -3.535534 3.535534 
C -2.597899 4.473168 -1.326016 5 0 5 
z
" style="stroke: #000000; stroke-opacity: 0.8"/>
    </defs>
    <g clip-path="url(#frame0111_452a57_p3dfe666f23)">
     <use xlink:href="#frame0111_452a57_m068c7915b7" x="327.475542" y="248.600803" style="fill-opacity: 0.8; stroke: #000000; stroke-opacity: 0.8"/>
    </g>
   </g>
   <g id="frame0111_452a57_line2d_12">
    <path d="M 370.7 173.948158 
L 370.478601 168.159918 
L 369.815077 162.389306 
L 368.71145 156.653895 
L 367.17108 150.971152 
L 365.198658 145.358382 
L 362.800191 139.832679 
L 359.982984 134.410871 
L 356.755615 129.109469 
L 353.127914 123.944618 
L 349.110928 118.932047 
L 344.71689 114.087021 
L 339.959182 109.424295 
L 334.852294 104.958069 
L 329.411776 100.701944 
L 323.654198 96.668882 
L 317.597095 92.871165 
L 311.258911 89.320358 
L 304.658949 86.027275 
L 297.817309 83.001945 
L 290.754826 80.253581 
L 283.493009 77.790553 
L 276.053971 75.620362 
L 268.460368 73.749616 
L 260.735325 72.184013 
L 252.902368 70.928321 
L 244.985351 69.986363 
L 237.008385 69.36101 
L 228.995762 69.054163 
L 220.971884 69.06676 
L 212.961188 69.39876 
L 204.988067 70.049153 
L 197.076804 71.015959 
L 189.251492 72.296232 
L 181.535961 73.886074 
L 173.953708 75.780644 
L 166.527824 77.974171 
L 159.280924 80.459976 
L 152.235078 83.230488 
L 145.411742 86.27727 
L 138.831696 89.591043 
L 132.514979 93.161716 
L 126.480829 96.978415 
L 120.74762 101.029516 
L 115.332814 105.302682 
L 110.252899 109.7849 
L 105.523347 114.462519 
L 101.158561 119.321295 
L 97.171833 124.346431 
L 93.575304 129.522623 
L 90.379927 134.834108 
L 87.595434 140.26471 
L 85.230303 145.797891 
L 83.291739 151.4168 
L 81.785643 157.104326 
L 80.716604 162.843147 
L 80.087877 168.615788 
L 79.901376 174.404668 
L 80.15767 180.192158 
L 80.855977 185.960632 
L 81.994172 191.692524 
L 83.568788 197.370377 
L 85.575029 202.976901 
L 88.006787 208.495021 
L 90.856655 213.907932 
L 94.115954 219.199151 
L 97.774759 224.352563 
L 101.821927 229.352475 
L 106.245133 234.183659 
L 111.030906 238.831403 
L 116.164673 243.281553 
L 121.630798 247.520556 
L 127.412636 251.535503 
L 133.492579 255.314167 
L 139.85211 258.84504 
L 146.471862 262.11737 
L 153.331677 265.121191 
L 160.410662 267.847355 
L 167.68726 270.28756 
L 175.139311 272.434375 
L 182.744121 274.281261 
L 190.478529 275.822595 
L 198.318983 277.053682 
L 206.241603 277.970774 
L 214.222264 278.571076 
L 222.236661 278.852762 
L 230.260387 278.814974 
L 238.269006 278.457826 
L 246.23813 277.782406 
L 254.14349 276.79077 
L 261.96101 275.48594 
L 269.666883 273.871889 
L 277.237642 271.953531 
L 284.650231 269.73671 
L 291.882076 267.228175 
L 298.911152 264.435568 
L 305.716055 261.367392 
L 312.276061 258.03299 
L 318.57119 254.442519 
L 324.582274 250.606911 
L 327.475542 248.600803 
L 327.475542 248.600803 
" clip-path="url(#frame0111_452a57_p3dfe666f23)" style="fill: none; stroke: #0072b2; stroke-width: 2.5; stroke-linecap: square"/>
   </g>
   <g id="frame0111_452a57_patch_3">
    <path d="M 225.3 331.34 
L 225.3 16.556315 
" style="fill: none; stroke: #000000; stroke-width: 0.8; stroke-linejoin: miter; stroke-linecap: square"/>
   </g>
   <g id="frame0111_452a57_patch_4">
    <path d="M 443.4 331.34 
L 443.4 16.556315 
" style="fill: none"/>
   </g>
   <g id="frame0111_452a57_patch_5">
    <path d="M 7.2 173.948158 
L 443.4 173.948158 
" style="fill: none; stroke: #000000; stroke-width: 0.8; stroke-linejoin: miter; stroke-linecap: square"/>
   </g>
   <g id="frame0111_452a57_patch_6">
    <path d="M 7.2 16.556315 
L 443.4 16.556315 
" style="fill: none"/>
   </g>
  </g>
 </g>
 <defs>
  <clipPath id="frame0111_452a57_p3dfe666f23">
   <rect x="7.2" y="16.556315" width="436.2" height="314.783685"/>
  </clipPath>
 </defs>
</svg>
