<?xml version="1.0" encoding="utf-8" standalone="no"?>
<!DOCTYPE svg PUBLIC "-//W3C//DTD SVG 1.1//EN"
  "http://www.w3.org/Graphics/SVG/1.1/DTD/svg11.dtd">
<svg xmlns:xlink="http://www.w3.org/1999/xlink" width="453.6pt" height="338.54pt" viewBox="0 0 453.6 338.54" xmlns="http://www.w3.org/2000/svg" version="1.1">
 <metadata>
  <rdf:RDF xmlns:dc="http://purl.org/dc/elements/1.1/" xmlns:cc="http://creativecommons.org/ns#" xmlns:rdf="http://www.w3.org/1999/02/22-rdf-syntax-ns#">
   <cc:Work>
    <dc:type rdf:resource="http://purl.org/dc/dcmitype/StillImage"/>
    <dc:date>2026-01-22T01:58:29.495255</dc:date>
    <dc:format>image/svg+xml</dc:format>
    <dc:creator>
     <cc:Agent>
      <dc:title>Matplotlib v3.9.1, https://matplotlib.org/</dc:title>
     </cc:Agent>
    </dc:creator>
   </cc:Work>
  </rdf:RDF>
 </metadata>
 <defs>
  <style type="text/css">*{stroke-linejoin: round; stroke-linecap: butt}</style>
 </defs>
 <g id="frame0003_0495bc_figure_1">
  <g id="frame0003_0495bc_patch_1">
   <path d="M 0 338.54 
L 453.6 338.54 
L 453.6 0 
L 0 0 
L 0 338.54 
z
" style="fill: none; opacity: 0"/>
  </g>
  <g id="frame0003_0495bc_axes_1">
   <g id="frame0003_0495bc_patch_2">
    <path d="M 7.2 331.34 
L 443.4 331.34 
L 443.4 16.556315 
L 7.2 16.556315 
L 7.2 331.34 
z
" style="fill: none; opacity: 0"/>
   </g>
   <g id="frame0003_0495bc_matplotlib.axis_1">
    <g id="frame0003_0495bc_xtick_1">
     <g id="frame0003_0495bc_line2d_1">
      <path d="M 50.82 331.34 
L 50.82 16.556315 
" clip-path="url(#frame0003_0495bc_p69de4c187a)" style="fill: none; stroke-dasharray: 2.96,1.28; stroke-dashoffset: 0; stroke: #b0b0b0; stroke-opacity: 0.6; stroke-width: 0.8"/>
     </g>
     <g id="frame0003_0495bc_line2d_2">
      <defs>
       <path id="frame0003_0495bc_m0cc0e89576" d="M 0 0 
L 0 3.5 
" style="stroke: #000000; stroke-width: 0.8"/>
      </defs>
      <g>
       <use xlink:href="#frame0003_0495bc_m0cc0e89576" x="50.82" y="173.948158" style="stroke: #000000; stroke-width: 0.8"/>
      </g>
     </g>
     <g id="frame0003_0495bc_text_1">
      <!-- $\mathdefault{−4}$ -->
      <g transform="translate(38.502209 194.785154) scale(0.2 -0.2)">
       <defs>
        <path id="frame0003_0495bc_CMSY10-0" d="M 4218 1472 
C 4326 1472 4442 1472 4442 1600 
C 4442 1728 4326 1728 4218 1728 
L 755 1728 
C 646 1728 531 1728 531 1600 
C 531 1472 646 1472 755 1472 
L 4218 1472 
z
" transform="scale(0.015625)"/>
        <path id="frame0003_0495bc_CMR17-34" d="M 2150 4122 
C 2150 4256 2144 4256 2029 4256 
L 128 1254 
L 128 1088 
L 1779 1088 
L 1779 457 
C 1779 224 1766 160 1318 160 
L 1197 160 
L 1197 0 
C 1402 0 1747 0 1965 0 
C 2182 0 2528 0 2733 0 
L 2733 160 
L 2611 160 
C 2163 160 2150 224 2150 457 
L 2150 1088 
L 2803 1088 
L 2803 1254 
L 2150 1254 
L 2150 4122 
z
M 1798 3703 
L 1798 1254 
L 256 1254 
L 1798 3703 
z
" transform="scale(0.015625)"/>
       </defs>
       <use xlink:href="#frame0003_0495bc_CMSY10-0" transform="scale(0.996264)"/>
       <use xlink:href="#frame0003_0495bc_CMR17-34" transform="translate(77.487468 0) scale(0.996264)"/>
      </g>
     </g>
    </g>
    <g id="frame0003_0495bc_xtick_2">
     <g id="frame0003_0495bc_line2d_3">
      <path d="M 94.44 331.34 
L 94.44 16.556315 
" clip-path="url(#frame0003_0495bc_p69de4c187a)" style="fill: none; stroke-dasharray: 2.96,1.28; stroke-dashoffset: 0; stroke: #b0b0b0; stroke-opacity: 0.6; stroke-width: 0.8"/>
     </g>
     <g id="frame0003_0495bc_line2d_4">
      <g>
       <use xlink:href="#frame0003_0495bc_m0cc0e89576" x="94.44" y="173.948158" style="stroke: #000000; stroke-width: 0.8"/>
      </g>
     </g>
     <g id="frame0003_0495bc_text_2">
      <!-- $\mathdefault{−3}$ -->
      <g transform="translate(82.122209 194.785154) scale(0.2 -0.2)">
       <defs>
        <path id="frame0003_0495bc_CMR17-33" d="M 1414 2157 
C 1984 2157 2234 1662 2234 1090 
C 2234 320 1824 25 1453 25 
C 1114 25 563 194 390 693 
C 422 680 454 680 486 680 
C 640 680 755 782 755 948 
C 755 1133 614 1216 486 1216 
C 378 1216 211 1165 211 926 
C 211 335 787 -128 1466 -128 
C 2176 -128 2720 430 2720 1085 
C 2720 1707 2208 2157 1600 2227 
C 2086 2328 2554 2756 2554 3329 
C 2554 3820 2048 4179 1472 4179 
C 890 4179 378 3829 378 3329 
C 378 3110 544 3072 627 3072 
C 762 3072 877 3155 877 3321 
C 877 3486 762 3569 627 3569 
C 602 3569 570 3569 544 3557 
C 730 3959 1235 4032 1459 4032 
C 1683 4032 2106 3925 2106 3320 
C 2106 3143 2080 2828 1862 2550 
C 1670 2304 1453 2304 1242 2284 
C 1210 2284 1062 2269 1037 2269 
C 992 2263 966 2257 966 2208 
C 966 2163 973 2157 1101 2157 
L 1414 2157 
z
" transform="scale(0.015625)"/>
       </defs>
       <use xlink:href="#frame0003_0495bc_CMSY10-0" transform="scale(0.996264)"/>
       <use xlink:href="#frame0003_0495bc_CMR17-33" transform="translate(77.487468 0) scale(0.996264)"/>
      </g>
     </g>
    </g>
    <g id="frame0003_0495bc_xtick_3">
     <g id="frame0003_0495bc_line2d_5">
      <path d="M 138.06 331.34 
L 138.06 16.556315 
" clip-path="url(#frame0003_0495bc_p69de4c187a)" style="fill: none; stroke-dasharray: 2.96,1.28; stroke-dashoffset: 0; stroke: #b0b0b0; stroke-opacity: 0.6; stroke-width: 0.8"/>
     </g>
     <g id="frame0003_0495bc_line2d_6">
      <g>
       <use xlink:href="#frame0003_0495bc_m0cc0e89576" x="138.06" y="173.948158" style="stroke: #000000; stroke-width: 0.8"/>
      </g>
     </g>
     <g id="frame0003_0495bc_text_3">
      <!-- $\mathdefault{−2}$ -->
      <g transform="translate(125.742209 194.785154) scale(0.2 -0.2)">
       <defs>
        <path id="frame0003_0495bc_CMR17-32" d="M 2669 989 
L 2554 989 
C 2490 536 2438 459 2413 420 
C 2381 369 1920 369 1830 369 
L 602 369 
C 832 619 1280 1072 1824 1597 
C 2214 1967 2669 2402 2669 3035 
C 2669 3790 2067 4224 1395 4224 
C 691 4224 262 3604 262 3030 
C 262 2780 448 2748 525 2748 
C 589 2748 781 2787 781 3010 
C 781 3207 614 3264 525 3264 
C 486 3264 448 3258 422 3245 
C 544 3790 915 4058 1306 4058 
C 1862 4058 2227 3617 2227 3035 
C 2227 2479 1901 2000 1536 1584 
L 262 146 
L 262 0 
L 2515 0 
L 2669 989 
z
" transform="scale(0.015625)"/>
       </defs>
       <use xlink:href="#frame0003_0495bc_CMSY10-0" transform="scale(0.996264)"/>
       <use xlink:href="#frame0003_0495bc_CMR17-32" transform="translate(77.487468 0) scale(0.996264)"/>
      </g>
     </g>
    </g>
    <g id="frame0003_0495bc_xtick_4">
     <g id="frame0003_0495bc_line2d_7">
      <path d="M 181.68 331.34 
L 181.68 16.556315 
" clip-path="url(#frame0003_0495bc_p69de4c187a)" style="fill: none; stroke-dasharray: 2.96,1.28; stroke-dashoffset: 0; stroke: #b0b0b0; stroke-opacity: 0.6; stroke-width: 0.8"/>
     </g>
     <g id="frame0003_0495bc_line2d_8">
      <g>
       <use xlink:href="#frame0003_0495bc_m0cc0e89576" x="181.68" y="173.948158" style="stroke: #000000; stroke-width: 0.8"/>
      </g>
     </g>
     <g id="frame0003_0495bc_text_4">
      <!-- $\mathdefault{−1}$ -->
      <g transform="translate(169.362209 194.785154) scale(0.2 -0.2)">
       <defs>
        <path id="frame0003_0495bc_CMR17-31" d="M 1702 4058 
C 1702 4192 1696 4192 1606 4192 
C 1357 3916 979 3827 621 3827 
C 602 3827 570 3827 563 3808 
C 557 3795 557 3782 557 3648 
C 755 3648 1088 3686 1344 3839 
L 1344 461 
C 1344 236 1331 160 781 160 
L 589 160 
L 589 0 
C 896 0 1216 0 1523 0 
C 1830 0 2150 0 2458 0 
L 2458 160 
L 2266 160 
C 1715 160 1702 230 1702 458 
L 1702 4058 
z
" transform="scale(0.015625)"/>
       </defs>
       <use xlink:href="#frame0003_0495bc_CMSY10-0" transform="scale(0.996264)"/>
       <use xlink:href="#frame0003_0495bc_CMR17-31" transform="translate(77.487468 0) scale(0.996264)"/>
      </g>
     </g>
    </g>
    <g id="frame0003_0495bc_xtick_5">
     <g id="frame0003_0495bc_line2d_9">
      <path d="M 268.92 331.34 
L 268.92 16.556315 
" clip-path="url(#frame0003_0495bc_p69de4c187a)" style="fill: none; stroke-dasharray: 2.96,1.28; stroke-dashoffset: 0; stroke: #b0b0b0; stroke-opacity: 0.6; stroke-width: 0.8"/>
     </g>
     <g id="frame0003_0495bc_line2d_10">
      <g>
       <use xlink:href="#frame0003_0495bc_m0cc0e89576" x="268.92" y="173.948158" style="stroke: #000000; stroke-width: 0.8"/>
      </g>
     </g>
     <g id="frame0003_0495bc_text_5">
      <!-- $\mathdefault{1}$ -->
      <g transform="translate(264.350952 194.785154) scale(0.2 -0.2)">
       <use xlink:href="#frame0003_0495bc_CMR17-31" transform="scale(0.996264)"/>
      </g>
     </g>
    </g>
    <g id="frame0003_0495bc_xtick_6">
     <g id="frame0003_0495bc_line2d_11">
      <path d="M 312.54 331.34 
L 312.54 16.556315 
" clip-path="url(#frame0003_0495bc_p69de4c187a)" style="fill: none; stroke-dasharray: 2.96,1.28; stroke-dashoffset: 0; stroke: #b0b0b0; stroke-opacity: 0.6; stroke-width: 0.8"/>
     </g>
     <g id="frame0003_0495bc_line2d_12">
      <g>
       <use xlink:href="#frame0003_0495bc_m0cc0e89576" x="312.54" y="173.948158" style="stroke: #000000; stroke-width: 0.8"/>
      </g>
     </g>
     <g id="frame0003_0495bc_text_6">
      <!-- $\mathdefault{2}$ -->
      <g transform="translate(307.970952 194.785154) scale(0.2 -0.2)">
       <use xlink:href="#frame0003_0495bc_CMR17-32" transform="scale(0.996264)"/>
      </g>
     </g>
    </g>
    <g id="frame0003_0495bc_xtick_7">
     <g id="frame0003_0495bc_line2d_13">
      <path d="M 356.16 331.34 
L 356.16 16.556315 
" clip-path="url(#frame0003_0495bc_p69de4c187a)" style="fill: none; stroke-dasharray: 2.96,1.28; stroke-dashoffset: 0; stroke: #b0b0b0; stroke-opacity: 0.6; stroke-width: 0.8"/>
     </g>
     <g id="frame0003_0495bc_line2d_14">
      <g>
       <use xlink:href="#frame0003_0495bc_m0cc0e89576" x="356.16" y="173.948158" style="stroke: #000000; stroke-width: 0.8"/>
      </g>
     </g>
     <g id="frame0003_0495bc_text_7">
      <!-- $\mathdefault{3}$ -->
      <g transform="translate(351.590952 194.785154) scale(0.2 -0.2)">
       <use xlink:href="#frame0003_0495bc_CMR17-33" transform="scale(0.996264)"/>
      </g>
     </g>
    </g>
    <g id="frame0003_0495bc_xtick_8">
     <g id="frame0003_0495bc_line2d_15">
      <path d="M 399.78 331.34 
L 399.78 16.556315 
" clip-path="url(#frame0003_0495bc_p69de4c187a)" style="fill: none; stroke-dasharray: 2.96,1.28; stroke-dashoffset: 0; stroke: #b0b0b0; stroke-opacity: 0.6; stroke-width: 0.8"/>
     </g>
     <g id="frame0003_0495bc_line2d_16">
      <g>
       <use xlink:href="#frame0003_0495bc_m0cc0e89576" x="399.78" y="173.948158" style="stroke: #000000; stroke-width: 0.8"/>
      </g>
     </g>
     <g id="frame0003_0495bc_text_8">
      <!-- $\mathdefault{4}$ -->
      <g transform="translate(395.210952 194.785154) scale(0.2 -0.2)">
       <use xlink:href="#frame0003_0495bc_CMR17-34" transform="scale(0.996264)"/>
      </g>
     </g>
    </g>
    <g id="frame0003_0495bc_text_9">
     <!-- $x$ -->
     <g transform="translate(432.313188 216.497785) scale(0.2 -0.2)">
      <defs>
       <path id="frame0003_0495bc_CMMI12-78" d="M 3034 2606 
C 2829 2567 2752 2414 2752 2293 
C 2752 2139 2874 2088 2963 2088 
C 3155 2088 3290 2254 3290 2427 
C 3290 2695 2982 2816 2714 2816 
C 2323 2816 2106 2433 2048 2312 
C 1901 2816 1504 2816 1389 2816 
C 736 2816 390 1980 390 1839 
C 390 1814 416 1782 461 1782 
C 512 1782 525 1820 538 1846 
C 755 2555 1184 2689 1370 2689 
C 1658 2689 1715 2420 1715 2267 
C 1715 2127 1677 1980 1600 1673 
L 1382 798 
C 1286 415 1101 64 762 64 
C 730 64 570 64 435 147 
C 666 192 717 383 717 460 
C 717 588 621 664 499 664 
C 346 664 179 530 179 326 
C 179 57 480 -64 755 -64 
C 1062 -64 1280 179 1414 441 
C 1517 64 1837 -64 2074 -64 
C 2726 -64 3072 773 3072 913 
C 3072 945 3046 971 3008 971 
C 2950 971 2944 939 2925 888 
C 2752 326 2381 64 2093 64 
C 1869 64 1747 230 1747 492 
C 1747 632 1773 734 1875 1156 
L 2099 2024 
C 2195 2408 2413 2689 2707 2689 
C 2720 2689 2899 2689 3034 2606 
z
" transform="scale(0.015625)"/>
      </defs>
      <use xlink:href="#frame0003_0495bc_CMMI12-78" transform="scale(0.996264)"/>
     </g>
    </g>
   </g>
   <g id="frame0003_0495bc_matplotlib.axis_2">
    <g id="frame0003_0495bc_ytick_1">
     <g id="frame0003_0495bc_line2d_17">
      <path d="M 7.2 315.600816 
L 443.4 315.600816 
" clip-path="url(#frame0003_0495bc_p69de4c187a)" style="fill: none; stroke-dasharray: 2.96,1.28; stroke-dashoffset: 0; stroke: #b0b0b0; stroke-opacity: 0.6; stroke-width: 0.8"/>
     </g>
     <g id="frame0003_0495bc_line2d_18">
      <defs>
       <path id="frame0003_0495bc_m5cb061c9c6" d="M 0 0 
L -3.5 0 
" style="stroke: #000000; stroke-width: 0.8"/>
      </defs>
      <g>
       <use xlink:href="#frame0003_0495bc_m5cb061c9c6" x="225.3" y="315.600816" style="stroke: #000000; stroke-width: 0.8"/>
      </g>
     </g>
     <g id="frame0003_0495bc_text_10">
      <!-- $\mathdefault{−9}$ -->
      <g transform="translate(193.664417 322.519314) scale(0.2 -0.2)">
       <defs>
        <path id="frame0003_0495bc_CMR17-39" d="M 2253 1864 
C 2253 464 1670 31 1190 31 
C 1043 31 685 31 538 294 
C 704 268 826 357 826 518 
C 826 692 685 749 595 749 
C 538 749 365 723 365 506 
C 365 71 742 -128 1203 -128 
C 1939 -128 2688 674 2688 2073 
C 2688 3817 1971 4179 1485 4179 
C 851 4179 243 3628 243 2778 
C 243 1991 762 1408 1414 1408 
C 1952 1408 2189 1903 2253 2112 
L 2253 1864 
z
M 1427 1510 
C 1254 1510 1011 1542 813 1922 
C 678 2169 678 2461 678 2771 
C 678 3146 678 3405 858 3684 
C 947 3817 1114 4032 1485 4032 
C 2240 4032 2240 2885 2240 2632 
C 2240 2182 2035 1510 1427 1510 
z
" transform="scale(0.015625)"/>
       </defs>
       <use xlink:href="#frame0003_0495bc_CMSY10-0" transform="scale(0.996264)"/>
       <use xlink:href="#frame0003_0495bc_CMR17-39" transform="translate(77.487468 0) scale(0.996264)"/>
      </g>
     </g>
    </g>
    <g id="frame0003_0495bc_ytick_2">
     <g id="frame0003_0495bc_line2d_19">
      <path d="M 7.2 299.861632 
L 443.4 299.861632 
" clip-path="url(#frame0003_0495bc_p69de4c187a)" style="fill: none; stroke-dasharray: 2.96,1.28; stroke-dashoffset: 0; stroke: #b0b0b0; stroke-opacity: 0.6; stroke-width: 0.8"/>
     </g>
     <g id="frame0003_0495bc_line2d_20">
      <g>
       <use xlink:href="#frame0003_0495bc_m5cb061c9c6" x="225.3" y="299.861632" style="stroke: #000000; stroke-width: 0.8"/>
      </g>
     </g>
     <g id="frame0003_0495bc_text_11">
      <!-- $\mathdefault{−8}$ -->
      <g transform="translate(193.664417 306.78013) scale(0.2 -0.2)">
       <defs>
        <path id="frame0003_0495bc_CMR17-38" d="M 1741 2264 
C 2144 2467 2554 2773 2554 3263 
C 2554 3841 1990 4179 1472 4179 
C 890 4179 378 3759 378 3180 
C 378 3021 416 2747 666 2505 
C 730 2442 998 2251 1171 2130 
C 883 1983 211 1634 211 934 
C 211 279 838 -128 1459 -128 
C 2144 -128 2720 362 2720 1010 
C 2720 1590 2330 1857 2074 2029 
L 1741 2264 
z
M 902 2822 
C 851 2854 595 3051 595 3351 
C 595 3739 998 4032 1459 4032 
C 1965 4032 2336 3676 2336 3262 
C 2336 2669 1670 2331 1638 2331 
C 1632 2331 1626 2331 1574 2370 
L 902 2822 
z
M 2080 1519 
C 2176 1449 2483 1240 2483 851 
C 2483 381 2010 25 1472 25 
C 890 25 448 438 448 940 
C 448 1443 838 1862 1280 2060 
L 2080 1519 
z
" transform="scale(0.015625)"/>
       </defs>
       <use xlink:href="#frame0003_0495bc_CMSY10-0" transform="scale(0.996264)"/>
       <use xlink:href="#frame0003_0495bc_CMR17-38" transform="translate(77.487468 0) scale(0.996264)"/>
      </g>
     </g>
    </g>
    <g id="frame0003_0495bc_ytick_3">
     <g id="frame0003_0495bc_line2d_21">
      <path d="M 7.2 284.122447 
L 443.4 284.122447 
" clip-path="url(#frame0003_0495bc_p69de4c187a)" style="fill: none; stroke-dasharray: 2.96,1.28; stroke-dashoffset: 0; stroke: #b0b0b0; stroke-opacity: 0.6; stroke-width: 0.8"/>
     </g>
     <g id="frame0003_0495bc_line2d_22">
      <g>
       <use xlink:href="#frame0003_0495bc_m5cb061c9c6" x="225.3" y="284.122447" style="stroke: #000000; stroke-width: 0.8"/>
      </g>
     </g>
     <g id="frame0003_0495bc_text_12">
      <!-- $\mathdefault{−7}$ -->
      <g transform="translate(193.664417 291.040946) scale(0.2 -0.2)">
       <defs>
        <path id="frame0003_0495bc_CMR17-37" d="M 2886 3941 
L 2886 4081 
L 1382 4081 
C 634 4081 621 4165 595 4288 
L 480 4288 
L 294 3094 
L 410 3094 
C 429 3215 474 3540 550 3661 
C 589 3712 1062 3712 1171 3712 
L 2579 3712 
L 1869 2661 
C 1395 1954 1069 999 1069 165 
C 1069 89 1069 -128 1299 -128 
C 1530 -128 1530 89 1530 171 
L 1530 465 
C 1530 1508 1709 2196 2003 2636 
L 2886 3941 
z
" transform="scale(0.015625)"/>
       </defs>
       <use xlink:href="#frame0003_0495bc_CMSY10-0" transform="scale(0.996264)"/>
       <use xlink:href="#frame0003_0495bc_CMR17-37" transform="translate(77.487468 0) scale(0.996264)"/>
      </g>
     </g>
    </g>
    <g id="frame0003_0495bc_ytick_4">
     <g id="frame0003_0495bc_line2d_23">
      <path d="M 7.2 268.383263 
L 443.4 268.383263 
" clip-path="url(#frame0003_0495bc_p69de4c187a)" style="fill: none; stroke-dasharray: 2.96,1.28; stroke-dashoffset: 0; stroke: #b0b0b0; stroke-opacity: 0.6; stroke-width: 0.8"/>
     </g>
     <g id="frame0003_0495bc_line2d_24">
      <g>
       <use xlink:href="#frame0003_0495bc_m5cb061c9c6" x="225.3" y="268.383263" style="stroke: #000000; stroke-width: 0.8"/>
      </g>
     </g>
     <g id="frame0003_0495bc_text_13">
      <!-- $\mathdefault{−6}$ -->
      <g transform="translate(193.664417 275.301761) scale(0.2 -0.2)">
       <defs>
        <path id="frame0003_0495bc_CMR17-36" d="M 678 2176 
C 678 3690 1395 4032 1811 4032 
C 1946 4032 2272 4009 2400 3776 
C 2298 3776 2106 3776 2106 3553 
C 2106 3381 2246 3323 2336 3323 
C 2394 3323 2566 3348 2566 3560 
C 2566 3954 2246 4179 1805 4179 
C 1043 4179 243 3390 243 1984 
C 243 253 966 -128 1478 -128 
C 2099 -128 2688 427 2688 1283 
C 2688 2081 2170 2662 1517 2662 
C 1126 2662 838 2407 678 1960 
L 678 2176 
z
M 1478 25 
C 691 25 691 1200 691 1436 
C 691 1896 909 2560 1504 2560 
C 1613 2560 1926 2560 2138 2120 
C 2253 1870 2253 1609 2253 1289 
C 2253 944 2253 690 2118 434 
C 1978 171 1773 25 1478 25 
z
" transform="scale(0.015625)"/>
       </defs>
       <use xlink:href="#frame0003_0495bc_CMSY10-0" transform="scale(0.996264)"/>
       <use xlink:href="#frame0003_0495bc_CMR17-36" transform="translate(77.487468 0) scale(0.996264)"/>
      </g>
     </g>
    </g>
    <g id="frame0003_0495bc_ytick_5">
     <g id="frame0003_0495bc_line2d_25">
      <path d="M 7.2 252.644079 
L 443.4 252.644079 
" clip-path="url(#frame0003_0495bc_p69de4c187a)" style="fill: none; stroke-dasharray: 2.96,1.28; stroke-dashoffset: 0; stroke: #b0b0b0; stroke-opacity: 0.6; stroke-width: 0.8"/>
     </g>
     <g id="frame0003_0495bc_line2d_26">
      <g>
       <use xlink:href="#frame0003_0495bc_m5cb061c9c6" x="225.3" y="252.644079" style="stroke: #000000; stroke-width: 0.8"/>
      </g>
     </g>
     <g id="frame0003_0495bc_text_14">
      <!-- $\mathdefault{−5}$ -->
      <g transform="translate(193.664417 259.562577) scale(0.2 -0.2)">
       <defs>
        <path id="frame0003_0495bc_CMR17-35" d="M 730 3692 
C 794 3666 1056 3584 1325 3584 
C 1920 3584 2246 3911 2432 4100 
C 2432 4157 2432 4192 2394 4192 
C 2387 4192 2374 4192 2323 4163 
C 2099 4058 1837 3973 1517 3973 
C 1325 3973 1037 3999 723 4139 
C 653 4171 640 4171 634 4171 
C 602 4171 595 4164 595 4037 
L 595 2203 
C 595 2089 595 2057 659 2057 
C 691 2057 704 2070 736 2114 
C 941 2401 1222 2522 1542 2522 
C 1766 2522 2246 2382 2246 1289 
C 2246 1085 2246 715 2054 421 
C 1894 159 1645 25 1370 25 
C 947 25 518 320 403 814 
C 429 807 480 795 506 795 
C 589 795 749 840 749 1038 
C 749 1210 627 1280 506 1280 
C 358 1280 262 1190 262 1011 
C 262 454 704 -128 1382 -128 
C 2042 -128 2669 440 2669 1264 
C 2669 2030 2170 2624 1549 2624 
C 1222 2624 947 2503 730 2274 
L 730 3692 
z
" transform="scale(0.015625)"/>
       </defs>
       <use xlink:href="#frame0003_0495bc_CMSY10-0" transform="scale(0.996264)"/>
       <use xlink:href="#frame0003_0495bc_CMR17-35" transform="translate(77.487468 0) scale(0.996264)"/>
      </g>
     </g>
    </g>
    <g id="frame0003_0495bc_ytick_6">
     <g id="frame0003_0495bc_line2d_27">
      <path d="M 7.2 236.904895 
L 443.4 236.904895 
" clip-path="url(#frame0003_0495bc_p69de4c187a)" style="fill: none; stroke-dasharray: 2.96,1.28; stroke-dashoffset: 0; stroke: #b0b0b0; stroke-opacity: 0.6; stroke-width: 0.8"/>
     </g>
     <g id="frame0003_0495bc_line2d_28">
      <g>
       <use xlink:href="#frame0003_0495bc_m5cb061c9c6" x="225.3" y="236.904895" style="stroke: #000000; stroke-width: 0.8"/>
      </g>
     </g>
     <g id="frame0003_0495bc_text_15">
      <!-- $\mathdefault{−4}$ -->
      <g transform="translate(193.664417 243.823393) scale(0.2 -0.2)">
       <use xlink:href="#frame0003_0495bc_CMSY10-0" transform="scale(0.996264)"/>
       <use xlink:href="#frame0003_0495bc_CMR17-34" transform="translate(77.487468 0) scale(0.996264)"/>
      </g>
     </g>
    </g>
    <g id="frame0003_0495bc_ytick_7">
     <g id="frame0003_0495bc_line2d_29">
      <path d="M 7.2 221.16571 
L 443.4 221.16571 
" clip-path="url(#frame0003_0495bc_p69de4c187a)" style="fill: none; stroke-dasharray: 2.96,1.28; stroke-dashoffset: 0; stroke: #b0b0b0; stroke-opacity: 0.6; stroke-width: 0.8"/>
     </g>
     <g id="frame0003_0495bc_line2d_30">
      <g>
       <use xlink:href="#frame0003_0495bc_m5cb061c9c6" x="225.3" y="221.16571" style="stroke: #000000; stroke-width: 0.8"/>
      </g>
     </g>
     <g id="frame0003_0495bc_text_16">
      <!-- $\mathdefault{−3}$ -->
      <g transform="translate(193.664417 228.084209) scale(0.2 -0.2)">
       <use xlink:href="#frame0003_0495bc_CMSY10-0" transform="scale(0.996264)"/>
       <use xlink:href="#frame0003_0495bc_CMR17-33" transform="translate(77.487468 0) scale(0.996264)"/>
      </g>
     </g>
    </g>
    <g id="frame0003_0495bc_ytick_8">
     <g id="frame0003_0495bc_line2d_31">
      <path d="M 7.2 205.426526 
L 443.4 205.426526 
" clip-path="url(#frame0003_0495bc_p69de4c187a)" style="fill: none; stroke-dasharray: 2.96,1.28; stroke-dashoffset: 0; stroke: #b0b0b0; stroke-opacity: 0.6; stroke-width: 0.8"/>
     </g>
     <g id="frame0003_0495bc_line2d_32">
      <g>
       <use xlink:href="#frame0003_0495bc_m5cb061c9c6" x="225.3" y="205.426526" style="stroke: #000000; stroke-width: 0.8"/>
      </g>
     </g>
     <g id="frame0003_0495bc_text_17">
      <!-- $\mathdefault{−2}$ -->
      <g transform="translate(193.664417 212.345024) scale(0.2 -0.2)">
       <use xlink:href="#frame0003_0495bc_CMSY10-0" transform="scale(0.996264)"/>
       <use xlink:href="#frame0003_0495bc_CMR17-32" transform="translate(77.487468 0) scale(0.996264)"/>
      </g>
     </g>
    </g>
    <g id="frame0003_0495bc_ytick_9">
     <g id="frame0003_0495bc_line2d_33">
      <path d="M 7.2 189.687342 
L 443.4 189.687342 
" clip-path="url(#frame0003_0495bc_p69de4c187a)" style="fill: none; stroke-dasharray: 2.96,1.28; stroke-dashoffset: 0; stroke: #b0b0b0; stroke-opacity: 0.6; stroke-width: 0.8"/>
     </g>
     <g id="frame0003_0495bc_line2d_34">
      <g>
       <use xlink:href="#frame0003_0495bc_m5cb061c9c6" x="225.3" y="189.687342" style="stroke: #000000; stroke-width: 0.8"/>
      </g>
     </g>
     <g id="frame0003_0495bc_text_18">
      <!-- $\mathdefault{−1}$ -->
      <g transform="translate(193.664417 196.60584) scale(0.2 -0.2)">
       <use xlink:href="#frame0003_0495bc_CMSY10-0" transform="scale(0.996264)"/>
       <use xlink:href="#frame0003_0495bc_CMR17-31" transform="translate(77.487468 0) scale(0.996264)"/>
      </g>
     </g>
    </g>
    <g id="frame0003_0495bc_ytick_10">
     <g id="frame0003_0495bc_line2d_35">
      <path d="M 7.2 158.208973 
L 443.4 158.208973 
" clip-path="url(#frame0003_0495bc_p69de4c187a)" style="fill: none; stroke-dasharray: 2.96,1.28; stroke-dashoffset: 0; stroke: #b0b0b0; stroke-opacity: 0.6; stroke-width: 0.8"/>
     </g>
     <g id="frame0003_0495bc_line2d_36">
      <g>
       <use xlink:href="#frame0003_0495bc_m5cb061c9c6" x="225.3" y="158.208973" style="stroke: #000000; stroke-width: 0.8"/>
      </g>
     </g>
     <g id="frame0003_0495bc_text_19">
      <!-- $\mathdefault{1}$ -->
      <g transform="translate(209.161905 165.127472) scale(0.2 -0.2)">
       <use xlink:href="#frame0003_0495bc_CMR17-31" transform="scale(0.996264)"/>
      </g>
     </g>
    </g>
    <g id="frame0003_0495bc_ytick_11">
     <g id="frame0003_0495bc_line2d_37">
      <path d="M 7.2 142.469789 
L 443.4 142.469789 
" clip-path="url(#frame0003_0495bc_p69de4c187a)" style="fill: none; stroke-dasharray: 2.96,1.28; stroke-dashoffset: 0; stroke: #b0b0b0; stroke-opacity: 0.6; stroke-width: 0.8"/>
     </g>
     <g id="frame0003_0495bc_line2d_38">
      <g>
       <use xlink:href="#frame0003_0495bc_m5cb061c9c6" x="225.3" y="142.469789" style="stroke: #000000; stroke-width: 0.8"/>
      </g>
     </g>
     <g id="frame0003_0495bc_text_20">
      <!-- $\mathdefault{2}$ -->
      <g transform="translate(209.161905 149.388287) scale(0.2 -0.2)">
       <use xlink:href="#frame0003_0495bc_CMR17-32" transform="scale(0.996264)"/>
      </g>
     </g>
    </g>
    <g id="frame0003_0495bc_ytick_12">
     <g id="frame0003_0495bc_line2d_39">
      <path d="M 7.2 126.730605 
L 443.4 126.730605 
" clip-path="url(#frame0003_0495bc_p69de4c187a)" style="fill: none; stroke-dasharray: 2.96,1.28; stroke-dashoffset: 0; stroke: #b0b0b0; stroke-opacity: 0.6; stroke-width: 0.8"/>
     </g>
     <g id="frame0003_0495bc_line2d_40">
      <g>
       <use xlink:href="#frame0003_0495bc_m5cb061c9c6" x="225.3" y="126.730605" style="stroke: #000000; stroke-width: 0.8"/>
      </g>
     </g>
     <g id="frame0003_0495bc_text_21">
      <!-- $\mathdefault{3}$ -->
      <g transform="translate(209.161905 133.649103) scale(0.2 -0.2)">
       <use xlink:href="#frame0003_0495bc_CMR17-33" transform="scale(0.996264)"/>
      </g>
     </g>
    </g>
    <g id="frame0003_0495bc_ytick_13">
     <g id="frame0003_0495bc_line2d_41">
      <path d="M 7.2 110.991421 
L 443.4 110.991421 
" clip-path="url(#frame0003_0495bc_p69de4c187a)" style="fill: none; stroke-dasharray: 2.96,1.28; stroke-dashoffset: 0; stroke: #b0b0b0; stroke-opacity: 0.6; stroke-width: 0.8"/>
     </g>
     <g id="frame0003_0495bc_line2d_42">
      <g>
       <use xlink:href="#frame0003_0495bc_m5cb061c9c6" x="225.3" y="110.991421" style="stroke: #000000; stroke-width: 0.8"/>
      </g>
     </g>
     <g id="frame0003_0495bc_text_22">
      <!-- $\mathdefault{4}$ -->
      <g transform="translate(209.161905 117.909919) scale(0.2 -0.2)">
       <use xlink:href="#frame0003_0495bc_CMR17-34" transform="scale(0.996264)"/>
      </g>
     </g>
    </g>
    <g id="frame0003_0495bc_ytick_14">
     <g id="frame0003_0495bc_line2d_43">
      <path d="M 7.2 95.252236 
L 443.4 95.252236 
" clip-path="url(#frame0003_0495bc_p69de4c187a)" style="fill: none; stroke-dasharray: 2.96,1.28; stroke-dashoffset: 0; stroke: #b0b0b0; stroke-opacity: 0.6; stroke-width: 0.8"/>
     </g>
     <g id="frame0003_0495bc_line2d_44">
      <g>
       <use xlink:href="#frame0003_0495bc_m5cb061c9c6" x="225.3" y="95.252236" style="stroke: #000000; stroke-width: 0.8"/>
      </g>
     </g>
     <g id="frame0003_0495bc_text_23">
      <!-- $\mathdefault{5}$ -->
      <g transform="translate(209.161905 102.170735) scale(0.2 -0.2)">
       <use xlink:href="#frame0003_0495bc_CMR17-35" transform="scale(0.996264)"/>
      </g>
     </g>
    </g>
    <g id="frame0003_0495bc_ytick_15">
     <g id="frame0003_0495bc_line2d_45">
      <path d="M 7.2 79.513052 
L 443.4 79.513052 
" clip-path="url(#frame0003_0495bc_p69de4c187a)" style="fill: none; stroke-dasharray: 2.96,1.28; stroke-dashoffset: 0; stroke: #b0b0b0; stroke-opacity: 0.6; stroke-width: 0.8"/>
     </g>
     <g id="frame0003_0495bc_line2d_46">
      <g>
       <use xlink:href="#frame0003_0495bc_m5cb061c9c6" x="225.3" y="79.513052" style="stroke: #000000; stroke-width: 0.8"/>
      </g>
     </g>
     <g id="frame0003_0495bc_text_24">
      <!-- $\mathdefault{6}$ -->
      <g transform="translate(209.161905 86.431551) scale(0.2 -0.2)">
       <use xlink:href="#frame0003_0495bc_CMR17-36" transform="scale(0.996264)"/>
      </g>
     </g>
    </g>
    <g id="frame0003_0495bc_ytick_16">
     <g id="frame0003_0495bc_line2d_47">
      <path d="M 7.2 63.773868 
L 443.4 63.773868 
" clip-path="url(#frame0003_0495bc_p69de4c187a)" style="fill: none; stroke-dasharray: 2.96,1.28; stroke-dashoffset: 0; stroke: #b0b0b0; stroke-opacity: 0.6; stroke-width: 0.8"/>
     </g>
     <g id="frame0003_0495bc_line2d_48">
      <g>
       <use xlink:href="#frame0003_0495bc_m5cb061c9c6" x="225.3" y="63.773868" style="stroke: #000000; stroke-width: 0.8"/>
      </g>
     </g>
     <g id="frame0003_0495bc_text_25">
      <!-- $\mathdefault{7}$ -->
      <g transform="translate(209.161905 70.692366) scale(0.2 -0.2)">
       <use xlink:href="#frame0003_0495bc_CMR17-37" transform="scale(0.996264)"/>
      </g>
     </g>
    </g>
    <g id="frame0003_0495bc_ytick_17">
     <g id="frame0003_0495bc_line2d_49">
      <path d="M 7.2 48.034684 
L 443.4 48.034684 
" clip-path="url(#frame0003_0495bc_p69de4c187a)" style="fill: none; stroke-dasharray: 2.96,1.28; stroke-dashoffset: 0; stroke: #b0b0b0; stroke-opacity: 0.6; stroke-width: 0.8"/>
     </g>
     <g id="frame0003_0495bc_line2d_50">
      <g>
       <use xlink:href="#frame0003_0495bc_m5cb061c9c6" x="225.3" y="48.034684" style="stroke: #000000; stroke-width: 0.8"/>
      </g>
     </g>
     <g id="frame0003_0495bc_text_26">
      <!-- $\mathdefault{8}$ -->
      <g transform="translate(209.161905 54.953182) scale(0.2 -0.2)">
       <use xlink:href="#frame0003_0495bc_CMR17-38" transform="scale(0.996264)"/>
      </g>
     </g>
    </g>
    <g id="frame0003_0495bc_ytick_18">
     <g id="frame0003_0495bc_line2d_51">
      <path d="M 7.2 32.295499 
L 443.4 32.295499 
" clip-path="url(#frame0003_0495bc_p69de4c187a)" style="fill: none; stroke-dasharray: 2.96,1.28; stroke-dashoffset: 0; stroke: #b0b0b0; stroke-opacity: 0.6; stroke-width: 0.8"/>
     </g>
     <g id="frame0003_0495bc_line2d_52">
      <g>
       <use xlink:href="#frame0003_0495bc_m5cb061c9c6" x="225.3" y="32.295499" style="stroke: #000000; stroke-width: 0.8"/>
      </g>
     </g>
     <g id="frame0003_0495bc_text_27">
      <!-- $\mathdefault{9}$ -->
      <g transform="translate(209.161905 39.213998) scale(0.2 -0.2)">
       <use xlink:href="#frame0003_0495bc_CMR17-39" transform="scale(0.996264)"/>
      </g>
     </g>
    </g>
    <g id="frame0003_0495bc_text_28">
     <!-- $y$ -->
     <g transform="translate(180.151583 12.680682) scale(0.2 -0.2)">
      <defs>
       <path id="frame0003_0495bc_CMMI12-79" d="M 1683 -700 
C 1510 -939 1261 -1152 947 -1152 
C 870 -1152 563 -1152 467 -889 
C 486 -895 518 -895 531 -895 
C 723 -895 851 -729 851 -582 
C 851 -435 730 -384 634 -384 
C 531 -384 307 -458 307 -759 
C 307 -1071 582 -1286 947 -1286 
C 1587 -1286 2234 -700 2413 6 
L 3040 2485 
C 3046 2517 3059 2556 3059 2594 
C 3059 2689 2982 2753 2886 2753 
C 2829 2753 2694 2727 2643 2535 
L 2170 658 
C 2138 543 2138 530 2086 460 
C 1958 281 1747 64 1440 64 
C 1082 64 1050 415 1050 588 
C 1050 952 1222 1443 1395 1903 
C 1466 2088 1504 2178 1504 2305 
C 1504 2574 1312 2816 998 2816 
C 410 2816 173 1890 173 1839 
C 173 1814 198 1782 243 1782 
C 301 1782 307 1807 333 1897 
C 486 2433 730 2689 979 2689 
C 1037 2689 1146 2689 1146 2478 
C 1146 2312 1075 2127 979 1884 
C 666 1047 666 837 666 683 
C 666 77 1101 -64 1421 -64 
C 1606 -64 1837 -6 2061 230 
L 2067 224 
C 1971 -147 1907 -392 1683 -700 
z
" transform="scale(0.015625)"/>
      </defs>
      <use xlink:href="#frame0003_0495bc_CMMI12-79" transform="scale(0.996264)"/>
     </g>
    </g>
   </g>
   <g id="frame0003_0495bc_line2d_53">
    <defs>
     <path id="frame0003_0495bc_mf0a2e9c7ec" d="M 3 0 
L -3 -3 
L -3 3 
z
" style="stroke: #000000; stroke-linejoin: miter"/>
    </defs>
    <g>
     <use xlink:href="#frame0003_0495bc_mf0a2e9c7ec" x="443.4" y="173.948158" style="stroke: #000000; stroke-linejoin: miter"/>
    </g>
   </g>
   <g id="frame0003_0495bc_line2d_54">
    <defs>
     <path id="frame0003_0495bc_mc395f7115f" d="M 0 -3 
L -3 3 
L 3 3 
z
" style="stroke: #000000; stroke-linejoin: miter"/>
    </defs>
    <g>
     <use xlink:href="#frame0003_0495bc_mc395f7115f" x="225.3" y="16.556315" style="stroke: #000000; stroke-linejoin: miter"/>
    </g>
   </g>
   <g id="frame0003_0495bc_line2d_55">
    <path d="M 105.402751 339.54 
L 108.681525 316.998233 
L 112.092669 295.062635 
L 115.503812 274.625863 
L 118.914956 255.642754 
L 121.899707 240.189487 
L 124.884457 225.784349 
L 127.869208 212.397084 
L 130.853959 199.997437 
L 133.83871 188.555152 
L 136.82346 178.039974 
L 139.808211 168.421648 
L 142.366569 160.868256 
L 144.924927 153.932494 
L 147.483284 147.595309 
L 150.041642 141.83765 
L 152.6 136.640462 
L 155.158358 131.984693 
L 157.716716 127.85129 
L 159.84868 124.792071 
L 161.980645 122.07135 
L 164.11261 119.6781 
L 166.244575 117.601295 
L 168.37654 115.829909 
L 170.508504 114.352916 
L 172.640469 113.159291 
L 174.772434 112.238007 
L 176.904399 111.578038 
L 179.036364 111.168359 
L 181.168328 110.997943 
L 183.300293 111.055765 
L 185.432258 111.330798 
L 187.564223 111.812016 
L 190.122581 112.646119 
L 192.680938 113.742199 
L 195.239296 115.081203 
L 198.224047 116.924984 
L 201.208798 119.043224 
L 204.619941 121.761329 
L 208.457478 125.144221 
L 212.721408 129.231196 
L 217.838123 134.471285 
L 225.513196 142.700567 
L 234.467449 152.247215 
L 239.584164 157.379337 
L 243.848094 161.337529 
L 247.259238 164.23205 
L 250.670381 166.835838 
L 253.655132 168.840158 
L 256.639883 170.557052 
L 259.19824 171.776976 
L 261.756598 172.744448 
L 264.314956 173.440418 
L 266.446921 173.799248 
L 268.578886 173.945278 
L 270.71085 173.86748 
L 272.842815 173.554829 
L 274.97478 172.996299 
L 277.106745 172.180865 
L 279.23871 171.097499 
L 281.370674 169.735176 
L 283.502639 168.082871 
L 285.634604 166.129557 
L 287.766569 163.864208 
L 289.898534 161.275798 
L 292.030499 158.353301 
L 294.162463 155.085692 
L 296.294428 151.461944 
L 298.852786 146.627819 
L 301.411144 141.245924 
L 303.969501 135.297207 
L 306.527859 128.762613 
L 309.086217 121.623091 
L 311.644575 113.859588 
L 314.202933 105.453051 
L 317.187683 94.807282 
L 320.172434 83.230083 
L 323.157185 70.6912 
L 326.141935 57.160376 
L 329.126686 42.607358 
L 332.111437 27.00189 
L 335.096188 10.313715 
L 337.014442 -1 
L 337.014442 -1 
" clip-path="url(#frame0003_0495bc_p69de4c187a)" style="fill: none; stroke: #0072b2; stroke-width: 2.5; stroke-linecap: square"/>
   </g>
   <g id="frame0003_0495bc_line2d_56">
    <defs>
     <path id="frame0003_0495bc_ma3e2b2da13" d="M 0 5 
C 1.326016 5 2.597899 4.473168 3.535534 3.535534 
C 4.473168 2.597899 5 1.326016 5 0 
C 5 -1.326016 4.473168 -2.597899 3.535534 -3.535534 
C 2.597899 -4.473168 1.326016 -5 0 -5 
C -1.326016 -5 -2.597899 -4.473168 -3.535534 -3.535534 
C -4.473168 -2.597899 -5 -1.326016 -5 0 
C -5 1.326016 -4.473168 2.597899 -3.535534 3.535534 
C -2.597899 4.473168 -1.326016 5 0 5 
z
" style="stroke: #000000; stroke-opacity: 0.8"/>
    </defs>
    <g clip-path="url(#frame0003_0495bc_p69de4c187a)">
     <use xlink:href="#frame0003_0495bc_ma3e2b2da13" x="72.184898" y="657.463486" style="fill-opacity: 0.8; stroke: #000000; stroke-opacity: 0.8"/>
    </g>
   </g>
   <g id="frame0003_0495bc_line2d_57">
    <path d="M 98.126666 339.54 
L 125.913886 -1 
" clip-path="url(#frame0003_0495bc_p69de4c187a)" style="fill: none; stroke: #dc5e8b; stroke-width: 2.5; stroke-linecap: square"/>
   </g>
   <g id="frame0003_0495bc_patch_3">
    <path d="M 225.3 331.34 
L 225.3 16.556315 
" style="fill: none; stroke: #000000; stroke-width: 0.8; stroke-linejoin: miter; stroke-linecap: square"/>
   </g>
   <g id="frame0003_0495bc_patch_4">
    <path d="M 443.4 331.34 
L 443.4 16.556315 
" style="fill: none"/>
   </g>
   <g id="frame0003_0495bc_patch_5">
    <path d="M 7.2 173.948158 
L 443.4 173.948158 
" style="fill: none; stroke: #000000; stroke-width: 0.8; stroke-linejoin: miter; stroke-linecap: square"/>
   </g>
   <g id="frame0003_0495bc_patch_6">
    <path d="M 7.2 16.556315 
L 443.4 16.556315 
" style="fill: none"/>
   </g>
   <g id="frame0003_0495bc_text_29">
    <g id="frame0003_0495bc_patch_7">
     <path d="M 274.736793 283.239578 
L 350.343207 283.239578 
Q 356.343207 283.239578 356.343207 277.239578 
L 356.343207 259.526948 
Q 356.343207 253.526948 350.343207 253.526948 
L 274.736793 253.526948 
Q 268.736793 253.526948 268.736793 259.526948 
L 268.736793 277.239578 
Q 268.736793 283.239578 274.736793 283.239578 
z
" style="fill: #ffffff; opacity: 0.8"/>
    </g>
    <!-- a = -3.51 -->
    <g transform="translate(274.736793 273.363945) scale(0.2 -0.2)">
     <defs>
      <path id="frame0003_0495bc_CMSS17-61" d="M 2406 1791 
C 2406 2392 1978 2808 1402 2808 
C 1120 2808 813 2757 461 2553 
L 499 2135 
C 659 2248 934 2432 1395 2432 
C 1722 2432 1920 2180 1920 1782 
L 1920 1536 
C 896 1536 256 1238 256 726 
C 256 461 416 -64 947 -64 
C 1043 -64 1562 -64 1933 217 
L 1933 -19 
L 2406 -19 
L 2406 1791 
z
M 1920 816 
C 1920 701 1920 548 1728 434 
C 1562 325 1350 325 1261 325 
C 941 325 723 511 723 744 
C 723 1211 1722 1211 1920 1211 
L 1920 816 
z
" transform="scale(0.015625)"/>
      <path id="frame0003_0495bc_CMSS17-3d" d="M 4147 2017 
C 4243 2017 4339 2017 4339 2125 
C 4339 2240 4230 2240 4122 2240 
L 550 2240 
C 442 2240 333 2240 333 2125 
C 333 2017 429 2017 525 2017 
L 4147 2017 
z
M 4122 896 
C 4230 896 4339 896 4339 1011 
C 4339 1119 4243 1119 4147 1119 
L 525 1119 
C 429 1119 333 1119 333 1011 
C 333 896 442 896 550 896 
L 4122 896 
z
" transform="scale(0.015625)"/>
      <path id="frame0003_0495bc_CMSS17-2d" d="M 1664 1216 
L 1664 1585 
L 64 1585 
L 64 1216 
L 1664 1216 
z
" transform="scale(0.015625)"/>
      <path id="frame0003_0495bc_CMSS17-33" d="M 1005 2025 
L 1440 2025 
C 2042 2025 2214 1507 2214 1146 
C 2214 653 1933 267 1472 267 
C 1114 267 608 444 320 912 
C 275 691 275 678 250 526 
C 550 88 1037 -128 1485 -128 
C 2214 -128 2752 473 2752 1138 
C 2752 1638 2400 2057 1920 2215 
C 2304 2424 2586 2816 2586 3273 
C 2586 3805 2093 4229 1491 4229 
C 941 4229 512 3892 333 3530 
C 378 3468 493 3284 550 3189 
C 691 3562 1056 3840 1485 3840 
C 1843 3840 2080 3607 2080 3271 
C 2080 2923 1856 2543 1478 2455 
C 1453 2455 1056 2417 1005 2411 
L 1005 2025 
z
" transform="scale(0.015625)"/>
      <path id="frame0003_0495bc_CMSS17-2e" d="M 1088 510 
L 576 510 
L 576 0 
L 1088 0 
L 1088 510 
z
" transform="scale(0.015625)"/>
      <path id="frame0003_0495bc_CMSS17-35" d="M 934 3752 
L 2502 3752 
L 2502 4160 
L 467 4160 
L 467 1781 
L 896 1781 
C 1011 2046 1248 2240 1555 2240 
C 1843 2240 2163 1989 2163 1266 
C 2163 493 1709 267 1376 267 
C 966 267 589 512 422 851 
L 218 499 
C 512 49 992 -128 1376 -128 
C 2118 -128 2701 497 2701 1253 
C 2701 2030 2182 2629 1562 2629 
C 1338 2629 1120 2553 934 2399 
L 934 3752 
z
" transform="scale(0.015625)"/>
      <path id="frame0003_0495bc_CMSS17-31" d="M 1818 4288 
L 1696 4288 
C 1350 3940 947 3890 538 3890 
L 538 3520 
C 723 3520 1024 3520 1325 3667 
L 1325 369 
L 570 369 
L 570 0 
L 2573 0 
L 2573 369 
L 1818 369 
L 1818 4288 
z
" transform="scale(0.015625)"/>
     </defs>
     <use xlink:href="#frame0003_0495bc_CMSS17-61" transform="scale(0.996264)"/>
     <use xlink:href="#frame0003_0495bc_CMSS17-3d" transform="translate(76.151033 0) scale(0.996264)"/>
     <use xlink:href="#frame0003_0495bc_CMSS17-2d" transform="translate(180.248081 0) scale(0.996264)"/>
     <use xlink:href="#frame0003_0495bc_CMSS17-33" transform="translate(211.477194 0) scale(0.996264)"/>
     <use xlink:href="#frame0003_0495bc_CMSS17-2e" transform="translate(258.320817 0) scale(0.996264)"/>
     <use xlink:href="#frame0003_0495bc_CMSS17-35" transform="translate(284.345022 0) scale(0.996264)"/>
     <use xlink:href="#frame0003_0495bc_CMSS17-31" transform="translate(331.188646 0) scale(0.996264)"/>
    </g>
   </g>
  </g>
 </g>
 <defs>
  <clipPath id="frame0003_0495bc_p69de4c187a">
   <rect x="7.2" y="16.556315" width="436.2" height="314.783685"/>
  </clipPath>
 </defs>
</svg>
