<svg xmlns:xlink="http://www.w3.org/1999/xlink" xmlns="http://www.w3.org/2000/svg" width="453.6pt" height="338.54pt" viewBox="0 0 453.6 338.54" version="1.1">
 
 <defs>
  <style type="text/css">*{stroke-linejoin: round; stroke-linecap: butt}</style>
 </defs>
 <g id="figure_1">
  <g id="patch_1">
   <path id="path_0" d="M 0 338.54  L 453.6 338.54  L 453.6 0  L 0 0  L 0 338.54  z " style="fill: none; opacity: 0"/>
  </g>
  <g id="axes_1">
   <g id="patch_2">
    <path id="path_1" d="M 7.2 331.34  L 443.4 331.34  L 443.4 16.556315  L 7.2 16.556315  L 7.2 331.34  z " style="fill: none; opacity: 0"/>
   </g>
   <g id="matplotlib.axis_1">
    <g id="xtick_1">
     <g id="line2d_1">
      <path id="path_2" d="M 79.9 331.34  L 79.9 16.556315  " clip-path="url(#p136c976b0d)" style="fill: none; stroke-dasharray: 2.96,1.28; stroke-dashoffset: 0; stroke: #b0b0b0; stroke-opacity: 0.6; stroke-width: 0.8"/>
     </g>
     <g id="line2d_2">
      <defs>
       <path id="mfc6896e385" d="M 0 0  L 0 3.5  " style="stroke: #000000; stroke-width: 0.8"/>
      </defs>
      <g id="g_0">
       <use id="use_0" xlink:href="#mfc6896e385" x="79.9" y="173.948158" style="stroke: #000000; stroke-width: 0.8"/>
      </g>
     </g>
     <g id="text_1">
      <!-- $\mathdefault{−1}$ -->
      <g id="g_1" transform="translate(67.582209 194.785154) scale(0.2 -0.2)">
       <defs>
        <path id="CMSY10-0" d="M 4218 1472  C 4326 1472 4442 1472 4442 1600  C 4442 1728 4326 1728 4218 1728  L 755 1728  C 646 1728 531 1728 531 1600  C 531 1472 646 1472 755 1472  L 4218 1472  z " transform="scale(0.015625)"/>
        <path id="CMR17-31" d="M 1702 4058  C 1702 4192 1696 4192 1606 4192  C 1357 3916 979 3827 621 3827  C 602 3827 570 3827 563 3808  C 557 3795 557 3782 557 3648  C 755 3648 1088 3686 1344 3839  L 1344 461  C 1344 236 1331 160 781 160  L 589 160  L 589 0  C 896 0 1216 0 1523 0  C 1830 0 2150 0 2458 0  L 2458 160  L 2266 160  C 1715 160 1702 230 1702 458  L 1702 4058  z " transform="scale(0.015625)"/>
       </defs>
       <use id="use_1" xlink:href="#CMSY10-0" transform="scale(0.996264)"/>
       <use id="use_2" xlink:href="#CMR17-31" transform="translate(77.487468 0) scale(0.996264)"/>
      </g>
     </g>
    </g>
    <g id="xtick_2">
     <g id="line2d_3">
      <path id="path_3" d="M 370.7 331.34  L 370.7 16.556315  " clip-path="url(#p136c976b0d)" style="fill: none; stroke-dasharray: 2.96,1.28; stroke-dashoffset: 0; stroke: #b0b0b0; stroke-opacity: 0.6; stroke-width: 0.8"/>
     </g>
     <g id="line2d_4">
      <g id="g_2">
       <use id="use_3" xlink:href="#mfc6896e385" x="370.7" y="173.948158" style="stroke: #000000; stroke-width: 0.8"/>
      </g>
     </g>
     <g id="text_2">
      <!-- $\mathdefault{1}$ -->
      <g id="g_3" transform="translate(366.130952 194.785154) scale(0.2 -0.2)">
       <use id="use_4" xlink:href="#CMR17-31" transform="scale(0.996264)"/>
      </g>
     </g>
    </g>
    <g id="text_3">
     <!-- $x$ -->
     <g id="g_4" transform="translate(432.313188 216.497785) scale(0.2 -0.2)">
      <defs>
       <path id="CMMI12-78" d="M 3034 2606  C 2829 2567 2752 2414 2752 2293  C 2752 2139 2874 2088 2963 2088  C 3155 2088 3290 2254 3290 2427  C 3290 2695 2982 2816 2714 2816  C 2323 2816 2106 2433 2048 2312  C 1901 2816 1504 2816 1389 2816  C 736 2816 390 1980 390 1839  C 390 1814 416 1782 461 1782  C 512 1782 525 1820 538 1846  C 755 2555 1184 2689 1370 2689  C 1658 2689 1715 2420 1715 2267  C 1715 2127 1677 1980 1600 1673  L 1382 798  C 1286 415 1101 64 762 64  C 730 64 570 64 435 147  C 666 192 717 383 717 460  C 717 588 621 664 499 664  C 346 664 179 530 179 326  C 179 57 480 -64 755 -64  C 1062 -64 1280 179 1414 441  C 1517 64 1837 -64 2074 -64  C 2726 -64 3072 773 3072 913  C 3072 945 3046 971 3008 971  C 2950 971 2944 939 2925 888  C 2752 326 2381 64 2093 64  C 1869 64 1747 230 1747 492  C 1747 632 1773 734 1875 1156  L 2099 2024  C 2195 2408 2413 2689 2707 2689  C 2720 2689 2899 2689 3034 2606  z " transform="scale(0.015625)"/>
      </defs>
      <use id="use_5" xlink:href="#CMMI12-78" transform="scale(0.996264)"/>
     </g>
    </g>
   </g>
   <g id="matplotlib.axis_2">
    <g id="ytick_1">
     <g id="line2d_5">
      <path id="path_4" d="M 7.2 278.876053  L 443.4 278.876053  " clip-path="url(#p136c976b0d)" style="fill: none; stroke-dasharray: 2.96,1.28; stroke-dashoffset: 0; stroke: #b0b0b0; stroke-opacity: 0.6; stroke-width: 0.8"/>
     </g>
     <g id="line2d_6">
      <defs>
       <path id="mafa9fc202c" d="M 0 0  L -3.5 0  " style="stroke: #000000; stroke-width: 0.8"/>
      </defs>
      <g id="g_5">
       <use id="use_6" xlink:href="#mafa9fc202c" x="225.3" y="278.876053" style="stroke: #000000; stroke-width: 0.8"/>
      </g>
     </g>
     <g id="text_4">
      <!-- $\mathdefault{−1}$ -->
      <g id="g_6" transform="translate(193.664417 285.794551) scale(0.2 -0.2)">
       <use id="use_7" xlink:href="#CMSY10-0" transform="scale(0.996264)"/>
       <use id="use_8" xlink:href="#CMR17-31" transform="translate(77.487468 0) scale(0.996264)"/>
      </g>
     </g>
    </g>
    <g id="ytick_2">
     <g id="line2d_7">
      <path id="path_5" d="M 7.2 69.020263  L 443.4 69.020263  " clip-path="url(#p136c976b0d)" style="fill: none; stroke-dasharray: 2.96,1.28; stroke-dashoffset: 0; stroke: #b0b0b0; stroke-opacity: 0.6; stroke-width: 0.8"/>
     </g>
     <g id="line2d_8">
      <g id="g_7">
       <use id="use_9" xlink:href="#mafa9fc202c" x="225.3" y="69.020263" style="stroke: #000000; stroke-width: 0.8"/>
      </g>
     </g>
     <g id="text_5">
      <!-- $\mathdefault{1}$ -->
      <g id="g_8" transform="translate(209.161905 75.938761) scale(0.2 -0.2)">
       <use id="use_10" xlink:href="#CMR17-31" transform="scale(0.996264)"/>
      </g>
     </g>
    </g>
    <g id="text_6">
     <!-- $y$ -->
     <g id="g_9" transform="translate(180.151583 12.680682) scale(0.2 -0.2)">
      <defs>
       <path id="CMMI12-79" d="M 1683 -700  C 1510 -939 1261 -1152 947 -1152  C 870 -1152 563 -1152 467 -889  C 486 -895 518 -895 531 -895  C 723 -895 851 -729 851 -582  C 851 -435 730 -384 634 -384  C 531 -384 307 -458 307 -759  C 307 -1071 582 -1286 947 -1286  C 1587 -1286 2234 -700 2413 6  L 3040 2485  C 3046 2517 3059 2556 3059 2594  C 3059 2689 2982 2753 2886 2753  C 2829 2753 2694 2727 2643 2535  L 2170 658  C 2138 543 2138 530 2086 460  C 1958 281 1747 64 1440 64  C 1082 64 1050 415 1050 588  C 1050 952 1222 1443 1395 1903  C 1466 2088 1504 2178 1504 2305  C 1504 2574 1312 2816 998 2816  C 410 2816 173 1890 173 1839  C 173 1814 198 1782 243 1782  C 301 1782 307 1807 333 1897  C 486 2433 730 2689 979 2689  C 1037 2689 1146 2689 1146 2478  C 1146 2312 1075 2127 979 1884  C 666 1047 666 837 666 683  C 666 77 1101 -64 1421 -64  C 1606 -64 1837 -6 2061 230  L 2067 224  C 1971 -147 1907 -392 1683 -700  z " transform="scale(0.015625)"/>
      </defs>
      <use id="use_11" xlink:href="#CMMI12-79" transform="scale(0.996264)"/>
     </g>
    </g>
   </g>
   <g id="line2d_9">
    <defs>
     <path id="mb9e18247de" d="M 3 0  L -3 -3  L -3 3  z " style="stroke: #000000; stroke-linejoin: miter"/>
    </defs>
    <g id="g_10">
     <use id="use_12" xlink:href="#mb9e18247de" x="443.4" y="173.948158" style="stroke: #000000; stroke-linejoin: miter"/>
    </g>
   </g>
   <g id="line2d_10">
    <defs>
     <path id="m755fcb7be3" d="M 0 -3  L -3 3  L 3 3  z " style="stroke: #000000; stroke-linejoin: miter"/>
    </defs>
    <g id="g_11">
     <use id="use_13" xlink:href="#m755fcb7be3" x="225.3" y="16.556315" style="stroke: #000000; stroke-linejoin: miter"/>
    </g>
   </g>
   <g id="line2d_11">
    <defs>
     <path id="m01782fa50c" d="M 0 5  C 1.326016 5 2.597899 4.473168 3.535534 3.535534  C 4.473168 2.597899 5 1.326016 5 0  C 5 -1.326016 4.473168 -2.597899 3.535534 -3.535534  C 2.597899 -4.473168 1.326016 -5 0 -5  C -1.326016 -5 -2.597899 -4.473168 -3.535534 -3.535534  C -4.473168 -2.597899 -5 -1.326016 -5 0  C -5 1.326016 -4.473168 2.597899 -3.535534 3.535534  C -2.597899 4.473168 -1.326016 5 0 5  z " style="stroke: #000000; stroke-opacity: 0.8"/>
    </defs>
    <g id="g_12" clip-path="url(#p136c976b0d)">
     <use id="use_14" xlink:href="#m01782fa50c" x="370.7" y="173.948158" style="fill-opacity: 0.8; stroke: #000000; stroke-opacity: 0.8"/>
    </g>
   </g>
   <g id="line2d_12">
    <path id="path_6" d="M 370.7 173.948158  L 370.7 173.948158  " clip-path="url(#p136c976b0d)" style="fill: none; stroke: #0072b2; stroke-width: 2.5; stroke-linecap: square"/>
   </g>
   <g id="patch_3">
    <path id="path_7" d="M 225.3 331.34  L 225.3 16.556315  " style="fill: none; stroke: #000000; stroke-width: 0.8; stroke-linejoin: miter; stroke-linecap: square"/>
   </g>
   <g id="patch_4">
    <path id="path_8" d="M 443.4 331.34  L 443.4 16.556315  " style="fill: none"/>
   </g>
   <g id="patch_5">
    <path id="path_9" d="M 7.2 173.948158  L 443.4 173.948158  " style="fill: none; stroke: #000000; stroke-width: 0.8; stroke-linejoin: miter; stroke-linecap: square"/>
   </g>
   <g id="patch_6">
    <path id="path_10" d="M 7.2 16.556315  L 443.4 16.556315  " style="fill: none"/>
   </g>
   <g id="text_7">
    <!-- a = 0.00° -->
    <g id="g_13" transform="translate(332.830848 283.856734) scale(0.2 -0.2)">
     <defs>
      <path id="CMSS17-61" d="M 2406 1791  C 2406 2392 1978 2808 1402 2808  C 1120 2808 813 2757 461 2553  L 499 2135  C 659 2248 934 2432 1395 2432  C 1722 2432 1920 2180 1920 1782  L 1920 1536  C 896 1536 256 1238 256 726  C 256 461 416 -64 947 -64  C 1043 -64 1562 -64 1933 217  L 1933 -19  L 2406 -19  L 2406 1791  z M 1920 816  C 1920 701 1920 548 1728 434  C 1562 325 1350 325 1261 325  C 941 325 723 511 723 744  C 723 1211 1722 1211 1920 1211  L 1920 816  z " transform="scale(0.015625)"/>
      <path id="CMSS17-3d" d="M 4147 2017  C 4243 2017 4339 2017 4339 2125  C 4339 2240 4230 2240 4122 2240  L 550 2240  C 442 2240 333 2240 333 2125  C 333 2017 429 2017 525 2017  L 4147 2017  z M 4122 896  C 4230 896 4339 896 4339 1011  C 4339 1119 4243 1119 4147 1119  L 525 1119  C 429 1119 333 1119 333 1011  C 333 896 442 896 550 896  L 4122 896  z " transform="scale(0.015625)"/>
      <path id="CMSS17-30" d="M 2758 2044  C 2758 2405 2752 3077 2490 3596  C 2227 4096 1805 4229 1504 4229  C 1069 4229 698 3975 506 3570  C 301 3146 243 2709 243 2044  C 243 1589 262 1031 493 543  C 755 5 1197 -128 1498 -128  C 1894 -128 2278 81 2496 518  C 2720 974 2758 1474 2758 2044  z M 1498 261  C 1011 261 864 811 819 995  C 742 1310 730 1614 730 2114  C 730 2506 730 2948 851 3297  C 998 3701 1254 3840 1498 3840  C 1971 3840 2125 3372 2176 3208  C 2272 2873 2272 2481 2272 2114  C 2272 1526 2272 261 1498 261  z " transform="scale(0.015625)"/>
      <path id="CMSS17-2e" d="M 1088 510  L 576 510  L 576 0  L 1088 0  L 1088 510  z " transform="scale(0.015625)"/>
      <path id="SFSS3583-b0" d="M 890 4352  C 544 4307 326 4016 326 3712  C 326 3389 576 3072 960 3072  L 1018 3072  C 1357 3117 1587 3408 1587 3712  C 1587 4042 1312 4352 947 4352  L 890 4352  z M 525 3673  L 525 3712  C 525 3939 723 4139 947 4139  C 1178 4139 1338 3960 1382 3751  L 1382 3711  C 1382 3482 1184 3278 960 3278  C 730 3278 570 3460 525 3673  z " transform="scale(0.015625)"/>
     </defs>
     <use id="use_15" xlink:href="#CMSS17-61" transform="scale(0.996264)"/>
     <use id="use_16" xlink:href="#CMSS17-3d" transform="translate(76.151033 0) scale(0.996264)"/>
     <use id="use_17" xlink:href="#CMSS17-30" transform="translate(180.248081 0) scale(0.996264)"/>
     <use id="use_18" xlink:href="#CMSS17-2e" transform="translate(227.091704 0) scale(0.996264)"/>
     <use id="use_19" xlink:href="#CMSS17-30" transform="translate(253.115909 0) scale(0.996264)"/>
     <use id="use_20" xlink:href="#CMSS17-30" transform="translate(299.959533 0) scale(0.996264)"/>
     <use id="use_21" xlink:href="#SFSS3583-b0" transform="translate(346.803156 0) scale(0.356961)"/>
    </g>
   </g>
  </g>
 </g>
 <defs>
  <clipPath id="p136c976b0d">
   <rect id="rect_0" x="7.2" y="16.556315" width="436.2" height="314.783685"/>
  </clipPath>
 </defs>
</svg>