<?xml version="1.0" encoding="utf-8" standalone="no"?>
<!DOCTYPE svg PUBLIC "-//W3C//DTD SVG 1.1//EN"
  "http://www.w3.org/Graphics/SVG/1.1/DTD/svg11.dtd">
<svg xmlns:xlink="http://www.w3.org/1999/xlink" width="474.089621pt" height="555.341662pt" viewBox="0 0 474.089621 555.341662" xmlns="http://www.w3.org/2000/svg" version="1.1">
 <metadata>
  <rdf:RDF xmlns:dc="http://purl.org/dc/elements/1.1/" xmlns:cc="http://creativecommons.org/ns#" xmlns:rdf="http://www.w3.org/1999/02/22-rdf-syntax-ns#">
   <cc:Work>
    <dc:type rdf:resource="http://purl.org/dc/dcmitype/StillImage"/>
    <dc:date>2026-01-22T01:38:55.961289</dc:date>
    <dc:format>image/svg+xml</dc:format>
    <dc:creator>
     <cc:Agent>
      <dc:title>Matplotlib v3.9.1, https://matplotlib.org/</dc:title>
     </cc:Agent>
    </dc:creator>
   </cc:Work>
  </rdf:RDF>
 </metadata>
 <defs>
  <style type="text/css">*{stroke-linejoin: round; stroke-linecap: butt}</style>
 </defs>
 <g id="g1f0010_29c05a_figure_1">
  <g id="g1f0010_29c05a_patch_1">
   <path d="M 0 555.341662 
L 474.089621 555.341662 
L 474.089621 0 
L 0 0 
L 0 555.341662 
z
" style="fill: none; opacity: 0"/>
  </g>
  <g id="g1f0010_29c05a_axes_1">
   <g id="g1f0010_29c05a_patch_2">
    <path d="M 27.689621 548.141662 
L 463.889621 548.141662 
L 463.889621 235.572056 
L 27.689621 235.572056 
L 27.689621 548.141662 
z
" style="fill: none; opacity: 0"/>
   </g>
   <g id="g1f0010_29c05a_matplotlib.axis_1">
    <g id="g1f0010_29c05a_xtick_1">
     <g id="g1f0010_29c05a_line2d_1">
      <defs>
       <path id="g1f0010_29c05a_mabe10cdbff" d="M 0 0 
L 0 3.5 
" style="stroke: #000000; stroke-width: 0.8"/>
      </defs>
      <g>
       <use xlink:href="#g1f0010_29c05a_mabe10cdbff" x="71.309621" y="391.856859" style="stroke: #000000; stroke-width: 0.8"/>
      </g>
     </g>
     <g id="g1f0010_29c05a_text_1">
      <!-- $\mathdefault{−4}$ -->
      <g transform="translate(55.912382 416.153112) scale(0.25 -0.25)">
       <defs>
        <path id="g1f0010_29c05a_CMSY10-0" d="M 4218 1472 
C 4326 1472 4442 1472 4442 1600 
C 4442 1728 4326 1728 4218 1728 
L 755 1728 
C 646 1728 531 1728 531 1600 
C 531 1472 646 1472 755 1472 
L 4218 1472 
z
" transform="scale(0.015625)"/>
        <path id="g1f0010_29c05a_CMR17-34" d="M 2150 4122 
C 2150 4256 2144 4256 2029 4256 
L 128 1254 
L 128 1088 
L 1779 1088 
L 1779 457 
C 1779 224 1766 160 1318 160 
L 1197 160 
L 1197 0 
C 1402 0 1747 0 1965 0 
C 2182 0 2528 0 2733 0 
L 2733 160 
L 2611 160 
C 2163 160 2150 224 2150 457 
L 2150 1088 
L 2803 1088 
L 2803 1254 
L 2150 1254 
L 2150 4122 
z
M 1798 3703 
L 1798 1254 
L 256 1254 
L 1798 3703 
z
" transform="scale(0.015625)"/>
       </defs>
       <use xlink:href="#g1f0010_29c05a_CMSY10-0" transform="scale(0.996264)"/>
       <use xlink:href="#g1f0010_29c05a_CMR17-34" transform="translate(77.487468 0) scale(0.996264)"/>
      </g>
     </g>
    </g>
    <g id="g1f0010_29c05a_xtick_2">
     <g id="g1f0010_29c05a_line2d_2">
      <g>
       <use xlink:href="#g1f0010_29c05a_mabe10cdbff" x="114.929621" y="391.856859" style="stroke: #000000; stroke-width: 0.8"/>
      </g>
     </g>
     <g id="g1f0010_29c05a_text_2">
      <!-- $\mathdefault{−3}$ -->
      <g transform="translate(99.532382 416.153112) scale(0.25 -0.25)">
       <defs>
        <path id="g1f0010_29c05a_CMR17-33" d="M 1414 2157 
C 1984 2157 2234 1662 2234 1090 
C 2234 320 1824 25 1453 25 
C 1114 25 563 194 390 693 
C 422 680 454 680 486 680 
C 640 680 755 782 755 948 
C 755 1133 614 1216 486 1216 
C 378 1216 211 1165 211 926 
C 211 335 787 -128 1466 -128 
C 2176 -128 2720 430 2720 1085 
C 2720 1707 2208 2157 1600 2227 
C 2086 2328 2554 2756 2554 3329 
C 2554 3820 2048 4179 1472 4179 
C 890 4179 378 3829 378 3329 
C 378 3110 544 3072 627 3072 
C 762 3072 877 3155 877 3321 
C 877 3486 762 3569 627 3569 
C 602 3569 570 3569 544 3557 
C 730 3959 1235 4032 1459 4032 
C 1683 4032 2106 3925 2106 3320 
C 2106 3143 2080 2828 1862 2550 
C 1670 2304 1453 2304 1242 2284 
C 1210 2284 1062 2269 1037 2269 
C 992 2263 966 2257 966 2208 
C 966 2163 973 2157 1101 2157 
L 1414 2157 
z
" transform="scale(0.015625)"/>
       </defs>
       <use xlink:href="#g1f0010_29c05a_CMSY10-0" transform="scale(0.996264)"/>
       <use xlink:href="#g1f0010_29c05a_CMR17-33" transform="translate(77.487468 0) scale(0.996264)"/>
      </g>
     </g>
    </g>
    <g id="g1f0010_29c05a_xtick_3">
     <g id="g1f0010_29c05a_line2d_3">
      <g>
       <use xlink:href="#g1f0010_29c05a_mabe10cdbff" x="158.549621" y="391.856859" style="stroke: #000000; stroke-width: 0.8"/>
      </g>
     </g>
     <g id="g1f0010_29c05a_text_3">
      <!-- $\mathdefault{−2}$ -->
      <g transform="translate(143.152382 416.153112) scale(0.25 -0.25)">
       <defs>
        <path id="g1f0010_29c05a_CMR17-32" d="M 2669 989 
L 2554 989 
C 2490 536 2438 459 2413 420 
C 2381 369 1920 369 1830 369 
L 602 369 
C 832 619 1280 1072 1824 1597 
C 2214 1967 2669 2402 2669 3035 
C 2669 3790 2067 4224 1395 4224 
C 691 4224 262 3604 262 3030 
C 262 2780 448 2748 525 2748 
C 589 2748 781 2787 781 3010 
C 781 3207 614 3264 525 3264 
C 486 3264 448 3258 422 3245 
C 544 3790 915 4058 1306 4058 
C 1862 4058 2227 3617 2227 3035 
C 2227 2479 1901 2000 1536 1584 
L 262 146 
L 262 0 
L 2515 0 
L 2669 989 
z
" transform="scale(0.015625)"/>
       </defs>
       <use xlink:href="#g1f0010_29c05a_CMSY10-0" transform="scale(0.996264)"/>
       <use xlink:href="#g1f0010_29c05a_CMR17-32" transform="translate(77.487468 0) scale(0.996264)"/>
      </g>
     </g>
    </g>
    <g id="g1f0010_29c05a_xtick_4">
     <g id="g1f0010_29c05a_line2d_4">
      <g>
       <use xlink:href="#g1f0010_29c05a_mabe10cdbff" x="202.169621" y="391.856859" style="stroke: #000000; stroke-width: 0.8"/>
      </g>
     </g>
     <g id="g1f0010_29c05a_text_4">
      <!-- $\mathdefault{−1}$ -->
      <g transform="translate(186.772382 416.153112) scale(0.25 -0.25)">
       <defs>
        <path id="g1f0010_29c05a_CMR17-31" d="M 1702 4058 
C 1702 4192 1696 4192 1606 4192 
C 1357 3916 979 3827 621 3827 
C 602 3827 570 3827 563 3808 
C 557 3795 557 3782 557 3648 
C 755 3648 1088 3686 1344 3839 
L 1344 461 
C 1344 236 1331 160 781 160 
L 589 160 
L 589 0 
C 896 0 1216 0 1523 0 
C 1830 0 2150 0 2458 0 
L 2458 160 
L 2266 160 
C 1715 160 1702 230 1702 458 
L 1702 4058 
z
" transform="scale(0.015625)"/>
       </defs>
       <use xlink:href="#g1f0010_29c05a_CMSY10-0" transform="scale(0.996264)"/>
       <use xlink:href="#g1f0010_29c05a_CMR17-31" transform="translate(77.487468 0) scale(0.996264)"/>
      </g>
     </g>
    </g>
    <g id="g1f0010_29c05a_xtick_5">
     <g id="g1f0010_29c05a_line2d_5">
      <g>
       <use xlink:href="#g1f0010_29c05a_mabe10cdbff" x="289.409621" y="391.856859" style="stroke: #000000; stroke-width: 0.8"/>
      </g>
     </g>
     <g id="g1f0010_29c05a_text_5">
      <!-- $\mathdefault{1}$ -->
      <g transform="translate(283.698311 416.153112) scale(0.25 -0.25)">
       <use xlink:href="#g1f0010_29c05a_CMR17-31" transform="scale(0.996264)"/>
      </g>
     </g>
    </g>
    <g id="g1f0010_29c05a_xtick_6">
     <g id="g1f0010_29c05a_line2d_6">
      <g>
       <use xlink:href="#g1f0010_29c05a_mabe10cdbff" x="333.029621" y="391.856859" style="stroke: #000000; stroke-width: 0.8"/>
      </g>
     </g>
     <g id="g1f0010_29c05a_text_6">
      <!-- $\mathdefault{2}$ -->
      <g transform="translate(327.318311 416.153112) scale(0.25 -0.25)">
       <use xlink:href="#g1f0010_29c05a_CMR17-32" transform="scale(0.996264)"/>
      </g>
     </g>
    </g>
    <g id="g1f0010_29c05a_xtick_7">
     <g id="g1f0010_29c05a_line2d_7">
      <g>
       <use xlink:href="#g1f0010_29c05a_mabe10cdbff" x="376.649621" y="391.856859" style="stroke: #000000; stroke-width: 0.8"/>
      </g>
     </g>
     <g id="g1f0010_29c05a_text_7">
      <!-- $\mathdefault{3}$ -->
      <g transform="translate(370.938311 416.153112) scale(0.25 -0.25)">
       <use xlink:href="#g1f0010_29c05a_CMR17-33" transform="scale(0.996264)"/>
      </g>
     </g>
    </g>
    <g id="g1f0010_29c05a_xtick_8">
     <g id="g1f0010_29c05a_line2d_8">
      <g>
       <use xlink:href="#g1f0010_29c05a_mabe10cdbff" x="420.269621" y="391.856859" style="stroke: #000000; stroke-width: 0.8"/>
      </g>
     </g>
     <g id="g1f0010_29c05a_text_8">
      <!-- $\mathdefault{4}$ -->
      <g transform="translate(414.558311 416.153112) scale(0.25 -0.25)">
       <use xlink:href="#g1f0010_29c05a_CMR17-34" transform="scale(0.996264)"/>
      </g>
     </g>
    </g>
    <g id="g1f0010_29c05a_text_9">
     <!-- $x$ -->
     <g transform="translate(450.031114 442.2939) scale(0.25 -0.25)">
      <defs>
       <path id="g1f0010_29c05a_CMMI12-78" d="M 3034 2606 
C 2829 2567 2752 2414 2752 2293 
C 2752 2139 2874 2088 2963 2088 
C 3155 2088 3290 2254 3290 2427 
C 3290 2695 2982 2816 2714 2816 
C 2323 2816 2106 2433 2048 2312 
C 1901 2816 1504 2816 1389 2816 
C 736 2816 390 1980 390 1839 
C 390 1814 416 1782 461 1782 
C 512 1782 525 1820 538 1846 
C 755 2555 1184 2689 1370 2689 
C 1658 2689 1715 2420 1715 2267 
C 1715 2127 1677 1980 1600 1673 
L 1382 798 
C 1286 415 1101 64 762 64 
C 730 64 570 64 435 147 
C 666 192 717 383 717 460 
C 717 588 621 664 499 664 
C 346 664 179 530 179 326 
C 179 57 480 -64 755 -64 
C 1062 -64 1280 179 1414 441 
C 1517 64 1837 -64 2074 -64 
C 2726 -64 3072 773 3072 913 
C 3072 945 3046 971 3008 971 
C 2950 971 2944 939 2925 888 
C 2752 326 2381 64 2093 64 
C 1869 64 1747 230 1747 492 
C 1747 632 1773 734 1875 1156 
L 2099 2024 
C 2195 2408 2413 2689 2707 2689 
C 2720 2689 2899 2689 3034 2606 
z
" transform="scale(0.015625)"/>
      </defs>
      <use xlink:href="#g1f0010_29c05a_CMMI12-78" transform="scale(0.996264)"/>
     </g>
    </g>
   </g>
   <g id="g1f0010_29c05a_matplotlib.axis_2">
    <g id="g1f0010_29c05a_ytick_1">
     <g id="g1f0010_29c05a_line2d_9">
      <defs>
       <path id="g1f0010_29c05a_mc17bc7565b" d="M 0 0 
L -3.5 0 
" style="stroke: #000000; stroke-width: 0.8"/>
      </defs>
      <g>
       <use xlink:href="#g1f0010_29c05a_mc17bc7565b" x="245.789621" y="522.094195" style="stroke: #000000; stroke-width: 0.8"/>
      </g>
     </g>
     <g id="g1f0010_29c05a_text_10">
      <!-- $\mathdefault{−5}$ -->
      <g transform="translate(207.995142 530.742322) scale(0.25 -0.25)">
       <defs>
        <path id="g1f0010_29c05a_CMR17-35" d="M 730 3692 
C 794 3666 1056 3584 1325 3584 
C 1920 3584 2246 3911 2432 4100 
C 2432 4157 2432 4192 2394 4192 
C 2387 4192 2374 4192 2323 4163 
C 2099 4058 1837 3973 1517 3973 
C 1325 3973 1037 3999 723 4139 
C 653 4171 640 4171 634 4171 
C 602 4171 595 4164 595 4037 
L 595 2203 
C 595 2089 595 2057 659 2057 
C 691 2057 704 2070 736 2114 
C 941 2401 1222 2522 1542 2522 
C 1766 2522 2246 2382 2246 1289 
C 2246 1085 2246 715 2054 421 
C 1894 159 1645 25 1370 25 
C 947 25 518 320 403 814 
C 429 807 480 795 506 795 
C 589 795 749 840 749 1038 
C 749 1210 627 1280 506 1280 
C 358 1280 262 1190 262 1011 
C 262 454 704 -128 1382 -128 
C 2042 -128 2669 440 2669 1264 
C 2669 2030 2170 2624 1549 2624 
C 1222 2624 947 2503 730 2274 
L 730 3692 
z
" transform="scale(0.015625)"/>
       </defs>
       <use xlink:href="#g1f0010_29c05a_CMSY10-0" transform="scale(0.996264)"/>
       <use xlink:href="#g1f0010_29c05a_CMR17-35" transform="translate(77.487468 0) scale(0.996264)"/>
      </g>
     </g>
    </g>
    <g id="g1f0010_29c05a_ytick_2">
     <g id="g1f0010_29c05a_line2d_10">
      <g>
       <use xlink:href="#g1f0010_29c05a_mc17bc7565b" x="245.789621" y="496.046728" style="stroke: #000000; stroke-width: 0.8"/>
      </g>
     </g>
     <g id="g1f0010_29c05a_text_11">
      <!-- $\mathdefault{−4}$ -->
      <g transform="translate(207.995142 504.694854) scale(0.25 -0.25)">
       <use xlink:href="#g1f0010_29c05a_CMSY10-0" transform="scale(0.996264)"/>
       <use xlink:href="#g1f0010_29c05a_CMR17-34" transform="translate(77.487468 0) scale(0.996264)"/>
      </g>
     </g>
    </g>
    <g id="g1f0010_29c05a_ytick_3">
     <g id="g1f0010_29c05a_line2d_11">
      <g>
       <use xlink:href="#g1f0010_29c05a_mc17bc7565b" x="245.789621" y="469.99926" style="stroke: #000000; stroke-width: 0.8"/>
      </g>
     </g>
     <g id="g1f0010_29c05a_text_12">
      <!-- $\mathdefault{−3}$ -->
      <g transform="translate(207.995142 478.647387) scale(0.25 -0.25)">
       <use xlink:href="#g1f0010_29c05a_CMSY10-0" transform="scale(0.996264)"/>
       <use xlink:href="#g1f0010_29c05a_CMR17-33" transform="translate(77.487468 0) scale(0.996264)"/>
      </g>
     </g>
    </g>
    <g id="g1f0010_29c05a_ytick_4">
     <g id="g1f0010_29c05a_line2d_12">
      <g>
       <use xlink:href="#g1f0010_29c05a_mc17bc7565b" x="245.789621" y="443.951793" style="stroke: #000000; stroke-width: 0.8"/>
      </g>
     </g>
     <g id="g1f0010_29c05a_text_13">
      <!-- $\mathdefault{−2}$ -->
      <g transform="translate(207.995142 452.59992) scale(0.25 -0.25)">
       <use xlink:href="#g1f0010_29c05a_CMSY10-0" transform="scale(0.996264)"/>
       <use xlink:href="#g1f0010_29c05a_CMR17-32" transform="translate(77.487468 0) scale(0.996264)"/>
      </g>
     </g>
    </g>
    <g id="g1f0010_29c05a_ytick_5">
     <g id="g1f0010_29c05a_line2d_13">
      <g>
       <use xlink:href="#g1f0010_29c05a_mc17bc7565b" x="245.789621" y="417.904326" style="stroke: #000000; stroke-width: 0.8"/>
      </g>
     </g>
     <g id="g1f0010_29c05a_text_14">
      <!-- $\mathdefault{−1}$ -->
      <g transform="translate(207.995142 426.552453) scale(0.25 -0.25)">
       <use xlink:href="#g1f0010_29c05a_CMSY10-0" transform="scale(0.996264)"/>
       <use xlink:href="#g1f0010_29c05a_CMR17-31" transform="translate(77.487468 0) scale(0.996264)"/>
      </g>
     </g>
    </g>
    <g id="g1f0010_29c05a_ytick_6">
     <g id="g1f0010_29c05a_line2d_14">
      <g>
       <use xlink:href="#g1f0010_29c05a_mc17bc7565b" x="245.789621" y="365.809392" style="stroke: #000000; stroke-width: 0.8"/>
      </g>
     </g>
     <g id="g1f0010_29c05a_text_15">
      <!-- $\mathdefault{1}$ -->
      <g transform="translate(227.367002 374.457519) scale(0.25 -0.25)">
       <use xlink:href="#g1f0010_29c05a_CMR17-31" transform="scale(0.996264)"/>
      </g>
     </g>
    </g>
    <g id="g1f0010_29c05a_ytick_7">
     <g id="g1f0010_29c05a_line2d_15">
      <g>
       <use xlink:href="#g1f0010_29c05a_mc17bc7565b" x="245.789621" y="339.761925" style="stroke: #000000; stroke-width: 0.8"/>
      </g>
     </g>
     <g id="g1f0010_29c05a_text_16">
      <!-- $\mathdefault{2}$ -->
      <g transform="translate(227.367002 348.410051) scale(0.25 -0.25)">
       <use xlink:href="#g1f0010_29c05a_CMR17-32" transform="scale(0.996264)"/>
      </g>
     </g>
    </g>
    <g id="g1f0010_29c05a_ytick_8">
     <g id="g1f0010_29c05a_line2d_16">
      <g>
       <use xlink:href="#g1f0010_29c05a_mc17bc7565b" x="245.789621" y="313.714457" style="stroke: #000000; stroke-width: 0.8"/>
      </g>
     </g>
     <g id="g1f0010_29c05a_text_17">
      <!-- $\mathdefault{3}$ -->
      <g transform="translate(227.367002 322.362584) scale(0.25 -0.25)">
       <use xlink:href="#g1f0010_29c05a_CMR17-33" transform="scale(0.996264)"/>
      </g>
     </g>
    </g>
    <g id="g1f0010_29c05a_ytick_9">
     <g id="g1f0010_29c05a_line2d_17">
      <g>
       <use xlink:href="#g1f0010_29c05a_mc17bc7565b" x="245.789621" y="287.66699" style="stroke: #000000; stroke-width: 0.8"/>
      </g>
     </g>
     <g id="g1f0010_29c05a_text_18">
      <!-- $\mathdefault{4}$ -->
      <g transform="translate(227.367002 296.315117) scale(0.25 -0.25)">
       <use xlink:href="#g1f0010_29c05a_CMR17-34" transform="scale(0.996264)"/>
      </g>
     </g>
    </g>
    <g id="g1f0010_29c05a_ytick_10">
     <g id="g1f0010_29c05a_line2d_18">
      <g>
       <use xlink:href="#g1f0010_29c05a_mc17bc7565b" x="245.789621" y="261.619523" style="stroke: #000000; stroke-width: 0.8"/>
      </g>
     </g>
     <g id="g1f0010_29c05a_text_19">
      <!-- $\mathdefault{5}$ -->
      <g transform="translate(227.367002 270.26765) scale(0.25 -0.25)">
       <use xlink:href="#g1f0010_29c05a_CMR17-35" transform="scale(0.996264)"/>
      </g>
     </g>
    </g>
    <g id="g1f0010_29c05a_text_20">
     <!-- $y$ -->
     <g transform="translate(192.104095 230.727522) scale(0.25 -0.25)">
      <defs>
       <path id="g1f0010_29c05a_CMMI12-79" d="M 1683 -700 
C 1510 -939 1261 -1152 947 -1152 
C 870 -1152 563 -1152 467 -889 
C 486 -895 518 -895 531 -895 
C 723 -895 851 -729 851 -582 
C 851 -435 730 -384 634 -384 
C 531 -384 307 -458 307 -759 
C 307 -1071 582 -1286 947 -1286 
C 1587 -1286 2234 -700 2413 6 
L 3040 2485 
C 3046 2517 3059 2556 3059 2594 
C 3059 2689 2982 2753 2886 2753 
C 2829 2753 2694 2727 2643 2535 
L 2170 658 
C 2138 543 2138 530 2086 460 
C 1958 281 1747 64 1440 64 
C 1082 64 1050 415 1050 588 
C 1050 952 1222 1443 1395 1903 
C 1466 2088 1504 2178 1504 2305 
C 1504 2574 1312 2816 998 2816 
C 410 2816 173 1890 173 1839 
C 173 1814 198 1782 243 1782 
C 301 1782 307 1807 333 1897 
C 486 2433 730 2689 979 2689 
C 1037 2689 1146 2689 1146 2478 
C 1146 2312 1075 2127 979 1884 
C 666 1047 666 837 666 683 
C 666 77 1101 -64 1421 -64 
C 1606 -64 1837 -6 2061 230 
L 2067 224 
C 1971 -147 1907 -392 1683 -700 
z
" transform="scale(0.015625)"/>
      </defs>
      <use xlink:href="#g1f0010_29c05a_CMMI12-79" transform="scale(0.996264)"/>
     </g>
    </g>
   </g>
   <g id="g1f0010_29c05a_line2d_19">
    <defs>
     <path id="g1f0010_29c05a_mcde9e9d1b9" d="M 3 0 
L -3 -3 
L -3 3 
z
" style="stroke: #000000; stroke-linejoin: miter"/>
    </defs>
    <g>
     <use xlink:href="#g1f0010_29c05a_mcde9e9d1b9" x="463.889621" y="391.856859" style="stroke: #000000; stroke-linejoin: miter"/>
    </g>
   </g>
   <g id="g1f0010_29c05a_line2d_20">
    <defs>
     <path id="g1f0010_29c05a_m1d6d5706e6" d="M 0 -3 
L -3 3 
L 3 3 
z
" style="stroke: #000000; stroke-linejoin: miter"/>
    </defs>
    <g>
     <use xlink:href="#g1f0010_29c05a_m1d6d5706e6" x="245.789621" y="235.572056" style="stroke: #000000; stroke-linejoin: miter"/>
    </g>
   </g>
   <g id="g1f0010_29c05a_line2d_21">
    <path d="M 138.698955 -1 
L 143.242114 38.116719 
L 147.932436 76.720161 
L 152.622759 113.516634 
L 157.313081 148.506137 
L 161.577011 178.746744 
L 165.840941 207.493988 
L 170.10487 234.747869 
L 174.3688 260.508386 
L 178.206337 282.416026 
L 182.043873 303.114042 
L 185.88141 322.602433 
L 189.718946 340.8812 
L 193.13009 356.113506 
L 196.541234 370.39006 
L 199.952378 383.710861 
L 203.363521 396.075909 
L 206.348272 406.111311 
L 209.333023 415.414964 
L 212.317773 423.98687 
L 215.302524 431.827027 
L 217.860882 437.96475 
L 220.41924 443.564863 
L 222.977598 448.627365 
L 225.535955 453.152255 
L 227.66792 456.512323 
L 229.799885 459.49905 
L 231.93185 462.112435 
L 234.063815 464.35248 
L 236.195779 466.219185 
L 237.901351 467.443742 
L 239.606923 468.429362 
L 241.312495 469.176044 
L 243.018067 469.683787 
L 244.723639 469.952593 
L 246.42921 469.98246 
L 248.134782 469.773389 
L 249.840354 469.32538 
L 251.545926 468.638433 
L 253.251498 467.712548 
L 254.95707 466.547724 
L 256.662641 465.143963 
L 258.794606 463.053254 
L 260.926571 460.589205 
L 263.058536 457.751814 
L 265.190501 454.541083 
L 267.322466 450.957011 
L 269.880823 446.163315 
L 272.439181 440.832008 
L 274.997539 434.96309 
L 277.555897 428.556561 
L 280.114254 421.612422 
L 283.099005 412.831446 
L 286.083756 403.318721 
L 289.068507 393.074249 
L 292.053257 382.098028 
L 295.464401 368.657758 
L 298.875545 354.261736 
L 302.286688 338.909961 
L 305.697832 322.602433 
L 309.535369 303.114042 
L 313.372905 282.416026 
L 317.210442 260.508386 
L 321.047979 237.391122 
L 325.311908 210.286577 
L 329.575838 181.68867 
L 333.839768 151.597399 
L 338.103697 120.012764 
L 342.79402 83.544832 
L 347.484342 45.26993 
L 352.174665 5.188058 
L 352.880287 -1 
L 352.880287 -1 
" clip-path="url(#g1f0010_29c05a_p824f8ddc48)" style="fill: none; stroke: #0072b2; stroke-width: 2.5; stroke-linecap: square"/>
   </g>
   <g id="g1f0010_29c05a_line2d_22">
    <defs>
     <path id="g1f0010_29c05a_mf5b0505fcd" d="M 0 5 
C 1.326016 5 2.597899 4.473168 3.535534 3.535534 
C 4.473168 2.597899 5 1.326016 5 0 
C 5 -1.326016 4.473168 -2.597899 3.535534 -3.535534 
C 2.597899 -4.473168 1.326016 -5 0 -5 
C -1.326016 -5 -2.597899 -4.473168 -3.535534 -3.535534 
C -4.473168 -2.597899 -5 -1.326016 -5 0 
C -5 1.326016 -4.473168 2.597899 -3.535534 3.535534 
C -2.597899 4.473168 -1.326016 5 0 5 
z
" style="stroke: #000000; stroke-opacity: 0.8"/>
    </defs>
    <g clip-path="url(#g1f0010_29c05a_p824f8ddc48)">
     <use xlink:href="#g1f0010_29c05a_mf5b0505fcd" x="142.525947" y="32.063336" style="fill-opacity: 0.8; stroke: #000000; stroke-opacity: 0.8"/>
    </g>
   </g>
   <g id="g1f0010_29c05a_patch_3">
    <path d="M 245.789621 548.141662 
L 245.789621 235.572056 
" style="fill: none; stroke: #000000; stroke-width: 0.8; stroke-linejoin: miter; stroke-linecap: square"/>
   </g>
   <g id="g1f0010_29c05a_patch_4">
    <path d="M 463.889621 548.141662 
L 463.889621 235.572056 
" style="fill: none"/>
   </g>
   <g id="g1f0010_29c05a_patch_5">
    <path d="M 27.689621 391.856859 
L 463.889621 391.856859 
" style="fill: none; stroke: #000000; stroke-width: 0.8; stroke-linejoin: miter; stroke-linecap: square"/>
   </g>
   <g id="g1f0010_29c05a_patch_6">
    <path d="M 27.689621 235.572056 
L 463.889621 235.572056 
" style="fill: none"/>
   </g>
   <g id="g1f0010_29c05a_text_21">
    <g id="g1f0010_29c05a_patch_7">
     <path d="M 7.2 39.563336 
L 142.525947 39.563336 
Q 150.025947 39.563336 150.025947 32.063336 
L 150.025947 7.2 
Q 150.025947 -0.3 142.525947 -0.3 
L 7.2 -0.3 
Q -0.3 -0.3 -0.3 7.2 
L -0.3 32.063336 
Q -0.3 39.563336 7.2 39.563336 
z
" style="fill: #ffffff; opacity: 0.8"/>
    </g>
    <!-- (-2.37, 13.81) -->
    <g transform="translate(7.2 25.857528) scale(0.25 -0.25)">
     <defs>
      <path id="g1f0010_29c05a_CMSS17-28" d="M 1613 4768 
C 1267 4417 474 3601 474 1588 
C 474 -433 1267 -1243 1613 -1600 
L 2003 -1600 
C 1216 -784 960 357 960 1581 
C 960 2798 1203 3946 2003 4768 
L 1613 4768 
z
" transform="scale(0.015625)"/>
      <path id="g1f0010_29c05a_CMSS17-2d" d="M 1664 1216 
L 1664 1585 
L 64 1585 
L 64 1216 
L 1664 1216 
z
" transform="scale(0.015625)"/>
      <path id="g1f0010_29c05a_CMSS17-32" d="M 1651 1357 
C 1830 1541 2099 1764 2285 1987 
C 2464 2204 2701 2511 2701 2957 
C 2701 3657 2227 4288 1421 4288 
C 787 4288 422 3893 250 3274 
L 499 2929 
C 640 3510 838 3880 1338 3880 
C 1888 3880 2195 3433 2195 2942 
C 2195 2355 1747 1901 1408 1563 
C 1030 1187 659 804 301 408 
L 301 0 
L 2701 0 
L 2701 433 
L 1613 433 
C 1536 433 1459 433 1382 433 
L 742 433 
L 742 439 
L 1651 1357 
z
" transform="scale(0.015625)"/>
      <path id="g1f0010_29c05a_CMSS17-2e" d="M 1088 510 
L 576 510 
L 576 0 
L 1088 0 
L 1088 510 
z
" transform="scale(0.015625)"/>
      <path id="g1f0010_29c05a_CMSS17-33" d="M 1005 2025 
L 1440 2025 
C 2042 2025 2214 1507 2214 1146 
C 2214 653 1933 267 1472 267 
C 1114 267 608 444 320 912 
C 275 691 275 678 250 526 
C 550 88 1037 -128 1485 -128 
C 2214 -128 2752 473 2752 1138 
C 2752 1638 2400 2057 1920 2215 
C 2304 2424 2586 2816 2586 3273 
C 2586 3805 2093 4229 1491 4229 
C 941 4229 512 3892 333 3530 
C 378 3468 493 3284 550 3189 
C 691 3562 1056 3840 1485 3840 
C 1843 3840 2080 3607 2080 3271 
C 2080 2923 1856 2543 1478 2455 
C 1453 2455 1056 2417 1005 2411 
L 1005 2025 
z
" transform="scale(0.015625)"/>
      <path id="g1f0010_29c05a_CMSS17-37" d="M 1389 3776 
C 1466 3776 1542 3776 1619 3776 
L 2355 3776 
C 1440 2711 915 1365 915 -32 
L 1427 -32 
C 1427 1323 1875 2696 2752 3795 
L 2752 4209 
L 250 4209 
L 250 3776 
L 1389 3776 
z
" transform="scale(0.015625)"/>
      <path id="g1f0010_29c05a_CMSS17-2c" d="M 1088 6 
L 1088 510 
L 576 510 
L 576 0 
L 736 0 
L 570 -800 
L 826 -800 
L 1088 6 
z
" transform="scale(0.015625)"/>
      <path id="g1f0010_29c05a_CMSS17-31" d="M 1818 4288 
L 1696 4288 
C 1350 3940 947 3890 538 3890 
L 538 3520 
C 723 3520 1024 3520 1325 3667 
L 1325 369 
L 570 369 
L 570 0 
L 2573 0 
L 2573 369 
L 1818 369 
L 1818 4288 
z
" transform="scale(0.015625)"/>
      <path id="g1f0010_29c05a_CMSS17-38" d="M 1933 2222 
C 2419 2380 2669 2760 2669 3134 
C 2669 3722 2157 4229 1504 4229 
C 826 4229 333 3708 333 3144 
C 333 2780 576 2403 1069 2241 
C 442 1997 250 1512 250 1149 
C 250 446 819 -128 1498 -128 
C 2202 -128 2752 455 2752 1138 
C 2752 1557 2502 2000 1933 2222 
z
M 1504 2432 
C 1075 2432 787 2712 787 3136 
C 787 3566 1075 3840 1504 3840 
C 1901 3840 2214 3591 2214 3136 
C 2214 2687 1907 2432 1504 2432 
z
M 1504 267 
C 1139 267 749 517 749 1156 
C 749 1813 1184 2043 1498 2043 
C 1843 2043 2253 1800 2253 1156 
C 2253 491 1830 267 1504 267 
z
" transform="scale(0.015625)"/>
      <path id="g1f0010_29c05a_CMSS17-29" d="M 723 -1600 
C 1069 -1249 1862 -433 1862 1581 
C 1862 3601 1069 4411 723 4768 
L 333 4768 
C 1120 3952 1376 2811 1376 1588 
C 1376 370 1133 -778 333 -1600 
L 723 -1600 
z
" transform="scale(0.015625)"/>
     </defs>
     <use xlink:href="#g1f0010_29c05a_CMSS17-28" transform="scale(0.996264)"/>
     <use xlink:href="#g1f0010_29c05a_CMSS17-2d" transform="translate(36.433914 0) scale(0.996264)"/>
     <use xlink:href="#g1f0010_29c05a_CMSS17-32" transform="translate(67.663027 0) scale(0.996264)"/>
     <use xlink:href="#g1f0010_29c05a_CMSS17-2e" transform="translate(114.50665 0) scale(0.996264)"/>
     <use xlink:href="#g1f0010_29c05a_CMSS17-33" transform="translate(140.530855 0) scale(0.996264)"/>
     <use xlink:href="#g1f0010_29c05a_CMSS17-37" transform="translate(187.374479 0) scale(0.996264)"/>
     <use xlink:href="#g1f0010_29c05a_CMSS17-2c" transform="translate(234.218102 0) scale(0.996264)"/>
     <use xlink:href="#g1f0010_29c05a_CMSS17-31" transform="translate(291.47142 0) scale(0.996264)"/>
     <use xlink:href="#g1f0010_29c05a_CMSS17-33" transform="translate(338.315044 0) scale(0.996264)"/>
     <use xlink:href="#g1f0010_29c05a_CMSS17-2e" transform="translate(385.158667 0) scale(0.996264)"/>
     <use xlink:href="#g1f0010_29c05a_CMSS17-38" transform="translate(411.182872 0) scale(0.996264)"/>
     <use xlink:href="#g1f0010_29c05a_CMSS17-31" transform="translate(458.026495 0) scale(0.996264)"/>
     <use xlink:href="#g1f0010_29c05a_CMSS17-29" transform="translate(504.870119 0) scale(0.996264)"/>
    </g>
   </g>
  </g>
 </g>
 <defs>
  <clipPath id="g1f0010_29c05a_p824f8ddc48">
   <rect x="27.689621" y="235.572056" width="436.2" height="312.569606"/>
  </clipPath>
 </defs>
</svg>
