<?xml version="1.0" encoding="utf-8" standalone="no"?>
<!DOCTYPE svg PUBLIC "-//W3C//DTD SVG 1.1//EN"
  "http://www.w3.org/Graphics/SVG/1.1/DTD/svg11.dtd">
<svg xmlns:xlink="http://www.w3.org/1999/xlink" width="453.6pt" height="347.048713pt" viewBox="0 0 453.6 347.048713" xmlns="http://www.w3.org/2000/svg" version="1.1">
 <metadata>
  <rdf:RDF xmlns:dc="http://purl.org/dc/elements/1.1/" xmlns:cc="http://creativecommons.org/ns#" xmlns:rdf="http://www.w3.org/1999/02/22-rdf-syntax-ns#">
   <cc:Work>
    <dc:type rdf:resource="http://purl.org/dc/dcmitype/StillImage"/>
    <dc:date>2026-01-22T01:38:56.144108</dc:date>
    <dc:format>image/svg+xml</dc:format>
    <dc:creator>
     <cc:Agent>
      <dc:title>Matplotlib v3.9.1, https://matplotlib.org/</dc:title>
     </cc:Agent>
    </dc:creator>
   </cc:Work>
  </rdf:RDF>
 </metadata>
 <defs>
  <style type="text/css">*{stroke-linejoin: round; stroke-linecap: butt}</style>
 </defs>
 <g id="g1f0014_b5a77d_figure_1">
  <g id="g1f0014_b5a77d_patch_1">
   <path d="M 0 347.048713 
L 453.6 347.048713 
L 453.6 0 
L 0 0 
L 0 347.048713 
z
" style="fill: none; opacity: 0"/>
  </g>
  <g id="g1f0014_b5a77d_axes_1">
   <g id="g1f0014_b5a77d_patch_2">
    <path d="M 7.2 339.848713 
L 443.4 339.848713 
L 443.4 27.279107 
L 7.2 27.279107 
L 7.2 339.848713 
z
" style="fill: none; opacity: 0"/>
   </g>
   <g id="g1f0014_b5a77d_matplotlib.axis_1">
    <g id="g1f0014_b5a77d_xtick_1">
     <g id="g1f0014_b5a77d_line2d_1">
      <defs>
       <path id="g1f0014_b5a77d_mfb841dbbda" d="M 0 0 
L 0 3.5 
" style="stroke: #000000; stroke-width: 0.8"/>
      </defs>
      <g>
       <use xlink:href="#g1f0014_b5a77d_mfb841dbbda" x="50.82" y="183.56391" style="stroke: #000000; stroke-width: 0.8"/>
      </g>
     </g>
     <g id="g1f0014_b5a77d_text_1">
      <!-- $\mathdefault{−4}$ -->
      <g transform="translate(35.422761 207.860164) scale(0.25 -0.25)">
       <defs>
        <path id="g1f0014_b5a77d_CMSY10-0" d="M 4218 1472 
C 4326 1472 4442 1472 4442 1600 
C 4442 1728 4326 1728 4218 1728 
L 755 1728 
C 646 1728 531 1728 531 1600 
C 531 1472 646 1472 755 1472 
L 4218 1472 
z
" transform="scale(0.015625)"/>
        <path id="g1f0014_b5a77d_CMR17-34" d="M 2150 4122 
C 2150 4256 2144 4256 2029 4256 
L 128 1254 
L 128 1088 
L 1779 1088 
L 1779 457 
C 1779 224 1766 160 1318 160 
L 1197 160 
L 1197 0 
C 1402 0 1747 0 1965 0 
C 2182 0 2528 0 2733 0 
L 2733 160 
L 2611 160 
C 2163 160 2150 224 2150 457 
L 2150 1088 
L 2803 1088 
L 2803 1254 
L 2150 1254 
L 2150 4122 
z
M 1798 3703 
L 1798 1254 
L 256 1254 
L 1798 3703 
z
" transform="scale(0.015625)"/>
       </defs>
       <use xlink:href="#g1f0014_b5a77d_CMSY10-0" transform="scale(0.996264)"/>
       <use xlink:href="#g1f0014_b5a77d_CMR17-34" transform="translate(77.487468 0) scale(0.996264)"/>
      </g>
     </g>
    </g>
    <g id="g1f0014_b5a77d_xtick_2">
     <g id="g1f0014_b5a77d_line2d_2">
      <g>
       <use xlink:href="#g1f0014_b5a77d_mfb841dbbda" x="94.44" y="183.56391" style="stroke: #000000; stroke-width: 0.8"/>
      </g>
     </g>
     <g id="g1f0014_b5a77d_text_2">
      <!-- $\mathdefault{−3}$ -->
      <g transform="translate(79.042761 207.860164) scale(0.25 -0.25)">
       <defs>
        <path id="g1f0014_b5a77d_CMR17-33" d="M 1414 2157 
C 1984 2157 2234 1662 2234 1090 
C 2234 320 1824 25 1453 25 
C 1114 25 563 194 390 693 
C 422 680 454 680 486 680 
C 640 680 755 782 755 948 
C 755 1133 614 1216 486 1216 
C 378 1216 211 1165 211 926 
C 211 335 787 -128 1466 -128 
C 2176 -128 2720 430 2720 1085 
C 2720 1707 2208 2157 1600 2227 
C 2086 2328 2554 2756 2554 3329 
C 2554 3820 2048 4179 1472 4179 
C 890 4179 378 3829 378 3329 
C 378 3110 544 3072 627 3072 
C 762 3072 877 3155 877 3321 
C 877 3486 762 3569 627 3569 
C 602 3569 570 3569 544 3557 
C 730 3959 1235 4032 1459 4032 
C 1683 4032 2106 3925 2106 3320 
C 2106 3143 2080 2828 1862 2550 
C 1670 2304 1453 2304 1242 2284 
C 1210 2284 1062 2269 1037 2269 
C 992 2263 966 2257 966 2208 
C 966 2163 973 2157 1101 2157 
L 1414 2157 
z
" transform="scale(0.015625)"/>
       </defs>
       <use xlink:href="#g1f0014_b5a77d_CMSY10-0" transform="scale(0.996264)"/>
       <use xlink:href="#g1f0014_b5a77d_CMR17-33" transform="translate(77.487468 0) scale(0.996264)"/>
      </g>
     </g>
    </g>
    <g id="g1f0014_b5a77d_xtick_3">
     <g id="g1f0014_b5a77d_line2d_3">
      <g>
       <use xlink:href="#g1f0014_b5a77d_mfb841dbbda" x="138.06" y="183.56391" style="stroke: #000000; stroke-width: 0.8"/>
      </g>
     </g>
     <g id="g1f0014_b5a77d_text_3">
      <!-- $\mathdefault{−2}$ -->
      <g transform="translate(122.662761 207.860164) scale(0.25 -0.25)">
       <defs>
        <path id="g1f0014_b5a77d_CMR17-32" d="M 2669 989 
L 2554 989 
C 2490 536 2438 459 2413 420 
C 2381 369 1920 369 1830 369 
L 602 369 
C 832 619 1280 1072 1824 1597 
C 2214 1967 2669 2402 2669 3035 
C 2669 3790 2067 4224 1395 4224 
C 691 4224 262 3604 262 3030 
C 262 2780 448 2748 525 2748 
C 589 2748 781 2787 781 3010 
C 781 3207 614 3264 525 3264 
C 486 3264 448 3258 422 3245 
C 544 3790 915 4058 1306 4058 
C 1862 4058 2227 3617 2227 3035 
C 2227 2479 1901 2000 1536 1584 
L 262 146 
L 262 0 
L 2515 0 
L 2669 989 
z
" transform="scale(0.015625)"/>
       </defs>
       <use xlink:href="#g1f0014_b5a77d_CMSY10-0" transform="scale(0.996264)"/>
       <use xlink:href="#g1f0014_b5a77d_CMR17-32" transform="translate(77.487468 0) scale(0.996264)"/>
      </g>
     </g>
    </g>
    <g id="g1f0014_b5a77d_xtick_4">
     <g id="g1f0014_b5a77d_line2d_4">
      <g>
       <use xlink:href="#g1f0014_b5a77d_mfb841dbbda" x="181.68" y="183.56391" style="stroke: #000000; stroke-width: 0.8"/>
      </g>
     </g>
     <g id="g1f0014_b5a77d_text_4">
      <!-- $\mathdefault{−1}$ -->
      <g transform="translate(166.282761 207.860164) scale(0.25 -0.25)">
       <defs>
        <path id="g1f0014_b5a77d_CMR17-31" d="M 1702 4058 
C 1702 4192 1696 4192 1606 4192 
C 1357 3916 979 3827 621 3827 
C 602 3827 570 3827 563 3808 
C 557 3795 557 3782 557 3648 
C 755 3648 1088 3686 1344 3839 
L 1344 461 
C 1344 236 1331 160 781 160 
L 589 160 
L 589 0 
C 896 0 1216 0 1523 0 
C 1830 0 2150 0 2458 0 
L 2458 160 
L 2266 160 
C 1715 160 1702 230 1702 458 
L 1702 4058 
z
" transform="scale(0.015625)"/>
       </defs>
       <use xlink:href="#g1f0014_b5a77d_CMSY10-0" transform="scale(0.996264)"/>
       <use xlink:href="#g1f0014_b5a77d_CMR17-31" transform="translate(77.487468 0) scale(0.996264)"/>
      </g>
     </g>
    </g>
    <g id="g1f0014_b5a77d_xtick_5">
     <g id="g1f0014_b5a77d_line2d_5">
      <g>
       <use xlink:href="#g1f0014_b5a77d_mfb841dbbda" x="268.92" y="183.56391" style="stroke: #000000; stroke-width: 0.8"/>
      </g>
     </g>
     <g id="g1f0014_b5a77d_text_5">
      <!-- $\mathdefault{1}$ -->
      <g transform="translate(263.20869 207.860164) scale(0.25 -0.25)">
       <use xlink:href="#g1f0014_b5a77d_CMR17-31" transform="scale(0.996264)"/>
      </g>
     </g>
    </g>
    <g id="g1f0014_b5a77d_xtick_6">
     <g id="g1f0014_b5a77d_line2d_6">
      <g>
       <use xlink:href="#g1f0014_b5a77d_mfb841dbbda" x="312.54" y="183.56391" style="stroke: #000000; stroke-width: 0.8"/>
      </g>
     </g>
     <g id="g1f0014_b5a77d_text_6">
      <!-- $\mathdefault{2}$ -->
      <g transform="translate(306.82869 207.860164) scale(0.25 -0.25)">
       <use xlink:href="#g1f0014_b5a77d_CMR17-32" transform="scale(0.996264)"/>
      </g>
     </g>
    </g>
    <g id="g1f0014_b5a77d_xtick_7">
     <g id="g1f0014_b5a77d_line2d_7">
      <g>
       <use xlink:href="#g1f0014_b5a77d_mfb841dbbda" x="356.16" y="183.56391" style="stroke: #000000; stroke-width: 0.8"/>
      </g>
     </g>
     <g id="g1f0014_b5a77d_text_7">
      <!-- $\mathdefault{3}$ -->
      <g transform="translate(350.44869 207.860164) scale(0.25 -0.25)">
       <use xlink:href="#g1f0014_b5a77d_CMR17-33" transform="scale(0.996264)"/>
      </g>
     </g>
    </g>
    <g id="g1f0014_b5a77d_xtick_8">
     <g id="g1f0014_b5a77d_line2d_8">
      <g>
       <use xlink:href="#g1f0014_b5a77d_mfb841dbbda" x="399.78" y="183.56391" style="stroke: #000000; stroke-width: 0.8"/>
      </g>
     </g>
     <g id="g1f0014_b5a77d_text_8">
      <!-- $\mathdefault{4}$ -->
      <g transform="translate(394.06869 207.860164) scale(0.25 -0.25)">
       <use xlink:href="#g1f0014_b5a77d_CMR17-34" transform="scale(0.996264)"/>
      </g>
     </g>
    </g>
    <g id="g1f0014_b5a77d_text_9">
     <!-- $x$ -->
     <g transform="translate(429.541493 234.000952) scale(0.25 -0.25)">
      <defs>
       <path id="g1f0014_b5a77d_CMMI12-78" d="M 3034 2606 
C 2829 2567 2752 2414 2752 2293 
C 2752 2139 2874 2088 2963 2088 
C 3155 2088 3290 2254 3290 2427 
C 3290 2695 2982 2816 2714 2816 
C 2323 2816 2106 2433 2048 2312 
C 1901 2816 1504 2816 1389 2816 
C 736 2816 390 1980 390 1839 
C 390 1814 416 1782 461 1782 
C 512 1782 525 1820 538 1846 
C 755 2555 1184 2689 1370 2689 
C 1658 2689 1715 2420 1715 2267 
C 1715 2127 1677 1980 1600 1673 
L 1382 798 
C 1286 415 1101 64 762 64 
C 730 64 570 64 435 147 
C 666 192 717 383 717 460 
C 717 588 621 664 499 664 
C 346 664 179 530 179 326 
C 179 57 480 -64 755 -64 
C 1062 -64 1280 179 1414 441 
C 1517 64 1837 -64 2074 -64 
C 2726 -64 3072 773 3072 913 
C 3072 945 3046 971 3008 971 
C 2950 971 2944 939 2925 888 
C 2752 326 2381 64 2093 64 
C 1869 64 1747 230 1747 492 
C 1747 632 1773 734 1875 1156 
L 2099 2024 
C 2195 2408 2413 2689 2707 2689 
C 2720 2689 2899 2689 3034 2606 
z
" transform="scale(0.015625)"/>
      </defs>
      <use xlink:href="#g1f0014_b5a77d_CMMI12-78" transform="scale(0.996264)"/>
     </g>
    </g>
   </g>
   <g id="g1f0014_b5a77d_matplotlib.axis_2">
    <g id="g1f0014_b5a77d_ytick_1">
     <g id="g1f0014_b5a77d_line2d_9">
      <defs>
       <path id="g1f0014_b5a77d_m5fe43ae464" d="M 0 0 
L -3.5 0 
" style="stroke: #000000; stroke-width: 0.8"/>
      </defs>
      <g>
       <use xlink:href="#g1f0014_b5a77d_m5fe43ae464" x="225.3" y="313.801246" style="stroke: #000000; stroke-width: 0.8"/>
      </g>
     </g>
     <g id="g1f0014_b5a77d_text_10">
      <!-- $\mathdefault{−5}$ -->
      <g transform="translate(187.505521 322.449373) scale(0.25 -0.25)">
       <defs>
        <path id="g1f0014_b5a77d_CMR17-35" d="M 730 3692 
C 794 3666 1056 3584 1325 3584 
C 1920 3584 2246 3911 2432 4100 
C 2432 4157 2432 4192 2394 4192 
C 2387 4192 2374 4192 2323 4163 
C 2099 4058 1837 3973 1517 3973 
C 1325 3973 1037 3999 723 4139 
C 653 4171 640 4171 634 4171 
C 602 4171 595 4164 595 4037 
L 595 2203 
C 595 2089 595 2057 659 2057 
C 691 2057 704 2070 736 2114 
C 941 2401 1222 2522 1542 2522 
C 1766 2522 2246 2382 2246 1289 
C 2246 1085 2246 715 2054 421 
C 1894 159 1645 25 1370 25 
C 947 25 518 320 403 814 
C 429 807 480 795 506 795 
C 589 795 749 840 749 1038 
C 749 1210 627 1280 506 1280 
C 358 1280 262 1190 262 1011 
C 262 454 704 -128 1382 -128 
C 2042 -128 2669 440 2669 1264 
C 2669 2030 2170 2624 1549 2624 
C 1222 2624 947 2503 730 2274 
L 730 3692 
z
" transform="scale(0.015625)"/>
       </defs>
       <use xlink:href="#g1f0014_b5a77d_CMSY10-0" transform="scale(0.996264)"/>
       <use xlink:href="#g1f0014_b5a77d_CMR17-35" transform="translate(77.487468 0) scale(0.996264)"/>
      </g>
     </g>
    </g>
    <g id="g1f0014_b5a77d_ytick_2">
     <g id="g1f0014_b5a77d_line2d_10">
      <g>
       <use xlink:href="#g1f0014_b5a77d_m5fe43ae464" x="225.3" y="287.753779" style="stroke: #000000; stroke-width: 0.8"/>
      </g>
     </g>
     <g id="g1f0014_b5a77d_text_11">
      <!-- $\mathdefault{−4}$ -->
      <g transform="translate(187.505521 296.401906) scale(0.25 -0.25)">
       <use xlink:href="#g1f0014_b5a77d_CMSY10-0" transform="scale(0.996264)"/>
       <use xlink:href="#g1f0014_b5a77d_CMR17-34" transform="translate(77.487468 0) scale(0.996264)"/>
      </g>
     </g>
    </g>
    <g id="g1f0014_b5a77d_ytick_3">
     <g id="g1f0014_b5a77d_line2d_11">
      <g>
       <use xlink:href="#g1f0014_b5a77d_m5fe43ae464" x="225.3" y="261.706312" style="stroke: #000000; stroke-width: 0.8"/>
      </g>
     </g>
     <g id="g1f0014_b5a77d_text_12">
      <!-- $\mathdefault{−3}$ -->
      <g transform="translate(187.505521 270.354439) scale(0.25 -0.25)">
       <use xlink:href="#g1f0014_b5a77d_CMSY10-0" transform="scale(0.996264)"/>
       <use xlink:href="#g1f0014_b5a77d_CMR17-33" transform="translate(77.487468 0) scale(0.996264)"/>
      </g>
     </g>
    </g>
    <g id="g1f0014_b5a77d_ytick_4">
     <g id="g1f0014_b5a77d_line2d_12">
      <g>
       <use xlink:href="#g1f0014_b5a77d_m5fe43ae464" x="225.3" y="235.658845" style="stroke: #000000; stroke-width: 0.8"/>
      </g>
     </g>
     <g id="g1f0014_b5a77d_text_13">
      <!-- $\mathdefault{−2}$ -->
      <g transform="translate(187.505521 244.306971) scale(0.25 -0.25)">
       <use xlink:href="#g1f0014_b5a77d_CMSY10-0" transform="scale(0.996264)"/>
       <use xlink:href="#g1f0014_b5a77d_CMR17-32" transform="translate(77.487468 0) scale(0.996264)"/>
      </g>
     </g>
    </g>
    <g id="g1f0014_b5a77d_ytick_5">
     <g id="g1f0014_b5a77d_line2d_13">
      <g>
       <use xlink:href="#g1f0014_b5a77d_m5fe43ae464" x="225.3" y="209.611377" style="stroke: #000000; stroke-width: 0.8"/>
      </g>
     </g>
     <g id="g1f0014_b5a77d_text_14">
      <!-- $\mathdefault{−1}$ -->
      <g transform="translate(187.505521 218.259504) scale(0.25 -0.25)">
       <use xlink:href="#g1f0014_b5a77d_CMSY10-0" transform="scale(0.996264)"/>
       <use xlink:href="#g1f0014_b5a77d_CMR17-31" transform="translate(77.487468 0) scale(0.996264)"/>
      </g>
     </g>
    </g>
    <g id="g1f0014_b5a77d_ytick_6">
     <g id="g1f0014_b5a77d_line2d_14">
      <g>
       <use xlink:href="#g1f0014_b5a77d_m5fe43ae464" x="225.3" y="157.516443" style="stroke: #000000; stroke-width: 0.8"/>
      </g>
     </g>
     <g id="g1f0014_b5a77d_text_15">
      <!-- $\mathdefault{1}$ -->
      <g transform="translate(206.877381 166.16457) scale(0.25 -0.25)">
       <use xlink:href="#g1f0014_b5a77d_CMR17-31" transform="scale(0.996264)"/>
      </g>
     </g>
    </g>
    <g id="g1f0014_b5a77d_ytick_7">
     <g id="g1f0014_b5a77d_line2d_15">
      <g>
       <use xlink:href="#g1f0014_b5a77d_m5fe43ae464" x="225.3" y="131.468976" style="stroke: #000000; stroke-width: 0.8"/>
      </g>
     </g>
     <g id="g1f0014_b5a77d_text_16">
      <!-- $\mathdefault{2}$ -->
      <g transform="translate(206.877381 140.117103) scale(0.25 -0.25)">
       <use xlink:href="#g1f0014_b5a77d_CMR17-32" transform="scale(0.996264)"/>
      </g>
     </g>
    </g>
    <g id="g1f0014_b5a77d_ytick_8">
     <g id="g1f0014_b5a77d_line2d_16">
      <g>
       <use xlink:href="#g1f0014_b5a77d_m5fe43ae464" x="225.3" y="105.421509" style="stroke: #000000; stroke-width: 0.8"/>
      </g>
     </g>
     <g id="g1f0014_b5a77d_text_17">
      <!-- $\mathdefault{3}$ -->
      <g transform="translate(206.877381 114.069636) scale(0.25 -0.25)">
       <use xlink:href="#g1f0014_b5a77d_CMR17-33" transform="scale(0.996264)"/>
      </g>
     </g>
    </g>
    <g id="g1f0014_b5a77d_ytick_9">
     <g id="g1f0014_b5a77d_line2d_17">
      <g>
       <use xlink:href="#g1f0014_b5a77d_m5fe43ae464" x="225.3" y="79.374042" style="stroke: #000000; stroke-width: 0.8"/>
      </g>
     </g>
     <g id="g1f0014_b5a77d_text_18">
      <!-- $\mathdefault{4}$ -->
      <g transform="translate(206.877381 88.022168) scale(0.25 -0.25)">
       <use xlink:href="#g1f0014_b5a77d_CMR17-34" transform="scale(0.996264)"/>
      </g>
     </g>
    </g>
    <g id="g1f0014_b5a77d_ytick_10">
     <g id="g1f0014_b5a77d_line2d_18">
      <g>
       <use xlink:href="#g1f0014_b5a77d_m5fe43ae464" x="225.3" y="53.326574" style="stroke: #000000; stroke-width: 0.8"/>
      </g>
     </g>
     <g id="g1f0014_b5a77d_text_19">
      <!-- $\mathdefault{5}$ -->
      <g transform="translate(206.877381 61.974701) scale(0.25 -0.25)">
       <use xlink:href="#g1f0014_b5a77d_CMR17-35" transform="scale(0.996264)"/>
      </g>
     </g>
    </g>
    <g id="g1f0014_b5a77d_text_20">
     <!-- $y$ -->
     <g transform="translate(171.614474 22.434573) scale(0.25 -0.25)">
      <defs>
       <path id="g1f0014_b5a77d_CMMI12-79" d="M 1683 -700 
C 1510 -939 1261 -1152 947 -1152 
C 870 -1152 563 -1152 467 -889 
C 486 -895 518 -895 531 -895 
C 723 -895 851 -729 851 -582 
C 851 -435 730 -384 634 -384 
C 531 -384 307 -458 307 -759 
C 307 -1071 582 -1286 947 -1286 
C 1587 -1286 2234 -700 2413 6 
L 3040 2485 
C 3046 2517 3059 2556 3059 2594 
C 3059 2689 2982 2753 2886 2753 
C 2829 2753 2694 2727 2643 2535 
L 2170 658 
C 2138 543 2138 530 2086 460 
C 1958 281 1747 64 1440 64 
C 1082 64 1050 415 1050 588 
C 1050 952 1222 1443 1395 1903 
C 1466 2088 1504 2178 1504 2305 
C 1504 2574 1312 2816 998 2816 
C 410 2816 173 1890 173 1839 
C 173 1814 198 1782 243 1782 
C 301 1782 307 1807 333 1897 
C 486 2433 730 2689 979 2689 
C 1037 2689 1146 2689 1146 2478 
C 1146 2312 1075 2127 979 1884 
C 666 1047 666 837 666 683 
C 666 77 1101 -64 1421 -64 
C 1606 -64 1837 -6 2061 230 
L 2067 224 
C 1971 -147 1907 -392 1683 -700 
z
" transform="scale(0.015625)"/>
      </defs>
      <use xlink:href="#g1f0014_b5a77d_CMMI12-79" transform="scale(0.996264)"/>
     </g>
    </g>
   </g>
   <g id="g1f0014_b5a77d_line2d_19">
    <defs>
     <path id="g1f0014_b5a77d_mf42f200322" d="M 3 0 
L -3 -3 
L -3 3 
z
" style="stroke: #000000; stroke-linejoin: miter"/>
    </defs>
    <g>
     <use xlink:href="#g1f0014_b5a77d_mf42f200322" x="443.4" y="183.56391" style="stroke: #000000; stroke-linejoin: miter"/>
    </g>
   </g>
   <g id="g1f0014_b5a77d_line2d_20">
    <defs>
     <path id="g1f0014_b5a77d_m22d92c72fc" d="M 0 -3 
L -3 3 
L 3 3 
z
" style="stroke: #000000; stroke-linejoin: miter"/>
    </defs>
    <g>
     <use xlink:href="#g1f0014_b5a77d_m22d92c72fc" x="225.3" y="27.279107" style="stroke: #000000; stroke-linejoin: miter"/>
    </g>
   </g>
   <g id="g1f0014_b5a77d_line2d_21">
    <path d="M 145.320787 -1 
L 149.188856 23.796733 
L 153.452786 49.706587 
L 157.290323 71.74863 
L 161.127859 92.581048 
L 164.965396 112.203842 
L 168.802933 130.617012 
L 172.214076 145.968787 
L 175.62522 160.36481 
L 179.036364 173.80508 
L 182.447507 186.289597 
L 185.432258 196.429534 
L 188.417009 205.837723 
L 191.40176 214.514164 
L 194.38651 222.458857 
L 196.944868 228.686182 
L 199.503226 234.375896 
L 202.061584 239.528 
L 204.619941 244.142492 
L 206.751906 247.577228 
L 208.883871 250.638623 
L 211.015836 253.326677 
L 213.147801 255.64139 
L 215.279765 257.582762 
L 216.985337 258.867055 
L 218.690909 259.912409 
L 220.396481 260.718825 
L 222.102053 261.286303 
L 223.807625 261.614843 
L 225.513196 261.704445 
L 227.218768 261.555109 
L 228.92434 261.166834 
L 230.629912 260.539622 
L 232.335484 259.673471 
L 234.041056 258.568382 
L 235.746628 257.224355 
L 237.452199 255.64139 
L 239.584164 253.326677 
L 241.716129 250.638623 
L 243.848094 247.577228 
L 245.980059 244.142492 
L 248.112023 240.334416 
L 250.670381 235.271914 
L 253.228739 229.671802 
L 255.787097 223.534078 
L 258.345455 216.858744 
L 261.330205 208.391374 
L 264.314956 199.192256 
L 267.299707 189.26139 
L 270.284457 178.598776 
L 273.695601 165.516913 
L 277.106745 151.479298 
L 280.517889 136.48593 
L 283.929032 120.53681 
L 287.766569 101.451626 
L 291.604106 81.156819 
L 295.441642 59.652387 
L 299.279179 36.938331 
L 303.543109 10.281795 
L 305.279213 -1 
L 305.279213 -1 
" clip-path="url(#g1f0014_b5a77d_pb9e2fc297a)" style="fill: none; stroke: #0072b2; stroke-width: 2.5; stroke-linecap: square"/>
   </g>
   <g id="g1f0014_b5a77d_line2d_22">
    <defs>
     <path id="g1f0014_b5a77d_m85ca128d5d" d="M 0 5 
C 1.326016 5 2.597899 4.473168 3.535534 3.535534 
C 4.473168 2.597899 5 1.326016 5 0 
C 5 -1.326016 4.473168 -2.597899 3.535534 -3.535534 
C 2.597899 -4.473168 1.326016 -5 0 -5 
C -1.326016 -5 -2.597899 -4.473168 -3.535534 -3.535534 
C -4.473168 -2.597899 -5 -1.326016 -5 0 
C -5 1.326016 -4.473168 2.597899 -3.535534 3.535534 
C -2.597899 4.473168 -1.326016 5 0 5 
z
" style="stroke: #000000; stroke-opacity: 0.8"/>
    </defs>
    <g clip-path="url(#g1f0014_b5a77d_pb9e2fc297a)">
     <use xlink:href="#g1f0014_b5a77d_m85ca128d5d" x="150.522857" y="32.063336" style="fill-opacity: 0.8; stroke: #000000; stroke-opacity: 0.8"/>
    </g>
   </g>
   <g id="g1f0014_b5a77d_patch_3">
    <path d="M 225.3 339.848713 
L 225.3 27.279107 
" style="fill: none; stroke: #000000; stroke-width: 0.8; stroke-linejoin: miter; stroke-linecap: square"/>
   </g>
   <g id="g1f0014_b5a77d_patch_4">
    <path d="M 443.4 339.848713 
L 443.4 27.279107 
" style="fill: none"/>
   </g>
   <g id="g1f0014_b5a77d_patch_5">
    <path d="M 7.2 183.56391 
L 443.4 183.56391 
" style="fill: none; stroke: #000000; stroke-width: 0.8; stroke-linejoin: miter; stroke-linecap: square"/>
   </g>
   <g id="g1f0014_b5a77d_patch_6">
    <path d="M 7.2 27.279107 
L 443.4 27.279107 
" style="fill: none"/>
   </g>
   <g id="g1f0014_b5a77d_text_21">
    <g id="g1f0014_b5a77d_patch_7">
     <path d="M 26.907816 39.563336 
L 150.522857 39.563336 
Q 158.022857 39.563336 158.022857 32.063336 
L 158.022857 7.2 
Q 158.022857 -0.3 150.522857 -0.3 
L 26.907816 -0.3 
Q 19.407816 -0.3 19.407816 7.2 
L 19.407816 32.063336 
Q 19.407816 39.563336 26.907816 39.563336 
z
" style="fill: #ffffff; opacity: 0.8"/>
    </g>
    <!-- (-1.71, 5.82) -->
    <g transform="translate(26.907816 25.857528) scale(0.25 -0.25)">
     <defs>
      <path id="g1f0014_b5a77d_CMSS17-28" d="M 1613 4768 
C 1267 4417 474 3601 474 1588 
C 474 -433 1267 -1243 1613 -1600 
L 2003 -1600 
C 1216 -784 960 357 960 1581 
C 960 2798 1203 3946 2003 4768 
L 1613 4768 
z
" transform="scale(0.015625)"/>
      <path id="g1f0014_b5a77d_CMSS17-2d" d="M 1664 1216 
L 1664 1585 
L 64 1585 
L 64 1216 
L 1664 1216 
z
" transform="scale(0.015625)"/>
      <path id="g1f0014_b5a77d_CMSS17-31" d="M 1818 4288 
L 1696 4288 
C 1350 3940 947 3890 538 3890 
L 538 3520 
C 723 3520 1024 3520 1325 3667 
L 1325 369 
L 570 369 
L 570 0 
L 2573 0 
L 2573 369 
L 1818 369 
L 1818 4288 
z
" transform="scale(0.015625)"/>
      <path id="g1f0014_b5a77d_CMSS17-2e" d="M 1088 510 
L 576 510 
L 576 0 
L 1088 0 
L 1088 510 
z
" transform="scale(0.015625)"/>
      <path id="g1f0014_b5a77d_CMSS17-37" d="M 1389 3776 
C 1466 3776 1542 3776 1619 3776 
L 2355 3776 
C 1440 2711 915 1365 915 -32 
L 1427 -32 
C 1427 1323 1875 2696 2752 3795 
L 2752 4209 
L 250 4209 
L 250 3776 
L 1389 3776 
z
" transform="scale(0.015625)"/>
      <path id="g1f0014_b5a77d_CMSS17-2c" d="M 1088 6 
L 1088 510 
L 576 510 
L 576 0 
L 736 0 
L 570 -800 
L 826 -800 
L 1088 6 
z
" transform="scale(0.015625)"/>
      <path id="g1f0014_b5a77d_CMSS17-35" d="M 934 3752 
L 2502 3752 
L 2502 4160 
L 467 4160 
L 467 1781 
L 896 1781 
C 1011 2046 1248 2240 1555 2240 
C 1843 2240 2163 1989 2163 1266 
C 2163 493 1709 267 1376 267 
C 966 267 589 512 422 851 
L 218 499 
C 512 49 992 -128 1376 -128 
C 2118 -128 2701 497 2701 1253 
C 2701 2030 2182 2629 1562 2629 
C 1338 2629 1120 2553 934 2399 
L 934 3752 
z
" transform="scale(0.015625)"/>
      <path id="g1f0014_b5a77d_CMSS17-38" d="M 1933 2222 
C 2419 2380 2669 2760 2669 3134 
C 2669 3722 2157 4229 1504 4229 
C 826 4229 333 3708 333 3144 
C 333 2780 576 2403 1069 2241 
C 442 1997 250 1512 250 1149 
C 250 446 819 -128 1498 -128 
C 2202 -128 2752 455 2752 1138 
C 2752 1557 2502 2000 1933 2222 
z
M 1504 2432 
C 1075 2432 787 2712 787 3136 
C 787 3566 1075 3840 1504 3840 
C 1901 3840 2214 3591 2214 3136 
C 2214 2687 1907 2432 1504 2432 
z
M 1504 267 
C 1139 267 749 517 749 1156 
C 749 1813 1184 2043 1498 2043 
C 1843 2043 2253 1800 2253 1156 
C 2253 491 1830 267 1504 267 
z
" transform="scale(0.015625)"/>
      <path id="g1f0014_b5a77d_CMSS17-32" d="M 1651 1357 
C 1830 1541 2099 1764 2285 1987 
C 2464 2204 2701 2511 2701 2957 
C 2701 3657 2227 4288 1421 4288 
C 787 4288 422 3893 250 3274 
L 499 2929 
C 640 3510 838 3880 1338 3880 
C 1888 3880 2195 3433 2195 2942 
C 2195 2355 1747 1901 1408 1563 
C 1030 1187 659 804 301 408 
L 301 0 
L 2701 0 
L 2701 433 
L 1613 433 
C 1536 433 1459 433 1382 433 
L 742 433 
L 742 439 
L 1651 1357 
z
" transform="scale(0.015625)"/>
      <path id="g1f0014_b5a77d_CMSS17-29" d="M 723 -1600 
C 1069 -1249 1862 -433 1862 1581 
C 1862 3601 1069 4411 723 4768 
L 333 4768 
C 1120 3952 1376 2811 1376 1588 
C 1376 370 1133 -778 333 -1600 
L 723 -1600 
z
" transform="scale(0.015625)"/>
     </defs>
     <use xlink:href="#g1f0014_b5a77d_CMSS17-28" transform="scale(0.996264)"/>
     <use xlink:href="#g1f0014_b5a77d_CMSS17-2d" transform="translate(36.433914 0) scale(0.996264)"/>
     <use xlink:href="#g1f0014_b5a77d_CMSS17-31" transform="translate(67.663027 0) scale(0.996264)"/>
     <use xlink:href="#g1f0014_b5a77d_CMSS17-2e" transform="translate(114.50665 0) scale(0.996264)"/>
     <use xlink:href="#g1f0014_b5a77d_CMSS17-37" transform="translate(140.530855 0) scale(0.996264)"/>
     <use xlink:href="#g1f0014_b5a77d_CMSS17-31" transform="translate(187.374479 0) scale(0.996264)"/>
     <use xlink:href="#g1f0014_b5a77d_CMSS17-2c" transform="translate(234.218102 0) scale(0.996264)"/>
     <use xlink:href="#g1f0014_b5a77d_CMSS17-35" transform="translate(291.47142 0) scale(0.996264)"/>
     <use xlink:href="#g1f0014_b5a77d_CMSS17-2e" transform="translate(338.315044 0) scale(0.996264)"/>
     <use xlink:href="#g1f0014_b5a77d_CMSS17-38" transform="translate(364.339248 0) scale(0.996264)"/>
     <use xlink:href="#g1f0014_b5a77d_CMSS17-32" transform="translate(411.182872 0) scale(0.996264)"/>
     <use xlink:href="#g1f0014_b5a77d_CMSS17-29" transform="translate(458.026495 0) scale(0.996264)"/>
    </g>
   </g>
  </g>
 </g>
 <defs>
  <clipPath id="g1f0014_b5a77d_pb9e2fc297a">
   <rect x="7.2" y="27.279107" width="436.2" height="312.569606"/>
  </clipPath>
 </defs>
</svg>
