<?xml version="1.0" encoding="utf-8" standalone="no"?>
<!DOCTYPE svg PUBLIC "-//W3C//DTD SVG 1.1//EN"
  "http://www.w3.org/Graphics/SVG/1.1/DTD/svg11.dtd">
<svg xmlns:xlink="http://www.w3.org/1999/xlink" width="640.8pt" height="496.94pt" viewBox="0 0 640.8 496.94" xmlns="http://www.w3.org/2000/svg" version="1.1">
 <metadata>
  <rdf:RDF xmlns:dc="http://purl.org/dc/elements/1.1/" xmlns:cc="http://creativecommons.org/ns#" xmlns:rdf="http://www.w3.org/1999/02/22-rdf-syntax-ns#">
   <cc:Work>
    <dc:type rdf:resource="http://purl.org/dc/dcmitype/StillImage"/>
    <dc:date>2025-11-28T17:54:55.115505</dc:date>
    <dc:format>image/svg+xml</dc:format>
    <dc:creator>
     <cc:Agent>
      <dc:title>Matplotlib v3.9.1, https://matplotlib.org/</dc:title>
     </cc:Agent>
    </dc:creator>
   </cc:Work>
  </rdf:RDF>
 </metadata>
 <defs>
  <style type="text/css">*{stroke-linejoin: round; stroke-linecap: butt}</style>
 </defs>
 <g id="figure_1">
  <g id="patch_1">
   <path d="M 0 496.94 
L 640.8 496.94 
L 640.8 0 
L 0 0 
L 0 496.94 
z
" style="fill: none"/>
  </g>
  <g id="axes_1">
   <g id="patch_2">
    <path d="M 7.2 243.14 
L 312 243.14 
L 312 16.556315 
L 7.2 16.556315 
L 7.2 243.14 
z
" style="fill: none"/>
   </g>
   <g id="matplotlib.axis_1">
    <g id="text_1">
     <!-- $x$ -->
     <g transform="translate(300.913188 147.685154) scale(0.2 -0.2)">
      <defs>
       <path id="CMMI12-78" d="M 3034 2606 
C 2829 2567 2752 2414 2752 2293 
C 2752 2139 2874 2088 2963 2088 
C 3155 2088 3290 2254 3290 2427 
C 3290 2695 2982 2816 2714 2816 
C 2323 2816 2106 2433 2048 2312 
C 1901 2816 1504 2816 1389 2816 
C 736 2816 390 1980 390 1839 
C 390 1814 416 1782 461 1782 
C 512 1782 525 1820 538 1846 
C 755 2555 1184 2689 1370 2689 
C 1658 2689 1715 2420 1715 2267 
C 1715 2127 1677 1980 1600 1673 
L 1382 798 
C 1286 415 1101 64 762 64 
C 730 64 570 64 435 147 
C 666 192 717 383 717 460 
C 717 588 621 664 499 664 
C 346 664 179 530 179 326 
C 179 57 480 -64 755 -64 
C 1062 -64 1280 179 1414 441 
C 1517 64 1837 -64 2074 -64 
C 2726 -64 3072 773 3072 913 
C 3072 945 3046 971 3008 971 
C 2950 971 2944 939 2925 888 
C 2752 326 2381 64 2093 64 
C 1869 64 1747 230 1747 492 
C 1747 632 1773 734 1875 1156 
L 2099 2024 
C 2195 2408 2413 2689 2707 2689 
C 2720 2689 2899 2689 3034 2606 
z
" transform="scale(0.015625)"/>
      </defs>
      <use xlink:href="#CMMI12-78" transform="scale(0.996264)"/>
     </g>
    </g>
   </g>
   <g id="matplotlib.axis_2">
    <g id="text_2">
     <!-- $y$ -->
     <g transform="translate(146.087165 12.680682) scale(0.2 -0.2)">
      <defs>
       <path id="CMMI12-79" d="M 1683 -700 
C 1510 -939 1261 -1152 947 -1152 
C 870 -1152 563 -1152 467 -889 
C 486 -895 518 -895 531 -895 
C 723 -895 851 -729 851 -582 
C 851 -435 730 -384 634 -384 
C 531 -384 307 -458 307 -759 
C 307 -1071 582 -1286 947 -1286 
C 1587 -1286 2234 -700 2413 6 
L 3040 2485 
C 3046 2517 3059 2556 3059 2594 
C 3059 2689 2982 2753 2886 2753 
C 2829 2753 2694 2727 2643 2535 
L 2170 658 
C 2138 543 2138 530 2086 460 
C 1958 281 1747 64 1440 64 
C 1082 64 1050 415 1050 588 
C 1050 952 1222 1443 1395 1903 
C 1466 2088 1504 2178 1504 2305 
C 1504 2574 1312 2816 998 2816 
C 410 2816 173 1890 173 1839 
C 173 1814 198 1782 243 1782 
C 301 1782 307 1807 333 1897 
C 486 2433 730 2689 979 2689 
C 1037 2689 1146 2689 1146 2478 
C 1146 2312 1075 2127 979 1884 
C 666 1047 666 837 666 683 
C 666 77 1101 -64 1421 -64 
C 1606 -64 1837 -6 2061 230 
L 2067 224 
C 1971 -147 1907 -392 1683 -700 
z
" transform="scale(0.015625)"/>
      </defs>
      <use xlink:href="#CMMI12-79" transform="scale(0.996264)"/>
     </g>
    </g>
   </g>
   <g id="line2d_1">
    <defs>
     <path id="ma393f14411" d="M 3 0 
L -3 -3 
L -3 3 
z
" style="stroke: #000000; stroke-linejoin: miter"/>
    </defs>
    <g>
     <use xlink:href="#ma393f14411" x="312" y="129.848158" style="stroke: #000000; stroke-linejoin: miter"/>
    </g>
   </g>
   <g id="line2d_2">
    <defs>
     <path id="mb67eb64048" d="M 0 -3 
L -3 3 
L 3 3 
z
" style="stroke: #000000; stroke-linejoin: miter"/>
    </defs>
    <g>
     <use xlink:href="#mb67eb64048" x="159.6" y="16.556315" style="stroke: #000000; stroke-linejoin: miter"/>
    </g>
   </g>
   <g id="line2d_3">
    <path d="M 7.2 129.84796 
L 44.862711 129.736339 
L 53.645714 129.489354 
L 59.600293 129.110547 
L 64.289524 128.598827 
L 68.308864 127.941659 
L 71.881612 127.135179 
L 75.15663 126.171163 
L 78.282784 125.018831 
L 81.334505 123.652521 
L 84.386227 122.035316 
L 87.512381 120.120614 
L 90.936264 117.751933 
L 95.178901 114.527 
L 102.622125 108.830716 
L 105.301685 107.091279 
L 107.46022 105.944701 
L 109.321026 105.197885 
L 111.032967 104.7509 
L 112.596044 104.575367 
L 114.010256 104.63085 
L 115.424469 104.909236 
L 116.764249 105.394157 
L 118.104029 106.107573 
L 119.518242 107.120811 
L 120.932454 108.411518 
L 122.421099 110.077949 
L 123.984176 112.172053 
L 125.621685 114.743501 
L 127.408059 117.979955 
L 129.343297 121.96971 
L 131.501832 126.962156 
L 133.958095 133.236919 
L 137.009817 141.681187 
L 146.090549 167.24079 
L 148.323516 172.651246 
L 150.258755 176.77645 
L 151.896264 179.778603 
L 153.384908 182.071074 
L 154.724689 183.749197 
L 155.990037 184.979828 
L 157.10652 185.768805 
L 158.148571 186.247755 
L 159.11619 186.46668 
L 160.08381 186.46668 
L 161.051429 186.247755 
L 162.09348 185.768805 
L 163.135531 185.041184 
L 164.252015 183.991829 
L 165.517363 182.476384 
L 166.857143 180.511828 
L 168.345788 177.923337 
L 170.057729 174.467221 
L 171.992967 170.023659 
L 174.300366 164.126012 
L 177.277656 155.85729 
L 185.986227 131.276821 
L 188.516923 125.005534 
L 190.675458 120.222587 
L 192.610696 116.441751 
L 194.39707 113.409786 
L 196.109011 110.93213 
L 197.672088 109.039877 
L 199.160733 107.563591 
L 200.649377 106.398144 
L 202.06359 105.568894 
L 203.477802 104.99789 
L 204.892015 104.670333 
L 206.306227 104.569429 
L 207.794872 104.687874 
L 209.357949 105.035696 
L 211.06989 105.647346 
L 213.005128 106.584572 
L 215.238095 107.924435 
L 217.992088 109.849321 
L 222.309158 113.180054 
L 228.561465 117.967805 
L 232.134212 120.409526 
L 235.334799 122.329319 
L 238.38652 123.903367 
L 241.438242 125.227748 
L 244.564396 126.340399 
L 247.839414 127.267716 
L 251.337729 128.026685 
L 255.282637 128.648412 
L 259.823004 129.129471 
L 265.330989 129.479146 
L 272.69978 129.707906 
L 284.534505 129.823313 
L 312 129.84796 
L 312 129.84796 
" clip-path="url(#p409ec9f26a)" style="fill: none; stroke: #0072b2; stroke-width: 2.5; stroke-linecap: square"/>
   </g>
   <g id="patch_3">
    <path d="M 159.6 243.14 
L 159.6 16.556315 
" style="fill: none; stroke: #000000; stroke-width: 0.8; stroke-linejoin: miter; stroke-linecap: square"/>
   </g>
   <g id="patch_4">
    <path d="M 312 243.14 
L 312 16.556315 
" style="fill: none"/>
   </g>
   <g id="patch_5">
    <path d="M 7.2 129.848158 
L 312 129.848158 
" style="fill: none; stroke: #000000; stroke-width: 0.8; stroke-linejoin: miter; stroke-linecap: square"/>
   </g>
   <g id="patch_6">
    <path d="M 7.2 16.556315 
L 312 16.556315 
" style="fill: none"/>
   </g>
   <g id="legend_1">
    <g id="patch_7">
     <path d="M 219.374426 60.431949 
L 298 60.431949 
Q 302 60.431949 302 56.431949 
L 302 30.556315 
Q 302 26.556315 298 26.556315 
L 219.374426 26.556315 
Q 215.374426 26.556315 215.374426 30.556315 
L 215.374426 56.431949 
Q 215.374426 60.431949 219.374426 60.431949 
z
" style="fill: #ffffff; opacity: 0.8; stroke: #cccccc; stroke-linejoin: miter"/>
    </g>
    <g id="line2d_4">
     <path d="M 223.374426 41.556315 
L 243.374426 41.556315 
L 263.374426 41.556315 
" style="fill: none; stroke: #0072b2; stroke-width: 2.5; stroke-linecap: square"/>
    </g>
    <g id="text_3">
     <!-- $A$ -->
     <g transform="translate(279.374426 48.556315) scale(0.2 -0.2)">
      <defs>
       <path id="CMMI12-41" d="M 1088 691 
C 864 314 646 186 339 186 
C 269 180 218 180 218 58 
C 218 24 250 0 294 0 
C 410 0 698 0 813 0 
C 998 0 1203 0 1382 0 
C 1421 0 1498 0 1498 122 
C 1498 180 1446 186 1408 186 
C 1261 186 1139 236 1139 388 
C 1139 476 1178 546 1261 685 
L 1747 1479 
L 3379 1479 
C 3386 1423 3386 1373 3392 1316 
C 3411 1152 3488 495 3488 376 
C 3488 186 3162 186 3059 186 
C 2989 186 2918 186 2918 70 
C 2918 0 2976 0 3014 0 
C 3123 0 3251 0 3360 0 
L 3725 0 
C 4115 0 4397 0 4403 0 
C 4448 0 4518 0 4518 122 
C 4518 186 4461 186 4365 186 
C 4013 186 4006 244 3987 434 
L 3597 4404 
C 3584 4531 3558 4544 3488 4544 
C 3424 4544 3386 4531 3328 4435 
L 1088 691 
z
M 1856 1664 
L 3142 3819 
L 3360 1664 
L 1856 1664 
z
" transform="scale(0.015625)"/>
      </defs>
      <use xlink:href="#CMMI12-41" transform="scale(0.996264)"/>
     </g>
    </g>
   </g>
  </g>
  <g id="axes_2">
   <g id="patch_8">
    <path d="M 325.8 243.14 
L 630.6 243.14 
L 630.6 16.556315 
L 325.8 16.556315 
L 325.8 243.14 
z
" style="fill: none"/>
   </g>
   <g id="matplotlib.axis_3">
    <g id="text_4">
     <!-- $x$ -->
     <g transform="translate(619.513188 147.685154) scale(0.2 -0.2)">
      <use xlink:href="#CMMI12-78" transform="scale(0.996264)"/>
     </g>
    </g>
   </g>
   <g id="matplotlib.axis_4">
    <g id="text_5">
     <!-- $y$ -->
     <g transform="translate(464.687165 12.680682) scale(0.2 -0.2)">
      <use xlink:href="#CMMI12-79" transform="scale(0.996264)"/>
     </g>
    </g>
   </g>
   <g id="line2d_5">
    <g>
     <use xlink:href="#ma393f14411" x="630.6" y="129.848158" style="stroke: #000000; stroke-linejoin: miter"/>
    </g>
   </g>
   <g id="line2d_6">
    <g>
     <use xlink:href="#mb67eb64048" x="478.2" y="16.556315" style="stroke: #000000; stroke-linejoin: miter"/>
    </g>
   </g>
   <g id="line2d_7">
    <path d="M 325.8 129.848355 
L 363.462711 129.959976 
L 372.245714 130.206962 
L 378.200293 130.585768 
L 382.889524 131.097488 
L 386.908864 131.754657 
L 390.481612 132.561136 
L 393.75663 133.525152 
L 396.882784 134.677484 
L 399.934505 136.043794 
L 402.986227 137.660999 
L 406.112381 139.575701 
L 409.536264 141.944382 
L 413.778901 145.169315 
L 421.222125 150.865599 
L 423.901685 152.605037 
L 426.06022 153.751614 
L 427.921026 154.49843 
L 429.632967 154.945415 
L 431.196044 155.120948 
L 432.610256 155.065465 
L 434.024469 154.787079 
L 435.364249 154.302158 
L 436.704029 153.588742 
L 438.118242 152.575504 
L 439.532454 151.284797 
L 441.021099 149.618367 
L 442.584176 147.524262 
L 444.221685 144.952814 
L 446.008059 141.716361 
L 447.943297 137.726605 
L 450.101832 132.734159 
L 452.558095 126.459396 
L 455.609817 118.015128 
L 464.690549 92.455525 
L 466.923516 87.045069 
L 468.858755 82.919865 
L 470.496264 79.917712 
L 471.984908 77.625241 
L 473.324689 75.947118 
L 474.590037 74.716488 
L 475.70652 73.92751 
L 476.748571 73.44856 
L 477.71619 73.229635 
L 478.68381 73.229635 
L 479.651429 73.44856 
L 480.69348 73.92751 
L 481.735531 74.655131 
L 482.852015 75.704486 
L 484.117363 77.219932 
L 485.457143 79.184488 
L 486.945788 81.772978 
L 488.657729 85.229094 
L 490.592967 89.672657 
L 492.900366 95.570303 
L 495.877656 103.839025 
L 504.586227 128.419495 
L 507.116923 134.690781 
L 509.275458 139.473729 
L 511.210696 143.254564 
L 512.99707 146.286529 
L 514.709011 148.764186 
L 516.272088 150.656438 
L 517.760733 152.132724 
L 519.249377 153.298171 
L 520.66359 154.127421 
L 522.077802 154.698425 
L 523.492015 155.025982 
L 524.906227 155.126886 
L 526.394872 155.008441 
L 527.957949 154.660619 
L 529.66989 154.048969 
L 531.605128 153.111743 
L 533.838095 151.77188 
L 536.592088 149.846994 
L 540.909158 146.516261 
L 547.161465 141.72851 
L 550.734212 139.286789 
L 553.934799 137.366996 
L 556.98652 135.792948 
L 560.038242 134.468567 
L 563.164396 133.355916 
L 566.439414 132.4286 
L 569.937729 131.66963 
L 573.882637 131.047903 
L 578.423004 130.566845 
L 583.930989 130.217169 
L 591.29978 129.988409 
L 603.134505 129.873002 
L 630.6 129.848355 
L 630.6 129.848355 
" clip-path="url(#p223f9fd308)" style="fill: none; stroke: #0072b2; stroke-width: 2.5; stroke-linecap: square"/>
   </g>
   <g id="patch_9">
    <path d="M 478.2 243.14 
L 478.2 16.556315 
" style="fill: none; stroke: #000000; stroke-width: 0.8; stroke-linejoin: miter; stroke-linecap: square"/>
   </g>
   <g id="patch_10">
    <path d="M 630.6 243.14 
L 630.6 16.556315 
" style="fill: none"/>
   </g>
   <g id="patch_11">
    <path d="M 325.8 129.848158 
L 630.6 129.848158 
" style="fill: none; stroke: #000000; stroke-width: 0.8; stroke-linejoin: miter; stroke-linecap: square"/>
   </g>
   <g id="patch_12">
    <path d="M 325.8 16.556315 
L 630.6 16.556315 
" style="fill: none"/>
   </g>
   <g id="legend_2">
    <g id="patch_13">
     <path d="M 537.778399 60.431949 
L 616.6 60.431949 
Q 620.6 60.431949 620.6 56.431949 
L 620.6 30.556315 
Q 620.6 26.556315 616.6 26.556315 
L 537.778399 26.556315 
Q 533.778399 26.556315 533.778399 30.556315 
L 533.778399 56.431949 
Q 533.778399 60.431949 537.778399 60.431949 
z
" style="fill: #ffffff; opacity: 0.8; stroke: #cccccc; stroke-linejoin: miter"/>
    </g>
    <g id="line2d_8">
     <path d="M 541.778399 41.556315 
L 561.778399 41.556315 
L 581.778399 41.556315 
" style="fill: none; stroke: #0072b2; stroke-width: 2.5; stroke-linecap: square"/>
    </g>
    <g id="text_6">
     <!-- $B$ -->
     <g transform="translate(597.778399 48.556315) scale(0.2 -0.2)">
      <defs>
       <path id="CMMI12-42" d="M 2342 3921 
C 2400 4160 2426 4160 2675 4160 
L 3507 4160 
C 4230 4160 4230 3544 4230 3485 
C 4230 2966 3712 2304 2867 2304 
L 1946 2304 
L 2342 3921 
z
M 3424 2275 
C 4122 2402 4755 2886 4755 3473 
C 4755 3970 4314 4352 3590 4352 
L 1536 4352 
C 1414 4352 1357 4352 1357 4226 
C 1357 4160 1414 4160 1510 4160 
C 1901 4160 1901 4112 1901 4044 
C 1901 4032 1901 3993 1875 3897 
L 1011 472 
C 954 249 941 185 493 185 
C 371 185 307 185 307 70 
C 307 0 346 0 474 0 
L 2669 0 
C 3648 0 4403 739 4403 1383 
C 4403 1906 3942 2224 3424 2275 
z
M 2515 185 
L 1651 185 
C 1562 185 1549 185 1510 192 
C 1440 198 1434 211 1434 261 
C 1434 305 1446 343 1459 399 
L 1907 2176 
L 3110 2176 
C 3866 2176 3866 1483 3866 1433 
C 3866 828 3309 185 2515 185 
z
" transform="scale(0.015625)"/>
      </defs>
      <use xlink:href="#CMMI12-42" transform="scale(0.996264)"/>
     </g>
    </g>
   </g>
  </g>
  <g id="axes_3">
   <g id="patch_14">
    <path d="M 7.2 489.74 
L 312 489.74 
L 312 263.156315 
L 7.2 263.156315 
L 7.2 489.74 
z
" style="fill: none"/>
   </g>
   <g id="matplotlib.axis_5">
    <g id="text_7">
     <!-- $x$ -->
     <g transform="translate(300.913188 394.285154) scale(0.2 -0.2)">
      <use xlink:href="#CMMI12-78" transform="scale(0.996264)"/>
     </g>
    </g>
   </g>
   <g id="matplotlib.axis_6">
    <g id="text_8">
     <!-- $y$ -->
     <g transform="translate(146.087165 259.280682) scale(0.2 -0.2)">
      <use xlink:href="#CMMI12-79" transform="scale(0.996264)"/>
     </g>
    </g>
   </g>
   <g id="line2d_9">
    <g>
     <use xlink:href="#ma393f14411" x="312" y="376.448158" style="stroke: #000000; stroke-linejoin: miter"/>
    </g>
   </g>
   <g id="line2d_10">
    <g>
     <use xlink:href="#mb67eb64048" x="159.6" y="263.156315" style="stroke: #000000; stroke-linejoin: miter"/>
    </g>
   </g>
   <g id="line2d_11">
    <path d="M 7.2 376.442032 
L 25.659194 376.311399 
L 32.953553 376.047278 
L 37.940513 375.653374 
L 41.810989 375.134864 
L 45.086007 374.479333 
L 47.988864 373.672907 
L 50.593993 372.718913 
L 52.975824 371.61375 
L 55.208791 370.338982 
L 57.367326 368.854113 
L 59.451429 367.155226 
L 61.535531 365.16851 
L 63.619634 362.869659 
L 65.703736 360.238741 
L 67.862271 357.149401 
L 70.095238 353.557844 
L 72.47707 349.292995 
L 75.082198 344.153909 
L 78.133919 337.610263 
L 82.82315 326.932506 
L 87.065788 317.468081 
L 89.522051 312.520545 
L 91.457289 309.096641 
L 93.094799 306.62515 
L 94.509011 304.864125 
L 95.774359 303.620344 
L 96.890842 302.807857 
L 97.932894 302.307685 
L 98.900513 302.07842 
L 99.868132 302.085117 
L 100.761319 302.307371 
L 101.728938 302.787801 
L 102.696557 303.521442 
L 103.738608 304.596999 
L 104.855092 306.077467 
L 106.046007 308.025784 
L 107.385788 310.659793 
L 108.874432 314.106963 
L 110.511941 318.477508 
L 112.447179 324.314921 
L 114.829011 332.257383 
L 123.314286 361.29293 
L 125.100659 366.233463 
L 126.589304 369.72651 
L 127.854652 372.17838 
L 128.971136 373.908062 
L 130.013187 375.131882 
L 130.906374 375.868214 
L 131.725128 376.28309 
L 132.543883 376.445638 
L 133.288205 376.373281 
L 134.032527 376.091757 
L 134.851282 375.542871 
L 135.744469 374.663684 
L 136.712088 373.391253 
L 137.828571 371.529304 
L 139.093919 368.945884 
L 140.508132 365.528057 
L 142.220073 360.767551 
L 144.45304 353.827429 
L 150.928645 333.228879 
L 152.640586 328.729055 
L 154.054799 325.589089 
L 155.320147 323.300202 
L 156.43663 321.731958 
L 157.404249 320.737646 
L 158.297436 320.132624 
L 159.11619 319.847895 
L 159.860513 319.815477 
L 160.604835 319.999009 
L 161.42359 320.448562 
L 162.242344 321.15342 
L 163.209963 322.306377 
L 164.252015 323.918881 
L 165.44293 326.201574 
L 166.782711 329.275681 
L 168.345788 333.43937 
L 170.355458 339.486001 
L 173.704908 350.42309 
L 176.75663 360.105004 
L 178.691868 365.528057 
L 180.254945 369.274345 
L 181.594725 371.934193 
L 182.785641 373.81741 
L 183.827692 375.065089 
L 184.720879 375.823196 
L 185.539634 376.258577 
L 186.358388 376.44186 
L 187.102711 376.388385 
L 187.847033 376.125634 
L 188.665788 375.597063 
L 189.558974 374.739245 
L 190.526593 373.488241 
L 191.643077 371.647051 
L 192.833993 369.242747 
L 194.248205 365.851032 
L 195.885714 361.29293 
L 197.820952 355.211317 
L 200.500513 345.984235 
L 206.455092 325.26802 
L 208.613626 318.689386 
L 210.4 313.922219 
L 211.963077 310.344636 
L 213.377289 307.631851 
L 214.642637 305.649657 
L 215.833553 304.178845 
L 216.950037 303.151194 
L 217.992088 302.497859 
L 218.959707 302.152196 
L 219.927326 302.052617 
L 220.894945 302.192137 
L 221.862564 302.562117 
L 222.904615 303.206659 
L 224.021099 304.164519 
L 225.286447 305.56021 
L 226.700659 307.473568 
L 228.338168 310.097109 
L 230.198974 313.520723 
L 232.506374 318.262471 
L 235.70696 325.397612 
L 243.075751 341.975375 
L 245.978608 347.872719 
L 248.509304 352.53281 
L 250.891136 356.463242 
L 253.124103 359.732833 
L 255.282637 362.51454 
L 257.441172 364.93753 
L 259.599707 367.02317 
L 261.758242 368.798096 
L 263.916777 370.2921 
L 266.149744 371.575179 
L 268.531575 372.687964 
L 271.062271 373.62474 
L 273.816264 374.407393 
L 276.942418 375.058801 
L 280.515165 375.57105 
L 284.832234 375.959345 
L 290.489084 376.231396 
L 298.825495 376.388728 
L 312 376.442032 
L 312 376.442032 
" clip-path="url(#p6bf450fe21)" style="fill: none; stroke: #0072b2; stroke-width: 2.5; stroke-linecap: square"/>
   </g>
   <g id="patch_15">
    <path d="M 159.6 489.74 
L 159.6 263.156315 
" style="fill: none; stroke: #000000; stroke-width: 0.8; stroke-linejoin: miter; stroke-linecap: square"/>
   </g>
   <g id="patch_16">
    <path d="M 312 489.74 
L 312 263.156315 
" style="fill: none"/>
   </g>
   <g id="patch_17">
    <path d="M 7.2 376.448158 
L 312 376.448158 
" style="fill: none; stroke: #000000; stroke-width: 0.8; stroke-linejoin: miter; stroke-linecap: square"/>
   </g>
   <g id="patch_18">
    <path d="M 7.2 263.156315 
L 312 263.156315 
" style="fill: none"/>
   </g>
   <g id="legend_3">
    <g id="patch_19">
     <path d="M 21.2 479.74 
L 99.158398 479.74 
Q 103.158398 479.74 103.158398 475.74 
L 103.158398 449.864366 
Q 103.158398 445.864366 99.158398 445.864366 
L 21.2 445.864366 
Q 17.2 445.864366 17.2 449.864366 
L 17.2 475.74 
Q 17.2 479.74 21.2 479.74 
z
" style="fill: #ffffff; opacity: 0.8; stroke: #cccccc; stroke-linejoin: miter"/>
    </g>
    <g id="line2d_12">
     <path d="M 25.2 460.864366 
L 45.2 460.864366 
L 65.2 460.864366 
" style="fill: none; stroke: #0072b2; stroke-width: 2.5; stroke-linecap: square"/>
    </g>
    <g id="text_9">
     <!-- $C$ -->
     <g transform="translate(81.2 467.864366) scale(0.2 -0.2)">
      <defs>
       <path id="CMMI12-43" d="M 4781 4423 
C 4781 4480 4736 4480 4723 4480 
C 4710 4480 4685 4480 4634 4416 
L 4192 3882 
C 3968 4264 3616 4480 3136 4480 
C 1754 4480 320 3088 320 1595 
C 320 533 1069 -128 2003 -128 
C 2515 -128 2963 88 3334 400 
C 3891 863 4058 1481 4058 1531 
C 4058 1588 4006 1588 3987 1588 
C 3930 1588 3923 1550 3910 1524 
C 3616 534 2752 57 2112 57 
C 1434 57 845 489 845 1391 
C 845 1595 909 2700 1632 3532 
C 1984 3939 2586 4295 3194 4295 
C 3898 4295 4211 3717 4211 3068 
C 4211 2903 4192 2764 4192 2738 
C 4192 2681 4256 2681 4275 2681 
C 4346 2681 4352 2687 4378 2801 
L 4781 4423 
z
" transform="scale(0.015625)"/>
      </defs>
      <use xlink:href="#CMMI12-43" transform="scale(0.996264)"/>
     </g>
    </g>
   </g>
  </g>
  <g id="axes_4">
   <g id="patch_20">
    <path d="M 325.8 489.74 
L 630.6 489.74 
L 630.6 263.156315 
L 325.8 263.156315 
L 325.8 489.74 
z
" style="fill: none"/>
   </g>
   <g id="matplotlib.axis_7">
    <g id="text_10">
     <!-- $x$ -->
     <g transform="translate(619.513188 394.285154) scale(0.2 -0.2)">
      <use xlink:href="#CMMI12-78" transform="scale(0.996264)"/>
     </g>
    </g>
   </g>
   <g id="matplotlib.axis_8">
    <g id="text_11">
     <!-- $y$ -->
     <g transform="translate(464.687165 259.280682) scale(0.2 -0.2)">
      <use xlink:href="#CMMI12-79" transform="scale(0.996264)"/>
     </g>
    </g>
   </g>
   <g id="line2d_13">
    <g>
     <use xlink:href="#ma393f14411" x="630.6" y="376.448158" style="stroke: #000000; stroke-linejoin: miter"/>
    </g>
   </g>
   <g id="line2d_14">
    <g>
     <use xlink:href="#mb67eb64048" x="478.2" y="263.156315" style="stroke: #000000; stroke-linejoin: miter"/>
    </g>
   </g>
   <g id="line2d_15">
    <path d="M 325.8 376.454284 
L 344.259194 376.584917 
L 351.553553 376.849037 
L 356.540513 377.242941 
L 360.410989 377.761451 
L 363.686007 378.416982 
L 366.588864 379.223409 
L 369.193993 380.177402 
L 371.575824 381.282565 
L 373.808791 382.557333 
L 375.967326 384.042202 
L 378.051429 385.741089 
L 380.135531 387.727805 
L 382.219634 390.026656 
L 384.303736 392.657574 
L 386.462271 395.746914 
L 388.695238 399.338471 
L 391.07707 403.603321 
L 393.682198 408.742406 
L 396.733919 415.286053 
L 401.42315 425.963809 
L 405.665788 435.428234 
L 408.122051 440.37577 
L 410.057289 443.799675 
L 411.694799 446.271165 
L 413.109011 448.032191 
L 414.374359 449.275971 
L 415.490842 450.088458 
L 416.532894 450.58863 
L 417.500513 450.817895 
L 418.468132 450.811198 
L 419.361319 450.588944 
L 420.328938 450.108514 
L 421.296557 449.374873 
L 422.338608 448.299316 
L 423.455092 446.818848 
L 424.646007 444.870531 
L 425.985788 442.236522 
L 427.474432 438.789352 
L 429.111941 434.418807 
L 431.047179 428.581394 
L 433.429011 420.638932 
L 441.914286 391.603385 
L 443.700659 386.662852 
L 445.189304 383.169805 
L 446.454652 380.717935 
L 447.571136 378.988253 
L 448.613187 377.764433 
L 449.506374 377.028101 
L 450.325128 376.613225 
L 451.143883 376.450677 
L 451.888205 376.523035 
L 452.632527 376.804558 
L 453.451282 377.353444 
L 454.344469 378.232631 
L 455.312088 379.505062 
L 456.428571 381.367011 
L 457.693919 383.950432 
L 459.108132 387.368259 
L 460.820073 392.128764 
L 463.05304 399.068886 
L 469.528645 419.667436 
L 471.240586 424.16726 
L 472.654799 427.307226 
L 473.920147 429.596113 
L 475.03663 431.164357 
L 476.004249 432.15867 
L 476.897436 432.763691 
L 477.71619 433.048421 
L 478.460513 433.080838 
L 479.204835 432.897306 
L 480.02359 432.447754 
L 480.842344 431.742895 
L 481.809963 430.589938 
L 482.852015 428.977434 
L 484.04293 426.694741 
L 485.382711 423.620634 
L 486.945788 419.456945 
L 488.955458 413.410314 
L 492.304908 402.473226 
L 495.35663 392.791311 
L 497.291868 387.368259 
L 498.854945 383.62197 
L 500.194725 380.962122 
L 501.385641 379.078905 
L 502.427692 377.831226 
L 503.320879 377.07312 
L 504.139634 376.637739 
L 504.958388 376.454456 
L 505.702711 376.50793 
L 506.447033 376.770682 
L 507.265788 377.299252 
L 508.158974 378.15707 
L 509.126593 379.408074 
L 510.243077 381.249264 
L 511.433993 383.653568 
L 512.848205 387.045283 
L 514.485714 391.603385 
L 516.420952 397.684998 
L 519.100513 406.912081 
L 525.055092 427.628295 
L 527.213626 434.206929 
L 529 438.974096 
L 530.563077 442.551679 
L 531.977289 445.264464 
L 533.242637 447.246658 
L 534.433553 448.717471 
L 535.550037 449.745121 
L 536.592088 450.398456 
L 537.559707 450.744119 
L 538.527326 450.843698 
L 539.494945 450.704178 
L 540.462564 450.334198 
L 541.504615 449.689657 
L 542.621099 448.731797 
L 543.886447 447.336105 
L 545.300659 445.422747 
L 546.938168 442.799206 
L 548.798974 439.375593 
L 551.106374 434.633844 
L 554.30696 427.498703 
L 561.675751 410.92094 
L 564.578608 405.023597 
L 567.109304 400.363505 
L 569.491136 396.433073 
L 571.724103 393.163482 
L 573.882637 390.381775 
L 576.041172 387.958786 
L 578.199707 385.873146 
L 580.358242 384.098219 
L 582.516777 382.604215 
L 584.749744 381.321136 
L 587.131575 380.208351 
L 589.662271 379.271576 
L 592.416264 378.488922 
L 595.542418 377.837514 
L 599.115165 377.325265 
L 603.432234 376.93697 
L 609.089084 376.66492 
L 617.425495 376.507587 
L 630.6 376.454284 
L 630.6 376.454284 
" clip-path="url(#pdef212d142)" style="fill: none; stroke: #0072b2; stroke-width: 2.5; stroke-linecap: square"/>
   </g>
   <g id="patch_21">
    <path d="M 478.2 489.74 
L 478.2 263.156315 
" style="fill: none; stroke: #000000; stroke-width: 0.8; stroke-linejoin: miter; stroke-linecap: square"/>
   </g>
   <g id="patch_22">
    <path d="M 630.6 489.74 
L 630.6 263.156315 
" style="fill: none"/>
   </g>
   <g id="patch_23">
    <path d="M 325.8 376.448158 
L 630.6 376.448158 
" style="fill: none; stroke: #000000; stroke-width: 0.8; stroke-linejoin: miter; stroke-linecap: square"/>
   </g>
   <g id="patch_24">
    <path d="M 325.8 263.156315 
L 630.6 263.156315 
" style="fill: none"/>
   </g>
   <g id="legend_4">
    <g id="patch_25">
     <path d="M 536.401163 307.031949 
L 616.6 307.031949 
Q 620.6 307.031949 620.6 303.031949 
L 620.6 277.156315 
Q 620.6 273.156315 616.6 273.156315 
L 536.401163 273.156315 
Q 532.401163 273.156315 532.401163 277.156315 
L 532.401163 303.031949 
Q 532.401163 307.031949 536.401163 307.031949 
z
" style="fill: #ffffff; opacity: 0.8; stroke: #cccccc; stroke-linejoin: miter"/>
    </g>
    <g id="line2d_16">
     <path d="M 540.401163 288.156315 
L 560.401163 288.156315 
L 580.401163 288.156315 
" style="fill: none; stroke: #0072b2; stroke-width: 2.5; stroke-linecap: square"/>
    </g>
    <g id="text_12">
     <!-- $D$ -->
     <g transform="translate(596.401163 295.156315) scale(0.2 -0.2)">
      <defs>
       <path id="CMMI12-44" d="M 1005 472 
C 947 249 934 185 486 185 
C 365 185 301 185 301 70 
C 301 0 339 0 467 0 
L 2496 0 
C 3789 0 5050 1332 5050 2753 
C 5050 3671 4499 4352 3584 4352 
L 1530 4352 
C 1408 4352 1350 4352 1350 4231 
C 1350 4167 1408 4167 1504 4167 
C 1894 4167 1894 4116 1894 4046 
C 1894 4034 1894 3995 1869 3899 
L 1005 472 
z
M 2355 3931 
C 2413 4167 2438 4167 2688 4167 
L 3392 4167 
C 3994 4167 4544 3842 4544 2963 
C 4544 2644 4416 1536 3795 835 
C 3616 625 3130 185 2394 185 
L 1664 185 
C 1574 185 1562 185 1523 192 
C 1453 198 1446 211 1446 262 
C 1446 307 1459 345 1472 402 
L 2355 3931 
z
" transform="scale(0.015625)"/>
      </defs>
      <use xlink:href="#CMMI12-44" transform="scale(0.996264)"/>
     </g>
    </g>
   </g>
  </g>
 </g>
 <defs>
  <clipPath id="p409ec9f26a">
   <rect x="7.2" y="16.556315" width="304.8" height="226.583685"/>
  </clipPath>
  <clipPath id="p223f9fd308">
   <rect x="325.8" y="16.556315" width="304.8" height="226.583685"/>
  </clipPath>
  <clipPath id="p6bf450fe21">
   <rect x="7.2" y="263.156315" width="304.8" height="226.583685"/>
  </clipPath>
  <clipPath id="pdef212d142">
   <rect x="325.8" y="263.156315" width="304.8" height="226.583685"/>
  </clipPath>
 </defs>
</svg>
