<?xml version="1.0" encoding="utf-8" standalone="no"?>
<!DOCTYPE svg PUBLIC "-//W3C//DTD SVG 1.1//EN"
  "http://www.w3.org/Graphics/SVG/1.1/DTD/svg11.dtd">
<svg xmlns:xlink="http://www.w3.org/1999/xlink" width="640.8pt" height="496.94pt" viewBox="0 0 640.8 496.94" xmlns="http://www.w3.org/2000/svg" version="1.1">
 <metadata>
  <rdf:RDF xmlns:dc="http://purl.org/dc/elements/1.1/" xmlns:cc="http://creativecommons.org/ns#" xmlns:rdf="http://www.w3.org/1999/02/22-rdf-syntax-ns#">
   <cc:Work>
    <dc:type rdf:resource="http://purl.org/dc/dcmitype/StillImage"/>
    <dc:date>2025-11-28T17:35:33.484505</dc:date>
    <dc:format>image/svg+xml</dc:format>
    <dc:creator>
     <cc:Agent>
      <dc:title>Matplotlib v3.9.1, https://matplotlib.org/</dc:title>
     </cc:Agent>
    </dc:creator>
   </cc:Work>
  </rdf:RDF>
 </metadata>
 <defs>
  <style type="text/css">*{stroke-linejoin: round; stroke-linecap: butt}</style>
 </defs>
 <g id="figure_1">
  <g id="patch_1">
   <path d="M 0 496.94 
L 640.8 496.94 
L 640.8 0 
L 0 0 
L 0 496.94 
z
" style="fill: none"/>
  </g>
  <g id="axes_1">
   <g id="patch_2">
    <path d="M 7.2 243.14 
L 312 243.14 
L 312 16.556315 
L 7.2 16.556315 
L 7.2 243.14 
z
" style="fill: none"/>
   </g>
   <g id="matplotlib.axis_1">
    <g id="text_1">
     <!-- $x$ -->
     <g transform="translate(300.913188 147.685154) scale(0.2 -0.2)">
      <defs>
       <path id="CMMI12-78" d="M 3034 2606 
C 2829 2567 2752 2414 2752 2293 
C 2752 2139 2874 2088 2963 2088 
C 3155 2088 3290 2254 3290 2427 
C 3290 2695 2982 2816 2714 2816 
C 2323 2816 2106 2433 2048 2312 
C 1901 2816 1504 2816 1389 2816 
C 736 2816 390 1980 390 1839 
C 390 1814 416 1782 461 1782 
C 512 1782 525 1820 538 1846 
C 755 2555 1184 2689 1370 2689 
C 1658 2689 1715 2420 1715 2267 
C 1715 2127 1677 1980 1600 1673 
L 1382 798 
C 1286 415 1101 64 762 64 
C 730 64 570 64 435 147 
C 666 192 717 383 717 460 
C 717 588 621 664 499 664 
C 346 664 179 530 179 326 
C 179 57 480 -64 755 -64 
C 1062 -64 1280 179 1414 441 
C 1517 64 1837 -64 2074 -64 
C 2726 -64 3072 773 3072 913 
C 3072 945 3046 971 3008 971 
C 2950 971 2944 939 2925 888 
C 2752 326 2381 64 2093 64 
C 1869 64 1747 230 1747 492 
C 1747 632 1773 734 1875 1156 
L 2099 2024 
C 2195 2408 2413 2689 2707 2689 
C 2720 2689 2899 2689 3034 2606 
z
" transform="scale(0.015625)"/>
      </defs>
      <use xlink:href="#CMMI12-78" transform="scale(0.996264)"/>
     </g>
    </g>
   </g>
   <g id="matplotlib.axis_2">
    <g id="text_2">
     <!-- $y$ -->
     <g transform="translate(146.087165 12.680682) scale(0.2 -0.2)">
      <defs>
       <path id="CMMI12-79" d="M 1683 -700 
C 1510 -939 1261 -1152 947 -1152 
C 870 -1152 563 -1152 467 -889 
C 486 -895 518 -895 531 -895 
C 723 -895 851 -729 851 -582 
C 851 -435 730 -384 634 -384 
C 531 -384 307 -458 307 -759 
C 307 -1071 582 -1286 947 -1286 
C 1587 -1286 2234 -700 2413 6 
L 3040 2485 
C 3046 2517 3059 2556 3059 2594 
C 3059 2689 2982 2753 2886 2753 
C 2829 2753 2694 2727 2643 2535 
L 2170 658 
C 2138 543 2138 530 2086 460 
C 1958 281 1747 64 1440 64 
C 1082 64 1050 415 1050 588 
C 1050 952 1222 1443 1395 1903 
C 1466 2088 1504 2178 1504 2305 
C 1504 2574 1312 2816 998 2816 
C 410 2816 173 1890 173 1839 
C 173 1814 198 1782 243 1782 
C 301 1782 307 1807 333 1897 
C 486 2433 730 2689 979 2689 
C 1037 2689 1146 2689 1146 2478 
C 1146 2312 1075 2127 979 1884 
C 666 1047 666 837 666 683 
C 666 77 1101 -64 1421 -64 
C 1606 -64 1837 -6 2061 230 
L 2067 224 
C 1971 -147 1907 -392 1683 -700 
z
" transform="scale(0.015625)"/>
      </defs>
      <use xlink:href="#CMMI12-79" transform="scale(0.996264)"/>
     </g>
    </g>
   </g>
   <g id="line2d_1">
    <defs>
     <path id="m2e16596fc5" d="M 3 0 
L -3 -3 
L -3 3 
z
" style="stroke: #000000; stroke-linejoin: miter"/>
    </defs>
    <g>
     <use xlink:href="#m2e16596fc5" x="312" y="129.848158" style="stroke: #000000; stroke-linejoin: miter"/>
    </g>
   </g>
   <g id="line2d_2">
    <defs>
     <path id="m3876f28840" d="M 0 -3 
L -3 3 
L 3 3 
z
" style="stroke: #000000; stroke-linejoin: miter"/>
    </defs>
    <g>
     <use xlink:href="#m3876f28840" x="159.6" y="16.556315" style="stroke: #000000; stroke-linejoin: miter"/>
    </g>
   </g>
   <g id="line2d_3">
    <path d="M 121.2412 -1 
L 123.090989 25.55664 
L 124.951795 49.159108 
L 126.812601 69.947406 
L 128.598974 87.516578 
L 130.385348 102.975659 
L 132.171722 116.530222 
L 133.958095 128.367652 
L 134.181392 129.735269 
L 134.255824 129.510484 
L 135.967766 119.852107 
L 137.679707 111.454194 
L 139.317216 104.487066 
L 140.954725 98.461621 
L 142.592234 93.287429 
L 144.155311 89.066369 
L 145.718388 85.479394 
L 147.207033 82.597191 
L 148.695678 80.186888 
L 150.184322 78.204098 
L 151.598535 76.679179 
L 153.012747 75.470892 
L 154.42696 74.549415 
L 155.841172 73.887227 
L 157.329817 73.442433 
L 158.818462 73.229607 
L 160.381538 73.228507 
L 162.09348 73.457964 
L 163.954286 73.945304 
L 165.963956 74.709363 
L 168.196923 75.799793 
L 170.802051 77.3305 
L 173.853773 79.393011 
L 177.724249 82.295583 
L 183.529963 86.965052 
L 194.620366 95.906521 
L 200.128352 100.032461 
L 205.115311 103.49427 
L 209.878974 106.533459 
L 214.568205 109.262659 
L 219.257436 111.734257 
L 224.021099 113.990905 
L 228.859194 116.035106 
L 233.846154 117.899495 
L 239.05641 119.60656 
L 244.489963 121.150453 
L 250.221245 122.546667 
L 256.324689 123.804226 
L 262.949158 124.939147 
L 270.169084 125.946565 
L 278.133333 126.829675 
L 287.065201 127.592792 
L 297.33685 128.241832 
L 309.469304 128.777762 
L 312 128.865279 
L 312 128.865279 
" clip-path="url(#p21d8ed5c05)" style="fill: none; stroke: #0072b2; stroke-width: 2.5; stroke-linecap: square"/>
   </g>
   <g id="patch_3">
    <path d="M 159.6 243.14 
L 159.6 16.556315 
" style="fill: none; stroke: #000000; stroke-width: 0.8; stroke-linejoin: miter; stroke-linecap: square"/>
   </g>
   <g id="patch_4">
    <path d="M 312 243.14 
L 312 16.556315 
" style="fill: none"/>
   </g>
   <g id="patch_5">
    <path d="M 7.2 129.848158 
L 312 129.848158 
" style="fill: none; stroke: #000000; stroke-width: 0.8; stroke-linejoin: miter; stroke-linecap: square"/>
   </g>
   <g id="patch_6">
    <path d="M 7.2 16.556315 
L 312 16.556315 
" style="fill: none"/>
   </g>
   <g id="legend_1">
    <g id="patch_7">
     <path d="M 219.374426 60.431949 
L 298 60.431949 
Q 302 60.431949 302 56.431949 
L 302 30.556315 
Q 302 26.556315 298 26.556315 
L 219.374426 26.556315 
Q 215.374426 26.556315 215.374426 30.556315 
L 215.374426 56.431949 
Q 215.374426 60.431949 219.374426 60.431949 
z
" style="fill: #ffffff; opacity: 0.8; stroke: #cccccc; stroke-linejoin: miter"/>
    </g>
    <g id="line2d_4">
     <path d="M 223.374426 41.556315 
L 243.374426 41.556315 
L 263.374426 41.556315 
" style="fill: none; stroke: #0072b2; stroke-width: 2.5; stroke-linecap: square"/>
    </g>
    <g id="text_3">
     <!-- $A$ -->
     <g transform="translate(279.374426 48.556315) scale(0.2 -0.2)">
      <defs>
       <path id="CMMI12-41" d="M 1088 691 
C 864 314 646 186 339 186 
C 269 180 218 180 218 58 
C 218 24 250 0 294 0 
C 410 0 698 0 813 0 
C 998 0 1203 0 1382 0 
C 1421 0 1498 0 1498 122 
C 1498 180 1446 186 1408 186 
C 1261 186 1139 236 1139 388 
C 1139 476 1178 546 1261 685 
L 1747 1479 
L 3379 1479 
C 3386 1423 3386 1373 3392 1316 
C 3411 1152 3488 495 3488 376 
C 3488 186 3162 186 3059 186 
C 2989 186 2918 186 2918 70 
C 2918 0 2976 0 3014 0 
C 3123 0 3251 0 3360 0 
L 3725 0 
C 4115 0 4397 0 4403 0 
C 4448 0 4518 0 4518 122 
C 4518 186 4461 186 4365 186 
C 4013 186 4006 244 3987 434 
L 3597 4404 
C 3584 4531 3558 4544 3488 4544 
C 3424 4544 3386 4531 3328 4435 
L 1088 691 
z
M 1856 1664 
L 3142 3819 
L 3360 1664 
L 1856 1664 
z
" transform="scale(0.015625)"/>
      </defs>
      <use xlink:href="#CMMI12-41" transform="scale(0.996264)"/>
     </g>
    </g>
   </g>
  </g>
  <g id="axes_2">
   <g id="patch_8">
    <path d="M 325.8 243.14 
L 630.6 243.14 
L 630.6 16.556315 
L 325.8 16.556315 
L 325.8 243.14 
z
" style="fill: none"/>
   </g>
   <g id="matplotlib.axis_3">
    <g id="text_4">
     <!-- $x$ -->
     <g transform="translate(619.513188 147.685154) scale(0.2 -0.2)">
      <use xlink:href="#CMMI12-78" transform="scale(0.996264)"/>
     </g>
    </g>
   </g>
   <g id="matplotlib.axis_4">
    <g id="text_5">
     <!-- $y$ -->
     <g transform="translate(464.687165 12.680682) scale(0.2 -0.2)">
      <use xlink:href="#CMMI12-79" transform="scale(0.996264)"/>
     </g>
    </g>
   </g>
   <g id="line2d_5">
    <g>
     <use xlink:href="#m2e16596fc5" x="630.6" y="129.848158" style="stroke: #000000; stroke-linejoin: miter"/>
    </g>
   </g>
   <g id="line2d_6">
    <g>
     <use xlink:href="#m3876f28840" x="478.2" y="16.556315" style="stroke: #000000; stroke-linejoin: miter"/>
    </g>
   </g>
   <g id="line2d_7">
    <path d="M 439.8412 -1 
L 441.690989 25.55664 
L 443.551795 49.159108 
L 445.412601 69.947406 
L 447.198974 87.516578 
L 448.985348 102.975659 
L 450.771722 116.530222 
L 452.558095 128.367652 
L 454.270037 138.258672 
L 455.981978 146.866626 
L 457.619487 154.015319 
L 459.256996 160.20502 
L 460.894505 165.527611 
L 462.457582 169.876765 
L 464.020659 173.579682 
L 465.509304 176.561921 
L 466.997949 179.062936 
L 468.486593 181.12785 
L 469.900806 182.723458 
L 471.315018 183.995846 
L 472.729231 184.975342 
L 474.143443 185.689939 
L 475.557656 186.165455 
L 477.0463 186.433846 
L 478.609377 186.4868 
L 480.246886 186.319735 
L 482.03326 185.910379 
L 483.968498 185.236685 
L 486.127033 184.247484 
L 488.583297 182.873015 
L 491.486154 180.983487 
L 495.058901 178.376575 
L 499.971429 174.491998 
L 515.230037 162.250861 
L 520.514725 158.391976 
L 525.427253 155.079082 
L 530.190916 152.136277 
L 534.880147 149.501848 
L 539.569377 147.122242 
L 544.33304 144.954396 
L 549.245568 142.966088 
L 554.30696 141.160124 
L 559.591648 139.513581 
L 565.099634 138.030643 
L 570.97978 136.679564 
L 577.30652 135.458419 
L 584.154286 134.368286 
L 591.597509 133.411212 
L 599.933919 132.568452 
L 609.312381 131.848466 
L 620.179487 131.242734 
L 630.6 130.831036 
L 630.6 130.831036 
" clip-path="url(#p6840340cdf)" style="fill: none; stroke: #0072b2; stroke-width: 2.5; stroke-linecap: square"/>
   </g>
   <g id="patch_9">
    <path d="M 478.2 243.14 
L 478.2 16.556315 
" style="fill: none; stroke: #000000; stroke-width: 0.8; stroke-linejoin: miter; stroke-linecap: square"/>
   </g>
   <g id="patch_10">
    <path d="M 630.6 243.14 
L 630.6 16.556315 
" style="fill: none"/>
   </g>
   <g id="patch_11">
    <path d="M 325.8 129.848158 
L 630.6 129.848158 
" style="fill: none; stroke: #000000; stroke-width: 0.8; stroke-linejoin: miter; stroke-linecap: square"/>
   </g>
   <g id="patch_12">
    <path d="M 325.8 16.556315 
L 630.6 16.556315 
" style="fill: none"/>
   </g>
   <g id="legend_2">
    <g id="patch_13">
     <path d="M 537.778399 60.431949 
L 616.6 60.431949 
Q 620.6 60.431949 620.6 56.431949 
L 620.6 30.556315 
Q 620.6 26.556315 616.6 26.556315 
L 537.778399 26.556315 
Q 533.778399 26.556315 533.778399 30.556315 
L 533.778399 56.431949 
Q 533.778399 60.431949 537.778399 60.431949 
z
" style="fill: #ffffff; opacity: 0.8; stroke: #cccccc; stroke-linejoin: miter"/>
    </g>
    <g id="line2d_8">
     <path d="M 541.778399 41.556315 
L 561.778399 41.556315 
L 581.778399 41.556315 
" style="fill: none; stroke: #0072b2; stroke-width: 2.5; stroke-linecap: square"/>
    </g>
    <g id="text_6">
     <!-- $B$ -->
     <g transform="translate(597.778399 48.556315) scale(0.2 -0.2)">
      <defs>
       <path id="CMMI12-42" d="M 2342 3921 
C 2400 4160 2426 4160 2675 4160 
L 3507 4160 
C 4230 4160 4230 3544 4230 3485 
C 4230 2966 3712 2304 2867 2304 
L 1946 2304 
L 2342 3921 
z
M 3424 2275 
C 4122 2402 4755 2886 4755 3473 
C 4755 3970 4314 4352 3590 4352 
L 1536 4352 
C 1414 4352 1357 4352 1357 4226 
C 1357 4160 1414 4160 1510 4160 
C 1901 4160 1901 4112 1901 4044 
C 1901 4032 1901 3993 1875 3897 
L 1011 472 
C 954 249 941 185 493 185 
C 371 185 307 185 307 70 
C 307 0 346 0 474 0 
L 2669 0 
C 3648 0 4403 739 4403 1383 
C 4403 1906 3942 2224 3424 2275 
z
M 2515 185 
L 1651 185 
C 1562 185 1549 185 1510 192 
C 1440 198 1434 211 1434 261 
C 1434 305 1446 343 1459 399 
L 1907 2176 
L 3110 2176 
C 3866 2176 3866 1483 3866 1433 
C 3866 828 3309 185 2515 185 
z
" transform="scale(0.015625)"/>
      </defs>
      <use xlink:href="#CMMI12-42" transform="scale(0.996264)"/>
     </g>
    </g>
   </g>
  </g>
  <g id="axes_3">
   <g id="patch_14">
    <path d="M 7.2 489.74 
L 312 489.74 
L 312 263.156315 
L 7.2 263.156315 
L 7.2 489.74 
z
" style="fill: none"/>
   </g>
   <g id="matplotlib.axis_5">
    <g id="text_7">
     <!-- $x$ -->
     <g transform="translate(300.913188 394.285154) scale(0.2 -0.2)">
      <use xlink:href="#CMMI12-78" transform="scale(0.996264)"/>
     </g>
    </g>
   </g>
   <g id="matplotlib.axis_6">
    <g id="text_8">
     <!-- $y$ -->
     <g transform="translate(146.087165 259.280682) scale(0.2 -0.2)">
      <use xlink:href="#CMMI12-79" transform="scale(0.996264)"/>
     </g>
    </g>
   </g>
   <g id="line2d_9">
    <g>
     <use xlink:href="#m2e16596fc5" x="312" y="376.448158" style="stroke: #000000; stroke-linejoin: miter"/>
    </g>
   </g>
   <g id="line2d_10">
    <g>
     <use xlink:href="#m3876f28840" x="159.6" y="263.156315" style="stroke: #000000; stroke-linejoin: miter"/>
    </g>
   </g>
   <g id="line2d_11">
    <path d="M 121.867489 497.94 
L 123.686447 472.862544 
L 125.547253 450.192702 
L 127.408059 430.244576 
L 129.194432 413.402799 
L 130.980806 398.600468 
L 132.767179 385.63825 
L 134.181392 376.561046 
L 134.330256 377.233757 
L 136.042198 386.834614 
L 137.754139 395.180601 
L 139.391648 402.102849 
L 141.029158 408.087699 
L 142.666667 413.225221 
L 144.229744 417.414633 
L 145.792821 420.972967 
L 147.281465 423.830463 
L 148.77011 426.218367 
L 150.258755 428.180881 
L 151.672967 429.688353 
L 153.087179 430.880822 
L 154.501392 431.787985 
L 155.915604 432.437248 
L 157.404249 432.869817 
L 158.892894 433.071717 
L 160.455971 433.062627 
L 162.167912 432.823381 
L 164.028718 432.326868 
L 166.038388 431.554438 
L 168.271355 430.456357 
L 170.876484 428.918628 
L 173.928205 426.850096 
L 177.798681 423.942671 
L 183.604396 419.270298 
L 194.545934 410.447467 
L 200.053919 406.317594 
L 205.040879 402.851644 
L 209.804542 399.80828 
L 214.493773 397.074948 
L 219.183004 394.599319 
L 223.946667 392.338768 
L 228.784762 390.290853 
L 233.771722 388.422934 
L 238.981978 386.712519 
L 244.415531 385.165501 
L 250.146813 383.766378 
L 256.250256 382.506132 
L 262.874725 381.368728 
L 270.094652 380.359058 
L 278.058901 379.473933 
L 286.990769 378.709041 
L 297.262418 378.058463 
L 309.32044 377.52393 
L 312 377.431036 
L 312 377.431036 
" clip-path="url(#p7c575179cd)" style="fill: none; stroke: #0072b2; stroke-width: 2.5; stroke-linecap: square"/>
   </g>
   <g id="patch_15">
    <path d="M 159.6 489.74 
L 159.6 263.156315 
" style="fill: none; stroke: #000000; stroke-width: 0.8; stroke-linejoin: miter; stroke-linecap: square"/>
   </g>
   <g id="patch_16">
    <path d="M 312 489.74 
L 312 263.156315 
" style="fill: none"/>
   </g>
   <g id="patch_17">
    <path d="M 7.2 376.448158 
L 312 376.448158 
" style="fill: none; stroke: #000000; stroke-width: 0.8; stroke-linejoin: miter; stroke-linecap: square"/>
   </g>
   <g id="patch_18">
    <path d="M 7.2 263.156315 
L 312 263.156315 
" style="fill: none"/>
   </g>
   <g id="legend_3">
    <g id="patch_19">
     <path d="M 220.041602 307.031949 
L 298 307.031949 
Q 302 307.031949 302 303.031949 
L 302 277.156315 
Q 302 273.156315 298 273.156315 
L 220.041602 273.156315 
Q 216.041602 273.156315 216.041602 277.156315 
L 216.041602 303.031949 
Q 216.041602 307.031949 220.041602 307.031949 
z
" style="fill: #ffffff; opacity: 0.8; stroke: #cccccc; stroke-linejoin: miter"/>
    </g>
    <g id="line2d_12">
     <path d="M 224.041602 288.156315 
L 244.041602 288.156315 
L 264.041602 288.156315 
" style="fill: none; stroke: #0072b2; stroke-width: 2.5; stroke-linecap: square"/>
    </g>
    <g id="text_9">
     <!-- $C$ -->
     <g transform="translate(280.041602 295.156315) scale(0.2 -0.2)">
      <defs>
       <path id="CMMI12-43" d="M 4781 4423 
C 4781 4480 4736 4480 4723 4480 
C 4710 4480 4685 4480 4634 4416 
L 4192 3882 
C 3968 4264 3616 4480 3136 4480 
C 1754 4480 320 3088 320 1595 
C 320 533 1069 -128 2003 -128 
C 2515 -128 2963 88 3334 400 
C 3891 863 4058 1481 4058 1531 
C 4058 1588 4006 1588 3987 1588 
C 3930 1588 3923 1550 3910 1524 
C 3616 534 2752 57 2112 57 
C 1434 57 845 489 845 1391 
C 845 1595 909 2700 1632 3532 
C 1984 3939 2586 4295 3194 4295 
C 3898 4295 4211 3717 4211 3068 
C 4211 2903 4192 2764 4192 2738 
C 4192 2681 4256 2681 4275 2681 
C 4346 2681 4352 2687 4378 2801 
L 4781 4423 
z
" transform="scale(0.015625)"/>
      </defs>
      <use xlink:href="#CMMI12-43" transform="scale(0.996264)"/>
     </g>
    </g>
   </g>
  </g>
  <g id="axes_4">
   <g id="patch_20">
    <path d="M 325.8 489.74 
L 630.6 489.74 
L 630.6 263.156315 
L 325.8 263.156315 
L 325.8 489.74 
z
" style="fill: none"/>
   </g>
   <g id="matplotlib.axis_7">
    <g id="text_10">
     <!-- $x$ -->
     <g transform="translate(619.513188 394.285154) scale(0.2 -0.2)">
      <use xlink:href="#CMMI12-78" transform="scale(0.996264)"/>
     </g>
    </g>
   </g>
   <g id="matplotlib.axis_8">
    <g id="text_11">
     <!-- $y$ -->
     <g transform="translate(464.687165 259.280682) scale(0.2 -0.2)">
      <use xlink:href="#CMMI12-79" transform="scale(0.996264)"/>
     </g>
    </g>
   </g>
   <g id="line2d_13">
    <g>
     <use xlink:href="#m2e16596fc5" x="630.6" y="376.448158" style="stroke: #000000; stroke-linejoin: miter"/>
    </g>
   </g>
   <g id="line2d_14">
    <g>
     <use xlink:href="#m3876f28840" x="478.2" y="263.156315" style="stroke: #000000; stroke-linejoin: miter"/>
    </g>
   </g>
   <g id="line2d_15">
    <path d="M 440.467489 497.94 
L 442.286447 472.862544 
L 444.147253 450.192702 
L 446.008059 430.244576 
L 447.794432 413.402799 
L 449.580806 398.600468 
L 451.367179 385.63825 
L 453.079121 374.774567 
L 454.791062 365.287992 
L 456.503004 357.04516 
L 458.140513 350.212064 
L 459.778022 344.307847 
L 461.341099 339.45634 
L 462.904176 335.298426 
L 464.467253 331.768596 
L 465.955897 328.935687 
L 467.444542 326.570072 
L 468.933187 324.62773 
L 470.347399 323.137617 
L 471.761612 321.960884 
L 473.175824 321.067958 
L 474.590037 320.431552 
L 476.078681 320.011141 
L 477.567326 319.820103 
L 479.130403 319.839324 
L 480.842344 320.088299 
L 482.70315 320.593927 
L 484.712821 321.374673 
L 487.02022 322.52097 
L 489.625348 324.072582 
L 492.751502 326.206561 
L 496.69641 329.186553 
L 502.799853 334.114066 
L 512.99707 342.333364 
L 518.505055 346.471066 
L 523.492015 349.945282 
L 528.255678 352.99699 
L 532.944908 355.73859 
L 537.634139 358.222286 
L 542.32337 360.45712 
L 547.161465 362.5162 
L 552.148425 364.394735 
L 557.284249 366.092282 
L 562.717802 367.651858 
L 568.449084 369.062664 
L 574.552527 370.333708 
L 581.102564 371.469402 
L 588.248059 372.480966 
L 596.137875 373.370859 
L 604.995311 374.142666 
L 615.192527 374.80161 
L 627.176117 375.345102 
L 630.6 375.465279 
L 630.6 375.465279 
" clip-path="url(#paa53d29f36)" style="fill: none; stroke: #0072b2; stroke-width: 2.5; stroke-linecap: square"/>
   </g>
   <g id="patch_21">
    <path d="M 478.2 489.74 
L 478.2 263.156315 
" style="fill: none; stroke: #000000; stroke-width: 0.8; stroke-linejoin: miter; stroke-linecap: square"/>
   </g>
   <g id="patch_22">
    <path d="M 630.6 489.74 
L 630.6 263.156315 
" style="fill: none"/>
   </g>
   <g id="patch_23">
    <path d="M 325.8 376.448158 
L 630.6 376.448158 
" style="fill: none; stroke: #000000; stroke-width: 0.8; stroke-linejoin: miter; stroke-linecap: square"/>
   </g>
   <g id="patch_24">
    <path d="M 325.8 263.156315 
L 630.6 263.156315 
" style="fill: none"/>
   </g>
   <g id="legend_4">
    <g id="patch_25">
     <path d="M 536.401163 307.031949 
L 616.6 307.031949 
Q 620.6 307.031949 620.6 303.031949 
L 620.6 277.156315 
Q 620.6 273.156315 616.6 273.156315 
L 536.401163 273.156315 
Q 532.401163 273.156315 532.401163 277.156315 
L 532.401163 303.031949 
Q 532.401163 307.031949 536.401163 307.031949 
z
" style="fill: #ffffff; opacity: 0.8; stroke: #cccccc; stroke-linejoin: miter"/>
    </g>
    <g id="line2d_16">
     <path d="M 540.401163 288.156315 
L 560.401163 288.156315 
L 580.401163 288.156315 
" style="fill: none; stroke: #0072b2; stroke-width: 2.5; stroke-linecap: square"/>
    </g>
    <g id="text_12">
     <!-- $D$ -->
     <g transform="translate(596.401163 295.156315) scale(0.2 -0.2)">
      <defs>
       <path id="CMMI12-44" d="M 1005 472 
C 947 249 934 185 486 185 
C 365 185 301 185 301 70 
C 301 0 339 0 467 0 
L 2496 0 
C 3789 0 5050 1332 5050 2753 
C 5050 3671 4499 4352 3584 4352 
L 1530 4352 
C 1408 4352 1350 4352 1350 4231 
C 1350 4167 1408 4167 1504 4167 
C 1894 4167 1894 4116 1894 4046 
C 1894 4034 1894 3995 1869 3899 
L 1005 472 
z
M 2355 3931 
C 2413 4167 2438 4167 2688 4167 
L 3392 4167 
C 3994 4167 4544 3842 4544 2963 
C 4544 2644 4416 1536 3795 835 
C 3616 625 3130 185 2394 185 
L 1664 185 
C 1574 185 1562 185 1523 192 
C 1453 198 1446 211 1446 262 
C 1446 307 1459 345 1472 402 
L 2355 3931 
z
" transform="scale(0.015625)"/>
      </defs>
      <use xlink:href="#CMMI12-44" transform="scale(0.996264)"/>
     </g>
    </g>
   </g>
  </g>
 </g>
 <defs>
  <clipPath id="p21d8ed5c05">
   <rect x="7.2" y="16.556315" width="304.8" height="226.583685"/>
  </clipPath>
  <clipPath id="p6840340cdf">
   <rect x="325.8" y="16.556315" width="304.8" height="226.583685"/>
  </clipPath>
  <clipPath id="p7c575179cd">
   <rect x="7.2" y="263.156315" width="304.8" height="226.583685"/>
  </clipPath>
  <clipPath id="paa53d29f36">
   <rect x="325.8" y="263.156315" width="304.8" height="226.583685"/>
  </clipPath>
 </defs>
</svg>
