<?xml version="1.0" encoding="utf-8" standalone="no"?>
<!DOCTYPE svg PUBLIC "-//W3C//DTD SVG 1.1//EN"
  "http://www.w3.org/Graphics/SVG/1.1/DTD/svg11.dtd">
<svg xmlns:xlink="http://www.w3.org/1999/xlink" width="640.8pt" height="496.94pt" viewBox="0 0 640.8 496.94" xmlns="http://www.w3.org/2000/svg" version="1.1">
 <metadata>
  <rdf:RDF xmlns:dc="http://purl.org/dc/elements/1.1/" xmlns:cc="http://creativecommons.org/ns#" xmlns:rdf="http://www.w3.org/1999/02/22-rdf-syntax-ns#">
   <cc:Work>
    <dc:type rdf:resource="http://purl.org/dc/dcmitype/StillImage"/>
    <dc:date>2025-12-06T22:17:04.118937</dc:date>
    <dc:format>image/svg+xml</dc:format>
    <dc:creator>
     <cc:Agent>
      <dc:title>Matplotlib v3.9.1, https://matplotlib.org/</dc:title>
     </cc:Agent>
    </dc:creator>
   </cc:Work>
  </rdf:RDF>
 </metadata>
 <defs>
  <style type="text/css">*{stroke-linejoin: round; stroke-linecap: butt}</style>
 </defs>
 <g id="figure_1">
  <g id="patch_1">
   <path d="M 0 496.94 
L 640.8 496.94 
L 640.8 0 
L 0 0 
L 0 496.94 
z
" style="fill: none"/>
  </g>
  <g id="axes_1">
   <g id="patch_2">
    <path d="M 7.2 243.14 
L 312 243.14 
L 312 19.213214 
L 7.2 19.213214 
L 7.2 243.14 
z
" style="fill: none"/>
   </g>
   <g id="matplotlib.axis_1">
    <g id="text_1">
     <!-- $x$ -->
     <g transform="translate(297.587145 153.164709) scale(0.26 -0.26)">
      <defs>
       <path id="CMMI12-78" d="M 3034 2606 
C 2829 2567 2752 2414 2752 2293 
C 2752 2139 2874 2088 2963 2088 
C 3155 2088 3290 2254 3290 2427 
C 3290 2695 2982 2816 2714 2816 
C 2323 2816 2106 2433 2048 2312 
C 1901 2816 1504 2816 1389 2816 
C 736 2816 390 1980 390 1839 
C 390 1814 416 1782 461 1782 
C 512 1782 525 1820 538 1846 
C 755 2555 1184 2689 1370 2689 
C 1658 2689 1715 2420 1715 2267 
C 1715 2127 1677 1980 1600 1673 
L 1382 798 
C 1286 415 1101 64 762 64 
C 730 64 570 64 435 147 
C 666 192 717 383 717 460 
C 717 588 621 664 499 664 
C 346 664 179 530 179 326 
C 179 57 480 -64 755 -64 
C 1062 -64 1280 179 1414 441 
C 1517 64 1837 -64 2074 -64 
C 2726 -64 3072 773 3072 913 
C 3072 945 3046 971 3008 971 
C 2950 971 2944 939 2925 888 
C 2752 326 2381 64 2093 64 
C 1869 64 1747 230 1747 492 
C 1747 632 1773 734 1875 1156 
L 2099 2024 
C 2195 2408 2413 2689 2707 2689 
C 2720 2689 2899 2689 3034 2606 
z
" transform="scale(0.015625)"/>
      </defs>
      <use xlink:href="#CMMI12-78" transform="scale(0.996264)"/>
     </g>
    </g>
   </g>
   <g id="matplotlib.axis_2">
    <g id="text_2">
     <!-- $y$ -->
     <g transform="translate(143.23332 14.174888) scale(0.26 -0.26)">
      <defs>
       <path id="CMMI12-79" d="M 1683 -700 
C 1510 -939 1261 -1152 947 -1152 
C 870 -1152 563 -1152 467 -889 
C 486 -895 518 -895 531 -895 
C 723 -895 851 -729 851 -582 
C 851 -435 730 -384 634 -384 
C 531 -384 307 -458 307 -759 
C 307 -1071 582 -1286 947 -1286 
C 1587 -1286 2234 -700 2413 6 
L 3040 2485 
C 3046 2517 3059 2556 3059 2594 
C 3059 2689 2982 2753 2886 2753 
C 2829 2753 2694 2727 2643 2535 
L 2170 658 
C 2138 543 2138 530 2086 460 
C 1958 281 1747 64 1440 64 
C 1082 64 1050 415 1050 588 
C 1050 952 1222 1443 1395 1903 
C 1466 2088 1504 2178 1504 2305 
C 1504 2574 1312 2816 998 2816 
C 410 2816 173 1890 173 1839 
C 173 1814 198 1782 243 1782 
C 301 1782 307 1807 333 1897 
C 486 2433 730 2689 979 2689 
C 1037 2689 1146 2689 1146 2478 
C 1146 2312 1075 2127 979 1884 
C 666 1047 666 837 666 683 
C 666 77 1101 -64 1421 -64 
C 1606 -64 1837 -6 2061 230 
L 2067 224 
C 1971 -147 1907 -392 1683 -700 
z
" transform="scale(0.015625)"/>
      </defs>
      <use xlink:href="#CMMI12-79" transform="scale(0.996264)"/>
     </g>
    </g>
   </g>
   <g id="line2d_1">
    <defs>
     <path id="mb95472f722" d="M 3 0 
L -3 -3 
L -3 3 
z
" style="stroke: #000000; stroke-linejoin: miter"/>
    </defs>
    <g>
     <use xlink:href="#mb95472f722" x="312" y="131.176607" style="stroke: #000000; stroke-linejoin: miter"/>
    </g>
   </g>
   <g id="line2d_2">
    <defs>
     <path id="m502972242f" d="M 0 -3 
L -3 3 
L 3 3 
z
" style="stroke: #000000; stroke-linejoin: miter"/>
    </defs>
    <g>
     <use xlink:href="#m502972242f" x="159.6" y="19.213214" style="stroke: #000000; stroke-linejoin: miter"/>
    </g>
   </g>
   <g id="line2d_3">
    <path d="M 7.2 130.928423 
L 15.461978 130.600404 
L 21.565421 130.144984 
L 26.552381 129.558255 
L 30.869451 128.831689 
L 34.739927 127.956206 
L 38.238242 126.940503 
L 41.51326 125.761315 
L 44.639414 124.399992 
L 47.616703 122.865225 
L 50.593993 121.078206 
L 53.571282 119.024479 
L 56.548571 116.696887 
L 59.674725 113.961374 
L 62.949744 110.795509 
L 66.671355 106.881667 
L 71.956044 100.96364 
L 77.761758 94.53388 
L 80.739048 91.563149 
L 83.120879 89.489166 
L 85.130549 88.022412 
L 86.916923 86.986655 
L 88.48 86.322083 
L 89.968645 85.926411 
L 91.308425 85.788916 
L 92.648205 85.876783 
L 93.913553 86.182047 
L 95.178901 86.717194 
L 96.444249 87.495055 
L 97.709597 88.527412 
L 99.049377 89.909554 
L 100.46359 91.702552 
L 101.952234 93.971231 
L 103.515311 96.782656 
L 105.152821 100.203896 
L 106.864762 104.298893 
L 108.725568 109.337273 
L 110.735238 115.433487 
L 112.968205 122.93761 
L 115.573333 132.522669 
L 118.848352 145.494261 
L 126.961465 178.054531 
L 129.268864 186.175216 
L 131.12967 191.957033 
L 132.767179 196.338295 
L 134.181392 199.504215 
L 135.44674 201.796296 
L 136.563223 203.359862 
L 137.530842 204.345946 
L 138.424029 204.93838 
L 139.242784 205.204391 
L 139.987106 205.210374 
L 140.731429 204.987381 
L 141.475751 204.532076 
L 142.294505 203.76005 
L 143.187692 202.591716 
L 144.155311 200.941521 
L 145.197363 198.719729 
L 146.388278 195.624441 
L 147.653626 191.703755 
L 149.067839 186.586143 
L 150.630916 180.088747 
L 152.417289 171.695546 
L 154.575824 160.405099 
L 157.329817 144.69624 
L 165.517363 97.142381 
L 167.675897 86.340878 
L 169.536703 78.142328 
L 171.174212 71.922681 
L 172.588425 67.374011 
L 173.853773 63.9882 
L 175.044689 61.411693 
L 176.08674 59.651115 
L 177.054359 58.431566 
L 177.947546 57.659991 
L 178.7663 57.248926 
L 179.510623 57.117973 
L 180.254945 57.214417 
L 180.999267 57.533726 
L 181.818022 58.135998 
L 182.711209 59.083634 
L 183.678828 60.438958 
L 184.795311 62.406046 
L 186.060659 65.123232 
L 187.474872 68.72017 
L 189.112381 73.53825 
L 190.973187 79.731369 
L 193.280586 88.233416 
L 196.40674 100.67915 
L 204.07326 131.528704 
L 206.752821 141.230489 
L 209.06022 148.794131 
L 211.144322 154.898823 
L 213.07956 159.899343 
L 214.865934 163.920847 
L 216.577875 167.231286 
L 218.140952 169.790633 
L 219.629597 171.823564 
L 221.04381 173.398667 
L 222.38359 174.58144 
L 223.72337 175.475285 
L 224.988718 176.066423 
L 226.254066 176.424575 
L 227.519414 176.563236 
L 228.859194 176.486597 
L 230.273407 176.175307 
L 231.762051 175.614717 
L 233.39956 174.75124 
L 235.185934 173.551813 
L 237.195604 171.932018 
L 239.577436 169.717385 
L 242.554725 166.628252 
L 247.169524 161.474081 
L 253.942857 153.95009 
L 257.738901 150.082775 
L 261.088352 146.987485 
L 264.214505 144.4001 
L 267.266227 142.165554 
L 270.243516 140.259927 
L 273.220806 138.613803 
L 276.272527 137.177546 
L 279.473114 135.919325 
L 282.822564 134.843448 
L 286.395311 133.929616 
L 290.34022 133.154092 
L 294.731722 132.521164 
L 299.867546 132.013567 
L 306.045421 131.634857 
L 312 131.424791 
L 312 131.424791 
" clip-path="url(#p6ddba6c944)" style="fill: none; stroke: #0072b2; stroke-width: 3.5; stroke-linecap: square"/>
   </g>
   <g id="patch_3">
    <path d="M 159.6 243.14 
L 159.6 19.213214 
" style="fill: none; stroke: #000000; stroke-width: 0.8; stroke-linejoin: miter; stroke-linecap: square"/>
   </g>
   <g id="patch_4">
    <path d="M 312 243.14 
L 312 19.213214 
" style="fill: none"/>
   </g>
   <g id="patch_5">
    <path d="M 7.2 131.176607 
L 312 131.176607 
" style="fill: none; stroke: #000000; stroke-width: 0.8; stroke-linejoin: miter; stroke-linecap: square"/>
   </g>
   <g id="patch_6">
    <path d="M 7.2 19.213214 
L 312 19.213214 
" style="fill: none"/>
   </g>
   <g id="legend_1">
    <g id="patch_7">
     <path d="M 25.4 76.251541 
L 127.613249 76.251541 
Q 132.813249 76.251541 132.813249 71.051541 
L 132.813249 37.413214 
Q 132.813249 32.213214 127.613249 32.213214 
L 25.4 32.213214 
Q 20.2 32.213214 20.2 37.413214 
L 20.2 71.051541 
Q 20.2 76.251541 25.4 76.251541 
z
" style="fill: #ffffff; opacity: 0.8; stroke: #cccccc; stroke-linejoin: miter"/>
    </g>
    <g id="line2d_4">
     <path d="M 30.6 51.713214 
L 56.6 51.713214 
L 82.6 51.713214 
" style="fill: none; stroke: #0072b2; stroke-width: 3.5; stroke-linecap: square"/>
    </g>
    <g id="text_3">
     <!-- $A$ -->
     <g transform="translate(103.4 60.813214) scale(0.26 -0.26)">
      <defs>
       <path id="CMMI12-41" d="M 1088 691 
C 864 314 646 186 339 186 
C 269 180 218 180 218 58 
C 218 24 250 0 294 0 
C 410 0 698 0 813 0 
C 998 0 1203 0 1382 0 
C 1421 0 1498 0 1498 122 
C 1498 180 1446 186 1408 186 
C 1261 186 1139 236 1139 388 
C 1139 476 1178 546 1261 685 
L 1747 1479 
L 3379 1479 
C 3386 1423 3386 1373 3392 1316 
C 3411 1152 3488 495 3488 376 
C 3488 186 3162 186 3059 186 
C 2989 186 2918 186 2918 70 
C 2918 0 2976 0 3014 0 
C 3123 0 3251 0 3360 0 
L 3725 0 
C 4115 0 4397 0 4403 0 
C 4448 0 4518 0 4518 122 
C 4518 186 4461 186 4365 186 
C 4013 186 4006 244 3987 434 
L 3597 4404 
C 3584 4531 3558 4544 3488 4544 
C 3424 4544 3386 4531 3328 4435 
L 1088 691 
z
M 1856 1664 
L 3142 3819 
L 3360 1664 
L 1856 1664 
z
" transform="scale(0.015625)"/>
      </defs>
      <use xlink:href="#CMMI12-41" transform="scale(0.996264)"/>
     </g>
    </g>
   </g>
  </g>
  <g id="axes_2">
   <g id="patch_8">
    <path d="M 325.8 243.14 
L 630.6 243.14 
L 630.6 19.213214 
L 325.8 19.213214 
L 325.8 243.14 
z
" style="fill: none"/>
   </g>
   <g id="matplotlib.axis_3">
    <g id="text_4">
     <!-- $x$ -->
     <g transform="translate(616.187145 153.164709) scale(0.26 -0.26)">
      <use xlink:href="#CMMI12-78" transform="scale(0.996264)"/>
     </g>
    </g>
   </g>
   <g id="matplotlib.axis_4">
    <g id="text_5">
     <!-- $y$ -->
     <g transform="translate(461.83332 14.174888) scale(0.26 -0.26)">
      <use xlink:href="#CMMI12-79" transform="scale(0.996264)"/>
     </g>
    </g>
   </g>
   <g id="line2d_5">
    <g>
     <use xlink:href="#mb95472f722" x="630.6" y="131.176607" style="stroke: #000000; stroke-linejoin: miter"/>
    </g>
   </g>
   <g id="line2d_6">
    <g>
     <use xlink:href="#m502972242f" x="478.2" y="19.213214" style="stroke: #000000; stroke-linejoin: miter"/>
    </g>
   </g>
   <g id="line2d_7">
    <path d="M 325.8 131.424791 
L 334.061978 131.752811 
L 340.165421 132.20823 
L 345.152381 132.794959 
L 349.469451 133.521526 
L 353.339927 134.397009 
L 356.838242 135.412711 
L 360.11326 136.591899 
L 363.239414 137.953222 
L 366.216703 139.487989 
L 369.193993 141.275008 
L 372.171282 143.328735 
L 375.148571 145.656327 
L 378.274725 148.39184 
L 381.549744 151.557705 
L 385.271355 155.471548 
L 390.556044 161.389574 
L 396.361758 167.819334 
L 399.339048 170.790066 
L 401.720879 172.864048 
L 403.730549 174.330802 
L 405.516923 175.366559 
L 407.08 176.031131 
L 408.568645 176.426804 
L 409.908425 176.564298 
L 411.248205 176.476432 
L 412.513553 176.171168 
L 413.778901 175.636021 
L 415.044249 174.858159 
L 416.309597 173.825803 
L 417.649377 172.44366 
L 419.06359 170.650662 
L 420.552234 168.381984 
L 422.115311 165.570558 
L 423.752821 162.149318 
L 425.464762 158.054321 
L 427.325568 153.015941 
L 429.335238 146.919727 
L 431.568205 139.415605 
L 434.173333 129.830545 
L 437.448352 116.858953 
L 445.561465 84.298683 
L 447.868864 76.177999 
L 449.72967 70.396181 
L 451.367179 66.014919 
L 452.781392 62.848999 
L 454.04674 60.556918 
L 455.163223 58.993352 
L 456.130842 58.007269 
L 457.024029 57.414835 
L 457.842784 57.148823 
L 458.587106 57.142841 
L 459.331429 57.365833 
L 460.075751 57.821138 
L 460.894505 58.593165 
L 461.787692 59.761498 
L 462.755311 61.411693 
L 463.797363 63.633485 
L 464.988278 66.728773 
L 466.253626 70.649459 
L 467.667839 75.767071 
L 469.230916 82.264467 
L 471.017289 90.657668 
L 473.175824 101.948115 
L 475.929817 117.656975 
L 484.117363 165.210833 
L 486.275897 176.012336 
L 488.136703 184.210886 
L 489.774212 190.430533 
L 491.188425 194.979203 
L 492.453773 198.365014 
L 493.644689 200.941521 
L 494.68674 202.702099 
L 495.654359 203.921648 
L 496.547546 204.693223 
L 497.3663 205.104288 
L 498.110623 205.235241 
L 498.854945 205.138797 
L 499.599267 204.819488 
L 500.418022 204.217217 
L 501.311209 203.26958 
L 502.278828 201.914257 
L 503.395311 199.947168 
L 504.660659 197.229983 
L 506.074872 193.633045 
L 507.712381 188.814965 
L 509.573187 182.621845 
L 511.880586 174.119798 
L 515.00674 161.674064 
L 522.67326 130.824511 
L 525.352821 121.122725 
L 527.66022 113.559083 
L 529.744322 107.454391 
L 531.67956 102.453871 
L 533.465934 98.432368 
L 535.177875 95.121928 
L 536.740952 92.562582 
L 538.229597 90.52965 
L 539.64381 88.954547 
L 540.98359 87.771774 
L 542.32337 86.877929 
L 543.588718 86.286792 
L 544.854066 85.92864 
L 546.119414 85.789978 
L 547.459194 85.866617 
L 548.873407 86.177908 
L 550.362051 86.738497 
L 551.99956 87.601974 
L 553.785934 88.801402 
L 555.795604 90.421197 
L 558.177436 92.63583 
L 561.154725 95.724963 
L 565.769524 100.879133 
L 572.542857 108.403124 
L 576.338901 112.270439 
L 579.688352 115.365729 
L 582.814505 117.953114 
L 585.866227 120.18766 
L 588.843516 122.093288 
L 591.820806 123.739411 
L 594.872527 125.175668 
L 598.073114 126.433889 
L 601.422564 127.509766 
L 604.995311 128.423598 
L 608.94022 129.199122 
L 613.331722 129.83205 
L 618.467546 130.339648 
L 624.645421 130.718357 
L 630.6 130.928423 
L 630.6 130.928423 
" clip-path="url(#p292c843c4a)" style="fill: none; stroke: #0072b2; stroke-width: 3.5; stroke-linecap: square"/>
   </g>
   <g id="patch_9">
    <path d="M 478.2 243.14 
L 478.2 19.213214 
" style="fill: none; stroke: #000000; stroke-width: 0.8; stroke-linejoin: miter; stroke-linecap: square"/>
   </g>
   <g id="patch_10">
    <path d="M 630.6 243.14 
L 630.6 19.213214 
" style="fill: none"/>
   </g>
   <g id="patch_11">
    <path d="M 325.8 131.176607 
L 630.6 131.176607 
" style="fill: none; stroke: #000000; stroke-width: 0.8; stroke-linejoin: miter; stroke-linecap: square"/>
   </g>
   <g id="patch_12">
    <path d="M 325.8 19.213214 
L 630.6 19.213214 
" style="fill: none"/>
   </g>
   <g id="legend_2">
    <g id="patch_13">
     <path d="M 509.931923 76.251541 
L 612.4 76.251541 
Q 617.6 76.251541 617.6 71.051541 
L 617.6 37.413214 
Q 617.6 32.213214 612.4 32.213214 
L 509.931923 32.213214 
Q 504.731923 32.213214 504.731923 37.413214 
L 504.731923 71.051541 
Q 504.731923 76.251541 509.931923 76.251541 
z
" style="fill: #ffffff; opacity: 0.8; stroke: #cccccc; stroke-linejoin: miter"/>
    </g>
    <g id="line2d_8">
     <path d="M 515.131923 51.713214 
L 541.131923 51.713214 
L 567.131923 51.713214 
" style="fill: none; stroke: #0072b2; stroke-width: 3.5; stroke-linecap: square"/>
    </g>
    <g id="text_6">
     <!-- $B$ -->
     <g transform="translate(587.931923 60.813214) scale(0.26 -0.26)">
      <defs>
       <path id="CMMI12-42" d="M 2342 3921 
C 2400 4160 2426 4160 2675 4160 
L 3507 4160 
C 4230 4160 4230 3544 4230 3485 
C 4230 2966 3712 2304 2867 2304 
L 1946 2304 
L 2342 3921 
z
M 3424 2275 
C 4122 2402 4755 2886 4755 3473 
C 4755 3970 4314 4352 3590 4352 
L 1536 4352 
C 1414 4352 1357 4352 1357 4226 
C 1357 4160 1414 4160 1510 4160 
C 1901 4160 1901 4112 1901 4044 
C 1901 4032 1901 3993 1875 3897 
L 1011 472 
C 954 249 941 185 493 185 
C 371 185 307 185 307 70 
C 307 0 346 0 474 0 
L 2669 0 
C 3648 0 4403 739 4403 1383 
C 4403 1906 3942 2224 3424 2275 
z
M 2515 185 
L 1651 185 
C 1562 185 1549 185 1510 192 
C 1440 198 1434 211 1434 261 
C 1434 305 1446 343 1459 399 
L 1907 2176 
L 3110 2176 
C 3866 2176 3866 1483 3866 1433 
C 3866 828 3309 185 2515 185 
z
" transform="scale(0.015625)"/>
      </defs>
      <use xlink:href="#CMMI12-42" transform="scale(0.996264)"/>
     </g>
    </g>
   </g>
  </g>
  <g id="axes_3">
   <g id="patch_14">
    <path d="M 7.2 489.74 
L 312 489.74 
L 312 265.813214 
L 7.2 265.813214 
L 7.2 489.74 
z
" style="fill: none"/>
   </g>
   <g id="matplotlib.axis_5">
    <g id="text_7">
     <!-- $x$ -->
     <g transform="translate(297.587145 399.764709) scale(0.26 -0.26)">
      <use xlink:href="#CMMI12-78" transform="scale(0.996264)"/>
     </g>
    </g>
   </g>
   <g id="matplotlib.axis_6">
    <g id="text_8">
     <!-- $y$ -->
     <g transform="translate(143.23332 260.774888) scale(0.26 -0.26)">
      <use xlink:href="#CMMI12-79" transform="scale(0.996264)"/>
     </g>
    </g>
   </g>
   <g id="line2d_9">
    <g>
     <use xlink:href="#mb95472f722" x="312" y="377.776607" style="stroke: #000000; stroke-linejoin: miter"/>
    </g>
   </g>
   <g id="line2d_10">
    <g>
     <use xlink:href="#m502972242f" x="159.6" y="265.813214" style="stroke: #000000; stroke-linejoin: miter"/>
    </g>
   </g>
   <g id="line2d_11">
    <path d="M 7.2 378.109609 
L 15.238681 378.481196 
L 21.565421 378.990023 
L 26.998974 379.647491 
L 31.83707 380.45306 
L 36.377436 381.431135 
L 40.84337 382.621653 
L 45.383736 384.063013 
L 50.593993 385.96016 
L 63.247473 390.693826 
L 66.299194 391.52035 
L 68.82989 391.986828 
L 71.062857 392.183653 
L 73.14696 392.146651 
L 75.082198 391.89003 
L 76.943004 391.41477 
L 78.729377 390.725197 
L 80.441319 389.831217 
L 82.15326 388.693006 
L 83.939634 387.230234 
L 85.726007 385.474529 
L 87.586813 383.325428 
L 89.522051 380.739982 
L 91.531722 377.680846 
L 93.690256 373.986545 
L 96.072088 369.457628 
L 98.826081 363.71684 
L 102.398828 355.705355 
L 109.246593 340.247719 
L 111.628425 335.486906 
L 113.563663 332.103572 
L 115.201172 329.681024 
L 116.615385 327.976352 
L 117.880733 326.797629 
L 118.997216 326.057479 
L 119.964835 325.661455 
L 120.932454 325.507759 
L 121.825641 325.592064 
L 122.718828 325.903067 
L 123.612015 326.449191 
L 124.579634 327.31476 
L 125.621685 328.574403 
L 126.738168 330.309472 
L 127.929084 332.606663 
L 129.194432 335.555754 
L 130.534212 339.246247 
L 132.022857 344.017611 
L 133.660366 350.046574 
L 135.44674 357.485634 
L 137.530842 367.155708 
L 140.061538 380.008363 
L 145.048498 406.849404 
L 148.025788 422.1362 
L 150.10989 431.731735 
L 151.821832 438.61939 
L 153.310476 443.71675 
L 154.575824 447.309089 
L 155.692308 449.864492 
L 156.659927 451.586887 
L 157.553114 452.755858 
L 158.371868 453.463905 
L 159.041758 453.78095 
L 159.711648 453.860314 
L 160.381538 453.701628 
L 161.051429 453.305627 
L 161.795751 452.589562 
L 162.614505 451.471061 
L 163.507692 449.864492 
L 164.549744 447.497813 
L 165.740659 444.176098 
L 167.08044 439.709517 
L 168.569084 433.933836 
L 170.355458 426.043111 
L 172.513993 415.431669 
L 175.714579 398.427968 
L 180.775971 371.574448 
L 183.232234 359.810238 
L 185.241905 351.226355 
L 187.028278 344.532607 
L 188.665788 339.246247 
L 190.154432 335.18164 
L 191.494212 332.140631 
L 192.75956 329.807394 
L 193.876044 328.179372 
L 194.918095 327.0176 
L 195.885714 326.240545 
L 196.853333 325.745371 
L 197.74652 325.529902 
L 198.639707 325.537357 
L 199.532894 325.758118 
L 200.500513 326.225987 
L 201.542564 326.98025 
L 202.73348 328.137296 
L 204.07326 329.781196 
L 205.561905 331.984018 
L 207.273846 334.934356 
L 209.283516 338.854069 
L 211.888645 344.454627 
L 216.503443 355.020842 
L 220.820513 364.679275 
L 223.72337 370.631278 
L 226.179634 375.176766 
L 228.412601 378.857678 
L 230.496703 381.877385 
L 232.506374 384.398139 
L 234.367179 386.389612 
L 236.227985 388.058238 
L 238.014359 389.367209 
L 239.800733 390.403498 
L 241.587106 391.1841 
L 243.37348 391.728216 
L 245.234286 392.065918 
L 247.169524 392.195206 
L 249.253626 392.113256 
L 251.561026 391.796146 
L 254.166154 391.207747 
L 257.292308 390.262495 
L 261.460513 388.750408 
L 275.081612 383.639077 
L 279.69641 382.240302 
L 284.162344 381.118703 
L 288.702711 380.206835 
L 293.540806 379.463063 
L 298.899927 378.868668 
L 305.077802 378.414012 
L 312 378.109609 
L 312 378.109609 
" clip-path="url(#pc714e44e08)" style="fill: none; stroke: #0072b2; stroke-width: 3.5; stroke-linecap: square"/>
   </g>
   <g id="patch_15">
    <path d="M 159.6 489.74 
L 159.6 265.813214 
" style="fill: none; stroke: #000000; stroke-width: 0.8; stroke-linejoin: miter; stroke-linecap: square"/>
   </g>
   <g id="patch_16">
    <path d="M 312 489.74 
L 312 265.813214 
" style="fill: none"/>
   </g>
   <g id="patch_17">
    <path d="M 7.2 377.776607 
L 312 377.776607 
" style="fill: none; stroke: #000000; stroke-width: 0.8; stroke-linejoin: miter; stroke-linecap: square"/>
   </g>
   <g id="patch_18">
    <path d="M 7.2 265.813214 
L 312 265.813214 
" style="fill: none"/>
   </g>
   <g id="legend_3">
    <g id="patch_19">
     <path d="M 192.454073 322.851541 
L 293.8 322.851541 
Q 299 322.851541 299 317.651541 
L 299 284.013214 
Q 299 278.813214 293.8 278.813214 
L 192.454073 278.813214 
Q 187.254073 278.813214 187.254073 284.013214 
L 187.254073 317.651541 
Q 187.254073 322.851541 192.454073 322.851541 
z
" style="fill: #ffffff; opacity: 0.8; stroke: #cccccc; stroke-linejoin: miter"/>
    </g>
    <g id="line2d_12">
     <path d="M 197.654073 298.313214 
L 223.654073 298.313214 
L 249.654073 298.313214 
" style="fill: none; stroke: #0072b2; stroke-width: 3.5; stroke-linecap: square"/>
    </g>
    <g id="text_9">
     <!-- $C$ -->
     <g transform="translate(270.454073 307.413214) scale(0.26 -0.26)">
      <defs>
       <path id="CMMI12-43" d="M 4781 4423 
C 4781 4480 4736 4480 4723 4480 
C 4710 4480 4685 4480 4634 4416 
L 4192 3882 
C 3968 4264 3616 4480 3136 4480 
C 1754 4480 320 3088 320 1595 
C 320 533 1069 -128 2003 -128 
C 2515 -128 2963 88 3334 400 
C 3891 863 4058 1481 4058 1531 
C 4058 1588 4006 1588 3987 1588 
C 3930 1588 3923 1550 3910 1524 
C 3616 534 2752 57 2112 57 
C 1434 57 845 489 845 1391 
C 845 1595 909 2700 1632 3532 
C 1984 3939 2586 4295 3194 4295 
C 3898 4295 4211 3717 4211 3068 
C 4211 2903 4192 2764 4192 2738 
C 4192 2681 4256 2681 4275 2681 
C 4346 2681 4352 2687 4378 2801 
L 4781 4423 
z
" transform="scale(0.015625)"/>
      </defs>
      <use xlink:href="#CMMI12-43" transform="scale(0.996264)"/>
     </g>
    </g>
   </g>
  </g>
  <g id="axes_4">
   <g id="patch_20">
    <path d="M 325.8 489.74 
L 630.6 489.74 
L 630.6 265.813214 
L 325.8 265.813214 
L 325.8 489.74 
z
" style="fill: none"/>
   </g>
   <g id="matplotlib.axis_7">
    <g id="text_10">
     <!-- $x$ -->
     <g transform="translate(616.187145 399.764709) scale(0.26 -0.26)">
      <use xlink:href="#CMMI12-78" transform="scale(0.996264)"/>
     </g>
    </g>
   </g>
   <g id="matplotlib.axis_8">
    <g id="text_11">
     <!-- $y$ -->
     <g transform="translate(461.83332 260.774888) scale(0.26 -0.26)">
      <use xlink:href="#CMMI12-79" transform="scale(0.996264)"/>
     </g>
    </g>
   </g>
   <g id="line2d_13">
    <g>
     <use xlink:href="#mb95472f722" x="630.6" y="377.776607" style="stroke: #000000; stroke-linejoin: miter"/>
    </g>
   </g>
   <g id="line2d_14">
    <g>
     <use xlink:href="#m502972242f" x="478.2" y="265.813214" style="stroke: #000000; stroke-linejoin: miter"/>
    </g>
   </g>
   <g id="line2d_15">
    <path d="M 325.8 377.443605 
L 333.838681 377.072018 
L 340.165421 376.563192 
L 345.598974 375.905723 
L 350.43707 375.100154 
L 354.977436 374.122079 
L 359.44337 372.931562 
L 363.983736 371.490202 
L 369.193993 369.593054 
L 381.847473 364.859388 
L 384.899194 364.032864 
L 387.42989 363.566386 
L 389.662857 363.369561 
L 391.74696 363.406563 
L 393.682198 363.663184 
L 395.543004 364.138445 
L 397.329377 364.828018 
L 399.041319 365.721997 
L 400.75326 366.860208 
L 402.539634 368.32298 
L 404.326007 370.078685 
L 406.186813 372.227786 
L 408.122051 374.813232 
L 410.131722 377.872368 
L 412.290256 381.566669 
L 414.672088 386.095586 
L 417.426081 391.836374 
L 420.998828 399.847859 
L 427.846593 415.305496 
L 430.228425 420.066309 
L 432.163663 423.449642 
L 433.801172 425.872191 
L 435.215385 427.576863 
L 436.480733 428.755585 
L 437.597216 429.495736 
L 438.564835 429.89176 
L 439.532454 430.045455 
L 440.425641 429.96115 
L 441.318828 429.650147 
L 442.212015 429.104023 
L 443.179634 428.238454 
L 444.221685 426.978811 
L 445.338168 425.243742 
L 446.529084 422.946551 
L 447.794432 419.99746 
L 449.134212 416.306967 
L 450.622857 411.535603 
L 452.260366 405.50664 
L 454.04674 398.06758 
L 456.130842 388.397506 
L 458.661538 375.544851 
L 463.648498 348.703811 
L 466.625788 333.417015 
L 468.70989 323.82148 
L 470.421832 316.933824 
L 471.910476 311.836465 
L 473.175824 308.244126 
L 474.292308 305.688722 
L 475.259927 303.966328 
L 476.153114 302.797356 
L 476.971868 302.089309 
L 477.641758 301.772264 
L 478.311648 301.692901 
L 478.981538 301.851587 
L 479.651429 302.247587 
L 480.395751 302.963653 
L 481.214505 304.082153 
L 482.107692 305.688722 
L 483.149744 308.055402 
L 484.340659 311.377116 
L 485.68044 315.843697 
L 487.169084 321.619378 
L 488.955458 329.510103 
L 491.113993 340.121546 
L 494.314579 357.125246 
L 499.375971 383.978766 
L 501.832234 395.742977 
L 503.841905 404.32686 
L 505.628278 411.020607 
L 507.265788 416.306967 
L 508.754432 420.371575 
L 510.094212 423.412584 
L 511.35956 425.745821 
L 512.476044 427.373842 
L 513.518095 428.535614 
L 514.485714 429.31267 
L 515.453333 429.807843 
L 516.34652 430.023312 
L 517.239707 430.015857 
L 518.132894 429.795097 
L 519.100513 429.327227 
L 520.142564 428.572964 
L 521.33348 427.415918 
L 522.67326 425.772019 
L 524.161905 423.569196 
L 525.873846 420.618858 
L 527.883516 416.699146 
L 530.488645 411.098588 
L 535.103443 400.532373 
L 539.420513 390.873939 
L 542.32337 384.921937 
L 544.779634 380.376449 
L 547.012601 376.695537 
L 549.096703 373.675829 
L 551.106374 371.155075 
L 552.967179 369.163602 
L 554.827985 367.494976 
L 556.614359 366.186005 
L 558.400733 365.149717 
L 560.187106 364.369114 
L 561.97348 363.824998 
L 563.834286 363.487296 
L 565.769524 363.358008 
L 567.853626 363.439959 
L 570.161026 363.757068 
L 572.766154 364.345467 
L 575.892308 365.290719 
L 580.060513 366.802807 
L 593.681612 371.914137 
L 598.29641 373.312912 
L 602.762344 374.434512 
L 607.302711 375.346379 
L 612.140806 376.090151 
L 617.499927 376.684546 
L 623.677802 377.139203 
L 630.6 377.443605 
L 630.6 377.443605 
" clip-path="url(#p47840ffea1)" style="fill: none; stroke: #0072b2; stroke-width: 3.5; stroke-linecap: square"/>
   </g>
   <g id="patch_21">
    <path d="M 478.2 489.74 
L 478.2 265.813214 
" style="fill: none; stroke: #000000; stroke-width: 0.8; stroke-linejoin: miter; stroke-linecap: square"/>
   </g>
   <g id="patch_22">
    <path d="M 630.6 489.74 
L 630.6 265.813214 
" style="fill: none"/>
   </g>
   <g id="patch_23">
    <path d="M 325.8 377.776607 
L 630.6 377.776607 
" style="fill: none; stroke: #000000; stroke-width: 0.8; stroke-linejoin: miter; stroke-linecap: square"/>
   </g>
   <g id="patch_24">
    <path d="M 325.8 265.813214 
L 630.6 265.813214 
" style="fill: none"/>
   </g>
   <g id="legend_4">
    <g id="patch_25">
     <path d="M 508.141503 322.851541 
L 612.4 322.851541 
Q 617.6 322.851541 617.6 317.651541 
L 617.6 284.013214 
Q 617.6 278.813214 612.4 278.813214 
L 508.141503 278.813214 
Q 502.941503 278.813214 502.941503 284.013214 
L 502.941503 317.651541 
Q 502.941503 322.851541 508.141503 322.851541 
z
" style="fill: #ffffff; opacity: 0.8; stroke: #cccccc; stroke-linejoin: miter"/>
    </g>
    <g id="line2d_16">
     <path d="M 513.341503 298.313214 
L 539.341503 298.313214 
L 565.341503 298.313214 
" style="fill: none; stroke: #0072b2; stroke-width: 3.5; stroke-linecap: square"/>
    </g>
    <g id="text_12">
     <!-- $D$ -->
     <g transform="translate(586.141503 307.413214) scale(0.26 -0.26)">
      <defs>
       <path id="CMMI12-44" d="M 1005 472 
C 947 249 934 185 486 185 
C 365 185 301 185 301 70 
C 301 0 339 0 467 0 
L 2496 0 
C 3789 0 5050 1332 5050 2753 
C 5050 3671 4499 4352 3584 4352 
L 1530 4352 
C 1408 4352 1350 4352 1350 4231 
C 1350 4167 1408 4167 1504 4167 
C 1894 4167 1894 4116 1894 4046 
C 1894 4034 1894 3995 1869 3899 
L 1005 472 
z
M 2355 3931 
C 2413 4167 2438 4167 2688 4167 
L 3392 4167 
C 3994 4167 4544 3842 4544 2963 
C 4544 2644 4416 1536 3795 835 
C 3616 625 3130 185 2394 185 
L 1664 185 
C 1574 185 1562 185 1523 192 
C 1453 198 1446 211 1446 262 
C 1446 307 1459 345 1472 402 
L 2355 3931 
z
" transform="scale(0.015625)"/>
      </defs>
      <use xlink:href="#CMMI12-44" transform="scale(0.996264)"/>
     </g>
    </g>
   </g>
  </g>
 </g>
 <defs>
  <clipPath id="p6ddba6c944">
   <rect x="7.2" y="19.213214" width="304.8" height="223.926786"/>
  </clipPath>
  <clipPath id="p292c843c4a">
   <rect x="325.8" y="19.213214" width="304.8" height="223.926786"/>
  </clipPath>
  <clipPath id="pc714e44e08">
   <rect x="7.2" y="265.813214" width="304.8" height="223.926786"/>
  </clipPath>
  <clipPath id="p47840ffea1">
   <rect x="325.8" y="265.813214" width="304.8" height="223.926786"/>
  </clipPath>
 </defs>
</svg>
