<?xml version="1.0" encoding="utf-8" standalone="no"?>
<!DOCTYPE svg PUBLIC "-//W3C//DTD SVG 1.1//EN"
  "http://www.w3.org/Graphics/SVG/1.1/DTD/svg11.dtd">
<svg xmlns:xlink="http://www.w3.org/1999/xlink" width="964.8pt" height="244.94pt" viewBox="0 0 964.8 244.94" xmlns="http://www.w3.org/2000/svg" version="1.1">
 <metadata>
  <rdf:RDF xmlns:dc="http://purl.org/dc/elements/1.1/" xmlns:cc="http://creativecommons.org/ns#" xmlns:rdf="http://www.w3.org/1999/02/22-rdf-syntax-ns#">
   <cc:Work>
    <dc:type rdf:resource="http://purl.org/dc/dcmitype/StillImage"/>
    <dc:date>2025-11-24T22:55:00.813515</dc:date>
    <dc:format>image/svg+xml</dc:format>
    <dc:creator>
     <cc:Agent>
      <dc:title>Matplotlib v3.9.1, https://matplotlib.org/</dc:title>
     </cc:Agent>
    </dc:creator>
   </cc:Work>
  </rdf:RDF>
 </metadata>
 <defs>
  <style type="text/css">*{stroke-linejoin: round; stroke-linecap: butt}</style>
 </defs>
 <g id="figure_1">
  <g id="patch_1">
   <path d="M 0 244.94 
L 964.8 244.94 
L 964.8 0 
L 0 0 
L 0 244.94 
z
" style="fill: none"/>
  </g>
  <g id="axes_1">
   <g id="patch_2">
    <path d="M 7.2 237.74 
L 313.8 237.74 
L 313.8 16.556315 
L 7.2 16.556315 
L 7.2 237.74 
z
" style="fill: none"/>
   </g>
   <g id="matplotlib.axis_1">
    <g id="text_1">
     <!-- $x$ -->
     <g transform="translate(302.713188 144.985154) scale(0.2 -0.2)">
      <defs>
       <path id="CMMI12-78" d="M 3034 2606 
C 2829 2567 2752 2414 2752 2293 
C 2752 2139 2874 2088 2963 2088 
C 3155 2088 3290 2254 3290 2427 
C 3290 2695 2982 2816 2714 2816 
C 2323 2816 2106 2433 2048 2312 
C 1901 2816 1504 2816 1389 2816 
C 736 2816 390 1980 390 1839 
C 390 1814 416 1782 461 1782 
C 512 1782 525 1820 538 1846 
C 755 2555 1184 2689 1370 2689 
C 1658 2689 1715 2420 1715 2267 
C 1715 2127 1677 1980 1600 1673 
L 1382 798 
C 1286 415 1101 64 762 64 
C 730 64 570 64 435 147 
C 666 192 717 383 717 460 
C 717 588 621 664 499 664 
C 346 664 179 530 179 326 
C 179 57 480 -64 755 -64 
C 1062 -64 1280 179 1414 441 
C 1517 64 1837 -64 2074 -64 
C 2726 -64 3072 773 3072 913 
C 3072 945 3046 971 3008 971 
C 2950 971 2944 939 2925 888 
C 2752 326 2381 64 2093 64 
C 1869 64 1747 230 1747 492 
C 1747 632 1773 734 1875 1156 
L 2099 2024 
C 2195 2408 2413 2689 2707 2689 
C 2720 2689 2899 2689 3034 2606 
z
" transform="scale(0.015625)"/>
      </defs>
      <use xlink:href="#CMMI12-78" transform="scale(0.996264)"/>
     </g>
    </g>
   </g>
   <g id="matplotlib.axis_2">
    <g id="text_2">
     <!-- $y$ -->
     <g transform="translate(44.787165 12.680682) scale(0.2 -0.2)">
      <defs>
       <path id="CMMI12-79" d="M 1683 -700 
C 1510 -939 1261 -1152 947 -1152 
C 870 -1152 563 -1152 467 -889 
C 486 -895 518 -895 531 -895 
C 723 -895 851 -729 851 -582 
C 851 -435 730 -384 634 -384 
C 531 -384 307 -458 307 -759 
C 307 -1071 582 -1286 947 -1286 
C 1587 -1286 2234 -700 2413 6 
L 3040 2485 
C 3046 2517 3059 2556 3059 2594 
C 3059 2689 2982 2753 2886 2753 
C 2829 2753 2694 2727 2643 2535 
L 2170 658 
C 2138 543 2138 530 2086 460 
C 1958 281 1747 64 1440 64 
C 1082 64 1050 415 1050 588 
C 1050 952 1222 1443 1395 1903 
C 1466 2088 1504 2178 1504 2305 
C 1504 2574 1312 2816 998 2816 
C 410 2816 173 1890 173 1839 
C 173 1814 198 1782 243 1782 
C 301 1782 307 1807 333 1897 
C 486 2433 730 2689 979 2689 
C 1037 2689 1146 2689 1146 2478 
C 1146 2312 1075 2127 979 1884 
C 666 1047 666 837 666 683 
C 666 77 1101 -64 1421 -64 
C 1606 -64 1837 -6 2061 230 
L 2067 224 
C 1971 -147 1907 -392 1683 -700 
z
" transform="scale(0.015625)"/>
      </defs>
      <use xlink:href="#CMMI12-79" transform="scale(0.996264)"/>
     </g>
    </g>
   </g>
   <g id="line2d_1">
    <defs>
     <path id="m918e65eda3" d="M 3 0 
L -3 -3 
L -3 3 
z
" style="stroke: #000000; stroke-linejoin: miter"/>
    </defs>
    <g>
     <use xlink:href="#m918e65eda3" x="313.8" y="127.148158" style="stroke: #000000; stroke-linejoin: miter"/>
    </g>
   </g>
   <g id="line2d_2">
    <defs>
     <path id="m294021697a" d="M 0 -3 
L -3 3 
L 3 3 
z
" style="stroke: #000000; stroke-linejoin: miter"/>
    </defs>
    <g>
     <use xlink:href="#m294021697a" x="58.3" y="16.556315" style="stroke: #000000; stroke-linejoin: miter"/>
    </g>
   </g>
   <g id="line2d_3">
    <path d="M 27.977035 245.94 
L 30.634872 230.034662 
L 33.330256 215.239244 
L 36.025641 201.692598 
L 38.646154 189.634641 
L 41.266667 178.595941 
L 43.887179 168.504725 
L 46.507692 159.293851 
L 49.128205 150.90052 
L 51.673846 143.474121 
L 54.219487 136.713419 
L 56.765128 130.571253 
L 59.310769 125.003471 
L 61.85641 119.968753 
L 64.402051 115.428437 
L 66.947692 111.346362 
L 69.493333 107.688712 
L 72.038974 104.423877 
L 74.584615 101.522315 
L 77.130256 98.956429 
L 79.675897 96.700447 
L 82.29641 94.676455 
L 84.916923 92.930907 
L 87.612308 91.401994 
L 90.382564 90.088251 
L 93.227692 88.986727 
L 96.147692 88.093095 
L 99.217436 87.387198 
L 102.436923 86.877534 
L 105.806154 86.569155 
L 109.4 86.463692 
L 113.293333 86.575949 
L 117.486154 86.922393 
L 122.128205 87.534547 
L 127.294359 88.445687 
L 133.209231 89.720689 
L 140.322051 91.492004 
L 149.531282 94.029007 
L 169.746667 99.908999 
L 183.747692 103.835286 
L 195.128205 106.797111 
L 205.76 109.335586 
L 216.167179 111.592279 
L 226.574359 113.62211 
L 237.206154 115.468784 
L 248.212308 117.1526 
L 259.667692 118.678119 
L 271.722051 120.05751 
L 284.6 121.304529 
L 298.451282 122.419236 
L 313.575385 123.409224 
L 313.8 123.422348 
L 313.8 123.422348 
" clip-path="url(#pa61f40494d)" style="fill: none; stroke: #0072b2; stroke-width: 2.5; stroke-linecap: square"/>
   </g>
   <g id="patch_3">
    <path d="M 58.3 237.74 
L 58.3 16.556315 
" style="fill: none; stroke: #000000; stroke-width: 0.8; stroke-linejoin: miter; stroke-linecap: square"/>
   </g>
   <g id="patch_4">
    <path d="M 313.8 237.74 
L 313.8 16.556315 
" style="fill: none"/>
   </g>
   <g id="patch_5">
    <path d="M 7.2 127.148158 
L 313.8 127.148158 
" style="fill: none; stroke: #000000; stroke-width: 0.8; stroke-linejoin: miter; stroke-linecap: square"/>
   </g>
   <g id="patch_6">
    <path d="M 7.2 16.556315 
L 313.8 16.556315 
" style="fill: none"/>
   </g>
   <g id="legend_1">
    <g id="patch_7">
     <path d="M 221.174426 60.431949 
L 299.8 60.431949 
Q 303.8 60.431949 303.8 56.431949 
L 303.8 30.556315 
Q 303.8 26.556315 299.8 26.556315 
L 221.174426 26.556315 
Q 217.174426 26.556315 217.174426 30.556315 
L 217.174426 56.431949 
Q 217.174426 60.431949 221.174426 60.431949 
z
" style="fill: #ffffff; opacity: 0.8; stroke: #cccccc; stroke-linejoin: miter"/>
    </g>
    <g id="line2d_4">
     <path d="M 225.174426 41.556315 
L 245.174426 41.556315 
L 265.174426 41.556315 
" style="fill: none; stroke: #0072b2; stroke-width: 2.5; stroke-linecap: square"/>
    </g>
    <g id="text_3">
     <!-- $A$ -->
     <g transform="translate(281.174426 48.556315) scale(0.2 -0.2)">
      <defs>
       <path id="CMMI12-41" d="M 1088 691 
C 864 314 646 186 339 186 
C 269 180 218 180 218 58 
C 218 24 250 0 294 0 
C 410 0 698 0 813 0 
C 998 0 1203 0 1382 0 
C 1421 0 1498 0 1498 122 
C 1498 180 1446 186 1408 186 
C 1261 186 1139 236 1139 388 
C 1139 476 1178 546 1261 685 
L 1747 1479 
L 3379 1479 
C 3386 1423 3386 1373 3392 1316 
C 3411 1152 3488 495 3488 376 
C 3488 186 3162 186 3059 186 
C 2989 186 2918 186 2918 70 
C 2918 0 2976 0 3014 0 
C 3123 0 3251 0 3360 0 
L 3725 0 
C 4115 0 4397 0 4403 0 
C 4448 0 4518 0 4518 122 
C 4518 186 4461 186 4365 186 
C 4013 186 4006 244 3987 434 
L 3597 4404 
C 3584 4531 3558 4544 3488 4544 
C 3424 4544 3386 4531 3328 4435 
L 1088 691 
z
M 1856 1664 
L 3142 3819 
L 3360 1664 
L 1856 1664 
z
" transform="scale(0.015625)"/>
      </defs>
      <use xlink:href="#CMMI12-41" transform="scale(0.996264)"/>
     </g>
    </g>
   </g>
  </g>
  <g id="axes_2">
   <g id="patch_8">
    <path d="M 327.6 237.74 
L 634.2 237.74 
L 634.2 16.556315 
L 327.6 16.556315 
L 327.6 237.74 
z
" style="fill: none"/>
   </g>
   <g id="matplotlib.axis_3">
    <g id="text_4">
     <!-- $x$ -->
     <g transform="translate(623.113188 144.985154) scale(0.2 -0.2)">
      <use xlink:href="#CMMI12-78" transform="scale(0.996264)"/>
     </g>
    </g>
   </g>
   <g id="matplotlib.axis_4">
    <g id="text_5">
     <!-- $y$ -->
     <g transform="translate(365.187165 12.680682) scale(0.2 -0.2)">
      <use xlink:href="#CMMI12-79" transform="scale(0.996264)"/>
     </g>
    </g>
   </g>
   <g id="line2d_5">
    <g>
     <use xlink:href="#m918e65eda3" x="634.2" y="127.148158" style="stroke: #000000; stroke-linejoin: miter"/>
    </g>
   </g>
   <g id="line2d_6">
    <g>
     <use xlink:href="#m294021697a" x="378.7" y="16.556315" style="stroke: #000000; stroke-linejoin: miter"/>
    </g>
   </g>
   <g id="line2d_7">
    <path d="M 399.092118 245.94 
L 401.947692 235.562539 
L 404.867692 225.754173 
L 407.787692 216.700903 
L 410.707692 208.349107 
L 413.627692 200.648791 
L 416.547692 193.553352 
L 419.542564 186.858832 
L 422.537436 180.711292 
L 425.532308 175.070152 
L 428.527179 169.89768 
L 431.522051 165.158798 
L 434.591795 160.717328 
L 437.661538 156.664559 
L 440.806154 152.884397 
L 443.950769 149.450319 
L 447.170256 146.263956 
L 450.464615 143.320008 
L 453.833846 140.612113 
L 457.277949 138.132969 
L 460.796923 135.874456 
L 464.465641 133.787731 
L 468.209231 131.913114 
L 472.102564 130.208979 
L 476.220513 128.650199 
L 480.563077 127.247494 
L 485.130256 126.007573 
L 489.996923 124.918214 
L 495.237949 123.976084 
L 500.928205 123.184124 
L 507.142564 122.548916 
L 514.030769 122.073939 
L 521.742564 121.769068 
L 530.652308 121.644063 
L 541.358974 121.723924 
L 555.135385 122.061833 
L 576.473846 122.835168 
L 625.290256 124.641524 
L 634.2 124.912672 
L 634.2 124.912672 
" clip-path="url(#pb516cccf37)" style="fill: none; stroke: #0072b2; stroke-width: 2.5; stroke-linecap: square"/>
   </g>
   <g id="patch_9">
    <path d="M 378.7 237.74 
L 378.7 16.556315 
" style="fill: none; stroke: #000000; stroke-width: 0.8; stroke-linejoin: miter; stroke-linecap: square"/>
   </g>
   <g id="patch_10">
    <path d="M 634.2 237.74 
L 634.2 16.556315 
" style="fill: none"/>
   </g>
   <g id="patch_11">
    <path d="M 327.6 127.148158 
L 634.2 127.148158 
" style="fill: none; stroke: #000000; stroke-width: 0.8; stroke-linejoin: miter; stroke-linecap: square"/>
   </g>
   <g id="patch_12">
    <path d="M 327.6 16.556315 
L 634.2 16.556315 
" style="fill: none"/>
   </g>
   <g id="legend_2">
    <g id="patch_13">
     <path d="M 541.378399 60.431949 
L 620.2 60.431949 
Q 624.2 60.431949 624.2 56.431949 
L 624.2 30.556315 
Q 624.2 26.556315 620.2 26.556315 
L 541.378399 26.556315 
Q 537.378399 26.556315 537.378399 30.556315 
L 537.378399 56.431949 
Q 537.378399 60.431949 541.378399 60.431949 
z
" style="fill: #ffffff; opacity: 0.8; stroke: #cccccc; stroke-linejoin: miter"/>
    </g>
    <g id="line2d_8">
     <path d="M 545.378399 41.556315 
L 565.378399 41.556315 
L 585.378399 41.556315 
" style="fill: none; stroke: #0072b2; stroke-width: 2.5; stroke-linecap: square"/>
    </g>
    <g id="text_6">
     <!-- $B$ -->
     <g transform="translate(601.378399 48.556315) scale(0.2 -0.2)">
      <defs>
       <path id="CMMI12-42" d="M 2342 3921 
C 2400 4160 2426 4160 2675 4160 
L 3507 4160 
C 4230 4160 4230 3544 4230 3485 
C 4230 2966 3712 2304 2867 2304 
L 1946 2304 
L 2342 3921 
z
M 3424 2275 
C 4122 2402 4755 2886 4755 3473 
C 4755 3970 4314 4352 3590 4352 
L 1536 4352 
C 1414 4352 1357 4352 1357 4226 
C 1357 4160 1414 4160 1510 4160 
C 1901 4160 1901 4112 1901 4044 
C 1901 4032 1901 3993 1875 3897 
L 1011 472 
C 954 249 941 185 493 185 
C 371 185 307 185 307 70 
C 307 0 346 0 474 0 
L 2669 0 
C 3648 0 4403 739 4403 1383 
C 4403 1906 3942 2224 3424 2275 
z
M 2515 185 
L 1651 185 
C 1562 185 1549 185 1510 192 
C 1440 198 1434 211 1434 261 
C 1434 305 1446 343 1459 399 
L 1907 2176 
L 3110 2176 
C 3866 2176 3866 1483 3866 1433 
C 3866 828 3309 185 2515 185 
z
" transform="scale(0.015625)"/>
      </defs>
      <use xlink:href="#CMMI12-42" transform="scale(0.996264)"/>
     </g>
    </g>
   </g>
  </g>
  <g id="axes_3">
   <g id="patch_14">
    <path d="M 648 237.74 
L 954.6 237.74 
L 954.6 16.556315 
L 648 16.556315 
L 648 237.74 
z
" style="fill: none"/>
   </g>
   <g id="matplotlib.axis_5">
    <g id="text_7">
     <!-- $x$ -->
     <g transform="translate(943.513188 144.985154) scale(0.2 -0.2)">
      <use xlink:href="#CMMI12-78" transform="scale(0.996264)"/>
     </g>
    </g>
   </g>
   <g id="matplotlib.axis_6">
    <g id="text_8">
     <!-- $y$ -->
     <g transform="translate(685.587165 12.680682) scale(0.2 -0.2)">
      <use xlink:href="#CMMI12-79" transform="scale(0.996264)"/>
     </g>
    </g>
   </g>
   <g id="line2d_9">
    <g>
     <use xlink:href="#m918e65eda3" x="954.6" y="127.148158" style="stroke: #000000; stroke-linejoin: miter"/>
    </g>
   </g>
   <g id="line2d_10">
    <g>
     <use xlink:href="#m294021697a" x="699.1" y="16.556315" style="stroke: #000000; stroke-linejoin: miter"/>
    </g>
   </g>
   <g id="line2d_11">
    <path d="M 719.492118 245.94 
L 722.347692 235.562539 
L 725.267692 225.754173 
L 728.187692 216.700903 
L 731.107692 208.349107 
L 734.027692 200.648791 
L 736.947692 193.553352 
L 739.942564 186.858832 
L 742.937436 180.711292 
L 745.932308 175.070152 
L 748.927179 169.89768 
L 751.922051 165.158798 
L 754.991795 160.717328 
L 758.061538 156.664559 
L 761.206154 152.884397 
L 764.350769 149.450319 
L 767.570256 146.263956 
L 770.864615 143.320008 
L 774.233846 140.612113 
L 777.677949 138.132969 
L 781.196923 135.874456 
L 784.865641 133.787731 
L 788.609231 131.913114 
L 792.502564 130.208979 
L 796.620513 128.650199 
L 800.963077 127.247494 
L 805.530256 126.007573 
L 810.396923 124.918214 
L 815.637949 123.976084 
L 821.328205 123.184124 
L 827.542564 122.548916 
L 834.430769 122.073939 
L 842.142564 121.769068 
L 851.052308 121.644063 
L 861.758974 121.723924 
L 875.535385 122.061833 
L 896.873846 122.835168 
L 945.690256 124.641524 
L 954.6 124.912672 
L 954.6 124.912672 
" clip-path="url(#pd09782b198)" style="fill: none; stroke: #0072b2; stroke-width: 2.5; stroke-linecap: square"/>
   </g>
   <g id="patch_15">
    <path d="M 699.1 237.74 
L 699.1 16.556315 
" style="fill: none; stroke: #000000; stroke-width: 0.8; stroke-linejoin: miter; stroke-linecap: square"/>
   </g>
   <g id="patch_16">
    <path d="M 954.6 237.74 
L 954.6 16.556315 
" style="fill: none"/>
   </g>
   <g id="patch_17">
    <path d="M 648 127.148158 
L 954.6 127.148158 
" style="fill: none; stroke: #000000; stroke-width: 0.8; stroke-linejoin: miter; stroke-linecap: square"/>
   </g>
   <g id="patch_18">
    <path d="M 648 16.556315 
L 954.6 16.556315 
" style="fill: none"/>
   </g>
   <g id="legend_3">
    <g id="patch_19">
     <path d="M 862.641602 60.431949 
L 940.6 60.431949 
Q 944.6 60.431949 944.6 56.431949 
L 944.6 30.556315 
Q 944.6 26.556315 940.6 26.556315 
L 862.641602 26.556315 
Q 858.641602 26.556315 858.641602 30.556315 
L 858.641602 56.431949 
Q 858.641602 60.431949 862.641602 60.431949 
z
" style="fill: #ffffff; opacity: 0.8; stroke: #cccccc; stroke-linejoin: miter"/>
    </g>
    <g id="line2d_12">
     <path d="M 866.641602 41.556315 
L 886.641602 41.556315 
L 906.641602 41.556315 
" style="fill: none; stroke: #0072b2; stroke-width: 2.5; stroke-linecap: square"/>
    </g>
    <g id="text_9">
     <!-- $C$ -->
     <g transform="translate(922.641602 48.556315) scale(0.2 -0.2)">
      <defs>
       <path id="CMMI12-43" d="M 4781 4423 
C 4781 4480 4736 4480 4723 4480 
C 4710 4480 4685 4480 4634 4416 
L 4192 3882 
C 3968 4264 3616 4480 3136 4480 
C 1754 4480 320 3088 320 1595 
C 320 533 1069 -128 2003 -128 
C 2515 -128 2963 88 3334 400 
C 3891 863 4058 1481 4058 1531 
C 4058 1588 4006 1588 3987 1588 
C 3930 1588 3923 1550 3910 1524 
C 3616 534 2752 57 2112 57 
C 1434 57 845 489 845 1391 
C 845 1595 909 2700 1632 3532 
C 1984 3939 2586 4295 3194 4295 
C 3898 4295 4211 3717 4211 3068 
C 4211 2903 4192 2764 4192 2738 
C 4192 2681 4256 2681 4275 2681 
C 4346 2681 4352 2687 4378 2801 
L 4781 4423 
z
" transform="scale(0.015625)"/>
      </defs>
      <use xlink:href="#CMMI12-43" transform="scale(0.996264)"/>
     </g>
    </g>
   </g>
  </g>
 </g>
 <defs>
  <clipPath id="pa61f40494d">
   <rect x="7.2" y="16.556315" width="306.6" height="221.183685"/>
  </clipPath>
  <clipPath id="pb516cccf37">
   <rect x="327.6" y="16.556315" width="306.6" height="221.183685"/>
  </clipPath>
  <clipPath id="pd09782b198">
   <rect x="648" y="16.556315" width="306.6" height="221.183685"/>
  </clipPath>
 </defs>
</svg>
