<?xml version="1.0" encoding="utf-8" standalone="no"?>
<!DOCTYPE svg PUBLIC "-//W3C//DTD SVG 1.1//EN"
  "http://www.w3.org/Graphics/SVG/1.1/DTD/svg11.dtd">
<svg xmlns:xlink="http://www.w3.org/1999/xlink" width="964.8pt" height="245.12pt" viewBox="0 0 964.8 245.12" xmlns="http://www.w3.org/2000/svg" version="1.1">
 <metadata>
  <rdf:RDF xmlns:dc="http://purl.org/dc/elements/1.1/" xmlns:cc="http://creativecommons.org/ns#" xmlns:rdf="http://www.w3.org/1999/02/22-rdf-syntax-ns#">
   <cc:Work>
    <dc:type rdf:resource="http://purl.org/dc/dcmitype/StillImage"/>
    <dc:date>2025-12-06T17:27:56.618353</dc:date>
    <dc:format>image/svg+xml</dc:format>
    <dc:creator>
     <cc:Agent>
      <dc:title>Matplotlib v3.9.1, https://matplotlib.org/</dc:title>
     </cc:Agent>
    </dc:creator>
   </cc:Work>
  </rdf:RDF>
 </metadata>
 <defs>
  <style type="text/css">*{stroke-linejoin: round; stroke-linecap: butt}</style>
 </defs>
 <g id="figure_1">
  <g id="patch_1">
   <path d="M 0 245.12 
L 964.8 245.12 
L 964.8 0 
L 0 0 
L 0 245.12 
z
" style="fill: none"/>
  </g>
  <g id="axes_1">
   <g id="patch_2">
    <path d="M 7.2 237.92 
L 313.8 237.92 
L 313.8 16.556315 
L 7.2 16.556315 
L 7.2 237.92 
z
" style="fill: none"/>
   </g>
   <g id="matplotlib.axis_1">
    <g id="text_1">
     <!-- $x$ -->
     <g transform="translate(302.713188 200.416076) scale(0.2 -0.2)">
      <defs>
       <path id="CMMI12-78" d="M 3034 2606 
C 2829 2567 2752 2414 2752 2293 
C 2752 2139 2874 2088 2963 2088 
C 3155 2088 3290 2254 3290 2427 
C 3290 2695 2982 2816 2714 2816 
C 2323 2816 2106 2433 2048 2312 
C 1901 2816 1504 2816 1389 2816 
C 736 2816 390 1980 390 1839 
C 390 1814 416 1782 461 1782 
C 512 1782 525 1820 538 1846 
C 755 2555 1184 2689 1370 2689 
C 1658 2689 1715 2420 1715 2267 
C 1715 2127 1677 1980 1600 1673 
L 1382 798 
C 1286 415 1101 64 762 64 
C 730 64 570 64 435 147 
C 666 192 717 383 717 460 
C 717 588 621 664 499 664 
C 346 664 179 530 179 326 
C 179 57 480 -64 755 -64 
C 1062 -64 1280 179 1414 441 
C 1517 64 1837 -64 2074 -64 
C 2726 -64 3072 773 3072 913 
C 3072 945 3046 971 3008 971 
C 2950 971 2944 939 2925 888 
C 2752 326 2381 64 2093 64 
C 1869 64 1747 230 1747 492 
C 1747 632 1773 734 1875 1156 
L 2099 2024 
C 2195 2408 2413 2689 2707 2689 
C 2720 2689 2899 2689 3034 2606 
z
" transform="scale(0.015625)"/>
      </defs>
      <use xlink:href="#CMMI12-78" transform="scale(0.996264)"/>
     </g>
    </g>
   </g>
   <g id="matplotlib.axis_2">
    <g id="text_2">
     <!-- $y$ -->
     <g transform="translate(81.287165 12.680682) scale(0.2 -0.2)">
      <defs>
       <path id="CMMI12-79" d="M 1683 -700 
C 1510 -939 1261 -1152 947 -1152 
C 870 -1152 563 -1152 467 -889 
C 486 -895 518 -895 531 -895 
C 723 -895 851 -729 851 -582 
C 851 -435 730 -384 634 -384 
C 531 -384 307 -458 307 -759 
C 307 -1071 582 -1286 947 -1286 
C 1587 -1286 2234 -700 2413 6 
L 3040 2485 
C 3046 2517 3059 2556 3059 2594 
C 3059 2689 2982 2753 2886 2753 
C 2829 2753 2694 2727 2643 2535 
L 2170 658 
C 2138 543 2138 530 2086 460 
C 1958 281 1747 64 1440 64 
C 1082 64 1050 415 1050 588 
C 1050 952 1222 1443 1395 1903 
C 1466 2088 1504 2178 1504 2305 
C 1504 2574 1312 2816 998 2816 
C 410 2816 173 1890 173 1839 
C 173 1814 198 1782 243 1782 
C 301 1782 307 1807 333 1897 
C 486 2433 730 2689 979 2689 
C 1037 2689 1146 2689 1146 2478 
C 1146 2312 1075 2127 979 1884 
C 666 1047 666 837 666 683 
C 666 77 1101 -64 1421 -64 
C 1606 -64 1837 -6 2061 230 
L 2067 224 
C 1971 -147 1907 -392 1683 -700 
z
" transform="scale(0.015625)"/>
      </defs>
      <use xlink:href="#CMMI12-79" transform="scale(0.996264)"/>
     </g>
    </g>
   </g>
   <g id="line2d_1">
    <defs>
     <path id="mc25340b954" d="M 3 0 
L -3 -3 
L -3 3 
z
" style="stroke: #000000; stroke-linejoin: miter"/>
    </defs>
    <g>
     <use xlink:href="#mc25340b954" x="313.8" y="182.579079" style="stroke: #000000; stroke-linejoin: miter"/>
    </g>
   </g>
   <g id="line2d_2">
    <defs>
     <path id="m75f54aa013" d="M 0 -3 
L -3 3 
L 3 3 
z
" style="stroke: #000000; stroke-linejoin: miter"/>
    </defs>
    <g>
     <use xlink:href="#m75f54aa013" x="94.8" y="16.556315" style="stroke: #000000; stroke-linejoin: miter"/>
    </g>
   </g>
   <g id="line2d_3">
    <path d="M 69.108425 -1 
L 71.365128 20.686911 
L 73.686154 40.955622 
L 76.007179 59.324697 
L 78.328205 75.948551 
L 80.649231 90.970083 
L 82.970256 104.521487 
L 85.21641 116.351207 
L 87.462564 127.021187 
L 89.708718 136.626418 
L 91.954872 145.254861 
L 94.126154 152.74378 
L 96.297436 159.464188 
L 98.468718 165.479261 
L 100.64 170.847555 
L 102.811282 175.623317 
L 104.982564 179.856784 
L 107.078974 183.473342 
L 109.175385 186.666491 
L 111.271795 189.472176 
L 113.443077 192.005107 
L 115.614359 194.192352 
L 117.785641 196.065514 
L 119.956923 197.653749 
L 122.203077 199.025512 
L 124.524103 200.181945 
L 126.92 201.126387 
L 129.390769 201.864207 
L 132.011282 202.415331 
L 134.781538 202.771439 
L 137.77641 202.930554 
L 141.070769 202.876051 
L 144.664615 202.589902 
L 148.707692 202.04199 
L 153.424615 201.173011 
L 159.264615 199.859425 
L 167.500513 197.756562 
L 189.363077 192.081469 
L 198.272821 190.056001 
L 206.658462 188.375667 
L 214.969231 186.935578 
L 223.504615 185.68399 
L 232.339487 184.614756 
L 241.698462 183.707751 
L 251.806154 182.954519 
L 262.962051 182.351088 
L 275.540513 181.899387 
L 290.215385 181.601845 
L 308.334359 181.466606 
L 313.8 181.460426 
L 313.8 181.460426 
" clip-path="url(#p1555179742)" style="fill: none; stroke: #0072b2; stroke-width: 2.5; stroke-linecap: square"/>
   </g>
   <g id="patch_3">
    <path d="M 94.8 237.92 
L 94.8 16.556315 
" style="fill: none; stroke: #000000; stroke-width: 0.8; stroke-linejoin: miter; stroke-linecap: square"/>
   </g>
   <g id="patch_4">
    <path d="M 313.8 237.92 
L 313.8 16.556315 
" style="fill: none"/>
   </g>
   <g id="patch_5">
    <path d="M 7.2 182.579079 
L 313.8 182.579079 
" style="fill: none; stroke: #000000; stroke-width: 0.8; stroke-linejoin: miter; stroke-linecap: square"/>
   </g>
   <g id="patch_6">
    <path d="M 7.2 16.556315 
L 313.8 16.556315 
" style="fill: none"/>
   </g>
   <g id="legend_1">
    <g id="patch_7">
     <path d="M 221.174426 60.431949 
L 299.8 60.431949 
Q 303.8 60.431949 303.8 56.431949 
L 303.8 30.556315 
Q 303.8 26.556315 299.8 26.556315 
L 221.174426 26.556315 
Q 217.174426 26.556315 217.174426 30.556315 
L 217.174426 56.431949 
Q 217.174426 60.431949 221.174426 60.431949 
z
" style="fill: #ffffff; opacity: 0.8; stroke: #cccccc; stroke-linejoin: miter"/>
    </g>
    <g id="line2d_4">
     <path d="M 225.174426 41.556315 
L 245.174426 41.556315 
L 265.174426 41.556315 
" style="fill: none; stroke: #0072b2; stroke-width: 2.5; stroke-linecap: square"/>
    </g>
    <g id="text_3">
     <!-- $A$ -->
     <g transform="translate(281.174426 48.556315) scale(0.2 -0.2)">
      <defs>
       <path id="CMMI12-41" d="M 1088 691 
C 864 314 646 186 339 186 
C 269 180 218 180 218 58 
C 218 24 250 0 294 0 
C 410 0 698 0 813 0 
C 998 0 1203 0 1382 0 
C 1421 0 1498 0 1498 122 
C 1498 180 1446 186 1408 186 
C 1261 186 1139 236 1139 388 
C 1139 476 1178 546 1261 685 
L 1747 1479 
L 3379 1479 
C 3386 1423 3386 1373 3392 1316 
C 3411 1152 3488 495 3488 376 
C 3488 186 3162 186 3059 186 
C 2989 186 2918 186 2918 70 
C 2918 0 2976 0 3014 0 
C 3123 0 3251 0 3360 0 
L 3725 0 
C 4115 0 4397 0 4403 0 
C 4448 0 4518 0 4518 122 
C 4518 186 4461 186 4365 186 
C 4013 186 4006 244 3987 434 
L 3597 4404 
C 3584 4531 3558 4544 3488 4544 
C 3424 4544 3386 4531 3328 4435 
L 1088 691 
z
M 1856 1664 
L 3142 3819 
L 3360 1664 
L 1856 1664 
z
" transform="scale(0.015625)"/>
      </defs>
      <use xlink:href="#CMMI12-41" transform="scale(0.996264)"/>
     </g>
    </g>
   </g>
  </g>
  <g id="axes_2">
   <g id="patch_8">
    <path d="M 327.6 237.92 
L 634.2 237.92 
L 634.2 16.556315 
L 327.6 16.556315 
L 327.6 237.92 
z
" style="fill: none"/>
   </g>
   <g id="matplotlib.axis_3">
    <g id="text_4">
     <!-- $x$ -->
     <g transform="translate(623.113188 200.416076) scale(0.2 -0.2)">
      <use xlink:href="#CMMI12-78" transform="scale(0.996264)"/>
     </g>
    </g>
   </g>
   <g id="matplotlib.axis_4">
    <g id="text_5">
     <!-- $y$ -->
     <g transform="translate(401.687165 12.680682) scale(0.2 -0.2)">
      <use xlink:href="#CMMI12-79" transform="scale(0.996264)"/>
     </g>
    </g>
   </g>
   <g id="line2d_5">
    <g>
     <use xlink:href="#mc25340b954" x="634.2" y="182.579079" style="stroke: #000000; stroke-linejoin: miter"/>
    </g>
   </g>
   <g id="line2d_6">
    <g>
     <use xlink:href="#m75f54aa013" x="415.2" y="16.556315" style="stroke: #000000; stroke-linejoin: miter"/>
    </g>
   </g>
   <g id="line2d_7">
    <path d="M 382.137892 246.12 
L 384.277949 233.611065 
L 386.374359 222.621939 
L 388.470769 212.78191 
L 390.567179 203.996664 
L 392.588718 196.442194 
L 394.610256 189.714271 
L 396.631795 183.745195 
L 398.653333 178.472072 
L 400.6 173.99747 
L 402.546667 170.065592 
L 404.493333 166.631365 
L 406.44 163.652884 
L 408.311795 161.182474 
L 410.18359 159.065219 
L 412.055385 157.271152 
L 413.927179 155.772395 
L 415.873846 154.499108 
L 417.820513 153.490149 
L 419.842051 152.695321 
L 421.938462 152.115924 
L 424.109744 151.750664 
L 426.355897 151.595789 
L 428.751795 151.650075 
L 431.372308 151.934102 
L 434.217436 152.468217 
L 437.436923 153.306792 
L 441.105641 154.503078 
L 445.448205 156.165818 
L 450.988718 158.543148 
L 460.347692 162.846522 
L 471.278974 167.801929 
L 478.466667 170.814674 
L 484.980513 173.308354 
L 491.269744 175.478846 
L 497.484103 177.387054 
L 503.698462 179.06238 
L 510.062564 180.545811 
L 516.57641 181.835349 
L 523.389744 182.956221 
L 530.577436 183.910905 
L 538.214359 184.699253 
L 546.525128 185.329623 
L 555.659487 185.794267 
L 565.916923 186.08773 
L 577.821538 186.198797 
L 592.346667 186.102704 
L 612.187692 185.732397 
L 634.2 185.189268 
L 634.2 185.189268 
" clip-path="url(#p50f62cf3d9)" style="fill: none; stroke: #0072b2; stroke-width: 2.5; stroke-linecap: square"/>
   </g>
   <g id="patch_9">
    <path d="M 415.2 237.92 
L 415.2 16.556315 
" style="fill: none; stroke: #000000; stroke-width: 0.8; stroke-linejoin: miter; stroke-linecap: square"/>
   </g>
   <g id="patch_10">
    <path d="M 634.2 237.92 
L 634.2 16.556315 
" style="fill: none"/>
   </g>
   <g id="patch_11">
    <path d="M 327.6 182.579079 
L 634.2 182.579079 
" style="fill: none; stroke: #000000; stroke-width: 0.8; stroke-linejoin: miter; stroke-linecap: square"/>
   </g>
   <g id="patch_12">
    <path d="M 327.6 16.556315 
L 634.2 16.556315 
" style="fill: none"/>
   </g>
   <g id="legend_2">
    <g id="patch_13">
     <path d="M 541.378399 60.431949 
L 620.2 60.431949 
Q 624.2 60.431949 624.2 56.431949 
L 624.2 30.556315 
Q 624.2 26.556315 620.2 26.556315 
L 541.378399 26.556315 
Q 537.378399 26.556315 537.378399 30.556315 
L 537.378399 56.431949 
Q 537.378399 60.431949 541.378399 60.431949 
z
" style="fill: #ffffff; opacity: 0.8; stroke: #cccccc; stroke-linejoin: miter"/>
    </g>
    <g id="line2d_8">
     <path d="M 545.378399 41.556315 
L 565.378399 41.556315 
L 585.378399 41.556315 
" style="fill: none; stroke: #0072b2; stroke-width: 2.5; stroke-linecap: square"/>
    </g>
    <g id="text_6">
     <!-- $B$ -->
     <g transform="translate(601.378399 48.556315) scale(0.2 -0.2)">
      <defs>
       <path id="CMMI12-42" d="M 2342 3921 
C 2400 4160 2426 4160 2675 4160 
L 3507 4160 
C 4230 4160 4230 3544 4230 3485 
C 4230 2966 3712 2304 2867 2304 
L 1946 2304 
L 2342 3921 
z
M 3424 2275 
C 4122 2402 4755 2886 4755 3473 
C 4755 3970 4314 4352 3590 4352 
L 1536 4352 
C 1414 4352 1357 4352 1357 4226 
C 1357 4160 1414 4160 1510 4160 
C 1901 4160 1901 4112 1901 4044 
C 1901 4032 1901 3993 1875 3897 
L 1011 472 
C 954 249 941 185 493 185 
C 371 185 307 185 307 70 
C 307 0 346 0 474 0 
L 2669 0 
C 3648 0 4403 739 4403 1383 
C 4403 1906 3942 2224 3424 2275 
z
M 2515 185 
L 1651 185 
C 1562 185 1549 185 1510 192 
C 1440 198 1434 211 1434 261 
C 1434 305 1446 343 1459 399 
L 1907 2176 
L 3110 2176 
C 3866 2176 3866 1483 3866 1433 
C 3866 828 3309 185 2515 185 
z
" transform="scale(0.015625)"/>
      </defs>
      <use xlink:href="#CMMI12-42" transform="scale(0.996264)"/>
     </g>
    </g>
   </g>
  </g>
  <g id="axes_3">
   <g id="patch_14">
    <path d="M 648 237.92 
L 954.6 237.92 
L 954.6 16.556315 
L 648 16.556315 
L 648 237.92 
z
" style="fill: none"/>
   </g>
   <g id="matplotlib.axis_5">
    <g id="text_7">
     <!-- $x$ -->
     <g transform="translate(943.513188 200.416076) scale(0.2 -0.2)">
      <use xlink:href="#CMMI12-78" transform="scale(0.996264)"/>
     </g>
    </g>
   </g>
   <g id="matplotlib.axis_6">
    <g id="text_8">
     <!-- $y$ -->
     <g transform="translate(722.087165 12.680682) scale(0.2 -0.2)">
      <use xlink:href="#CMMI12-79" transform="scale(0.996264)"/>
     </g>
    </g>
   </g>
   <g id="line2d_9">
    <g>
     <use xlink:href="#mc25340b954" x="954.6" y="182.579079" style="stroke: #000000; stroke-linejoin: miter"/>
    </g>
   </g>
   <g id="line2d_10">
    <g>
     <use xlink:href="#m75f54aa013" x="735.6" y="16.556315" style="stroke: #000000; stroke-linejoin: miter"/>
    </g>
   </g>
   <g id="line2d_11">
    <path d="M 667.6551 -1 
L 669.787692 26.210906 
L 671.958974 51.108492 
L 674.055385 72.681905 
L 676.151795 92.033366 
L 678.248205 109.346468 
L 680.269744 124.270167 
L 682.291282 137.598445 
L 684.312821 149.462823 
L 686.259487 159.618246 
L 688.206154 168.630753 
L 690.152821 176.594542 
L 692.024615 183.344612 
L 693.89641 189.278488 
L 695.693333 194.269774 
L 697.490256 198.626634 
L 699.287179 202.400945 
L 701.009231 205.516138 
L 702.731282 208.180491 
L 704.453333 210.431123 
L 706.100513 212.228752 
L 707.747692 213.707919 
L 709.394872 214.895141 
L 711.042051 215.815207 
L 712.689231 216.49128 
L 714.411282 216.960666 
L 716.208205 217.216224 
L 718.08 217.253839 
L 720.026667 217.0724 
L 722.123077 216.655202 
L 724.444103 215.960312 
L 726.989744 214.958918 
L 729.834872 213.595373 
L 733.129231 211.762142 
L 737.097436 209.288274 
L 742.413333 205.69022 
L 761.430769 192.585447 
L 766.971282 189.163046 
L 772.062564 186.273825 
L 777.004103 183.723165 
L 781.870769 181.46301 
L 786.662564 179.482035 
L 791.454359 177.738578 
L 796.321026 176.201948 
L 801.337436 174.852207 
L 806.50359 173.694546 
L 811.894359 172.718334 
L 817.509744 171.930164 
L 823.424615 171.325653 
L 829.788718 170.902212 
L 836.676923 170.671348 
L 844.238974 170.644653 
L 852.774359 170.842577 
L 862.732308 171.303518 
L 875.161026 172.113561 
L 893.654359 173.567373 
L 932.138462 176.621325 
L 952.278974 177.96458 
L 954.6 178.104468 
L 954.6 178.104468 
" clip-path="url(#p988733a46a)" style="fill: none; stroke: #0072b2; stroke-width: 2.5; stroke-linecap: square"/>
   </g>
   <g id="patch_15">
    <path d="M 735.6 237.92 
L 735.6 16.556315 
" style="fill: none; stroke: #000000; stroke-width: 0.8; stroke-linejoin: miter; stroke-linecap: square"/>
   </g>
   <g id="patch_16">
    <path d="M 954.6 237.92 
L 954.6 16.556315 
" style="fill: none"/>
   </g>
   <g id="patch_17">
    <path d="M 648 182.579079 
L 954.6 182.579079 
" style="fill: none; stroke: #000000; stroke-width: 0.8; stroke-linejoin: miter; stroke-linecap: square"/>
   </g>
   <g id="patch_18">
    <path d="M 648 16.556315 
L 954.6 16.556315 
" style="fill: none"/>
   </g>
   <g id="legend_3">
    <g id="patch_19">
     <path d="M 862.641602 60.431949 
L 940.6 60.431949 
Q 944.6 60.431949 944.6 56.431949 
L 944.6 30.556315 
Q 944.6 26.556315 940.6 26.556315 
L 862.641602 26.556315 
Q 858.641602 26.556315 858.641602 30.556315 
L 858.641602 56.431949 
Q 858.641602 60.431949 862.641602 60.431949 
z
" style="fill: #ffffff; opacity: 0.8; stroke: #cccccc; stroke-linejoin: miter"/>
    </g>
    <g id="line2d_12">
     <path d="M 866.641602 41.556315 
L 886.641602 41.556315 
L 906.641602 41.556315 
" style="fill: none; stroke: #0072b2; stroke-width: 2.5; stroke-linecap: square"/>
    </g>
    <g id="text_9">
     <!-- $C$ -->
     <g transform="translate(922.641602 48.556315) scale(0.2 -0.2)">
      <defs>
       <path id="CMMI12-43" d="M 4781 4423 
C 4781 4480 4736 4480 4723 4480 
C 4710 4480 4685 4480 4634 4416 
L 4192 3882 
C 3968 4264 3616 4480 3136 4480 
C 1754 4480 320 3088 320 1595 
C 320 533 1069 -128 2003 -128 
C 2515 -128 2963 88 3334 400 
C 3891 863 4058 1481 4058 1531 
C 4058 1588 4006 1588 3987 1588 
C 3930 1588 3923 1550 3910 1524 
C 3616 534 2752 57 2112 57 
C 1434 57 845 489 845 1391 
C 845 1595 909 2700 1632 3532 
C 1984 3939 2586 4295 3194 4295 
C 3898 4295 4211 3717 4211 3068 
C 4211 2903 4192 2764 4192 2738 
C 4192 2681 4256 2681 4275 2681 
C 4346 2681 4352 2687 4378 2801 
L 4781 4423 
z
" transform="scale(0.015625)"/>
      </defs>
      <use xlink:href="#CMMI12-43" transform="scale(0.996264)"/>
     </g>
    </g>
   </g>
  </g>
 </g>
 <defs>
  <clipPath id="p1555179742">
   <rect x="7.2" y="16.556315" width="306.6" height="221.363685"/>
  </clipPath>
  <clipPath id="p50f62cf3d9">
   <rect x="327.6" y="16.556315" width="306.6" height="221.363685"/>
  </clipPath>
  <clipPath id="p988733a46a">
   <rect x="648" y="16.556315" width="306.6" height="221.363685"/>
  </clipPath>
 </defs>
</svg>
