<?xml version="1.0" encoding="utf-8" standalone="no"?>
<!DOCTYPE svg PUBLIC "-//W3C//DTD SVG 1.1//EN"
  "http://www.w3.org/Graphics/SVG/1.1/DTD/svg11.dtd">
<svg xmlns:xlink="http://www.w3.org/1999/xlink" width="640.8pt" height="496.538125pt" viewBox="0 0 640.8 496.538125" xmlns="http://www.w3.org/2000/svg" version="1.1">
 <metadata>
  <rdf:RDF xmlns:dc="http://purl.org/dc/elements/1.1/" xmlns:cc="http://creativecommons.org/ns#" xmlns:rdf="http://www.w3.org/1999/02/22-rdf-syntax-ns#">
   <cc:Work>
    <dc:type rdf:resource="http://purl.org/dc/dcmitype/StillImage"/>
    <dc:date>2025-11-24T23:35:29.699503</dc:date>
    <dc:format>image/svg+xml</dc:format>
    <dc:creator>
     <cc:Agent>
      <dc:title>Matplotlib v3.9.1, https://matplotlib.org/</dc:title>
     </cc:Agent>
    </dc:creator>
   </cc:Work>
  </rdf:RDF>
 </metadata>
 <defs>
  <style type="text/css">*{stroke-linejoin: round; stroke-linecap: butt}</style>
 </defs>
 <g id="figure_1">
  <g id="patch_1">
   <path d="M 0 496.538125 
L 640.8 496.538125 
L 640.8 0 
L 0 0 
L 0 496.538125 
z
" style="fill: none"/>
  </g>
  <g id="axes_1">
   <g id="patch_2">
    <path d="M 7.2 242.738125 
L 312 242.738125 
L 312 17.378125 
L 7.2 17.378125 
L 7.2 242.738125 
z
" style="fill: none"/>
   </g>
   <g id="matplotlib.axis_1">
    <g id="text_1">
     <!-- $x$ -->
     <g transform="translate(300 149.255) scale(0.2 -0.2)">
      <defs>
       <path id="DejaVuSans-Oblique-78" d="M 3841 3500 
L 2234 1784 
L 3219 0 
L 2559 0 
L 1819 1388 
L 531 0 
L -166 0 
L 1556 1844 
L 641 3500 
L 1300 3500 
L 1972 2234 
L 3144 3500 
L 3841 3500 
z
" transform="scale(0.015625)"/>
      </defs>
      <use xlink:href="#DejaVuSans-Oblique-78" transform="translate(0 0.3125)"/>
     </g>
    </g>
   </g>
   <g id="matplotlib.axis_2">
    <g id="text_2">
     <!-- $y$ -->
     <g transform="translate(113.12 13.178125) scale(0.2 -0.2)">
      <defs>
       <path id="DejaVuSans-Oblique-79" d="M 1588 -325 
Q 1188 -997 936 -1164 
Q 684 -1331 294 -1331 
L -159 -1331 
L -63 -850 
L 269 -850 
Q 509 -850 678 -719 
Q 847 -588 1056 -206 
L 1234 128 
L 459 3500 
L 1069 3500 
L 1650 819 
L 3256 3500 
L 3859 3500 
L 1588 -325 
z
" transform="scale(0.015625)"/>
      </defs>
      <use xlink:href="#DejaVuSans-Oblique-79" transform="translate(0 0.3125)"/>
     </g>
    </g>
   </g>
   <g id="line2d_1">
    <defs>
     <path id="m5ee52b742b" d="M 3 0 
L -3 -3 
L -3 3 
z
" style="stroke: #000000; stroke-linejoin: miter"/>
    </defs>
    <g>
     <use xlink:href="#m5ee52b742b" x="312" y="130.058125" style="stroke: #000000; stroke-linejoin: miter"/>
    </g>
   </g>
   <g id="line2d_2">
    <defs>
     <path id="mf4a89e7724" d="M 0 -3 
L -3 3 
L 3 3 
z
" style="stroke: #000000; stroke-linejoin: miter"/>
    </defs>
    <g>
     <use xlink:href="#mf4a89e7724" x="129.12" y="17.378125" style="stroke: #000000; stroke-linejoin: miter"/>
    </g>
   </g>
   <g id="line2d_3">
    <path d="M 7.2 220.895659 
L 13.898901 218.492322 
L 20.374505 215.935212 
L 26.701245 213.196875 
L 32.804689 210.313747 
L 38.759267 207.257126 
L 44.639414 203.988246 
L 50.445128 200.503687 
L 56.17641 196.802054 
L 61.83326 192.884379 
L 67.49011 188.697727 
L 73.221392 184.17829 
L 79.027106 179.316328 
L 85.056117 173.973078 
L 91.382857 168.063113 
L 98.305055 161.283855 
L 106.641465 152.791585 
L 124.877363 134.100539 
L 129.938755 129.306618 
L 134.032527 125.72675 
L 137.530842 122.956069 
L 140.582564 120.813993 
L 143.336557 119.147089 
L 145.792821 117.910482 
L 148.10022 116.995754 
L 150.184322 116.401945 
L 152.11956 116.070971 
L 153.980366 115.973826 
L 155.76674 116.104231 
L 157.478681 116.453465 
L 159.11619 117.010413 
L 160.7537 117.803033 
L 162.391209 118.84991 
L 164.028718 120.17081 
L 165.666227 121.786744 
L 167.303736 123.720045 
L 168.941245 125.994441 
L 170.653187 128.764302 
L 172.365128 131.965171 
L 174.151502 135.800039 
L 175.937875 140.179249 
L 177.724249 145.144962 
L 179.585055 150.989778 
L 181.445861 157.57413 
L 183.381099 165.268824 
L 185.316337 173.896176 
L 187.251575 183.531136 
L 189.261245 194.689306 
L 191.270916 207.117209 
L 193.355018 221.457407 
L 195.439121 237.398844 
L 197.523223 255.07523 
L 199.607326 274.630448 
L 201.765861 297.029992 
L 203.924396 321.796346 
L 206.08293 349.129259 
L 208.315897 380.334895 
L 210.548864 414.775026 
L 212.781832 452.727689 
L 215.014799 494.493252 
L 215.169591 497.538125 
L 215.169591 497.538125 
" clip-path="url(#p63aa07fe83)" style="fill: none; stroke: #0072b2; stroke-width: 2.5; stroke-linecap: square"/>
   </g>
   <g id="patch_3">
    <path d="M 129.12 242.738125 
L 129.12 17.378125 
" style="fill: none; stroke: #000000; stroke-width: 0.8; stroke-linejoin: miter; stroke-linecap: square"/>
   </g>
   <g id="patch_4">
    <path d="M 312 242.738125 
L 312 17.378125 
" style="fill: none"/>
   </g>
   <g id="patch_5">
    <path d="M 7.2 130.058125 
L 312 130.058125 
" style="fill: none; stroke: #000000; stroke-width: 0.8; stroke-linejoin: miter; stroke-linecap: square"/>
   </g>
   <g id="patch_6">
    <path d="M 7.2 17.378125 
L 312 17.378125 
" style="fill: none"/>
   </g>
   <g id="legend_1">
    <g id="patch_7">
     <path d="M 220.2 62.734375 
L 298 62.734375 
Q 302 62.734375 302 58.734375 
L 302 31.378125 
Q 302 27.378125 298 27.378125 
L 220.2 27.378125 
Q 216.2 27.378125 216.2 31.378125 
L 216.2 58.734375 
Q 216.2 62.734375 220.2 62.734375 
z
" style="fill: #ffffff; opacity: 0.8; stroke: #cccccc; stroke-linejoin: miter"/>
    </g>
    <g id="line2d_4">
     <path d="M 224.2 43.575 
L 244.2 43.575 
L 264.2 43.575 
" style="fill: none; stroke: #0072b2; stroke-width: 2.5; stroke-linecap: square"/>
    </g>
    <g id="text_3">
     <!-- $A$ -->
     <g transform="translate(280.2 50.575) scale(0.2 -0.2)">
      <defs>
       <path id="DejaVuSans-Oblique-41" d="M 2356 4666 
L 3072 4666 
L 3938 0 
L 3278 0 
L 3084 1197 
L 984 1197 
L 325 0 
L -341 0 
L 2356 4666 
z
M 2584 4044 
L 1275 1722 
L 2988 1722 
L 2584 4044 
z
" transform="scale(0.015625)"/>
      </defs>
      <use xlink:href="#DejaVuSans-Oblique-41" transform="translate(0 0.09375)"/>
     </g>
    </g>
   </g>
  </g>
  <g id="axes_2">
   <g id="patch_8">
    <path d="M 325.8 242.738125 
L 630.6 242.738125 
L 630.6 17.378125 
L 325.8 17.378125 
L 325.8 242.738125 
z
" style="fill: none"/>
   </g>
   <g id="matplotlib.axis_3">
    <g id="text_4">
     <!-- $x$ -->
     <g transform="translate(618.6 149.255) scale(0.2 -0.2)">
      <use xlink:href="#DejaVuSans-Oblique-78" transform="translate(0 0.3125)"/>
     </g>
    </g>
   </g>
   <g id="matplotlib.axis_4">
    <g id="text_5">
     <!-- $y$ -->
     <g transform="translate(431.72 13.178125) scale(0.2 -0.2)">
      <use xlink:href="#DejaVuSans-Oblique-79" transform="translate(0 0.3125)"/>
     </g>
    </g>
   </g>
   <g id="line2d_5">
    <g>
     <use xlink:href="#m5ee52b742b" x="630.6" y="130.058125" style="stroke: #000000; stroke-linejoin: miter"/>
    </g>
   </g>
   <g id="line2d_6">
    <g>
     <use xlink:href="#mf4a89e7724" x="447.72" y="17.378125" style="stroke: #000000; stroke-linejoin: miter"/>
    </g>
   </g>
   <g id="line2d_7">
    <path d="M 325.8 39.220591 
L 332.498901 41.623928 
L 338.974505 44.181038 
L 345.301245 46.919375 
L 351.404689 49.802503 
L 357.359267 52.859124 
L 363.239414 56.128004 
L 369.045128 59.612563 
L 374.77641 63.314196 
L 380.43326 67.231871 
L 386.09011 71.418523 
L 391.821392 75.93796 
L 397.627106 80.799922 
L 403.656117 86.143172 
L 409.982857 92.053137 
L 416.905055 98.832395 
L 425.241465 107.324665 
L 443.477363 126.015711 
L 448.538755 130.809632 
L 452.632527 134.3895 
L 456.130842 137.160181 
L 459.182564 139.302257 
L 461.936557 140.969161 
L 464.392821 142.205768 
L 466.70022 143.120496 
L 468.784322 143.714305 
L 470.71956 144.045279 
L 472.580366 144.142424 
L 474.36674 144.012019 
L 476.078681 143.662785 
L 477.71619 143.105837 
L 479.3537 142.313217 
L 480.991209 141.26634 
L 482.628718 139.94544 
L 484.266227 138.329506 
L 485.903736 136.396205 
L 487.541245 134.121809 
L 489.253187 131.351948 
L 490.965128 128.151079 
L 492.751502 124.316211 
L 494.537875 119.937001 
L 496.324249 114.971288 
L 498.185055 109.126472 
L 500.045861 102.54212 
L 501.981099 94.847426 
L 503.916337 86.220074 
L 505.851575 76.585114 
L 507.861245 65.426944 
L 509.870916 52.999041 
L 511.955018 38.658843 
L 514.039121 22.717406 
L 516.123223 5.04102 
L 516.789582 -1 
L 516.789582 -1 
" clip-path="url(#pae2e904fdc)" style="fill: none; stroke: #0072b2; stroke-width: 2.5; stroke-linecap: square"/>
   </g>
   <g id="patch_9">
    <path d="M 447.72 242.738125 
L 447.72 17.378125 
" style="fill: none; stroke: #000000; stroke-width: 0.8; stroke-linejoin: miter; stroke-linecap: square"/>
   </g>
   <g id="patch_10">
    <path d="M 630.6 242.738125 
L 630.6 17.378125 
" style="fill: none"/>
   </g>
   <g id="patch_11">
    <path d="M 325.8 130.058125 
L 630.6 130.058125 
" style="fill: none; stroke: #000000; stroke-width: 0.8; stroke-linejoin: miter; stroke-linecap: square"/>
   </g>
   <g id="patch_12">
    <path d="M 325.8 17.378125 
L 630.6 17.378125 
" style="fill: none"/>
   </g>
   <g id="legend_2">
    <g id="patch_13">
     <path d="M 538.8 62.734375 
L 616.6 62.734375 
Q 620.6 62.734375 620.6 58.734375 
L 620.6 31.378125 
Q 620.6 27.378125 616.6 27.378125 
L 538.8 27.378125 
Q 534.8 27.378125 534.8 31.378125 
L 534.8 58.734375 
Q 534.8 62.734375 538.8 62.734375 
z
" style="fill: #ffffff; opacity: 0.8; stroke: #cccccc; stroke-linejoin: miter"/>
    </g>
    <g id="line2d_8">
     <path d="M 542.8 43.575 
L 562.8 43.575 
L 582.8 43.575 
" style="fill: none; stroke: #0072b2; stroke-width: 2.5; stroke-linecap: square"/>
    </g>
    <g id="text_6">
     <!-- $B$ -->
     <g transform="translate(598.8 50.575) scale(0.2 -0.2)">
      <defs>
       <path id="DejaVuSans-Oblique-42" d="M 1081 4666 
L 2694 4666 
Q 3350 4666 3675 4422 
Q 4000 4178 4000 3688 
Q 4000 3238 3720 2911 
Q 3441 2584 2988 2516 
Q 3375 2428 3569 2181 
Q 3763 1934 3763 1522 
Q 3763 819 3242 409 
Q 2722 0 1819 0 
L 172 0 
L 1081 4666 
z
M 1234 2228 
L 903 519 
L 1919 519 
Q 2491 519 2800 781 
Q 3109 1044 3109 1522 
Q 3109 1891 2904 2059 
Q 2700 2228 2247 2228 
L 1234 2228 
z
M 1606 4147 
L 1331 2741 
L 2272 2741 
Q 2775 2741 3058 2959 
Q 3341 3178 3341 3566 
Q 3341 3869 3150 4008 
Q 2959 4147 2541 4147 
L 1606 4147 
z
" transform="scale(0.015625)"/>
      </defs>
      <use xlink:href="#DejaVuSans-Oblique-42" transform="translate(0 0.09375)"/>
     </g>
    </g>
   </g>
  </g>
  <g id="axes_3">
   <g id="patch_14">
    <path d="M 7.2 489.338125 
L 312 489.338125 
L 312 263.978125 
L 7.2 263.978125 
L 7.2 489.338125 
z
" style="fill: none"/>
   </g>
   <g id="matplotlib.axis_5">
    <g id="text_7">
     <!-- $x$ -->
     <g transform="translate(300 395.855) scale(0.2 -0.2)">
      <use xlink:href="#DejaVuSans-Oblique-78" transform="translate(0 0.3125)"/>
     </g>
    </g>
   </g>
   <g id="matplotlib.axis_6">
    <g id="text_8">
     <!-- $y$ -->
     <g transform="translate(113.12 259.778125) scale(0.2 -0.2)">
      <use xlink:href="#DejaVuSans-Oblique-79" transform="translate(0 0.3125)"/>
     </g>
    </g>
   </g>
   <g id="line2d_9">
    <g>
     <use xlink:href="#m5ee52b742b" x="312" y="376.658125" style="stroke: #000000; stroke-linejoin: miter"/>
    </g>
   </g>
   <g id="line2d_10">
    <g>
     <use xlink:href="#mf4a89e7724" x="129.12" y="263.978125" style="stroke: #000000; stroke-linejoin: miter"/>
    </g>
   </g>
   <g id="line2d_11">
    <path d="M 58.981945 -1 
L 61.609963 36.629923 
L 64.215092 70.861436 
L 66.82022 102.2521 
L 69.425348 131.003619 
L 72.030476 157.304792 
L 74.635604 181.33228 
L 77.1663 202.652902 
L 79.696996 222.125684 
L 82.227692 239.883416 
L 84.683956 255.596518 
L 87.14022 269.917617 
L 89.596484 282.946536 
L 92.052747 294.776818 
L 94.434579 305.186778 
L 96.81641 314.626952 
L 99.198242 323.167571 
L 101.580073 330.874484 
L 103.887473 337.603785 
L 106.194872 343.661209 
L 108.502271 349.096119 
L 110.735238 353.806622 
L 112.968205 358.016876 
L 115.201172 361.76386 
L 117.434139 365.082285 
L 119.667106 368.004719 
L 121.900073 370.561705 
L 124.13304 372.781871 
L 126.366007 374.692042 
L 128.598974 376.317332 
L 130.906374 377.722472 
L 133.213773 378.872746 
L 135.595604 379.816744 
L 138.051868 380.555502 
L 140.656996 381.104536 
L 143.410989 381.450651 
L 146.313846 381.585263 
L 149.44 381.499945 
L 152.789451 381.181326 
L 156.511062 380.596408 
L 160.679267 379.707408 
L 165.44293 378.458179 
L 171.323077 376.674511 
L 179.585055 373.912903 
L 198.937436 367.37652 
L 206.976117 364.940874 
L 214.270476 362.958789 
L 221.267106 361.284806 
L 228.189304 359.857144 
L 235.111502 358.657774 
L 242.108132 357.672226 
L 249.253626 356.890633 
L 256.622418 356.307823 
L 264.36337 355.920118 
L 272.550916 355.735707 
L 281.259487 355.763818 
L 290.786813 356.021319 
L 301.281758 356.531364 
L 312 357.245935 
L 312 357.245935 
" clip-path="url(#p5c16d9b627)" style="fill: none; stroke: #0072b2; stroke-width: 2.5; stroke-linecap: square"/>
   </g>
   <g id="patch_15">
    <path d="M 129.12 489.338125 
L 129.12 263.978125 
" style="fill: none; stroke: #000000; stroke-width: 0.8; stroke-linejoin: miter; stroke-linecap: square"/>
   </g>
   <g id="patch_16">
    <path d="M 312 489.338125 
L 312 263.978125 
" style="fill: none"/>
   </g>
   <g id="patch_17">
    <path d="M 7.2 376.658125 
L 312 376.658125 
" style="fill: none; stroke: #000000; stroke-width: 0.8; stroke-linejoin: miter; stroke-linecap: square"/>
   </g>
   <g id="patch_18">
    <path d="M 7.2 263.978125 
L 312 263.978125 
" style="fill: none"/>
   </g>
   <g id="legend_3">
    <g id="patch_19">
     <path d="M 220 309.334375 
L 298 309.334375 
Q 302 309.334375 302 305.334375 
L 302 277.978125 
Q 302 273.978125 298 273.978125 
L 220 273.978125 
Q 216 273.978125 216 277.978125 
L 216 305.334375 
Q 216 309.334375 220 309.334375 
z
" style="fill: #ffffff; opacity: 0.8; stroke: #cccccc; stroke-linejoin: miter"/>
    </g>
    <g id="line2d_12">
     <path d="M 224 290.175 
L 244 290.175 
L 264 290.175 
" style="fill: none; stroke: #0072b2; stroke-width: 2.5; stroke-linecap: square"/>
    </g>
    <g id="text_9">
     <!-- $C$ -->
     <g transform="translate(280 297.175) scale(0.2 -0.2)">
      <defs>
       <path id="DejaVuSans-Oblique-43" d="M 4447 4306 
L 4319 3641 
Q 4019 3944 3683 4091 
Q 3347 4238 2956 4238 
Q 2422 4238 2017 3981 
Q 1613 3725 1319 3200 
Q 1131 2863 1032 2486 
Q 934 2109 934 1728 
Q 934 1091 1264 756 
Q 1594 422 2222 422 
Q 2656 422 3056 561 
Q 3456 700 3834 978 
L 3688 231 
Q 3316 72 2936 -9 
Q 2556 -91 2175 -91 
Q 1278 -91 773 396 
Q 269 884 269 1753 
Q 269 2309 461 2846 
Q 653 3384 1013 3828 
Q 1394 4300 1883 4525 
Q 2372 4750 3022 4750 
Q 3422 4750 3780 4639 
Q 4138 4528 4447 4306 
z
" transform="scale(0.015625)"/>
      </defs>
      <use xlink:href="#DejaVuSans-Oblique-43" transform="translate(0 0.78125)"/>
     </g>
    </g>
   </g>
  </g>
  <g id="axes_4">
   <g id="patch_20">
    <path d="M 325.8 489.338125 
L 630.6 489.338125 
L 630.6 263.978125 
L 325.8 263.978125 
L 325.8 489.338125 
z
" style="fill: none"/>
   </g>
   <g id="matplotlib.axis_7">
    <g id="text_10">
     <!-- $x$ -->
     <g transform="translate(618.6 395.855) scale(0.2 -0.2)">
      <use xlink:href="#DejaVuSans-Oblique-78" transform="translate(0 0.3125)"/>
     </g>
    </g>
   </g>
   <g id="matplotlib.axis_8">
    <g id="text_11">
     <!-- $y$ -->
     <g transform="translate(431.72 259.778125) scale(0.2 -0.2)">
      <use xlink:href="#DejaVuSans-Oblique-79" transform="translate(0 0.3125)"/>
     </g>
    </g>
   </g>
   <g id="line2d_13">
    <g>
     <use xlink:href="#m5ee52b742b" x="630.6" y="376.658125" style="stroke: #000000; stroke-linejoin: miter"/>
    </g>
   </g>
   <g id="line2d_14">
    <g>
     <use xlink:href="#mf4a89e7724" x="447.72" y="263.978125" style="stroke: #000000; stroke-linejoin: miter"/>
    </g>
   </g>
   <g id="line2d_15">
    <path d="M 403.313736 497.538125 
L 405.74022 483.398633 
L 408.196484 470.369714 
L 410.652747 458.539432 
L 413.034579 448.129472 
L 415.41641 438.689298 
L 417.798242 430.148679 
L 420.180073 422.441766 
L 422.487473 415.712465 
L 424.794872 409.655041 
L 427.102271 404.220131 
L 429.335238 399.509628 
L 431.568205 395.299374 
L 433.801172 391.55239 
L 436.034139 388.233965 
L 438.267106 385.311531 
L 440.500073 382.754545 
L 442.73304 380.534379 
L 444.966007 378.624208 
L 447.198974 376.998918 
L 449.506374 375.593778 
L 451.813773 374.443504 
L 454.195604 373.499506 
L 456.651868 372.760748 
L 459.256996 372.211714 
L 462.010989 371.865599 
L 464.913846 371.730987 
L 468.04 371.816305 
L 471.389451 372.134924 
L 475.111062 372.719842 
L 479.279267 373.608842 
L 484.04293 374.858071 
L 489.923077 376.641739 
L 498.185055 379.403347 
L 517.537436 385.93973 
L 525.576117 388.375376 
L 532.870476 390.357461 
L 539.867106 392.031444 
L 546.789304 393.459106 
L 553.711502 394.658476 
L 560.708132 395.644024 
L 567.853626 396.425617 
L 575.222418 397.008427 
L 582.96337 397.396132 
L 591.150916 397.580543 
L 599.859487 397.552432 
L 609.386813 397.294931 
L 619.881758 396.784886 
L 630.6 396.070315 
L 630.6 396.070315 
" clip-path="url(#pe37f7e2070)" style="fill: none; stroke: #0072b2; stroke-width: 2.5; stroke-linecap: square"/>
   </g>
   <g id="patch_21">
    <path d="M 447.72 489.338125 
L 447.72 263.978125 
" style="fill: none; stroke: #000000; stroke-width: 0.8; stroke-linejoin: miter; stroke-linecap: square"/>
   </g>
   <g id="patch_22">
    <path d="M 630.6 489.338125 
L 630.6 263.978125 
" style="fill: none"/>
   </g>
   <g id="patch_23">
    <path d="M 325.8 376.658125 
L 630.6 376.658125 
" style="fill: none; stroke: #000000; stroke-width: 0.8; stroke-linejoin: miter; stroke-linecap: square"/>
   </g>
   <g id="patch_24">
    <path d="M 325.8 263.978125 
L 630.6 263.978125 
" style="fill: none"/>
   </g>
   <g id="legend_4">
    <g id="patch_25">
     <path d="M 537 309.334375 
L 616.6 309.334375 
Q 620.6 309.334375 620.6 305.334375 
L 620.6 277.978125 
Q 620.6 273.978125 616.6 273.978125 
L 537 273.978125 
Q 533 273.978125 533 277.978125 
L 533 305.334375 
Q 533 309.334375 537 309.334375 
z
" style="fill: #ffffff; opacity: 0.8; stroke: #cccccc; stroke-linejoin: miter"/>
    </g>
    <g id="line2d_16">
     <path d="M 541 290.175 
L 561 290.175 
L 581 290.175 
" style="fill: none; stroke: #0072b2; stroke-width: 2.5; stroke-linecap: square"/>
    </g>
    <g id="text_12">
     <!-- $D$ -->
     <g transform="translate(597 297.175) scale(0.2 -0.2)">
      <defs>
       <path id="DejaVuSans-Oblique-44" d="M 1081 4666 
L 2438 4666 
Q 3519 4666 4070 4208 
Q 4622 3750 4622 2847 
Q 4622 2250 4412 1698 
Q 4203 1147 3834 769 
Q 3463 381 2891 190 
Q 2319 0 1538 0 
L 172 0 
L 1081 4666 
z
M 1613 4147 
L 909 519 
L 1734 519 
Q 2794 519 3375 1128 
Q 3956 1738 3956 2847 
Q 3956 3519 3581 3833 
Q 3206 4147 2406 4147 
L 1613 4147 
z
" transform="scale(0.015625)"/>
      </defs>
      <use xlink:href="#DejaVuSans-Oblique-44" transform="translate(0 0.09375)"/>
     </g>
    </g>
   </g>
  </g>
 </g>
 <defs>
  <clipPath id="p63aa07fe83">
   <rect x="7.2" y="17.378125" width="304.8" height="225.36"/>
  </clipPath>
  <clipPath id="pae2e904fdc">
   <rect x="325.8" y="17.378125" width="304.8" height="225.36"/>
  </clipPath>
  <clipPath id="p5c16d9b627">
   <rect x="7.2" y="263.978125" width="304.8" height="225.36"/>
  </clipPath>
  <clipPath id="pe37f7e2070">
   <rect x="325.8" y="263.978125" width="304.8" height="225.36"/>
  </clipPath>
 </defs>
</svg>
