<?xml version="1.0" encoding="utf-8" standalone="no"?>
<!DOCTYPE svg PUBLIC "-//W3C//DTD SVG 1.1//EN"
  "http://www.w3.org/Graphics/SVG/1.1/DTD/svg11.dtd">
<svg xmlns:xlink="http://www.w3.org/1999/xlink" width="640.8pt" height="496.94pt" viewBox="0 0 640.8 496.94" xmlns="http://www.w3.org/2000/svg" version="1.1">
 <metadata>
  <rdf:RDF xmlns:dc="http://purl.org/dc/elements/1.1/" xmlns:cc="http://creativecommons.org/ns#" xmlns:rdf="http://www.w3.org/1999/02/22-rdf-syntax-ns#">
   <cc:Work>
    <dc:type rdf:resource="http://purl.org/dc/dcmitype/StillImage"/>
    <dc:date>2025-11-29T14:15:44.637219</dc:date>
    <dc:format>image/svg+xml</dc:format>
    <dc:creator>
     <cc:Agent>
      <dc:title>Matplotlib v3.9.1, https://matplotlib.org/</dc:title>
     </cc:Agent>
    </dc:creator>
   </cc:Work>
  </rdf:RDF>
 </metadata>
 <defs>
  <style type="text/css">*{stroke-linejoin: round; stroke-linecap: butt}</style>
 </defs>
 <g id="figure_1">
  <g id="patch_1">
   <path d="M 0 496.94 
L 640.8 496.94 
L 640.8 0 
L 0 0 
L 0 496.94 
z
" style="fill: none"/>
  </g>
  <g id="axes_1">
   <g id="patch_2">
    <path d="M 7.2 243.14 
L 312 243.14 
L 312 16.556315 
L 7.2 16.556315 
L 7.2 243.14 
z
" style="fill: none"/>
   </g>
   <g id="matplotlib.axis_1">
    <g id="text_1">
     <!-- $x$ -->
     <g transform="translate(300.913188 147.685154) scale(0.2 -0.2)">
      <defs>
       <path id="CMMI12-78" d="M 3034 2606 
C 2829 2567 2752 2414 2752 2293 
C 2752 2139 2874 2088 2963 2088 
C 3155 2088 3290 2254 3290 2427 
C 3290 2695 2982 2816 2714 2816 
C 2323 2816 2106 2433 2048 2312 
C 1901 2816 1504 2816 1389 2816 
C 736 2816 390 1980 390 1839 
C 390 1814 416 1782 461 1782 
C 512 1782 525 1820 538 1846 
C 755 2555 1184 2689 1370 2689 
C 1658 2689 1715 2420 1715 2267 
C 1715 2127 1677 1980 1600 1673 
L 1382 798 
C 1286 415 1101 64 762 64 
C 730 64 570 64 435 147 
C 666 192 717 383 717 460 
C 717 588 621 664 499 664 
C 346 664 179 530 179 326 
C 179 57 480 -64 755 -64 
C 1062 -64 1280 179 1414 441 
C 1517 64 1837 -64 2074 -64 
C 2726 -64 3072 773 3072 913 
C 3072 945 3046 971 3008 971 
C 2950 971 2944 939 2925 888 
C 2752 326 2381 64 2093 64 
C 1869 64 1747 230 1747 492 
C 1747 632 1773 734 1875 1156 
L 2099 2024 
C 2195 2408 2413 2689 2707 2689 
C 2720 2689 2899 2689 3034 2606 
z
" transform="scale(0.015625)"/>
      </defs>
      <use xlink:href="#CMMI12-78" transform="scale(0.996264)"/>
     </g>
    </g>
   </g>
   <g id="matplotlib.axis_2">
    <g id="text_2">
     <!-- $y$ -->
     <g transform="translate(146.087165 12.680682) scale(0.2 -0.2)">
      <defs>
       <path id="CMMI12-79" d="M 1683 -700 
C 1510 -939 1261 -1152 947 -1152 
C 870 -1152 563 -1152 467 -889 
C 486 -895 518 -895 531 -895 
C 723 -895 851 -729 851 -582 
C 851 -435 730 -384 634 -384 
C 531 -384 307 -458 307 -759 
C 307 -1071 582 -1286 947 -1286 
C 1587 -1286 2234 -700 2413 6 
L 3040 2485 
C 3046 2517 3059 2556 3059 2594 
C 3059 2689 2982 2753 2886 2753 
C 2829 2753 2694 2727 2643 2535 
L 2170 658 
C 2138 543 2138 530 2086 460 
C 1958 281 1747 64 1440 64 
C 1082 64 1050 415 1050 588 
C 1050 952 1222 1443 1395 1903 
C 1466 2088 1504 2178 1504 2305 
C 1504 2574 1312 2816 998 2816 
C 410 2816 173 1890 173 1839 
C 173 1814 198 1782 243 1782 
C 301 1782 307 1807 333 1897 
C 486 2433 730 2689 979 2689 
C 1037 2689 1146 2689 1146 2478 
C 1146 2312 1075 2127 979 1884 
C 666 1047 666 837 666 683 
C 666 77 1101 -64 1421 -64 
C 1606 -64 1837 -6 2061 230 
L 2067 224 
C 1971 -147 1907 -392 1683 -700 
z
" transform="scale(0.015625)"/>
      </defs>
      <use xlink:href="#CMMI12-79" transform="scale(0.996264)"/>
     </g>
    </g>
   </g>
   <g id="line2d_1">
    <defs>
     <path id="m7a33a56eb7" d="M 3 0 
L -3 -3 
L -3 3 
z
" style="stroke: #000000; stroke-linejoin: miter"/>
    </defs>
    <g>
     <use xlink:href="#m7a33a56eb7" x="312" y="129.848158" style="stroke: #000000; stroke-linejoin: miter"/>
    </g>
   </g>
   <g id="line2d_2">
    <defs>
     <path id="maacc94413e" d="M 0 -3 
L -3 3 
L 3 3 
z
" style="stroke: #000000; stroke-linejoin: miter"/>
    </defs>
    <g>
     <use xlink:href="#maacc94413e" x="159.6" y="16.556315" style="stroke: #000000; stroke-linejoin: miter"/>
    </g>
   </g>
   <g id="line2d_3">
    <path d="M 7.2 130.586244 
L 31.985934 131.015733 
L 50.445128 131.549253 
L 65.703736 132.208348 
L 81.260073 133.112692 
L 94.360147 133.826768 
L 99.570403 133.88793 
L 103.292015 133.721487 
L 106.269304 133.37767 
L 108.8 132.869273 
L 111.032967 132.194821 
L 113.042637 131.350727 
L 114.829011 130.36174 
L 116.540952 129.153447 
L 118.104029 127.780651 
L 119.592674 126.187886 
L 121.081319 124.267013 
L 122.569963 121.962105 
L 123.984176 119.359319 
L 125.398388 116.292981 
L 126.812601 112.697821 
L 128.226813 108.504549 
L 129.715458 103.366215 
L 131.204103 97.40542 
L 132.767179 90.182772 
L 134.404689 81.492809 
L 136.11663 71.157307 
L 138.051868 58.026286 
L 140.508132 39.682104 
L 144.229744 11.827795 
L 145.643956 2.993646 
L 146.420434 -1 
M 151.444072 -1 
L 152.045128 3.049344 
L 152.789451 9.475972 
L 153.682637 19.268761 
L 154.650256 32.38861 
L 155.841172 51.868618 
L 157.255385 79.018543 
L 159.339487 124.040356 
L 162.391209 189.653007 
L 163.879853 216.775928 
L 165.070769 234.68978 
L 166.112821 247.207874 
L 167.006007 255.487459 
L 167.824762 261.096749 
L 168.494652 264.319805 
L 169.09011 266.199268 
L 169.536703 267.030654 
L 169.908864 267.363784 
L 170.206593 267.405454 
L 170.504322 267.255867 
L 170.876484 266.812476 
L 171.323077 265.92619 
L 171.918535 264.191402 
L 172.662857 261.232679 
L 173.556044 256.702669 
L 174.74696 249.371179 
L 176.384469 237.708245 
L 182.860073 189.979149 
L 184.720879 178.626397 
L 186.432821 169.513543 
L 188.07033 161.972152 
L 189.633407 155.780549 
L 191.196484 150.487005 
L 192.685128 146.194283 
L 194.173773 142.547881 
L 195.662418 139.467942 
L 197.151062 136.880012 
L 198.639707 134.716326 
L 200.202784 132.834845 
L 201.765861 131.292669 
L 203.40337 129.982816 
L 205.115311 128.891862 
L 206.976117 127.970783 
L 208.985788 127.225527 
L 211.218755 126.636387 
L 213.749451 126.200407 
L 216.72674 125.917102 
L 220.373919 125.800308 
L 225.212015 125.882277 
L 232.655238 126.256518 
L 261.013919 127.841642 
L 276.644689 128.404755 
L 295.550476 128.853526 
L 312 129.110071 
L 312 129.110071 
" clip-path="url(#p7f27b31677)" style="fill: none; stroke: #0072b2; stroke-width: 2.5; stroke-linecap: square"/>
   </g>
   <g id="patch_3">
    <path d="M 159.6 243.14 
L 159.6 16.556315 
" style="fill: none; stroke: #000000; stroke-width: 0.8; stroke-linejoin: miter; stroke-linecap: square"/>
   </g>
   <g id="patch_4">
    <path d="M 312 243.14 
L 312 16.556315 
" style="fill: none"/>
   </g>
   <g id="patch_5">
    <path d="M 7.2 129.848158 
L 312 129.848158 
" style="fill: none; stroke: #000000; stroke-width: 0.8; stroke-linejoin: miter; stroke-linecap: square"/>
   </g>
   <g id="patch_6">
    <path d="M 7.2 16.556315 
L 312 16.556315 
" style="fill: none"/>
   </g>
   <g id="legend_1">
    <g id="patch_7">
     <path d="M 219.374426 60.431949 
L 298 60.431949 
Q 302 60.431949 302 56.431949 
L 302 30.556315 
Q 302 26.556315 298 26.556315 
L 219.374426 26.556315 
Q 215.374426 26.556315 215.374426 30.556315 
L 215.374426 56.431949 
Q 215.374426 60.431949 219.374426 60.431949 
z
" style="fill: #ffffff; opacity: 0.8; stroke: #cccccc; stroke-linejoin: miter"/>
    </g>
    <g id="line2d_4">
     <path d="M 223.374426 41.556315 
L 243.374426 41.556315 
L 263.374426 41.556315 
" style="fill: none; stroke: #0072b2; stroke-width: 2.5; stroke-linecap: square"/>
    </g>
    <g id="text_3">
     <!-- $A$ -->
     <g transform="translate(279.374426 48.556315) scale(0.2 -0.2)">
      <defs>
       <path id="CMMI12-41" d="M 1088 691 
C 864 314 646 186 339 186 
C 269 180 218 180 218 58 
C 218 24 250 0 294 0 
C 410 0 698 0 813 0 
C 998 0 1203 0 1382 0 
C 1421 0 1498 0 1498 122 
C 1498 180 1446 186 1408 186 
C 1261 186 1139 236 1139 388 
C 1139 476 1178 546 1261 685 
L 1747 1479 
L 3379 1479 
C 3386 1423 3386 1373 3392 1316 
C 3411 1152 3488 495 3488 376 
C 3488 186 3162 186 3059 186 
C 2989 186 2918 186 2918 70 
C 2918 0 2976 0 3014 0 
C 3123 0 3251 0 3360 0 
L 3725 0 
C 4115 0 4397 0 4403 0 
C 4448 0 4518 0 4518 122 
C 4518 186 4461 186 4365 186 
C 4013 186 4006 244 3987 434 
L 3597 4404 
C 3584 4531 3558 4544 3488 4544 
C 3424 4544 3386 4531 3328 4435 
L 1088 691 
z
M 1856 1664 
L 3142 3819 
L 3360 1664 
L 1856 1664 
z
" transform="scale(0.015625)"/>
      </defs>
      <use xlink:href="#CMMI12-41" transform="scale(0.996264)"/>
     </g>
    </g>
   </g>
  </g>
  <g id="axes_2">
   <g id="patch_8">
    <path d="M 325.8 243.14 
L 630.6 243.14 
L 630.6 16.556315 
L 325.8 16.556315 
L 325.8 243.14 
z
" style="fill: none"/>
   </g>
   <g id="matplotlib.axis_3">
    <g id="text_4">
     <!-- $x$ -->
     <g transform="translate(619.513188 147.685154) scale(0.2 -0.2)">
      <use xlink:href="#CMMI12-78" transform="scale(0.996264)"/>
     </g>
    </g>
   </g>
   <g id="matplotlib.axis_4">
    <g id="text_5">
     <!-- $y$ -->
     <g transform="translate(464.687165 12.680682) scale(0.2 -0.2)">
      <use xlink:href="#CMMI12-79" transform="scale(0.996264)"/>
     </g>
    </g>
   </g>
   <g id="line2d_5">
    <g>
     <use xlink:href="#m7a33a56eb7" x="630.6" y="129.848158" style="stroke: #000000; stroke-linejoin: miter"/>
    </g>
   </g>
   <g id="line2d_6">
    <g>
     <use xlink:href="#maacc94413e" x="478.2" y="16.556315" style="stroke: #000000; stroke-linejoin: miter"/>
    </g>
   </g>
   <g id="line2d_7">
    <path d="M 325.8 129.110071 
L 350.585934 128.680582 
L 369.045128 128.147062 
L 384.303736 127.487967 
L 399.860073 126.583623 
L 412.960147 125.869547 
L 418.170403 125.808386 
L 421.892015 125.974828 
L 424.869304 126.318645 
L 427.4 126.827042 
L 429.632967 127.501494 
L 431.642637 128.345588 
L 433.429011 129.334575 
L 435.140952 130.542869 
L 436.704029 131.915665 
L 438.192674 133.508429 
L 439.681319 135.429302 
L 441.169963 137.734211 
L 442.584176 140.336997 
L 443.998388 143.403334 
L 445.412601 146.998494 
L 446.826813 151.191766 
L 448.315458 156.3301 
L 449.804103 162.290895 
L 451.367179 169.513543 
L 453.004689 178.203506 
L 454.71663 188.539008 
L 456.651868 201.670029 
L 459.108132 220.014211 
L 462.829744 247.86852 
L 464.243956 256.702669 
L 465.286007 261.888824 
L 466.104762 264.912259 
L 466.70022 266.416024 
L 467.221245 267.189545 
L 467.593407 267.405454 
L 467.891136 267.363784 
L 468.263297 267.030654 
L 468.635458 266.371469 
L 469.082051 265.130636 
L 469.603077 263.035637 
L 470.272967 259.273159 
L 471.017289 253.630507 
L 471.836044 245.606962 
L 472.803663 233.680035 
L 473.920147 216.775928 
L 475.185495 194.011023 
L 476.823004 160.258303 
L 481.735531 55.892103 
L 483.075311 33.502133 
L 484.191795 18.366478 
L 485.159414 8.064535 
L 485.978168 1.427106 
L 486.355928 -1 
M 491.379566 -1 
L 492.304908 3.83765 
L 493.495824 11.323117 
L 495.207766 23.666252 
L 501.087912 67.271603 
L 502.948718 78.919047 
L 504.660659 88.310375 
L 506.298168 96.107968 
L 507.861245 102.526429 
L 509.424322 108.025454 
L 510.912967 112.492653 
L 512.401612 116.292981 
L 513.890256 119.507315 
L 515.378901 122.211619 
L 516.867546 124.475403 
L 518.430623 126.446444 
L 519.9937 128.064259 
L 521.631209 129.440489 
L 523.34315 130.588869 
L 525.203956 131.560763 
L 527.213626 132.349762 
L 529.446593 132.976639 
L 531.977289 133.444633 
L 534.880147 133.749425 
L 538.452894 133.891086 
L 543.067692 133.838636 
L 549.98989 133.514152 
L 583.261099 131.703746 
L 599.487326 131.172238 
L 619.584029 130.747102 
L 630.6 130.586244 
L 630.6 130.586244 
" clip-path="url(#p154a1018b1)" style="fill: none; stroke: #0072b2; stroke-width: 2.5; stroke-linecap: square"/>
   </g>
   <g id="patch_9">
    <path d="M 478.2 243.14 
L 478.2 16.556315 
" style="fill: none; stroke: #000000; stroke-width: 0.8; stroke-linejoin: miter; stroke-linecap: square"/>
   </g>
   <g id="patch_10">
    <path d="M 630.6 243.14 
L 630.6 16.556315 
" style="fill: none"/>
   </g>
   <g id="patch_11">
    <path d="M 325.8 129.848158 
L 630.6 129.848158 
" style="fill: none; stroke: #000000; stroke-width: 0.8; stroke-linejoin: miter; stroke-linecap: square"/>
   </g>
   <g id="patch_12">
    <path d="M 325.8 16.556315 
L 630.6 16.556315 
" style="fill: none"/>
   </g>
   <g id="legend_2">
    <g id="patch_13">
     <path d="M 537.778399 60.431949 
L 616.6 60.431949 
Q 620.6 60.431949 620.6 56.431949 
L 620.6 30.556315 
Q 620.6 26.556315 616.6 26.556315 
L 537.778399 26.556315 
Q 533.778399 26.556315 533.778399 30.556315 
L 533.778399 56.431949 
Q 533.778399 60.431949 537.778399 60.431949 
z
" style="fill: #ffffff; opacity: 0.8; stroke: #cccccc; stroke-linejoin: miter"/>
    </g>
    <g id="line2d_8">
     <path d="M 541.778399 41.556315 
L 561.778399 41.556315 
L 581.778399 41.556315 
" style="fill: none; stroke: #0072b2; stroke-width: 2.5; stroke-linecap: square"/>
    </g>
    <g id="text_6">
     <!-- $B$ -->
     <g transform="translate(597.778399 48.556315) scale(0.2 -0.2)">
      <defs>
       <path id="CMMI12-42" d="M 2342 3921 
C 2400 4160 2426 4160 2675 4160 
L 3507 4160 
C 4230 4160 4230 3544 4230 3485 
C 4230 2966 3712 2304 2867 2304 
L 1946 2304 
L 2342 3921 
z
M 3424 2275 
C 4122 2402 4755 2886 4755 3473 
C 4755 3970 4314 4352 3590 4352 
L 1536 4352 
C 1414 4352 1357 4352 1357 4226 
C 1357 4160 1414 4160 1510 4160 
C 1901 4160 1901 4112 1901 4044 
C 1901 4032 1901 3993 1875 3897 
L 1011 472 
C 954 249 941 185 493 185 
C 371 185 307 185 307 70 
C 307 0 346 0 474 0 
L 2669 0 
C 3648 0 4403 739 4403 1383 
C 4403 1906 3942 2224 3424 2275 
z
M 2515 185 
L 1651 185 
C 1562 185 1549 185 1510 192 
C 1440 198 1434 211 1434 261 
C 1434 305 1446 343 1459 399 
L 1907 2176 
L 3110 2176 
C 3866 2176 3866 1483 3866 1433 
C 3866 828 3309 185 2515 185 
z
" transform="scale(0.015625)"/>
      </defs>
      <use xlink:href="#CMMI12-42" transform="scale(0.996264)"/>
     </g>
    </g>
   </g>
  </g>
  <g id="axes_3">
   <g id="patch_14">
    <path d="M 7.2 489.74 
L 312 489.74 
L 312 263.156315 
L 7.2 263.156315 
L 7.2 489.74 
z
" style="fill: none"/>
   </g>
   <g id="matplotlib.axis_5">
    <g id="text_7">
     <!-- $x$ -->
     <g transform="translate(300.913188 394.285154) scale(0.2 -0.2)">
      <use xlink:href="#CMMI12-78" transform="scale(0.996264)"/>
     </g>
    </g>
   </g>
   <g id="matplotlib.axis_6">
    <g id="text_8">
     <!-- $y$ -->
     <g transform="translate(146.087165 259.280682) scale(0.2 -0.2)">
      <use xlink:href="#CMMI12-79" transform="scale(0.996264)"/>
     </g>
    </g>
   </g>
   <g id="line2d_9">
    <g>
     <use xlink:href="#m7a33a56eb7" x="312" y="376.448158" style="stroke: #000000; stroke-linejoin: miter"/>
    </g>
   </g>
   <g id="line2d_10">
    <g>
     <use xlink:href="#maacc94413e" x="159.6" y="263.156315" style="stroke: #000000; stroke-linejoin: miter"/>
    </g>
   </g>
   <g id="line2d_11">
    <path d="M 7.2 391.757866 
L 20.597802 393.142332 
L 32.50696 394.591632 
L 43.150769 396.105675 
L 52.752527 397.690995 
L 61.461099 399.348983 
L 69.49978 401.103655 
L 76.868571 402.936828 
L 83.716337 404.865446 
L 90.191941 406.917181 
L 96.444249 409.131457 
L 102.622125 411.557678 
L 109.097729 414.345107 
L 119.071648 418.930612 
L 124.430769 421.259333 
L 127.78022 422.479458 
L 130.310916 423.178063 
L 132.469451 423.550741 
L 134.330256 423.652468 
L 135.967766 423.530535 
L 137.530842 423.19053 
L 138.945055 422.661435 
L 140.359267 421.889399 
L 141.699048 420.903929 
L 143.038828 419.642052 
L 144.378608 418.075606 
L 145.792821 416.0627 
L 147.207033 413.65458 
L 148.695678 410.671302 
L 150.258755 407.032304 
L 151.970696 402.459004 
L 153.831502 396.837596 
L 156.064469 389.339685 
L 159.190623 377.969387 
L 163.805421 361.233988 
L 166.112821 353.733877 
L 168.048059 348.175031 
L 169.76 343.89303 
L 171.397509 340.378967 
L 172.960586 337.550283 
L 174.449231 335.3135 
L 175.863443 333.575075 
L 177.277656 332.182731 
L 178.691868 331.103656 
L 180.106081 330.304143 
L 181.520293 329.750992 
L 183.008938 329.400067 
L 184.646447 329.24786 
L 186.432821 329.314212 
L 188.442491 329.62196 
L 190.74989 330.209288 
L 193.578315 331.173389 
L 197.225495 332.666771 
L 203.328938 335.444295 
L 213.302857 339.957849 
L 219.704029 342.59616 
L 225.881905 344.901812 
L 232.208645 347.022579 
L 238.758681 348.982334 
L 245.755311 350.840327 
L 253.198535 352.585308 
L 261.311648 354.255591 
L 270.169084 355.847397 
L 279.845275 357.357333 
L 290.563516 358.801424 
L 302.472674 360.178137 
L 312 361.138449 
L 312 361.138449 
" clip-path="url(#p27074095ed)" style="fill: none; stroke: #0072b2; stroke-width: 2.5; stroke-linecap: square"/>
   </g>
   <g id="patch_15">
    <path d="M 159.6 489.74 
L 159.6 263.156315 
" style="fill: none; stroke: #000000; stroke-width: 0.8; stroke-linejoin: miter; stroke-linecap: square"/>
   </g>
   <g id="patch_16">
    <path d="M 312 489.74 
L 312 263.156315 
" style="fill: none"/>
   </g>
   <g id="patch_17">
    <path d="M 7.2 376.448158 
L 312 376.448158 
" style="fill: none; stroke: #000000; stroke-width: 0.8; stroke-linejoin: miter; stroke-linecap: square"/>
   </g>
   <g id="patch_18">
    <path d="M 7.2 263.156315 
L 312 263.156315 
" style="fill: none"/>
   </g>
   <g id="legend_3">
    <g id="patch_19">
     <path d="M 220.041602 307.031949 
L 298 307.031949 
Q 302 307.031949 302 303.031949 
L 302 277.156315 
Q 302 273.156315 298 273.156315 
L 220.041602 273.156315 
Q 216.041602 273.156315 216.041602 277.156315 
L 216.041602 303.031949 
Q 216.041602 307.031949 220.041602 307.031949 
z
" style="fill: #ffffff; opacity: 0.8; stroke: #cccccc; stroke-linejoin: miter"/>
    </g>
    <g id="line2d_12">
     <path d="M 224.041602 288.156315 
L 244.041602 288.156315 
L 264.041602 288.156315 
" style="fill: none; stroke: #0072b2; stroke-width: 2.5; stroke-linecap: square"/>
    </g>
    <g id="text_9">
     <!-- $C$ -->
     <g transform="translate(280.041602 295.156315) scale(0.2 -0.2)">
      <defs>
       <path id="CMMI12-43" d="M 4781 4423 
C 4781 4480 4736 4480 4723 4480 
C 4710 4480 4685 4480 4634 4416 
L 4192 3882 
C 3968 4264 3616 4480 3136 4480 
C 1754 4480 320 3088 320 1595 
C 320 533 1069 -128 2003 -128 
C 2515 -128 2963 88 3334 400 
C 3891 863 4058 1481 4058 1531 
C 4058 1588 4006 1588 3987 1588 
C 3930 1588 3923 1550 3910 1524 
C 3616 534 2752 57 2112 57 
C 1434 57 845 489 845 1391 
C 845 1595 909 2700 1632 3532 
C 1984 3939 2586 4295 3194 4295 
C 3898 4295 4211 3717 4211 3068 
C 4211 2903 4192 2764 4192 2738 
C 4192 2681 4256 2681 4275 2681 
C 4346 2681 4352 2687 4378 2801 
L 4781 4423 
z
" transform="scale(0.015625)"/>
      </defs>
      <use xlink:href="#CMMI12-43" transform="scale(0.996264)"/>
     </g>
    </g>
   </g>
  </g>
  <g id="axes_4">
   <g id="patch_20">
    <path d="M 325.8 489.74 
L 630.6 489.74 
L 630.6 263.156315 
L 325.8 263.156315 
L 325.8 489.74 
z
" style="fill: none"/>
   </g>
   <g id="matplotlib.axis_7">
    <g id="text_10">
     <!-- $x$ -->
     <g transform="translate(619.513188 394.285154) scale(0.2 -0.2)">
      <use xlink:href="#CMMI12-78" transform="scale(0.996264)"/>
     </g>
    </g>
   </g>
   <g id="matplotlib.axis_8">
    <g id="text_11">
     <!-- $y$ -->
     <g transform="translate(464.687165 259.280682) scale(0.2 -0.2)">
      <use xlink:href="#CMMI12-79" transform="scale(0.996264)"/>
     </g>
    </g>
   </g>
   <g id="line2d_13">
    <g>
     <use xlink:href="#m7a33a56eb7" x="630.6" y="376.448158" style="stroke: #000000; stroke-linejoin: miter"/>
    </g>
   </g>
   <g id="line2d_14">
    <g>
     <use xlink:href="#maacc94413e" x="478.2" y="263.156315" style="stroke: #000000; stroke-linejoin: miter"/>
    </g>
   </g>
   <g id="line2d_15">
    <path d="M 325.8 361.138449 
L 339.197802 359.753983 
L 351.10696 358.304683 
L 361.750769 356.790641 
L 371.352527 355.205321 
L 380.061099 353.547332 
L 388.09978 351.792661 
L 395.468571 349.959488 
L 402.316337 348.030869 
L 408.791941 345.979134 
L 415.044249 343.764858 
L 421.222125 341.338637 
L 427.697729 338.551208 
L 437.671648 333.965704 
L 443.030769 331.636983 
L 446.38022 330.416857 
L 448.910916 329.718252 
L 451.069451 329.345574 
L 452.930256 329.243847 
L 454.567766 329.365781 
L 456.130842 329.705785 
L 457.545055 330.23488 
L 458.959267 331.006916 
L 460.299048 331.992386 
L 461.638828 333.254263 
L 462.978608 334.820709 
L 464.392821 336.833615 
L 465.807033 339.241736 
L 467.295678 342.225013 
L 468.858755 345.864011 
L 470.570696 350.437311 
L 472.431502 356.058719 
L 474.664469 363.556631 
L 477.790623 374.926928 
L 482.405421 391.662327 
L 484.712821 399.162438 
L 486.648059 404.721284 
L 488.36 409.003285 
L 489.997509 412.517348 
L 491.560586 415.346032 
L 493.049231 417.582815 
L 494.463443 419.32124 
L 495.877656 420.713584 
L 497.291868 421.792659 
L 498.706081 422.592172 
L 500.120293 423.145323 
L 501.608938 423.496249 
L 503.246447 423.648455 
L 505.032821 423.582104 
L 507.042491 423.274355 
L 509.34989 422.687028 
L 512.178315 421.722926 
L 515.825495 420.229544 
L 521.928938 417.452021 
L 531.902857 412.938466 
L 538.304029 410.300155 
L 544.481905 407.994503 
L 550.808645 405.873736 
L 557.358681 403.913981 
L 564.355311 402.055988 
L 571.798535 400.311008 
L 579.911648 398.640724 
L 588.769084 397.048918 
L 598.445275 395.538982 
L 609.163516 394.094891 
L 621.072674 392.718178 
L 630.6 391.757866 
L 630.6 391.757866 
" clip-path="url(#p6b27e39b9d)" style="fill: none; stroke: #0072b2; stroke-width: 2.5; stroke-linecap: square"/>
   </g>
   <g id="patch_21">
    <path d="M 478.2 489.74 
L 478.2 263.156315 
" style="fill: none; stroke: #000000; stroke-width: 0.8; stroke-linejoin: miter; stroke-linecap: square"/>
   </g>
   <g id="patch_22">
    <path d="M 630.6 489.74 
L 630.6 263.156315 
" style="fill: none"/>
   </g>
   <g id="patch_23">
    <path d="M 325.8 376.448158 
L 630.6 376.448158 
" style="fill: none; stroke: #000000; stroke-width: 0.8; stroke-linejoin: miter; stroke-linecap: square"/>
   </g>
   <g id="patch_24">
    <path d="M 325.8 263.156315 
L 630.6 263.156315 
" style="fill: none"/>
   </g>
   <g id="legend_4">
    <g id="patch_25">
     <path d="M 536.401163 307.031949 
L 616.6 307.031949 
Q 620.6 307.031949 620.6 303.031949 
L 620.6 277.156315 
Q 620.6 273.156315 616.6 273.156315 
L 536.401163 273.156315 
Q 532.401163 273.156315 532.401163 277.156315 
L 532.401163 303.031949 
Q 532.401163 307.031949 536.401163 307.031949 
z
" style="fill: #ffffff; opacity: 0.8; stroke: #cccccc; stroke-linejoin: miter"/>
    </g>
    <g id="line2d_16">
     <path d="M 540.401163 288.156315 
L 560.401163 288.156315 
L 580.401163 288.156315 
" style="fill: none; stroke: #0072b2; stroke-width: 2.5; stroke-linecap: square"/>
    </g>
    <g id="text_12">
     <!-- $D$ -->
     <g transform="translate(596.401163 295.156315) scale(0.2 -0.2)">
      <defs>
       <path id="CMMI12-44" d="M 1005 472 
C 947 249 934 185 486 185 
C 365 185 301 185 301 70 
C 301 0 339 0 467 0 
L 2496 0 
C 3789 0 5050 1332 5050 2753 
C 5050 3671 4499 4352 3584 4352 
L 1530 4352 
C 1408 4352 1350 4352 1350 4231 
C 1350 4167 1408 4167 1504 4167 
C 1894 4167 1894 4116 1894 4046 
C 1894 4034 1894 3995 1869 3899 
L 1005 472 
z
M 2355 3931 
C 2413 4167 2438 4167 2688 4167 
L 3392 4167 
C 3994 4167 4544 3842 4544 2963 
C 4544 2644 4416 1536 3795 835 
C 3616 625 3130 185 2394 185 
L 1664 185 
C 1574 185 1562 185 1523 192 
C 1453 198 1446 211 1446 262 
C 1446 307 1459 345 1472 402 
L 2355 3931 
z
" transform="scale(0.015625)"/>
      </defs>
      <use xlink:href="#CMMI12-44" transform="scale(0.996264)"/>
     </g>
    </g>
   </g>
  </g>
 </g>
 <defs>
  <clipPath id="p7f27b31677">
   <rect x="7.2" y="16.556315" width="304.8" height="226.583685"/>
  </clipPath>
  <clipPath id="p154a1018b1">
   <rect x="325.8" y="16.556315" width="304.8" height="226.583685"/>
  </clipPath>
  <clipPath id="p27074095ed">
   <rect x="7.2" y="263.156315" width="304.8" height="226.583685"/>
  </clipPath>
  <clipPath id="p6b27e39b9d">
   <rect x="325.8" y="263.156315" width="304.8" height="226.583685"/>
  </clipPath>
 </defs>
</svg>
