<?xml version="1.0" encoding="utf-8" standalone="no"?>
<!DOCTYPE svg PUBLIC "-//W3C//DTD SVG 1.1//EN"
  "http://www.w3.org/Graphics/SVG/1.1/DTD/svg11.dtd">
<svg xmlns:xlink="http://www.w3.org/1999/xlink" width="640.8pt" height="497.12pt" viewBox="0 0 640.8 497.12" xmlns="http://www.w3.org/2000/svg" version="1.1">
 <metadata>
  <rdf:RDF xmlns:dc="http://purl.org/dc/elements/1.1/" xmlns:cc="http://creativecommons.org/ns#" xmlns:rdf="http://www.w3.org/1999/02/22-rdf-syntax-ns#">
   <cc:Work>
    <dc:type rdf:resource="http://purl.org/dc/dcmitype/StillImage"/>
    <dc:date>2025-12-06T17:27:56.851643</dc:date>
    <dc:format>image/svg+xml</dc:format>
    <dc:creator>
     <cc:Agent>
      <dc:title>Matplotlib v3.9.1, https://matplotlib.org/</dc:title>
     </cc:Agent>
    </dc:creator>
   </cc:Work>
  </rdf:RDF>
 </metadata>
 <defs>
  <style type="text/css">*{stroke-linejoin: round; stroke-linecap: butt}</style>
 </defs>
 <g id="figure_1">
  <g id="patch_1">
   <path d="M 0 497.12 
L 640.8 497.12 
L 640.8 0 
L 0 0 
L 0 497.12 
z
" style="fill: none"/>
  </g>
  <g id="axes_1">
   <g id="patch_2">
    <path d="M 7.2 243.32 
L 312 243.32 
L 312 16.556315 
L 7.2 16.556315 
L 7.2 243.32 
z
" style="fill: none"/>
   </g>
   <g id="matplotlib.axis_1">
    <g id="text_1">
     <!-- $x$ -->
     <g transform="translate(300.913188 147.775154) scale(0.2 -0.2)">
      <defs>
       <path id="CMMI12-78" d="M 3034 2606 
C 2829 2567 2752 2414 2752 2293 
C 2752 2139 2874 2088 2963 2088 
C 3155 2088 3290 2254 3290 2427 
C 3290 2695 2982 2816 2714 2816 
C 2323 2816 2106 2433 2048 2312 
C 1901 2816 1504 2816 1389 2816 
C 736 2816 390 1980 390 1839 
C 390 1814 416 1782 461 1782 
C 512 1782 525 1820 538 1846 
C 755 2555 1184 2689 1370 2689 
C 1658 2689 1715 2420 1715 2267 
C 1715 2127 1677 1980 1600 1673 
L 1382 798 
C 1286 415 1101 64 762 64 
C 730 64 570 64 435 147 
C 666 192 717 383 717 460 
C 717 588 621 664 499 664 
C 346 664 179 530 179 326 
C 179 57 480 -64 755 -64 
C 1062 -64 1280 179 1414 441 
C 1517 64 1837 -64 2074 -64 
C 2726 -64 3072 773 3072 913 
C 3072 945 3046 971 3008 971 
C 2950 971 2944 939 2925 888 
C 2752 326 2381 64 2093 64 
C 1869 64 1747 230 1747 492 
C 1747 632 1773 734 1875 1156 
L 2099 2024 
C 2195 2408 2413 2689 2707 2689 
C 2720 2689 2899 2689 3034 2606 
z
" transform="scale(0.015625)"/>
      </defs>
      <use xlink:href="#CMMI12-78" transform="scale(0.996264)"/>
     </g>
    </g>
   </g>
   <g id="matplotlib.axis_2">
    <g id="text_2">
     <!-- $y$ -->
     <g transform="translate(115.607165 12.680682) scale(0.2 -0.2)">
      <defs>
       <path id="CMMI12-79" d="M 1683 -700 
C 1510 -939 1261 -1152 947 -1152 
C 870 -1152 563 -1152 467 -889 
C 486 -895 518 -895 531 -895 
C 723 -895 851 -729 851 -582 
C 851 -435 730 -384 634 -384 
C 531 -384 307 -458 307 -759 
C 307 -1071 582 -1286 947 -1286 
C 1587 -1286 2234 -700 2413 6 
L 3040 2485 
C 3046 2517 3059 2556 3059 2594 
C 3059 2689 2982 2753 2886 2753 
C 2829 2753 2694 2727 2643 2535 
L 2170 658 
C 2138 543 2138 530 2086 460 
C 1958 281 1747 64 1440 64 
C 1082 64 1050 415 1050 588 
C 1050 952 1222 1443 1395 1903 
C 1466 2088 1504 2178 1504 2305 
C 1504 2574 1312 2816 998 2816 
C 410 2816 173 1890 173 1839 
C 173 1814 198 1782 243 1782 
C 301 1782 307 1807 333 1897 
C 486 2433 730 2689 979 2689 
C 1037 2689 1146 2689 1146 2478 
C 1146 2312 1075 2127 979 1884 
C 666 1047 666 837 666 683 
C 666 77 1101 -64 1421 -64 
C 1606 -64 1837 -6 2061 230 
L 2067 224 
C 1971 -147 1907 -392 1683 -700 
z
" transform="scale(0.015625)"/>
      </defs>
      <use xlink:href="#CMMI12-79" transform="scale(0.996264)"/>
     </g>
    </g>
   </g>
   <g id="line2d_1">
    <defs>
     <path id="m796ae43ee4" d="M 3 0 
L -3 -3 
L -3 3 
z
" style="stroke: #000000; stroke-linejoin: miter"/>
    </defs>
    <g>
     <use xlink:href="#m796ae43ee4" x="312" y="129.938158" style="stroke: #000000; stroke-linejoin: miter"/>
    </g>
   </g>
   <g id="line2d_2">
    <defs>
     <path id="mf75bcfca7b" d="M 0 -3 
L -3 3 
L 3 3 
z
" style="stroke: #000000; stroke-linejoin: miter"/>
    </defs>
    <g>
     <use xlink:href="#mf75bcfca7b" x="129.12" y="16.556315" style="stroke: #000000; stroke-linejoin: miter"/>
    </g>
   </g>
   <g id="line2d_3">
    <path d="M 7.2 221.341485 
L 13.898901 218.923178 
L 20.374505 216.350141 
L 26.626813 213.628621 
L 32.730256 210.730543 
L 38.684835 207.658005 
L 44.564982 204.372019 
L 50.296264 200.915713 
L 56.027546 197.197948 
L 61.684396 193.262917 
L 67.341245 189.057369 
L 73.072527 184.517097 
L 78.878242 179.632159 
L 84.832821 174.330978 
L 91.15956 168.394722 
L 98.007326 161.657696 
L 106.269304 153.200042 
L 125.175092 133.713226 
L 130.162051 128.977603 
L 134.181392 125.455178 
L 137.605275 122.735994 
L 140.656996 120.587565 
L 143.410989 118.917781 
L 145.867253 117.68123 
L 148.10022 116.794426 
L 150.184322 116.196918 
L 152.11956 115.863882 
L 153.980366 115.766133 
L 155.76674 115.89735 
L 157.478681 116.24876 
L 159.11619 116.809177 
L 160.7537 117.606733 
L 162.391209 118.66013 
L 164.028718 119.989258 
L 165.666227 121.615257 
L 167.303736 123.5606 
L 168.941245 125.849162 
L 170.653187 128.636276 
L 172.365128 131.857082 
L 174.151502 135.715836 
L 175.937875 140.122322 
L 177.724249 145.118965 
L 179.585055 151.000187 
L 181.445861 157.62555 
L 183.381099 165.368171 
L 185.316337 174.04926 
L 187.251575 183.744233 
L 189.261245 194.971903 
L 191.270916 207.477214 
L 193.355018 221.906732 
L 195.439121 237.947462 
L 197.523223 255.733948 
L 199.607326 275.410968 
L 201.765861 297.950031 
L 203.924396 322.870645 
L 206.08293 350.373805 
L 208.315897 381.77381 
L 210.548864 416.428456 
L 212.781832 454.617512 
L 215.014799 496.643218 
L 215.089539 498.12 
L 215.089539 498.12 
" clip-path="url(#pd651e0ba07)" style="fill: none; stroke: #0072b2; stroke-width: 2.5; stroke-linecap: square"/>
   </g>
   <g id="patch_3">
    <path d="M 129.12 243.32 
L 129.12 16.556315 
" style="fill: none; stroke: #000000; stroke-width: 0.8; stroke-linejoin: miter; stroke-linecap: square"/>
   </g>
   <g id="patch_4">
    <path d="M 312 243.32 
L 312 16.556315 
" style="fill: none"/>
   </g>
   <g id="patch_5">
    <path d="M 7.2 129.938158 
L 312 129.938158 
" style="fill: none; stroke: #000000; stroke-width: 0.8; stroke-linejoin: miter; stroke-linecap: square"/>
   </g>
   <g id="patch_6">
    <path d="M 7.2 16.556315 
L 312 16.556315 
" style="fill: none"/>
   </g>
   <g id="legend_1">
    <g id="patch_7">
     <path d="M 219.374426 60.431949 
L 298 60.431949 
Q 302 60.431949 302 56.431949 
L 302 30.556315 
Q 302 26.556315 298 26.556315 
L 219.374426 26.556315 
Q 215.374426 26.556315 215.374426 30.556315 
L 215.374426 56.431949 
Q 215.374426 60.431949 219.374426 60.431949 
z
" style="fill: #ffffff; opacity: 0.8; stroke: #cccccc; stroke-linejoin: miter"/>
    </g>
    <g id="line2d_4">
     <path d="M 223.374426 41.556315 
L 243.374426 41.556315 
L 263.374426 41.556315 
" style="fill: none; stroke: #0072b2; stroke-width: 2.5; stroke-linecap: square"/>
    </g>
    <g id="text_3">
     <!-- $A$ -->
     <g transform="translate(279.374426 48.556315) scale(0.2 -0.2)">
      <defs>
       <path id="CMMI12-41" d="M 1088 691 
C 864 314 646 186 339 186 
C 269 180 218 180 218 58 
C 218 24 250 0 294 0 
C 410 0 698 0 813 0 
C 998 0 1203 0 1382 0 
C 1421 0 1498 0 1498 122 
C 1498 180 1446 186 1408 186 
C 1261 186 1139 236 1139 388 
C 1139 476 1178 546 1261 685 
L 1747 1479 
L 3379 1479 
C 3386 1423 3386 1373 3392 1316 
C 3411 1152 3488 495 3488 376 
C 3488 186 3162 186 3059 186 
C 2989 186 2918 186 2918 70 
C 2918 0 2976 0 3014 0 
C 3123 0 3251 0 3360 0 
L 3725 0 
C 4115 0 4397 0 4403 0 
C 4448 0 4518 0 4518 122 
C 4518 186 4461 186 4365 186 
C 4013 186 4006 244 3987 434 
L 3597 4404 
C 3584 4531 3558 4544 3488 4544 
C 3424 4544 3386 4531 3328 4435 
L 1088 691 
z
M 1856 1664 
L 3142 3819 
L 3360 1664 
L 1856 1664 
z
" transform="scale(0.015625)"/>
      </defs>
      <use xlink:href="#CMMI12-41" transform="scale(0.996264)"/>
     </g>
    </g>
   </g>
  </g>
  <g id="axes_2">
   <g id="patch_8">
    <path d="M 325.8 243.32 
L 630.6 243.32 
L 630.6 16.556315 
L 325.8 16.556315 
L 325.8 243.32 
z
" style="fill: none"/>
   </g>
   <g id="matplotlib.axis_3">
    <g id="text_4">
     <!-- $x$ -->
     <g transform="translate(619.513188 147.775154) scale(0.2 -0.2)">
      <use xlink:href="#CMMI12-78" transform="scale(0.996264)"/>
     </g>
    </g>
   </g>
   <g id="matplotlib.axis_4">
    <g id="text_5">
     <!-- $y$ -->
     <g transform="translate(434.207165 12.680682) scale(0.2 -0.2)">
      <use xlink:href="#CMMI12-79" transform="scale(0.996264)"/>
     </g>
    </g>
   </g>
   <g id="line2d_5">
    <g>
     <use xlink:href="#m796ae43ee4" x="630.6" y="129.938158" style="stroke: #000000; stroke-linejoin: miter"/>
    </g>
   </g>
   <g id="line2d_6">
    <g>
     <use xlink:href="#mf75bcfca7b" x="447.72" y="16.556315" style="stroke: #000000; stroke-linejoin: miter"/>
    </g>
   </g>
   <g id="line2d_7">
    <path d="M 325.8 38.53483 
L 332.498901 40.953137 
L 338.974505 43.526174 
L 345.226813 46.247694 
L 351.330256 49.145772 
L 357.284835 52.21831 
L 363.164982 55.504296 
L 368.896264 58.960603 
L 374.627546 62.678367 
L 380.284396 66.613398 
L 385.941245 70.818946 
L 391.672527 75.359218 
L 397.478242 80.244157 
L 403.432821 85.545337 
L 409.75956 91.481594 
L 416.607326 98.218619 
L 424.869304 106.676273 
L 443.775092 126.163089 
L 448.762051 130.898712 
L 452.781392 134.421137 
L 456.205275 137.140321 
L 459.256996 139.28875 
L 462.010989 140.958534 
L 464.467253 142.195085 
L 466.70022 143.081889 
L 468.784322 143.679397 
L 470.71956 144.012433 
L 472.580366 144.110182 
L 474.36674 143.978966 
L 476.078681 143.627556 
L 477.71619 143.067139 
L 479.3537 142.269583 
L 480.991209 141.216185 
L 482.628718 139.887057 
L 484.266227 138.261058 
L 485.903736 136.315715 
L 487.541245 134.027153 
L 489.253187 131.240039 
L 490.965128 128.019233 
L 492.751502 124.160479 
L 494.537875 119.753993 
L 496.324249 114.75735 
L 498.185055 108.876129 
L 500.045861 102.250765 
L 501.981099 94.508144 
L 503.916337 85.827055 
L 505.851575 76.132083 
L 507.861245 64.904412 
L 509.870916 52.399101 
L 511.955018 37.969583 
L 514.039121 21.928853 
L 516.123223 4.142367 
L 516.688303 -1 
L 516.688303 -1 
" clip-path="url(#peadceee349)" style="fill: none; stroke: #0072b2; stroke-width: 2.5; stroke-linecap: square"/>
   </g>
   <g id="patch_9">
    <path d="M 447.72 243.32 
L 447.72 16.556315 
" style="fill: none; stroke: #000000; stroke-width: 0.8; stroke-linejoin: miter; stroke-linecap: square"/>
   </g>
   <g id="patch_10">
    <path d="M 630.6 243.32 
L 630.6 16.556315 
" style="fill: none"/>
   </g>
   <g id="patch_11">
    <path d="M 325.8 129.938158 
L 630.6 129.938158 
" style="fill: none; stroke: #000000; stroke-width: 0.8; stroke-linejoin: miter; stroke-linecap: square"/>
   </g>
   <g id="patch_12">
    <path d="M 325.8 16.556315 
L 630.6 16.556315 
" style="fill: none"/>
   </g>
   <g id="legend_2">
    <g id="patch_13">
     <path d="M 537.778399 60.431949 
L 616.6 60.431949 
Q 620.6 60.431949 620.6 56.431949 
L 620.6 30.556315 
Q 620.6 26.556315 616.6 26.556315 
L 537.778399 26.556315 
Q 533.778399 26.556315 533.778399 30.556315 
L 533.778399 56.431949 
Q 533.778399 60.431949 537.778399 60.431949 
z
" style="fill: #ffffff; opacity: 0.8; stroke: #cccccc; stroke-linejoin: miter"/>
    </g>
    <g id="line2d_8">
     <path d="M 541.778399 41.556315 
L 561.778399 41.556315 
L 581.778399 41.556315 
" style="fill: none; stroke: #0072b2; stroke-width: 2.5; stroke-linecap: square"/>
    </g>
    <g id="text_6">
     <!-- $B$ -->
     <g transform="translate(597.778399 48.556315) scale(0.2 -0.2)">
      <defs>
       <path id="CMMI12-42" d="M 2342 3921 
C 2400 4160 2426 4160 2675 4160 
L 3507 4160 
C 4230 4160 4230 3544 4230 3485 
C 4230 2966 3712 2304 2867 2304 
L 1946 2304 
L 2342 3921 
z
M 3424 2275 
C 4122 2402 4755 2886 4755 3473 
C 4755 3970 4314 4352 3590 4352 
L 1536 4352 
C 1414 4352 1357 4352 1357 4226 
C 1357 4160 1414 4160 1510 4160 
C 1901 4160 1901 4112 1901 4044 
C 1901 4032 1901 3993 1875 3897 
L 1011 472 
C 954 249 941 185 493 185 
C 371 185 307 185 307 70 
C 307 0 346 0 474 0 
L 2669 0 
C 3648 0 4403 739 4403 1383 
C 4403 1906 3942 2224 3424 2275 
z
M 2515 185 
L 1651 185 
C 1562 185 1549 185 1510 192 
C 1440 198 1434 211 1434 261 
C 1434 305 1446 343 1459 399 
L 1907 2176 
L 3110 2176 
C 3866 2176 3866 1483 3866 1433 
C 3866 828 3309 185 2515 185 
z
" transform="scale(0.015625)"/>
      </defs>
      <use xlink:href="#CMMI12-42" transform="scale(0.996264)"/>
     </g>
    </g>
   </g>
  </g>
  <g id="axes_3">
   <g id="patch_14">
    <path d="M 7.2 489.92 
L 312 489.92 
L 312 263.156315 
L 7.2 263.156315 
L 7.2 489.92 
z
" style="fill: none"/>
   </g>
   <g id="matplotlib.axis_5">
    <g id="text_7">
     <!-- $x$ -->
     <g transform="translate(300.913188 394.375154) scale(0.2 -0.2)">
      <use xlink:href="#CMMI12-78" transform="scale(0.996264)"/>
     </g>
    </g>
   </g>
   <g id="matplotlib.axis_6">
    <g id="text_8">
     <!-- $y$ -->
     <g transform="translate(115.607165 259.280682) scale(0.2 -0.2)">
      <use xlink:href="#CMMI12-79" transform="scale(0.996264)"/>
     </g>
    </g>
   </g>
   <g id="line2d_9">
    <g>
     <use xlink:href="#m796ae43ee4" x="312" y="376.538158" style="stroke: #000000; stroke-linejoin: miter"/>
    </g>
   </g>
   <g id="line2d_10">
    <g>
     <use xlink:href="#mf75bcfca7b" x="129.12" y="263.156315" style="stroke: #000000; stroke-linejoin: miter"/>
    </g>
   </g>
   <g id="line2d_11">
    <path d="M 59.14683 -1 
L 61.758828 36.441036 
L 64.363956 70.716715 
L 66.969084 102.145812 
L 69.574212 130.930523 
L 72.179341 157.260106 
L 74.710037 180.654537 
L 77.240733 202.05128 
L 79.771429 221.592729 
L 82.302125 239.412245 
L 84.758388 255.179234 
L 87.214652 269.54869 
L 89.670916 282.620861 
L 92.127179 294.489686 
L 94.509011 304.932876 
L 96.890842 314.402517 
L 99.272674 322.969137 
L 101.654505 330.698859 
L 103.961905 337.447458 
L 106.269304 343.521647 
L 108.576703 348.970994 
L 110.80967 353.693434 
L 113.042637 357.913787 
L 115.275604 361.669185 
L 117.508571 364.994481 
L 119.741538 367.922376 
L 121.974505 370.483537 
L 124.207473 372.70671 
L 126.44044 374.618825 
L 128.673407 376.245099 
L 130.980806 377.650347 
L 133.288205 378.7999 
L 135.670037 379.74238 
L 138.1263 380.478843 
L 140.731429 381.024736 
L 143.410989 381.360534 
L 146.313846 381.495985 
L 149.365568 381.414712 
L 152.715018 381.098956 
L 156.362198 380.528641 
L 160.455971 379.659746 
L 165.219634 378.412913 
L 171.025348 376.650322 
L 179.064029 373.955856 
L 199.458462 367.032774 
L 207.422711 364.619187 
L 214.71707 362.63913 
L 221.7137 360.969452 
L 228.561465 359.561826 
L 235.409231 358.378873 
L 242.405861 357.396754 
L 249.551355 356.619537 
L 256.920147 356.04195 
L 264.661099 355.660302 
L 272.848645 355.482728 
L 281.557216 355.518399 
L 291.084542 355.784311 
L 301.579487 356.303584 
L 312 357.005056 
L 312 357.005056 
" clip-path="url(#p23939dfe8b)" style="fill: none; stroke: #0072b2; stroke-width: 2.5; stroke-linecap: square"/>
   </g>
   <g id="patch_15">
    <path d="M 129.12 489.92 
L 129.12 263.156315 
" style="fill: none; stroke: #000000; stroke-width: 0.8; stroke-linejoin: miter; stroke-linecap: square"/>
   </g>
   <g id="patch_16">
    <path d="M 312 489.92 
L 312 263.156315 
" style="fill: none"/>
   </g>
   <g id="patch_17">
    <path d="M 7.2 376.538158 
L 312 376.538158 
" style="fill: none; stroke: #000000; stroke-width: 0.8; stroke-linejoin: miter; stroke-linecap: square"/>
   </g>
   <g id="patch_18">
    <path d="M 7.2 263.156315 
L 312 263.156315 
" style="fill: none"/>
   </g>
   <g id="legend_3">
    <g id="patch_19">
     <path d="M 220.041602 307.031949 
L 298 307.031949 
Q 302 307.031949 302 303.031949 
L 302 277.156315 
Q 302 273.156315 298 273.156315 
L 220.041602 273.156315 
Q 216.041602 273.156315 216.041602 277.156315 
L 216.041602 303.031949 
Q 216.041602 307.031949 220.041602 307.031949 
z
" style="fill: #ffffff; opacity: 0.8; stroke: #cccccc; stroke-linejoin: miter"/>
    </g>
    <g id="line2d_12">
     <path d="M 224.041602 288.156315 
L 244.041602 288.156315 
L 264.041602 288.156315 
" style="fill: none; stroke: #0072b2; stroke-width: 2.5; stroke-linecap: square"/>
    </g>
    <g id="text_9">
     <!-- $C$ -->
     <g transform="translate(280.041602 295.156315) scale(0.2 -0.2)">
      <defs>
       <path id="CMMI12-43" d="M 4781 4423 
C 4781 4480 4736 4480 4723 4480 
C 4710 4480 4685 4480 4634 4416 
L 4192 3882 
C 3968 4264 3616 4480 3136 4480 
C 1754 4480 320 3088 320 1595 
C 320 533 1069 -128 2003 -128 
C 2515 -128 2963 88 3334 400 
C 3891 863 4058 1481 4058 1531 
C 4058 1588 4006 1588 3987 1588 
C 3930 1588 3923 1550 3910 1524 
C 3616 534 2752 57 2112 57 
C 1434 57 845 489 845 1391 
C 845 1595 909 2700 1632 3532 
C 1984 3939 2586 4295 3194 4295 
C 3898 4295 4211 3717 4211 3068 
C 4211 2903 4192 2764 4192 2738 
C 4192 2681 4256 2681 4275 2681 
C 4346 2681 4352 2687 4378 2801 
L 4781 4423 
z
" transform="scale(0.015625)"/>
      </defs>
      <use xlink:href="#CMMI12-43" transform="scale(0.996264)"/>
     </g>
    </g>
   </g>
  </g>
  <g id="axes_4">
   <g id="patch_20">
    <path d="M 325.8 489.92 
L 630.6 489.92 
L 630.6 263.156315 
L 325.8 263.156315 
L 325.8 489.92 
z
" style="fill: none"/>
   </g>
   <g id="matplotlib.axis_7">
    <g id="text_10">
     <!-- $x$ -->
     <g transform="translate(619.513188 394.375154) scale(0.2 -0.2)">
      <use xlink:href="#CMMI12-78" transform="scale(0.996264)"/>
     </g>
    </g>
   </g>
   <g id="matplotlib.axis_8">
    <g id="text_11">
     <!-- $y$ -->
     <g transform="translate(434.207165 259.280682) scale(0.2 -0.2)">
      <use xlink:href="#CMMI12-79" transform="scale(0.996264)"/>
     </g>
    </g>
   </g>
   <g id="line2d_13">
    <g>
     <use xlink:href="#m796ae43ee4" x="630.6" y="376.538158" style="stroke: #000000; stroke-linejoin: miter"/>
    </g>
   </g>
   <g id="line2d_14">
    <g>
     <use xlink:href="#mf75bcfca7b" x="447.72" y="263.156315" style="stroke: #000000; stroke-linejoin: miter"/>
    </g>
   </g>
   <g id="line2d_15">
    <path d="M 403.32206 498.12 
L 405.74022 483.943513 
L 408.196484 470.833442 
L 410.652747 458.929474 
L 413.034579 448.454673 
L 415.41641 438.9557 
L 417.798242 430.361884 
L 420.180073 422.606968 
L 422.487473 415.835753 
L 424.794872 409.740599 
L 427.102271 404.271837 
L 429.335238 399.531994 
L 431.568205 395.295516 
L 433.801172 391.525194 
L 436.034139 388.186099 
L 438.267106 385.245462 
L 440.500073 382.67255 
L 442.73304 380.438555 
L 444.966007 378.516487 
L 447.198974 376.881073 
L 449.506374 375.467182 
L 451.813773 374.309743 
L 454.195604 373.359864 
L 456.651868 372.616505 
L 459.256996 372.064051 
L 461.936557 371.722252 
L 464.839414 371.581082 
L 467.891136 371.657144 
L 471.240586 371.968035 
L 474.887766 372.533959 
L 478.981538 373.398923 
L 483.745201 374.642328 
L 489.476484 376.378315 
L 497.440733 379.043424 
L 518.281758 386.114392 
L 526.246007 388.521184 
L 533.540366 390.494023 
L 540.536996 392.156321 
L 547.384762 393.556593 
L 554.30696 394.743842 
L 561.30359 395.716414 
L 568.449084 396.48441 
L 575.817875 397.053173 
L 583.558828 397.426385 
L 591.746374 397.59601 
L 600.529377 397.551724 
L 610.056703 397.277361 
L 620.626081 396.746125 
L 630.6 396.071259 
L 630.6 396.071259 
" clip-path="url(#pa92f409f53)" style="fill: none; stroke: #0072b2; stroke-width: 2.5; stroke-linecap: square"/>
   </g>
   <g id="patch_21">
    <path d="M 447.72 489.92 
L 447.72 263.156315 
" style="fill: none; stroke: #000000; stroke-width: 0.8; stroke-linejoin: miter; stroke-linecap: square"/>
   </g>
   <g id="patch_22">
    <path d="M 630.6 489.92 
L 630.6 263.156315 
" style="fill: none"/>
   </g>
   <g id="patch_23">
    <path d="M 325.8 376.538158 
L 630.6 376.538158 
" style="fill: none; stroke: #000000; stroke-width: 0.8; stroke-linejoin: miter; stroke-linecap: square"/>
   </g>
   <g id="patch_24">
    <path d="M 325.8 263.156315 
L 630.6 263.156315 
" style="fill: none"/>
   </g>
   <g id="legend_4">
    <g id="patch_25">
     <path d="M 536.401163 307.031949 
L 616.6 307.031949 
Q 620.6 307.031949 620.6 303.031949 
L 620.6 277.156315 
Q 620.6 273.156315 616.6 273.156315 
L 536.401163 273.156315 
Q 532.401163 273.156315 532.401163 277.156315 
L 532.401163 303.031949 
Q 532.401163 307.031949 536.401163 307.031949 
z
" style="fill: #ffffff; opacity: 0.8; stroke: #cccccc; stroke-linejoin: miter"/>
    </g>
    <g id="line2d_16">
     <path d="M 540.401163 288.156315 
L 560.401163 288.156315 
L 580.401163 288.156315 
" style="fill: none; stroke: #0072b2; stroke-width: 2.5; stroke-linecap: square"/>
    </g>
    <g id="text_12">
     <!-- $D$ -->
     <g transform="translate(596.401163 295.156315) scale(0.2 -0.2)">
      <defs>
       <path id="CMMI12-44" d="M 1005 472 
C 947 249 934 185 486 185 
C 365 185 301 185 301 70 
C 301 0 339 0 467 0 
L 2496 0 
C 3789 0 5050 1332 5050 2753 
C 5050 3671 4499 4352 3584 4352 
L 1530 4352 
C 1408 4352 1350 4352 1350 4231 
C 1350 4167 1408 4167 1504 4167 
C 1894 4167 1894 4116 1894 4046 
C 1894 4034 1894 3995 1869 3899 
L 1005 472 
z
M 2355 3931 
C 2413 4167 2438 4167 2688 4167 
L 3392 4167 
C 3994 4167 4544 3842 4544 2963 
C 4544 2644 4416 1536 3795 835 
C 3616 625 3130 185 2394 185 
L 1664 185 
C 1574 185 1562 185 1523 192 
C 1453 198 1446 211 1446 262 
C 1446 307 1459 345 1472 402 
L 2355 3931 
z
" transform="scale(0.015625)"/>
      </defs>
      <use xlink:href="#CMMI12-44" transform="scale(0.996264)"/>
     </g>
    </g>
   </g>
  </g>
 </g>
 <defs>
  <clipPath id="pd651e0ba07">
   <rect x="7.2" y="16.556315" width="304.8" height="226.763685"/>
  </clipPath>
  <clipPath id="peadceee349">
   <rect x="325.8" y="16.556315" width="304.8" height="226.763685"/>
  </clipPath>
  <clipPath id="p23939dfe8b">
   <rect x="7.2" y="263.156315" width="304.8" height="226.763685"/>
  </clipPath>
  <clipPath id="pa92f409f53">
   <rect x="325.8" y="263.156315" width="304.8" height="226.763685"/>
  </clipPath>
 </defs>
</svg>
