<?xml version="1.0" encoding="utf-8" standalone="no"?>
<!DOCTYPE svg PUBLIC "-//W3C//DTD SVG 1.1//EN"
  "http://www.w3.org/Graphics/SVG/1.1/DTD/svg11.dtd">
<svg xmlns:xlink="http://www.w3.org/1999/xlink" width="964.8pt" height="244.94pt" viewBox="0 0 964.8 244.94" xmlns="http://www.w3.org/2000/svg" version="1.1">
 <metadata>
  <rdf:RDF xmlns:dc="http://purl.org/dc/elements/1.1/" xmlns:cc="http://creativecommons.org/ns#" xmlns:rdf="http://www.w3.org/1999/02/22-rdf-syntax-ns#">
   <cc:Work>
    <dc:type rdf:resource="http://purl.org/dc/dcmitype/StillImage"/>
    <dc:date>2025-12-06T17:27:57.208024</dc:date>
    <dc:format>image/svg+xml</dc:format>
    <dc:creator>
     <cc:Agent>
      <dc:title>Matplotlib v3.9.1, https://matplotlib.org/</dc:title>
     </cc:Agent>
    </dc:creator>
   </cc:Work>
  </rdf:RDF>
 </metadata>
 <defs>
  <style type="text/css">*{stroke-linejoin: round; stroke-linecap: butt}</style>
 </defs>
 <g id="figure_1">
  <g id="patch_1">
   <path d="M 0 244.94 
L 964.8 244.94 
L 964.8 0 
L 0 0 
L 0 244.94 
z
" style="fill: none"/>
  </g>
  <g id="axes_1">
   <g id="patch_2">
    <path d="M 7.2 237.74 
L 313.8 237.74 
L 313.8 16.556315 
L 7.2 16.556315 
L 7.2 237.74 
z
" style="fill: none"/>
   </g>
   <g id="matplotlib.axis_1">
    <g id="text_1">
     <!-- $x$ -->
     <g transform="translate(302.713188 144.985154) scale(0.2 -0.2)">
      <defs>
       <path id="CMMI12-78" d="M 3034 2606 
C 2829 2567 2752 2414 2752 2293 
C 2752 2139 2874 2088 2963 2088 
C 3155 2088 3290 2254 3290 2427 
C 3290 2695 2982 2816 2714 2816 
C 2323 2816 2106 2433 2048 2312 
C 1901 2816 1504 2816 1389 2816 
C 736 2816 390 1980 390 1839 
C 390 1814 416 1782 461 1782 
C 512 1782 525 1820 538 1846 
C 755 2555 1184 2689 1370 2689 
C 1658 2689 1715 2420 1715 2267 
C 1715 2127 1677 1980 1600 1673 
L 1382 798 
C 1286 415 1101 64 762 64 
C 730 64 570 64 435 147 
C 666 192 717 383 717 460 
C 717 588 621 664 499 664 
C 346 664 179 530 179 326 
C 179 57 480 -64 755 -64 
C 1062 -64 1280 179 1414 441 
C 1517 64 1837 -64 2074 -64 
C 2726 -64 3072 773 3072 913 
C 3072 945 3046 971 3008 971 
C 2950 971 2944 939 2925 888 
C 2752 326 2381 64 2093 64 
C 1869 64 1747 230 1747 492 
C 1747 632 1773 734 1875 1156 
L 2099 2024 
C 2195 2408 2413 2689 2707 2689 
C 2720 2689 2899 2689 3034 2606 
z
" transform="scale(0.015625)"/>
      </defs>
      <use xlink:href="#CMMI12-78" transform="scale(0.996264)"/>
     </g>
    </g>
   </g>
   <g id="matplotlib.axis_2">
    <g id="text_2">
     <!-- $y$ -->
     <g transform="translate(81.287165 12.680682) scale(0.2 -0.2)">
      <defs>
       <path id="CMMI12-79" d="M 1683 -700 
C 1510 -939 1261 -1152 947 -1152 
C 870 -1152 563 -1152 467 -889 
C 486 -895 518 -895 531 -895 
C 723 -895 851 -729 851 -582 
C 851 -435 730 -384 634 -384 
C 531 -384 307 -458 307 -759 
C 307 -1071 582 -1286 947 -1286 
C 1587 -1286 2234 -700 2413 6 
L 3040 2485 
C 3046 2517 3059 2556 3059 2594 
C 3059 2689 2982 2753 2886 2753 
C 2829 2753 2694 2727 2643 2535 
L 2170 658 
C 2138 543 2138 530 2086 460 
C 1958 281 1747 64 1440 64 
C 1082 64 1050 415 1050 588 
C 1050 952 1222 1443 1395 1903 
C 1466 2088 1504 2178 1504 2305 
C 1504 2574 1312 2816 998 2816 
C 410 2816 173 1890 173 1839 
C 173 1814 198 1782 243 1782 
C 301 1782 307 1807 333 1897 
C 486 2433 730 2689 979 2689 
C 1037 2689 1146 2689 1146 2478 
C 1146 2312 1075 2127 979 1884 
C 666 1047 666 837 666 683 
C 666 77 1101 -64 1421 -64 
C 1606 -64 1837 -6 2061 230 
L 2067 224 
C 1971 -147 1907 -392 1683 -700 
z
" transform="scale(0.015625)"/>
      </defs>
      <use xlink:href="#CMMI12-79" transform="scale(0.996264)"/>
     </g>
    </g>
   </g>
   <g id="line2d_1">
    <defs>
     <path id="m8abf2bcfc8" d="M 3 0 
L -3 -3 
L -3 3 
z
" style="stroke: #000000; stroke-linejoin: miter"/>
    </defs>
    <g>
     <use xlink:href="#m8abf2bcfc8" x="313.8" y="127.148158" style="stroke: #000000; stroke-linejoin: miter"/>
    </g>
   </g>
   <g id="line2d_2">
    <defs>
     <path id="m1b7f29fc8e" d="M 0 -3 
L -3 3 
L 3 3 
z
" style="stroke: #000000; stroke-linejoin: miter"/>
    </defs>
    <g>
     <use xlink:href="#m1b7f29fc8e" x="94.8" y="16.556315" style="stroke: #000000; stroke-linejoin: miter"/>
    </g>
   </g>
   <g id="line2d_3">
    <path d="M 38.654707 -1 
L 40.667692 26.776376 
L 42.689231 51.647184 
L 44.635897 72.967894 
L 46.582564 91.920775 
L 48.529231 108.699954 
L 50.401026 122.952015 
L 52.272821 135.510608 
L 54.069744 146.102814 
L 55.866667 155.377226 
L 57.588718 163.127731 
L 59.310769 169.854285 
L 60.957949 175.406145 
L 62.530256 179.963875 
L 64.102564 183.852958 
L 65.6 186.982462 
L 67.022564 189.475326 
L 68.445128 191.534825 
L 69.792821 193.115162 
L 71.140513 194.360912 
L 72.413333 195.252123 
L 73.686154 195.885906 
L 74.958974 196.280609 
L 76.231795 196.453615 
L 77.579487 196.413436 
L 79.002051 196.141789 
L 80.499487 195.623561 
L 82.146667 194.804559 
L 83.94359 193.645233 
L 85.890256 192.11378 
L 88.061538 190.113979 
L 90.532308 187.524415 
L 93.377436 184.209243 
L 96.821538 179.837481 
L 101.313846 173.748874 
L 120.406154 147.433023 
L 125.048205 141.646996 
L 129.315897 136.678222 
L 133.358974 132.306907 
L 137.252308 128.419243 
L 141.070769 124.917834 
L 144.814359 121.784041 
L 148.557949 118.941886 
L 152.226667 116.432443 
L 155.895385 114.186923 
L 159.638974 112.156461 
L 163.382564 110.376864 
L 167.201026 108.80596 
L 171.094359 107.442704 
L 175.137436 106.264432 
L 179.330256 105.278607 
L 183.672821 104.489609 
L 188.24 103.890688 
L 193.031795 103.490287 
L 198.123077 103.290846 
L 203.588718 103.301819 
L 209.578462 103.541125 
L 216.167179 104.030565 
L 223.654359 104.813639 
L 232.564103 105.976699 
L 244.094359 107.720048 
L 267.379487 111.530598 
L 286.172308 114.483218 
L 300.996923 116.586489 
L 313.8 118.206214 
L 313.8 118.206214 
" clip-path="url(#pd07606f8e9)" style="fill: none; stroke: #0072b2; stroke-width: 2.5; stroke-linecap: square"/>
   </g>
   <g id="patch_3">
    <path d="M 94.8 237.74 
L 94.8 16.556315 
" style="fill: none; stroke: #000000; stroke-width: 0.8; stroke-linejoin: miter; stroke-linecap: square"/>
   </g>
   <g id="patch_4">
    <path d="M 313.8 237.74 
L 313.8 16.556315 
" style="fill: none"/>
   </g>
   <g id="patch_5">
    <path d="M 7.2 127.148158 
L 313.8 127.148158 
" style="fill: none; stroke: #000000; stroke-width: 0.8; stroke-linejoin: miter; stroke-linecap: square"/>
   </g>
   <g id="patch_6">
    <path d="M 7.2 16.556315 
L 313.8 16.556315 
" style="fill: none"/>
   </g>
   <g id="legend_1">
    <g id="patch_7">
     <path d="M 221.174426 60.431949 
L 299.8 60.431949 
Q 303.8 60.431949 303.8 56.431949 
L 303.8 30.556315 
Q 303.8 26.556315 299.8 26.556315 
L 221.174426 26.556315 
Q 217.174426 26.556315 217.174426 30.556315 
L 217.174426 56.431949 
Q 217.174426 60.431949 221.174426 60.431949 
z
" style="fill: #ffffff; opacity: 0.8; stroke: #cccccc; stroke-linejoin: miter"/>
    </g>
    <g id="line2d_4">
     <path d="M 225.174426 41.556315 
L 245.174426 41.556315 
L 265.174426 41.556315 
" style="fill: none; stroke: #0072b2; stroke-width: 2.5; stroke-linecap: square"/>
    </g>
    <g id="text_3">
     <!-- $A$ -->
     <g transform="translate(281.174426 48.556315) scale(0.2 -0.2)">
      <defs>
       <path id="CMMI12-41" d="M 1088 691 
C 864 314 646 186 339 186 
C 269 180 218 180 218 58 
C 218 24 250 0 294 0 
C 410 0 698 0 813 0 
C 998 0 1203 0 1382 0 
C 1421 0 1498 0 1498 122 
C 1498 180 1446 186 1408 186 
C 1261 186 1139 236 1139 388 
C 1139 476 1178 546 1261 685 
L 1747 1479 
L 3379 1479 
C 3386 1423 3386 1373 3392 1316 
C 3411 1152 3488 495 3488 376 
C 3488 186 3162 186 3059 186 
C 2989 186 2918 186 2918 70 
C 2918 0 2976 0 3014 0 
C 3123 0 3251 0 3360 0 
L 3725 0 
C 4115 0 4397 0 4403 0 
C 4448 0 4518 0 4518 122 
C 4518 186 4461 186 4365 186 
C 4013 186 4006 244 3987 434 
L 3597 4404 
C 3584 4531 3558 4544 3488 4544 
C 3424 4544 3386 4531 3328 4435 
L 1088 691 
z
M 1856 1664 
L 3142 3819 
L 3360 1664 
L 1856 1664 
z
" transform="scale(0.015625)"/>
      </defs>
      <use xlink:href="#CMMI12-41" transform="scale(0.996264)"/>
     </g>
    </g>
   </g>
  </g>
  <g id="axes_2">
   <g id="patch_8">
    <path d="M 327.6 237.74 
L 634.2 237.74 
L 634.2 16.556315 
L 327.6 16.556315 
L 327.6 237.74 
z
" style="fill: none"/>
   </g>
   <g id="matplotlib.axis_3">
    <g id="text_4">
     <!-- $x$ -->
     <g transform="translate(623.113188 144.985154) scale(0.2 -0.2)">
      <use xlink:href="#CMMI12-78" transform="scale(0.996264)"/>
     </g>
    </g>
   </g>
   <g id="matplotlib.axis_4">
    <g id="text_5">
     <!-- $y$ -->
     <g transform="translate(401.687165 12.680682) scale(0.2 -0.2)">
      <use xlink:href="#CMMI12-79" transform="scale(0.996264)"/>
     </g>
    </g>
   </g>
   <g id="line2d_5">
    <g>
     <use xlink:href="#m8abf2bcfc8" x="634.2" y="127.148158" style="stroke: #000000; stroke-linejoin: miter"/>
    </g>
   </g>
   <g id="line2d_6">
    <g>
     <use xlink:href="#m1b7f29fc8e" x="415.2" y="16.556315" style="stroke: #000000; stroke-linejoin: miter"/>
    </g>
   </g>
   <g id="line2d_7">
    <path d="M 382.813505 245.94 
L 384.876923 222.608867 
L 386.973333 201.324645 
L 389.069744 182.281451 
L 391.091282 165.868022 
L 393.112821 151.21315 
L 395.134359 138.173995 
L 397.081026 127.020844 
L 399.027692 117.132558 
L 400.899487 108.72181 
L 402.771282 101.300555 
L 404.643077 94.789503 
L 406.44 89.326547 
L 408.236923 84.573254 
L 409.958974 80.631165 
L 411.681026 77.24157 
L 413.328205 74.475835 
L 414.975385 72.139454 
L 416.547692 70.278787 
L 418.12 68.751051 
L 419.692308 67.530379 
L 421.264615 66.592482 
L 422.836923 65.91456 
L 424.409231 65.475224 
L 426.05641 65.249031 
L 427.778462 65.245608 
L 429.575385 65.471564 
L 431.447179 65.930458 
L 433.468718 66.653466 
L 435.714872 67.699049 
L 438.185641 69.101528 
L 440.955897 70.935824 
L 444.175385 73.345444 
L 447.993846 76.492652 
L 453.010256 80.937803 
L 463.492308 90.622731 
L 470.904615 97.291262 
L 476.669744 102.181231 
L 481.835897 106.276376 
L 486.702564 109.856816 
L 491.419487 113.056664 
L 496.061538 115.941098 
L 500.70359 118.564269 
L 505.345641 120.931819 
L 509.987692 123.052683 
L 514.704615 124.966737 
L 519.571282 126.701298 
L 524.587692 128.250837 
L 529.753846 129.613042 
L 535.144615 130.803692 
L 540.834872 131.829831 
L 546.824615 132.682293 
L 553.26359 133.370769 
L 560.226667 133.887271 
L 567.86359 134.225913 
L 576.398974 134.376278 
L 586.207179 134.319889 
L 597.962051 134.021639 
L 613.460513 133.391285 
L 634.2 132.364291 
L 634.2 132.364291 
" clip-path="url(#pc8695355d0)" style="fill: none; stroke: #0072b2; stroke-width: 2.5; stroke-linecap: square"/>
   </g>
   <g id="patch_9">
    <path d="M 415.2 237.74 
L 415.2 16.556315 
" style="fill: none; stroke: #000000; stroke-width: 0.8; stroke-linejoin: miter; stroke-linecap: square"/>
   </g>
   <g id="patch_10">
    <path d="M 634.2 237.74 
L 634.2 16.556315 
" style="fill: none"/>
   </g>
   <g id="patch_11">
    <path d="M 327.6 127.148158 
L 634.2 127.148158 
" style="fill: none; stroke: #000000; stroke-width: 0.8; stroke-linejoin: miter; stroke-linecap: square"/>
   </g>
   <g id="patch_12">
    <path d="M 327.6 16.556315 
L 634.2 16.556315 
" style="fill: none"/>
   </g>
   <g id="legend_2">
    <g id="patch_13">
     <path d="M 541.378399 60.431949 
L 620.2 60.431949 
Q 624.2 60.431949 624.2 56.431949 
L 624.2 30.556315 
Q 624.2 26.556315 620.2 26.556315 
L 541.378399 26.556315 
Q 537.378399 26.556315 537.378399 30.556315 
L 537.378399 56.431949 
Q 537.378399 60.431949 541.378399 60.431949 
z
" style="fill: #ffffff; opacity: 0.8; stroke: #cccccc; stroke-linejoin: miter"/>
    </g>
    <g id="line2d_8">
     <path d="M 545.378399 41.556315 
L 565.378399 41.556315 
L 585.378399 41.556315 
" style="fill: none; stroke: #0072b2; stroke-width: 2.5; stroke-linecap: square"/>
    </g>
    <g id="text_6">
     <!-- $B$ -->
     <g transform="translate(601.378399 48.556315) scale(0.2 -0.2)">
      <defs>
       <path id="CMMI12-42" d="M 2342 3921 
C 2400 4160 2426 4160 2675 4160 
L 3507 4160 
C 4230 4160 4230 3544 4230 3485 
C 4230 2966 3712 2304 2867 2304 
L 1946 2304 
L 2342 3921 
z
M 3424 2275 
C 4122 2402 4755 2886 4755 3473 
C 4755 3970 4314 4352 3590 4352 
L 1536 4352 
C 1414 4352 1357 4352 1357 4226 
C 1357 4160 1414 4160 1510 4160 
C 1901 4160 1901 4112 1901 4044 
C 1901 4032 1901 3993 1875 3897 
L 1011 472 
C 954 249 941 185 493 185 
C 371 185 307 185 307 70 
C 307 0 346 0 474 0 
L 2669 0 
C 3648 0 4403 739 4403 1383 
C 4403 1906 3942 2224 3424 2275 
z
M 2515 185 
L 1651 185 
C 1562 185 1549 185 1510 192 
C 1440 198 1434 211 1434 261 
C 1434 305 1446 343 1459 399 
L 1907 2176 
L 3110 2176 
C 3866 2176 3866 1483 3866 1433 
C 3866 828 3309 185 2515 185 
z
" transform="scale(0.015625)"/>
      </defs>
      <use xlink:href="#CMMI12-42" transform="scale(0.996264)"/>
     </g>
    </g>
   </g>
  </g>
  <g id="axes_3">
   <g id="patch_14">
    <path d="M 648 237.74 
L 954.6 237.74 
L 954.6 16.556315 
L 648 16.556315 
L 648 237.74 
z
" style="fill: none"/>
   </g>
   <g id="matplotlib.axis_5">
    <g id="text_7">
     <!-- $x$ -->
     <g transform="translate(943.513188 144.985154) scale(0.2 -0.2)">
      <use xlink:href="#CMMI12-78" transform="scale(0.996264)"/>
     </g>
    </g>
   </g>
   <g id="matplotlib.axis_6">
    <g id="text_8">
     <!-- $y$ -->
     <g transform="translate(722.087165 12.680682) scale(0.2 -0.2)">
      <use xlink:href="#CMMI12-79" transform="scale(0.996264)"/>
     </g>
    </g>
   </g>
   <g id="line2d_9">
    <g>
     <use xlink:href="#m8abf2bcfc8" x="954.6" y="127.148158" style="stroke: #000000; stroke-linejoin: miter"/>
    </g>
   </g>
   <g id="line2d_10">
    <g>
     <use xlink:href="#m1b7f29fc8e" x="735.6" y="16.556315" style="stroke: #000000; stroke-linejoin: miter"/>
    </g>
   </g>
   <g id="line2d_11">
    <path d="M 733.919211 -1 
L 736.273846 23.27102 
L 738.669744 45.720588 
L 741.065641 66.074448 
L 743.386667 83.944356 
L 745.707692 100.132352 
L 748.028718 114.764447 
L 750.274872 127.553835 
L 752.521026 139.095504 
L 754.767179 149.482238 
L 756.938462 158.506394 
L 759.109744 166.60542 
L 761.281026 173.847695 
L 763.377436 180.087286 
L 765.473846 185.641649 
L 767.570256 190.561204 
L 769.591795 194.748054 
L 771.613333 198.428199 
L 773.56 201.527875 
L 775.506667 204.223357 
L 777.453333 206.543927 
L 779.4 208.517088 
L 781.346667 210.168659 
L 783.293333 211.522872 
L 785.24 212.602458 
L 787.186667 213.428735 
L 789.208205 214.04009 
L 791.229744 214.420761 
L 793.326154 214.592781 
L 795.572308 214.548219 
L 797.893333 214.277543 
L 800.364103 213.764803 
L 803.059487 212.971504 
L 805.979487 211.871689 
L 809.198974 210.41105 
L 812.717949 208.566024 
L 816.761026 206.188039 
L 821.477949 203.147755 
L 827.392821 199.057397 
L 836.377436 192.538755 
L 851.57641 181.517584 
L 859.512821 176.058 
L 866.625641 171.432209 
L 873.364103 167.315058 
L 879.877949 163.595253 
L 886.316923 160.174761 
L 892.681026 157.043684 
L 899.12 154.122893 
L 905.633846 151.412157 
L 912.297436 148.881213 
L 919.110769 146.532231 
L 926.148718 144.342666 
L 933.411282 142.316727 
L 940.973333 140.438291 
L 948.909744 138.696992 
L 954.6 137.580425 
L 954.6 137.580425 
" clip-path="url(#p5889542cc7)" style="fill: none; stroke: #0072b2; stroke-width: 2.5; stroke-linecap: square"/>
   </g>
   <g id="patch_15">
    <path d="M 735.6 237.74 
L 735.6 16.556315 
" style="fill: none; stroke: #000000; stroke-width: 0.8; stroke-linejoin: miter; stroke-linecap: square"/>
   </g>
   <g id="patch_16">
    <path d="M 954.6 237.74 
L 954.6 16.556315 
" style="fill: none"/>
   </g>
   <g id="patch_17">
    <path d="M 648 127.148158 
L 954.6 127.148158 
" style="fill: none; stroke: #000000; stroke-width: 0.8; stroke-linejoin: miter; stroke-linecap: square"/>
   </g>
   <g id="patch_18">
    <path d="M 648 16.556315 
L 954.6 16.556315 
" style="fill: none"/>
   </g>
   <g id="legend_3">
    <g id="patch_19">
     <path d="M 862.641602 60.431949 
L 940.6 60.431949 
Q 944.6 60.431949 944.6 56.431949 
L 944.6 30.556315 
Q 944.6 26.556315 940.6 26.556315 
L 862.641602 26.556315 
Q 858.641602 26.556315 858.641602 30.556315 
L 858.641602 56.431949 
Q 858.641602 60.431949 862.641602 60.431949 
z
" style="fill: #ffffff; opacity: 0.8; stroke: #cccccc; stroke-linejoin: miter"/>
    </g>
    <g id="line2d_12">
     <path d="M 866.641602 41.556315 
L 886.641602 41.556315 
L 906.641602 41.556315 
" style="fill: none; stroke: #0072b2; stroke-width: 2.5; stroke-linecap: square"/>
    </g>
    <g id="text_9">
     <!-- $C$ -->
     <g transform="translate(922.641602 48.556315) scale(0.2 -0.2)">
      <defs>
       <path id="CMMI12-43" d="M 4781 4423 
C 4781 4480 4736 4480 4723 4480 
C 4710 4480 4685 4480 4634 4416 
L 4192 3882 
C 3968 4264 3616 4480 3136 4480 
C 1754 4480 320 3088 320 1595 
C 320 533 1069 -128 2003 -128 
C 2515 -128 2963 88 3334 400 
C 3891 863 4058 1481 4058 1531 
C 4058 1588 4006 1588 3987 1588 
C 3930 1588 3923 1550 3910 1524 
C 3616 534 2752 57 2112 57 
C 1434 57 845 489 845 1391 
C 845 1595 909 2700 1632 3532 
C 1984 3939 2586 4295 3194 4295 
C 3898 4295 4211 3717 4211 3068 
C 4211 2903 4192 2764 4192 2738 
C 4192 2681 4256 2681 4275 2681 
C 4346 2681 4352 2687 4378 2801 
L 4781 4423 
z
" transform="scale(0.015625)"/>
      </defs>
      <use xlink:href="#CMMI12-43" transform="scale(0.996264)"/>
     </g>
    </g>
   </g>
  </g>
 </g>
 <defs>
  <clipPath id="pd07606f8e9">
   <rect x="7.2" y="16.556315" width="306.6" height="221.183685"/>
  </clipPath>
  <clipPath id="pc8695355d0">
   <rect x="327.6" y="16.556315" width="306.6" height="221.183685"/>
  </clipPath>
  <clipPath id="p5889542cc7">
   <rect x="648" y="16.556315" width="306.6" height="221.183685"/>
  </clipPath>
 </defs>
</svg>
