<?xml version="1.0" encoding="utf-8" standalone="no"?>
<!DOCTYPE svg PUBLIC "-//W3C//DTD SVG 1.1//EN"
  "http://www.w3.org/Graphics/SVG/1.1/DTD/svg11.dtd">
<svg xmlns:xlink="http://www.w3.org/1999/xlink" width="640.8pt" height="496.538125pt" viewBox="0 0 640.8 496.538125" xmlns="http://www.w3.org/2000/svg" version="1.1">
 <metadata>
  <rdf:RDF xmlns:dc="http://purl.org/dc/elements/1.1/" xmlns:cc="http://creativecommons.org/ns#" xmlns:rdf="http://www.w3.org/1999/02/22-rdf-syntax-ns#">
   <cc:Work>
    <dc:type rdf:resource="http://purl.org/dc/dcmitype/StillImage"/>
    <dc:date>2025-11-28T18:30:12.167052</dc:date>
    <dc:format>image/svg+xml</dc:format>
    <dc:creator>
     <cc:Agent>
      <dc:title>Matplotlib v3.9.1, https://matplotlib.org/</dc:title>
     </cc:Agent>
    </dc:creator>
   </cc:Work>
  </rdf:RDF>
 </metadata>
 <defs>
  <style type="text/css">*{stroke-linejoin: round; stroke-linecap: butt}</style>
 </defs>
 <g id="figure_1">
  <g id="patch_1">
   <path d="M 0 496.538125 
L 640.8 496.538125 
L 640.8 0 
L 0 0 
L 0 496.538125 
z
" style="fill: none"/>
  </g>
  <g id="axes_1">
   <g id="patch_2">
    <path d="M 7.2 242.738125 
L 312 242.738125 
L 312 17.378125 
L 7.2 17.378125 
L 7.2 242.738125 
z
" style="fill: none"/>
   </g>
   <g id="matplotlib.axis_1">
    <g id="text_1">
     <!-- $x$ -->
     <g transform="translate(300 149.255) scale(0.2 -0.2)">
      <defs>
       <path id="DejaVuSans-Oblique-78" d="M 3841 3500 
L 2234 1784 
L 3219 0 
L 2559 0 
L 1819 1388 
L 531 0 
L -166 0 
L 1556 1844 
L 641 3500 
L 1300 3500 
L 1972 2234 
L 3144 3500 
L 3841 3500 
z
" transform="scale(0.015625)"/>
      </defs>
      <use xlink:href="#DejaVuSans-Oblique-78" transform="translate(0 0.3125)"/>
     </g>
    </g>
   </g>
   <g id="matplotlib.axis_2">
    <g id="text_2">
     <!-- $y$ -->
     <g transform="translate(143.6 13.178125) scale(0.2 -0.2)">
      <defs>
       <path id="DejaVuSans-Oblique-79" d="M 1588 -325 
Q 1188 -997 936 -1164 
Q 684 -1331 294 -1331 
L -159 -1331 
L -63 -850 
L 269 -850 
Q 509 -850 678 -719 
Q 847 -588 1056 -206 
L 1234 128 
L 459 3500 
L 1069 3500 
L 1650 819 
L 3256 3500 
L 3859 3500 
L 1588 -325 
z
" transform="scale(0.015625)"/>
      </defs>
      <use xlink:href="#DejaVuSans-Oblique-79" transform="translate(0 0.3125)"/>
     </g>
    </g>
   </g>
   <g id="line2d_1">
    <defs>
     <path id="m514fb53349" d="M 3 0 
L -3 -3 
L -3 3 
z
" style="stroke: #000000; stroke-linejoin: miter"/>
    </defs>
    <g>
     <use xlink:href="#m514fb53349" x="312" y="130.058125" style="stroke: #000000; stroke-linejoin: miter"/>
    </g>
   </g>
   <g id="line2d_2">
    <defs>
     <path id="m6dc01ce51a" d="M 0 -3 
L -3 3 
L 3 3 
z
" style="stroke: #000000; stroke-linejoin: miter"/>
    </defs>
    <g>
     <use xlink:href="#m6dc01ce51a" x="159.6" y="17.378125" style="stroke: #000000; stroke-linejoin: miter"/>
    </g>
   </g>
   <g id="line2d_3">
    <path d="M 7.2 73.904213 
L 30.720586 74.187445 
L 46.425788 74.58792 
L 58.334945 75.105791 
L 67.936703 75.738941 
L 76.049817 76.492281 
L 83.046447 77.361159 
L 89.224322 78.348382 
L 94.80674 79.463963 
L 99.868132 80.70021 
L 104.557363 82.074351 
L 108.874432 83.568357 
L 112.968205 85.219946 
L 116.838681 87.021636 
L 120.560293 89.002563 
L 124.13304 91.160058 
L 127.556923 93.48707 
L 130.906374 96.03139 
L 134.181392 98.795115 
L 137.45641 101.848867 
L 140.731429 105.20599 
L 144.080879 108.960828 
L 147.579194 113.227169 
L 151.300806 118.130063 
L 155.543443 124.104854 
L 167.75033 141.58036 
L 169.983297 144.236508 
L 171.844103 146.11762 
L 173.407179 147.388589 
L 174.74696 148.198548 
L 175.937875 148.659978 
L 176.979927 148.83223 
L 177.947546 148.772185 
L 178.840733 148.506142 
L 179.733919 148.015469 
L 180.627106 147.276455 
L 181.594725 146.165748 
L 182.562344 144.697852 
L 183.604396 142.67308 
L 184.646447 140.136185 
L 185.76293 136.78379 
L 186.879414 132.698432 
L 188.07033 127.435263 
L 189.261245 121.123684 
L 190.526593 113.12485 
L 191.791941 103.625758 
L 193.057289 92.435406 
L 194.39707 78.506567 
L 195.73685 62.160782 
L 197.07663 43.082169 
L 198.490842 19.587538 
L 199.572833 -1 
L 199.572833 -1 
" clip-path="url(#p688c42cadf)" style="fill: none; stroke: #0072b2; stroke-width: 2.5; stroke-linecap: square"/>
   </g>
   <g id="patch_3">
    <path d="M 159.6 242.738125 
L 159.6 17.378125 
" style="fill: none; stroke: #000000; stroke-width: 0.8; stroke-linejoin: miter; stroke-linecap: square"/>
   </g>
   <g id="patch_4">
    <path d="M 312 242.738125 
L 312 17.378125 
" style="fill: none"/>
   </g>
   <g id="patch_5">
    <path d="M 7.2 130.058125 
L 312 130.058125 
" style="fill: none; stroke: #000000; stroke-width: 0.8; stroke-linejoin: miter; stroke-linecap: square"/>
   </g>
   <g id="patch_6">
    <path d="M 7.2 17.378125 
L 312 17.378125 
" style="fill: none"/>
   </g>
   <g id="legend_1">
    <g id="patch_7">
     <path d="M 220.2 62.734375 
L 298 62.734375 
Q 302 62.734375 302 58.734375 
L 302 31.378125 
Q 302 27.378125 298 27.378125 
L 220.2 27.378125 
Q 216.2 27.378125 216.2 31.378125 
L 216.2 58.734375 
Q 216.2 62.734375 220.2 62.734375 
z
" style="fill: #ffffff; opacity: 0.8; stroke: #cccccc; stroke-linejoin: miter"/>
    </g>
    <g id="line2d_4">
     <path d="M 224.2 43.575 
L 244.2 43.575 
L 264.2 43.575 
" style="fill: none; stroke: #0072b2; stroke-width: 2.5; stroke-linecap: square"/>
    </g>
    <g id="text_3">
     <!-- $A$ -->
     <g transform="translate(280.2 50.575) scale(0.2 -0.2)">
      <defs>
       <path id="DejaVuSans-Oblique-41" d="M 2356 4666 
L 3072 4666 
L 3938 0 
L 3278 0 
L 3084 1197 
L 984 1197 
L 325 0 
L -341 0 
L 2356 4666 
z
M 2584 4044 
L 1275 1722 
L 2988 1722 
L 2584 4044 
z
" transform="scale(0.015625)"/>
      </defs>
      <use xlink:href="#DejaVuSans-Oblique-41" transform="translate(0 0.09375)"/>
     </g>
    </g>
   </g>
  </g>
  <g id="axes_2">
   <g id="patch_8">
    <path d="M 325.8 242.738125 
L 630.6 242.738125 
L 630.6 17.378125 
L 325.8 17.378125 
L 325.8 242.738125 
z
" style="fill: none"/>
   </g>
   <g id="matplotlib.axis_3">
    <g id="text_4">
     <!-- $x$ -->
     <g transform="translate(618.6 149.255) scale(0.2 -0.2)">
      <use xlink:href="#DejaVuSans-Oblique-78" transform="translate(0 0.3125)"/>
     </g>
    </g>
   </g>
   <g id="matplotlib.axis_4">
    <g id="text_5">
     <!-- $y$ -->
     <g transform="translate(462.2 13.178125) scale(0.2 -0.2)">
      <use xlink:href="#DejaVuSans-Oblique-79" transform="translate(0 0.3125)"/>
     </g>
    </g>
   </g>
   <g id="line2d_5">
    <g>
     <use xlink:href="#m514fb53349" x="630.6" y="130.058125" style="stroke: #000000; stroke-linejoin: miter"/>
    </g>
   </g>
   <g id="line2d_6">
    <g>
     <use xlink:href="#m6dc01ce51a" x="478.2" y="17.378125" style="stroke: #000000; stroke-linejoin: miter"/>
    </g>
   </g>
   <g id="line2d_7">
    <path d="M 445.904911 -1 
L 448.241026 16.14703 
L 450.622857 31.982882 
L 452.930256 45.869194 
L 455.237656 58.439928 
L 457.545055 69.798892 
L 459.852454 80.039889 
L 462.085421 88.965802 
L 464.318388 96.992984 
L 466.476923 103.956707 
L 468.635458 110.188979 
L 470.71956 115.554578 
L 472.803663 120.316455 
L 474.813333 124.36655 
L 476.748571 127.787993 
L 478.68381 130.759969 
L 480.544615 133.209863 
L 482.330989 135.198062 
L 484.04293 136.778368 
L 485.68044 137.999025 
L 487.317949 138.940373 
L 488.881026 139.581986 
L 490.36967 139.961999 
L 491.858315 140.117937 
L 493.34696 140.050335 
L 494.835604 139.758961 
L 496.324249 139.242814 
L 497.887326 138.456998 
L 499.450403 137.418429 
L 501.087912 136.055014 
L 502.725421 134.404208 
L 504.437363 132.363617 
L 506.223736 129.881354 
L 508.084542 126.899259 
L 509.945348 123.496852 
L 511.880586 119.492815 
L 513.890256 114.807712 
L 515.899927 109.556584 
L 517.984029 103.477906 
L 520.068132 96.714157 
L 522.226667 88.937985 
L 524.385201 80.321836 
L 526.618168 70.45832 
L 528.851136 59.552948 
L 531.084103 47.521381 
L 533.31707 34.270573 
L 535.550037 19.698049 
L 537.857436 3.131432 
L 538.399845 -1 
L 538.399845 -1 
" clip-path="url(#p123f31efdf)" style="fill: none; stroke: #0072b2; stroke-width: 2.5; stroke-linecap: square"/>
   </g>
   <g id="patch_9">
    <path d="M 478.2 242.738125 
L 478.2 17.378125 
" style="fill: none; stroke: #000000; stroke-width: 0.8; stroke-linejoin: miter; stroke-linecap: square"/>
   </g>
   <g id="patch_10">
    <path d="M 630.6 242.738125 
L 630.6 17.378125 
" style="fill: none"/>
   </g>
   <g id="patch_11">
    <path d="M 325.8 130.058125 
L 630.6 130.058125 
" style="fill: none; stroke: #000000; stroke-width: 0.8; stroke-linejoin: miter; stroke-linecap: square"/>
   </g>
   <g id="patch_12">
    <path d="M 325.8 17.378125 
L 630.6 17.378125 
" style="fill: none"/>
   </g>
   <g id="legend_2">
    <g id="patch_13">
     <path d="M 538.8 62.734375 
L 616.6 62.734375 
Q 620.6 62.734375 620.6 58.734375 
L 620.6 31.378125 
Q 620.6 27.378125 616.6 27.378125 
L 538.8 27.378125 
Q 534.8 27.378125 534.8 31.378125 
L 534.8 58.734375 
Q 534.8 62.734375 538.8 62.734375 
z
" style="fill: #ffffff; opacity: 0.8; stroke: #cccccc; stroke-linejoin: miter"/>
    </g>
    <g id="line2d_8">
     <path d="M 542.8 43.575 
L 562.8 43.575 
L 582.8 43.575 
" style="fill: none; stroke: #0072b2; stroke-width: 2.5; stroke-linecap: square"/>
    </g>
    <g id="text_6">
     <!-- $B$ -->
     <g transform="translate(598.8 50.575) scale(0.2 -0.2)">
      <defs>
       <path id="DejaVuSans-Oblique-42" d="M 1081 4666 
L 2694 4666 
Q 3350 4666 3675 4422 
Q 4000 4178 4000 3688 
Q 4000 3238 3720 2911 
Q 3441 2584 2988 2516 
Q 3375 2428 3569 2181 
Q 3763 1934 3763 1522 
Q 3763 819 3242 409 
Q 2722 0 1819 0 
L 172 0 
L 1081 4666 
z
M 1234 2228 
L 903 519 
L 1919 519 
Q 2491 519 2800 781 
Q 3109 1044 3109 1522 
Q 3109 1891 2904 2059 
Q 2700 2228 2247 2228 
L 1234 2228 
z
M 1606 4147 
L 1331 2741 
L 2272 2741 
Q 2775 2741 3058 2959 
Q 3341 3178 3341 3566 
Q 3341 3869 3150 4008 
Q 2959 4147 2541 4147 
L 1606 4147 
z
" transform="scale(0.015625)"/>
      </defs>
      <use xlink:href="#DejaVuSans-Oblique-42" transform="translate(0 0.09375)"/>
     </g>
    </g>
   </g>
  </g>
  <g id="axes_3">
   <g id="patch_14">
    <path d="M 7.2 489.338125 
L 312 489.338125 
L 312 263.978125 
L 7.2 263.978125 
L 7.2 489.338125 
z
" style="fill: none"/>
   </g>
   <g id="matplotlib.axis_5">
    <g id="text_7">
     <!-- $x$ -->
     <g transform="translate(300 395.855) scale(0.2 -0.2)">
      <use xlink:href="#DejaVuSans-Oblique-78" transform="translate(0 0.3125)"/>
     </g>
    </g>
   </g>
   <g id="matplotlib.axis_6">
    <g id="text_8">
     <!-- $y$ -->
     <g transform="translate(143.6 259.778125) scale(0.2 -0.2)">
      <use xlink:href="#DejaVuSans-Oblique-79" transform="translate(0 0.3125)"/>
     </g>
    </g>
   </g>
   <g id="line2d_9">
    <g>
     <use xlink:href="#m514fb53349" x="312" y="376.658125" style="stroke: #000000; stroke-linejoin: miter"/>
    </g>
   </g>
   <g id="line2d_10">
    <g>
     <use xlink:href="#m6dc01ce51a" x="159.6" y="263.978125" style="stroke: #000000; stroke-linejoin: miter"/>
    </g>
   </g>
   <g id="line2d_11">
    <path d="M 128.663966 497.538125 
L 130.980806 481.466125 
L 133.288205 466.948777 
L 135.595604 453.797397 
L 137.903004 441.903378 
L 140.210403 431.168501 
L 142.44337 421.8 
L 144.676337 413.361547 
L 146.909304 405.787881 
L 149.067839 399.233594 
L 151.226374 393.385278 
L 153.310476 388.368823 
L 155.320147 384.085821 
L 157.329817 380.319848 
L 159.265055 377.159968 
L 161.125861 374.536003 
L 162.912234 372.385908 
L 164.624176 370.654492 
L 166.336117 369.237167 
L 167.973626 368.169414 
L 169.536703 367.408676 
L 171.09978 366.897467 
L 172.588425 366.640808 
L 174.07707 366.607834 
L 175.565714 366.798433 
L 177.054359 367.213258 
L 178.543004 367.853737 
L 180.106081 368.771516 
L 181.669158 369.943986 
L 183.306667 371.450315 
L 185.018608 373.336019 
L 186.804982 375.651725 
L 188.591355 378.334168 
L 190.452161 381.532686 
L 192.387399 385.315054 
L 194.322637 389.583981 
L 196.332308 394.558696 
L 198.41641 400.333493 
L 200.500513 406.773794 
L 202.659048 414.192011 
L 204.817582 422.424292 
L 206.976117 431.530124 
L 209.209084 441.939306 
L 211.442051 453.434282 
L 213.675018 466.10395 
L 215.907985 480.04629 
L 218.215385 495.905013 
L 218.440796 497.538125 
L 218.440796 497.538125 
" clip-path="url(#p66b588dfe7)" style="fill: none; stroke: #0072b2; stroke-width: 2.5; stroke-linecap: square"/>
   </g>
   <g id="patch_15">
    <path d="M 159.6 489.338125 
L 159.6 263.978125 
" style="fill: none; stroke: #000000; stroke-width: 0.8; stroke-linejoin: miter; stroke-linecap: square"/>
   </g>
   <g id="patch_16">
    <path d="M 312 489.338125 
L 312 263.978125 
" style="fill: none"/>
   </g>
   <g id="patch_17">
    <path d="M 7.2 376.658125 
L 312 376.658125 
" style="fill: none; stroke: #000000; stroke-width: 0.8; stroke-linejoin: miter; stroke-linecap: square"/>
   </g>
   <g id="patch_18">
    <path d="M 7.2 263.978125 
L 312 263.978125 
" style="fill: none"/>
   </g>
   <g id="legend_3">
    <g id="patch_19">
     <path d="M 220 309.334375 
L 298 309.334375 
Q 302 309.334375 302 305.334375 
L 302 277.978125 
Q 302 273.978125 298 273.978125 
L 220 273.978125 
Q 216 273.978125 216 277.978125 
L 216 305.334375 
Q 216 309.334375 220 309.334375 
z
" style="fill: #ffffff; opacity: 0.8; stroke: #cccccc; stroke-linejoin: miter"/>
    </g>
    <g id="line2d_12">
     <path d="M 224 290.175 
L 244 290.175 
L 264 290.175 
" style="fill: none; stroke: #0072b2; stroke-width: 2.5; stroke-linecap: square"/>
    </g>
    <g id="text_9">
     <!-- $C$ -->
     <g transform="translate(280 297.175) scale(0.2 -0.2)">
      <defs>
       <path id="DejaVuSans-Oblique-43" d="M 4447 4306 
L 4319 3641 
Q 4019 3944 3683 4091 
Q 3347 4238 2956 4238 
Q 2422 4238 2017 3981 
Q 1613 3725 1319 3200 
Q 1131 2863 1032 2486 
Q 934 2109 934 1728 
Q 934 1091 1264 756 
Q 1594 422 2222 422 
Q 2656 422 3056 561 
Q 3456 700 3834 978 
L 3688 231 
Q 3316 72 2936 -9 
Q 2556 -91 2175 -91 
Q 1278 -91 773 396 
Q 269 884 269 1753 
Q 269 2309 461 2846 
Q 653 3384 1013 3828 
Q 1394 4300 1883 4525 
Q 2372 4750 3022 4750 
Q 3422 4750 3780 4639 
Q 4138 4528 4447 4306 
z
" transform="scale(0.015625)"/>
      </defs>
      <use xlink:href="#DejaVuSans-Oblique-43" transform="translate(0 0.78125)"/>
     </g>
    </g>
   </g>
  </g>
  <g id="axes_4">
   <g id="patch_20">
    <path d="M 325.8 489.338125 
L 630.6 489.338125 
L 630.6 263.978125 
L 325.8 263.978125 
L 325.8 489.338125 
z
" style="fill: none"/>
   </g>
   <g id="matplotlib.axis_7">
    <g id="text_10">
     <!-- $x$ -->
     <g transform="translate(618.6 395.855) scale(0.2 -0.2)">
      <use xlink:href="#DejaVuSans-Oblique-78" transform="translate(0 0.3125)"/>
     </g>
    </g>
   </g>
   <g id="matplotlib.axis_8">
    <g id="text_11">
     <!-- $y$ -->
     <g transform="translate(462.2 259.778125) scale(0.2 -0.2)">
      <use xlink:href="#DejaVuSans-Oblique-79" transform="translate(0 0.3125)"/>
     </g>
    </g>
   </g>
   <g id="line2d_13">
    <g>
     <use xlink:href="#m514fb53349" x="630.6" y="376.658125" style="stroke: #000000; stroke-linejoin: miter"/>
    </g>
   </g>
   <g id="line2d_14">
    <g>
     <use xlink:href="#m6dc01ce51a" x="478.2" y="263.978125" style="stroke: #000000; stroke-linejoin: miter"/>
    </g>
   </g>
   <g id="line2d_15">
    <path d="M 325.8 432.812037 
L 349.320586 432.528805 
L 365.025788 432.12833 
L 376.934945 431.610459 
L 386.536703 430.977309 
L 394.649817 430.223969 
L 401.646447 429.355091 
L 407.824322 428.367868 
L 413.40674 427.252287 
L 418.468132 426.01604 
L 423.157363 424.641899 
L 427.474432 423.147893 
L 431.568205 421.496304 
L 435.438681 419.694614 
L 439.160293 417.713687 
L 442.73304 415.556192 
L 446.156923 413.22918 
L 449.506374 410.68486 
L 452.781392 407.921135 
L 456.05641 404.867383 
L 459.331429 401.51026 
L 462.680879 397.755422 
L 466.179194 393.489081 
L 469.900806 388.586187 
L 474.143443 382.611396 
L 486.35033 365.13589 
L 488.583297 362.479742 
L 490.444103 360.59863 
L 492.007179 359.327661 
L 493.34696 358.517702 
L 494.537875 358.056272 
L 495.579927 357.88402 
L 496.547546 357.944065 
L 497.440733 358.210108 
L 498.333919 358.700781 
L 499.227106 359.439795 
L 500.194725 360.550502 
L 501.162344 362.018398 
L 502.204396 364.04317 
L 503.246447 366.580065 
L 504.36293 369.93246 
L 505.479414 374.017818 
L 506.67033 379.280987 
L 507.861245 385.592566 
L 509.126593 393.5914 
L 510.391941 403.090492 
L 511.657289 414.280844 
L 512.99707 428.209683 
L 514.33685 444.555468 
L 515.67663 463.634081 
L 517.090842 487.128712 
L 517.653616 497.538125 
L 517.653616 497.538125 
" clip-path="url(#p2ba94eecf1)" style="fill: none; stroke: #0072b2; stroke-width: 2.5; stroke-linecap: square"/>
   </g>
   <g id="patch_21">
    <path d="M 478.2 489.338125 
L 478.2 263.978125 
" style="fill: none; stroke: #000000; stroke-width: 0.8; stroke-linejoin: miter; stroke-linecap: square"/>
   </g>
   <g id="patch_22">
    <path d="M 630.6 489.338125 
L 630.6 263.978125 
" style="fill: none"/>
   </g>
   <g id="patch_23">
    <path d="M 325.8 376.658125 
L 630.6 376.658125 
" style="fill: none; stroke: #000000; stroke-width: 0.8; stroke-linejoin: miter; stroke-linecap: square"/>
   </g>
   <g id="patch_24">
    <path d="M 325.8 263.978125 
L 630.6 263.978125 
" style="fill: none"/>
   </g>
   <g id="legend_4">
    <g id="patch_25">
     <path d="M 537 309.334375 
L 616.6 309.334375 
Q 620.6 309.334375 620.6 305.334375 
L 620.6 277.978125 
Q 620.6 273.978125 616.6 273.978125 
L 537 273.978125 
Q 533 273.978125 533 277.978125 
L 533 305.334375 
Q 533 309.334375 537 309.334375 
z
" style="fill: #ffffff; opacity: 0.8; stroke: #cccccc; stroke-linejoin: miter"/>
    </g>
    <g id="line2d_16">
     <path d="M 541 290.175 
L 561 290.175 
L 581 290.175 
" style="fill: none; stroke: #0072b2; stroke-width: 2.5; stroke-linecap: square"/>
    </g>
    <g id="text_12">
     <!-- $D$ -->
     <g transform="translate(597 297.175) scale(0.2 -0.2)">
      <defs>
       <path id="DejaVuSans-Oblique-44" d="M 1081 4666 
L 2438 4666 
Q 3519 4666 4070 4208 
Q 4622 3750 4622 2847 
Q 4622 2250 4412 1698 
Q 4203 1147 3834 769 
Q 3463 381 2891 190 
Q 2319 0 1538 0 
L 172 0 
L 1081 4666 
z
M 1613 4147 
L 909 519 
L 1734 519 
Q 2794 519 3375 1128 
Q 3956 1738 3956 2847 
Q 3956 3519 3581 3833 
Q 3206 4147 2406 4147 
L 1613 4147 
z
" transform="scale(0.015625)"/>
      </defs>
      <use xlink:href="#DejaVuSans-Oblique-44" transform="translate(0 0.09375)"/>
     </g>
    </g>
   </g>
  </g>
 </g>
 <defs>
  <clipPath id="p688c42cadf">
   <rect x="7.2" y="17.378125" width="304.8" height="225.36"/>
  </clipPath>
  <clipPath id="p123f31efdf">
   <rect x="325.8" y="17.378125" width="304.8" height="225.36"/>
  </clipPath>
  <clipPath id="p66b588dfe7">
   <rect x="7.2" y="263.978125" width="304.8" height="225.36"/>
  </clipPath>
  <clipPath id="p2ba94eecf1">
   <rect x="325.8" y="263.978125" width="304.8" height="225.36"/>
  </clipPath>
 </defs>
</svg>
