<?xml version="1.0" encoding="utf-8" standalone="no"?>
<!DOCTYPE svg PUBLIC "-//W3C//DTD SVG 1.1//EN"
  "http://www.w3.org/Graphics/SVG/1.1/DTD/svg11.dtd">
<svg xmlns:xlink="http://www.w3.org/1999/xlink" width="640.8pt" height="496.94pt" viewBox="0 0 640.8 496.94" xmlns="http://www.w3.org/2000/svg" version="1.1">
 <metadata>
  <rdf:RDF xmlns:dc="http://purl.org/dc/elements/1.1/" xmlns:cc="http://creativecommons.org/ns#" xmlns:rdf="http://www.w3.org/1999/02/22-rdf-syntax-ns#">
   <cc:Work>
    <dc:type rdf:resource="http://purl.org/dc/dcmitype/StillImage"/>
    <dc:date>2025-11-27T20:20:11.471750</dc:date>
    <dc:format>image/svg+xml</dc:format>
    <dc:creator>
     <cc:Agent>
      <dc:title>Matplotlib v3.9.1, https://matplotlib.org/</dc:title>
     </cc:Agent>
    </dc:creator>
   </cc:Work>
  </rdf:RDF>
 </metadata>
 <defs>
  <style type="text/css">*{stroke-linejoin: round; stroke-linecap: butt}</style>
 </defs>
 <g id="figure_1">
  <g id="patch_1">
   <path d="M 0 496.94 
L 640.8 496.94 
L 640.8 0 
L 0 0 
L 0 496.94 
z
" style="fill: none"/>
  </g>
  <g id="axes_1">
   <g id="patch_2">
    <path d="M 7.2 243.14 
L 312 243.14 
L 312 16.556315 
L 7.2 16.556315 
L 7.2 243.14 
z
" style="fill: none"/>
   </g>
   <g id="matplotlib.axis_1">
    <g id="text_1">
     <!-- $x$ -->
     <g transform="translate(300.913188 147.685154) scale(0.2 -0.2)">
      <defs>
       <path id="CMMI12-78" d="M 3034 2606 
C 2829 2567 2752 2414 2752 2293 
C 2752 2139 2874 2088 2963 2088 
C 3155 2088 3290 2254 3290 2427 
C 3290 2695 2982 2816 2714 2816 
C 2323 2816 2106 2433 2048 2312 
C 1901 2816 1504 2816 1389 2816 
C 736 2816 390 1980 390 1839 
C 390 1814 416 1782 461 1782 
C 512 1782 525 1820 538 1846 
C 755 2555 1184 2689 1370 2689 
C 1658 2689 1715 2420 1715 2267 
C 1715 2127 1677 1980 1600 1673 
L 1382 798 
C 1286 415 1101 64 762 64 
C 730 64 570 64 435 147 
C 666 192 717 383 717 460 
C 717 588 621 664 499 664 
C 346 664 179 530 179 326 
C 179 57 480 -64 755 -64 
C 1062 -64 1280 179 1414 441 
C 1517 64 1837 -64 2074 -64 
C 2726 -64 3072 773 3072 913 
C 3072 945 3046 971 3008 971 
C 2950 971 2944 939 2925 888 
C 2752 326 2381 64 2093 64 
C 1869 64 1747 230 1747 492 
C 1747 632 1773 734 1875 1156 
L 2099 2024 
C 2195 2408 2413 2689 2707 2689 
C 2720 2689 2899 2689 3034 2606 
z
" transform="scale(0.015625)"/>
      </defs>
      <use xlink:href="#CMMI12-78" transform="scale(0.996264)"/>
     </g>
    </g>
   </g>
   <g id="matplotlib.axis_2">
    <g id="text_2">
     <!-- $y$ -->
     <g transform="translate(146.087165 12.680682) scale(0.2 -0.2)">
      <defs>
       <path id="CMMI12-79" d="M 1683 -700 
C 1510 -939 1261 -1152 947 -1152 
C 870 -1152 563 -1152 467 -889 
C 486 -895 518 -895 531 -895 
C 723 -895 851 -729 851 -582 
C 851 -435 730 -384 634 -384 
C 531 -384 307 -458 307 -759 
C 307 -1071 582 -1286 947 -1286 
C 1587 -1286 2234 -700 2413 6 
L 3040 2485 
C 3046 2517 3059 2556 3059 2594 
C 3059 2689 2982 2753 2886 2753 
C 2829 2753 2694 2727 2643 2535 
L 2170 658 
C 2138 543 2138 530 2086 460 
C 1958 281 1747 64 1440 64 
C 1082 64 1050 415 1050 588 
C 1050 952 1222 1443 1395 1903 
C 1466 2088 1504 2178 1504 2305 
C 1504 2574 1312 2816 998 2816 
C 410 2816 173 1890 173 1839 
C 173 1814 198 1782 243 1782 
C 301 1782 307 1807 333 1897 
C 486 2433 730 2689 979 2689 
C 1037 2689 1146 2689 1146 2478 
C 1146 2312 1075 2127 979 1884 
C 666 1047 666 837 666 683 
C 666 77 1101 -64 1421 -64 
C 1606 -64 1837 -6 2061 230 
L 2067 224 
C 1971 -147 1907 -392 1683 -700 
z
" transform="scale(0.015625)"/>
      </defs>
      <use xlink:href="#CMMI12-79" transform="scale(0.996264)"/>
     </g>
    </g>
   </g>
   <g id="line2d_1">
    <defs>
     <path id="m15a0f7beee" d="M 3 0 
L -3 -3 
L -3 3 
z
" style="stroke: #000000; stroke-linejoin: miter"/>
    </defs>
    <g>
     <use xlink:href="#m15a0f7beee" x="312" y="129.848158" style="stroke: #000000; stroke-linejoin: miter"/>
    </g>
   </g>
   <g id="line2d_2">
    <defs>
     <path id="m600574f8ee" d="M 0 -3 
L -3 3 
L 3 3 
z
" style="stroke: #000000; stroke-linejoin: miter"/>
    </defs>
    <g>
     <use xlink:href="#m600574f8ee" x="159.6" y="16.556315" style="stroke: #000000; stroke-linejoin: miter"/>
    </g>
   </g>
   <g id="line2d_3">
    <path d="M 7.2 52.162323 
L 49.775238 71.661761 
L 78.506081 85.05072 
L 98.900513 94.787323 
L 113.935824 102.200657 
L 125.323956 108.052856 
L 134.181392 112.844007 
L 141.252454 116.913171 
L 146.983736 120.461156 
L 151.672967 123.617742 
L 155.617875 126.536576 
L 158.967326 129.290631 
L 161.795751 131.899578 
L 164.252015 134.463276 
L 166.410549 137.036505 
L 168.271355 139.588375 
L 169.983297 142.312991 
L 171.546374 145.236549 
L 172.960586 148.379809 
L 174.225934 151.75129 
L 175.342418 155.336987 
L 176.384469 159.405659 
L 177.352088 164.063076 
L 178.245275 169.436819 
L 179.064029 175.678075 
L 179.808352 182.960251 
L 180.552674 192.56885 
L 181.222564 204.342302 
L 181.818022 218.863613 
L 182.339048 236.803504 
L 182.860073 263.366175 
L 183.306667 299.030642 
L 183.678828 347.06643 
L 183.976557 410.561425 
L 184.217621 497.94 
M 187.183138 -1 
L 187.772601 27.29733 
L 188.368059 45.912093 
L 189.037949 60.384984 
L 189.782271 71.808683 
L 190.601026 80.969855 
L 191.494212 88.434357 
L 192.461832 94.611935 
L 193.503883 99.802341 
L 194.620366 104.227462 
L 195.811282 108.053565 
L 197.07663 111.406762 
L 198.490842 114.535371 
L 200.053919 117.447298 
L 201.765861 120.162724 
L 203.701099 122.802026 
L 205.859634 125.357072 
L 208.315897 127.905919 
L 211.06989 130.438063 
L 214.270476 133.072583 
L 217.992088 135.841517 
L 222.38359 138.824863 
L 227.668278 142.135377 
L 233.995018 145.828172 
L 241.810403 150.122059 
L 251.486593 155.175121 
L 263.767912 161.327798 
L 279.69641 169.046903 
L 300.760733 178.99519 
L 312 184.228242 
L 312 184.228242 
" clip-path="url(#p48bd246a9c)" style="fill: none; stroke: #0072b2; stroke-width: 2.5; stroke-linecap: square"/>
   </g>
   <g id="line2d_4">
    <path d="M 7.2 50.543868 
L 312 186.494079 
" clip-path="url(#p48bd246a9c)" style="fill: none; stroke-dasharray: 9.25,4; stroke-dashoffset: 0; stroke: #dc5e8b; stroke-width: 2.5"/>
   </g>
   <g id="line2d_5">
    <path d="M 185 243.14 
L 185 16.556315 
" clip-path="url(#p48bd246a9c)" style="fill: none; stroke-dasharray: 9.25,4; stroke-dashoffset: 0; stroke: #dc5e8b; stroke-width: 2.5"/>
   </g>
   <g id="patch_3">
    <path d="M 159.6 243.14 
L 159.6 16.556315 
" style="fill: none; stroke: #000000; stroke-width: 0.8; stroke-linejoin: miter; stroke-linecap: square"/>
   </g>
   <g id="patch_4">
    <path d="M 312 243.14 
L 312 16.556315 
" style="fill: none"/>
   </g>
   <g id="patch_5">
    <path d="M 7.2 129.848158 
L 312 129.848158 
" style="fill: none; stroke: #000000; stroke-width: 0.8; stroke-linejoin: miter; stroke-linecap: square"/>
   </g>
   <g id="patch_6">
    <path d="M 7.2 16.556315 
L 312 16.556315 
" style="fill: none"/>
   </g>
   <g id="legend_1">
    <g id="patch_7">
     <path d="M 219.374426 60.431949 
L 298 60.431949 
Q 302 60.431949 302 56.431949 
L 302 30.556315 
Q 302 26.556315 298 26.556315 
L 219.374426 26.556315 
Q 215.374426 26.556315 215.374426 30.556315 
L 215.374426 56.431949 
Q 215.374426 60.431949 219.374426 60.431949 
z
" style="fill: #ffffff; opacity: 0.8; stroke: #cccccc; stroke-linejoin: miter"/>
    </g>
    <g id="line2d_6">
     <path d="M 223.374426 41.556315 
L 243.374426 41.556315 
L 263.374426 41.556315 
" style="fill: none; stroke: #0072b2; stroke-width: 2.5; stroke-linecap: square"/>
    </g>
    <g id="text_3">
     <!-- $A$ -->
     <g transform="translate(279.374426 48.556315) scale(0.2 -0.2)">
      <defs>
       <path id="CMMI12-41" d="M 1088 691 
C 864 314 646 186 339 186 
C 269 180 218 180 218 58 
C 218 24 250 0 294 0 
C 410 0 698 0 813 0 
C 998 0 1203 0 1382 0 
C 1421 0 1498 0 1498 122 
C 1498 180 1446 186 1408 186 
C 1261 186 1139 236 1139 388 
C 1139 476 1178 546 1261 685 
L 1747 1479 
L 3379 1479 
C 3386 1423 3386 1373 3392 1316 
C 3411 1152 3488 495 3488 376 
C 3488 186 3162 186 3059 186 
C 2989 186 2918 186 2918 70 
C 2918 0 2976 0 3014 0 
C 3123 0 3251 0 3360 0 
L 3725 0 
C 4115 0 4397 0 4403 0 
C 4448 0 4518 0 4518 122 
C 4518 186 4461 186 4365 186 
C 4013 186 4006 244 3987 434 
L 3597 4404 
C 3584 4531 3558 4544 3488 4544 
C 3424 4544 3386 4531 3328 4435 
L 1088 691 
z
M 1856 1664 
L 3142 3819 
L 3360 1664 
L 1856 1664 
z
" transform="scale(0.015625)"/>
      </defs>
      <use xlink:href="#CMMI12-41" transform="scale(0.996264)"/>
     </g>
    </g>
   </g>
  </g>
  <g id="axes_2">
   <g id="patch_8">
    <path d="M 325.8 243.14 
L 630.6 243.14 
L 630.6 16.556315 
L 325.8 16.556315 
L 325.8 243.14 
z
" style="fill: none"/>
   </g>
   <g id="matplotlib.axis_3">
    <g id="text_4">
     <!-- $x$ -->
     <g transform="translate(619.513188 147.685154) scale(0.2 -0.2)">
      <use xlink:href="#CMMI12-78" transform="scale(0.996264)"/>
     </g>
    </g>
   </g>
   <g id="matplotlib.axis_4">
    <g id="text_5">
     <!-- $y$ -->
     <g transform="translate(464.687165 12.680682) scale(0.2 -0.2)">
      <use xlink:href="#CMMI12-79" transform="scale(0.996264)"/>
     </g>
    </g>
   </g>
   <g id="line2d_7">
    <g>
     <use xlink:href="#m15a0f7beee" x="630.6" y="129.848158" style="stroke: #000000; stroke-linejoin: miter"/>
    </g>
   </g>
   <g id="line2d_8">
    <g>
     <use xlink:href="#m600574f8ee" x="478.2" y="16.556315" style="stroke: #000000; stroke-linejoin: miter"/>
    </g>
   </g>
   <g id="line2d_9">
    <path d="M 325.8 188.112534 
L 368.226374 169.696288 
L 396.882784 157.485447 
L 417.202784 149.056293 
L 432.089231 143.109827 
L 443.40293 138.819861 
L 452.185934 135.718987 
L 459.108132 133.502264 
L 464.690549 131.940271 
L 469.230916 130.89214 
L 473.02696 130.238565 
L 476.153114 129.916244 
L 478.832674 129.855366 
L 481.140073 130.019819 
L 483.149744 130.382515 
L 484.936117 130.932539 
L 486.499194 131.644629 
L 487.913407 132.530903 
L 489.178755 133.576092 
L 490.36967 134.841046 
L 491.486154 136.34768 
L 492.528205 138.118633 
L 493.570256 140.354156 
L 494.537875 142.986061 
L 495.431062 146.059667 
L 496.324249 149.985731 
L 497.143004 154.63562 
L 497.887326 160.11025 
L 498.631648 167.324691 
L 499.301538 176.052215 
L 499.896996 186.551677 
L 500.492454 201.176668 
L 501.01348 219.597676 
L 501.460073 242.616754 
L 501.906667 277.882832 
L 502.278828 325.586629 
L 502.576557 388.816031 
L 502.861976 497.94 
M 506.289818 -1 
L 506.819194 16.364701 
L 507.489084 31.463097 
L 508.233407 43.017378 
L 508.977729 51.281341 
L 509.796484 57.986517 
L 510.68967 63.438768 
L 511.582857 67.581784 
L 512.550476 71.047213 
L 513.592527 73.935166 
L 514.634579 76.189887 
L 515.751062 78.088055 
L 516.941978 79.670743 
L 518.207326 80.974679 
L 519.547106 82.032154 
L 520.961319 82.871253 
L 522.524396 83.543087 
L 524.236337 84.040948 
L 526.171575 84.373335 
L 528.404542 84.525045 
L 530.935238 84.470311 
L 533.912527 84.176319 
L 537.410842 83.598192 
L 541.579048 82.673118 
L 546.566007 81.328206 
L 552.595018 79.463222 
L 560.038242 76.917898 
L 569.342271 73.489594 
L 581.102564 68.908327 
L 596.361172 62.713268 
L 616.532308 54.270407 
L 630.6 48.278031 
L 630.6 48.278031 
" clip-path="url(#p0ceba02309)" style="fill: none; stroke: #0072b2; stroke-width: 2.5; stroke-linecap: square"/>
   </g>
   <g id="line2d_10">
    <path d="M 325.8 186.494079 
L 630.6 50.543868 
" clip-path="url(#p0ceba02309)" style="fill: none; stroke-dasharray: 9.25,4; stroke-dashoffset: 0; stroke: #dc5e8b; stroke-width: 2.5"/>
   </g>
   <g id="line2d_11">
    <path d="M 503.6 243.14 
L 503.6 16.556315 
" clip-path="url(#p0ceba02309)" style="fill: none; stroke-dasharray: 9.25,4; stroke-dashoffset: 0; stroke: #dc5e8b; stroke-width: 2.5"/>
   </g>
   <g id="patch_9">
    <path d="M 478.2 243.14 
L 478.2 16.556315 
" style="fill: none; stroke: #000000; stroke-width: 0.8; stroke-linejoin: miter; stroke-linecap: square"/>
   </g>
   <g id="patch_10">
    <path d="M 630.6 243.14 
L 630.6 16.556315 
" style="fill: none"/>
   </g>
   <g id="patch_11">
    <path d="M 325.8 129.848158 
L 630.6 129.848158 
" style="fill: none; stroke: #000000; stroke-width: 0.8; stroke-linejoin: miter; stroke-linecap: square"/>
   </g>
   <g id="patch_12">
    <path d="M 325.8 16.556315 
L 630.6 16.556315 
" style="fill: none"/>
   </g>
   <g id="legend_2">
    <g id="patch_13">
     <path d="M 339.8 60.431949 
L 418.621601 60.431949 
Q 422.621601 60.431949 422.621601 56.431949 
L 422.621601 30.556315 
Q 422.621601 26.556315 418.621601 26.556315 
L 339.8 26.556315 
Q 335.8 26.556315 335.8 30.556315 
L 335.8 56.431949 
Q 335.8 60.431949 339.8 60.431949 
z
" style="fill: #ffffff; opacity: 0.8; stroke: #cccccc; stroke-linejoin: miter"/>
    </g>
    <g id="line2d_12">
     <path d="M 343.8 41.556315 
L 363.8 41.556315 
L 383.8 41.556315 
" style="fill: none; stroke: #0072b2; stroke-width: 2.5; stroke-linecap: square"/>
    </g>
    <g id="text_6">
     <!-- $B$ -->
     <g transform="translate(399.8 48.556315) scale(0.2 -0.2)">
      <defs>
       <path id="CMMI12-42" d="M 2342 3921 
C 2400 4160 2426 4160 2675 4160 
L 3507 4160 
C 4230 4160 4230 3544 4230 3485 
C 4230 2966 3712 2304 2867 2304 
L 1946 2304 
L 2342 3921 
z
M 3424 2275 
C 4122 2402 4755 2886 4755 3473 
C 4755 3970 4314 4352 3590 4352 
L 1536 4352 
C 1414 4352 1357 4352 1357 4226 
C 1357 4160 1414 4160 1510 4160 
C 1901 4160 1901 4112 1901 4044 
C 1901 4032 1901 3993 1875 3897 
L 1011 472 
C 954 249 941 185 493 185 
C 371 185 307 185 307 70 
C 307 0 346 0 474 0 
L 2669 0 
C 3648 0 4403 739 4403 1383 
C 4403 1906 3942 2224 3424 2275 
z
M 2515 185 
L 1651 185 
C 1562 185 1549 185 1510 192 
C 1440 198 1434 211 1434 261 
C 1434 305 1446 343 1459 399 
L 1907 2176 
L 3110 2176 
C 3866 2176 3866 1483 3866 1433 
C 3866 828 3309 185 2515 185 
z
" transform="scale(0.015625)"/>
      </defs>
      <use xlink:href="#CMMI12-42" transform="scale(0.996264)"/>
     </g>
    </g>
   </g>
  </g>
  <g id="axes_3">
   <g id="patch_14">
    <path d="M 7.2 489.74 
L 312 489.74 
L 312 263.156315 
L 7.2 263.156315 
L 7.2 489.74 
z
" style="fill: none"/>
   </g>
   <g id="matplotlib.axis_5">
    <g id="text_7">
     <!-- $x$ -->
     <g transform="translate(300.913188 394.285154) scale(0.2 -0.2)">
      <use xlink:href="#CMMI12-78" transform="scale(0.996264)"/>
     </g>
    </g>
   </g>
   <g id="matplotlib.axis_6">
    <g id="text_8">
     <!-- $y$ -->
     <g transform="translate(146.087165 259.280682) scale(0.2 -0.2)">
      <use xlink:href="#CMMI12-79" transform="scale(0.996264)"/>
     </g>
    </g>
   </g>
   <g id="line2d_13">
    <g>
     <use xlink:href="#m15a0f7beee" x="312" y="376.448158" style="stroke: #000000; stroke-linejoin: miter"/>
    </g>
   </g>
   <g id="line2d_14">
    <g>
     <use xlink:href="#m600574f8ee" x="159.6" y="263.156315" style="stroke: #000000; stroke-linejoin: miter"/>
    </g>
   </g>
   <g id="line2d_15">
    <path d="M 7.2 297.375076 
L 64.215092 323.075363 
L 92.79707 336.182563 
L 110.214212 344.398244 
L 121.974505 350.176908 
L 130.534212 354.618609 
L 137.084249 358.259787 
L 142.220073 361.360787 
L 146.388278 364.128752 
L 149.886593 366.714657 
L 152.863883 369.191947 
L 155.394579 371.58241 
L 157.627546 373.994452 
L 159.637216 376.498029 
L 161.42359 379.081895 
L 163.061099 381.848483 
L 164.549744 384.803779 
L 165.963956 388.127809 
L 167.229304 391.666879 
L 168.42022 395.642464 
L 169.536703 400.118689 
L 170.653187 405.559405 
L 171.695238 411.804486 
L 172.662857 418.96704 
L 173.630476 427.920347 
L 174.523663 438.371236 
L 175.342418 450.506857 
L 176.161172 466.062861 
L 176.905495 484.39183 
L 177.350262 497.94 
M 192.87121 497.94 
L 193.652747 477.931873 
L 194.471502 462.148492 
L 195.364689 449.109444 
L 196.257875 439.139948 
L 197.225495 430.803847 
L 198.193114 424.325169 
L 199.235165 418.86706 
L 200.277216 414.579086 
L 201.319267 411.172151 
L 202.435751 408.267825 
L 203.552234 405.959071 
L 204.74315 404.00559 
L 205.934066 402.463971 
L 207.199414 401.181213 
L 208.539194 400.138522 
L 209.953407 399.316479 
L 211.516484 398.670561 
L 213.228425 398.211514 
L 215.089231 397.94205 
L 217.247766 397.860224 
L 219.704029 397.996074 
L 222.606886 398.390095 
L 226.030769 399.090717 
L 230.124542 400.16465 
L 235.111502 401.710093 
L 241.36381 403.888886 
L 249.402491 406.935879 
L 260.120733 411.249552 
L 275.007179 417.496357 
L 296.964689 426.970913 
L 312 433.547246 
L 312 433.547246 
" clip-path="url(#p0a69f7f06b)" style="fill: none; stroke: #0072b2; stroke-width: 2.5; stroke-linecap: square"/>
   </g>
   <g id="line2d_16">
    <path d="M 7.2 297.143868 
L 312 433.094079 
" clip-path="url(#p0a69f7f06b)" style="fill: none; stroke-dasharray: 9.25,4; stroke-dashoffset: 0; stroke: #dc5e8b; stroke-width: 2.5"/>
   </g>
   <g id="line2d_17">
    <path d="M 185 489.74 
L 185 263.156315 
" clip-path="url(#p0a69f7f06b)" style="fill: none; stroke-dasharray: 9.25,4; stroke-dashoffset: 0; stroke: #dc5e8b; stroke-width: 2.5"/>
   </g>
   <g id="patch_15">
    <path d="M 159.6 489.74 
L 159.6 263.156315 
" style="fill: none; stroke: #000000; stroke-width: 0.8; stroke-linejoin: miter; stroke-linecap: square"/>
   </g>
   <g id="patch_16">
    <path d="M 312 489.74 
L 312 263.156315 
" style="fill: none"/>
   </g>
   <g id="patch_17">
    <path d="M 7.2 376.448158 
L 312 376.448158 
" style="fill: none; stroke: #000000; stroke-width: 0.8; stroke-linejoin: miter; stroke-linecap: square"/>
   </g>
   <g id="patch_18">
    <path d="M 7.2 263.156315 
L 312 263.156315 
" style="fill: none"/>
   </g>
   <g id="legend_3">
    <g id="patch_19">
     <path d="M 220.041602 307.031949 
L 298 307.031949 
Q 302 307.031949 302 303.031949 
L 302 277.156315 
Q 302 273.156315 298 273.156315 
L 220.041602 273.156315 
Q 216.041602 273.156315 216.041602 277.156315 
L 216.041602 303.031949 
Q 216.041602 307.031949 220.041602 307.031949 
z
" style="fill: #ffffff; opacity: 0.8; stroke: #cccccc; stroke-linejoin: miter"/>
    </g>
    <g id="line2d_18">
     <path d="M 224.041602 288.156315 
L 244.041602 288.156315 
L 264.041602 288.156315 
" style="fill: none; stroke: #0072b2; stroke-width: 2.5; stroke-linecap: square"/>
    </g>
    <g id="text_9">
     <!-- $C$ -->
     <g transform="translate(280.041602 295.156315) scale(0.2 -0.2)">
      <defs>
       <path id="CMMI12-43" d="M 4781 4423 
C 4781 4480 4736 4480 4723 4480 
C 4710 4480 4685 4480 4634 4416 
L 4192 3882 
C 3968 4264 3616 4480 3136 4480 
C 1754 4480 320 3088 320 1595 
C 320 533 1069 -128 2003 -128 
C 2515 -128 2963 88 3334 400 
C 3891 863 4058 1481 4058 1531 
C 4058 1588 4006 1588 3987 1588 
C 3930 1588 3923 1550 3910 1524 
C 3616 534 2752 57 2112 57 
C 1434 57 845 489 845 1391 
C 845 1595 909 2700 1632 3532 
C 1984 3939 2586 4295 3194 4295 
C 3898 4295 4211 3717 4211 3068 
C 4211 2903 4192 2764 4192 2738 
C 4192 2681 4256 2681 4275 2681 
C 4346 2681 4352 2687 4378 2801 
L 4781 4423 
z
" transform="scale(0.015625)"/>
      </defs>
      <use xlink:href="#CMMI12-43" transform="scale(0.996264)"/>
     </g>
    </g>
   </g>
  </g>
  <g id="axes_4">
   <g id="patch_20">
    <path d="M 325.8 489.74 
L 630.6 489.74 
L 630.6 263.156315 
L 325.8 263.156315 
L 325.8 489.74 
z
" style="fill: none"/>
   </g>
   <g id="matplotlib.axis_7">
    <g id="text_10">
     <!-- $x$ -->
     <g transform="translate(619.513188 394.285154) scale(0.2 -0.2)">
      <use xlink:href="#CMMI12-78" transform="scale(0.996264)"/>
     </g>
    </g>
   </g>
   <g id="matplotlib.axis_8">
    <g id="text_11">
     <!-- $y$ -->
     <g transform="translate(464.687165 259.280682) scale(0.2 -0.2)">
      <use xlink:href="#CMMI12-79" transform="scale(0.996264)"/>
     </g>
    </g>
   </g>
   <g id="line2d_19">
    <g>
     <use xlink:href="#m15a0f7beee" x="630.6" y="376.448158" style="stroke: #000000; stroke-linejoin: miter"/>
    </g>
   </g>
   <g id="line2d_20">
    <g>
     <use xlink:href="#m600574f8ee" x="478.2" y="263.156315" style="stroke: #000000; stroke-linejoin: miter"/>
    </g>
   </g>
   <g id="line2d_21">
    <path d="M 325.8 318.183781 
L 368.226374 336.600027 
L 396.882784 348.810869 
L 417.202784 357.240022 
L 432.089231 363.186488 
L 443.40293 367.476454 
L 452.185934 370.577328 
L 459.108132 372.794052 
L 464.690549 374.356044 
L 469.230916 375.404175 
L 473.02696 376.05775 
L 476.153114 376.380071 
L 478.832674 376.440949 
L 481.140073 376.276496 
L 483.149744 375.913801 
L 484.936117 375.363776 
L 486.499194 374.651687 
L 487.913407 373.765412 
L 489.178755 372.720223 
L 490.36967 371.455269 
L 491.486154 369.948636 
L 492.528205 368.177682 
L 493.570256 365.942159 
L 494.537875 363.310254 
L 495.431062 360.236649 
L 496.324249 356.310584 
L 497.143004 351.660695 
L 497.887326 346.186066 
L 498.631648 338.971625 
L 499.301538 330.2441 
L 499.896996 319.744638 
L 500.492454 305.119647 
L 501.01348 286.698639 
L 501.460073 263.679561 
L 501.906667 228.413484 
L 502.278828 180.709686 
L 502.576557 117.480284 
L 502.879646 -1 
M 506.551329 497.94 
L 507.116923 482.497069 
L 507.786813 469.704358 
L 508.531136 459.661952 
L 509.34989 451.717551 
L 510.168645 445.844663 
L 511.061832 440.999163 
L 512.029451 437.003929 
L 512.99707 433.920358 
L 514.039121 431.328358 
L 515.155604 429.162996 
L 516.272088 427.466945 
L 517.463004 426.047352 
L 518.728352 424.875562 
L 520.068132 423.925648 
L 521.556777 423.141022 
L 523.194286 422.532162 
L 525.055092 422.08842 
L 527.139194 421.830505 
L 529.521026 421.769566 
L 532.275018 421.93173 
L 535.475604 422.351663 
L 539.271648 423.084129 
L 543.737582 424.1785 
L 549.171136 425.747211 
L 555.795604 427.90051 
L 563.98315 430.804864 
L 574.254799 434.693525 
L 587.429304 439.929689 
L 604.62315 447.014439 
L 627.622711 456.744715 
L 630.6 458.018284 
L 630.6 458.018284 
" clip-path="url(#p02dbdb5dde)" style="fill: none; stroke: #0072b2; stroke-width: 2.5; stroke-linecap: square"/>
   </g>
   <g id="line2d_22">
    <path d="M 325.8 319.802236 
L 630.6 455.752447 
" clip-path="url(#p02dbdb5dde)" style="fill: none; stroke-dasharray: 9.25,4; stroke-dashoffset: 0; stroke: #dc5e8b; stroke-width: 2.5"/>
   </g>
   <g id="line2d_23">
    <path d="M 503.6 489.74 
L 503.6 263.156315 
" clip-path="url(#p02dbdb5dde)" style="fill: none; stroke-dasharray: 9.25,4; stroke-dashoffset: 0; stroke: #dc5e8b; stroke-width: 2.5"/>
   </g>
   <g id="patch_21">
    <path d="M 478.2 489.74 
L 478.2 263.156315 
" style="fill: none; stroke: #000000; stroke-width: 0.8; stroke-linejoin: miter; stroke-linecap: square"/>
   </g>
   <g id="patch_22">
    <path d="M 630.6 489.74 
L 630.6 263.156315 
" style="fill: none"/>
   </g>
   <g id="patch_23">
    <path d="M 325.8 376.448158 
L 630.6 376.448158 
" style="fill: none; stroke: #000000; stroke-width: 0.8; stroke-linejoin: miter; stroke-linecap: square"/>
   </g>
   <g id="patch_24">
    <path d="M 325.8 263.156315 
L 630.6 263.156315 
" style="fill: none"/>
   </g>
   <g id="legend_4">
    <g id="patch_25">
     <path d="M 536.401163 307.031949 
L 616.6 307.031949 
Q 620.6 307.031949 620.6 303.031949 
L 620.6 277.156315 
Q 620.6 273.156315 616.6 273.156315 
L 536.401163 273.156315 
Q 532.401163 273.156315 532.401163 277.156315 
L 532.401163 303.031949 
Q 532.401163 307.031949 536.401163 307.031949 
z
" style="fill: #ffffff; opacity: 0.8; stroke: #cccccc; stroke-linejoin: miter"/>
    </g>
    <g id="line2d_24">
     <path d="M 540.401163 288.156315 
L 560.401163 288.156315 
L 580.401163 288.156315 
" style="fill: none; stroke: #0072b2; stroke-width: 2.5; stroke-linecap: square"/>
    </g>
    <g id="text_12">
     <!-- $D$ -->
     <g transform="translate(596.401163 295.156315) scale(0.2 -0.2)">
      <defs>
       <path id="CMMI12-44" d="M 1005 472 
C 947 249 934 185 486 185 
C 365 185 301 185 301 70 
C 301 0 339 0 467 0 
L 2496 0 
C 3789 0 5050 1332 5050 2753 
C 5050 3671 4499 4352 3584 4352 
L 1530 4352 
C 1408 4352 1350 4352 1350 4231 
C 1350 4167 1408 4167 1504 4167 
C 1894 4167 1894 4116 1894 4046 
C 1894 4034 1894 3995 1869 3899 
L 1005 472 
z
M 2355 3931 
C 2413 4167 2438 4167 2688 4167 
L 3392 4167 
C 3994 4167 4544 3842 4544 2963 
C 4544 2644 4416 1536 3795 835 
C 3616 625 3130 185 2394 185 
L 1664 185 
C 1574 185 1562 185 1523 192 
C 1453 198 1446 211 1446 262 
C 1446 307 1459 345 1472 402 
L 2355 3931 
z
" transform="scale(0.015625)"/>
      </defs>
      <use xlink:href="#CMMI12-44" transform="scale(0.996264)"/>
     </g>
    </g>
   </g>
  </g>
 </g>
 <defs>
  <clipPath id="p48bd246a9c">
   <rect x="7.2" y="16.556315" width="304.8" height="226.583685"/>
  </clipPath>
  <clipPath id="p0ceba02309">
   <rect x="325.8" y="16.556315" width="304.8" height="226.583685"/>
  </clipPath>
  <clipPath id="p0a69f7f06b">
   <rect x="7.2" y="263.156315" width="304.8" height="226.583685"/>
  </clipPath>
  <clipPath id="p02dbdb5dde">
   <rect x="325.8" y="263.156315" width="304.8" height="226.583685"/>
  </clipPath>
 </defs>
</svg>
