<?xml version="1.0" encoding="utf-8" standalone="no"?>
<!DOCTYPE svg PUBLIC "-//W3C//DTD SVG 1.1//EN"
  "http://www.w3.org/Graphics/SVG/1.1/DTD/svg11.dtd">
<svg xmlns:xlink="http://www.w3.org/1999/xlink" width="640.8pt" height="496.94pt" viewBox="0 0 640.8 496.94" xmlns="http://www.w3.org/2000/svg" version="1.1">
 <metadata>
  <rdf:RDF xmlns:dc="http://purl.org/dc/elements/1.1/" xmlns:cc="http://creativecommons.org/ns#" xmlns:rdf="http://www.w3.org/1999/02/22-rdf-syntax-ns#">
   <cc:Work>
    <dc:type rdf:resource="http://purl.org/dc/dcmitype/StillImage"/>
    <dc:date>2025-08-31T21:16:43.546550</dc:date>
    <dc:format>image/svg+xml</dc:format>
    <dc:creator>
     <cc:Agent>
      <dc:title>Matplotlib v3.9.1, https://matplotlib.org/</dc:title>
     </cc:Agent>
    </dc:creator>
   </cc:Work>
  </rdf:RDF>
 </metadata>
 <defs>
  <style type="text/css">*{stroke-linejoin: round; stroke-linecap: butt}</style>
 </defs>
 <g id="figure_1">
  <g id="patch_1">
   <path d="M 0 496.94 
L 640.8 496.94 
L 640.8 0 
L 0 0 
L 0 496.94 
z
" style="fill: none"/>
  </g>
  <g id="axes_1">
   <g id="patch_2">
    <path d="M 7.2 243.14 
L 312 243.14 
L 312 16.556315 
L 7.2 16.556315 
L 7.2 243.14 
z
" style="fill: none"/>
   </g>
   <g id="matplotlib.axis_1">
    <g id="text_1">
     <!-- $x$ -->
     <g transform="translate(300.913188 147.685154) scale(0.2 -0.2)">
      <defs>
       <path id="CMMI12-78" d="M 3034 2606 
C 2829 2567 2752 2414 2752 2293 
C 2752 2139 2874 2088 2963 2088 
C 3155 2088 3290 2254 3290 2427 
C 3290 2695 2982 2816 2714 2816 
C 2323 2816 2106 2433 2048 2312 
C 1901 2816 1504 2816 1389 2816 
C 736 2816 390 1980 390 1839 
C 390 1814 416 1782 461 1782 
C 512 1782 525 1820 538 1846 
C 755 2555 1184 2689 1370 2689 
C 1658 2689 1715 2420 1715 2267 
C 1715 2127 1677 1980 1600 1673 
L 1382 798 
C 1286 415 1101 64 762 64 
C 730 64 570 64 435 147 
C 666 192 717 383 717 460 
C 717 588 621 664 499 664 
C 346 664 179 530 179 326 
C 179 57 480 -64 755 -64 
C 1062 -64 1280 179 1414 441 
C 1517 64 1837 -64 2074 -64 
C 2726 -64 3072 773 3072 913 
C 3072 945 3046 971 3008 971 
C 2950 971 2944 939 2925 888 
C 2752 326 2381 64 2093 64 
C 1869 64 1747 230 1747 492 
C 1747 632 1773 734 1875 1156 
L 2099 2024 
C 2195 2408 2413 2689 2707 2689 
C 2720 2689 2899 2689 3034 2606 
z
" transform="scale(0.015625)"/>
      </defs>
      <use xlink:href="#CMMI12-78" transform="scale(0.996264)"/>
     </g>
    </g>
   </g>
   <g id="matplotlib.axis_2">
    <g id="text_2">
     <!-- $y$ -->
     <g transform="translate(146.087165 12.680682) scale(0.2 -0.2)">
      <defs>
       <path id="CMMI12-79" d="M 1683 -700 
C 1510 -939 1261 -1152 947 -1152 
C 870 -1152 563 -1152 467 -889 
C 486 -895 518 -895 531 -895 
C 723 -895 851 -729 851 -582 
C 851 -435 730 -384 634 -384 
C 531 -384 307 -458 307 -759 
C 307 -1071 582 -1286 947 -1286 
C 1587 -1286 2234 -700 2413 6 
L 3040 2485 
C 3046 2517 3059 2556 3059 2594 
C 3059 2689 2982 2753 2886 2753 
C 2829 2753 2694 2727 2643 2535 
L 2170 658 
C 2138 543 2138 530 2086 460 
C 1958 281 1747 64 1440 64 
C 1082 64 1050 415 1050 588 
C 1050 952 1222 1443 1395 1903 
C 1466 2088 1504 2178 1504 2305 
C 1504 2574 1312 2816 998 2816 
C 410 2816 173 1890 173 1839 
C 173 1814 198 1782 243 1782 
C 301 1782 307 1807 333 1897 
C 486 2433 730 2689 979 2689 
C 1037 2689 1146 2689 1146 2478 
C 1146 2312 1075 2127 979 1884 
C 666 1047 666 837 666 683 
C 666 77 1101 -64 1421 -64 
C 1606 -64 1837 -6 2061 230 
L 2067 224 
C 1971 -147 1907 -392 1683 -700 
z
" transform="scale(0.015625)"/>
      </defs>
      <use xlink:href="#CMMI12-79" transform="scale(0.996264)"/>
     </g>
    </g>
   </g>
   <g id="line2d_1">
    <defs>
     <path id="m759a9ad39b" d="M 3 0 
L -3 -3 
L -3 3 
z
" style="stroke: #000000; stroke-linejoin: miter"/>
    </defs>
    <g>
     <use xlink:href="#m759a9ad39b" x="312" y="129.848158" style="stroke: #000000; stroke-linejoin: miter"/>
    </g>
   </g>
   <g id="line2d_2">
    <defs>
     <path id="m3a7eec4199" d="M 0 -3 
L -3 3 
L 3 3 
z
" style="stroke: #000000; stroke-linejoin: miter"/>
    </defs>
    <g>
     <use xlink:href="#m3a7eec4199" x="159.6" y="16.556315" style="stroke: #000000; stroke-linejoin: miter"/>
    </g>
   </g>
   <g id="line2d_3">
    <path d="M 7.088352 110.026404 
L 24.35663 109.249031 
L 38.201026 108.412519 
L 49.514725 107.512875 
L 58.744322 106.564717 
L 66.485275 105.554025 
L 73.035311 104.480909 
L 78.543297 103.363376 
L 83.30696 102.180161 
L 87.475165 100.922796 
L 91.196777 99.566586 
L 94.471795 98.132121 
L 97.30022 96.655635 
L 99.830916 95.09285 
L 102.212747 93.353455 
L 104.29685 91.557666 
L 106.232088 89.597316 
L 108.018462 87.468617 
L 109.655971 85.174058 
L 111.144615 82.725319 
L 112.63326 79.83437 
L 113.97304 76.746666 
L 115.312821 73.059731 
L 116.503736 69.125067 
L 117.694652 64.370147 
L 118.736703 59.314849 
L 119.778755 53.131676 
L 120.820806 45.395778 
L 121.713993 37.032345 
L 122.607179 26.374942 
L 123.351502 14.972666 
L 124.146553 -1 
M 130.623889 497.94 
L 130.94359 430.341282 
L 131.539048 352.655448 
L 132.134505 305.660313 
L 132.729963 274.168728 
L 133.474286 246.916395 
L 134.218608 227.620947 
L 135.111795 210.794358 
L 136.004982 198.333587 
L 136.898168 188.734619 
L 137.94022 179.992944 
L 138.982271 173.098565 
L 140.173187 166.811052 
L 141.364103 161.746641 
L 142.555018 157.580076 
L 143.894799 153.695567 
L 145.234579 150.456982 
L 146.723223 147.436736 
L 148.211868 144.887484 
L 149.849377 142.506199 
L 151.635751 140.303465 
L 153.570989 138.280381 
L 155.655092 136.43169 
L 157.888059 134.748189 
L 160.418755 133.130612 
L 163.098315 131.680516 
L 166.075604 130.315929 
L 169.499487 128.995423 
L 173.369963 127.748749 
L 177.687033 126.592645 
L 182.748425 125.474249 
L 188.554139 124.425945 
L 195.401905 123.42553 
L 203.440586 122.486363 
L 212.967912 121.606465 
L 224.430476 120.780976 
L 238.274872 120.015111 
L 255.394286 119.300296 
L 276.681905 118.64279 
L 303.775238 118.037771 
L 312.111648 117.887654 
L 312.111648 117.887654 
" clip-path="url(#p8a533a3d2d)" style="fill: none; stroke: #0072b2; stroke-width: 2.5; stroke-linecap: square"/>
   </g>
   <g id="line2d_4">
    <path d="M 129.12 243.14 
L 129.12 16.556315 
" clip-path="url(#p8a533a3d2d)" style="fill: none; stroke-dasharray: 9.25,4; stroke-dashoffset: 0; stroke: #dc5e8b; stroke-width: 2.5"/>
   </g>
   <g id="line2d_5">
    <path d="M 7.2 114.742579 
L 312 114.742579 
" clip-path="url(#p8a533a3d2d)" style="fill: none; stroke-dasharray: 9.25,4; stroke-dashoffset: 0; stroke: #dc5e8b; stroke-width: 2.5"/>
   </g>
   <g id="patch_3">
    <path d="M 159.6 243.14 
L 159.6 16.556315 
" style="fill: none; stroke: #000000; stroke-width: 0.8; stroke-linejoin: miter; stroke-linecap: square"/>
   </g>
   <g id="patch_4">
    <path d="M 312 243.14 
L 312 16.556315 
" style="fill: none"/>
   </g>
   <g id="patch_5">
    <path d="M 7.2 129.848158 
L 312 129.848158 
" style="fill: none; stroke: #000000; stroke-width: 0.8; stroke-linejoin: miter; stroke-linecap: square"/>
   </g>
   <g id="patch_6">
    <path d="M 7.2 16.556315 
L 312 16.556315 
" style="fill: none"/>
   </g>
   <g id="legend_1">
    <g id="patch_7">
     <path d="M 219.374426 60.431949 
L 298 60.431949 
Q 302 60.431949 302 56.431949 
L 302 30.556315 
Q 302 26.556315 298 26.556315 
L 219.374426 26.556315 
Q 215.374426 26.556315 215.374426 30.556315 
L 215.374426 56.431949 
Q 215.374426 60.431949 219.374426 60.431949 
z
" style="fill: #ffffff; opacity: 0.8; stroke: #cccccc; stroke-linejoin: miter"/>
    </g>
    <g id="line2d_6">
     <path d="M 223.374426 41.556315 
L 243.374426 41.556315 
L 263.374426 41.556315 
" style="fill: none; stroke: #0072b2; stroke-width: 2.5; stroke-linecap: square"/>
    </g>
    <g id="text_3">
     <!-- $A$ -->
     <g transform="translate(279.374426 48.556315) scale(0.2 -0.2)">
      <defs>
       <path id="CMMI12-41" d="M 1088 691 
C 864 314 646 186 339 186 
C 269 180 218 180 218 58 
C 218 24 250 0 294 0 
C 410 0 698 0 813 0 
C 998 0 1203 0 1382 0 
C 1421 0 1498 0 1498 122 
C 1498 180 1446 186 1408 186 
C 1261 186 1139 236 1139 388 
C 1139 476 1178 546 1261 685 
L 1747 1479 
L 3379 1479 
C 3386 1423 3386 1373 3392 1316 
C 3411 1152 3488 495 3488 376 
C 3488 186 3162 186 3059 186 
C 2989 186 2918 186 2918 70 
C 2918 0 2976 0 3014 0 
C 3123 0 3251 0 3360 0 
L 3725 0 
C 4115 0 4397 0 4403 0 
C 4448 0 4518 0 4518 122 
C 4518 186 4461 186 4365 186 
C 4013 186 4006 244 3987 434 
L 3597 4404 
C 3584 4531 3558 4544 3488 4544 
C 3424 4544 3386 4531 3328 4435 
L 1088 691 
z
M 1856 1664 
L 3142 3819 
L 3360 1664 
L 1856 1664 
z
" transform="scale(0.015625)"/>
      </defs>
      <use xlink:href="#CMMI12-41" transform="scale(0.996264)"/>
     </g>
    </g>
   </g>
  </g>
  <g id="axes_2">
   <g id="patch_8">
    <path d="M 325.8 243.14 
L 630.6 243.14 
L 630.6 16.556315 
L 325.8 16.556315 
L 325.8 243.14 
z
" style="fill: none"/>
   </g>
   <g id="matplotlib.axis_3">
    <g id="text_4">
     <!-- $x$ -->
     <g transform="translate(619.513188 147.685154) scale(0.2 -0.2)">
      <use xlink:href="#CMMI12-78" transform="scale(0.996264)"/>
     </g>
    </g>
   </g>
   <g id="matplotlib.axis_4">
    <g id="text_5">
     <!-- $y$ -->
     <g transform="translate(464.687165 12.680682) scale(0.2 -0.2)">
      <use xlink:href="#CMMI12-79" transform="scale(0.996264)"/>
     </g>
    </g>
   </g>
   <g id="line2d_7">
    <g>
     <use xlink:href="#m759a9ad39b" x="630.6" y="129.848158" style="stroke: #000000; stroke-linejoin: miter"/>
    </g>
   </g>
   <g id="line2d_8">
    <g>
     <use xlink:href="#m3a7eec4199" x="478.2" y="16.556315" style="stroke: #000000; stroke-linejoin: miter"/>
    </g>
   </g>
   <g id="line2d_9">
    <path d="M 325.688352 122.523902 
L 372.580659 122.777149 
L 396.398974 123.110116 
L 410.838828 123.517725 
L 420.663883 124.005026 
L 427.660513 124.561784 
L 433.019634 125.204464 
L 437.187839 125.925384 
L 440.462857 126.710896 
L 443.142418 127.574965 
L 445.375385 128.521814 
L 447.310623 129.585307 
L 448.948132 130.736912 
L 450.436777 132.067322 
L 451.776557 133.589891 
L 452.967473 135.307932 
L 454.009524 137.206836 
L 455.051575 139.629747 
L 455.944762 142.302279 
L 456.837949 145.780672 
L 457.582271 149.586207 
L 458.326593 154.641711 
L 458.922051 160.05196 
L 459.517509 167.36023 
L 460.112967 177.759143 
L 460.55956 188.971467 
L 461.006154 205.339654 
L 461.452747 231.448335 
L 461.750476 259.594703 
L 462.048205 306.15453 
L 462.345934 397.912398 
M 464.431515 -1 
L 464.87663 26.167163 
L 465.472088 47.391596 
L 466.067546 60.427195 
L 466.663004 69.221277 
L 467.407326 76.840456 
L 468.151648 82.211209 
L 468.895971 86.174269 
L 469.789158 89.712837 
L 470.682344 92.350536 
L 471.575531 94.358509 
L 472.617582 96.125653 
L 473.659634 97.429975 
L 474.701685 98.376666 
L 475.743736 99.032718 
L 476.785788 99.440191 
L 477.827839 99.62348 
L 478.86989 99.593136 
L 479.911941 99.347431 
L 480.953993 98.872102 
L 481.996044 98.138218 
L 483.038095 97.097536 
L 483.931282 95.904625 
L 484.824469 94.358509 
L 485.717656 92.350536 
L 486.610842 89.712837 
L 487.355165 86.842939 
L 488.099487 83.097794 
L 488.84381 78.059724 
L 489.439267 72.618629 
L 490.034725 65.21558 
L 490.630183 54.60786 
L 491.076777 43.094808 
L 491.52337 26.167163 
L 491.968485 -1 
M 494.054066 397.912398 
L 494.351795 306.15453 
L 494.798388 243.976592 
L 495.244982 212.60316 
L 495.84044 188.971467 
L 496.435897 174.768792 
L 497.031355 165.30352 
L 497.775678 157.158527 
L 498.52 151.427556 
L 499.264322 147.183645 
L 500.157509 143.356245 
L 501.050696 140.448656 
L 502.092747 137.837272 
L 503.134799 135.806946 
L 504.325714 133.982316 
L 505.665495 132.375086 
L 507.005275 131.103233 
L 508.642784 129.872815 
L 510.429158 128.820889 
L 512.51326 127.863396 
L 514.895092 127.018252 
L 517.723516 126.252638 
L 521.147399 125.559546 
L 525.464469 124.924459 
L 530.82359 124.369712 
L 537.82022 123.879378 
L 547.198681 123.457454 
L 560.447619 123.100978 
L 580.097729 122.813803 
L 611.954725 122.593395 
L 630.711648 122.523902 
L 630.711648 122.523902 
" clip-path="url(#p53855c29ea)" style="fill: none; stroke: #0072b2; stroke-width: 2.5; stroke-linecap: square"/>
   </g>
   <g id="line2d_10">
    <path d="M 462.96 243.14 
L 462.96 16.556315 
" clip-path="url(#p53855c29ea)" style="fill: none; stroke-dasharray: 9.25,4; stroke-dashoffset: 0; stroke: #dc5e8b; stroke-width: 2.5"/>
   </g>
   <g id="line2d_11">
    <path d="M 493.44 243.14 
L 493.44 16.556315 
" clip-path="url(#p53855c29ea)" style="fill: none; stroke-dasharray: 9.25,4; stroke-dashoffset: 0; stroke: #dc5e8b; stroke-width: 2.5"/>
   </g>
   <g id="line2d_12">
    <path d="M 325.8 122.295368 
L 630.6 122.295368 
" clip-path="url(#p53855c29ea)" style="fill: none; stroke-dasharray: 9.25,4; stroke-dashoffset: 0; stroke: #dc5e8b; stroke-width: 2.5"/>
   </g>
   <g id="patch_9">
    <path d="M 478.2 243.14 
L 478.2 16.556315 
" style="fill: none; stroke: #000000; stroke-width: 0.8; stroke-linejoin: miter; stroke-linecap: square"/>
   </g>
   <g id="patch_10">
    <path d="M 630.6 243.14 
L 630.6 16.556315 
" style="fill: none"/>
   </g>
   <g id="patch_11">
    <path d="M 325.8 129.848158 
L 630.6 129.848158 
" style="fill: none; stroke: #000000; stroke-width: 0.8; stroke-linejoin: miter; stroke-linecap: square"/>
   </g>
   <g id="patch_12">
    <path d="M 325.8 16.556315 
L 630.6 16.556315 
" style="fill: none"/>
   </g>
   <g id="legend_2">
    <g id="patch_13">
     <path d="M 537.778399 60.431949 
L 616.6 60.431949 
Q 620.6 60.431949 620.6 56.431949 
L 620.6 30.556315 
Q 620.6 26.556315 616.6 26.556315 
L 537.778399 26.556315 
Q 533.778399 26.556315 533.778399 30.556315 
L 533.778399 56.431949 
Q 533.778399 60.431949 537.778399 60.431949 
z
" style="fill: #ffffff; opacity: 0.8; stroke: #cccccc; stroke-linejoin: miter"/>
    </g>
    <g id="line2d_13">
     <path d="M 541.778399 41.556315 
L 561.778399 41.556315 
L 581.778399 41.556315 
" style="fill: none; stroke: #0072b2; stroke-width: 2.5; stroke-linecap: square"/>
    </g>
    <g id="text_6">
     <!-- $B$ -->
     <g transform="translate(597.778399 48.556315) scale(0.2 -0.2)">
      <defs>
       <path id="CMMI12-42" d="M 2342 3921 
C 2400 4160 2426 4160 2675 4160 
L 3507 4160 
C 4230 4160 4230 3544 4230 3485 
C 4230 2966 3712 2304 2867 2304 
L 1946 2304 
L 2342 3921 
z
M 3424 2275 
C 4122 2402 4755 2886 4755 3473 
C 4755 3970 4314 4352 3590 4352 
L 1536 4352 
C 1414 4352 1357 4352 1357 4226 
C 1357 4160 1414 4160 1510 4160 
C 1901 4160 1901 4112 1901 4044 
C 1901 4032 1901 3993 1875 3897 
L 1011 472 
C 954 249 941 185 493 185 
C 371 185 307 185 307 70 
C 307 0 346 0 474 0 
L 2669 0 
C 3648 0 4403 739 4403 1383 
C 4403 1906 3942 2224 3424 2275 
z
M 2515 185 
L 1651 185 
C 1562 185 1549 185 1510 192 
C 1440 198 1434 211 1434 261 
C 1434 305 1446 343 1459 399 
L 1907 2176 
L 3110 2176 
C 3866 2176 3866 1483 3866 1433 
C 3866 828 3309 185 2515 185 
z
" transform="scale(0.015625)"/>
      </defs>
      <use xlink:href="#CMMI12-42" transform="scale(0.996264)"/>
     </g>
    </g>
   </g>
  </g>
  <g id="axes_3">
   <g id="patch_14">
    <path d="M 7.2 489.74 
L 312 489.74 
L 312 263.156315 
L 7.2 263.156315 
L 7.2 489.74 
z
" style="fill: none"/>
   </g>
   <g id="matplotlib.axis_5">
    <g id="text_7">
     <!-- $x$ -->
     <g transform="translate(300.913188 394.285154) scale(0.2 -0.2)">
      <use xlink:href="#CMMI12-78" transform="scale(0.996264)"/>
     </g>
    </g>
   </g>
   <g id="matplotlib.axis_6">
    <g id="text_8">
     <!-- $y$ -->
     <g transform="translate(146.087165 259.280682) scale(0.2 -0.2)">
      <use xlink:href="#CMMI12-79" transform="scale(0.996264)"/>
     </g>
    </g>
   </g>
   <g id="line2d_14">
    <g>
     <use xlink:href="#m759a9ad39b" x="312" y="376.448158" style="stroke: #000000; stroke-linejoin: miter"/>
    </g>
   </g>
   <g id="line2d_15">
    <g>
     <use xlink:href="#m3a7eec4199" x="159.6" y="263.156315" style="stroke: #000000; stroke-linejoin: miter"/>
    </g>
   </g>
   <g id="line2d_16">
    <path d="M 7.088352 367.218336 
L 38.201026 366.726837 
L 59.637509 366.178155 
L 75.119414 365.570598 
L 86.730842 364.900706 
L 95.513846 364.182427 
L 102.510476 363.394493 
L 108.018462 362.56077 
L 112.484396 361.673261 
L 116.206007 360.718587 
L 119.332161 359.69725 
L 122.011722 358.594395 
L 124.244689 357.450901 
L 126.179927 356.232657 
L 127.9663 354.852838 
L 129.60381 353.294524 
L 131.092454 351.544079 
L 132.432234 349.595104 
L 133.62315 347.454347 
L 134.665201 345.149746 
L 135.707253 342.290058 
L 136.60044 339.227576 
L 137.493626 335.368351 
L 138.386813 330.354966 
L 139.131136 324.868787 
L 139.875458 317.561471 
L 140.470916 309.701736 
L 141.066374 299.000062 
L 141.661832 283.574891 
L 142.108425 266.651821 
L 142.555018 241.354449 
L 143.001612 199.423187 
L 143.299341 151.852049 
L 143.59707 67.152217 
L 143.735764 -1 
M 146.145152 497.94 
L 146.574359 472.857294 
L 147.169817 450.825628 
L 147.765275 436.499025 
L 148.509597 424.372808 
L 149.253919 415.935175 
L 149.998242 409.725299 
L 150.891429 404.141719 
L 151.784615 399.901557 
L 152.826667 396.08541 
L 153.868718 393.10568 
L 155.059634 390.410967 
L 156.250549 388.25604 
L 157.59033 386.295465 
L 159.078974 384.535658 
L 160.716484 382.96985 
L 162.502857 381.584054 
L 164.438095 380.361049 
L 166.671062 379.213524 
L 169.201758 378.162386 
L 172.179048 377.170598 
L 175.751795 376.228782 
L 179.92 375.369188 
L 184.981392 374.562555 
L 191.084835 373.822277 
L 198.676923 373.133624 
L 208.204249 372.501159 
L 220.411136 371.922398 
L 236.488498 371.39415 
L 258.073846 370.919827 
L 287.995604 370.498098 
L 312.111648 370.267689 
L 312.111648 370.267689 
" clip-path="url(#pefa63bc6c5)" style="fill: none; stroke: #0072b2; stroke-width: 2.5; stroke-linecap: square"/>
   </g>
   <g id="line2d_17">
    <path d="M 144.36 489.74 
L 144.36 263.156315 
" clip-path="url(#pefa63bc6c5)" style="fill: none; stroke-dasharray: 9.25,4; stroke-dashoffset: 0; stroke: #dc5e8b; stroke-width: 2.5"/>
   </g>
   <g id="line2d_18">
    <path d="M 7.2 368.895368 
L 312 368.895368 
" clip-path="url(#pefa63bc6c5)" style="fill: none; stroke-dasharray: 9.25,4; stroke-dashoffset: 0; stroke: #dc5e8b; stroke-width: 2.5"/>
   </g>
   <g id="patch_15">
    <path d="M 159.6 489.74 
L 159.6 263.156315 
" style="fill: none; stroke: #000000; stroke-width: 0.8; stroke-linejoin: miter; stroke-linecap: square"/>
   </g>
   <g id="patch_16">
    <path d="M 312 489.74 
L 312 263.156315 
" style="fill: none"/>
   </g>
   <g id="patch_17">
    <path d="M 7.2 376.448158 
L 312 376.448158 
" style="fill: none; stroke: #000000; stroke-width: 0.8; stroke-linejoin: miter; stroke-linecap: square"/>
   </g>
   <g id="patch_18">
    <path d="M 7.2 263.156315 
L 312 263.156315 
" style="fill: none"/>
   </g>
   <g id="legend_3">
    <g id="patch_19">
     <path d="M 220.041602 307.031949 
L 298 307.031949 
Q 302 307.031949 302 303.031949 
L 302 277.156315 
Q 302 273.156315 298 273.156315 
L 220.041602 273.156315 
Q 216.041602 273.156315 216.041602 277.156315 
L 216.041602 303.031949 
Q 216.041602 307.031949 220.041602 307.031949 
z
" style="fill: #ffffff; opacity: 0.8; stroke: #cccccc; stroke-linejoin: miter"/>
    </g>
    <g id="line2d_19">
     <path d="M 224.041602 288.156315 
L 244.041602 288.156315 
L 264.041602 288.156315 
" style="fill: none; stroke: #0072b2; stroke-width: 2.5; stroke-linecap: square"/>
    </g>
    <g id="text_9">
     <!-- $C$ -->
     <g transform="translate(280.041602 295.156315) scale(0.2 -0.2)">
      <defs>
       <path id="CMMI12-43" d="M 4781 4423 
C 4781 4480 4736 4480 4723 4480 
C 4710 4480 4685 4480 4634 4416 
L 4192 3882 
C 3968 4264 3616 4480 3136 4480 
C 1754 4480 320 3088 320 1595 
C 320 533 1069 -128 2003 -128 
C 2515 -128 2963 88 3334 400 
C 3891 863 4058 1481 4058 1531 
C 4058 1588 4006 1588 3987 1588 
C 3930 1588 3923 1550 3910 1524 
C 3616 534 2752 57 2112 57 
C 1434 57 845 489 845 1391 
C 845 1595 909 2700 1632 3532 
C 1984 3939 2586 4295 3194 4295 
C 3898 4295 4211 3717 4211 3068 
C 4211 2903 4192 2764 4192 2738 
C 4192 2681 4256 2681 4275 2681 
C 4346 2681 4352 2687 4378 2801 
L 4781 4423 
z
" transform="scale(0.015625)"/>
      </defs>
      <use xlink:href="#CMMI12-43" transform="scale(0.996264)"/>
     </g>
    </g>
   </g>
  </g>
  <g id="axes_4">
   <g id="patch_20">
    <path d="M 325.8 489.74 
L 630.6 489.74 
L 630.6 263.156315 
L 325.8 263.156315 
L 325.8 489.74 
z
" style="fill: none"/>
   </g>
   <g id="matplotlib.axis_7">
    <g id="text_10">
     <!-- $x$ -->
     <g transform="translate(619.513188 394.285154) scale(0.2 -0.2)">
      <use xlink:href="#CMMI12-78" transform="scale(0.996264)"/>
     </g>
    </g>
   </g>
   <g id="matplotlib.axis_8">
    <g id="text_11">
     <!-- $y$ -->
     <g transform="translate(464.687165 259.280682) scale(0.2 -0.2)">
      <use xlink:href="#CMMI12-79" transform="scale(0.996264)"/>
     </g>
    </g>
   </g>
   <g id="line2d_20">
    <g>
     <use xlink:href="#m759a9ad39b" x="630.6" y="376.448158" style="stroke: #000000; stroke-linejoin: miter"/>
    </g>
   </g>
   <g id="line2d_21">
    <g>
     <use xlink:href="#m3a7eec4199" x="478.2" y="263.156315" style="stroke: #000000; stroke-linejoin: miter"/>
    </g>
   </g>
   <g id="line2d_22">
    <path d="M 325.688352 432.117657 
L 357.694212 416.903002 
L 381.214799 405.957298 
L 398.92967 397.946977 
L 412.774066 391.921932 
L 423.641172 387.424949 
L 432.424176 384.021703 
L 439.56967 381.481372 
L 445.524249 379.592468 
L 450.436777 378.255555 
L 454.604982 377.338985 
L 458.177729 376.769583 
L 461.303883 376.490455 
L 463.983443 376.46578 
L 466.365275 376.660415 
L 468.449377 377.045731 
L 470.384615 377.633102 
L 472.022125 378.348387 
L 473.659634 379.316466 
L 475.148278 380.473034 
L 476.488059 381.798406 
L 477.827839 383.465216 
L 479.018755 385.310395 
L 480.20967 387.594011 
L 481.251722 390.052865 
L 482.293773 393.068033 
L 483.335824 396.811632 
L 484.229011 400.787606 
L 485.122198 405.712548 
L 486.015385 411.928941 
L 486.908571 419.966611 
L 487.652894 428.664318 
L 488.397216 440.038508 
L 489.141538 455.479561 
L 489.736996 472.408544 
L 490.372825 497.94 
M 494.77115 -1 
L 495.096117 67.405701 
L 495.542711 126.230861 
L 496.138168 174.25886 
L 496.733626 204.814099 
L 497.477949 230.213076 
L 498.222271 247.59093 
L 498.966593 260.188519 
L 499.85978 271.33676 
L 500.752967 279.653637 
L 501.646154 286.063677 
L 502.688205 291.869099 
L 503.730256 296.394145 
L 504.772308 299.992024 
L 505.963223 303.265478 
L 507.154139 305.867903 
L 508.345055 307.960145 
L 509.684835 309.843797 
L 511.024615 311.339239 
L 512.51326 312.645033 
L 514.001905 313.654929 
L 515.639414 314.495096 
L 517.425788 315.154434 
L 519.361026 315.628463 
L 521.593993 315.930605 
L 523.975824 316.025791 
L 526.655385 315.914202 
L 529.781538 315.557306 
L 533.354286 314.920715 
L 537.522491 313.945699 
L 542.435018 312.558323 
L 548.240733 310.676635 
L 555.088498 308.21619 
L 563.424908 304.974369 
L 573.547692 300.788951 
L 586.052308 295.367822 
L 601.683077 288.339272 
L 621.630916 279.115222 
L 630.711648 274.852497 
L 630.711648 274.852497 
" clip-path="url(#pf87050d1b2)" style="fill: none; stroke: #0072b2; stroke-width: 2.5; stroke-linecap: square"/>
   </g>
   <g id="line2d_23">
    <path d="M 325.8 429.317684 
L 630.6 278.261894 
" clip-path="url(#pf87050d1b2)" style="fill: none; stroke-dasharray: 9.25,4; stroke-dashoffset: 0; stroke: #dc5e8b; stroke-width: 2.5"/>
   </g>
   <g id="line2d_24">
    <path d="M 493.44 489.74 
L 493.44 263.156315 
" clip-path="url(#pf87050d1b2)" style="fill: none; stroke-dasharray: 9.25,4; stroke-dashoffset: 0; stroke: #dc5e8b; stroke-width: 2.5"/>
   </g>
   <g id="patch_21">
    <path d="M 478.2 489.74 
L 478.2 263.156315 
" style="fill: none; stroke: #000000; stroke-width: 0.8; stroke-linejoin: miter; stroke-linecap: square"/>
   </g>
   <g id="patch_22">
    <path d="M 630.6 489.74 
L 630.6 263.156315 
" style="fill: none"/>
   </g>
   <g id="patch_23">
    <path d="M 325.8 376.448158 
L 630.6 376.448158 
" style="fill: none; stroke: #000000; stroke-width: 0.8; stroke-linejoin: miter; stroke-linecap: square"/>
   </g>
   <g id="patch_24">
    <path d="M 325.8 263.156315 
L 630.6 263.156315 
" style="fill: none"/>
   </g>
   <g id="legend_4">
    <g id="patch_25">
     <path d="M 339.8 307.031949 
L 419.998837 307.031949 
Q 423.998837 307.031949 423.998837 303.031949 
L 423.998837 277.156315 
Q 423.998837 273.156315 419.998837 273.156315 
L 339.8 273.156315 
Q 335.8 273.156315 335.8 277.156315 
L 335.8 303.031949 
Q 335.8 307.031949 339.8 307.031949 
z
" style="fill: #ffffff; opacity: 0.8; stroke: #cccccc; stroke-linejoin: miter"/>
    </g>
    <g id="line2d_25">
     <path d="M 343.8 288.156315 
L 363.8 288.156315 
L 383.8 288.156315 
" style="fill: none; stroke: #0072b2; stroke-width: 2.5; stroke-linecap: square"/>
    </g>
    <g id="text_12">
     <!-- $D$ -->
     <g transform="translate(399.8 295.156315) scale(0.2 -0.2)">
      <defs>
       <path id="CMMI12-44" d="M 1005 472 
C 947 249 934 185 486 185 
C 365 185 301 185 301 70 
C 301 0 339 0 467 0 
L 2496 0 
C 3789 0 5050 1332 5050 2753 
C 5050 3671 4499 4352 3584 4352 
L 1530 4352 
C 1408 4352 1350 4352 1350 4231 
C 1350 4167 1408 4167 1504 4167 
C 1894 4167 1894 4116 1894 4046 
C 1894 4034 1894 3995 1869 3899 
L 1005 472 
z
M 2355 3931 
C 2413 4167 2438 4167 2688 4167 
L 3392 4167 
C 3994 4167 4544 3842 4544 2963 
C 4544 2644 4416 1536 3795 835 
C 3616 625 3130 185 2394 185 
L 1664 185 
C 1574 185 1562 185 1523 192 
C 1453 198 1446 211 1446 262 
C 1446 307 1459 345 1472 402 
L 2355 3931 
z
" transform="scale(0.015625)"/>
      </defs>
      <use xlink:href="#CMMI12-44" transform="scale(0.996264)"/>
     </g>
    </g>
   </g>
  </g>
 </g>
 <defs>
  <clipPath id="p8a533a3d2d">
   <rect x="7.2" y="16.556315" width="304.8" height="226.583685"/>
  </clipPath>
  <clipPath id="p53855c29ea">
   <rect x="325.8" y="16.556315" width="304.8" height="226.583685"/>
  </clipPath>
  <clipPath id="pefa63bc6c5">
   <rect x="7.2" y="263.156315" width="304.8" height="226.583685"/>
  </clipPath>
  <clipPath id="pf87050d1b2">
   <rect x="325.8" y="263.156315" width="304.8" height="226.583685"/>
  </clipPath>
 </defs>
</svg>
