<?xml version="1.0" encoding="utf-8" standalone="no"?>
<!DOCTYPE svg PUBLIC "-//W3C//DTD SVG 1.1//EN"
  "http://www.w3.org/Graphics/SVG/1.1/DTD/svg11.dtd">
<svg xmlns:xlink="http://www.w3.org/1999/xlink" width="640.8pt" height="496.94pt" viewBox="0 0 640.8 496.94" xmlns="http://www.w3.org/2000/svg" version="1.1">
 <metadata>
  <rdf:RDF xmlns:dc="http://purl.org/dc/elements/1.1/" xmlns:cc="http://creativecommons.org/ns#" xmlns:rdf="http://www.w3.org/1999/02/22-rdf-syntax-ns#">
   <cc:Work>
    <dc:type rdf:resource="http://purl.org/dc/dcmitype/StillImage"/>
    <dc:date>2025-11-29T12:24:47.570873</dc:date>
    <dc:format>image/svg+xml</dc:format>
    <dc:creator>
     <cc:Agent>
      <dc:title>Matplotlib v3.9.1, https://matplotlib.org/</dc:title>
     </cc:Agent>
    </dc:creator>
   </cc:Work>
  </rdf:RDF>
 </metadata>
 <defs>
  <style type="text/css">*{stroke-linejoin: round; stroke-linecap: butt}</style>
 </defs>
 <g id="figure_1">
  <g id="patch_1">
   <path d="M 0 496.94 
L 640.8 496.94 
L 640.8 0 
L 0 0 
L 0 496.94 
z
" style="fill: none"/>
  </g>
  <g id="axes_1">
   <g id="patch_2">
    <path d="M 7.2 243.14 
L 312 243.14 
L 312 16.556315 
L 7.2 16.556315 
L 7.2 243.14 
z
" style="fill: none"/>
   </g>
   <g id="matplotlib.axis_1">
    <g id="text_1">
     <!-- $x$ -->
     <g transform="translate(300.913188 147.685154) scale(0.2 -0.2)">
      <defs>
       <path id="CMMI12-78" d="M 3034 2606 
C 2829 2567 2752 2414 2752 2293 
C 2752 2139 2874 2088 2963 2088 
C 3155 2088 3290 2254 3290 2427 
C 3290 2695 2982 2816 2714 2816 
C 2323 2816 2106 2433 2048 2312 
C 1901 2816 1504 2816 1389 2816 
C 736 2816 390 1980 390 1839 
C 390 1814 416 1782 461 1782 
C 512 1782 525 1820 538 1846 
C 755 2555 1184 2689 1370 2689 
C 1658 2689 1715 2420 1715 2267 
C 1715 2127 1677 1980 1600 1673 
L 1382 798 
C 1286 415 1101 64 762 64 
C 730 64 570 64 435 147 
C 666 192 717 383 717 460 
C 717 588 621 664 499 664 
C 346 664 179 530 179 326 
C 179 57 480 -64 755 -64 
C 1062 -64 1280 179 1414 441 
C 1517 64 1837 -64 2074 -64 
C 2726 -64 3072 773 3072 913 
C 3072 945 3046 971 3008 971 
C 2950 971 2944 939 2925 888 
C 2752 326 2381 64 2093 64 
C 1869 64 1747 230 1747 492 
C 1747 632 1773 734 1875 1156 
L 2099 2024 
C 2195 2408 2413 2689 2707 2689 
C 2720 2689 2899 2689 3034 2606 
z
" transform="scale(0.015625)"/>
      </defs>
      <use xlink:href="#CMMI12-78" transform="scale(0.996264)"/>
     </g>
    </g>
   </g>
   <g id="matplotlib.axis_2">
    <g id="text_2">
     <!-- $y$ -->
     <g transform="translate(146.087165 12.680682) scale(0.2 -0.2)">
      <defs>
       <path id="CMMI12-79" d="M 1683 -700 
C 1510 -939 1261 -1152 947 -1152 
C 870 -1152 563 -1152 467 -889 
C 486 -895 518 -895 531 -895 
C 723 -895 851 -729 851 -582 
C 851 -435 730 -384 634 -384 
C 531 -384 307 -458 307 -759 
C 307 -1071 582 -1286 947 -1286 
C 1587 -1286 2234 -700 2413 6 
L 3040 2485 
C 3046 2517 3059 2556 3059 2594 
C 3059 2689 2982 2753 2886 2753 
C 2829 2753 2694 2727 2643 2535 
L 2170 658 
C 2138 543 2138 530 2086 460 
C 1958 281 1747 64 1440 64 
C 1082 64 1050 415 1050 588 
C 1050 952 1222 1443 1395 1903 
C 1466 2088 1504 2178 1504 2305 
C 1504 2574 1312 2816 998 2816 
C 410 2816 173 1890 173 1839 
C 173 1814 198 1782 243 1782 
C 301 1782 307 1807 333 1897 
C 486 2433 730 2689 979 2689 
C 1037 2689 1146 2689 1146 2478 
C 1146 2312 1075 2127 979 1884 
C 666 1047 666 837 666 683 
C 666 77 1101 -64 1421 -64 
C 1606 -64 1837 -6 2061 230 
L 2067 224 
C 1971 -147 1907 -392 1683 -700 
z
" transform="scale(0.015625)"/>
      </defs>
      <use xlink:href="#CMMI12-79" transform="scale(0.996264)"/>
     </g>
    </g>
   </g>
   <g id="line2d_1">
    <defs>
     <path id="mc17fb8c94b" d="M 3 0 
L -3 -3 
L -3 3 
z
" style="stroke: #000000; stroke-linejoin: miter"/>
    </defs>
    <g>
     <use xlink:href="#mc17fb8c94b" x="312" y="129.848158" style="stroke: #000000; stroke-linejoin: miter"/>
    </g>
   </g>
   <g id="line2d_2">
    <defs>
     <path id="m2c5ec024df" d="M 0 -3 
L -3 3 
L 3 3 
z
" style="stroke: #000000; stroke-linejoin: miter"/>
    </defs>
    <g>
     <use xlink:href="#m2c5ec024df" x="159.6" y="16.556315" style="stroke: #000000; stroke-linejoin: miter"/>
    </g>
   </g>
   <g id="line2d_3">
    <path d="M 7.2 129.848158 
L 84.683956 129.738681 
L 90.712967 129.491717 
L 94.80674 129.112273 
L 98.081758 128.593203 
L 100.910183 127.924921 
L 103.515311 127.07961 
L 105.971575 126.046245 
L 108.427839 124.764308 
L 110.958535 123.18764 
L 113.935824 121.059399 
L 120.336996 116.382302 
L 122.12337 115.402701 
L 123.612015 114.831937 
L 124.877363 114.575026 
L 126.068278 114.56354 
L 127.184762 114.785363 
L 128.226813 115.217959 
L 129.268864 115.886494 
L 130.385348 116.880853 
L 131.501832 118.174788 
L 132.692747 119.891182 
L 134.032527 122.231962 
L 135.521172 125.313016 
L 137.233114 129.398565 
L 139.540513 135.547717 
L 143.634286 146.531003 
L 145.12293 149.867396 
L 146.313846 152.038403 
L 147.281465 153.393092 
L 148.10022 154.209697 
L 148.844542 154.664512 
L 149.514432 154.824538 
L 150.184322 154.737862 
L 150.854212 154.39734 
L 151.524103 153.799046 
L 152.268425 152.831497 
L 153.087179 151.404775 
L 154.054799 149.24882 
L 155.171282 146.178453 
L 156.511062 141.78885 
L 158.297436 135.071029 
L 163.135531 116.368939 
L 164.549744 112.011792 
L 165.666227 109.225142 
L 166.633846 107.340233 
L 167.527033 106.065348 
L 168.271355 105.352683 
L 168.941245 104.983653 
L 169.611136 104.869068 
L 170.281026 105.002129 
L 170.950916 105.373079 
L 171.695238 106.049096 
L 172.588425 107.198936 
L 173.630476 108.955683 
L 174.821392 111.422819 
L 176.384469 115.219527 
L 178.840733 121.879898 
L 182.190183 130.858986 
L 184.050989 135.198192 
L 185.614066 138.291848 
L 187.028278 140.598779 
L 188.293626 142.249412 
L 189.484542 143.447379 
L 190.601026 144.267505 
L 191.717509 144.810451 
L 192.833993 145.09676 
L 193.950476 145.15052 
L 195.141392 144.98139 
L 196.481172 144.552883 
L 197.969817 143.837816 
L 199.830623 142.685158 
L 202.510183 140.735122 
L 208.315897 136.458873 
L 210.995458 134.805086 
L 213.451722 133.546008 
L 215.907985 132.53457 
L 218.438681 131.730177 
L 221.192674 131.088557 
L 224.318828 130.593367 
L 228.04044 130.235111 
L 232.952967 129.998729 
L 240.693919 129.876687 
L 262.204835 129.848252 
L 312 129.848158 
L 312 129.848158 
" clip-path="url(#pc43147793d)" style="fill: none; stroke: #0072b2; stroke-width: 2.5; stroke-linecap: square"/>
   </g>
   <g id="patch_3">
    <path d="M 159.6 243.14 
L 159.6 16.556315 
" style="fill: none; stroke: #000000; stroke-width: 0.8; stroke-linejoin: miter; stroke-linecap: square"/>
   </g>
   <g id="patch_4">
    <path d="M 312 243.14 
L 312 16.556315 
" style="fill: none"/>
   </g>
   <g id="patch_5">
    <path d="M 7.2 129.848158 
L 312 129.848158 
" style="fill: none; stroke: #000000; stroke-width: 0.8; stroke-linejoin: miter; stroke-linecap: square"/>
   </g>
   <g id="patch_6">
    <path d="M 7.2 16.556315 
L 312 16.556315 
" style="fill: none"/>
   </g>
   <g id="legend_1">
    <g id="patch_7">
     <path d="M 219.374426 60.431949 
L 298 60.431949 
Q 302 60.431949 302 56.431949 
L 302 30.556315 
Q 302 26.556315 298 26.556315 
L 219.374426 26.556315 
Q 215.374426 26.556315 215.374426 30.556315 
L 215.374426 56.431949 
Q 215.374426 60.431949 219.374426 60.431949 
z
" style="fill: #ffffff; opacity: 0.8; stroke: #cccccc; stroke-linejoin: miter"/>
    </g>
    <g id="line2d_4">
     <path d="M 223.374426 41.556315 
L 243.374426 41.556315 
L 263.374426 41.556315 
" style="fill: none; stroke: #0072b2; stroke-width: 2.5; stroke-linecap: square"/>
    </g>
    <g id="text_3">
     <!-- $A$ -->
     <g transform="translate(279.374426 48.556315) scale(0.2 -0.2)">
      <defs>
       <path id="CMMI12-41" d="M 1088 691 
C 864 314 646 186 339 186 
C 269 180 218 180 218 58 
C 218 24 250 0 294 0 
C 410 0 698 0 813 0 
C 998 0 1203 0 1382 0 
C 1421 0 1498 0 1498 122 
C 1498 180 1446 186 1408 186 
C 1261 186 1139 236 1139 388 
C 1139 476 1178 546 1261 685 
L 1747 1479 
L 3379 1479 
C 3386 1423 3386 1373 3392 1316 
C 3411 1152 3488 495 3488 376 
C 3488 186 3162 186 3059 186 
C 2989 186 2918 186 2918 70 
C 2918 0 2976 0 3014 0 
C 3123 0 3251 0 3360 0 
L 3725 0 
C 4115 0 4397 0 4403 0 
C 4448 0 4518 0 4518 122 
C 4518 186 4461 186 4365 186 
C 4013 186 4006 244 3987 434 
L 3597 4404 
C 3584 4531 3558 4544 3488 4544 
C 3424 4544 3386 4531 3328 4435 
L 1088 691 
z
M 1856 1664 
L 3142 3819 
L 3360 1664 
L 1856 1664 
z
" transform="scale(0.015625)"/>
      </defs>
      <use xlink:href="#CMMI12-41" transform="scale(0.996264)"/>
     </g>
    </g>
   </g>
  </g>
  <g id="axes_2">
   <g id="patch_8">
    <path d="M 325.8 243.14 
L 630.6 243.14 
L 630.6 16.556315 
L 325.8 16.556315 
L 325.8 243.14 
z
" style="fill: none"/>
   </g>
   <g id="matplotlib.axis_3">
    <g id="text_4">
     <!-- $x$ -->
     <g transform="translate(619.513188 147.685154) scale(0.2 -0.2)">
      <use xlink:href="#CMMI12-78" transform="scale(0.996264)"/>
     </g>
    </g>
   </g>
   <g id="matplotlib.axis_4">
    <g id="text_5">
     <!-- $y$ -->
     <g transform="translate(464.687165 12.680682) scale(0.2 -0.2)">
      <use xlink:href="#CMMI12-79" transform="scale(0.996264)"/>
     </g>
    </g>
   </g>
   <g id="line2d_5">
    <g>
     <use xlink:href="#mc17fb8c94b" x="630.6" y="129.848158" style="stroke: #000000; stroke-linejoin: miter"/>
    </g>
   </g>
   <g id="line2d_6">
    <g>
     <use xlink:href="#m2c5ec024df" x="478.2" y="16.556315" style="stroke: #000000; stroke-linejoin: miter"/>
    </g>
   </g>
   <g id="line2d_7">
    <path d="M 325.8 129.848158 
L 403.283956 129.957634 
L 409.312967 130.204598 
L 413.40674 130.584042 
L 416.681758 131.103112 
L 419.510183 131.771394 
L 422.115311 132.616705 
L 424.571575 133.65007 
L 427.027839 134.932007 
L 429.558535 136.508676 
L 432.535824 138.636916 
L 438.936996 143.314013 
L 440.72337 144.293614 
L 442.212015 144.864378 
L 443.477363 145.121289 
L 444.668278 145.132775 
L 445.784762 144.910952 
L 446.826813 144.478356 
L 447.868864 143.809822 
L 448.985348 142.815462 
L 450.101832 141.521527 
L 451.292747 139.805133 
L 452.632527 137.464353 
L 454.121172 134.3833 
L 455.833114 130.29775 
L 458.140513 124.148598 
L 462.234286 113.165312 
L 463.72293 109.828919 
L 464.913846 107.657913 
L 465.881465 106.303223 
L 466.70022 105.486618 
L 467.444542 105.031803 
L 468.114432 104.871777 
L 468.784322 104.958453 
L 469.454212 105.298975 
L 470.124103 105.89727 
L 470.868425 106.864818 
L 471.687179 108.29154 
L 472.654799 110.447495 
L 473.771282 113.517862 
L 475.111062 117.907465 
L 476.897436 124.625286 
L 481.735531 143.327377 
L 483.149744 147.684524 
L 484.266227 150.471174 
L 485.233846 152.356082 
L 486.127033 153.630967 
L 486.871355 154.343632 
L 487.541245 154.712662 
L 488.211136 154.827248 
L 488.881026 154.694187 
L 489.550916 154.323236 
L 490.295238 153.647219 
L 491.188425 152.497379 
L 492.230476 150.740632 
L 493.421392 148.273496 
L 494.984469 144.476788 
L 497.440733 137.816417 
L 500.790183 128.83733 
L 502.650989 124.498123 
L 504.214066 121.404467 
L 505.628278 119.097536 
L 506.893626 117.446903 
L 508.084542 116.248936 
L 509.201026 115.42881 
L 510.317509 114.885865 
L 511.433993 114.599555 
L 512.550476 114.545795 
L 513.741392 114.714925 
L 515.081172 115.143432 
L 516.569817 115.858499 
L 518.430623 117.011157 
L 521.110183 118.961194 
L 526.915897 123.237442 
L 529.595458 124.89123 
L 532.051722 126.150307 
L 534.507985 127.161746 
L 537.038681 127.966138 
L 539.792674 128.607758 
L 542.918828 129.102948 
L 546.64044 129.461204 
L 551.552967 129.697587 
L 559.293919 129.819628 
L 580.804835 129.848063 
L 630.6 129.848158 
L 630.6 129.848158 
" clip-path="url(#pcad874ea91)" style="fill: none; stroke: #0072b2; stroke-width: 2.5; stroke-linecap: square"/>
   </g>
   <g id="patch_9">
    <path d="M 478.2 243.14 
L 478.2 16.556315 
" style="fill: none; stroke: #000000; stroke-width: 0.8; stroke-linejoin: miter; stroke-linecap: square"/>
   </g>
   <g id="patch_10">
    <path d="M 630.6 243.14 
L 630.6 16.556315 
" style="fill: none"/>
   </g>
   <g id="patch_11">
    <path d="M 325.8 129.848158 
L 630.6 129.848158 
" style="fill: none; stroke: #000000; stroke-width: 0.8; stroke-linejoin: miter; stroke-linecap: square"/>
   </g>
   <g id="patch_12">
    <path d="M 325.8 16.556315 
L 630.6 16.556315 
" style="fill: none"/>
   </g>
   <g id="legend_2">
    <g id="patch_13">
     <path d="M 537.778399 60.431949 
L 616.6 60.431949 
Q 620.6 60.431949 620.6 56.431949 
L 620.6 30.556315 
Q 620.6 26.556315 616.6 26.556315 
L 537.778399 26.556315 
Q 533.778399 26.556315 533.778399 30.556315 
L 533.778399 56.431949 
Q 533.778399 60.431949 537.778399 60.431949 
z
" style="fill: #ffffff; opacity: 0.8; stroke: #cccccc; stroke-linejoin: miter"/>
    </g>
    <g id="line2d_8">
     <path d="M 541.778399 41.556315 
L 561.778399 41.556315 
L 581.778399 41.556315 
" style="fill: none; stroke: #0072b2; stroke-width: 2.5; stroke-linecap: square"/>
    </g>
    <g id="text_6">
     <!-- $B$ -->
     <g transform="translate(597.778399 48.556315) scale(0.2 -0.2)">
      <defs>
       <path id="CMMI12-42" d="M 2342 3921 
C 2400 4160 2426 4160 2675 4160 
L 3507 4160 
C 4230 4160 4230 3544 4230 3485 
C 4230 2966 3712 2304 2867 2304 
L 1946 2304 
L 2342 3921 
z
M 3424 2275 
C 4122 2402 4755 2886 4755 3473 
C 4755 3970 4314 4352 3590 4352 
L 1536 4352 
C 1414 4352 1357 4352 1357 4226 
C 1357 4160 1414 4160 1510 4160 
C 1901 4160 1901 4112 1901 4044 
C 1901 4032 1901 3993 1875 3897 
L 1011 472 
C 954 249 941 185 493 185 
C 371 185 307 185 307 70 
C 307 0 346 0 474 0 
L 2669 0 
C 3648 0 4403 739 4403 1383 
C 4403 1906 3942 2224 3424 2275 
z
M 2515 185 
L 1651 185 
C 1562 185 1549 185 1510 192 
C 1440 198 1434 211 1434 261 
C 1434 305 1446 343 1459 399 
L 1907 2176 
L 3110 2176 
C 3866 2176 3866 1483 3866 1433 
C 3866 828 3309 185 2515 185 
z
" transform="scale(0.015625)"/>
      </defs>
      <use xlink:href="#CMMI12-42" transform="scale(0.996264)"/>
     </g>
    </g>
   </g>
  </g>
  <g id="axes_3">
   <g id="patch_14">
    <path d="M 7.2 489.74 
L 312 489.74 
L 312 263.156315 
L 7.2 263.156315 
L 7.2 489.74 
z
" style="fill: none"/>
   </g>
   <g id="matplotlib.axis_5">
    <g id="text_7">
     <!-- $x$ -->
     <g transform="translate(300.913188 394.285154) scale(0.2 -0.2)">
      <use xlink:href="#CMMI12-78" transform="scale(0.996264)"/>
     </g>
    </g>
   </g>
   <g id="matplotlib.axis_6">
    <g id="text_8">
     <!-- $y$ -->
     <g transform="translate(146.087165 259.280682) scale(0.2 -0.2)">
      <use xlink:href="#CMMI12-79" transform="scale(0.996264)"/>
     </g>
    </g>
   </g>
   <g id="line2d_9">
    <g>
     <use xlink:href="#mc17fb8c94b" x="312" y="376.448158" style="stroke: #000000; stroke-linejoin: miter"/>
    </g>
   </g>
   <g id="line2d_10">
    <g>
     <use xlink:href="#m2c5ec024df" x="159.6" y="263.156315" style="stroke: #000000; stroke-linejoin: miter"/>
    </g>
   </g>
   <g id="line2d_11">
    <path d="M 7.2 376.448158 
L 76.645275 376.558796 
L 82.227692 376.80489 
L 86.023736 377.186344 
L 89.001026 377.702147 
L 91.531722 378.359458 
L 93.839121 379.188405 
L 95.997656 380.204971 
L 98.081758 381.439403 
L 100.165861 382.94093 
L 102.324396 384.775944 
L 104.855092 387.239935 
L 111.628425 394.04339 
L 113.042637 395.04708 
L 114.233553 395.626754 
L 115.201172 395.870451 
L 116.094359 395.879903 
L 116.913114 395.680631 
L 117.731868 395.258793 
L 118.550623 394.591869 
L 119.44381 393.559442 
L 120.336996 392.183597 
L 121.304615 390.278807 
L 122.346667 387.718772 
L 123.46315 384.367098 
L 124.654066 380.085486 
L 125.993846 374.408926 
L 127.482491 367.100912 
L 129.268864 357.152493 
L 131.948425 340.764679 
L 134.77685 323.832752 
L 136.265495 316.244207 
L 137.381978 311.627244 
L 138.275165 308.79397 
L 139.019487 307.120914 
L 139.614945 306.285689 
L 140.061538 305.976155 
L 140.4337 305.937047 
L 140.805861 306.105002 
L 141.252454 306.589784 
L 141.77348 307.55978 
L 142.368938 309.220116 
L 143.038828 311.812882 
L 143.78315 315.613908 
L 144.676337 321.465174 
L 145.643956 329.372311 
L 146.76044 340.426998 
L 148.10022 356.133267 
L 149.737729 378.141534 
L 154.873553 449.45799 
L 156.064469 461.951344 
L 157.032088 469.869718 
L 157.77641 474.393236 
L 158.4463 477.203881 
L 158.967326 478.528798 
L 159.339487 479.004046 
L 159.637216 479.099226 
L 159.934945 478.940617 
L 160.307106 478.386436 
L 160.7537 477.203881 
L 161.274725 475.123402 
L 161.944615 471.376415 
L 162.688938 465.877529 
L 163.582125 457.592164 
L 164.698608 445.028775 
L 166.187253 425.441262 
L 172.141832 343.701486 
L 173.407179 330.72982 
L 174.523663 321.465174 
L 175.491282 315.189848 
L 176.310037 311.169412 
L 177.054359 308.527356 
L 177.724249 306.951314 
L 178.245275 306.231764 
L 178.691868 305.953839 
L 179.064029 305.952126 
L 179.43619 306.151443 
L 179.882784 306.644745 
L 180.40381 307.552202 
L 181.0737 309.206646 
L 181.892454 311.900221 
L 182.860073 315.903956 
L 184.050989 321.811032 
L 185.688498 331.156208 
L 192.08967 369.020234 
L 193.652747 376.399977 
L 195.06696 382.048444 
L 196.332308 386.234066 
L 197.523223 389.426322 
L 198.639707 391.783187 
L 199.681758 393.458246 
L 200.649377 394.591869 
L 201.542564 395.306936 
L 202.435751 395.732747 
L 203.328938 395.89864 
L 204.222125 395.834477 
L 205.189744 395.539852 
L 206.306227 394.955963 
L 207.646007 393.982906 
L 209.357949 392.43548 
L 212.037509 389.665986 
L 216.131282 385.469631 
L 218.513114 383.358455 
L 220.671648 381.738358 
L 222.755751 380.447701 
L 224.839853 379.410981 
L 227.072821 378.55035 
L 229.454652 377.871619 
L 232.134212 377.340431 
L 235.334799 376.939755 
L 239.428571 376.664418 
L 245.457582 376.505626 
L 258.03663 376.450522 
L 312 376.448158 
L 312 376.448158 
" clip-path="url(#pdfd859019f)" style="fill: none; stroke: #0072b2; stroke-width: 2.5; stroke-linecap: square"/>
   </g>
   <g id="patch_15">
    <path d="M 159.6 489.74 
L 159.6 263.156315 
" style="fill: none; stroke: #000000; stroke-width: 0.8; stroke-linejoin: miter; stroke-linecap: square"/>
   </g>
   <g id="patch_16">
    <path d="M 312 489.74 
L 312 263.156315 
" style="fill: none"/>
   </g>
   <g id="patch_17">
    <path d="M 7.2 376.448158 
L 312 376.448158 
" style="fill: none; stroke: #000000; stroke-width: 0.8; stroke-linejoin: miter; stroke-linecap: square"/>
   </g>
   <g id="patch_18">
    <path d="M 7.2 263.156315 
L 312 263.156315 
" style="fill: none"/>
   </g>
   <g id="legend_3">
    <g id="patch_19">
     <path d="M 220.041602 307.031949 
L 298 307.031949 
Q 302 307.031949 302 303.031949 
L 302 277.156315 
Q 302 273.156315 298 273.156315 
L 220.041602 273.156315 
Q 216.041602 273.156315 216.041602 277.156315 
L 216.041602 303.031949 
Q 216.041602 307.031949 220.041602 307.031949 
z
" style="fill: #ffffff; opacity: 0.8; stroke: #cccccc; stroke-linejoin: miter"/>
    </g>
    <g id="line2d_12">
     <path d="M 224.041602 288.156315 
L 244.041602 288.156315 
L 264.041602 288.156315 
" style="fill: none; stroke: #0072b2; stroke-width: 2.5; stroke-linecap: square"/>
    </g>
    <g id="text_9">
     <!-- $C$ -->
     <g transform="translate(280.041602 295.156315) scale(0.2 -0.2)">
      <defs>
       <path id="CMMI12-43" d="M 4781 4423 
C 4781 4480 4736 4480 4723 4480 
C 4710 4480 4685 4480 4634 4416 
L 4192 3882 
C 3968 4264 3616 4480 3136 4480 
C 1754 4480 320 3088 320 1595 
C 320 533 1069 -128 2003 -128 
C 2515 -128 2963 88 3334 400 
C 3891 863 4058 1481 4058 1531 
C 4058 1588 4006 1588 3987 1588 
C 3930 1588 3923 1550 3910 1524 
C 3616 534 2752 57 2112 57 
C 1434 57 845 489 845 1391 
C 845 1595 909 2700 1632 3532 
C 1984 3939 2586 4295 3194 4295 
C 3898 4295 4211 3717 4211 3068 
C 4211 2903 4192 2764 4192 2738 
C 4192 2681 4256 2681 4275 2681 
C 4346 2681 4352 2687 4378 2801 
L 4781 4423 
z
" transform="scale(0.015625)"/>
      </defs>
      <use xlink:href="#CMMI12-43" transform="scale(0.996264)"/>
     </g>
    </g>
   </g>
  </g>
  <g id="axes_4">
   <g id="patch_20">
    <path d="M 325.8 489.74 
L 630.6 489.74 
L 630.6 263.156315 
L 325.8 263.156315 
L 325.8 489.74 
z
" style="fill: none"/>
   </g>
   <g id="matplotlib.axis_7">
    <g id="text_10">
     <!-- $x$ -->
     <g transform="translate(619.513188 394.285154) scale(0.2 -0.2)">
      <use xlink:href="#CMMI12-78" transform="scale(0.996264)"/>
     </g>
    </g>
   </g>
   <g id="matplotlib.axis_8">
    <g id="text_11">
     <!-- $y$ -->
     <g transform="translate(464.687165 259.280682) scale(0.2 -0.2)">
      <use xlink:href="#CMMI12-79" transform="scale(0.996264)"/>
     </g>
    </g>
   </g>
   <g id="line2d_13">
    <g>
     <use xlink:href="#mc17fb8c94b" x="630.6" y="376.448158" style="stroke: #000000; stroke-linejoin: miter"/>
    </g>
   </g>
   <g id="line2d_14">
    <g>
     <use xlink:href="#m2c5ec024df" x="478.2" y="263.156315" style="stroke: #000000; stroke-linejoin: miter"/>
    </g>
   </g>
   <g id="line2d_15">
    <path d="M 325.8 376.448158 
L 395.245275 376.337519 
L 400.827692 376.091425 
L 404.623736 375.709971 
L 407.601026 375.194168 
L 410.131722 374.536857 
L 412.439121 373.70791 
L 414.597656 372.691344 
L 416.681758 371.456912 
L 418.765861 369.955386 
L 420.924396 368.120371 
L 423.455092 365.65638 
L 430.228425 358.852925 
L 431.642637 357.849235 
L 432.833553 357.269562 
L 433.801172 357.025864 
L 434.694359 357.016412 
L 435.513114 357.215685 
L 436.331868 357.637522 
L 437.150623 358.304447 
L 438.04381 359.336873 
L 438.936996 360.712718 
L 439.904615 362.617509 
L 440.946667 365.177543 
L 442.06315 368.529217 
L 443.254066 372.81083 
L 444.593846 378.487389 
L 446.082491 385.795403 
L 447.868864 395.743822 
L 450.548425 412.131636 
L 453.37685 429.063563 
L 454.865495 436.652108 
L 455.981978 441.269071 
L 456.875165 444.102345 
L 457.619487 445.775401 
L 458.214945 446.610626 
L 458.661538 446.92016 
L 459.0337 446.959268 
L 459.405861 446.791313 
L 459.852454 446.306532 
L 460.37348 445.336535 
L 460.968938 443.6762 
L 461.638828 441.083433 
L 462.38315 437.282408 
L 463.276337 431.431141 
L 464.243956 423.524004 
L 465.36044 412.469317 
L 466.70022 396.763048 
L 468.337729 374.754782 
L 473.473553 303.438325 
L 474.664469 290.944972 
L 475.632088 283.026597 
L 476.37641 278.503079 
L 477.0463 275.692434 
L 477.567326 274.367517 
L 477.939487 273.892269 
L 478.237216 273.797089 
L 478.534945 273.955698 
L 478.907106 274.509879 
L 479.3537 275.692434 
L 479.874725 277.772913 
L 480.544615 281.5199 
L 481.288938 287.018786 
L 482.182125 295.304151 
L 483.298608 307.86754 
L 484.787253 327.455053 
L 490.741832 409.194829 
L 492.007179 422.166495 
L 493.123663 431.431141 
L 494.091282 437.706468 
L 494.910037 441.726903 
L 495.654359 444.368959 
L 496.324249 445.945001 
L 496.845275 446.664551 
L 497.291868 446.942476 
L 497.664029 446.944189 
L 498.03619 446.744872 
L 498.482784 446.25157 
L 499.00381 445.344113 
L 499.6737 443.689669 
L 500.492454 440.996094 
L 501.460073 436.992359 
L 502.650989 431.085283 
L 504.288498 421.740108 
L 510.68967 383.876082 
L 512.252747 376.496338 
L 513.66696 370.847872 
L 514.932308 366.662249 
L 516.123223 363.469993 
L 517.239707 361.113128 
L 518.281758 359.438069 
L 519.249377 358.304447 
L 520.142564 357.589379 
L 521.035751 357.163569 
L 521.928938 356.997676 
L 522.822125 357.061838 
L 523.789744 357.356463 
L 524.906227 357.940353 
L 526.246007 358.913409 
L 527.957949 360.460835 
L 530.637509 363.230329 
L 534.731282 367.426684 
L 537.113114 369.53786 
L 539.271648 371.157957 
L 541.355751 372.448614 
L 543.439853 373.485334 
L 545.672821 374.345965 
L 548.054652 375.024696 
L 550.734212 375.555884 
L 553.934799 375.95656 
L 558.028571 376.231897 
L 564.057582 376.39069 
L 576.63663 376.445794 
L 630.6 376.448158 
L 630.6 376.448158 
" clip-path="url(#p7b3181b7f1)" style="fill: none; stroke: #0072b2; stroke-width: 2.5; stroke-linecap: square"/>
   </g>
   <g id="patch_21">
    <path d="M 478.2 489.74 
L 478.2 263.156315 
" style="fill: none; stroke: #000000; stroke-width: 0.8; stroke-linejoin: miter; stroke-linecap: square"/>
   </g>
   <g id="patch_22">
    <path d="M 630.6 489.74 
L 630.6 263.156315 
" style="fill: none"/>
   </g>
   <g id="patch_23">
    <path d="M 325.8 376.448158 
L 630.6 376.448158 
" style="fill: none; stroke: #000000; stroke-width: 0.8; stroke-linejoin: miter; stroke-linecap: square"/>
   </g>
   <g id="patch_24">
    <path d="M 325.8 263.156315 
L 630.6 263.156315 
" style="fill: none"/>
   </g>
   <g id="legend_4">
    <g id="patch_25">
     <path d="M 536.401163 307.031949 
L 616.6 307.031949 
Q 620.6 307.031949 620.6 303.031949 
L 620.6 277.156315 
Q 620.6 273.156315 616.6 273.156315 
L 536.401163 273.156315 
Q 532.401163 273.156315 532.401163 277.156315 
L 532.401163 303.031949 
Q 532.401163 307.031949 536.401163 307.031949 
z
" style="fill: #ffffff; opacity: 0.8; stroke: #cccccc; stroke-linejoin: miter"/>
    </g>
    <g id="line2d_16">
     <path d="M 540.401163 288.156315 
L 560.401163 288.156315 
L 580.401163 288.156315 
" style="fill: none; stroke: #0072b2; stroke-width: 2.5; stroke-linecap: square"/>
    </g>
    <g id="text_12">
     <!-- $D$ -->
     <g transform="translate(596.401163 295.156315) scale(0.2 -0.2)">
      <defs>
       <path id="CMMI12-44" d="M 1005 472 
C 947 249 934 185 486 185 
C 365 185 301 185 301 70 
C 301 0 339 0 467 0 
L 2496 0 
C 3789 0 5050 1332 5050 2753 
C 5050 3671 4499 4352 3584 4352 
L 1530 4352 
C 1408 4352 1350 4352 1350 4231 
C 1350 4167 1408 4167 1504 4167 
C 1894 4167 1894 4116 1894 4046 
C 1894 4034 1894 3995 1869 3899 
L 1005 472 
z
M 2355 3931 
C 2413 4167 2438 4167 2688 4167 
L 3392 4167 
C 3994 4167 4544 3842 4544 2963 
C 4544 2644 4416 1536 3795 835 
C 3616 625 3130 185 2394 185 
L 1664 185 
C 1574 185 1562 185 1523 192 
C 1453 198 1446 211 1446 262 
C 1446 307 1459 345 1472 402 
L 2355 3931 
z
" transform="scale(0.015625)"/>
      </defs>
      <use xlink:href="#CMMI12-44" transform="scale(0.996264)"/>
     </g>
    </g>
   </g>
  </g>
 </g>
 <defs>
  <clipPath id="pc43147793d">
   <rect x="7.2" y="16.556315" width="304.8" height="226.583685"/>
  </clipPath>
  <clipPath id="pcad874ea91">
   <rect x="325.8" y="16.556315" width="304.8" height="226.583685"/>
  </clipPath>
  <clipPath id="pdfd859019f">
   <rect x="7.2" y="263.156315" width="304.8" height="226.583685"/>
  </clipPath>
  <clipPath id="p7b3181b7f1">
   <rect x="325.8" y="263.156315" width="304.8" height="226.583685"/>
  </clipPath>
 </defs>
</svg>
